<?xml version="1.0" encoding="UTF-8" standalone="no"?>
<!-- Generated by SVGo -->

<svg
   width="11in"
   height="8.5in"
   viewBox="0 0 279.4 215.9"
   version="1.1"
   id="svg14"
   sodipodi:docname="plate edge as per swillkb.svg"
   inkscape:version="1.1.1 (3bf5ae0d25, 2021-09-20)"
   xmlns:inkscape="http://www.inkscape.org/namespaces/inkscape"
   xmlns:sodipodi="http://sodipodi.sourceforge.net/DTD/sodipodi-0.dtd"
   xmlns="http://www.w3.org/2000/svg"
   xmlns:svg="http://www.w3.org/2000/svg">
  <defs
     id="defs18" />
  <sodipodi:namedview
     id="namedview16"
     pagecolor="#ffffff"
     bordercolor="#666666"
     borderopacity="1.0"
     inkscape:pageshadow="2"
     inkscape:pageopacity="0.0"
     inkscape:pagecheckerboard="0"
     inkscape:document-units="mm"
     showgrid="false"
     units="in"
     inkscape:zoom="1.8021986"
     inkscape:cx="543.5028"
     inkscape:cy="423.6492"
     inkscape:window-width="2560"
     inkscape:window-height="1417"
     inkscape:window-x="2552"
     inkscape:window-y="-8"
     inkscape:window-maximized="1"
     inkscape:current-layer="svg14" />
  <polygon
     points="224.673,129.757 210.515,142.505 223.263,156.664 237.422,143.916 "
     style="fill:none;stroke:#000000;stroke-width:0.05mm"
     id="polygon4"
     transform="translate(-153.85837,30.830398)" />
  <polygon
     points="244.832,117.059 228.01,126.003 236.955,142.825 253.777,133.881 "
     style="fill:none;stroke:#000000;stroke-width:0.05mm"
     id="polygon6"
     transform="translate(-153.85837,30.830398)" />
  <polygon
     points="267.465,109.615 248.979,114.224 253.588,132.71 272.074,128.101 "
     style="fill:none;stroke:#000000;stroke-width:0.05mm"
     id="polygon8"
     transform="translate(-153.85837,30.830398)" />
  <polygon
     points="291.226,107.867 272.174,107.867 272.174,126.919 291.226,126.919 "
     style="fill:none;stroke:#000000;stroke-width:0.05mm"
     id="polygon10"
     transform="translate(-153.85837,30.830398)" />
  <path
     id="polygon12"
     style="fill:none;stroke:#000000;stroke-width:0.05mm"
     transform="translate(-153.85837,30.830398)"
     d="m 262.648,26.905 h -19.049 v 76.202 h 19.052 v -2.381 H 281.7 v -7.144 h 19.048 v 7.144 h 19.051 v 7.143 h 38.102 V 50.717 h -19.05 v -19.05 h -19.05 v -7.144 h -19.05 V 17.38 h -19.053 v 7.143 h -19.05 z" />
</svg>
