<?xml version="1.0" encoding="UTF-8"?>
<!-- Generated by SVGo -->
<svg width="352.901mm" height="151.664mm" viewBox="0.000 0.000 352.901 151.664" xmlns="http://www.w3.org/2000/svg" xmlns:xlink="http://www.w3.org/1999/xlink">
<polygon points="347.901,146.664 5.000,146.664 5.000,5.000 347.901,5.000" style="fill:none;stroke-width:0.050000mm;stroke:black"/>
<polygon points="204.082,132.692 213.450,143.096 223.854,133.729 214.486,123.325" style="fill:none;stroke-width:0.050000mm;stroke:black"/>
<polygon points="221.427,117.048 227.999,129.408 240.361,122.836 233.788,110.475" style="fill:none;stroke-width:0.050000mm;stroke:black"/>
<polygon points="242.041,106.064 245.428,119.648 259.012,116.261 255.625,102.677" style="fill:none;stroke-width:0.050000mm;stroke:black"/>
<polygon points="264.700,100.393 264.700,114.393 278.700,114.393 278.700,100.393" style="fill:none;stroke-width:0.050000mm;stroke:black"/>
<polygon points="312.325,81.343 312.325,95.343 326.325,95.343 326.325,81.343" style="fill:none;stroke-width:0.050000mm;stroke:black"/>
<polygon points="331.375,81.343 331.375,95.343 345.375,95.343 345.375,81.343" style="fill:none;stroke-width:0.050000mm;stroke:black"/>
<polygon points="236.125,76.581 236.125,90.581 250.125,90.581 250.125,76.581" style="fill:none;stroke-width:0.050000mm;stroke:black"/>
<polygon points="255.175,74.200 255.175,88.200 269.175,88.200 269.175,74.200" style="fill:none;stroke-width:0.050000mm;stroke:black"/>
<polygon points="293.275,74.200 293.275,88.200 307.275,88.200 307.275,74.200" style="fill:none;stroke-width:0.050000mm;stroke:black"/>
<polygon points="274.224,67.056 274.224,81.056 288.224,81.056 288.224,67.056" style="fill:none;stroke-width:0.050000mm;stroke:black"/>
<polygon points="312.325,62.293 312.325,76.293 326.325,76.293 326.325,62.293" style="fill:none;stroke-width:0.050000mm;stroke:black"/>
<polygon points="331.375,62.293 331.375,76.293 345.375,76.293 345.375,62.293" style="fill:none;stroke-width:0.050000mm;stroke:black"/>
<polygon points="236.125,57.531 236.125,71.531 250.125,71.531 250.125,57.531" style="fill:none;stroke-width:0.050000mm;stroke:black"/>
<polygon points="255.175,55.149 255.175,69.149 269.175,69.149 269.175,55.149" style="fill:none;stroke-width:0.050000mm;stroke:black"/>
<polygon points="293.275,55.149 293.275,69.149 307.275,69.149 307.275,55.149" style="fill:none;stroke-width:0.050000mm;stroke:black"/>
<polygon points="274.224,48.006 274.224,62.006 288.224,62.006 288.224,48.006" style="fill:none;stroke-width:0.050000mm;stroke:black"/>
<polygon points="312.325,43.243 312.325,57.243 326.325,57.243 326.325,43.243" style="fill:none;stroke-width:0.050000mm;stroke:black"/>
<polygon points="331.375,43.243 331.375,57.243 345.375,57.243 345.375,43.243" style="fill:none;stroke-width:0.050000mm;stroke:black"/>
<polygon points="236.125,38.481 236.125,52.481 250.125,52.481 250.125,38.481" style="fill:none;stroke-width:0.050000mm;stroke:black"/>
<polygon points="255.175,36.099 255.175,50.099 269.175,50.099 269.175,36.099" style="fill:none;stroke-width:0.050000mm;stroke:black"/>
<polygon points="293.275,36.099 293.275,50.099 307.275,50.099 307.275,36.099" style="fill:none;stroke-width:0.050000mm;stroke:black"/>
<polygon points="274.224,28.956 274.224,42.956 288.224,42.956 288.224,28.956" style="fill:none;stroke-width:0.050000mm;stroke:black"/>
<polygon points="312.325,24.193 312.325,38.193 326.325,38.193 326.325,24.193" style="fill:none;stroke-width:0.050000mm;stroke:black"/>
<polygon points="236.125,19.431 236.125,33.431 250.125,33.431 250.125,19.431" style="fill:none;stroke-width:0.050000mm;stroke:black"/>
<polygon points="255.175,17.050 255.175,31.050 269.175,31.050 269.175,17.050" style="fill:none;stroke-width:0.050000mm;stroke:black"/>
<polygon points="293.275,17.050 293.275,31.050 307.275,31.050 307.275,17.050" style="fill:none;stroke-width:0.050000mm;stroke:black"/>
<polygon points="274.224,9.906 274.224,23.906 288.224,23.906 288.224,9.906" style="fill:none;stroke-width:0.050000mm;stroke:black"/>
</svg>