<?xml version="1.0" encoding="UTF-8" standalone="no"?>
<!-- Generated by SVGo -->

<svg
   width="141.52094mm"
   height="133.41792mm"
   viewBox="0 0 141.52093 133.41792"
   version="1.1"
   id="svg58"
   sodipodi:docname="Switch Plate BlueJay Prototype v4 - Left hand only.svg"
   inkscape:version="1.1.1 (3bf5ae0d25, 2021-09-20)"
   xmlns:inkscape="http://www.inkscape.org/namespaces/inkscape"
   xmlns:sodipodi="http://sodipodi.sourceforge.net/DTD/sodipodi-0.dtd"
   xmlns="http://www.w3.org/2000/svg"
   xmlns:svg="http://www.w3.org/2000/svg">
  <defs
     id="defs62" />
  <sodipodi:namedview
     id="namedview60"
     pagecolor="#ffffff"
     bordercolor="#666666"
     borderopacity="1.0"
     inkscape:pageshadow="2"
     inkscape:pageopacity="0.0"
     inkscape:pagecheckerboard="0"
     inkscape:document-units="mm"
     showgrid="false"
     inkscape:zoom="0.79322293"
     inkscape:cx="-104.00607"
     inkscape:cy="250.24491"
     inkscape:window-width="2560"
     inkscape:window-height="1417"
     inkscape:window-x="2552"
     inkscape:window-y="-8"
     inkscape:window-maximized="1"
     inkscape:current-layer="svg58" />
  <polygon
     points="214.486,123.325 204.082,132.692 213.45,143.096 223.854,133.729 "
     style="fill:none;stroke:#000000;stroke-width:0.05mm"
     id="polygon4"
     transform="matrix(-1,0,0,1,345.46949,-9.8115118)" />
  <polygon
     points="233.788,110.475 221.427,117.048 227.999,129.408 240.361,122.836 "
     style="fill:none;stroke:#000000;stroke-width:0.05mm"
     id="polygon6"
     transform="matrix(-1,0,0,1,345.46949,-9.8115118)" />
  <polygon
     points="255.625,102.677 242.041,106.064 245.428,119.648 259.012,116.261 "
     style="fill:none;stroke:#000000;stroke-width:0.05mm"
     id="polygon8"
     transform="matrix(-1,0,0,1,345.46949,-9.8115118)" />
  <polygon
     points="278.7,100.393 264.7,100.393 264.7,114.393 278.7,114.393 "
     style="fill:none;stroke:#000000;stroke-width:0.05mm"
     id="polygon10"
     transform="matrix(-1,0,0,1,345.46949,-9.8115118)" />
  <polygon
     points="326.325,81.343 312.325,81.343 312.325,95.343 326.325,95.343 "
     style="fill:none;stroke:#000000;stroke-width:0.05mm"
     id="polygon12"
     transform="matrix(-1,0,0,1,345.46949,-9.8115118)" />
  <polygon
     points="345.375,81.343 331.375,81.343 331.375,95.343 345.375,95.343 "
     style="fill:none;stroke:#000000;stroke-width:0.05mm"
     id="polygon14"
     transform="matrix(-1,0,0,1,345.46949,-9.8115118)" />
  <polygon
     points="250.125,76.581 236.125,76.581 236.125,90.581 250.125,90.581 "
     style="fill:none;stroke:#000000;stroke-width:0.05mm"
     id="polygon16"
     transform="matrix(-1,0,0,1,345.46949,-9.8115118)" />
  <polygon
     points="269.175,74.2 255.175,74.2 255.175,88.2 269.175,88.2 "
     style="fill:none;stroke:#000000;stroke-width:0.05mm"
     id="polygon18"
     transform="matrix(-1,0,0,1,345.46949,-9.8115118)" />
  <polygon
     points="307.275,74.2 293.275,74.2 293.275,88.2 307.275,88.2 "
     style="fill:none;stroke:#000000;stroke-width:0.05mm"
     id="polygon20"
     transform="matrix(-1,0,0,1,345.46949,-9.8115118)" />
  <polygon
     points="288.224,67.056 274.224,67.056 274.224,81.056 288.224,81.056 "
     style="fill:none;stroke:#000000;stroke-width:0.05mm"
     id="polygon22"
     transform="matrix(-1,0,0,1,345.46949,-9.8115118)" />
  <polygon
     points="326.325,62.293 312.325,62.293 312.325,76.293 326.325,76.293 "
     style="fill:none;stroke:#000000;stroke-width:0.05mm"
     id="polygon24"
     transform="matrix(-1,0,0,1,345.46949,-9.8115118)" />
  <polygon
     points="345.375,62.293 331.375,62.293 331.375,76.293 345.375,76.293 "
     style="fill:none;stroke:#000000;stroke-width:0.05mm"
     id="polygon26"
     transform="matrix(-1,0,0,1,345.46949,-9.8115118)" />
  <polygon
     points="250.125,57.531 236.125,57.531 236.125,71.531 250.125,71.531 "
     style="fill:none;stroke:#000000;stroke-width:0.05mm"
     id="polygon28"
     transform="matrix(-1,0,0,1,345.46949,-9.8115118)" />
  <polygon
     points="269.175,55.149 255.175,55.149 255.175,69.149 269.175,69.149 "
     style="fill:none;stroke:#000000;stroke-width:0.05mm"
     id="polygon30"
     transform="matrix(-1,0,0,1,345.46949,-9.8115118)" />
  <polygon
     points="307.275,55.149 293.275,55.149 293.275,69.149 307.275,69.149 "
     style="fill:none;stroke:#000000;stroke-width:0.05mm"
     id="polygon32"
     transform="matrix(-1,0,0,1,345.46949,-9.8115118)" />
  <polygon
     points="288.224,48.006 274.224,48.006 274.224,62.006 288.224,62.006 "
     style="fill:none;stroke:#000000;stroke-width:0.05mm"
     id="polygon34"
     transform="matrix(-1,0,0,1,345.46949,-9.8115118)" />
  <polygon
     points="326.325,43.243 312.325,43.243 312.325,57.243 326.325,57.243 "
     style="fill:none;stroke:#000000;stroke-width:0.05mm"
     id="polygon36"
     transform="matrix(-1,0,0,1,345.46949,-9.8115118)" />
  <polygon
     points="345.375,43.243 331.375,43.243 331.375,57.243 345.375,57.243 "
     style="fill:none;stroke:#000000;stroke-width:0.05mm"
     id="polygon38"
     transform="matrix(-1,0,0,1,345.46949,-9.8115118)" />
  <polygon
     points="250.125,38.481 236.125,38.481 236.125,52.481 250.125,52.481 "
     style="fill:none;stroke:#000000;stroke-width:0.05mm"
     id="polygon40"
     transform="matrix(-1,0,0,1,345.46949,-9.8115118)" />
  <polygon
     points="269.175,36.099 255.175,36.099 255.175,50.099 269.175,50.099 "
     style="fill:none;stroke:#000000;stroke-width:0.05mm"
     id="polygon42"
     transform="matrix(-1,0,0,1,345.46949,-9.8115118)" />
  <polygon
     points="307.275,36.099 293.275,36.099 293.275,50.099 307.275,50.099 "
     style="fill:none;stroke:#000000;stroke-width:0.05mm"
     id="polygon44"
     transform="matrix(-1,0,0,1,345.46949,-9.8115118)" />
  <polygon
     points="288.224,28.956 274.224,28.956 274.224,42.956 288.224,42.956 "
     style="fill:none;stroke:#000000;stroke-width:0.05mm"
     id="polygon46"
     transform="matrix(-1,0,0,1,345.46949,-9.8115118)" />
  <polygon
     points="326.325,24.193 312.325,24.193 312.325,38.193 326.325,38.193 "
     style="fill:none;stroke:#000000;stroke-width:0.05mm"
     id="polygon48"
     transform="matrix(-1,0,0,1,345.46949,-9.8115118)" />
  <polygon
     points="250.125,19.431 236.125,19.431 236.125,33.431 250.125,33.431 "
     style="fill:none;stroke:#000000;stroke-width:0.05mm"
     id="polygon50"
     transform="matrix(-1,0,0,1,345.46949,-9.8115118)" />
  <polygon
     points="269.175,17.05 255.175,17.05 255.175,31.05 269.175,31.05 "
     style="fill:none;stroke:#000000;stroke-width:0.05mm"
     id="polygon52"
     transform="matrix(-1,0,0,1,345.46949,-9.8115118)" />
  <polygon
     points="307.275,17.05 293.275,17.05 293.275,31.05 307.275,31.05 "
     style="fill:none;stroke:#000000;stroke-width:0.05mm"
     id="polygon54"
     transform="matrix(-1,0,0,1,345.46949,-9.8115118)" />
  <polygon
     points="288.224,9.906 274.224,9.906 274.224,23.906 288.224,23.906 "
     style="fill:none;stroke:#000000;stroke-width:0.05mm"
     id="polygon56"
     transform="matrix(-1,0,0,1,345.46949,-9.8115118)" />
</svg>
