M48
; DRILL file {KiCad (6.0.5)} date Mon Jul 25 14:14:30 2022
; FORMAT={-:-/ absolute / inch / decimal}
; #@! TF.CreationDate,2022-07-25T14:14:30-03:00
; #@! TF.GenerationSoftware,Kicad,Pcbnew,(6.0.5)
; #@! TF.FileFunction,NonPlated,1,2,NPTH
FMAT,2
INCH
; #@! TA.AperFunction,NonPlated,NPTH,ComponentDrill
T1C0.0059
%
G90
G05
T1
G00X-3.2725Y0.7414
M15
G01X-3.2725Y0.1961
M16
G05
G00X-3.2725Y-0.0086
M15
G01X-3.2725Y-0.5539
M16
G05
G00X-3.2725Y-0.7586
M15
G01X-3.2725Y-1.3039
M16
G05
G00X-3.2726Y0.7413
M15
G01X-2.7274Y0.7413
M16
G05
G00X-3.2726Y0.1963
M15
G01X-2.7274Y0.1963
M16
G05
G00X-3.2726Y-0.0088
M15
G01X-2.7274Y-0.0088
M16
G05
G00X-3.2726Y-0.5538
M15
G01X-2.7274Y-0.5538
M16
G05
G00X-3.2726Y-0.7588
M15
G01X-2.7274Y-0.7588
M16
G05
G00X-3.2726Y-1.3038
M15
G01X-2.7274Y-1.3038
M16
G05
G00X-2.7275Y0.7414
M15
G01X-2.7275Y0.1961
M16
G05
G00X-2.7275Y-0.0086
M15
G01X-2.7275Y-0.5539
M16
G05
G00X-2.7275Y-0.7586
M15
G01X-2.7275Y-1.3039
M16
G05
G00X-2.5225Y1.4914
M15
G01X-2.5225Y0.9461
M16
G05
G00X-2.5225Y0.7414
M15
G01X-2.5225Y0.1961
M16
G05
G00X-2.5225Y-0.0086
M15
G01X-2.5225Y-0.5539
M16
G05
G00X-2.5225Y-0.7586
M15
G01X-2.5225Y-1.3039
M16
G05
G00X-2.5226Y1.4913
M15
G01X-1.9774Y1.4913
M16
G05
G00X-2.5226Y0.9463
M15
G01X-1.9774Y0.9463
M16
G05
G00X-2.5226Y0.7413
M15
G01X-1.9774Y0.7413
M16
G05
G00X-2.5226Y0.1963
M15
G01X-1.9774Y0.1963
M16
G05
G00X-2.5226Y-0.0088
M15
G01X-1.9774Y-0.0088
M16
G05
G00X-2.5226Y-0.5538
M15
G01X-1.9774Y-0.5538
M16
G05
G00X-2.5226Y-0.7588
M15
G01X-1.9774Y-0.7588
M16
G05
G00X-2.5226Y-1.3038
M15
G01X-1.9774Y-1.3038
M16
G05
G00X-1.9775Y1.4914
M15
G01X-1.9775Y0.9461
M16
G05
G00X-1.9775Y0.7414
M15
G01X-1.9775Y0.1961
M16
G05
G00X-1.9775Y-0.0086
M15
G01X-1.9775Y-0.5539
M16
G05
G00X-1.9775Y-0.7586
M15
G01X-1.9775Y-1.3039
M16
G05
G00X-1.7725Y1.7726
M15
G01X-1.7725Y1.2274
M16
G05
G00X-1.7725Y1.0226
M15
G01X-1.7725Y0.4774
M16
G05
G00X-1.7725Y0.2726
M15
G01X-1.7725Y-0.2726
M16
G05
G00X-1.7725Y-0.4774
M15
G01X-1.7725Y-1.0226
M16
G05
G00X-1.7726Y1.7725
M15
G01X-1.2274Y1.7725
M16
G05
G00X-1.7726Y1.2275
M15
G01X-1.2274Y1.2275
M16
G05
G00X-1.7726Y1.0225
M15
G01X-1.2274Y1.0225
M16
G05
G00X-1.7726Y0.4775
M15
G01X-1.2274Y0.4775
M16
G05
G00X-1.7726Y0.2725
M15
G01X-1.2274Y0.2725
M16
G05
G00X-1.7726Y-0.2725
M15
G01X-1.2274Y-0.2725
M16
G05
G00X-1.7726Y-0.4775
M15
G01X-1.2274Y-0.4775
M16
G05
G00X-1.7726Y-1.0225
M15
G01X-1.2274Y-1.0225
M16
G05
G00X-1.2275Y1.7726
M15
G01X-1.2275Y1.2274
M16
G05
G00X-1.2275Y1.0226
M15
G01X-1.2275Y0.4774
M16
G05
G00X-1.2275Y0.2726
M15
G01X-1.2275Y-0.2726
M16
G05
G00X-1.2275Y-0.4774
M15
G01X-1.2275Y-1.0226
M16
G05
G00X-1.0225Y2.0539
M15
G01X-1.0225Y1.5086
M16
G05
G00X-1.0225Y1.3039
M15
G01X-1.0225Y0.7586
M16
G05
G00X-1.0225Y0.5539
M15
G01X-1.0225Y0.0086
M16
G05
G00X-1.0225Y-0.1961
M15
G01X-1.0225Y-0.7414
M16
G05
G00X-1.0226Y2.0538
M15
G01X-0.4774Y2.0538
M16
G05
G00X-1.0226Y1.5088
M15
G01X-0.4774Y1.5088
M16
G05
G00X-1.0226Y1.3038
M15
G01X-0.4774Y1.3038
M16
G05
G00X-1.0226Y0.7588
M15
G01X-0.4774Y0.7588
M16
G05
G00X-1.0226Y0.5538
M15
G01X-0.4774Y0.5538
M16
G05
G00X-1.0226Y0.0088
M15
G01X-0.4774Y0.0088
M16
G05
G00X-1.0226Y-0.1963
M15
G01X-0.4774Y-0.1963
M16
G05
G00X-1.0226Y-0.7413
M15
G01X-0.4774Y-0.7413
M16
G05
G00X-0.6475Y-1.5086
M15
G01X-0.6475Y-2.0539
M16
G05
G00X-0.4775Y2.0539
M15
G01X-0.4775Y1.5086
M16
G05
G00X-0.4775Y1.3039
M15
G01X-0.4775Y0.7586
M16
G05
G00X-0.4775Y0.5539
M15
G01X-0.4775Y0.0086
M16
G05
G00X-0.4775Y-0.1961
M15
G01X-0.4775Y-0.7414
M16
G05
G00X-0.6476Y-1.5088
M15
G01X-0.1024Y-1.5088
M16
G05
G00X-0.6476Y-2.0538
M15
G01X-0.1024Y-2.0538
M16
G05
G00X-0.2725Y1.7726
M15
G01X-0.2725Y1.2274
M16
G05
G00X-0.2725Y1.0226
M15
G01X-0.2725Y0.4774
M16
G05
G00X-0.2725Y0.2726
M15
G01X-0.2725Y-0.2726
M16
G05
G00X-0.2725Y-0.4774
M15
G01X-0.2725Y-1.0226
M16
G05
G00X-0.1025Y-1.5086
M15
G01X-0.1025Y-2.0539
M16
G05
G00X-0.2726Y1.7725
M15
G01X0.2726Y1.7725
M16
G05
G00X-0.2726Y1.2275
M15
G01X0.2726Y1.2275
M16
G05
G00X-0.2726Y1.0225
M15
G01X0.2726Y1.0225
M16
G05
G00X-0.2726Y0.4775
M15
G01X0.2726Y0.4775
M16
G05
G00X-0.2726Y0.2725
M15
G01X0.2726Y0.2725
M16
G05
G00X-0.2726Y-0.2725
M15
G01X0.2726Y-0.2725
M16
G05
G00X-0.2726Y-0.4775
M15
G01X0.2726Y-0.4775
M16
G05
G00X-0.2726Y-1.0225
M15
G01X0.2726Y-1.0225
M16
G05
G00X0.2595Y-1.5993
M15
G01X0.1276Y-2.1284
M16
G05
G00X0.2725Y1.7726
M15
G01X0.2725Y1.2274
M16
G05
G00X0.2725Y1.0226
M15
G01X0.2725Y0.4774
M16
G05
G00X0.2725Y0.2726
M15
G01X0.2725Y-0.2726
M16
G05
G00X0.2725Y-0.4774
M15
G01X0.2725Y-1.0226
M16
G05
G00X0.1275Y-2.1282
M15
G01X0.6565Y-2.2601
M16
G05
G00X0.4775Y1.6789
M15
G01X0.4775Y1.1336
M16
G05
G00X0.4775Y0.9289
M15
G01X0.4775Y0.3836
M16
G05
G00X0.4775Y0.1789
M15
G01X0.4775Y-0.3664
M16
G05
G00X0.4775Y-0.5711
M15
G01X0.4775Y-1.1164
M16
G05
G00X0.2593Y-1.5994
M15
G01X0.7884Y-1.7313
M16
G05
G00X0.7883Y-1.7312
M15
G01X0.6564Y-2.2602
M16
G05
G00X0.4774Y1.6788
M15
G01X1.0226Y1.6788
M16
G05
G00X0.4774Y1.1338
M15
G01X1.0226Y1.1338
M16
G05
G00X0.4774Y0.9288
M15
G01X1.0226Y0.9288
M16
G05
G00X0.4774Y0.3838
M15
G01X1.0226Y0.3838
M16
G05
G00X0.4774Y0.1787
M15
G01X1.0226Y0.1787
M16
G05
G00X0.4774Y-0.3663
M15
G01X1.0226Y-0.3663
M16
G05
G00X0.4774Y-0.5713
M15
G01X1.0226Y-0.5713
M16
G05
G00X0.4774Y-1.1163
M15
G01X1.0226Y-1.1163
M16
G05
G00X1.1185Y-1.908
M15
G01X0.8626Y-2.3894
M16
G05
G00X1.0225Y1.6789
M15
G01X1.0225Y1.1336
M16
G05
G00X1.0225Y0.9289
M15
G01X1.0225Y0.3836
M16
G05
G00X1.0225Y0.1789
M15
G01X1.0225Y-0.3664
M16
G05
G00X1.0225Y-0.5711
M15
G01X1.0225Y-1.1164
M16
G05
G00X0.8625Y-2.3892
M15
G01X1.3439Y-2.6452
M16
G05
G00X1.1184Y-1.908
M15
G01X1.5998Y-2.164
M16
G05
G00X1.5997Y-2.1638
M15
G01X1.3438Y-2.6453
M16
G05
G00X1.8776Y-2.4125
M15
G01X1.5127Y-2.8178
M16
G05
G00X1.5127Y-2.8176
M15
G01X1.918Y-3.1824
M16
G05
G00X1.8774Y-2.4126
M15
G01X2.2826Y-2.7774
M16
G05
G00X2.2826Y-2.7772
M15
G01X1.9178Y-3.1824
M16
G05
T0
M30
