G04 #@! TF.GenerationSoftware,KiCad,Pcbnew,(6.0.5)*
G04 #@! TF.CreationDate,2022-10-04T21:39:33-03:00*
G04 #@! TF.ProjectId,bluejay_left,626c7565-6a61-4795-9f6c-6566742e6b69,rev?*
G04 #@! TF.SameCoordinates,Original*
G04 #@! TF.FileFunction,Profile,NP*
%FSLAX46Y46*%
G04 Gerber Fmt 4.6, Leading zero omitted, Abs format (unit mm)*
G04 Created by KiCad (PCBNEW (6.0.5)) date 2022-10-04 21:39:33*
%MOMM*%
%LPD*%
G01*
G04 APERTURE LIST*
G04 #@! TA.AperFunction,Profile*
%ADD10C,0.100000*%
G04 #@! TD*
G04 #@! TA.AperFunction,Profile*
%ADD11C,0.010000*%
G04 #@! TD*
G04 APERTURE END LIST*
D10*
X61230000Y-72740000D02*
X49620000Y-85750000D01*
X47830000Y-85700000D02*
G75*
G03*
X-16740000Y-56040000I-69646014J-66505155D01*
G01*
X61460038Y54169999D02*
G75*
G03*
X59580000Y56175000I-1949538J55901D01*
G01*
X61460000Y-72000000D02*
X61460000Y54170000D01*
X-85230000Y56170000D02*
G75*
G03*
X-87230000Y54180000I-23922J-1975983D01*
G01*
X-87230000Y-35110000D02*
G75*
G03*
X-85230000Y-37140000I2022111J-7994D01*
G01*
X-87230000Y54180000D02*
X-87230000Y-35110000D01*
X-85230000Y-37140000D02*
X-33720000Y-37140000D01*
X-32310000Y-37540000D02*
X-18470000Y-55430000D01*
X59580000Y56175000D02*
X57300000Y56200000D01*
X-18470000Y-55430000D02*
G75*
G03*
X-16740000Y-56040000I1578336J1718066D01*
G01*
X61229990Y-72739994D02*
G75*
G03*
X61460000Y-72000000I-1533490J882394D01*
G01*
X40100000Y56200000D02*
X-85230000Y56170000D01*
X47830020Y-85699985D02*
G75*
G03*
X49620000Y-85750000I914180J661785D01*
G01*
X-32310000Y-37539999D02*
G75*
G03*
X-33720000Y-37140000I-1331682J-2009057D01*
G01*
D11*
X46700000Y56200000D02*
X40100000Y56200000D01*
X51200000Y56200000D02*
X51200000Y54900000D01*
X57300000Y56200000D02*
X51200000Y56200000D01*
X46700000Y54900000D02*
X46700000Y56200000D01*
X51200000Y54900000D02*
X46700000Y54900000D01*
M02*
