%FSLAX45Y45*%
G04 Gerber Fmt 4.5, Leading zero omitted, Abs format (unit mm)*
G04 Created by KiCad (PCBNEW (6.0.5)) date 2022-10-04 21:26:53*
%MOMM*%
%LPD*%
G01*
G04 APERTURE LIST*
%TA.AperFunction,Profile*%
%ADD10C,0.100000*%
%TD*%
%ADD11C,0.200000*%
%ADD12C,0.170000*%
G04 APERTURE END LIST*
D10*
X-4772000Y4905000D02*
G75*
G03*
X-4881000Y4794000I1000J-110000D01*
G01*
X-8583155Y2285561D02*
G75*
G03*
X-8723000Y2174000I203J-143685D01*
G01*
X1063000Y4665000D02*
X2891000Y4665000D01*
X-8583155Y2285561D02*
X-6899133Y2284710D01*
X6217000Y-7172000D02*
X4962000Y-8575000D01*
X-4881000Y4794000D02*
X-4879133Y4300710D01*
X-813000Y5509000D02*
G75*
G03*
X-926000Y5620000I-110189J843D01*
G01*
X-2975155Y5508561D02*
X-2974644Y5015635D01*
X-926000Y5620000D02*
X-2866000Y5620000D01*
X-6677155Y4192000D02*
X-4988133Y4189710D01*
X-1847000Y-5543000D02*
G75*
G03*
X-1674000Y-5604000I157834J171807D01*
G01*
X-4772000Y4905000D02*
X-3083644Y4904635D01*
X-813000Y5509000D02*
X-816463Y5013473D01*
X4783000Y-8570000D02*
G75*
G03*
X-1674000Y-5604000I-6964601J-6650515D01*
G01*
X3000000Y4554000D02*
X3000000Y-4215000D01*
X6216999Y-7171999D02*
G75*
G03*
X6162000Y-6837000I-268949J127860D01*
G01*
X2999998Y4554000D02*
G75*
G03*
X2891000Y4665000I-108218J2750D01*
G01*
X-8723000Y-3511000D02*
G75*
G03*
X-8523000Y-3714000I202211J-799D01*
G01*
X-8723000Y2174000D02*
X-8723000Y-3511000D01*
X-6786155Y4080000D02*
X-6790133Y2395000D01*
X-8523000Y-3714000D02*
X-3372000Y-3714000D01*
X948000Y4774000D02*
G75*
G03*
X1063000Y4665000I112000J3000D01*
G01*
X-816463Y5013473D02*
G75*
G03*
X-705000Y4904000I110468J995D01*
G01*
X-4988133Y4189710D02*
G75*
G03*
X-4879133Y4300710I-1000J110000D01*
G01*
X-3231000Y-3754000D02*
X-1847000Y-5543000D01*
X6162000Y-6837000D02*
G75*
G03*
X3181000Y-4504000I-6735713J-5535591D01*
G01*
X-705000Y4904000D02*
X839000Y4905000D01*
X-3231000Y-3754000D02*
G75*
G03*
X-3372000Y-3714000I-133168J-200906D01*
G01*
X-6899133Y2284710D02*
G75*
G03*
X-6790133Y2395000I-645J109645D01*
G01*
X-3083644Y4904635D02*
G75*
G03*
X-2974644Y5015635I-1000J110000D01*
G01*
X2999997Y-4215000D02*
G75*
G03*
X3181000Y-4504000I390753J43550D01*
G01*
X-2866000Y5620000D02*
G75*
G03*
X-2975155Y5508561I1142J-110297D01*
G01*
X4783002Y-8569999D02*
G75*
G03*
X4962000Y-8575000I91418J66179D01*
G01*
X-6677155Y4192000D02*
G75*
G03*
X-6786155Y4080000I1500J-110500D01*
G01*
X948000Y4774000D02*
G75*
G03*
X839000Y4905000I-117863J12778D01*
G01*
D11*
D12*
X-6765000Y325000D02*
X-6595000Y155000D01*
X-6595000Y325000D02*
X-6765000Y155000D01*
X-3000000Y-870000D02*
X-2830000Y-1040000D01*
X-2830000Y-870000D02*
X-3000000Y-1040000D01*
X-2994000Y2944000D02*
X-2824000Y2774000D01*
X-2824000Y2944000D02*
X-2994000Y2774000D01*
X815000Y2945000D02*
X985000Y2775000D01*
X985000Y2945000D02*
X815000Y2775000D01*
X845000Y-3067000D02*
X1015000Y-3237000D01*
X1015000Y-3067000D02*
X845000Y-3237000D01*
X3938000Y-6297000D02*
X4108000Y-6467000D01*
X4108000Y-6297000D02*
X3938000Y-6467000D01*
D11*
X-8470383Y-8932154D02*
X-8470383Y-8732154D01*
X-8422764Y-8732154D01*
X-8394192Y-8741678D01*
X-8375144Y-8760725D01*
X-8365621Y-8779773D01*
X-8356097Y-8817868D01*
X-8356097Y-8846440D01*
X-8365621Y-8884535D01*
X-8375144Y-8903582D01*
X-8394192Y-8922630D01*
X-8422764Y-8932154D01*
X-8470383Y-8932154D01*
X-8270382Y-8932154D02*
X-8270382Y-8798820D01*
X-8270382Y-8836916D02*
X-8260859Y-8817868D01*
X-8251335Y-8808344D01*
X-8232287Y-8798820D01*
X-8213240Y-8798820D01*
X-8146573Y-8932154D02*
X-8146573Y-8798820D01*
X-8146573Y-8732154D02*
X-8156097Y-8741678D01*
X-8146573Y-8751201D01*
X-8137049Y-8741678D01*
X-8146573Y-8732154D01*
X-8146573Y-8751201D01*
X-8022763Y-8932154D02*
X-8041811Y-8922630D01*
X-8051335Y-8903582D01*
X-8051335Y-8732154D01*
X-7918002Y-8932154D02*
X-7937049Y-8922630D01*
X-7946573Y-8903582D01*
X-7946573Y-8732154D01*
X-7689430Y-8932154D02*
X-7689430Y-8732154D01*
X-7622763Y-8875011D01*
X-7556097Y-8732154D01*
X-7556097Y-8932154D01*
X-7375144Y-8932154D02*
X-7375144Y-8827392D01*
X-7384668Y-8808344D01*
X-7403716Y-8798820D01*
X-7441811Y-8798820D01*
X-7460859Y-8808344D01*
X-7375144Y-8922630D02*
X-7394192Y-8932154D01*
X-7441811Y-8932154D01*
X-7460859Y-8922630D01*
X-7470382Y-8903582D01*
X-7470382Y-8884535D01*
X-7460859Y-8865487D01*
X-7441811Y-8855963D01*
X-7394192Y-8855963D01*
X-7375144Y-8846440D01*
X-7279906Y-8798820D02*
X-7279906Y-8998820D01*
X-7279906Y-8808344D02*
X-7260859Y-8798820D01*
X-7222763Y-8798820D01*
X-7203716Y-8808344D01*
X-7194192Y-8817868D01*
X-7184668Y-8836916D01*
X-7184668Y-8894059D01*
X-7194192Y-8913106D01*
X-7203716Y-8922630D01*
X-7222763Y-8932154D01*
X-7260859Y-8932154D01*
X-7279906Y-8922630D01*
X-7098954Y-8913106D02*
X-7089430Y-8922630D01*
X-7098954Y-8932154D01*
X-7108478Y-8922630D01*
X-7098954Y-8913106D01*
X-7098954Y-8932154D01*
X-7098954Y-8808344D02*
X-7089430Y-8817868D01*
X-7098954Y-8827392D01*
X-7108478Y-8817868D01*
X-7098954Y-8808344D01*
X-7098954Y-8827392D01*
D12*
X-8898002Y-9176678D02*
X-8728002Y-9346678D01*
X-8728002Y-9176678D02*
X-8898002Y-9346678D01*
D11*
X-8365621Y-9352154D02*
X-8479906Y-9352154D01*
X-8422764Y-9352154D02*
X-8422764Y-9152154D01*
X-8441811Y-9180725D01*
X-8460859Y-9199773D01*
X-8479906Y-9209297D01*
X-8279906Y-9333106D02*
X-8270382Y-9342630D01*
X-8279906Y-9352154D01*
X-8289430Y-9342630D01*
X-8279906Y-9333106D01*
X-8279906Y-9352154D01*
X-8203716Y-9152154D02*
X-8070382Y-9152154D01*
X-8156097Y-9352154D01*
X-7956097Y-9152154D02*
X-7937049Y-9152154D01*
X-7918002Y-9161678D01*
X-7908478Y-9171201D01*
X-7898954Y-9190249D01*
X-7889430Y-9228344D01*
X-7889430Y-9275963D01*
X-7898954Y-9314059D01*
X-7908478Y-9333106D01*
X-7918002Y-9342630D01*
X-7937049Y-9352154D01*
X-7956097Y-9352154D01*
X-7975144Y-9342630D01*
X-7984668Y-9333106D01*
X-7994192Y-9314059D01*
X-8003716Y-9275963D01*
X-8003716Y-9228344D01*
X-7994192Y-9190249D01*
X-7984668Y-9171201D01*
X-7975144Y-9161678D01*
X-7956097Y-9152154D01*
X-7765621Y-9152154D02*
X-7746573Y-9152154D01*
X-7727525Y-9161678D01*
X-7718002Y-9171201D01*
X-7708478Y-9190249D01*
X-7698954Y-9228344D01*
X-7698954Y-9275963D01*
X-7708478Y-9314059D01*
X-7718002Y-9333106D01*
X-7727525Y-9342630D01*
X-7746573Y-9352154D01*
X-7765621Y-9352154D01*
X-7784668Y-9342630D01*
X-7794192Y-9333106D01*
X-7803716Y-9314059D01*
X-7813240Y-9275963D01*
X-7813240Y-9228344D01*
X-7803716Y-9190249D01*
X-7794192Y-9171201D01*
X-7784668Y-9161678D01*
X-7765621Y-9152154D01*
X-7613240Y-9352154D02*
X-7613240Y-9218820D01*
X-7613240Y-9237868D02*
X-7603716Y-9228344D01*
X-7584668Y-9218820D01*
X-7556097Y-9218820D01*
X-7537049Y-9228344D01*
X-7527525Y-9247392D01*
X-7527525Y-9352154D01*
X-7527525Y-9247392D02*
X-7518002Y-9228344D01*
X-7498954Y-9218820D01*
X-7470382Y-9218820D01*
X-7451335Y-9228344D01*
X-7441811Y-9247392D01*
X-7441811Y-9352154D01*
X-7346573Y-9352154D02*
X-7346573Y-9218820D01*
X-7346573Y-9237868D02*
X-7337049Y-9228344D01*
X-7318002Y-9218820D01*
X-7289430Y-9218820D01*
X-7270382Y-9228344D01*
X-7260859Y-9247392D01*
X-7260859Y-9352154D01*
X-7260859Y-9247392D02*
X-7251335Y-9228344D01*
X-7232287Y-9218820D01*
X-7203716Y-9218820D01*
X-7184668Y-9228344D01*
X-7175144Y-9247392D01*
X-7175144Y-9352154D01*
X-6784668Y-9142630D02*
X-6956097Y-9399773D01*
X-6527525Y-9152154D02*
X-6508478Y-9152154D01*
X-6489430Y-9161678D01*
X-6479906Y-9171201D01*
X-6470382Y-9190249D01*
X-6460859Y-9228344D01*
X-6460859Y-9275963D01*
X-6470382Y-9314059D01*
X-6479906Y-9333106D01*
X-6489430Y-9342630D01*
X-6508478Y-9352154D01*
X-6527525Y-9352154D01*
X-6546573Y-9342630D01*
X-6556097Y-9333106D01*
X-6565621Y-9314059D01*
X-6575144Y-9275963D01*
X-6575144Y-9228344D01*
X-6565621Y-9190249D01*
X-6556097Y-9171201D01*
X-6546573Y-9161678D01*
X-6527525Y-9152154D01*
X-6375144Y-9333106D02*
X-6365621Y-9342630D01*
X-6375144Y-9352154D01*
X-6384668Y-9342630D01*
X-6375144Y-9333106D01*
X-6375144Y-9352154D01*
X-6241811Y-9152154D02*
X-6222763Y-9152154D01*
X-6203716Y-9161678D01*
X-6194192Y-9171201D01*
X-6184668Y-9190249D01*
X-6175144Y-9228344D01*
X-6175144Y-9275963D01*
X-6184668Y-9314059D01*
X-6194192Y-9333106D01*
X-6203716Y-9342630D01*
X-6222763Y-9352154D01*
X-6241811Y-9352154D01*
X-6260859Y-9342630D01*
X-6270382Y-9333106D01*
X-6279906Y-9314059D01*
X-6289430Y-9275963D01*
X-6289430Y-9228344D01*
X-6279906Y-9190249D01*
X-6270382Y-9171201D01*
X-6260859Y-9161678D01*
X-6241811Y-9152154D01*
X-6003716Y-9152154D02*
X-6041811Y-9152154D01*
X-6060859Y-9161678D01*
X-6070382Y-9171201D01*
X-6089430Y-9199773D01*
X-6098954Y-9237868D01*
X-6098954Y-9314059D01*
X-6089430Y-9333106D01*
X-6079906Y-9342630D01*
X-6060859Y-9352154D01*
X-6022763Y-9352154D01*
X-6003716Y-9342630D01*
X-5994192Y-9333106D01*
X-5984668Y-9314059D01*
X-5984668Y-9266440D01*
X-5994192Y-9247392D01*
X-6003716Y-9237868D01*
X-6022763Y-9228344D01*
X-6060859Y-9228344D01*
X-6079906Y-9237868D01*
X-6089430Y-9247392D01*
X-6098954Y-9266440D01*
X-5813240Y-9152154D02*
X-5851335Y-9152154D01*
X-5870382Y-9161678D01*
X-5879906Y-9171201D01*
X-5898954Y-9199773D01*
X-5908478Y-9237868D01*
X-5908478Y-9314059D01*
X-5898954Y-9333106D01*
X-5889430Y-9342630D01*
X-5870382Y-9352154D01*
X-5832287Y-9352154D01*
X-5813240Y-9342630D01*
X-5803716Y-9333106D01*
X-5794192Y-9314059D01*
X-5794192Y-9266440D01*
X-5803716Y-9247392D01*
X-5813240Y-9237868D01*
X-5832287Y-9228344D01*
X-5870382Y-9228344D01*
X-5889430Y-9237868D01*
X-5898954Y-9247392D01*
X-5908478Y-9266440D01*
X-5698954Y-9352154D02*
X-5660859Y-9352154D01*
X-5641811Y-9342630D01*
X-5632287Y-9333106D01*
X-5613240Y-9304535D01*
X-5603716Y-9266440D01*
X-5603716Y-9190249D01*
X-5613240Y-9171201D01*
X-5622763Y-9161678D01*
X-5641811Y-9152154D01*
X-5679906Y-9152154D01*
X-5698954Y-9161678D01*
X-5708478Y-9171201D01*
X-5718002Y-9190249D01*
X-5718002Y-9237868D01*
X-5708478Y-9256916D01*
X-5698954Y-9266440D01*
X-5679906Y-9275963D01*
X-5641811Y-9275963D01*
X-5622763Y-9266440D01*
X-5613240Y-9256916D01*
X-5603716Y-9237868D01*
X-5527525Y-9152154D02*
X-5527525Y-9190249D01*
X-5451335Y-9152154D02*
X-5451335Y-9190249D01*
X-5156097Y-9428344D02*
X-5165621Y-9418820D01*
X-5184668Y-9390249D01*
X-5194192Y-9371201D01*
X-5203716Y-9342630D01*
X-5213240Y-9295011D01*
X-5213240Y-9256916D01*
X-5203716Y-9209297D01*
X-5194192Y-9180725D01*
X-5184668Y-9161678D01*
X-5165621Y-9133106D01*
X-5156097Y-9123582D01*
X-4994192Y-9152154D02*
X-5032287Y-9152154D01*
X-5051335Y-9161678D01*
X-5060859Y-9171201D01*
X-5079906Y-9199773D01*
X-5089430Y-9237868D01*
X-5089430Y-9314059D01*
X-5079906Y-9333106D01*
X-5070383Y-9342630D01*
X-5051335Y-9352154D01*
X-5013240Y-9352154D01*
X-4994192Y-9342630D01*
X-4984668Y-9333106D01*
X-4975144Y-9314059D01*
X-4975144Y-9266440D01*
X-4984668Y-9247392D01*
X-4994192Y-9237868D01*
X-5013240Y-9228344D01*
X-5051335Y-9228344D01*
X-5070383Y-9237868D01*
X-5079906Y-9247392D01*
X-5089430Y-9266440D01*
X-4737049Y-9352154D02*
X-4737049Y-9152154D01*
X-4651335Y-9352154D02*
X-4651335Y-9247392D01*
X-4660859Y-9228344D01*
X-4679906Y-9218820D01*
X-4708478Y-9218820D01*
X-4727525Y-9228344D01*
X-4737049Y-9237868D01*
X-4527525Y-9352154D02*
X-4546573Y-9342630D01*
X-4556097Y-9333106D01*
X-4565621Y-9314059D01*
X-4565621Y-9256916D01*
X-4556097Y-9237868D01*
X-4546573Y-9228344D01*
X-4527525Y-9218820D01*
X-4498954Y-9218820D01*
X-4479906Y-9228344D01*
X-4470383Y-9237868D01*
X-4460859Y-9256916D01*
X-4460859Y-9314059D01*
X-4470383Y-9333106D01*
X-4479906Y-9342630D01*
X-4498954Y-9352154D01*
X-4527525Y-9352154D01*
X-4346573Y-9352154D02*
X-4365621Y-9342630D01*
X-4375144Y-9323582D01*
X-4375144Y-9152154D01*
X-4194192Y-9342630D02*
X-4213240Y-9352154D01*
X-4251335Y-9352154D01*
X-4270383Y-9342630D01*
X-4279906Y-9323582D01*
X-4279906Y-9247392D01*
X-4270383Y-9228344D01*
X-4251335Y-9218820D01*
X-4213240Y-9218820D01*
X-4194192Y-9228344D01*
X-4184668Y-9247392D01*
X-4184668Y-9266440D01*
X-4279906Y-9285487D01*
X-4108478Y-9342630D02*
X-4089430Y-9352154D01*
X-4051335Y-9352154D01*
X-4032287Y-9342630D01*
X-4022763Y-9323582D01*
X-4022763Y-9314059D01*
X-4032287Y-9295011D01*
X-4051335Y-9285487D01*
X-4079906Y-9285487D01*
X-4098954Y-9275963D01*
X-4108478Y-9256916D01*
X-4108478Y-9247392D01*
X-4098954Y-9228344D01*
X-4079906Y-9218820D01*
X-4051335Y-9218820D01*
X-4032287Y-9228344D01*
X-3956097Y-9428344D02*
X-3946573Y-9418820D01*
X-3927525Y-9390249D01*
X-3918002Y-9371201D01*
X-3908478Y-9342630D01*
X-3898954Y-9295011D01*
X-3898954Y-9256916D01*
X-3908478Y-9209297D01*
X-3918002Y-9180725D01*
X-3927525Y-9161678D01*
X-3946573Y-9133106D01*
X-3956097Y-9123582D01*
M02*
