G04 #@! TF.GenerationSoftware,KiCad,Pcbnew,(6.0.5)*
G04 #@! TF.CreationDate,2022-10-04T21:40:35-03:00*
G04 #@! TF.ProjectId,bluejay_right,626c7565-6a61-4795-9f72-696768742e6b,rev?*
G04 #@! TF.SameCoordinates,Original*
G04 #@! TF.FileFunction,Soldermask,Top*
G04 #@! TF.FilePolarity,Negative*
%FSLAX46Y46*%
G04 Gerber Fmt 4.6, Leading zero omitted, Abs format (unit mm)*
G04 Created by KiCad (PCBNEW (6.0.5)) date 2022-10-04 21:40:35*
%MOMM*%
%LPD*%
G01*
G04 APERTURE LIST*
%ADD10C,4.400000*%
%ADD11C,1.701800*%
%ADD12C,3.987800*%
%ADD13C,2.286000*%
%ADD14R,1.600000X1.600000*%
%ADD15O,1.600000X1.600000*%
%ADD16C,1.100000*%
%ADD17R,1.650000X1.650000*%
%ADD18C,1.650000*%
%ADD19R,1.200000X1.200000*%
%ADD20C,1.200000*%
%ADD21C,1.400000*%
%ADD22O,1.400000X1.400000*%
%ADD23C,1.600000*%
G04 APERTURE END LIST*
D10*
X29150000Y-9550000D03*
D11*
X43180000Y38100000D03*
X33020000Y38100000D03*
D12*
X38100000Y38100000D03*
D13*
X40640000Y43180000D03*
X34290000Y40640000D03*
D10*
X-9000000Y28600000D03*
X66800000Y2400000D03*
D14*
X8770000Y-2400000D03*
D15*
X13850000Y-2400000D03*
D14*
X-34836300Y3500000D03*
D15*
X-29756300Y3500000D03*
D14*
X-34836300Y-11750000D03*
D15*
X-29756300Y-11750000D03*
D11*
X-35756574Y-60211216D03*
D12*
X-31271200Y-57826300D03*
D11*
X-26785826Y-55441384D03*
D13*
X-31413429Y-52148468D03*
X-35827688Y-57372300D03*
D16*
X-48950000Y53300000D03*
X-48950000Y48300000D03*
D17*
X-44150000Y53300000D03*
D18*
X-52550000Y48300000D03*
X-47350000Y45200000D03*
X-53450000Y53300000D03*
D11*
X5080000Y38100000D03*
D12*
X0Y38100000D03*
D11*
X-5080000Y38100000D03*
D13*
X2540000Y43180000D03*
X-3810000Y40640000D03*
D12*
X38100000Y0D03*
D11*
X43180000Y0D03*
X33020000Y0D03*
D13*
X40640000Y5080000D03*
X34290000Y2540000D03*
D19*
X-55150000Y40650000D03*
D20*
X-56650000Y40650000D03*
D14*
X-35086300Y20000000D03*
D15*
X-30006300Y20000000D03*
D14*
X82817500Y27750000D03*
D15*
X77737500Y27750000D03*
D14*
X81630000Y36250000D03*
D15*
X76550000Y36250000D03*
D11*
X71120000Y11906300D03*
X81280000Y11906300D03*
D12*
X76200000Y11906300D03*
D13*
X78740000Y16986300D03*
X72390000Y14446300D03*
D10*
X-40230000Y-63820000D03*
D14*
X64317500Y52450000D03*
D15*
X59237500Y52450000D03*
D10*
X29090000Y28590000D03*
D11*
X43180000Y-19050000D03*
X33020000Y-19050000D03*
D12*
X38100000Y-19050000D03*
D13*
X40640000Y-13970000D03*
X34290000Y-16510000D03*
D11*
X71120000Y-26193800D03*
D12*
X76200000Y-26193800D03*
D11*
X81280000Y-26193800D03*
D13*
X78740000Y-21113800D03*
X72390000Y-23653800D03*
D11*
X-13970000Y-2381300D03*
X-24130000Y-2381300D03*
D12*
X-19050000Y-2381300D03*
D13*
X-16510000Y2698700D03*
X-22860000Y158700D03*
D11*
X13970000Y7143800D03*
D12*
X19050000Y7143800D03*
D11*
X24130000Y7143800D03*
D13*
X21590000Y12223800D03*
X15240000Y9683800D03*
D14*
X-36586300Y12500000D03*
D15*
X-31506300Y12500000D03*
D11*
X33020000Y19050000D03*
X43180000Y19050000D03*
D12*
X38100000Y19050000D03*
D13*
X40640000Y24130000D03*
X34290000Y21590000D03*
D12*
X0Y19050000D03*
D11*
X-5080000Y19050000D03*
X5080000Y19050000D03*
D13*
X2540000Y24130000D03*
X-3810000Y21590000D03*
D14*
X-36586300Y-4500000D03*
D15*
X-31506300Y-4500000D03*
D11*
X81280000Y-7143800D03*
X71120000Y-7143800D03*
D12*
X76200000Y-7143800D03*
D13*
X78740000Y-2063800D03*
X72390000Y-4603800D03*
D21*
X-57850000Y43900000D03*
D22*
X-57850000Y48980000D03*
D12*
X0Y0D03*
D11*
X5080000Y0D03*
X-5080000Y0D03*
D13*
X2540000Y5080000D03*
X-3810000Y2540000D03*
D14*
X35882500Y-9400000D03*
D15*
X40962500Y-9400000D03*
D12*
X57150000Y-26193800D03*
D11*
X62230000Y-26193800D03*
X52070000Y-26193800D03*
D13*
X59690000Y-21113800D03*
X53340000Y-23653800D03*
D11*
X-13970000Y16668800D03*
D12*
X-19050000Y16668800D03*
D11*
X-24130000Y16668800D03*
D13*
X-16510000Y21748800D03*
X-22860000Y19208800D03*
D11*
X-5080000Y-19050000D03*
D12*
X0Y-19050000D03*
D11*
X5080000Y-19050000D03*
D13*
X2540000Y-13970000D03*
X-3810000Y-16510000D03*
D14*
X40830000Y52500000D03*
D15*
X35750000Y52500000D03*
D11*
X-24130000Y35718800D03*
X-13970000Y35718800D03*
D12*
X-19050000Y35718800D03*
D13*
X-16510000Y40798800D03*
X-22860000Y38258800D03*
D12*
X57150000Y-7143800D03*
D11*
X52070000Y-7143800D03*
X62230000Y-7143800D03*
D13*
X59690000Y-2063800D03*
X53340000Y-4603800D03*
D14*
X53780000Y44950000D03*
D15*
X48700000Y44950000D03*
D14*
X-34817500Y-26750000D03*
D15*
X-29737500Y-26750000D03*
D12*
X19050000Y45243800D03*
D11*
X13970000Y45243800D03*
X24130000Y45243800D03*
D13*
X21590000Y50323800D03*
X15240000Y47783800D03*
D14*
X72580000Y40450000D03*
D15*
X67500000Y40450000D03*
D14*
X-6180000Y52450000D03*
D15*
X-1100000Y52450000D03*
D21*
X-49990000Y41000000D03*
D22*
X-44910000Y41000000D03*
D12*
X-11631200Y-49016300D03*
D11*
X-6702098Y-47787337D03*
X-16560302Y-50245263D03*
D13*
X-10395612Y-43472716D03*
X-15942508Y-47473471D03*
D11*
X-13970000Y-21431300D03*
D12*
X-19050000Y-21431300D03*
D11*
X-24130000Y-21431300D03*
D13*
X-16510000Y-16351300D03*
X-22860000Y-18891300D03*
D14*
X-13630000Y48600000D03*
D15*
X-8550000Y48600000D03*
D14*
X52580000Y52500000D03*
D15*
X47500000Y52500000D03*
D23*
X-56660000Y-3990000D03*
X-56660000Y-8990000D03*
D12*
X9525000Y-45243800D03*
D11*
X4445000Y-45243800D03*
X14605000Y-45243800D03*
D13*
X12065000Y-40163800D03*
X5715000Y-42703800D03*
D14*
X22117500Y-28400000D03*
D15*
X17037500Y-28400000D03*
D14*
X-53750000Y15000000D03*
D15*
X-53750000Y12460000D03*
X-53750000Y9920000D03*
X-53750000Y7380000D03*
X-53750000Y4840000D03*
X-53750000Y2300000D03*
X-53750000Y-240000D03*
X-53750000Y-2780000D03*
X-53750000Y-5320000D03*
X-53750000Y-7860000D03*
X-53750000Y-10400000D03*
X-53750000Y-12940000D03*
X-53750000Y-15480000D03*
X-53750000Y-18020000D03*
X-46130000Y-18020000D03*
X-46130000Y-15480000D03*
X-46130000Y-12940000D03*
X-46130000Y-10400000D03*
X-46130000Y-7860000D03*
X-46130000Y-5320000D03*
X-46130000Y-2780000D03*
X-46130000Y-240000D03*
X-46130000Y2300000D03*
X-46130000Y4840000D03*
X-46130000Y7380000D03*
X-46130000Y9920000D03*
X-46130000Y12460000D03*
X-46130000Y15000000D03*
D11*
X13970000Y-11906300D03*
X24130000Y-11906300D03*
D12*
X19050000Y-11906300D03*
D13*
X21590000Y-6826300D03*
X15240000Y-9366300D03*
D14*
X1470000Y48600000D03*
D15*
X6550000Y48600000D03*
D11*
X62230000Y11906300D03*
D12*
X57150000Y11906300D03*
D11*
X52070000Y11906300D03*
D13*
X59690000Y16986300D03*
X53340000Y14446300D03*
D14*
X66230000Y44950000D03*
D15*
X61150000Y44950000D03*
D14*
X2130000Y-32700000D03*
D15*
X-2950000Y-32700000D03*
D14*
X80380000Y44950000D03*
D15*
X75300000Y44950000D03*
D12*
X19050000Y26193800D03*
D11*
X13970000Y26193800D03*
X24130000Y26193800D03*
D13*
X21590000Y31273800D03*
X15240000Y28733800D03*
D14*
X-36567500Y-19500000D03*
D15*
X-31487500Y-19500000D03*
D14*
X-33970000Y-43650000D03*
D15*
X-39050000Y-43650000D03*
D12*
X-48270000Y-71060000D03*
D11*
X-52045176Y-74459183D03*
X-44494824Y-67660817D03*
D13*
X-49781596Y-65585233D03*
X-52800974Y-71721800D03*
D14*
X73780000Y32000000D03*
D15*
X68700000Y32000000D03*
D12*
X57150000Y30956300D03*
D11*
X52070000Y30956300D03*
X62230000Y30956300D03*
D13*
X59690000Y36036300D03*
X53340000Y33496300D03*
D14*
X-35930000Y27400000D03*
D15*
X-30850000Y27400000D03*
D10*
X-9300000Y-31520000D03*
D14*
X-48470000Y-55200000D03*
D15*
X-53550000Y-55200000D03*
M02*
