G04 #@! TF.GenerationSoftware,KiCad,Pcbnew,(6.0.5)*
G04 #@! TF.CreationDate,2022-10-04T21:25:23-03:00*
G04 #@! TF.ProjectId,bluejay_plate,626c7565-6a61-4795-9f70-6c6174652e6b,rev?*
G04 #@! TF.SameCoordinates,Original*
G04 #@! TF.FileFunction,Profile,NP*
%FSLAX46Y46*%
G04 Gerber Fmt 4.6, Leading zero omitted, Abs format (unit mm)*
G04 Created by KiCad (PCBNEW (6.0.5)) date 2022-10-04 21:25:23*
%MOMM*%
%LPD*%
G01*
G04 APERTURE LIST*
G04 #@! TA.AperFunction,Profile*
%ADD10C,0.100000*%
G04 #@! TD*
G04 APERTURE END LIST*
D10*
X-47720000Y49050000D02*
G75*
G03*
X-48810000Y47940000I10000J-1100000D01*
G01*
X-85831552Y22855605D02*
G75*
G03*
X-87230000Y21740000I2031J-1436850D01*
G01*
X10630000Y46650000D02*
X28910000Y46650000D01*
X-85831552Y22855605D02*
X-68991330Y22847097D01*
X62170000Y-71720000D02*
X49620000Y-85750000D01*
X-48810000Y47940000D02*
X-48791330Y43007097D01*
X-8130000Y55090000D02*
G75*
G03*
X-9260000Y56200000I-1101894J8432D01*
G01*
X-29751552Y55085605D02*
X-29746441Y50156351D01*
X-9260000Y56200000D02*
X-28660000Y56200000D01*
X-66771552Y41920000D02*
X-49881330Y41897097D01*
X-18470000Y-55430000D02*
G75*
G03*
X-16740000Y-56040000I1578336J1718066D01*
G01*
X-47720000Y49050000D02*
X-30836441Y49046351D01*
X-8130000Y55090000D02*
X-8164627Y50134734D01*
X47830000Y-85700000D02*
G75*
G03*
X-16740000Y-56040000I-69646014J-66505155D01*
G01*
X30000000Y45540000D02*
X30000000Y-42150000D01*
X62169989Y-71719995D02*
G75*
G03*
X61620000Y-68370000I-2689489J1278595D01*
G01*
X29999979Y45540001D02*
G75*
G03*
X28910000Y46650000I-1082179J27499D01*
G01*
X-87230000Y-35110000D02*
G75*
G03*
X-85230000Y-37140000I2022111J-7994D01*
G01*
X-87230000Y21740000D02*
X-87230000Y-35110000D01*
X-67861552Y40800000D02*
X-67901330Y23950000D01*
X-85230000Y-37140000D02*
X-33720000Y-37140000D01*
X9480000Y47740000D02*
G75*
G03*
X10630000Y46650000I1120000J30000D01*
G01*
X-8164627Y50134734D02*
G75*
G03*
X-7050000Y49040000I1104679J9945D01*
G01*
X-49881330Y41897097D02*
G75*
G03*
X-48791330Y43007097I-10000J1100000D01*
G01*
X-32310000Y-37540000D02*
X-18470000Y-55430000D01*
X61620000Y-68370000D02*
G75*
G03*
X31810000Y-45040000I-67357126J-55355913D01*
G01*
X-7050000Y49040000D02*
X8390000Y49050000D01*
X-32310000Y-37539999D02*
G75*
G03*
X-33720000Y-37140000I-1331682J-2009057D01*
G01*
X-68991330Y22847097D02*
G75*
G03*
X-67901330Y23950000I-6451J1096451D01*
G01*
X-30836441Y49046351D02*
G75*
G03*
X-29746441Y50156351I-10000J1100000D01*
G01*
X29999970Y-42150003D02*
G75*
G03*
X31810000Y-45040000I3907530J435503D01*
G01*
X-28660000Y56200000D02*
G75*
G03*
X-29751552Y55085605I11422J-1102974D01*
G01*
X47830020Y-85699985D02*
G75*
G03*
X49620000Y-85750000I914180J661785D01*
G01*
X-66771552Y41920000D02*
G75*
G03*
X-67861552Y40800000I15000J-1105000D01*
G01*
X9480002Y47740000D02*
G75*
G03*
X8390000Y49050000I-1178632J127780D01*
G01*
M02*
