G04 #@! TF.GenerationSoftware,KiCad,Pcbnew,(6.0.5)*
G04 #@! TF.CreationDate,2022-10-04T21:37:59-03:00*
G04 #@! TF.ProjectId,bluejay_base,626c7565-6a61-4795-9f62-6173652e6b69,rev?*
G04 #@! TF.SameCoordinates,Original*
G04 #@! TF.FileFunction,Legend,Top*
G04 #@! TF.FilePolarity,Positive*
%FSLAX46Y46*%
G04 Gerber Fmt 4.6, Leading zero omitted, Abs format (unit mm)*
G04 Created by KiCad (PCBNEW (6.0.5)) date 2022-10-04 21:37:59*
%MOMM*%
%LPD*%
G01*
G04 APERTURE LIST*
%ADD10C,0.150000*%
%ADD11C,0.311607*%
%ADD12C,1.000000*%
%ADD13C,4.400000*%
G04 APERTURE END LIST*
D10*
X-85119047Y-34782380D02*
X-85119047Y-35496666D01*
X-85166666Y-35639523D01*
X-85261904Y-35734761D01*
X-85404761Y-35782380D01*
X-85500000Y-35782380D01*
X-84166666Y-35782380D02*
X-84642857Y-35782380D01*
X-84642857Y-34782380D01*
X-83261904Y-35687142D02*
X-83309523Y-35734761D01*
X-83452380Y-35782380D01*
X-83547619Y-35782380D01*
X-83690476Y-35734761D01*
X-83785714Y-35639523D01*
X-83833333Y-35544285D01*
X-83880952Y-35353809D01*
X-83880952Y-35210952D01*
X-83833333Y-35020476D01*
X-83785714Y-34925238D01*
X-83690476Y-34830000D01*
X-83547619Y-34782380D01*
X-83452380Y-34782380D01*
X-83309523Y-34830000D01*
X-83261904Y-34877619D01*
X-82547619Y-34782380D02*
X-82547619Y-35496666D01*
X-82595238Y-35639523D01*
X-82690476Y-35734761D01*
X-82833333Y-35782380D01*
X-82928571Y-35782380D01*
X-81595238Y-35782380D02*
X-82071428Y-35782380D01*
X-82071428Y-34782380D01*
X-80690476Y-35687142D02*
X-80738095Y-35734761D01*
X-80880952Y-35782380D01*
X-80976190Y-35782380D01*
X-81119047Y-35734761D01*
X-81214285Y-35639523D01*
X-81261904Y-35544285D01*
X-81309523Y-35353809D01*
X-81309523Y-35210952D01*
X-81261904Y-35020476D01*
X-81214285Y-34925238D01*
X-81119047Y-34830000D01*
X-80976190Y-34782380D01*
X-80880952Y-34782380D01*
X-80738095Y-34830000D01*
X-80690476Y-34877619D01*
X-79976190Y-34782380D02*
X-79976190Y-35496666D01*
X-80023809Y-35639523D01*
X-80119047Y-35734761D01*
X-80261904Y-35782380D01*
X-80357142Y-35782380D01*
X-79023809Y-35782380D02*
X-79500000Y-35782380D01*
X-79500000Y-34782380D01*
X-78119047Y-35687142D02*
X-78166666Y-35734761D01*
X-78309523Y-35782380D01*
X-78404761Y-35782380D01*
X-78547619Y-35734761D01*
X-78642857Y-35639523D01*
X-78690476Y-35544285D01*
X-78738095Y-35353809D01*
X-78738095Y-35210952D01*
X-78690476Y-35020476D01*
X-78642857Y-34925238D01*
X-78547619Y-34830000D01*
X-78404761Y-34782380D01*
X-78309523Y-34782380D01*
X-78166666Y-34830000D01*
X-78119047Y-34877619D01*
X-77404761Y-34782380D02*
X-77404761Y-35496666D01*
X-77452380Y-35639523D01*
X-77547619Y-35734761D01*
X-77690476Y-35782380D01*
X-77785714Y-35782380D01*
X-76452380Y-35782380D02*
X-76928571Y-35782380D01*
X-76928571Y-34782380D01*
X-75547619Y-35687142D02*
X-75595238Y-35734761D01*
X-75738095Y-35782380D01*
X-75833333Y-35782380D01*
X-75976190Y-35734761D01*
X-76071428Y-35639523D01*
X-76119047Y-35544285D01*
X-76166666Y-35353809D01*
X-76166666Y-35210952D01*
X-76119047Y-35020476D01*
X-76071428Y-34925238D01*
X-75976190Y-34830000D01*
X-75833333Y-34782380D01*
X-75738095Y-34782380D01*
X-75595238Y-34830000D01*
X-75547619Y-34877619D01*
D11*
X-23768264Y38789015D02*
X-23255432Y40897328D01*
X-44509601Y1751068D02*
X-41945436Y1295216D01*
X-46503946Y3175602D02*
X-46503946Y3175602D01*
X-32999261Y39187884D02*
X-32999261Y39187884D01*
X-10434698Y8189980D02*
X-10434698Y8189980D01*
X-1887479Y7107334D02*
X-1887479Y7107334D01*
X-48327356Y6537506D02*
X-48327356Y6537506D01*
X-22571746Y3118633D02*
X-22571746Y3118633D01*
X-177919Y13318312D02*
X-2970014Y15255680D01*
X-18127080Y20440994D02*
X-18127080Y20440994D01*
X-14195360Y16395311D02*
X-14195360Y16395311D01*
X8995974Y11039055D02*
X7970309Y11722832D01*
X-34480804Y21466658D02*
X-34423854Y20611935D01*
X-25021854Y37991275D02*
X-25021854Y37991275D01*
X-26503376Y42492809D02*
X-26503376Y42492809D01*
X-1545595Y11551887D02*
X-1545595Y11551887D01*
X-27073278Y4885056D02*
X-25192890Y3517502D01*
X-35107571Y37478442D02*
X-35107571Y37478442D01*
X-36247197Y28247448D02*
X-36247197Y27677633D01*
X-18127080Y20440994D02*
X-21432003Y27107822D01*
X-35506441Y25569321D02*
X-35449491Y24657618D01*
X-34423793Y35199184D02*
X-36304182Y36737683D01*
X-22571746Y3118633D02*
X-15733972Y5340908D01*
X-41945436Y1295216D02*
X-41945436Y1295216D01*
X-14195360Y16395311D02*
X-18127080Y20440994D01*
X-26503376Y37877313D02*
X-26503376Y42492809D01*
X-41945436Y1295216D02*
X-42116380Y-72338D01*
X-21830879Y28475376D02*
X-21830879Y28475376D01*
D12*
X140856379Y-70788940D02*
X140856379Y-70788940D01*
D11*
X-6332037Y11153019D02*
X-3369005Y12862461D01*
X9451827Y8759796D02*
X9280882Y9215649D01*
X-31574810Y3346558D02*
X-28668756Y5511852D01*
X-28554798Y11665848D02*
X-35335584Y12007736D01*
X-36304182Y36737683D02*
X-36418139Y35142202D01*
X-35107571Y37478442D02*
X-34423793Y35199184D01*
X-48270368Y11893770D02*
X-48270368Y11893770D01*
X-36418139Y33603704D02*
X-36133237Y32008224D01*
X-31574810Y3346558D02*
X-31574810Y3346558D01*
X-1887479Y7107334D02*
X334788Y5910725D01*
X-36304182Y36737683D02*
X-36304182Y36737683D01*
X-27472055Y37250516D02*
X-27472055Y37250516D01*
X-23027483Y31096522D02*
X-23027483Y31096522D01*
X-21033134Y30241800D02*
X-21830879Y28475376D01*
X-46902813Y4600140D02*
X-46503946Y3175602D01*
X-34537752Y30298780D02*
X-34537752Y30298780D01*
X-36247197Y27677633D02*
X-36247197Y27677633D01*
X-30378110Y40897328D02*
X-30093208Y38390146D01*
X-3141080Y10925095D02*
X-3710893Y11665852D01*
X-29010555Y38789015D02*
X-29010555Y38789015D01*
X-36418139Y33603704D02*
X-36418139Y33603704D01*
X-3369005Y12862461D02*
X-177919Y13318312D01*
X-3824853Y7449223D02*
X-1887479Y7107334D01*
X-34423854Y20611935D02*
X-32258556Y19187399D01*
X-7927518Y8987720D02*
X-7927518Y8987720D01*
X-23939209Y34914277D02*
X-23768264Y38789015D01*
X-33967971Y22207417D02*
X-33967971Y22207417D01*
X4494441Y5967709D02*
X8027285Y6765450D01*
X-15733972Y5340908D02*
X-10434698Y8189980D01*
X-3710893Y11665852D02*
X-3710893Y11665852D01*
X-48669244Y7962048D02*
X-48669244Y7962048D01*
X-36247197Y28247448D02*
X-36247197Y28247448D01*
X-44110725Y13489252D02*
X-44110725Y13489252D01*
X-34708697Y25683283D02*
X-35506441Y25569321D01*
X-10320623Y19073439D02*
X-10662504Y18788534D01*
X4608397Y12178686D02*
X1588385Y11096039D01*
X-23939209Y34914277D02*
X-23939209Y34914277D01*
X-31346885Y14856806D02*
X-31346885Y14856806D01*
X7970309Y11722832D02*
X7970309Y11722832D01*
X-44908468Y13204346D02*
X-44908468Y13204346D01*
X-13283659Y16167385D02*
X-13283659Y16167385D01*
X-41603547Y13033401D02*
X-41603547Y13033401D01*
X-42116380Y-72338D02*
X-39609193Y-15347D01*
X-48270368Y11893770D02*
X-47586591Y11153011D01*
X-9978735Y18047773D02*
X-10377603Y17363995D01*
X-10491567Y19529291D02*
X-10491567Y19529291D01*
X-48327356Y6537506D02*
X-48498300Y5340897D01*
X-35506441Y25569321D02*
X-35506441Y25569321D01*
X-27586019Y40783366D02*
X-27586019Y40783366D01*
X-9978735Y18047773D02*
X-9978735Y18047773D01*
X-10491567Y19529291D02*
X-10320623Y19073439D01*
X-34594739Y28076504D02*
X-34594739Y28076504D01*
X-48498300Y5340897D02*
X-48498300Y5340897D01*
X-23255432Y40897328D02*
X-23255432Y40897328D01*
X-25021854Y35142203D02*
X-24850910Y33318797D01*
X-34423826Y23574970D02*
X-34423826Y23574970D01*
X-25192890Y3517502D02*
X-25192890Y3517502D01*
X9964652Y11209999D02*
X9964652Y11209999D01*
X-26503376Y37877313D02*
X-26503376Y37877313D01*
X334788Y5910725D02*
X3468775Y5625820D01*
X5520106Y11323963D02*
X4608397Y12178686D01*
X-35449461Y39928644D02*
X-35449461Y39928644D01*
X-31346885Y14856806D02*
X-30606121Y13774160D01*
X-32828405Y17307009D02*
X-32828405Y17307009D01*
X-6160970Y18674568D02*
X-6160970Y18674568D01*
X-35335584Y12007736D02*
X-41603547Y13033401D01*
X-36418139Y35142202D02*
X-36418139Y35142202D01*
X-25021854Y37991275D02*
X-25021854Y35142203D01*
X-24850910Y33318797D02*
X-24850910Y33318797D01*
X-35620404Y33489740D02*
X-36418139Y33603704D01*
X-35620404Y33489740D02*
X-35620404Y33489740D01*
X8027285Y6765450D02*
X8027285Y6765450D01*
X-49182077Y10526215D02*
X-49182077Y10526215D01*
X-29922264Y42606772D02*
X-30378110Y40897328D01*
X-49182077Y7278267D02*
X-49182077Y7278267D01*
X-30093208Y38390146D02*
X-30093208Y38390146D01*
X-7927518Y8987720D02*
X-5078443Y8588852D01*
X-29352531Y13033401D02*
X-29352531Y13033401D01*
X-13283659Y16167385D02*
X-14195360Y16395311D01*
X-31745752Y16509270D02*
X-31745752Y16509270D01*
X-10320623Y19073439D02*
X-10320623Y19073439D01*
X-10377603Y17363995D02*
X-13283659Y16167385D01*
X-2970014Y15255680D02*
X-3881715Y17136068D01*
X-26503376Y42492809D02*
X-27586019Y40783366D01*
X-29466409Y35484092D02*
X-31460763Y38789015D01*
X-35449491Y24657618D02*
X-34423826Y23574970D01*
X-32258556Y19187399D02*
X-32258556Y19187399D01*
X-15733972Y5340908D02*
X-15733972Y5340908D01*
X-27586019Y40783366D02*
X-27472055Y37250516D01*
X-25192890Y3517502D02*
X-22571746Y3118633D01*
X1588385Y11096039D02*
X448752Y12064722D01*
X-3141080Y10925095D02*
X-3141080Y10925095D01*
X-21033134Y30241800D02*
X-21033134Y30241800D01*
X4608397Y12178686D02*
X4608397Y12178686D01*
X-30378110Y40897328D02*
X-30378110Y40897328D01*
X-21432003Y27107822D02*
X-21033134Y30241800D01*
X-32885355Y18332674D02*
X-32885355Y18332674D01*
X-44509601Y1751068D02*
X-44509601Y1751068D01*
X1588385Y11096039D02*
X1588385Y11096039D01*
X-46503946Y3175602D02*
X-44794503Y2947678D01*
X-47586591Y11153011D02*
X-49182077Y10526215D01*
X-36133237Y32008224D02*
X-36133237Y32008224D01*
X-37557861Y41634D02*
X-31574810Y3346558D01*
X-3881715Y17136068D02*
X-6160970Y18674568D01*
X-41603547Y13033401D02*
X-44110725Y13489252D01*
X-35449491Y24657618D02*
X-35449491Y24657618D01*
X-32258556Y19187399D02*
X-32885355Y18332674D01*
X-29352531Y13033401D02*
X-28554798Y11665848D01*
X-29010555Y38789015D02*
X-29922264Y42606772D01*
X-35677384Y29102170D02*
X-34594739Y28076504D01*
X-10434698Y8189980D02*
X-7927518Y8987720D01*
X-1545595Y11551887D02*
X-3141080Y10925095D01*
X-32144531Y35825980D02*
X-35449461Y39928644D01*
X-27130167Y34857296D02*
X-27130167Y34857296D01*
X-22001823Y34230501D02*
X-21318046Y36965611D01*
X-29922264Y42606772D02*
X-29922264Y42606772D01*
X-10662504Y18788534D02*
X-9978735Y18047773D01*
X-46902813Y4600140D02*
X-46902813Y4600140D01*
X-3710893Y11665852D02*
X-6332037Y11153019D01*
X-27073278Y4885056D02*
X-27073278Y4885056D01*
X9964652Y11209999D02*
X8995974Y11039055D01*
X-36418139Y35142202D02*
X-35620404Y33489740D01*
X-30093208Y38390146D02*
X-29466409Y35484092D01*
X-34708697Y25683283D02*
X-34708697Y25683283D01*
X-25021854Y35142203D02*
X-25021854Y35142203D01*
X-21318046Y36965611D02*
X-22628614Y35655037D01*
X-32885297Y41866012D02*
X-32885297Y41866012D01*
X448752Y12064722D02*
X448752Y12064722D01*
X-2970014Y15255680D02*
X-2970014Y15255680D01*
D12*
X140124934Y-71154663D02*
X140856379Y-70788940D01*
D11*
X-21318046Y36965611D02*
X-21318046Y36965611D01*
X-23198427Y33489742D02*
X-23027483Y31096522D01*
X-31745752Y16509270D02*
X-30606121Y16167379D01*
X-46105079Y13090382D02*
X-46674891Y12634531D01*
X-32144531Y35825980D02*
X-32144531Y35825980D01*
D12*
X141222102Y-71520386D02*
X140490656Y-71886108D01*
D11*
X-34480804Y21466658D02*
X-34480804Y21466658D01*
X-32999261Y39187884D02*
X-32144531Y35825980D01*
X-28554798Y11665848D02*
X-28554798Y11665848D01*
X334788Y5910725D02*
X334788Y5910725D01*
X-49523966Y8645824D02*
X-48669244Y7962048D01*
X9280882Y9215649D02*
X10363528Y10754147D01*
X-39609193Y-15347D02*
X-37557861Y41634D01*
X-30606121Y13774160D02*
X-29352531Y13033401D01*
X-34423854Y20611935D02*
X-34423854Y20611935D01*
X-3824853Y7449223D02*
X-3824853Y7449223D01*
X-29466409Y35484092D02*
X-29466409Y35484092D01*
X448752Y12064722D02*
X-1545595Y11551887D01*
X-10377603Y17363995D02*
X-10377603Y17363995D01*
X-49523966Y8645824D02*
X-49523966Y8645824D01*
X-48498300Y5340897D02*
X-46902813Y4600140D01*
X8027285Y6765450D02*
X9451827Y8759796D01*
X-32885355Y18332674D02*
X-32828405Y17307009D01*
X-30606121Y13774160D02*
X-30606121Y13774160D01*
X-35677384Y29102170D02*
X-35677384Y29102170D01*
X-31460763Y38789015D02*
X-31460763Y38789015D01*
X-30606121Y16167379D02*
X-30606121Y16167379D01*
X-44794503Y2947678D02*
X-44509601Y1751068D01*
X-32828405Y17307009D02*
X-31745752Y16509270D01*
X-32885297Y41866012D02*
X-32999261Y39187884D01*
X-24850910Y33318797D02*
X-26503376Y37877313D01*
X-37557861Y41634D02*
X-37557861Y41634D01*
X-22628614Y35655037D02*
X-23198427Y33489742D01*
X-33967971Y22207417D02*
X-34480804Y21466658D01*
X-44908468Y13204346D02*
X-46105079Y13090382D01*
X-23198427Y33489742D02*
X-23198427Y33489742D01*
X-46674891Y12634531D02*
X-48270368Y11893770D01*
X-31460763Y38789015D02*
X-32885297Y41866012D01*
X-34537752Y30298780D02*
X-36076251Y30754631D01*
X-46674891Y12634531D02*
X-46674891Y12634531D01*
X3468775Y5625820D02*
X3468775Y5625820D01*
X-3881715Y17136068D02*
X-3881715Y17136068D01*
X-28668756Y5511852D02*
X-28668756Y5511852D01*
X-27472055Y37250516D02*
X-27130167Y34857296D01*
X-42116380Y-72338D02*
X-42116380Y-72338D01*
X-3369005Y12862461D02*
X-3369005Y12862461D01*
X-46105079Y13090382D02*
X-46105079Y13090382D01*
D12*
X140856379Y-70788940D02*
X141222102Y-71520386D01*
X141222102Y-71520386D02*
X141222102Y-71520386D01*
D11*
X10363528Y10754147D02*
X9964652Y11209999D01*
X-6332037Y11153019D02*
X-6332037Y11153019D01*
X-36133237Y32008224D02*
X-34537752Y30298780D01*
X-22001823Y34230501D02*
X-22001823Y34230501D01*
X-32600416Y22321379D02*
X-33967971Y22207417D01*
X-23027483Y31096522D02*
X-22970533Y30298782D01*
X-5078443Y8588852D02*
X-3824853Y7449223D01*
X-36247197Y27677633D02*
X-34708697Y25683283D01*
X-22343711Y30583691D02*
X-22343711Y30583691D01*
X-22970533Y30298782D02*
X-22970533Y30298782D01*
X-21830879Y28475376D02*
X-22343711Y30583691D01*
X-49182077Y7278267D02*
X-48327356Y6537506D01*
X-36076251Y30754631D02*
X-35677384Y29102170D01*
X-35335584Y12007736D02*
X-35335584Y12007736D01*
X-48498300Y9386585D02*
X-49523966Y8645824D01*
X-34423793Y35199184D02*
X-34423793Y35199184D01*
D12*
X140124934Y-71154663D02*
X140124934Y-71154663D01*
X140490656Y-71886108D02*
X140124934Y-71154663D01*
D11*
X-5078443Y8588852D02*
X-5078443Y8588852D01*
X-32600416Y22321379D02*
X-32600416Y22321379D01*
X-22343711Y30583691D02*
X-22001823Y34230501D01*
X-22628614Y35655037D02*
X-22628614Y35655037D01*
X-28668756Y5511852D02*
X-27073278Y4885056D01*
X-10662504Y18788534D02*
X-10662504Y18788534D01*
X-34423826Y23574970D02*
X-32600416Y22321379D01*
X8995974Y11039055D02*
X8995974Y11039055D01*
X-6160970Y18674568D02*
X-10491567Y19529291D01*
X7970309Y11722832D02*
X5178210Y10697166D01*
X5178210Y10697166D02*
X5520106Y11323963D01*
X10363528Y10754147D02*
X10363528Y10754147D01*
X3468775Y5625820D02*
X4494441Y5967709D01*
X-34594739Y28076504D02*
X-36247197Y28247448D01*
X-49182077Y10526215D02*
X-48498300Y9386585D01*
X5520106Y11323963D02*
X5520106Y11323963D01*
X-36076251Y30754631D02*
X-36076251Y30754631D01*
X-48669244Y7962048D02*
X-49182077Y7278267D01*
X-44794503Y2947678D02*
X-44794503Y2947678D01*
X-21432003Y27107822D02*
X-21432003Y27107822D01*
X-35449461Y39928644D02*
X-35107571Y37478442D01*
X-27130167Y34857296D02*
X-29010555Y38789015D01*
X4494441Y5967709D02*
X4494441Y5967709D01*
X9280882Y9215649D02*
X9280882Y9215649D01*
X-30606121Y16167379D02*
X-31346885Y14856806D01*
X9451827Y8759796D02*
X9451827Y8759796D01*
X5178210Y10697166D02*
X5178210Y10697166D01*
X-44110725Y13489252D02*
X-44908468Y13204346D01*
X-23768264Y38789015D02*
X-23768264Y38789015D01*
X-23255432Y40897328D02*
X-25021854Y37991275D01*
X-48498300Y9386585D02*
X-48498300Y9386585D01*
X-39609193Y-15347D02*
X-39609193Y-15347D01*
X-47586591Y11153011D02*
X-47586591Y11153011D01*
X-22970533Y30298782D02*
X-23939209Y34914277D01*
%LPC*%
D13*
X-29150000Y-9550000D03*
X-29090000Y28590000D03*
X9000000Y28600000D03*
X40230000Y-63820000D03*
X9300000Y-31520000D03*
X-66800000Y2400000D03*
M02*
