%FSLAX45Y45*%
G04 Gerber Fmt 4.5, Leading zero omitted, Abs format (unit mm)*
G04 Created by KiCad (PCBNEW (6.0.5)) date 2022-10-04 21:39:44*
%MOMM*%
%LPD*%
G01*
G04 APERTURE LIST*
%TA.AperFunction,Profile*%
%ADD10C,0.100000*%
%TD*%
%ADD11C,0.200000*%
%ADD12C,0.040000*%
%ADD13C,0.060000*%
%ADD14C,0.070000*%
%ADD15C,0.080000*%
%ADD16C,0.101000*%
%ADD17C,0.110000*%
%ADD18C,0.149860*%
%ADD19C,0.220000*%
G04 APERTURE END LIST*
D10*
X6123000Y-7274000D02*
X4962000Y-8575000D01*
X4783000Y-8570000D02*
G75*
G03*
X-1674000Y-5604000I-6964601J-6650515D01*
G01*
X6146004Y5417000D02*
G75*
G03*
X5958000Y5617500I-194954J5590D01*
G01*
X6146000Y-7200000D02*
X6146000Y5417000D01*
X-8523000Y5617000D02*
G75*
G03*
X-8723000Y5418000I-2392J-197598D01*
G01*
X-8723000Y-3511000D02*
G75*
G03*
X-8523000Y-3714000I202211J-799D01*
G01*
X-8723000Y5418000D02*
X-8723000Y-3511000D01*
X-8523000Y-3714000D02*
X-3372000Y-3714000D01*
X-3231000Y-3754000D02*
X-1847000Y-5543000D01*
X5958000Y5617500D02*
X5730000Y5620000D01*
X-1847000Y-5543000D02*
G75*
G03*
X-1674000Y-5604000I157834J171807D01*
G01*
X6122999Y-7273999D02*
G75*
G03*
X6146000Y-7200000I-153349J88239D01*
G01*
X4010000Y5620000D02*
X-8523000Y5617000D01*
X4783002Y-8569999D02*
G75*
G03*
X4962000Y-8575000I91418J66179D01*
G01*
X-3231000Y-3754000D02*
G75*
G03*
X-3372000Y-3714000I-133168J-200906D01*
G01*
D11*
D12*
X4710000Y4640000D02*
X4750000Y4600000D01*
X4750000Y4640000D02*
X4710000Y4600000D01*
X4890000Y1460000D02*
X4930000Y1420000D01*
X4930000Y1460000D02*
X4890000Y1420000D01*
X4940000Y-1850000D02*
X4980000Y-1890000D01*
X4980000Y-1850000D02*
X4940000Y-1890000D01*
X5150000Y1670000D02*
X5190000Y1630000D01*
X5190000Y1670000D02*
X5150000Y1630000D01*
X5340000Y-2560000D02*
X5380000Y-2600000D01*
X5380000Y-2560000D02*
X5340000Y-2600000D01*
D13*
X5528120Y4134370D02*
G75*
G03*
X5528120Y4134370I-30000J0D01*
G01*
X5678120Y4134370D02*
G75*
G03*
X5678120Y4134370I-30000J0D01*
G01*
D14*
X2808120Y5264370D02*
X2808120Y5194370D01*
X2773120Y5229370D02*
X2843120Y5229370D01*
D11*
X2783120Y5289370D02*
X2783120Y5169370D01*
X2833120Y5289370D02*
X2833120Y5169370D01*
X2783120Y5169370D02*
G75*
G03*
X2833120Y5169370I25000J0D01*
G01*
X2833120Y5289370D02*
G75*
G03*
X2783120Y5289370I-25000J0D01*
G01*
D14*
X3013120Y4759370D02*
X3013120Y4689370D01*
X2978120Y4724370D02*
X3048120Y4724370D01*
X3093120Y4879370D02*
X3093120Y4809370D01*
X3058120Y4844370D02*
X3128120Y4844370D01*
X3173120Y4759370D02*
X3173120Y4689370D01*
X3138120Y4724370D02*
X3208120Y4724370D01*
X3253120Y4879370D02*
X3253120Y4809370D01*
X3218120Y4844370D02*
X3288120Y4844370D01*
X3333120Y4759370D02*
X3333120Y4689370D01*
X3298120Y4724370D02*
X3368120Y4724370D01*
X3538120Y5264370D02*
X3538120Y5194370D01*
X3503120Y5229370D02*
X3573120Y5229370D01*
D11*
X3513120Y5289370D02*
X3513120Y5169370D01*
X3563120Y5289370D02*
X3563120Y5169370D01*
X3513120Y5169370D02*
G75*
G03*
X3563120Y5169370I25000J0D01*
G01*
X3563120Y5289370D02*
G75*
G03*
X3513120Y5289370I-25000J0D01*
G01*
D14*
X3852000Y2785000D02*
X3852000Y2715000D01*
X3817000Y2750000D02*
X3887000Y2750000D01*
X3852000Y2535000D02*
X3852000Y2465000D01*
X3817000Y2500000D02*
X3887000Y2500000D01*
X4164000Y5133000D02*
X4164000Y5063000D01*
X4129000Y5098000D02*
X4199000Y5098000D01*
X4164000Y4625000D02*
X4164000Y4555000D01*
X4129000Y4590000D02*
X4199000Y4590000D01*
X4360000Y2785000D02*
X4360000Y2715000D01*
X4325000Y2750000D02*
X4395000Y2750000D01*
X4360000Y2535000D02*
X4360000Y2465000D01*
X4325000Y2500000D02*
X4395000Y2500000D01*
X4600000Y2445000D02*
X4600000Y2375000D01*
X4565000Y2410000D02*
X4635000Y2410000D01*
X4600000Y1937000D02*
X4600000Y1867000D01*
X4565000Y1902000D02*
X4635000Y1902000D01*
D15*
X-8253465Y2746716D02*
X-8253465Y2803284D01*
X-8310034Y2803284D01*
X-8310034Y2746716D01*
X-8253465Y2746716D01*
X-8134715Y3596715D02*
X-8134715Y3653284D01*
X-8191284Y3653284D01*
X-8191284Y3596715D01*
X-8134715Y3596715D01*
X-8009715Y4466716D02*
X-8009715Y4523285D01*
X-8066284Y4523285D01*
X-8066284Y4466716D01*
X-8009715Y4466716D01*
X-7745465Y2746716D02*
X-7745465Y2803284D01*
X-7802034Y2803284D01*
X-7802034Y2746716D01*
X-7745465Y2746716D01*
X-7626715Y3596715D02*
X-7626715Y3653284D01*
X-7683284Y3653284D01*
X-7683284Y3596715D01*
X-7626715Y3596715D01*
X-7501715Y4466716D02*
X-7501715Y4523285D01*
X-7558284Y4523285D01*
X-7558284Y4466716D01*
X-7501715Y4466716D01*
X-7349715Y3171715D02*
X-7349715Y3228284D01*
X-7406284Y3228284D01*
X-7406284Y3171715D01*
X-7349715Y3171715D01*
X-7229715Y4016715D02*
X-7229715Y4073284D01*
X-7286284Y4073284D01*
X-7286284Y4016715D01*
X-7229715Y4016715D01*
X-6841715Y3171715D02*
X-6841715Y3228284D01*
X-6898284Y3228284D01*
X-6898284Y3171715D01*
X-6841715Y3171715D01*
X-6721715Y4016715D02*
X-6721715Y4073284D01*
X-6778284Y4073284D01*
X-6778284Y4016715D01*
X-6721715Y4016715D01*
X-6524715Y4466716D02*
X-6524715Y4523285D01*
X-6581284Y4523285D01*
X-6581284Y4466716D01*
X-6524715Y4466716D01*
X-6403465Y5216716D02*
X-6403465Y5273285D01*
X-6460034Y5273285D01*
X-6460034Y5216716D01*
X-6403465Y5216716D01*
X-6016715Y4466716D02*
X-6016715Y4523285D01*
X-6073284Y4523285D01*
X-6073284Y4466716D01*
X-6016715Y4466716D01*
X-5895465Y5216716D02*
X-5895465Y5273285D01*
X-5952034Y5273285D01*
X-5952034Y5216716D01*
X-5895465Y5216716D01*
X-5349716Y4466716D02*
X-5349716Y4523285D01*
X-5406285Y4523285D01*
X-5406285Y4466716D01*
X-5349716Y4466716D01*
X-5229716Y5221716D02*
X-5229716Y5278285D01*
X-5286285Y5278285D01*
X-5286285Y5221716D01*
X-5229716Y5221716D01*
X-4841716Y4466716D02*
X-4841716Y4523285D01*
X-4898285Y4523285D01*
X-4898285Y4466716D01*
X-4841716Y4466716D01*
X-4721716Y5221716D02*
X-4721716Y5278285D01*
X-4778285Y5278285D01*
X-4778285Y5221716D01*
X-4721716Y5221716D01*
X-4054715Y5221716D02*
X-4054715Y5278285D01*
X-4111284Y5278285D01*
X-4111284Y5221716D01*
X-4054715Y5221716D01*
X-4029715Y-978284D02*
X-4029715Y-921715D01*
X-4086284Y-921715D01*
X-4086284Y-978284D01*
X-4029715Y-978284D01*
X-3546715Y5221716D02*
X-3546715Y5278285D01*
X-3603284Y5278285D01*
X-3603284Y5221716D01*
X-3546715Y5221716D01*
X-3521715Y-978284D02*
X-3521715Y-921715D01*
X-3578284Y-921715D01*
X-3578284Y-978284D01*
X-3521715Y-978284D01*
X-2183466Y-2868284D02*
X-2183466Y-2811715D01*
X-2240035Y-2811715D01*
X-2240035Y-2868284D01*
X-2183466Y-2868284D01*
X-1675465Y-2868284D02*
X-1675465Y-2811715D01*
X-1732034Y-2811715D01*
X-1732034Y-2868284D01*
X-1675465Y-2868284D01*
X-1356716Y-268285D02*
X-1356716Y-211715D01*
X-1413284Y-211715D01*
X-1413284Y-268285D01*
X-1356716Y-268285D01*
X-848715Y-268285D02*
X-848715Y-211715D01*
X-905284Y-211715D01*
X-905284Y-268285D01*
X-848715Y-268285D01*
X-626716Y4831716D02*
X-626716Y4888285D01*
X-683285Y4888285D01*
X-683285Y4831716D01*
X-626716Y4831716D01*
X-184715Y-3298284D02*
X-184715Y-3241715D01*
X-241284Y-3241715D01*
X-241284Y-3298284D01*
X-184715Y-3298284D01*
X-118715Y4831716D02*
X-118715Y4888285D01*
X-175284Y4888285D01*
X-175284Y4831716D01*
X-118715Y4831716D01*
X138285Y5216716D02*
X138285Y5273285D01*
X81716Y5273285D01*
X81716Y5216716D01*
X138285Y5216716D01*
X323285Y-3298284D02*
X323285Y-3241715D01*
X266716Y-3241715D01*
X266716Y-3298284D01*
X323285Y-3298284D01*
X646285Y5216716D02*
X646285Y5273285D01*
X589716Y5273285D01*
X589716Y5216716D01*
X646285Y5216716D01*
X883284Y4831716D02*
X883284Y4888285D01*
X826715Y4888285D01*
X826715Y4831716D01*
X883284Y4831716D01*
X1391285Y4831716D02*
X1391285Y4888285D01*
X1334716Y4888285D01*
X1334716Y4831716D01*
X1391285Y4831716D01*
X2528285Y5357966D02*
X2528285Y5414535D01*
X2471716Y5414535D01*
X2471716Y5357966D01*
X2528285Y5357966D01*
X2528285Y4849966D02*
X2528285Y4906535D01*
X2471716Y4906535D01*
X2471716Y4849966D01*
X2528285Y4849966D01*
X3002034Y-2703285D02*
X3002034Y-2646716D01*
X2945465Y-2646716D01*
X2945465Y-2703285D01*
X3002034Y-2703285D01*
X3003914Y321716D02*
X3003914Y378284D01*
X2947345Y378284D01*
X2947345Y321716D01*
X3003914Y321716D01*
X3003914Y-1203285D02*
X3003914Y-1146716D01*
X2947345Y-1146716D01*
X2947345Y-1203285D01*
X3003914Y-1203285D01*
X3028914Y1971715D02*
X3028914Y2028284D01*
X2972345Y2028284D01*
X2972345Y1971715D01*
X3028914Y1971715D01*
X3113284Y2711716D02*
X3113284Y2768285D01*
X3056715Y2768285D01*
X3056715Y2711716D01*
X3113284Y2711716D01*
X3177034Y-1978284D02*
X3177034Y-1921715D01*
X3120465Y-1921715D01*
X3120465Y-1978284D01*
X3177034Y-1978284D01*
X3178914Y1221716D02*
X3178914Y1278285D01*
X3122345Y1278285D01*
X3122345Y1221716D01*
X3178914Y1221716D01*
X3178914Y-478284D02*
X3178914Y-421715D01*
X3122345Y-421715D01*
X3122345Y-478284D01*
X3178914Y-478284D01*
X3425284Y-4393285D02*
X3425284Y-4336716D01*
X3368715Y-4336716D01*
X3368715Y-4393285D01*
X3425284Y-4393285D01*
X3510034Y-2703285D02*
X3510034Y-2646716D01*
X3453465Y-2646716D01*
X3453465Y-2703285D01*
X3510034Y-2703285D01*
X3511914Y321716D02*
X3511914Y378284D01*
X3455345Y378284D01*
X3455345Y321716D01*
X3511914Y321716D01*
X3511914Y-1203285D02*
X3511914Y-1146716D01*
X3455345Y-1146716D01*
X3455345Y-1203285D01*
X3511914Y-1203285D01*
X3536914Y1971715D02*
X3536914Y2028284D01*
X3480345Y2028284D01*
X3480345Y1971715D01*
X3536914Y1971715D01*
X3621284Y2711716D02*
X3621284Y2768285D01*
X3564715Y2768285D01*
X3564715Y2711716D01*
X3621284Y2711716D01*
X3685034Y-1978284D02*
X3685034Y-1921715D01*
X3628465Y-1921715D01*
X3628465Y-1978284D01*
X3685034Y-1978284D01*
X3686914Y1221716D02*
X3686914Y1278285D01*
X3630345Y1278285D01*
X3630345Y1221716D01*
X3686914Y1221716D01*
X3686914Y-478284D02*
X3686914Y-421715D01*
X3630345Y-421715D01*
X3630345Y-478284D01*
X3686914Y-478284D01*
X3886284Y5075716D02*
X3886284Y5132285D01*
X3829715Y5132285D01*
X3829715Y5075716D01*
X3886284Y5075716D01*
X3886284Y4567716D02*
X3886284Y4624285D01*
X3829715Y4624285D01*
X3829715Y4567716D01*
X3886284Y4567716D01*
X3933284Y-4393285D02*
X3933284Y-4336716D01*
X3876715Y-4336716D01*
X3876715Y-4393285D01*
X3933284Y-4393285D01*
X4088284Y21716D02*
X4088284Y78285D01*
X4031715Y78285D01*
X4031715Y21716D01*
X4088284Y21716D01*
X4088284Y-1428284D02*
X4088284Y-1371716D01*
X4031715Y-1371716D01*
X4031715Y-1428284D01*
X4088284Y-1428284D01*
X4168284Y-460284D02*
X4168284Y-403715D01*
X4111715Y-403715D01*
X4111715Y-460284D01*
X4168284Y-460284D01*
X4168284Y-948284D02*
X4168284Y-891715D01*
X4111715Y-891715D01*
X4111715Y-948284D01*
X4168284Y-948284D01*
X4328285Y751715D02*
X4328285Y808284D01*
X4271716Y808284D01*
X4271716Y751715D01*
X4328285Y751715D01*
X4328285Y251715D02*
X4328285Y308285D01*
X4271716Y308285D01*
X4271716Y251715D01*
X4328285Y251715D01*
X4338285Y21716D02*
X4338285Y78285D01*
X4281716Y78285D01*
X4281716Y21716D01*
X4338285Y21716D01*
X4338285Y-1428284D02*
X4338285Y-1371716D01*
X4281716Y-1371716D01*
X4281716Y-1428284D01*
X4338285Y-1428284D01*
X4618285Y1471715D02*
X4618285Y1528284D01*
X4561716Y1528284D01*
X4561716Y1471715D01*
X4618285Y1471715D01*
X4618285Y1217716D02*
X4618285Y1274285D01*
X4561716Y1274285D01*
X4561716Y1217716D01*
X4618285Y1217716D01*
X4618285Y963715D02*
X4618285Y1020284D01*
X4561716Y1020284D01*
X4561716Y963715D01*
X4618285Y963715D01*
X4618285Y709715D02*
X4618285Y766284D01*
X4561716Y766284D01*
X4561716Y709715D01*
X4618285Y709715D01*
X4618285Y455715D02*
X4618285Y512284D01*
X4561716Y512284D01*
X4561716Y455715D01*
X4618285Y455715D01*
X4618285Y201715D02*
X4618285Y258284D01*
X4561716Y258284D01*
X4561716Y201715D01*
X4618285Y201715D01*
X4618285Y-52284D02*
X4618285Y4285D01*
X4561716Y4285D01*
X4561716Y-52284D01*
X4618285Y-52284D01*
X4618285Y-306285D02*
X4618285Y-249715D01*
X4561716Y-249715D01*
X4561716Y-306285D01*
X4618285Y-306285D01*
X4618285Y-560285D02*
X4618285Y-503715D01*
X4561716Y-503715D01*
X4561716Y-560285D01*
X4618285Y-560285D01*
X4618285Y-814284D02*
X4618285Y-757715D01*
X4561716Y-757715D01*
X4561716Y-814284D01*
X4618285Y-814284D01*
X4618285Y-1068285D02*
X4618285Y-1011715D01*
X4561716Y-1011715D01*
X4561716Y-1068285D01*
X4618285Y-1068285D01*
X4618285Y-1322285D02*
X4618285Y-1265716D01*
X4561716Y-1265716D01*
X4561716Y-1322285D01*
X4618285Y-1322285D01*
X4618285Y-1576284D02*
X4618285Y-1519715D01*
X4561716Y-1519715D01*
X4561716Y-1576284D01*
X4618285Y-1576284D01*
X4618285Y-1830284D02*
X4618285Y-1773715D01*
X4561716Y-1773715D01*
X4561716Y-1830284D01*
X4618285Y-1830284D01*
X4875285Y-5548285D02*
X4875285Y-5491716D01*
X4818716Y-5491716D01*
X4818716Y-5548285D01*
X4875285Y-5548285D01*
X5380285Y1471715D02*
X5380285Y1528284D01*
X5323716Y1528284D01*
X5323716Y1471715D01*
X5380285Y1471715D01*
X5380285Y1217716D02*
X5380285Y1274285D01*
X5323716Y1274285D01*
X5323716Y1217716D01*
X5380285Y1217716D01*
X5380285Y963715D02*
X5380285Y1020284D01*
X5323716Y1020284D01*
X5323716Y963715D01*
X5380285Y963715D01*
X5380285Y709715D02*
X5380285Y766284D01*
X5323716Y766284D01*
X5323716Y709715D01*
X5380285Y709715D01*
X5380285Y455715D02*
X5380285Y512284D01*
X5323716Y512284D01*
X5323716Y455715D01*
X5380285Y455715D01*
X5380285Y201715D02*
X5380285Y258284D01*
X5323716Y258284D01*
X5323716Y201715D01*
X5380285Y201715D01*
X5380285Y-52284D02*
X5380285Y4285D01*
X5323716Y4285D01*
X5323716Y-52284D01*
X5380285Y-52284D01*
X5380285Y-306285D02*
X5380285Y-249715D01*
X5323716Y-249715D01*
X5323716Y-306285D01*
X5380285Y-306285D01*
X5380285Y-560285D02*
X5380285Y-503715D01*
X5323716Y-503715D01*
X5323716Y-560285D01*
X5380285Y-560285D01*
X5380285Y-814284D02*
X5380285Y-757715D01*
X5323716Y-757715D01*
X5323716Y-814284D01*
X5380285Y-814284D01*
X5380285Y-1068285D02*
X5380285Y-1011715D01*
X5323716Y-1011715D01*
X5323716Y-1068285D01*
X5380285Y-1068285D01*
X5380285Y-1322285D02*
X5380285Y-1265716D01*
X5323716Y-1265716D01*
X5323716Y-1322285D01*
X5380285Y-1322285D01*
X5380285Y-1576284D02*
X5380285Y-1519715D01*
X5323716Y-1519715D01*
X5323716Y-1576284D01*
X5380285Y-1576284D01*
X5380285Y-1830284D02*
X5380285Y-1773715D01*
X5323716Y-1773715D01*
X5323716Y-1830284D01*
X5380285Y-1830284D01*
X5383285Y-5548285D02*
X5383285Y-5491716D01*
X5326716Y-5491716D01*
X5326716Y-5548285D01*
X5383285Y-5548285D01*
X5668284Y-58284D02*
X5668284Y-1715D01*
X5611715Y-1715D01*
X5611715Y-58284D01*
X5668284Y-58284D01*
X5668284Y-558285D02*
X5668284Y-501715D01*
X5611715Y-501715D01*
X5611715Y-558285D01*
X5668284Y-558285D01*
D16*
X4243120Y4143870D02*
X4293620Y4194370D01*
X4243120Y4244870D01*
X4192620Y4194370D01*
X4243120Y4143870D01*
X4753120Y4023870D02*
X4803620Y4074370D01*
X4753120Y4124870D01*
X4702620Y4074370D01*
X4753120Y4023870D01*
D17*
X4240000Y-2220000D02*
X4350000Y-2330000D01*
X4350000Y-2220000D02*
X4240000Y-2330000D01*
X4350000Y-2275000D02*
G75*
G03*
X4350000Y-2275000I-55000J0D01*
G01*
X4240000Y-2870000D02*
X4350000Y-2980000D01*
X4350000Y-2870000D02*
X4240000Y-2980000D01*
X4350000Y-2925000D02*
G75*
G03*
X4350000Y-2925000I-55000J0D01*
G01*
X4390000Y5385000D02*
X4500000Y5275000D01*
X4500000Y5385000D02*
X4390000Y5275000D01*
X4500000Y5330000D02*
G75*
G03*
X4500000Y5330000I-55000J0D01*
G01*
X4480000Y4885000D02*
X4590000Y4775000D01*
X4590000Y4885000D02*
X4480000Y4775000D01*
X4590000Y4830000D02*
G75*
G03*
X4590000Y4830000I-55000J0D01*
G01*
X4690000Y-2220000D02*
X4800000Y-2330000D01*
X4800000Y-2220000D02*
X4690000Y-2330000D01*
X4800000Y-2275000D02*
G75*
G03*
X4800000Y-2275000I-55000J0D01*
G01*
X4690000Y-2870000D02*
X4800000Y-2980000D01*
X4800000Y-2870000D02*
X4690000Y-2980000D01*
X4800000Y-2925000D02*
G75*
G03*
X4800000Y-2925000I-55000J0D01*
G01*
X5000000Y4575000D02*
X5110000Y4465000D01*
X5110000Y4575000D02*
X5000000Y4465000D01*
X5110000Y4520000D02*
G75*
G03*
X5110000Y4520000I-55000J0D01*
G01*
X5125000Y-2215000D02*
X5235000Y-2325000D01*
X5235000Y-2215000D02*
X5125000Y-2325000D01*
X5235000Y-2270000D02*
G75*
G03*
X5235000Y-2270000I-55000J0D01*
G01*
X5125000Y-2865000D02*
X5235000Y-2975000D01*
X5235000Y-2865000D02*
X5125000Y-2975000D01*
X5235000Y-2920000D02*
G75*
G03*
X5235000Y-2920000I-55000J0D01*
G01*
X5320000Y5385000D02*
X5430000Y5275000D01*
X5430000Y5385000D02*
X5320000Y5275000D01*
X5430000Y5330000D02*
G75*
G03*
X5430000Y5330000I-55000J0D01*
G01*
X5575000Y-2215000D02*
X5685000Y-2325000D01*
X5685000Y-2215000D02*
X5575000Y-2325000D01*
X5685000Y-2270000D02*
G75*
G03*
X5685000Y-2270000I-55000J0D01*
G01*
X5575000Y-2865000D02*
X5685000Y-2975000D01*
X5685000Y-2865000D02*
X5575000Y-2975000D01*
X5685000Y-2920000D02*
G75*
G03*
X5685000Y-2920000I-55000J0D01*
G01*
D18*
X-8075930Y1519560D02*
X-7926070Y1369700D01*
X-7926070Y1519560D02*
X-8075930Y1369700D01*
X-8001000Y1519560D02*
X-8001000Y1369700D01*
X-8075930Y1444630D02*
X-7926070Y1444630D01*
X-8075930Y-385450D02*
X-7926070Y-535310D01*
X-7926070Y-385450D02*
X-8075930Y-535310D01*
X-8001000Y-385450D02*
X-8001000Y-535310D01*
X-8075930Y-460380D02*
X-7926070Y-460380D01*
X-8075930Y-2290450D02*
X-7926070Y-2440310D01*
X-7926070Y-2290450D02*
X-8075930Y-2440310D01*
X-8001000Y-2290450D02*
X-8001000Y-2440310D01*
X-8075930Y-2365380D02*
X-7926070Y-2365380D01*
X-7440930Y1773560D02*
X-7291070Y1623700D01*
X-7291070Y1773560D02*
X-7440930Y1623700D01*
X-7366000Y1773560D02*
X-7366000Y1623700D01*
X-7440930Y1698630D02*
X-7291070Y1698630D01*
X-7440930Y-131450D02*
X-7291070Y-281310D01*
X-7291070Y-131450D02*
X-7440930Y-281310D01*
X-7366000Y-131450D02*
X-7366000Y-281310D01*
X-7440930Y-206380D02*
X-7291070Y-206380D01*
X-7440930Y-2036450D02*
X-7291070Y-2186310D01*
X-7291070Y-2036450D02*
X-7440930Y-2186310D01*
X-7366000Y-2036450D02*
X-7366000Y-2186310D01*
X-7440930Y-2111380D02*
X-7291070Y-2111380D01*
X-6170930Y3424560D02*
X-6021070Y3274700D01*
X-6021070Y3424560D02*
X-6170930Y3274700D01*
X-6096000Y3424560D02*
X-6096000Y3274700D01*
X-6170930Y3349630D02*
X-6021070Y3349630D01*
X-6170930Y1519560D02*
X-6021070Y1369700D01*
X-6021070Y1519560D02*
X-6170930Y1369700D01*
X-6096000Y1519560D02*
X-6096000Y1369700D01*
X-6170930Y1444630D02*
X-6021070Y1444630D01*
X-6170930Y-385450D02*
X-6021070Y-535310D01*
X-6021070Y-385450D02*
X-6170930Y-535310D01*
X-6096000Y-385450D02*
X-6096000Y-535310D01*
X-6170930Y-460380D02*
X-6021070Y-460380D01*
X-6170930Y-2290450D02*
X-6021070Y-2440310D01*
X-6021070Y-2290450D02*
X-6170930Y-2440310D01*
X-6096000Y-2290450D02*
X-6096000Y-2440310D01*
X-6170930Y-2365380D02*
X-6021070Y-2365380D01*
X-5535930Y3678560D02*
X-5386070Y3528700D01*
X-5386070Y3678560D02*
X-5535930Y3528700D01*
X-5461000Y3678560D02*
X-5461000Y3528700D01*
X-5535930Y3603630D02*
X-5386070Y3603630D01*
X-5535930Y1773560D02*
X-5386070Y1623700D01*
X-5386070Y1773560D02*
X-5535930Y1623700D01*
X-5461000Y1773560D02*
X-5461000Y1623700D01*
X-5535930Y1698630D02*
X-5386070Y1698630D01*
X-5535930Y-131450D02*
X-5386070Y-281310D01*
X-5386070Y-131450D02*
X-5535930Y-281310D01*
X-5461000Y-131450D02*
X-5461000Y-281310D01*
X-5535930Y-206380D02*
X-5386070Y-206380D01*
X-5535930Y-2036450D02*
X-5386070Y-2186310D01*
X-5386070Y-2036450D02*
X-5535930Y-2186310D01*
X-5461000Y-2036450D02*
X-5461000Y-2186310D01*
X-5535930Y-2111380D02*
X-5386070Y-2111380D01*
X-4265930Y4138930D02*
X-4116070Y3989070D01*
X-4116070Y4138930D02*
X-4265930Y3989070D01*
X-4191000Y4138930D02*
X-4191000Y3989070D01*
X-4265930Y4064000D02*
X-4116070Y4064000D01*
X-4265930Y2233930D02*
X-4116070Y2084070D01*
X-4116070Y2233930D02*
X-4265930Y2084070D01*
X-4191000Y2233930D02*
X-4191000Y2084070D01*
X-4265930Y2159000D02*
X-4116070Y2159000D01*
X-4265930Y328930D02*
X-4116070Y179070D01*
X-4116070Y328930D02*
X-4265930Y179070D01*
X-4191000Y328930D02*
X-4191000Y179070D01*
X-4265930Y254000D02*
X-4116070Y254000D01*
X-4265930Y-1576070D02*
X-4116070Y-1725930D01*
X-4116070Y-1576070D02*
X-4265930Y-1725930D01*
X-4191000Y-1576070D02*
X-4191000Y-1725930D01*
X-4265930Y-1651000D02*
X-4116070Y-1651000D01*
X-3630930Y4392930D02*
X-3481070Y4243070D01*
X-3481070Y4392930D02*
X-3630930Y4243070D01*
X-3556000Y4392930D02*
X-3556000Y4243070D01*
X-3630930Y4318000D02*
X-3481070Y4318000D01*
X-3630930Y2487930D02*
X-3481070Y2338070D01*
X-3481070Y2487930D02*
X-3630930Y2338070D01*
X-3556000Y2487930D02*
X-3556000Y2338070D01*
X-3630930Y2413000D02*
X-3481070Y2413000D01*
X-3630930Y582930D02*
X-3481070Y433070D01*
X-3481070Y582930D02*
X-3630930Y433070D01*
X-3556000Y582930D02*
X-3556000Y433070D01*
X-3630930Y508000D02*
X-3481070Y508000D01*
X-3630930Y-1322070D02*
X-3481070Y-1471930D01*
X-3481070Y-1322070D02*
X-3630930Y-1471930D01*
X-3556000Y-1322070D02*
X-3556000Y-1471930D01*
X-3630930Y-1397000D02*
X-3481070Y-1397000D01*
X-2360930Y4853310D02*
X-2211070Y4703450D01*
X-2211070Y4853310D02*
X-2360930Y4703450D01*
X-2286000Y4853310D02*
X-2286000Y4703450D01*
X-2360930Y4778380D02*
X-2211070Y4778380D01*
X-2360930Y2948310D02*
X-2211070Y2798450D01*
X-2211070Y2948310D02*
X-2360930Y2798450D01*
X-2286000Y2948310D02*
X-2286000Y2798450D01*
X-2360930Y2873380D02*
X-2211070Y2873380D01*
X-2360930Y1043310D02*
X-2211070Y893450D01*
X-2211070Y1043310D02*
X-2360930Y893450D01*
X-2286000Y1043310D02*
X-2286000Y893450D01*
X-2360930Y968380D02*
X-2211070Y968380D01*
X-2360930Y-861700D02*
X-2211070Y-1011560D01*
X-2211070Y-861700D02*
X-2360930Y-1011560D01*
X-2286000Y-861700D02*
X-2286000Y-1011560D01*
X-2360930Y-936630D02*
X-2211070Y-936630D01*
X-1725930Y5107310D02*
X-1576070Y4957450D01*
X-1576070Y5107310D02*
X-1725930Y4957450D01*
X-1651000Y5107310D02*
X-1651000Y4957450D01*
X-1725930Y5032380D02*
X-1576070Y5032380D01*
X-1725930Y3202310D02*
X-1576070Y3052450D01*
X-1576070Y3202310D02*
X-1725930Y3052450D01*
X-1651000Y3202310D02*
X-1651000Y3052450D01*
X-1725930Y3127380D02*
X-1576070Y3127380D01*
X-1725930Y1297310D02*
X-1576070Y1147450D01*
X-1576070Y1297310D02*
X-1725930Y1147450D01*
X-1651000Y1297310D02*
X-1651000Y1147450D01*
X-1725930Y1222380D02*
X-1576070Y1222380D01*
X-1725930Y-607700D02*
X-1576070Y-757560D01*
X-1576070Y-607700D02*
X-1725930Y-757560D01*
X-1651000Y-607700D02*
X-1651000Y-757560D01*
X-1725930Y-682630D02*
X-1576070Y-682630D01*
X-1408430Y-4195450D02*
X-1258570Y-4345310D01*
X-1258570Y-4195450D02*
X-1408430Y-4345310D01*
X-1333500Y-4195450D02*
X-1333500Y-4345310D01*
X-1408430Y-4270380D02*
X-1258570Y-4270380D01*
X-773430Y-3941450D02*
X-623570Y-4091310D01*
X-623570Y-3941450D02*
X-773430Y-4091310D01*
X-698500Y-3941450D02*
X-698500Y-4091310D01*
X-773430Y-4016380D02*
X-623570Y-4016380D01*
X-455930Y4138930D02*
X-306070Y3989070D01*
X-306070Y4138930D02*
X-455930Y3989070D01*
X-381000Y4138930D02*
X-381000Y3989070D01*
X-455930Y4064000D02*
X-306070Y4064000D01*
X-455930Y2233930D02*
X-306070Y2084070D01*
X-306070Y2233930D02*
X-455930Y2084070D01*
X-381000Y2233930D02*
X-381000Y2084070D01*
X-455930Y2159000D02*
X-306070Y2159000D01*
X-455930Y328930D02*
X-306070Y179070D01*
X-306070Y328930D02*
X-455930Y179070D01*
X-381000Y328930D02*
X-381000Y179070D01*
X-455930Y254000D02*
X-306070Y254000D01*
X-455930Y-1576070D02*
X-306070Y-1725930D01*
X-306070Y-1576070D02*
X-455930Y-1725930D01*
X-381000Y-1576070D02*
X-381000Y-1725930D01*
X-455930Y-1651000D02*
X-306070Y-1651000D01*
X179070Y4392930D02*
X328930Y4243070D01*
X328930Y4392930D02*
X179070Y4243070D01*
X254000Y4392930D02*
X254000Y4243070D01*
X179070Y4318000D02*
X328930Y4318000D01*
X179070Y2487930D02*
X328930Y2338070D01*
X328930Y2487930D02*
X179070Y2338070D01*
X254000Y2487930D02*
X254000Y2338070D01*
X179070Y2413000D02*
X328930Y2413000D01*
X179070Y582930D02*
X328930Y433070D01*
X328930Y582930D02*
X179070Y433070D01*
X254000Y582930D02*
X254000Y433070D01*
X179070Y508000D02*
X328930Y508000D01*
X179070Y-1322070D02*
X328930Y-1471930D01*
X328930Y-1322070D02*
X179070Y-1471930D01*
X254000Y-1322070D02*
X254000Y-1471930D01*
X179070Y-1397000D02*
X328930Y-1397000D01*
X779955Y-4488073D02*
X929815Y-4637933D01*
X929815Y-4488073D02*
X779955Y-4637933D01*
X854885Y-4488073D02*
X854885Y-4637933D01*
X779955Y-4563003D02*
X929815Y-4563003D01*
X1449070Y3900810D02*
X1598930Y3750950D01*
X1598930Y3900810D02*
X1449070Y3750950D01*
X1524000Y3900810D02*
X1524000Y3750950D01*
X1449070Y3825880D02*
X1598930Y3825880D01*
X1449070Y1995810D02*
X1598930Y1845950D01*
X1598930Y1995810D02*
X1449070Y1845950D01*
X1524000Y1995810D02*
X1524000Y1845950D01*
X1449070Y1920880D02*
X1598930Y1920880D01*
X1449070Y90800D02*
X1598930Y-59060D01*
X1598930Y90800D02*
X1449070Y-59060D01*
X1524000Y90800D02*
X1524000Y-59060D01*
X1449070Y15870D02*
X1598930Y15870D01*
X1449070Y-1814200D02*
X1598930Y-1964060D01*
X1598930Y-1814200D02*
X1449070Y-1964060D01*
X1524000Y-1814200D02*
X1524000Y-1964060D01*
X1449070Y-1889130D02*
X1598930Y-1889130D01*
X1457541Y-4395238D02*
X1607401Y-4545098D01*
X1607401Y-4395238D02*
X1457541Y-4545098D01*
X1532471Y-4395238D02*
X1532471Y-4545098D01*
X1457541Y-4470168D02*
X1607401Y-4470168D01*
X2084070Y4154810D02*
X2233930Y4004950D01*
X2233930Y4154810D02*
X2084070Y4004950D01*
X2159000Y4154810D02*
X2159000Y4004950D01*
X2084070Y4079880D02*
X2233930Y4079880D01*
X2084070Y2249810D02*
X2233930Y2099950D01*
X2233930Y2249810D02*
X2084070Y2099950D01*
X2159000Y2249810D02*
X2159000Y2099950D01*
X2084070Y2174880D02*
X2233930Y2174880D01*
X2084070Y344800D02*
X2233930Y194940D01*
X2233930Y344800D02*
X2084070Y194940D01*
X2159000Y344800D02*
X2159000Y194940D01*
X2084070Y269870D02*
X2233930Y269870D01*
X2084070Y-1560200D02*
X2233930Y-1710060D01*
X2233930Y-1560200D02*
X2084070Y-1710060D01*
X2159000Y-1560200D02*
X2159000Y-1710060D01*
X2084070Y-1635130D02*
X2233930Y-1635130D01*
X2835033Y-5304563D02*
X2984893Y-5454423D01*
X2984893Y-5304563D02*
X2835033Y-5454423D01*
X2909963Y-5304563D02*
X2909963Y-5454423D01*
X2835033Y-5379493D02*
X2984893Y-5379493D01*
X3514950Y-5378408D02*
X3664810Y-5528268D01*
X3664810Y-5378408D02*
X3514950Y-5528268D01*
X3589880Y-5378408D02*
X3589880Y-5528268D01*
X3514950Y-5453338D02*
X3664810Y-5453338D01*
X4632011Y-6587002D02*
X4781871Y-6736862D01*
X4781871Y-6587002D02*
X4632011Y-6736862D01*
X4706941Y-6587002D02*
X4706941Y-6736862D01*
X4632011Y-6661932D02*
X4781871Y-6661932D01*
X5273867Y-6823142D02*
X5423727Y-6973002D01*
X5423727Y-6823142D02*
X5273867Y-6973002D01*
X5348797Y-6823142D02*
X5348797Y-6973002D01*
X5273867Y-6898072D02*
X5423727Y-6898072D01*
D19*
X-6790000Y350000D02*
X-6570000Y130000D01*
X-6570000Y350000D02*
X-6790000Y130000D01*
X-6602217Y162218D02*
X-6602217Y317783D01*
X-6757782Y317783D01*
X-6757782Y162218D01*
X-6602217Y162218D01*
X-3025000Y-845000D02*
X-2805000Y-1065000D01*
X-2805000Y-845000D02*
X-3025000Y-1065000D01*
X-2837217Y-1032782D02*
X-2837217Y-877217D01*
X-2992782Y-877217D01*
X-2992782Y-1032782D01*
X-2837217Y-1032782D01*
X-3019000Y2969000D02*
X-2799000Y2749000D01*
X-2799000Y2969000D02*
X-3019000Y2749000D01*
X-2831217Y2781218D02*
X-2831217Y2936782D01*
X-2986782Y2936782D01*
X-2986782Y2781218D01*
X-2831217Y2781218D01*
X790000Y2970000D02*
X1010000Y2750000D01*
X1010000Y2970000D02*
X790000Y2750000D01*
X977782Y2782218D02*
X977782Y2937782D01*
X822217Y2937782D01*
X822217Y2782218D01*
X977782Y2782218D01*
X820000Y-3042000D02*
X1040000Y-3262000D01*
X1040000Y-3042000D02*
X820000Y-3262000D01*
X1007782Y-3229782D02*
X1007782Y-3074217D01*
X852217Y-3074217D01*
X852217Y-3229782D01*
X1007782Y-3229782D01*
X3913000Y-6272000D02*
X4133000Y-6492000D01*
X4133000Y-6272000D02*
X3913000Y-6492000D01*
X4100782Y-6459782D02*
X4100782Y-6304217D01*
X3945217Y-6304217D01*
X3945217Y-6459782D01*
X4100782Y-6459782D01*
D11*
X-8470386Y-8932154D02*
X-8470386Y-8732154D01*
X-8422767Y-8732154D01*
X-8394195Y-8741678D01*
X-8375148Y-8760725D01*
X-8365624Y-8779773D01*
X-8356100Y-8817868D01*
X-8356100Y-8846440D01*
X-8365624Y-8884535D01*
X-8375148Y-8903582D01*
X-8394195Y-8922630D01*
X-8422767Y-8932154D01*
X-8470386Y-8932154D01*
X-8270386Y-8932154D02*
X-8270386Y-8798820D01*
X-8270386Y-8836916D02*
X-8260862Y-8817868D01*
X-8251338Y-8808344D01*
X-8232291Y-8798820D01*
X-8213243Y-8798820D01*
X-8146576Y-8932154D02*
X-8146576Y-8798820D01*
X-8146576Y-8732154D02*
X-8156100Y-8741678D01*
X-8146576Y-8751201D01*
X-8137053Y-8741678D01*
X-8146576Y-8732154D01*
X-8146576Y-8751201D01*
X-8022767Y-8932154D02*
X-8041814Y-8922630D01*
X-8051338Y-8903582D01*
X-8051338Y-8732154D01*
X-7918005Y-8932154D02*
X-7937053Y-8922630D01*
X-7946576Y-8903582D01*
X-7946576Y-8732154D01*
X-7689433Y-8932154D02*
X-7689433Y-8732154D01*
X-7622767Y-8875011D01*
X-7556100Y-8732154D01*
X-7556100Y-8932154D01*
X-7375148Y-8932154D02*
X-7375148Y-8827392D01*
X-7384672Y-8808344D01*
X-7403719Y-8798820D01*
X-7441814Y-8798820D01*
X-7460862Y-8808344D01*
X-7375148Y-8922630D02*
X-7394195Y-8932154D01*
X-7441814Y-8932154D01*
X-7460862Y-8922630D01*
X-7470386Y-8903582D01*
X-7470386Y-8884535D01*
X-7460862Y-8865487D01*
X-7441814Y-8855963D01*
X-7394195Y-8855963D01*
X-7375148Y-8846440D01*
X-7279910Y-8798820D02*
X-7279910Y-8998820D01*
X-7279910Y-8808344D02*
X-7260862Y-8798820D01*
X-7222767Y-8798820D01*
X-7203719Y-8808344D01*
X-7194195Y-8817868D01*
X-7184672Y-8836916D01*
X-7184672Y-8894059D01*
X-7194195Y-8913106D01*
X-7203719Y-8922630D01*
X-7222767Y-8932154D01*
X-7260862Y-8932154D01*
X-7279910Y-8922630D01*
X-7098957Y-8913106D02*
X-7089433Y-8922630D01*
X-7098957Y-8932154D01*
X-7108481Y-8922630D01*
X-7098957Y-8913106D01*
X-7098957Y-8932154D01*
X-7098957Y-8808344D02*
X-7089433Y-8817868D01*
X-7098957Y-8827392D01*
X-7108481Y-8817868D01*
X-7098957Y-8808344D01*
X-7098957Y-8827392D01*
D12*
X-8768005Y-9241678D02*
X-8728005Y-9281678D01*
X-8728005Y-9241678D02*
X-8768005Y-9281678D01*
D11*
X-8432291Y-9152154D02*
X-8413243Y-9152154D01*
X-8394195Y-9161678D01*
X-8384672Y-9171201D01*
X-8375148Y-9190249D01*
X-8365624Y-9228344D01*
X-8365624Y-9275963D01*
X-8375148Y-9314059D01*
X-8384672Y-9333106D01*
X-8394195Y-9342630D01*
X-8413243Y-9352154D01*
X-8432291Y-9352154D01*
X-8451338Y-9342630D01*
X-8460862Y-9333106D01*
X-8470386Y-9314059D01*
X-8479910Y-9275963D01*
X-8479910Y-9228344D01*
X-8470386Y-9190249D01*
X-8460862Y-9171201D01*
X-8451338Y-9161678D01*
X-8432291Y-9152154D01*
X-8279910Y-9333106D02*
X-8270386Y-9342630D01*
X-8279910Y-9352154D01*
X-8289433Y-9342630D01*
X-8279910Y-9333106D01*
X-8279910Y-9352154D01*
X-8098957Y-9218820D02*
X-8098957Y-9352154D01*
X-8146576Y-9142630D02*
X-8194195Y-9285487D01*
X-8070386Y-9285487D01*
X-7956100Y-9152154D02*
X-7937053Y-9152154D01*
X-7918005Y-9161678D01*
X-7908481Y-9171201D01*
X-7898957Y-9190249D01*
X-7889433Y-9228344D01*
X-7889433Y-9275963D01*
X-7898957Y-9314059D01*
X-7908481Y-9333106D01*
X-7918005Y-9342630D01*
X-7937053Y-9352154D01*
X-7956100Y-9352154D01*
X-7975148Y-9342630D01*
X-7984672Y-9333106D01*
X-7994195Y-9314059D01*
X-8003719Y-9275963D01*
X-8003719Y-9228344D01*
X-7994195Y-9190249D01*
X-7984672Y-9171201D01*
X-7975148Y-9161678D01*
X-7956100Y-9152154D01*
X-7765624Y-9152154D02*
X-7746576Y-9152154D01*
X-7727529Y-9161678D01*
X-7718005Y-9171201D01*
X-7708481Y-9190249D01*
X-7698957Y-9228344D01*
X-7698957Y-9275963D01*
X-7708481Y-9314059D01*
X-7718005Y-9333106D01*
X-7727529Y-9342630D01*
X-7746576Y-9352154D01*
X-7765624Y-9352154D01*
X-7784672Y-9342630D01*
X-7794195Y-9333106D01*
X-7803719Y-9314059D01*
X-7813243Y-9275963D01*
X-7813243Y-9228344D01*
X-7803719Y-9190249D01*
X-7794195Y-9171201D01*
X-7784672Y-9161678D01*
X-7765624Y-9152154D01*
X-7613243Y-9352154D02*
X-7613243Y-9218820D01*
X-7613243Y-9237868D02*
X-7603719Y-9228344D01*
X-7584672Y-9218820D01*
X-7556100Y-9218820D01*
X-7537053Y-9228344D01*
X-7527529Y-9247392D01*
X-7527529Y-9352154D01*
X-7527529Y-9247392D02*
X-7518005Y-9228344D01*
X-7498957Y-9218820D01*
X-7470386Y-9218820D01*
X-7451338Y-9228344D01*
X-7441814Y-9247392D01*
X-7441814Y-9352154D01*
X-7346576Y-9352154D02*
X-7346576Y-9218820D01*
X-7346576Y-9237868D02*
X-7337053Y-9228344D01*
X-7318005Y-9218820D01*
X-7289433Y-9218820D01*
X-7270386Y-9228344D01*
X-7260862Y-9247392D01*
X-7260862Y-9352154D01*
X-7260862Y-9247392D02*
X-7251338Y-9228344D01*
X-7232291Y-9218820D01*
X-7203719Y-9218820D01*
X-7184672Y-9228344D01*
X-7175148Y-9247392D01*
X-7175148Y-9352154D01*
X-6784672Y-9142630D02*
X-6956100Y-9399773D01*
X-6527529Y-9152154D02*
X-6508481Y-9152154D01*
X-6489433Y-9161678D01*
X-6479910Y-9171201D01*
X-6470386Y-9190249D01*
X-6460862Y-9228344D01*
X-6460862Y-9275963D01*
X-6470386Y-9314059D01*
X-6479910Y-9333106D01*
X-6489433Y-9342630D01*
X-6508481Y-9352154D01*
X-6527529Y-9352154D01*
X-6546576Y-9342630D01*
X-6556100Y-9333106D01*
X-6565624Y-9314059D01*
X-6575148Y-9275963D01*
X-6575148Y-9228344D01*
X-6565624Y-9190249D01*
X-6556100Y-9171201D01*
X-6546576Y-9161678D01*
X-6527529Y-9152154D01*
X-6375148Y-9333106D02*
X-6365624Y-9342630D01*
X-6375148Y-9352154D01*
X-6384672Y-9342630D01*
X-6375148Y-9333106D01*
X-6375148Y-9352154D01*
X-6241814Y-9152154D02*
X-6222767Y-9152154D01*
X-6203719Y-9161678D01*
X-6194195Y-9171201D01*
X-6184672Y-9190249D01*
X-6175148Y-9228344D01*
X-6175148Y-9275963D01*
X-6184672Y-9314059D01*
X-6194195Y-9333106D01*
X-6203719Y-9342630D01*
X-6222767Y-9352154D01*
X-6241814Y-9352154D01*
X-6260862Y-9342630D01*
X-6270386Y-9333106D01*
X-6279910Y-9314059D01*
X-6289433Y-9275963D01*
X-6289433Y-9228344D01*
X-6279910Y-9190249D01*
X-6270386Y-9171201D01*
X-6260862Y-9161678D01*
X-6241814Y-9152154D01*
X-5984672Y-9352154D02*
X-6098957Y-9352154D01*
X-6041814Y-9352154D02*
X-6041814Y-9152154D01*
X-6060862Y-9180725D01*
X-6079910Y-9199773D01*
X-6098957Y-9209297D01*
X-5803719Y-9152154D02*
X-5898957Y-9152154D01*
X-5908481Y-9247392D01*
X-5898957Y-9237868D01*
X-5879910Y-9228344D01*
X-5832291Y-9228344D01*
X-5813243Y-9237868D01*
X-5803719Y-9247392D01*
X-5794195Y-9266440D01*
X-5794195Y-9314059D01*
X-5803719Y-9333106D01*
X-5813243Y-9342630D01*
X-5832291Y-9352154D01*
X-5879910Y-9352154D01*
X-5898957Y-9342630D01*
X-5908481Y-9333106D01*
X-5727529Y-9152154D02*
X-5594195Y-9152154D01*
X-5679910Y-9352154D01*
X-5527529Y-9152154D02*
X-5527529Y-9190249D01*
X-5451338Y-9152154D02*
X-5451338Y-9190249D01*
X-5156100Y-9428344D02*
X-5165624Y-9418820D01*
X-5184672Y-9390249D01*
X-5194195Y-9371201D01*
X-5203719Y-9342630D01*
X-5213243Y-9295011D01*
X-5213243Y-9256916D01*
X-5203719Y-9209297D01*
X-5194195Y-9180725D01*
X-5184672Y-9161678D01*
X-5165624Y-9133106D01*
X-5156100Y-9123582D01*
X-4984672Y-9152154D02*
X-5079910Y-9152154D01*
X-5089434Y-9247392D01*
X-5079910Y-9237868D01*
X-5060862Y-9228344D01*
X-5013243Y-9228344D01*
X-4994195Y-9237868D01*
X-4984672Y-9247392D01*
X-4975148Y-9266440D01*
X-4975148Y-9314059D01*
X-4984672Y-9333106D01*
X-4994195Y-9342630D01*
X-5013243Y-9352154D01*
X-5060862Y-9352154D01*
X-5079910Y-9342630D01*
X-5089434Y-9333106D01*
X-4737053Y-9352154D02*
X-4737053Y-9152154D01*
X-4651338Y-9352154D02*
X-4651338Y-9247392D01*
X-4660862Y-9228344D01*
X-4679910Y-9218820D01*
X-4708481Y-9218820D01*
X-4727529Y-9228344D01*
X-4737053Y-9237868D01*
X-4527529Y-9352154D02*
X-4546576Y-9342630D01*
X-4556100Y-9333106D01*
X-4565624Y-9314059D01*
X-4565624Y-9256916D01*
X-4556100Y-9237868D01*
X-4546576Y-9228344D01*
X-4527529Y-9218820D01*
X-4498957Y-9218820D01*
X-4479910Y-9228344D01*
X-4470386Y-9237868D01*
X-4460862Y-9256916D01*
X-4460862Y-9314059D01*
X-4470386Y-9333106D01*
X-4479910Y-9342630D01*
X-4498957Y-9352154D01*
X-4527529Y-9352154D01*
X-4346576Y-9352154D02*
X-4365624Y-9342630D01*
X-4375148Y-9323582D01*
X-4375148Y-9152154D01*
X-4194195Y-9342630D02*
X-4213243Y-9352154D01*
X-4251338Y-9352154D01*
X-4270386Y-9342630D01*
X-4279910Y-9323582D01*
X-4279910Y-9247392D01*
X-4270386Y-9228344D01*
X-4251338Y-9218820D01*
X-4213243Y-9218820D01*
X-4194195Y-9228344D01*
X-4184672Y-9247392D01*
X-4184672Y-9266440D01*
X-4279910Y-9285487D01*
X-4108481Y-9342630D02*
X-4089433Y-9352154D01*
X-4051338Y-9352154D01*
X-4032291Y-9342630D01*
X-4022767Y-9323582D01*
X-4022767Y-9314059D01*
X-4032291Y-9295011D01*
X-4051338Y-9285487D01*
X-4079910Y-9285487D01*
X-4098957Y-9275963D01*
X-4108481Y-9256916D01*
X-4108481Y-9247392D01*
X-4098957Y-9228344D01*
X-4079910Y-9218820D01*
X-4051338Y-9218820D01*
X-4032291Y-9228344D01*
X-3956100Y-9428344D02*
X-3946576Y-9418820D01*
X-3927529Y-9390249D01*
X-3918005Y-9371201D01*
X-3908481Y-9342630D01*
X-3898957Y-9295011D01*
X-3898957Y-9256916D01*
X-3908481Y-9209297D01*
X-3918005Y-9180725D01*
X-3927529Y-9161678D01*
X-3946576Y-9133106D01*
X-3956100Y-9123582D01*
D13*
X-8728005Y-9525678D02*
G75*
G03*
X-8728005Y-9525678I-30000J0D01*
G01*
D11*
X-8432291Y-9416154D02*
X-8413243Y-9416154D01*
X-8394195Y-9425678D01*
X-8384672Y-9435201D01*
X-8375148Y-9454249D01*
X-8365624Y-9492344D01*
X-8365624Y-9539963D01*
X-8375148Y-9578059D01*
X-8384672Y-9597106D01*
X-8394195Y-9606630D01*
X-8413243Y-9616154D01*
X-8432291Y-9616154D01*
X-8451338Y-9606630D01*
X-8460862Y-9597106D01*
X-8470386Y-9578059D01*
X-8479910Y-9539963D01*
X-8479910Y-9492344D01*
X-8470386Y-9454249D01*
X-8460862Y-9435201D01*
X-8451338Y-9425678D01*
X-8432291Y-9416154D01*
X-8279910Y-9597106D02*
X-8270386Y-9606630D01*
X-8279910Y-9616154D01*
X-8289433Y-9606630D01*
X-8279910Y-9597106D01*
X-8279910Y-9616154D01*
X-8098957Y-9416154D02*
X-8137053Y-9416154D01*
X-8156100Y-9425678D01*
X-8165624Y-9435201D01*
X-8184672Y-9463773D01*
X-8194195Y-9501868D01*
X-8194195Y-9578059D01*
X-8184672Y-9597106D01*
X-8175148Y-9606630D01*
X-8156100Y-9616154D01*
X-8118005Y-9616154D01*
X-8098957Y-9606630D01*
X-8089433Y-9597106D01*
X-8079910Y-9578059D01*
X-8079910Y-9530440D01*
X-8089433Y-9511392D01*
X-8098957Y-9501868D01*
X-8118005Y-9492344D01*
X-8156100Y-9492344D01*
X-8175148Y-9501868D01*
X-8184672Y-9511392D01*
X-8194195Y-9530440D01*
X-7956100Y-9416154D02*
X-7937053Y-9416154D01*
X-7918005Y-9425678D01*
X-7908481Y-9435201D01*
X-7898957Y-9454249D01*
X-7889433Y-9492344D01*
X-7889433Y-9539963D01*
X-7898957Y-9578059D01*
X-7908481Y-9597106D01*
X-7918005Y-9606630D01*
X-7937053Y-9616154D01*
X-7956100Y-9616154D01*
X-7975148Y-9606630D01*
X-7984672Y-9597106D01*
X-7994195Y-9578059D01*
X-8003719Y-9539963D01*
X-8003719Y-9492344D01*
X-7994195Y-9454249D01*
X-7984672Y-9435201D01*
X-7975148Y-9425678D01*
X-7956100Y-9416154D01*
X-7765624Y-9416154D02*
X-7746576Y-9416154D01*
X-7727529Y-9425678D01*
X-7718005Y-9435201D01*
X-7708481Y-9454249D01*
X-7698957Y-9492344D01*
X-7698957Y-9539963D01*
X-7708481Y-9578059D01*
X-7718005Y-9597106D01*
X-7727529Y-9606630D01*
X-7746576Y-9616154D01*
X-7765624Y-9616154D01*
X-7784672Y-9606630D01*
X-7794195Y-9597106D01*
X-7803719Y-9578059D01*
X-7813243Y-9539963D01*
X-7813243Y-9492344D01*
X-7803719Y-9454249D01*
X-7794195Y-9435201D01*
X-7784672Y-9425678D01*
X-7765624Y-9416154D01*
X-7613243Y-9616154D02*
X-7613243Y-9482820D01*
X-7613243Y-9501868D02*
X-7603719Y-9492344D01*
X-7584672Y-9482820D01*
X-7556100Y-9482820D01*
X-7537053Y-9492344D01*
X-7527529Y-9511392D01*
X-7527529Y-9616154D01*
X-7527529Y-9511392D02*
X-7518005Y-9492344D01*
X-7498957Y-9482820D01*
X-7470386Y-9482820D01*
X-7451338Y-9492344D01*
X-7441814Y-9511392D01*
X-7441814Y-9616154D01*
X-7346576Y-9616154D02*
X-7346576Y-9482820D01*
X-7346576Y-9501868D02*
X-7337053Y-9492344D01*
X-7318005Y-9482820D01*
X-7289433Y-9482820D01*
X-7270386Y-9492344D01*
X-7260862Y-9511392D01*
X-7260862Y-9616154D01*
X-7260862Y-9511392D02*
X-7251338Y-9492344D01*
X-7232291Y-9482820D01*
X-7203719Y-9482820D01*
X-7184672Y-9492344D01*
X-7175148Y-9511392D01*
X-7175148Y-9616154D01*
X-6784672Y-9406630D02*
X-6956100Y-9663773D01*
X-6527529Y-9416154D02*
X-6508481Y-9416154D01*
X-6489433Y-9425678D01*
X-6479910Y-9435201D01*
X-6470386Y-9454249D01*
X-6460862Y-9492344D01*
X-6460862Y-9539963D01*
X-6470386Y-9578059D01*
X-6479910Y-9597106D01*
X-6489433Y-9606630D01*
X-6508481Y-9616154D01*
X-6527529Y-9616154D01*
X-6546576Y-9606630D01*
X-6556100Y-9597106D01*
X-6565624Y-9578059D01*
X-6575148Y-9539963D01*
X-6575148Y-9492344D01*
X-6565624Y-9454249D01*
X-6556100Y-9435201D01*
X-6546576Y-9425678D01*
X-6527529Y-9416154D01*
X-6375148Y-9597106D02*
X-6365624Y-9606630D01*
X-6375148Y-9616154D01*
X-6384672Y-9606630D01*
X-6375148Y-9597106D01*
X-6375148Y-9616154D01*
X-6241814Y-9416154D02*
X-6222767Y-9416154D01*
X-6203719Y-9425678D01*
X-6194195Y-9435201D01*
X-6184672Y-9454249D01*
X-6175148Y-9492344D01*
X-6175148Y-9539963D01*
X-6184672Y-9578059D01*
X-6194195Y-9597106D01*
X-6203719Y-9606630D01*
X-6222767Y-9616154D01*
X-6241814Y-9616154D01*
X-6260862Y-9606630D01*
X-6270386Y-9597106D01*
X-6279910Y-9578059D01*
X-6289433Y-9539963D01*
X-6289433Y-9492344D01*
X-6279910Y-9454249D01*
X-6270386Y-9435201D01*
X-6260862Y-9425678D01*
X-6241814Y-9416154D01*
X-6098957Y-9435201D02*
X-6089433Y-9425678D01*
X-6070386Y-9416154D01*
X-6022767Y-9416154D01*
X-6003719Y-9425678D01*
X-5994195Y-9435201D01*
X-5984672Y-9454249D01*
X-5984672Y-9473297D01*
X-5994195Y-9501868D01*
X-6108481Y-9616154D01*
X-5984672Y-9616154D01*
X-5918005Y-9416154D02*
X-5794195Y-9416154D01*
X-5860862Y-9492344D01*
X-5832291Y-9492344D01*
X-5813243Y-9501868D01*
X-5803719Y-9511392D01*
X-5794195Y-9530440D01*
X-5794195Y-9578059D01*
X-5803719Y-9597106D01*
X-5813243Y-9606630D01*
X-5832291Y-9616154D01*
X-5889433Y-9616154D01*
X-5908481Y-9606630D01*
X-5918005Y-9597106D01*
X-5622767Y-9416154D02*
X-5660862Y-9416154D01*
X-5679910Y-9425678D01*
X-5689433Y-9435201D01*
X-5708481Y-9463773D01*
X-5718005Y-9501868D01*
X-5718005Y-9578059D01*
X-5708481Y-9597106D01*
X-5698957Y-9606630D01*
X-5679910Y-9616154D01*
X-5641814Y-9616154D01*
X-5622767Y-9606630D01*
X-5613243Y-9597106D01*
X-5603719Y-9578059D01*
X-5603719Y-9530440D01*
X-5613243Y-9511392D01*
X-5622767Y-9501868D01*
X-5641814Y-9492344D01*
X-5679910Y-9492344D01*
X-5698957Y-9501868D01*
X-5708481Y-9511392D01*
X-5718005Y-9530440D01*
X-5527529Y-9416154D02*
X-5527529Y-9454249D01*
X-5451338Y-9416154D02*
X-5451338Y-9454249D01*
X-5156100Y-9692344D02*
X-5165624Y-9682820D01*
X-5184672Y-9654249D01*
X-5194195Y-9635201D01*
X-5203719Y-9606630D01*
X-5213243Y-9559011D01*
X-5213243Y-9520916D01*
X-5203719Y-9473297D01*
X-5194195Y-9444725D01*
X-5184672Y-9425678D01*
X-5165624Y-9397106D01*
X-5156100Y-9387582D01*
X-5089434Y-9435201D02*
X-5079910Y-9425678D01*
X-5060862Y-9416154D01*
X-5013243Y-9416154D01*
X-4994195Y-9425678D01*
X-4984672Y-9435201D01*
X-4975148Y-9454249D01*
X-4975148Y-9473297D01*
X-4984672Y-9501868D01*
X-5098957Y-9616154D01*
X-4975148Y-9616154D01*
X-4737053Y-9616154D02*
X-4737053Y-9416154D01*
X-4651338Y-9616154D02*
X-4651338Y-9511392D01*
X-4660862Y-9492344D01*
X-4679910Y-9482820D01*
X-4708481Y-9482820D01*
X-4727529Y-9492344D01*
X-4737053Y-9501868D01*
X-4527529Y-9616154D02*
X-4546576Y-9606630D01*
X-4556100Y-9597106D01*
X-4565624Y-9578059D01*
X-4565624Y-9520916D01*
X-4556100Y-9501868D01*
X-4546576Y-9492344D01*
X-4527529Y-9482820D01*
X-4498957Y-9482820D01*
X-4479910Y-9492344D01*
X-4470386Y-9501868D01*
X-4460862Y-9520916D01*
X-4460862Y-9578059D01*
X-4470386Y-9597106D01*
X-4479910Y-9606630D01*
X-4498957Y-9616154D01*
X-4527529Y-9616154D01*
X-4346576Y-9616154D02*
X-4365624Y-9606630D01*
X-4375148Y-9587582D01*
X-4375148Y-9416154D01*
X-4194195Y-9606630D02*
X-4213243Y-9616154D01*
X-4251338Y-9616154D01*
X-4270386Y-9606630D01*
X-4279910Y-9587582D01*
X-4279910Y-9511392D01*
X-4270386Y-9492344D01*
X-4251338Y-9482820D01*
X-4213243Y-9482820D01*
X-4194195Y-9492344D01*
X-4184672Y-9511392D01*
X-4184672Y-9530440D01*
X-4279910Y-9549487D01*
X-4108481Y-9606630D02*
X-4089433Y-9616154D01*
X-4051338Y-9616154D01*
X-4032291Y-9606630D01*
X-4022767Y-9587582D01*
X-4022767Y-9578059D01*
X-4032291Y-9559011D01*
X-4051338Y-9549487D01*
X-4079910Y-9549487D01*
X-4098957Y-9539963D01*
X-4108481Y-9520916D01*
X-4108481Y-9511392D01*
X-4098957Y-9492344D01*
X-4079910Y-9482820D01*
X-4051338Y-9482820D01*
X-4032291Y-9492344D01*
X-3956100Y-9692344D02*
X-3946576Y-9682820D01*
X-3927529Y-9654249D01*
X-3918005Y-9635201D01*
X-3908481Y-9606630D01*
X-3898957Y-9559011D01*
X-3898957Y-9520916D01*
X-3908481Y-9473297D01*
X-3918005Y-9444725D01*
X-3927529Y-9425678D01*
X-3946576Y-9397106D01*
X-3956100Y-9387582D01*
D14*
X-8763005Y-9754678D02*
X-8763005Y-9824678D01*
X-8798005Y-9789678D02*
X-8728005Y-9789678D01*
D11*
X-8432291Y-9680154D02*
X-8413243Y-9680154D01*
X-8394195Y-9689678D01*
X-8384672Y-9699201D01*
X-8375148Y-9718249D01*
X-8365624Y-9756344D01*
X-8365624Y-9803963D01*
X-8375148Y-9842059D01*
X-8384672Y-9861106D01*
X-8394195Y-9870630D01*
X-8413243Y-9880154D01*
X-8432291Y-9880154D01*
X-8451338Y-9870630D01*
X-8460862Y-9861106D01*
X-8470386Y-9842059D01*
X-8479910Y-9803963D01*
X-8479910Y-9756344D01*
X-8470386Y-9718249D01*
X-8460862Y-9699201D01*
X-8451338Y-9689678D01*
X-8432291Y-9680154D01*
X-8279910Y-9861106D02*
X-8270386Y-9870630D01*
X-8279910Y-9880154D01*
X-8289433Y-9870630D01*
X-8279910Y-9861106D01*
X-8279910Y-9880154D01*
X-8203719Y-9680154D02*
X-8070386Y-9680154D01*
X-8156100Y-9880154D01*
X-7956100Y-9680154D02*
X-7937053Y-9680154D01*
X-7918005Y-9689678D01*
X-7908481Y-9699201D01*
X-7898957Y-9718249D01*
X-7889433Y-9756344D01*
X-7889433Y-9803963D01*
X-7898957Y-9842059D01*
X-7908481Y-9861106D01*
X-7918005Y-9870630D01*
X-7937053Y-9880154D01*
X-7956100Y-9880154D01*
X-7975148Y-9870630D01*
X-7984672Y-9861106D01*
X-7994195Y-9842059D01*
X-8003719Y-9803963D01*
X-8003719Y-9756344D01*
X-7994195Y-9718249D01*
X-7984672Y-9699201D01*
X-7975148Y-9689678D01*
X-7956100Y-9680154D01*
X-7765624Y-9680154D02*
X-7746576Y-9680154D01*
X-7727529Y-9689678D01*
X-7718005Y-9699201D01*
X-7708481Y-9718249D01*
X-7698957Y-9756344D01*
X-7698957Y-9803963D01*
X-7708481Y-9842059D01*
X-7718005Y-9861106D01*
X-7727529Y-9870630D01*
X-7746576Y-9880154D01*
X-7765624Y-9880154D01*
X-7784672Y-9870630D01*
X-7794195Y-9861106D01*
X-7803719Y-9842059D01*
X-7813243Y-9803963D01*
X-7813243Y-9756344D01*
X-7803719Y-9718249D01*
X-7794195Y-9699201D01*
X-7784672Y-9689678D01*
X-7765624Y-9680154D01*
X-7613243Y-9880154D02*
X-7613243Y-9746820D01*
X-7613243Y-9765868D02*
X-7603719Y-9756344D01*
X-7584672Y-9746820D01*
X-7556100Y-9746820D01*
X-7537053Y-9756344D01*
X-7527529Y-9775392D01*
X-7527529Y-9880154D01*
X-7527529Y-9775392D02*
X-7518005Y-9756344D01*
X-7498957Y-9746820D01*
X-7470386Y-9746820D01*
X-7451338Y-9756344D01*
X-7441814Y-9775392D01*
X-7441814Y-9880154D01*
X-7346576Y-9880154D02*
X-7346576Y-9746820D01*
X-7346576Y-9765868D02*
X-7337053Y-9756344D01*
X-7318005Y-9746820D01*
X-7289433Y-9746820D01*
X-7270386Y-9756344D01*
X-7260862Y-9775392D01*
X-7260862Y-9880154D01*
X-7260862Y-9775392D02*
X-7251338Y-9756344D01*
X-7232291Y-9746820D01*
X-7203719Y-9746820D01*
X-7184672Y-9756344D01*
X-7175148Y-9775392D01*
X-7175148Y-9880154D01*
X-6784672Y-9670630D02*
X-6956100Y-9927773D01*
X-6527529Y-9680154D02*
X-6508481Y-9680154D01*
X-6489433Y-9689678D01*
X-6479910Y-9699201D01*
X-6470386Y-9718249D01*
X-6460862Y-9756344D01*
X-6460862Y-9803963D01*
X-6470386Y-9842059D01*
X-6479910Y-9861106D01*
X-6489433Y-9870630D01*
X-6508481Y-9880154D01*
X-6527529Y-9880154D01*
X-6546576Y-9870630D01*
X-6556100Y-9861106D01*
X-6565624Y-9842059D01*
X-6575148Y-9803963D01*
X-6575148Y-9756344D01*
X-6565624Y-9718249D01*
X-6556100Y-9699201D01*
X-6546576Y-9689678D01*
X-6527529Y-9680154D01*
X-6375148Y-9861106D02*
X-6365624Y-9870630D01*
X-6375148Y-9880154D01*
X-6384672Y-9870630D01*
X-6375148Y-9861106D01*
X-6375148Y-9880154D01*
X-6241814Y-9680154D02*
X-6222767Y-9680154D01*
X-6203719Y-9689678D01*
X-6194195Y-9699201D01*
X-6184672Y-9718249D01*
X-6175148Y-9756344D01*
X-6175148Y-9803963D01*
X-6184672Y-9842059D01*
X-6194195Y-9861106D01*
X-6203719Y-9870630D01*
X-6222767Y-9880154D01*
X-6241814Y-9880154D01*
X-6260862Y-9870630D01*
X-6270386Y-9861106D01*
X-6279910Y-9842059D01*
X-6289433Y-9803963D01*
X-6289433Y-9756344D01*
X-6279910Y-9718249D01*
X-6270386Y-9699201D01*
X-6260862Y-9689678D01*
X-6241814Y-9680154D01*
X-6098957Y-9699201D02*
X-6089433Y-9689678D01*
X-6070386Y-9680154D01*
X-6022767Y-9680154D01*
X-6003719Y-9689678D01*
X-5994195Y-9699201D01*
X-5984672Y-9718249D01*
X-5984672Y-9737297D01*
X-5994195Y-9765868D01*
X-6108481Y-9880154D01*
X-5984672Y-9880154D01*
X-5918005Y-9680154D02*
X-5784672Y-9680154D01*
X-5870386Y-9880154D01*
X-5622767Y-9680154D02*
X-5660862Y-9680154D01*
X-5679910Y-9689678D01*
X-5689433Y-9699201D01*
X-5708481Y-9727773D01*
X-5718005Y-9765868D01*
X-5718005Y-9842059D01*
X-5708481Y-9861106D01*
X-5698957Y-9870630D01*
X-5679910Y-9880154D01*
X-5641814Y-9880154D01*
X-5622767Y-9870630D01*
X-5613243Y-9861106D01*
X-5603719Y-9842059D01*
X-5603719Y-9794440D01*
X-5613243Y-9775392D01*
X-5622767Y-9765868D01*
X-5641814Y-9756344D01*
X-5679910Y-9756344D01*
X-5698957Y-9765868D01*
X-5708481Y-9775392D01*
X-5718005Y-9794440D01*
X-5527529Y-9680154D02*
X-5527529Y-9718249D01*
X-5451338Y-9680154D02*
X-5451338Y-9718249D01*
X-5156100Y-9956344D02*
X-5165624Y-9946820D01*
X-5184672Y-9918249D01*
X-5194195Y-9899201D01*
X-5203719Y-9870630D01*
X-5213243Y-9823011D01*
X-5213243Y-9784916D01*
X-5203719Y-9737297D01*
X-5194195Y-9708725D01*
X-5184672Y-9689678D01*
X-5165624Y-9661106D01*
X-5156100Y-9651582D01*
X-4975148Y-9880154D02*
X-5089434Y-9880154D01*
X-5032291Y-9880154D02*
X-5032291Y-9680154D01*
X-5051338Y-9708725D01*
X-5070386Y-9727773D01*
X-5089434Y-9737297D01*
X-4908481Y-9680154D02*
X-4784672Y-9680154D01*
X-4851338Y-9756344D01*
X-4822767Y-9756344D01*
X-4803719Y-9765868D01*
X-4794195Y-9775392D01*
X-4784672Y-9794440D01*
X-4784672Y-9842059D01*
X-4794195Y-9861106D01*
X-4803719Y-9870630D01*
X-4822767Y-9880154D01*
X-4879910Y-9880154D01*
X-4898957Y-9870630D01*
X-4908481Y-9861106D01*
X-4546576Y-9880154D02*
X-4546576Y-9680154D01*
X-4460862Y-9880154D02*
X-4460862Y-9775392D01*
X-4470386Y-9756344D01*
X-4489434Y-9746820D01*
X-4518005Y-9746820D01*
X-4537053Y-9756344D01*
X-4546576Y-9765868D01*
X-4337053Y-9880154D02*
X-4356100Y-9870630D01*
X-4365624Y-9861106D01*
X-4375148Y-9842059D01*
X-4375148Y-9784916D01*
X-4365624Y-9765868D01*
X-4356100Y-9756344D01*
X-4337053Y-9746820D01*
X-4308481Y-9746820D01*
X-4289434Y-9756344D01*
X-4279910Y-9765868D01*
X-4270386Y-9784916D01*
X-4270386Y-9842059D01*
X-4279910Y-9861106D01*
X-4289434Y-9870630D01*
X-4308481Y-9880154D01*
X-4337053Y-9880154D01*
X-4156100Y-9880154D02*
X-4175148Y-9870630D01*
X-4184672Y-9851582D01*
X-4184672Y-9680154D01*
X-4003719Y-9870630D02*
X-4022767Y-9880154D01*
X-4060862Y-9880154D01*
X-4079910Y-9870630D01*
X-4089433Y-9851582D01*
X-4089433Y-9775392D01*
X-4079910Y-9756344D01*
X-4060862Y-9746820D01*
X-4022767Y-9746820D01*
X-4003719Y-9756344D01*
X-3994195Y-9775392D01*
X-3994195Y-9794440D01*
X-4089433Y-9813487D01*
X-3918005Y-9870630D02*
X-3898957Y-9880154D01*
X-3860862Y-9880154D01*
X-3841814Y-9870630D01*
X-3832291Y-9851582D01*
X-3832291Y-9842059D01*
X-3841814Y-9823011D01*
X-3860862Y-9813487D01*
X-3889433Y-9813487D01*
X-3908481Y-9803963D01*
X-3918005Y-9784916D01*
X-3918005Y-9775392D01*
X-3908481Y-9756344D01*
X-3889433Y-9746820D01*
X-3860862Y-9746820D01*
X-3841814Y-9756344D01*
X-3594195Y-9803963D02*
X-3441814Y-9803963D01*
X-3518005Y-9880154D02*
X-3518005Y-9727773D01*
X-3203719Y-9699201D02*
X-3194195Y-9689678D01*
X-3175148Y-9680154D01*
X-3127529Y-9680154D01*
X-3108481Y-9689678D01*
X-3098957Y-9699201D01*
X-3089433Y-9718249D01*
X-3089433Y-9737297D01*
X-3098957Y-9765868D01*
X-3213243Y-9880154D01*
X-3089433Y-9880154D01*
X-2860862Y-9870630D02*
X-2841814Y-9880154D01*
X-2803719Y-9880154D01*
X-2784672Y-9870630D01*
X-2775148Y-9851582D01*
X-2775148Y-9842059D01*
X-2784672Y-9823011D01*
X-2803719Y-9813487D01*
X-2832291Y-9813487D01*
X-2851338Y-9803963D01*
X-2860862Y-9784916D01*
X-2860862Y-9775392D01*
X-2851338Y-9756344D01*
X-2832291Y-9746820D01*
X-2803719Y-9746820D01*
X-2784672Y-9756344D01*
X-2660862Y-9880154D02*
X-2679910Y-9870630D01*
X-2689434Y-9851582D01*
X-2689434Y-9680154D01*
X-2556100Y-9880154D02*
X-2575148Y-9870630D01*
X-2584672Y-9861106D01*
X-2594195Y-9842059D01*
X-2594195Y-9784916D01*
X-2584672Y-9765868D01*
X-2575148Y-9756344D01*
X-2556100Y-9746820D01*
X-2527529Y-9746820D01*
X-2508481Y-9756344D01*
X-2498957Y-9765868D01*
X-2489434Y-9784916D01*
X-2489434Y-9842059D01*
X-2498957Y-9861106D01*
X-2508481Y-9870630D01*
X-2527529Y-9880154D01*
X-2556100Y-9880154D01*
X-2432291Y-9746820D02*
X-2356100Y-9746820D01*
X-2403719Y-9680154D02*
X-2403719Y-9851582D01*
X-2394195Y-9870630D01*
X-2375148Y-9880154D01*
X-2356100Y-9880154D01*
X-2298957Y-9870630D02*
X-2279910Y-9880154D01*
X-2241815Y-9880154D01*
X-2222767Y-9870630D01*
X-2213243Y-9851582D01*
X-2213243Y-9842059D01*
X-2222767Y-9823011D01*
X-2241815Y-9813487D01*
X-2270386Y-9813487D01*
X-2289434Y-9803963D01*
X-2298957Y-9784916D01*
X-2298957Y-9775392D01*
X-2289434Y-9756344D01*
X-2270386Y-9746820D01*
X-2241815Y-9746820D01*
X-2222767Y-9756344D01*
X-2146576Y-9956344D02*
X-2137053Y-9946820D01*
X-2118005Y-9918249D01*
X-2108481Y-9899201D01*
X-2098957Y-9870630D01*
X-2089433Y-9823011D01*
X-2089433Y-9784916D01*
X-2098957Y-9737297D01*
X-2108481Y-9708725D01*
X-2118005Y-9689678D01*
X-2137053Y-9661106D01*
X-2146576Y-9651582D01*
D15*
X-8739721Y-10081962D02*
X-8739721Y-10025393D01*
X-8796290Y-10025393D01*
X-8796290Y-10081962D01*
X-8739721Y-10081962D01*
D11*
X-8432291Y-9944154D02*
X-8413243Y-9944154D01*
X-8394195Y-9953678D01*
X-8384672Y-9963201D01*
X-8375148Y-9982249D01*
X-8365624Y-10020344D01*
X-8365624Y-10067963D01*
X-8375148Y-10106059D01*
X-8384672Y-10125106D01*
X-8394195Y-10134630D01*
X-8413243Y-10144154D01*
X-8432291Y-10144154D01*
X-8451338Y-10134630D01*
X-8460862Y-10125106D01*
X-8470386Y-10106059D01*
X-8479910Y-10067963D01*
X-8479910Y-10020344D01*
X-8470386Y-9982249D01*
X-8460862Y-9963201D01*
X-8451338Y-9953678D01*
X-8432291Y-9944154D01*
X-8279910Y-10125106D02*
X-8270386Y-10134630D01*
X-8279910Y-10144154D01*
X-8289433Y-10134630D01*
X-8279910Y-10125106D01*
X-8279910Y-10144154D01*
X-8156100Y-10029868D02*
X-8175148Y-10020344D01*
X-8184672Y-10010820D01*
X-8194195Y-9991773D01*
X-8194195Y-9982249D01*
X-8184672Y-9963201D01*
X-8175148Y-9953678D01*
X-8156100Y-9944154D01*
X-8118005Y-9944154D01*
X-8098957Y-9953678D01*
X-8089433Y-9963201D01*
X-8079910Y-9982249D01*
X-8079910Y-9991773D01*
X-8089433Y-10010820D01*
X-8098957Y-10020344D01*
X-8118005Y-10029868D01*
X-8156100Y-10029868D01*
X-8175148Y-10039392D01*
X-8184672Y-10048916D01*
X-8194195Y-10067963D01*
X-8194195Y-10106059D01*
X-8184672Y-10125106D01*
X-8175148Y-10134630D01*
X-8156100Y-10144154D01*
X-8118005Y-10144154D01*
X-8098957Y-10134630D01*
X-8089433Y-10125106D01*
X-8079910Y-10106059D01*
X-8079910Y-10067963D01*
X-8089433Y-10048916D01*
X-8098957Y-10039392D01*
X-8118005Y-10029868D01*
X-7956100Y-9944154D02*
X-7937053Y-9944154D01*
X-7918005Y-9953678D01*
X-7908481Y-9963201D01*
X-7898957Y-9982249D01*
X-7889433Y-10020344D01*
X-7889433Y-10067963D01*
X-7898957Y-10106059D01*
X-7908481Y-10125106D01*
X-7918005Y-10134630D01*
X-7937053Y-10144154D01*
X-7956100Y-10144154D01*
X-7975148Y-10134630D01*
X-7984672Y-10125106D01*
X-7994195Y-10106059D01*
X-8003719Y-10067963D01*
X-8003719Y-10020344D01*
X-7994195Y-9982249D01*
X-7984672Y-9963201D01*
X-7975148Y-9953678D01*
X-7956100Y-9944154D01*
X-7765624Y-9944154D02*
X-7746576Y-9944154D01*
X-7727529Y-9953678D01*
X-7718005Y-9963201D01*
X-7708481Y-9982249D01*
X-7698957Y-10020344D01*
X-7698957Y-10067963D01*
X-7708481Y-10106059D01*
X-7718005Y-10125106D01*
X-7727529Y-10134630D01*
X-7746576Y-10144154D01*
X-7765624Y-10144154D01*
X-7784672Y-10134630D01*
X-7794195Y-10125106D01*
X-7803719Y-10106059D01*
X-7813243Y-10067963D01*
X-7813243Y-10020344D01*
X-7803719Y-9982249D01*
X-7794195Y-9963201D01*
X-7784672Y-9953678D01*
X-7765624Y-9944154D01*
X-7613243Y-10144154D02*
X-7613243Y-10010820D01*
X-7613243Y-10029868D02*
X-7603719Y-10020344D01*
X-7584672Y-10010820D01*
X-7556100Y-10010820D01*
X-7537053Y-10020344D01*
X-7527529Y-10039392D01*
X-7527529Y-10144154D01*
X-7527529Y-10039392D02*
X-7518005Y-10020344D01*
X-7498957Y-10010820D01*
X-7470386Y-10010820D01*
X-7451338Y-10020344D01*
X-7441814Y-10039392D01*
X-7441814Y-10144154D01*
X-7346576Y-10144154D02*
X-7346576Y-10010820D01*
X-7346576Y-10029868D02*
X-7337053Y-10020344D01*
X-7318005Y-10010820D01*
X-7289433Y-10010820D01*
X-7270386Y-10020344D01*
X-7260862Y-10039392D01*
X-7260862Y-10144154D01*
X-7260862Y-10039392D02*
X-7251338Y-10020344D01*
X-7232291Y-10010820D01*
X-7203719Y-10010820D01*
X-7184672Y-10020344D01*
X-7175148Y-10039392D01*
X-7175148Y-10144154D01*
X-6784672Y-9934630D02*
X-6956100Y-10191773D01*
X-6527529Y-9944154D02*
X-6508481Y-9944154D01*
X-6489433Y-9953678D01*
X-6479910Y-9963201D01*
X-6470386Y-9982249D01*
X-6460862Y-10020344D01*
X-6460862Y-10067963D01*
X-6470386Y-10106059D01*
X-6479910Y-10125106D01*
X-6489433Y-10134630D01*
X-6508481Y-10144154D01*
X-6527529Y-10144154D01*
X-6546576Y-10134630D01*
X-6556100Y-10125106D01*
X-6565624Y-10106059D01*
X-6575148Y-10067963D01*
X-6575148Y-10020344D01*
X-6565624Y-9982249D01*
X-6556100Y-9963201D01*
X-6546576Y-9953678D01*
X-6527529Y-9944154D01*
X-6375148Y-10125106D02*
X-6365624Y-10134630D01*
X-6375148Y-10144154D01*
X-6384672Y-10134630D01*
X-6375148Y-10125106D01*
X-6375148Y-10144154D01*
X-6241814Y-9944154D02*
X-6222767Y-9944154D01*
X-6203719Y-9953678D01*
X-6194195Y-9963201D01*
X-6184672Y-9982249D01*
X-6175148Y-10020344D01*
X-6175148Y-10067963D01*
X-6184672Y-10106059D01*
X-6194195Y-10125106D01*
X-6203719Y-10134630D01*
X-6222767Y-10144154D01*
X-6241814Y-10144154D01*
X-6260862Y-10134630D01*
X-6270386Y-10125106D01*
X-6279910Y-10106059D01*
X-6289433Y-10067963D01*
X-6289433Y-10020344D01*
X-6279910Y-9982249D01*
X-6270386Y-9963201D01*
X-6260862Y-9953678D01*
X-6241814Y-9944154D01*
X-6108481Y-9944154D02*
X-5984672Y-9944154D01*
X-6051338Y-10020344D01*
X-6022767Y-10020344D01*
X-6003719Y-10029868D01*
X-5994195Y-10039392D01*
X-5984672Y-10058440D01*
X-5984672Y-10106059D01*
X-5994195Y-10125106D01*
X-6003719Y-10134630D01*
X-6022767Y-10144154D01*
X-6079910Y-10144154D01*
X-6098957Y-10134630D01*
X-6108481Y-10125106D01*
X-5794195Y-10144154D02*
X-5908481Y-10144154D01*
X-5851338Y-10144154D02*
X-5851338Y-9944154D01*
X-5870386Y-9972725D01*
X-5889433Y-9991773D01*
X-5908481Y-10001297D01*
X-5613243Y-9944154D02*
X-5708481Y-9944154D01*
X-5718005Y-10039392D01*
X-5708481Y-10029868D01*
X-5689433Y-10020344D01*
X-5641814Y-10020344D01*
X-5622767Y-10029868D01*
X-5613243Y-10039392D01*
X-5603719Y-10058440D01*
X-5603719Y-10106059D01*
X-5613243Y-10125106D01*
X-5622767Y-10134630D01*
X-5641814Y-10144154D01*
X-5689433Y-10144154D01*
X-5708481Y-10134630D01*
X-5718005Y-10125106D01*
X-5527529Y-9944154D02*
X-5527529Y-9982249D01*
X-5451338Y-9944154D02*
X-5451338Y-9982249D01*
X-5156100Y-10220344D02*
X-5165624Y-10210820D01*
X-5184672Y-10182249D01*
X-5194195Y-10163201D01*
X-5203719Y-10134630D01*
X-5213243Y-10087011D01*
X-5213243Y-10048916D01*
X-5203719Y-10001297D01*
X-5194195Y-9972725D01*
X-5184672Y-9953678D01*
X-5165624Y-9925106D01*
X-5156100Y-9915582D01*
X-5070386Y-10144154D02*
X-5032291Y-10144154D01*
X-5013243Y-10134630D01*
X-5003719Y-10125106D01*
X-4984672Y-10096535D01*
X-4975148Y-10058440D01*
X-4975148Y-9982249D01*
X-4984672Y-9963201D01*
X-4994195Y-9953678D01*
X-5013243Y-9944154D01*
X-5051338Y-9944154D01*
X-5070386Y-9953678D01*
X-5079910Y-9963201D01*
X-5089434Y-9982249D01*
X-5089434Y-10029868D01*
X-5079910Y-10048916D01*
X-5070386Y-10058440D01*
X-5051338Y-10067963D01*
X-5013243Y-10067963D01*
X-4994195Y-10058440D01*
X-4984672Y-10048916D01*
X-4975148Y-10029868D01*
X-4803719Y-9944154D02*
X-4841815Y-9944154D01*
X-4860862Y-9953678D01*
X-4870386Y-9963201D01*
X-4889434Y-9991773D01*
X-4898957Y-10029868D01*
X-4898957Y-10106059D01*
X-4889434Y-10125106D01*
X-4879910Y-10134630D01*
X-4860862Y-10144154D01*
X-4822767Y-10144154D01*
X-4803719Y-10134630D01*
X-4794195Y-10125106D01*
X-4784672Y-10106059D01*
X-4784672Y-10058440D01*
X-4794195Y-10039392D01*
X-4803719Y-10029868D01*
X-4822767Y-10020344D01*
X-4860862Y-10020344D01*
X-4879910Y-10029868D01*
X-4889434Y-10039392D01*
X-4898957Y-10058440D01*
X-4546576Y-10144154D02*
X-4546576Y-9944154D01*
X-4460862Y-10144154D02*
X-4460862Y-10039392D01*
X-4470386Y-10020344D01*
X-4489434Y-10010820D01*
X-4518005Y-10010820D01*
X-4537053Y-10020344D01*
X-4546576Y-10029868D01*
X-4337053Y-10144154D02*
X-4356100Y-10134630D01*
X-4365624Y-10125106D01*
X-4375148Y-10106059D01*
X-4375148Y-10048916D01*
X-4365624Y-10029868D01*
X-4356100Y-10020344D01*
X-4337053Y-10010820D01*
X-4308481Y-10010820D01*
X-4289434Y-10020344D01*
X-4279910Y-10029868D01*
X-4270386Y-10048916D01*
X-4270386Y-10106059D01*
X-4279910Y-10125106D01*
X-4289434Y-10134630D01*
X-4308481Y-10144154D01*
X-4337053Y-10144154D01*
X-4156100Y-10144154D02*
X-4175148Y-10134630D01*
X-4184672Y-10115582D01*
X-4184672Y-9944154D01*
X-4003719Y-10134630D02*
X-4022767Y-10144154D01*
X-4060862Y-10144154D01*
X-4079910Y-10134630D01*
X-4089433Y-10115582D01*
X-4089433Y-10039392D01*
X-4079910Y-10020344D01*
X-4060862Y-10010820D01*
X-4022767Y-10010820D01*
X-4003719Y-10020344D01*
X-3994195Y-10039392D01*
X-3994195Y-10058440D01*
X-4089433Y-10077487D01*
X-3918005Y-10134630D02*
X-3898957Y-10144154D01*
X-3860862Y-10144154D01*
X-3841814Y-10134630D01*
X-3832291Y-10115582D01*
X-3832291Y-10106059D01*
X-3841814Y-10087011D01*
X-3860862Y-10077487D01*
X-3889433Y-10077487D01*
X-3908481Y-10067963D01*
X-3918005Y-10048916D01*
X-3918005Y-10039392D01*
X-3908481Y-10020344D01*
X-3889433Y-10010820D01*
X-3860862Y-10010820D01*
X-3841814Y-10020344D01*
X-3765624Y-10220344D02*
X-3756100Y-10210820D01*
X-3737053Y-10182249D01*
X-3727529Y-10163201D01*
X-3718005Y-10134630D01*
X-3708481Y-10087011D01*
X-3708481Y-10048916D01*
X-3718005Y-10001297D01*
X-3727529Y-9972725D01*
X-3737053Y-9953678D01*
X-3756100Y-9925106D01*
X-3765624Y-9915582D01*
D16*
X-8778505Y-10368178D02*
X-8728005Y-10317678D01*
X-8778505Y-10267178D01*
X-8829005Y-10317678D01*
X-8778505Y-10368178D01*
D11*
X-8365624Y-10408154D02*
X-8479910Y-10408154D01*
X-8422767Y-10408154D02*
X-8422767Y-10208154D01*
X-8441815Y-10236725D01*
X-8460862Y-10255773D01*
X-8479910Y-10265297D01*
X-8279910Y-10389106D02*
X-8270386Y-10398630D01*
X-8279910Y-10408154D01*
X-8289433Y-10398630D01*
X-8279910Y-10389106D01*
X-8279910Y-10408154D01*
X-8146576Y-10208154D02*
X-8127529Y-10208154D01*
X-8108481Y-10217678D01*
X-8098957Y-10227201D01*
X-8089433Y-10246249D01*
X-8079910Y-10284344D01*
X-8079910Y-10331963D01*
X-8089433Y-10370059D01*
X-8098957Y-10389106D01*
X-8108481Y-10398630D01*
X-8127529Y-10408154D01*
X-8146576Y-10408154D01*
X-8165624Y-10398630D01*
X-8175148Y-10389106D01*
X-8184672Y-10370059D01*
X-8194195Y-10331963D01*
X-8194195Y-10284344D01*
X-8184672Y-10246249D01*
X-8175148Y-10227201D01*
X-8165624Y-10217678D01*
X-8146576Y-10208154D01*
X-7889433Y-10408154D02*
X-8003719Y-10408154D01*
X-7946576Y-10408154D02*
X-7946576Y-10208154D01*
X-7965624Y-10236725D01*
X-7984672Y-10255773D01*
X-8003719Y-10265297D01*
X-7765624Y-10208154D02*
X-7746576Y-10208154D01*
X-7727529Y-10217678D01*
X-7718005Y-10227201D01*
X-7708481Y-10246249D01*
X-7698957Y-10284344D01*
X-7698957Y-10331963D01*
X-7708481Y-10370059D01*
X-7718005Y-10389106D01*
X-7727529Y-10398630D01*
X-7746576Y-10408154D01*
X-7765624Y-10408154D01*
X-7784672Y-10398630D01*
X-7794195Y-10389106D01*
X-7803719Y-10370059D01*
X-7813243Y-10331963D01*
X-7813243Y-10284344D01*
X-7803719Y-10246249D01*
X-7794195Y-10227201D01*
X-7784672Y-10217678D01*
X-7765624Y-10208154D01*
X-7613243Y-10408154D02*
X-7613243Y-10274820D01*
X-7613243Y-10293868D02*
X-7603719Y-10284344D01*
X-7584672Y-10274820D01*
X-7556100Y-10274820D01*
X-7537053Y-10284344D01*
X-7527529Y-10303392D01*
X-7527529Y-10408154D01*
X-7527529Y-10303392D02*
X-7518005Y-10284344D01*
X-7498957Y-10274820D01*
X-7470386Y-10274820D01*
X-7451338Y-10284344D01*
X-7441814Y-10303392D01*
X-7441814Y-10408154D01*
X-7346576Y-10408154D02*
X-7346576Y-10274820D01*
X-7346576Y-10293868D02*
X-7337053Y-10284344D01*
X-7318005Y-10274820D01*
X-7289433Y-10274820D01*
X-7270386Y-10284344D01*
X-7260862Y-10303392D01*
X-7260862Y-10408154D01*
X-7260862Y-10303392D02*
X-7251338Y-10284344D01*
X-7232291Y-10274820D01*
X-7203719Y-10274820D01*
X-7184672Y-10284344D01*
X-7175148Y-10303392D01*
X-7175148Y-10408154D01*
X-6784672Y-10198630D02*
X-6956100Y-10455773D01*
X-6527529Y-10208154D02*
X-6508481Y-10208154D01*
X-6489433Y-10217678D01*
X-6479910Y-10227201D01*
X-6470386Y-10246249D01*
X-6460862Y-10284344D01*
X-6460862Y-10331963D01*
X-6470386Y-10370059D01*
X-6479910Y-10389106D01*
X-6489433Y-10398630D01*
X-6508481Y-10408154D01*
X-6527529Y-10408154D01*
X-6546576Y-10398630D01*
X-6556100Y-10389106D01*
X-6565624Y-10370059D01*
X-6575148Y-10331963D01*
X-6575148Y-10284344D01*
X-6565624Y-10246249D01*
X-6556100Y-10227201D01*
X-6546576Y-10217678D01*
X-6527529Y-10208154D01*
X-6375148Y-10389106D02*
X-6365624Y-10398630D01*
X-6375148Y-10408154D01*
X-6384672Y-10398630D01*
X-6375148Y-10389106D01*
X-6375148Y-10408154D01*
X-6241814Y-10208154D02*
X-6222767Y-10208154D01*
X-6203719Y-10217678D01*
X-6194195Y-10227201D01*
X-6184672Y-10246249D01*
X-6175148Y-10284344D01*
X-6175148Y-10331963D01*
X-6184672Y-10370059D01*
X-6194195Y-10389106D01*
X-6203719Y-10398630D01*
X-6222767Y-10408154D01*
X-6241814Y-10408154D01*
X-6260862Y-10398630D01*
X-6270386Y-10389106D01*
X-6279910Y-10370059D01*
X-6289433Y-10331963D01*
X-6289433Y-10284344D01*
X-6279910Y-10246249D01*
X-6270386Y-10227201D01*
X-6260862Y-10217678D01*
X-6241814Y-10208154D01*
X-6108481Y-10208154D02*
X-5984672Y-10208154D01*
X-6051338Y-10284344D01*
X-6022767Y-10284344D01*
X-6003719Y-10293868D01*
X-5994195Y-10303392D01*
X-5984672Y-10322440D01*
X-5984672Y-10370059D01*
X-5994195Y-10389106D01*
X-6003719Y-10398630D01*
X-6022767Y-10408154D01*
X-6079910Y-10408154D01*
X-6098957Y-10398630D01*
X-6108481Y-10389106D01*
X-5889433Y-10408154D02*
X-5851338Y-10408154D01*
X-5832291Y-10398630D01*
X-5822767Y-10389106D01*
X-5803719Y-10360535D01*
X-5794195Y-10322440D01*
X-5794195Y-10246249D01*
X-5803719Y-10227201D01*
X-5813243Y-10217678D01*
X-5832291Y-10208154D01*
X-5870386Y-10208154D01*
X-5889433Y-10217678D01*
X-5898957Y-10227201D01*
X-5908481Y-10246249D01*
X-5908481Y-10293868D01*
X-5898957Y-10312916D01*
X-5889433Y-10322440D01*
X-5870386Y-10331963D01*
X-5832291Y-10331963D01*
X-5813243Y-10322440D01*
X-5803719Y-10312916D01*
X-5794195Y-10293868D01*
X-5679910Y-10293868D02*
X-5698957Y-10284344D01*
X-5708481Y-10274820D01*
X-5718005Y-10255773D01*
X-5718005Y-10246249D01*
X-5708481Y-10227201D01*
X-5698957Y-10217678D01*
X-5679910Y-10208154D01*
X-5641814Y-10208154D01*
X-5622767Y-10217678D01*
X-5613243Y-10227201D01*
X-5603719Y-10246249D01*
X-5603719Y-10255773D01*
X-5613243Y-10274820D01*
X-5622767Y-10284344D01*
X-5641814Y-10293868D01*
X-5679910Y-10293868D01*
X-5698957Y-10303392D01*
X-5708481Y-10312916D01*
X-5718005Y-10331963D01*
X-5718005Y-10370059D01*
X-5708481Y-10389106D01*
X-5698957Y-10398630D01*
X-5679910Y-10408154D01*
X-5641814Y-10408154D01*
X-5622767Y-10398630D01*
X-5613243Y-10389106D01*
X-5603719Y-10370059D01*
X-5603719Y-10331963D01*
X-5613243Y-10312916D01*
X-5622767Y-10303392D01*
X-5641814Y-10293868D01*
X-5527529Y-10208154D02*
X-5527529Y-10246249D01*
X-5451338Y-10208154D02*
X-5451338Y-10246249D01*
X-5156100Y-10484344D02*
X-5165624Y-10474820D01*
X-5184672Y-10446249D01*
X-5194195Y-10427201D01*
X-5203719Y-10398630D01*
X-5213243Y-10351011D01*
X-5213243Y-10312916D01*
X-5203719Y-10265297D01*
X-5194195Y-10236725D01*
X-5184672Y-10217678D01*
X-5165624Y-10189106D01*
X-5156100Y-10179582D01*
X-5089434Y-10227201D02*
X-5079910Y-10217678D01*
X-5060862Y-10208154D01*
X-5013243Y-10208154D01*
X-4994195Y-10217678D01*
X-4984672Y-10227201D01*
X-4975148Y-10246249D01*
X-4975148Y-10265297D01*
X-4984672Y-10293868D01*
X-5098957Y-10408154D01*
X-4975148Y-10408154D01*
X-4737053Y-10408154D02*
X-4737053Y-10208154D01*
X-4651338Y-10408154D02*
X-4651338Y-10303392D01*
X-4660862Y-10284344D01*
X-4679910Y-10274820D01*
X-4708481Y-10274820D01*
X-4727529Y-10284344D01*
X-4737053Y-10293868D01*
X-4527529Y-10408154D02*
X-4546576Y-10398630D01*
X-4556100Y-10389106D01*
X-4565624Y-10370059D01*
X-4565624Y-10312916D01*
X-4556100Y-10293868D01*
X-4546576Y-10284344D01*
X-4527529Y-10274820D01*
X-4498957Y-10274820D01*
X-4479910Y-10284344D01*
X-4470386Y-10293868D01*
X-4460862Y-10312916D01*
X-4460862Y-10370059D01*
X-4470386Y-10389106D01*
X-4479910Y-10398630D01*
X-4498957Y-10408154D01*
X-4527529Y-10408154D01*
X-4346576Y-10408154D02*
X-4365624Y-10398630D01*
X-4375148Y-10379582D01*
X-4375148Y-10208154D01*
X-4194195Y-10398630D02*
X-4213243Y-10408154D01*
X-4251338Y-10408154D01*
X-4270386Y-10398630D01*
X-4279910Y-10379582D01*
X-4279910Y-10303392D01*
X-4270386Y-10284344D01*
X-4251338Y-10274820D01*
X-4213243Y-10274820D01*
X-4194195Y-10284344D01*
X-4184672Y-10303392D01*
X-4184672Y-10322440D01*
X-4279910Y-10341487D01*
X-4108481Y-10398630D02*
X-4089433Y-10408154D01*
X-4051338Y-10408154D01*
X-4032291Y-10398630D01*
X-4022767Y-10379582D01*
X-4022767Y-10370059D01*
X-4032291Y-10351011D01*
X-4051338Y-10341487D01*
X-4079910Y-10341487D01*
X-4098957Y-10331963D01*
X-4108481Y-10312916D01*
X-4108481Y-10303392D01*
X-4098957Y-10284344D01*
X-4079910Y-10274820D01*
X-4051338Y-10274820D01*
X-4032291Y-10284344D01*
X-3956100Y-10484344D02*
X-3946576Y-10474820D01*
X-3927529Y-10446249D01*
X-3918005Y-10427201D01*
X-3908481Y-10398630D01*
X-3898957Y-10351011D01*
X-3898957Y-10312916D01*
X-3908481Y-10265297D01*
X-3918005Y-10236725D01*
X-3927529Y-10217678D01*
X-3946576Y-10189106D01*
X-3956100Y-10179582D01*
D17*
X-8838005Y-10526678D02*
X-8728005Y-10636678D01*
X-8728005Y-10526678D02*
X-8838005Y-10636678D01*
X-8728005Y-10581678D02*
G75*
G03*
X-8728005Y-10581678I-55000J0D01*
G01*
D11*
X-8365624Y-10672154D02*
X-8479910Y-10672154D01*
X-8422767Y-10672154D02*
X-8422767Y-10472154D01*
X-8441815Y-10500725D01*
X-8460862Y-10519773D01*
X-8479910Y-10529297D01*
X-8279910Y-10653106D02*
X-8270386Y-10662630D01*
X-8279910Y-10672154D01*
X-8289433Y-10662630D01*
X-8279910Y-10653106D01*
X-8279910Y-10672154D01*
X-8079910Y-10672154D02*
X-8194195Y-10672154D01*
X-8137053Y-10672154D02*
X-8137053Y-10472154D01*
X-8156100Y-10500725D01*
X-8175148Y-10519773D01*
X-8194195Y-10529297D01*
X-7956100Y-10472154D02*
X-7937053Y-10472154D01*
X-7918005Y-10481678D01*
X-7908481Y-10491201D01*
X-7898957Y-10510249D01*
X-7889433Y-10548344D01*
X-7889433Y-10595963D01*
X-7898957Y-10634059D01*
X-7908481Y-10653106D01*
X-7918005Y-10662630D01*
X-7937053Y-10672154D01*
X-7956100Y-10672154D01*
X-7975148Y-10662630D01*
X-7984672Y-10653106D01*
X-7994195Y-10634059D01*
X-8003719Y-10595963D01*
X-8003719Y-10548344D01*
X-7994195Y-10510249D01*
X-7984672Y-10491201D01*
X-7975148Y-10481678D01*
X-7956100Y-10472154D01*
X-7765624Y-10472154D02*
X-7746576Y-10472154D01*
X-7727529Y-10481678D01*
X-7718005Y-10491201D01*
X-7708481Y-10510249D01*
X-7698957Y-10548344D01*
X-7698957Y-10595963D01*
X-7708481Y-10634059D01*
X-7718005Y-10653106D01*
X-7727529Y-10662630D01*
X-7746576Y-10672154D01*
X-7765624Y-10672154D01*
X-7784672Y-10662630D01*
X-7794195Y-10653106D01*
X-7803719Y-10634059D01*
X-7813243Y-10595963D01*
X-7813243Y-10548344D01*
X-7803719Y-10510249D01*
X-7794195Y-10491201D01*
X-7784672Y-10481678D01*
X-7765624Y-10472154D01*
X-7613243Y-10672154D02*
X-7613243Y-10538820D01*
X-7613243Y-10557868D02*
X-7603719Y-10548344D01*
X-7584672Y-10538820D01*
X-7556100Y-10538820D01*
X-7537053Y-10548344D01*
X-7527529Y-10567392D01*
X-7527529Y-10672154D01*
X-7527529Y-10567392D02*
X-7518005Y-10548344D01*
X-7498957Y-10538820D01*
X-7470386Y-10538820D01*
X-7451338Y-10548344D01*
X-7441814Y-10567392D01*
X-7441814Y-10672154D01*
X-7346576Y-10672154D02*
X-7346576Y-10538820D01*
X-7346576Y-10557868D02*
X-7337053Y-10548344D01*
X-7318005Y-10538820D01*
X-7289433Y-10538820D01*
X-7270386Y-10548344D01*
X-7260862Y-10567392D01*
X-7260862Y-10672154D01*
X-7260862Y-10567392D02*
X-7251338Y-10548344D01*
X-7232291Y-10538820D01*
X-7203719Y-10538820D01*
X-7184672Y-10548344D01*
X-7175148Y-10567392D01*
X-7175148Y-10672154D01*
X-6784672Y-10462630D02*
X-6956100Y-10719773D01*
X-6527529Y-10472154D02*
X-6508481Y-10472154D01*
X-6489433Y-10481678D01*
X-6479910Y-10491201D01*
X-6470386Y-10510249D01*
X-6460862Y-10548344D01*
X-6460862Y-10595963D01*
X-6470386Y-10634059D01*
X-6479910Y-10653106D01*
X-6489433Y-10662630D01*
X-6508481Y-10672154D01*
X-6527529Y-10672154D01*
X-6546576Y-10662630D01*
X-6556100Y-10653106D01*
X-6565624Y-10634059D01*
X-6575148Y-10595963D01*
X-6575148Y-10548344D01*
X-6565624Y-10510249D01*
X-6556100Y-10491201D01*
X-6546576Y-10481678D01*
X-6527529Y-10472154D01*
X-6375148Y-10653106D02*
X-6365624Y-10662630D01*
X-6375148Y-10672154D01*
X-6384672Y-10662630D01*
X-6375148Y-10653106D01*
X-6375148Y-10672154D01*
X-6241814Y-10472154D02*
X-6222767Y-10472154D01*
X-6203719Y-10481678D01*
X-6194195Y-10491201D01*
X-6184672Y-10510249D01*
X-6175148Y-10548344D01*
X-6175148Y-10595963D01*
X-6184672Y-10634059D01*
X-6194195Y-10653106D01*
X-6203719Y-10662630D01*
X-6222767Y-10672154D01*
X-6241814Y-10672154D01*
X-6260862Y-10662630D01*
X-6270386Y-10653106D01*
X-6279910Y-10634059D01*
X-6289433Y-10595963D01*
X-6289433Y-10548344D01*
X-6279910Y-10510249D01*
X-6270386Y-10491201D01*
X-6260862Y-10481678D01*
X-6241814Y-10472154D01*
X-6003719Y-10538820D02*
X-6003719Y-10672154D01*
X-6051338Y-10462630D02*
X-6098957Y-10605487D01*
X-5975148Y-10605487D01*
X-5918005Y-10472154D02*
X-5794195Y-10472154D01*
X-5860862Y-10548344D01*
X-5832291Y-10548344D01*
X-5813243Y-10557868D01*
X-5803719Y-10567392D01*
X-5794195Y-10586440D01*
X-5794195Y-10634059D01*
X-5803719Y-10653106D01*
X-5813243Y-10662630D01*
X-5832291Y-10672154D01*
X-5889433Y-10672154D01*
X-5908481Y-10662630D01*
X-5918005Y-10653106D01*
X-5727529Y-10472154D02*
X-5603719Y-10472154D01*
X-5670386Y-10548344D01*
X-5641814Y-10548344D01*
X-5622767Y-10557868D01*
X-5613243Y-10567392D01*
X-5603719Y-10586440D01*
X-5603719Y-10634059D01*
X-5613243Y-10653106D01*
X-5622767Y-10662630D01*
X-5641814Y-10672154D01*
X-5698957Y-10672154D01*
X-5718005Y-10662630D01*
X-5727529Y-10653106D01*
X-5527529Y-10472154D02*
X-5527529Y-10510249D01*
X-5451338Y-10472154D02*
X-5451338Y-10510249D01*
X-5156100Y-10748344D02*
X-5165624Y-10738820D01*
X-5184672Y-10710249D01*
X-5194195Y-10691201D01*
X-5203719Y-10662630D01*
X-5213243Y-10615011D01*
X-5213243Y-10576916D01*
X-5203719Y-10529297D01*
X-5194195Y-10500725D01*
X-5184672Y-10481678D01*
X-5165624Y-10453106D01*
X-5156100Y-10443582D01*
X-4975148Y-10672154D02*
X-5089434Y-10672154D01*
X-5032291Y-10672154D02*
X-5032291Y-10472154D01*
X-5051338Y-10500725D01*
X-5070386Y-10519773D01*
X-5089434Y-10529297D01*
X-4898957Y-10491201D02*
X-4889434Y-10481678D01*
X-4870386Y-10472154D01*
X-4822767Y-10472154D01*
X-4803719Y-10481678D01*
X-4794195Y-10491201D01*
X-4784672Y-10510249D01*
X-4784672Y-10529297D01*
X-4794195Y-10557868D01*
X-4908481Y-10672154D01*
X-4784672Y-10672154D01*
X-4546576Y-10672154D02*
X-4546576Y-10472154D01*
X-4460862Y-10672154D02*
X-4460862Y-10567392D01*
X-4470386Y-10548344D01*
X-4489434Y-10538820D01*
X-4518005Y-10538820D01*
X-4537053Y-10548344D01*
X-4546576Y-10557868D01*
X-4337053Y-10672154D02*
X-4356100Y-10662630D01*
X-4365624Y-10653106D01*
X-4375148Y-10634059D01*
X-4375148Y-10576916D01*
X-4365624Y-10557868D01*
X-4356100Y-10548344D01*
X-4337053Y-10538820D01*
X-4308481Y-10538820D01*
X-4289434Y-10548344D01*
X-4279910Y-10557868D01*
X-4270386Y-10576916D01*
X-4270386Y-10634059D01*
X-4279910Y-10653106D01*
X-4289434Y-10662630D01*
X-4308481Y-10672154D01*
X-4337053Y-10672154D01*
X-4156100Y-10672154D02*
X-4175148Y-10662630D01*
X-4184672Y-10643582D01*
X-4184672Y-10472154D01*
X-4003719Y-10662630D02*
X-4022767Y-10672154D01*
X-4060862Y-10672154D01*
X-4079910Y-10662630D01*
X-4089433Y-10643582D01*
X-4089433Y-10567392D01*
X-4079910Y-10548344D01*
X-4060862Y-10538820D01*
X-4022767Y-10538820D01*
X-4003719Y-10548344D01*
X-3994195Y-10567392D01*
X-3994195Y-10586440D01*
X-4089433Y-10605487D01*
X-3918005Y-10662630D02*
X-3898957Y-10672154D01*
X-3860862Y-10672154D01*
X-3841814Y-10662630D01*
X-3832291Y-10643582D01*
X-3832291Y-10634059D01*
X-3841814Y-10615011D01*
X-3860862Y-10605487D01*
X-3889433Y-10605487D01*
X-3908481Y-10595963D01*
X-3918005Y-10576916D01*
X-3918005Y-10567392D01*
X-3908481Y-10548344D01*
X-3889433Y-10538820D01*
X-3860862Y-10538820D01*
X-3841814Y-10548344D01*
X-3765624Y-10748344D02*
X-3756100Y-10738820D01*
X-3737053Y-10710249D01*
X-3727529Y-10691201D01*
X-3718005Y-10662630D01*
X-3708481Y-10615011D01*
X-3708481Y-10576916D01*
X-3718005Y-10529297D01*
X-3727529Y-10500725D01*
X-3737053Y-10481678D01*
X-3756100Y-10453106D01*
X-3765624Y-10443582D01*
D18*
X-8877865Y-10770748D02*
X-8728005Y-10920608D01*
X-8728005Y-10770748D02*
X-8877865Y-10920608D01*
X-8802935Y-10770748D02*
X-8802935Y-10920608D01*
X-8877865Y-10845678D02*
X-8728005Y-10845678D01*
D11*
X-8365624Y-10936154D02*
X-8479910Y-10936154D01*
X-8422767Y-10936154D02*
X-8422767Y-10736154D01*
X-8441815Y-10764725D01*
X-8460862Y-10783773D01*
X-8479910Y-10793297D01*
X-8279910Y-10917106D02*
X-8270386Y-10926630D01*
X-8279910Y-10936154D01*
X-8289433Y-10926630D01*
X-8279910Y-10917106D01*
X-8279910Y-10936154D01*
X-8098957Y-10802820D02*
X-8098957Y-10936154D01*
X-8146576Y-10726630D02*
X-8194195Y-10869487D01*
X-8070386Y-10869487D01*
X-7984672Y-10936154D02*
X-7946576Y-10936154D01*
X-7927529Y-10926630D01*
X-7918005Y-10917106D01*
X-7898957Y-10888535D01*
X-7889433Y-10850440D01*
X-7889433Y-10774249D01*
X-7898957Y-10755201D01*
X-7908481Y-10745678D01*
X-7927529Y-10736154D01*
X-7965624Y-10736154D01*
X-7984672Y-10745678D01*
X-7994195Y-10755201D01*
X-8003719Y-10774249D01*
X-8003719Y-10821868D01*
X-7994195Y-10840916D01*
X-7984672Y-10850440D01*
X-7965624Y-10859963D01*
X-7927529Y-10859963D01*
X-7908481Y-10850440D01*
X-7898957Y-10840916D01*
X-7889433Y-10821868D01*
X-7794195Y-10936154D02*
X-7756100Y-10936154D01*
X-7737053Y-10926630D01*
X-7727529Y-10917106D01*
X-7708481Y-10888535D01*
X-7698957Y-10850440D01*
X-7698957Y-10774249D01*
X-7708481Y-10755201D01*
X-7718005Y-10745678D01*
X-7737053Y-10736154D01*
X-7775148Y-10736154D01*
X-7794195Y-10745678D01*
X-7803719Y-10755201D01*
X-7813243Y-10774249D01*
X-7813243Y-10821868D01*
X-7803719Y-10840916D01*
X-7794195Y-10850440D01*
X-7775148Y-10859963D01*
X-7737053Y-10859963D01*
X-7718005Y-10850440D01*
X-7708481Y-10840916D01*
X-7698957Y-10821868D01*
X-7613243Y-10936154D02*
X-7613243Y-10802820D01*
X-7613243Y-10821868D02*
X-7603719Y-10812344D01*
X-7584672Y-10802820D01*
X-7556100Y-10802820D01*
X-7537053Y-10812344D01*
X-7527529Y-10831392D01*
X-7527529Y-10936154D01*
X-7527529Y-10831392D02*
X-7518005Y-10812344D01*
X-7498957Y-10802820D01*
X-7470386Y-10802820D01*
X-7451338Y-10812344D01*
X-7441814Y-10831392D01*
X-7441814Y-10936154D01*
X-7346576Y-10936154D02*
X-7346576Y-10802820D01*
X-7346576Y-10821868D02*
X-7337053Y-10812344D01*
X-7318005Y-10802820D01*
X-7289433Y-10802820D01*
X-7270386Y-10812344D01*
X-7260862Y-10831392D01*
X-7260862Y-10936154D01*
X-7260862Y-10831392D02*
X-7251338Y-10812344D01*
X-7232291Y-10802820D01*
X-7203719Y-10802820D01*
X-7184672Y-10812344D01*
X-7175148Y-10831392D01*
X-7175148Y-10936154D01*
X-6784672Y-10726630D02*
X-6956100Y-10983773D01*
X-6527529Y-10736154D02*
X-6508481Y-10736154D01*
X-6489433Y-10745678D01*
X-6479910Y-10755201D01*
X-6470386Y-10774249D01*
X-6460862Y-10812344D01*
X-6460862Y-10859963D01*
X-6470386Y-10898059D01*
X-6479910Y-10917106D01*
X-6489433Y-10926630D01*
X-6508481Y-10936154D01*
X-6527529Y-10936154D01*
X-6546576Y-10926630D01*
X-6556100Y-10917106D01*
X-6565624Y-10898059D01*
X-6575148Y-10859963D01*
X-6575148Y-10812344D01*
X-6565624Y-10774249D01*
X-6556100Y-10755201D01*
X-6546576Y-10745678D01*
X-6527529Y-10736154D01*
X-6375148Y-10917106D02*
X-6365624Y-10926630D01*
X-6375148Y-10936154D01*
X-6384672Y-10926630D01*
X-6375148Y-10917106D01*
X-6375148Y-10936154D01*
X-6241814Y-10736154D02*
X-6222767Y-10736154D01*
X-6203719Y-10745678D01*
X-6194195Y-10755201D01*
X-6184672Y-10774249D01*
X-6175148Y-10812344D01*
X-6175148Y-10859963D01*
X-6184672Y-10898059D01*
X-6194195Y-10917106D01*
X-6203719Y-10926630D01*
X-6222767Y-10936154D01*
X-6241814Y-10936154D01*
X-6260862Y-10926630D01*
X-6270386Y-10917106D01*
X-6279910Y-10898059D01*
X-6289433Y-10859963D01*
X-6289433Y-10812344D01*
X-6279910Y-10774249D01*
X-6270386Y-10755201D01*
X-6260862Y-10745678D01*
X-6241814Y-10736154D01*
X-5994195Y-10736154D02*
X-6089433Y-10736154D01*
X-6098957Y-10831392D01*
X-6089433Y-10821868D01*
X-6070386Y-10812344D01*
X-6022767Y-10812344D01*
X-6003719Y-10821868D01*
X-5994195Y-10831392D01*
X-5984672Y-10850440D01*
X-5984672Y-10898059D01*
X-5994195Y-10917106D01*
X-6003719Y-10926630D01*
X-6022767Y-10936154D01*
X-6070386Y-10936154D01*
X-6089433Y-10926630D01*
X-6098957Y-10917106D01*
X-5889433Y-10936154D02*
X-5851338Y-10936154D01*
X-5832291Y-10926630D01*
X-5822767Y-10917106D01*
X-5803719Y-10888535D01*
X-5794195Y-10850440D01*
X-5794195Y-10774249D01*
X-5803719Y-10755201D01*
X-5813243Y-10745678D01*
X-5832291Y-10736154D01*
X-5870386Y-10736154D01*
X-5889433Y-10745678D01*
X-5898957Y-10755201D01*
X-5908481Y-10774249D01*
X-5908481Y-10821868D01*
X-5898957Y-10840916D01*
X-5889433Y-10850440D01*
X-5870386Y-10859963D01*
X-5832291Y-10859963D01*
X-5813243Y-10850440D01*
X-5803719Y-10840916D01*
X-5794195Y-10821868D01*
X-5670386Y-10736154D02*
X-5651338Y-10736154D01*
X-5632291Y-10745678D01*
X-5622767Y-10755201D01*
X-5613243Y-10774249D01*
X-5603719Y-10812344D01*
X-5603719Y-10859963D01*
X-5613243Y-10898059D01*
X-5622767Y-10917106D01*
X-5632291Y-10926630D01*
X-5651338Y-10936154D01*
X-5670386Y-10936154D01*
X-5689433Y-10926630D01*
X-5698957Y-10917106D01*
X-5708481Y-10898059D01*
X-5718005Y-10859963D01*
X-5718005Y-10812344D01*
X-5708481Y-10774249D01*
X-5698957Y-10755201D01*
X-5689433Y-10745678D01*
X-5670386Y-10736154D01*
X-5527529Y-10736154D02*
X-5527529Y-10774249D01*
X-5451338Y-10736154D02*
X-5451338Y-10774249D01*
X-5156100Y-11012344D02*
X-5165624Y-11002820D01*
X-5184672Y-10974249D01*
X-5194195Y-10955201D01*
X-5203719Y-10926630D01*
X-5213243Y-10879011D01*
X-5213243Y-10840916D01*
X-5203719Y-10793297D01*
X-5194195Y-10764725D01*
X-5184672Y-10745678D01*
X-5165624Y-10717106D01*
X-5156100Y-10707582D01*
X-4984672Y-10736154D02*
X-5079910Y-10736154D01*
X-5089434Y-10831392D01*
X-5079910Y-10821868D01*
X-5060862Y-10812344D01*
X-5013243Y-10812344D01*
X-4994195Y-10821868D01*
X-4984672Y-10831392D01*
X-4975148Y-10850440D01*
X-4975148Y-10898059D01*
X-4984672Y-10917106D01*
X-4994195Y-10926630D01*
X-5013243Y-10936154D01*
X-5060862Y-10936154D01*
X-5079910Y-10926630D01*
X-5089434Y-10917106D01*
X-4803719Y-10802820D02*
X-4803719Y-10936154D01*
X-4851338Y-10726630D02*
X-4898957Y-10869487D01*
X-4775148Y-10869487D01*
X-4546576Y-10936154D02*
X-4546576Y-10736154D01*
X-4460862Y-10936154D02*
X-4460862Y-10831392D01*
X-4470386Y-10812344D01*
X-4489434Y-10802820D01*
X-4518005Y-10802820D01*
X-4537053Y-10812344D01*
X-4546576Y-10821868D01*
X-4337053Y-10936154D02*
X-4356100Y-10926630D01*
X-4365624Y-10917106D01*
X-4375148Y-10898059D01*
X-4375148Y-10840916D01*
X-4365624Y-10821868D01*
X-4356100Y-10812344D01*
X-4337053Y-10802820D01*
X-4308481Y-10802820D01*
X-4289434Y-10812344D01*
X-4279910Y-10821868D01*
X-4270386Y-10840916D01*
X-4270386Y-10898059D01*
X-4279910Y-10917106D01*
X-4289434Y-10926630D01*
X-4308481Y-10936154D01*
X-4337053Y-10936154D01*
X-4156100Y-10936154D02*
X-4175148Y-10926630D01*
X-4184672Y-10907582D01*
X-4184672Y-10736154D01*
X-4003719Y-10926630D02*
X-4022767Y-10936154D01*
X-4060862Y-10936154D01*
X-4079910Y-10926630D01*
X-4089433Y-10907582D01*
X-4089433Y-10831392D01*
X-4079910Y-10812344D01*
X-4060862Y-10802820D01*
X-4022767Y-10802820D01*
X-4003719Y-10812344D01*
X-3994195Y-10831392D01*
X-3994195Y-10850440D01*
X-4089433Y-10869487D01*
X-3918005Y-10926630D02*
X-3898957Y-10936154D01*
X-3860862Y-10936154D01*
X-3841814Y-10926630D01*
X-3832291Y-10907582D01*
X-3832291Y-10898059D01*
X-3841814Y-10879011D01*
X-3860862Y-10869487D01*
X-3889433Y-10869487D01*
X-3908481Y-10859963D01*
X-3918005Y-10840916D01*
X-3918005Y-10831392D01*
X-3908481Y-10812344D01*
X-3889433Y-10802820D01*
X-3860862Y-10802820D01*
X-3841814Y-10812344D01*
X-3765624Y-11012344D02*
X-3756100Y-11002820D01*
X-3737053Y-10974249D01*
X-3727529Y-10955201D01*
X-3718005Y-10926630D01*
X-3708481Y-10879011D01*
X-3708481Y-10840916D01*
X-3718005Y-10793297D01*
X-3727529Y-10764725D01*
X-3737053Y-10745678D01*
X-3756100Y-10717106D01*
X-3765624Y-10707582D01*
X-8928005Y-11015538D02*
X-8728005Y-11215538D01*
X-8728005Y-11015538D02*
X-8928005Y-11215538D01*
X-8757294Y-11186249D02*
X-8757294Y-11044826D01*
X-8898716Y-11044826D01*
X-8898716Y-11186249D01*
X-8757294Y-11186249D01*
X-8479910Y-11025061D02*
X-8470386Y-11015538D01*
X-8451338Y-11006014D01*
X-8403719Y-11006014D01*
X-8384672Y-11015538D01*
X-8375148Y-11025061D01*
X-8365624Y-11044109D01*
X-8365624Y-11063157D01*
X-8375148Y-11091728D01*
X-8489434Y-11206014D01*
X-8365624Y-11206014D01*
X-8279910Y-11186966D02*
X-8270386Y-11196490D01*
X-8279910Y-11206014D01*
X-8289433Y-11196490D01*
X-8279910Y-11186966D01*
X-8279910Y-11206014D01*
X-8194195Y-11025061D02*
X-8184672Y-11015538D01*
X-8165624Y-11006014D01*
X-8118005Y-11006014D01*
X-8098957Y-11015538D01*
X-8089433Y-11025061D01*
X-8079910Y-11044109D01*
X-8079910Y-11063157D01*
X-8089433Y-11091728D01*
X-8203719Y-11206014D01*
X-8079910Y-11206014D01*
X-7956100Y-11006014D02*
X-7937053Y-11006014D01*
X-7918005Y-11015538D01*
X-7908481Y-11025061D01*
X-7898957Y-11044109D01*
X-7889433Y-11082204D01*
X-7889433Y-11129823D01*
X-7898957Y-11167919D01*
X-7908481Y-11186966D01*
X-7918005Y-11196490D01*
X-7937053Y-11206014D01*
X-7956100Y-11206014D01*
X-7975148Y-11196490D01*
X-7984672Y-11186966D01*
X-7994195Y-11167919D01*
X-8003719Y-11129823D01*
X-8003719Y-11082204D01*
X-7994195Y-11044109D01*
X-7984672Y-11025061D01*
X-7975148Y-11015538D01*
X-7956100Y-11006014D01*
X-7765624Y-11006014D02*
X-7746576Y-11006014D01*
X-7727529Y-11015538D01*
X-7718005Y-11025061D01*
X-7708481Y-11044109D01*
X-7698957Y-11082204D01*
X-7698957Y-11129823D01*
X-7708481Y-11167919D01*
X-7718005Y-11186966D01*
X-7727529Y-11196490D01*
X-7746576Y-11206014D01*
X-7765624Y-11206014D01*
X-7784672Y-11196490D01*
X-7794195Y-11186966D01*
X-7803719Y-11167919D01*
X-7813243Y-11129823D01*
X-7813243Y-11082204D01*
X-7803719Y-11044109D01*
X-7794195Y-11025061D01*
X-7784672Y-11015538D01*
X-7765624Y-11006014D01*
X-7613243Y-11206014D02*
X-7613243Y-11072680D01*
X-7613243Y-11091728D02*
X-7603719Y-11082204D01*
X-7584672Y-11072680D01*
X-7556100Y-11072680D01*
X-7537053Y-11082204D01*
X-7527529Y-11101252D01*
X-7527529Y-11206014D01*
X-7527529Y-11101252D02*
X-7518005Y-11082204D01*
X-7498957Y-11072680D01*
X-7470386Y-11072680D01*
X-7451338Y-11082204D01*
X-7441814Y-11101252D01*
X-7441814Y-11206014D01*
X-7346576Y-11206014D02*
X-7346576Y-11072680D01*
X-7346576Y-11091728D02*
X-7337053Y-11082204D01*
X-7318005Y-11072680D01*
X-7289433Y-11072680D01*
X-7270386Y-11082204D01*
X-7260862Y-11101252D01*
X-7260862Y-11206014D01*
X-7260862Y-11101252D02*
X-7251338Y-11082204D01*
X-7232291Y-11072680D01*
X-7203719Y-11072680D01*
X-7184672Y-11082204D01*
X-7175148Y-11101252D01*
X-7175148Y-11206014D01*
X-6784672Y-10996490D02*
X-6956100Y-11253633D01*
X-6527529Y-11006014D02*
X-6508481Y-11006014D01*
X-6489433Y-11015538D01*
X-6479910Y-11025061D01*
X-6470386Y-11044109D01*
X-6460862Y-11082204D01*
X-6460862Y-11129823D01*
X-6470386Y-11167919D01*
X-6479910Y-11186966D01*
X-6489433Y-11196490D01*
X-6508481Y-11206014D01*
X-6527529Y-11206014D01*
X-6546576Y-11196490D01*
X-6556100Y-11186966D01*
X-6565624Y-11167919D01*
X-6575148Y-11129823D01*
X-6575148Y-11082204D01*
X-6565624Y-11044109D01*
X-6556100Y-11025061D01*
X-6546576Y-11015538D01*
X-6527529Y-11006014D01*
X-6375148Y-11186966D02*
X-6365624Y-11196490D01*
X-6375148Y-11206014D01*
X-6384672Y-11196490D01*
X-6375148Y-11186966D01*
X-6375148Y-11206014D01*
X-6241814Y-11006014D02*
X-6222767Y-11006014D01*
X-6203719Y-11015538D01*
X-6194195Y-11025061D01*
X-6184672Y-11044109D01*
X-6175148Y-11082204D01*
X-6175148Y-11129823D01*
X-6184672Y-11167919D01*
X-6194195Y-11186966D01*
X-6203719Y-11196490D01*
X-6222767Y-11206014D01*
X-6241814Y-11206014D01*
X-6260862Y-11196490D01*
X-6270386Y-11186966D01*
X-6279910Y-11167919D01*
X-6289433Y-11129823D01*
X-6289433Y-11082204D01*
X-6279910Y-11044109D01*
X-6270386Y-11025061D01*
X-6260862Y-11015538D01*
X-6241814Y-11006014D01*
X-6060862Y-11091728D02*
X-6079910Y-11082204D01*
X-6089433Y-11072680D01*
X-6098957Y-11053633D01*
X-6098957Y-11044109D01*
X-6089433Y-11025061D01*
X-6079910Y-11015538D01*
X-6060862Y-11006014D01*
X-6022767Y-11006014D01*
X-6003719Y-11015538D01*
X-5994195Y-11025061D01*
X-5984672Y-11044109D01*
X-5984672Y-11053633D01*
X-5994195Y-11072680D01*
X-6003719Y-11082204D01*
X-6022767Y-11091728D01*
X-6060862Y-11091728D01*
X-6079910Y-11101252D01*
X-6089433Y-11110776D01*
X-6098957Y-11129823D01*
X-6098957Y-11167919D01*
X-6089433Y-11186966D01*
X-6079910Y-11196490D01*
X-6060862Y-11206014D01*
X-6022767Y-11206014D01*
X-6003719Y-11196490D01*
X-5994195Y-11186966D01*
X-5984672Y-11167919D01*
X-5984672Y-11129823D01*
X-5994195Y-11110776D01*
X-6003719Y-11101252D01*
X-6022767Y-11091728D01*
X-5813243Y-11006014D02*
X-5851338Y-11006014D01*
X-5870386Y-11015538D01*
X-5879910Y-11025061D01*
X-5898957Y-11053633D01*
X-5908481Y-11091728D01*
X-5908481Y-11167919D01*
X-5898957Y-11186966D01*
X-5889433Y-11196490D01*
X-5870386Y-11206014D01*
X-5832291Y-11206014D01*
X-5813243Y-11196490D01*
X-5803719Y-11186966D01*
X-5794195Y-11167919D01*
X-5794195Y-11120300D01*
X-5803719Y-11101252D01*
X-5813243Y-11091728D01*
X-5832291Y-11082204D01*
X-5870386Y-11082204D01*
X-5889433Y-11091728D01*
X-5898957Y-11101252D01*
X-5908481Y-11120300D01*
X-5622767Y-11006014D02*
X-5660862Y-11006014D01*
X-5679910Y-11015538D01*
X-5689433Y-11025061D01*
X-5708481Y-11053633D01*
X-5718005Y-11091728D01*
X-5718005Y-11167919D01*
X-5708481Y-11186966D01*
X-5698957Y-11196490D01*
X-5679910Y-11206014D01*
X-5641814Y-11206014D01*
X-5622767Y-11196490D01*
X-5613243Y-11186966D01*
X-5603719Y-11167919D01*
X-5603719Y-11120300D01*
X-5613243Y-11101252D01*
X-5622767Y-11091728D01*
X-5641814Y-11082204D01*
X-5679910Y-11082204D01*
X-5698957Y-11091728D01*
X-5708481Y-11101252D01*
X-5718005Y-11120300D01*
X-5527529Y-11006014D02*
X-5527529Y-11044109D01*
X-5451338Y-11006014D02*
X-5451338Y-11044109D01*
X-5156100Y-11282204D02*
X-5165624Y-11272680D01*
X-5184672Y-11244109D01*
X-5194195Y-11225061D01*
X-5203719Y-11196490D01*
X-5213243Y-11148871D01*
X-5213243Y-11110776D01*
X-5203719Y-11063157D01*
X-5194195Y-11034585D01*
X-5184672Y-11015538D01*
X-5165624Y-10986966D01*
X-5156100Y-10977442D01*
X-4994195Y-11006014D02*
X-5032291Y-11006014D01*
X-5051338Y-11015538D01*
X-5060862Y-11025061D01*
X-5079910Y-11053633D01*
X-5089434Y-11091728D01*
X-5089434Y-11167919D01*
X-5079910Y-11186966D01*
X-5070386Y-11196490D01*
X-5051338Y-11206014D01*
X-5013243Y-11206014D01*
X-4994195Y-11196490D01*
X-4984672Y-11186966D01*
X-4975148Y-11167919D01*
X-4975148Y-11120300D01*
X-4984672Y-11101252D01*
X-4994195Y-11091728D01*
X-5013243Y-11082204D01*
X-5051338Y-11082204D01*
X-5070386Y-11091728D01*
X-5079910Y-11101252D01*
X-5089434Y-11120300D01*
X-4737053Y-11206014D02*
X-4737053Y-11006014D01*
X-4651338Y-11206014D02*
X-4651338Y-11101252D01*
X-4660862Y-11082204D01*
X-4679910Y-11072680D01*
X-4708481Y-11072680D01*
X-4727529Y-11082204D01*
X-4737053Y-11091728D01*
X-4527529Y-11206014D02*
X-4546576Y-11196490D01*
X-4556100Y-11186966D01*
X-4565624Y-11167919D01*
X-4565624Y-11110776D01*
X-4556100Y-11091728D01*
X-4546576Y-11082204D01*
X-4527529Y-11072680D01*
X-4498957Y-11072680D01*
X-4479910Y-11082204D01*
X-4470386Y-11091728D01*
X-4460862Y-11110776D01*
X-4460862Y-11167919D01*
X-4470386Y-11186966D01*
X-4479910Y-11196490D01*
X-4498957Y-11206014D01*
X-4527529Y-11206014D01*
X-4346576Y-11206014D02*
X-4365624Y-11196490D01*
X-4375148Y-11177442D01*
X-4375148Y-11006014D01*
X-4194195Y-11196490D02*
X-4213243Y-11206014D01*
X-4251338Y-11206014D01*
X-4270386Y-11196490D01*
X-4279910Y-11177442D01*
X-4279910Y-11101252D01*
X-4270386Y-11082204D01*
X-4251338Y-11072680D01*
X-4213243Y-11072680D01*
X-4194195Y-11082204D01*
X-4184672Y-11101252D01*
X-4184672Y-11120300D01*
X-4279910Y-11139347D01*
X-4108481Y-11196490D02*
X-4089433Y-11206014D01*
X-4051338Y-11206014D01*
X-4032291Y-11196490D01*
X-4022767Y-11177442D01*
X-4022767Y-11167919D01*
X-4032291Y-11148871D01*
X-4051338Y-11139347D01*
X-4079910Y-11139347D01*
X-4098957Y-11129823D01*
X-4108481Y-11110776D01*
X-4108481Y-11101252D01*
X-4098957Y-11082204D01*
X-4079910Y-11072680D01*
X-4051338Y-11072680D01*
X-4032291Y-11082204D01*
X-3956100Y-11282204D02*
X-3946576Y-11272680D01*
X-3927529Y-11244109D01*
X-3918005Y-11225061D01*
X-3908481Y-11196490D01*
X-3898957Y-11148871D01*
X-3898957Y-11110776D01*
X-3908481Y-11063157D01*
X-3918005Y-11034585D01*
X-3927529Y-11015538D01*
X-3946576Y-10986966D01*
X-3956100Y-10977442D01*
M02*
