M48
; DRILL file {KiCad (6.0.5)} date Tue Oct  4 21:39:43 2022
; FORMAT={-:-/ absolute / metric / decimal}
; #@! TF.CreationDate,2022-10-04T21:39:43-03:00
; #@! TF.GenerationSoftware,Kicad,Pcbnew,(6.0.5)
; #@! TF.FileFunction,Plated,1,2,PTH
FMAT,2
METRIC
; #@! TA.AperFunction,Plated,PTH,ViaDrill
T1C0.400
; #@! TA.AperFunction,Plated,PTH,ComponentDrill
T2C0.600
; #@! TA.AperFunction,Plated,PTH,ComponentDrill
T3C0.700
; #@! TA.AperFunction,Plated,PTH,ComponentDrill
T4C0.800
; #@! TA.AperFunction,Plated,PTH,ComponentDrill
T5C1.010
; #@! TA.AperFunction,Plated,PTH,ComponentDrill
T6C1.100
; #@! TA.AperFunction,Plated,PTH,ComponentDrill
T7C1.499
; #@! TA.AperFunction,Plated,PTH,ComponentDrill
T8C2.200
%
G90
G05
T1
X47.3Y46.2
X49.1Y14.4
X49.6Y-18.7
X51.7Y16.5
X53.6Y-25.8
T2
X54.981Y41.344
X56.481Y41.344
T3
X30.131Y47.244
X30.931Y48.444
X31.731Y47.244
X32.531Y48.444
X33.331Y47.244
X38.52Y27.5
X38.52Y25.0
X41.64Y50.98
X41.64Y45.9
X43.6Y27.5
X43.6Y25.0
X46.0Y24.1
X46.0Y19.02
T4
X-82.817Y27.75
X-81.63Y36.25
X-80.38Y44.95
X-77.737Y27.75
X-76.55Y36.25
X-75.3Y44.95
X-73.78Y32.0
X-72.58Y40.45
X-68.7Y32.0
X-67.5Y40.45
X-65.53Y44.95
X-64.317Y52.45
X-60.45Y44.95
X-59.237Y52.45
X-53.78Y44.95
X-52.58Y52.5
X-48.7Y44.95
X-47.5Y52.5
X-40.83Y52.5
X-40.58Y-9.5
X-35.75Y52.5
X-35.5Y-9.5
X-22.117Y-28.4
X-17.037Y-28.4
X-13.85Y-2.4
X-8.77Y-2.4
X-6.55Y48.6
X-2.13Y-32.7
X-1.47Y48.6
X1.1Y52.45
X2.95Y-32.7
X6.18Y52.45
X8.55Y48.6
X13.63Y48.6
X25.0Y53.862
X25.0Y48.782
X29.737Y-26.75
X29.756Y3.5
X29.756Y-11.75
X30.006Y20.0
X30.85Y27.4
X31.487Y-19.5
X31.506Y12.5
X31.506Y-4.5
X33.97Y-43.65
X34.817Y-26.75
X34.836Y3.5
X34.836Y-11.75
X35.086Y20.0
X35.93Y27.4
X36.567Y-19.5
X36.586Y12.5
X36.586Y-4.5
X38.58Y51.04
X38.58Y45.96
X39.05Y-43.65
X40.6Y0.5
X40.6Y-14.0
X41.4Y-4.32
X41.4Y-9.2
X43.0Y7.8
X43.0Y2.8
X43.1Y0.5
X43.1Y-14.0
X45.9Y15.0
X45.9Y12.46
X45.9Y9.92
X45.9Y7.38
X45.9Y4.84
X45.9Y2.3
X45.9Y-0.24
X45.9Y-2.78
X45.9Y-5.32
X45.9Y-7.86
X45.9Y-10.4
X45.9Y-12.94
X45.9Y-15.48
X45.9Y-18.02
X48.47Y-55.2
X53.52Y15.0
X53.52Y12.46
X53.52Y9.92
X53.52Y7.38
X53.52Y4.84
X53.52Y2.3
X53.52Y-0.24
X53.52Y-2.78
X53.52Y-5.32
X53.52Y-7.86
X53.52Y-10.4
X53.52Y-12.94
X53.52Y-15.48
X53.52Y-18.02
X53.55Y-55.2
X56.4Y-0.3
X56.4Y-5.3
T5
X42.431Y41.944
X47.531Y40.744
T6
X42.95Y-22.75
X42.95Y-29.25
X44.45Y53.3
X45.35Y48.3
X47.45Y-22.75
X47.45Y-29.25
X50.55Y45.2
X51.8Y-22.7
X51.8Y-29.2
X53.75Y53.3
X56.3Y-22.7
X56.3Y-29.2
T7
X-80.01Y14.446
X-80.01Y-4.604
X-80.01Y-23.654
X-73.66Y16.986
X-73.66Y-2.064
X-73.66Y-21.114
X-60.96Y33.496
X-60.96Y14.446
X-60.96Y-4.604
X-60.96Y-23.654
X-54.61Y36.036
X-54.61Y16.986
X-54.61Y-2.064
X-54.61Y-21.114
X-41.91Y40.64
X-41.91Y21.59
X-41.91Y2.54
X-41.91Y-16.51
X-35.56Y43.18
X-35.56Y24.13
X-35.56Y5.08
X-35.56Y-13.97
X-22.86Y47.784
X-22.86Y28.734
X-22.86Y9.684
X-22.86Y-9.366
X-16.51Y50.324
X-16.51Y31.274
X-16.51Y12.224
X-16.51Y-6.826
X-13.335Y-42.704
X-6.985Y-40.164
X-3.81Y40.64
X-3.81Y21.59
X-3.81Y2.54
X-3.81Y-16.51
X2.54Y43.18
X2.54Y24.13
X2.54Y5.08
X2.54Y-13.97
X8.549Y-45.63
X15.24Y38.259
X15.24Y19.209
X15.24Y0.159
X15.24Y-18.891
X15.325Y-44.702
X21.59Y40.799
X21.59Y21.749
X21.59Y2.699
X21.59Y-16.351
X29.1Y-53.795
X35.899Y-54.533
X47.069Y-66.619
X53.488Y-68.981
T8
X-66.8Y2.4
X-29.15Y-9.55
X-29.09Y28.59
X9.0Y28.6
X9.3Y-31.52
X40.23Y-63.82
T3
X28.081Y52.894G85X28.081Y51.694
G05
X35.381Y52.894G85X35.381Y51.694
G05
T0
M30
