%TF.GenerationSoftware,KiCad,Pcbnew,(6.0.5)*%
%TF.CreationDate,2022-07-25T14:12:34-03:00*%
%TF.ProjectId,bluejay_right,626c7565-6a61-4795-9f72-696768742e6b,rev?*%
%TF.SameCoordinates,Original*%
%TF.FileFunction,Legend,Bot*%
%TF.FilePolarity,Positive*%
%FSLAX46Y46*%
G04 Gerber Fmt 4.6, Leading zero omitted, Abs format (unit mm)*
G04 Created by KiCad (PCBNEW (6.0.5)) date 2022-07-25 14:12:34*
%MOMM*%
%LPD*%
G01*
G04 APERTURE LIST*
%ADD10C,0.150000*%
G04 APERTURE END LIST*
D10*
X84141071Y-30298571D02*
X83998214Y-30346190D01*
X83950595Y-30393809D01*
X83902976Y-30489047D01*
X83902976Y-30631904D01*
X83950595Y-30727142D01*
X83998214Y-30774761D01*
X84093452Y-30822380D01*
X84474404Y-30822380D01*
X84474404Y-29822380D01*
X84141071Y-29822380D01*
X84045833Y-29870000D01*
X83998214Y-29917619D01*
X83950595Y-30012857D01*
X83950595Y-30108095D01*
X83998214Y-30203333D01*
X84045833Y-30250952D01*
X84141071Y-30298571D01*
X84474404Y-30298571D01*
X83331547Y-30822380D02*
X83426785Y-30774761D01*
X83474404Y-30679523D01*
X83474404Y-29822380D01*
X82522023Y-30155714D02*
X82522023Y-30822380D01*
X82950595Y-30155714D02*
X82950595Y-30679523D01*
X82902976Y-30774761D01*
X82807738Y-30822380D01*
X82664880Y-30822380D01*
X82569642Y-30774761D01*
X82522023Y-30727142D01*
X81664880Y-30774761D02*
X81760119Y-30822380D01*
X81950595Y-30822380D01*
X82045833Y-30774761D01*
X82093452Y-30679523D01*
X82093452Y-30298571D01*
X82045833Y-30203333D01*
X81950595Y-30155714D01*
X81760119Y-30155714D01*
X81664880Y-30203333D01*
X81617261Y-30298571D01*
X81617261Y-30393809D01*
X82093452Y-30489047D01*
X80902976Y-29822380D02*
X80902976Y-30536666D01*
X80950595Y-30679523D01*
X81045833Y-30774761D01*
X81188690Y-30822380D01*
X81283928Y-30822380D01*
X79998214Y-30822380D02*
X79998214Y-30298571D01*
X80045833Y-30203333D01*
X80141071Y-30155714D01*
X80331547Y-30155714D01*
X80426785Y-30203333D01*
X79998214Y-30774761D02*
X80093452Y-30822380D01*
X80331547Y-30822380D01*
X80426785Y-30774761D01*
X80474404Y-30679523D01*
X80474404Y-30584285D01*
X80426785Y-30489047D01*
X80331547Y-30441428D01*
X80093452Y-30441428D01*
X79998214Y-30393809D01*
X79617261Y-30155714D02*
X79379166Y-30822380D01*
X79141071Y-30155714D02*
X79379166Y-30822380D01*
X79474404Y-31060476D01*
X79522023Y-31108095D01*
X79617261Y-31155714D01*
X77998214Y-30822380D02*
X77998214Y-29822380D01*
X77426785Y-30822380D02*
X77855357Y-30250952D01*
X77426785Y-29822380D02*
X77998214Y-30393809D01*
X76617261Y-30774761D02*
X76712500Y-30822380D01*
X76902976Y-30822380D01*
X76998214Y-30774761D01*
X77045833Y-30679523D01*
X77045833Y-30298571D01*
X76998214Y-30203333D01*
X76902976Y-30155714D01*
X76712500Y-30155714D01*
X76617261Y-30203333D01*
X76569642Y-30298571D01*
X76569642Y-30393809D01*
X77045833Y-30489047D01*
X76236309Y-30155714D02*
X75998214Y-30822380D01*
X75760119Y-30155714D02*
X75998214Y-30822380D01*
X76093452Y-31060476D01*
X76141071Y-31108095D01*
X76236309Y-31155714D01*
X75379166Y-30822380D02*
X75379166Y-29822380D01*
X75379166Y-30203333D02*
X75283928Y-30155714D01*
X75093452Y-30155714D01*
X74998214Y-30203333D01*
X74950595Y-30250952D01*
X74902976Y-30346190D01*
X74902976Y-30631904D01*
X74950595Y-30727142D01*
X74998214Y-30774761D01*
X75093452Y-30822380D01*
X75283928Y-30822380D01*
X75379166Y-30774761D01*
X74331547Y-30822380D02*
X74426785Y-30774761D01*
X74474404Y-30727142D01*
X74522023Y-30631904D01*
X74522023Y-30346190D01*
X74474404Y-30250952D01*
X74426785Y-30203333D01*
X74331547Y-30155714D01*
X74188690Y-30155714D01*
X74093452Y-30203333D01*
X74045833Y-30250952D01*
X73998214Y-30346190D01*
X73998214Y-30631904D01*
X74045833Y-30727142D01*
X74093452Y-30774761D01*
X74188690Y-30822380D01*
X74331547Y-30822380D01*
X73141071Y-30822380D02*
X73141071Y-30298571D01*
X73188690Y-30203333D01*
X73283928Y-30155714D01*
X73474404Y-30155714D01*
X73569642Y-30203333D01*
X73141071Y-30774761D02*
X73236309Y-30822380D01*
X73474404Y-30822380D01*
X73569642Y-30774761D01*
X73617261Y-30679523D01*
X73617261Y-30584285D01*
X73569642Y-30489047D01*
X73474404Y-30441428D01*
X73236309Y-30441428D01*
X73141071Y-30393809D01*
X72664880Y-30822380D02*
X72664880Y-30155714D01*
X72664880Y-30346190D02*
X72617261Y-30250952D01*
X72569642Y-30203333D01*
X72474404Y-30155714D01*
X72379166Y-30155714D01*
X71617261Y-30822380D02*
X71617261Y-29822380D01*
X71617261Y-30774761D02*
X71712500Y-30822380D01*
X71902976Y-30822380D01*
X71998214Y-30774761D01*
X72045833Y-30727142D01*
X72093452Y-30631904D01*
X72093452Y-30346190D01*
X72045833Y-30250952D01*
X71998214Y-30203333D01*
X71902976Y-30155714D01*
X71712500Y-30155714D01*
X71617261Y-30203333D01*
X84249047Y-34882380D02*
X84249047Y-35596666D01*
X84296666Y-35739523D01*
X84391904Y-35834761D01*
X84534761Y-35882380D01*
X84630000Y-35882380D01*
X83296666Y-35882380D02*
X83772857Y-35882380D01*
X83772857Y-34882380D01*
X82391904Y-35787142D02*
X82439523Y-35834761D01*
X82582380Y-35882380D01*
X82677619Y-35882380D01*
X82820476Y-35834761D01*
X82915714Y-35739523D01*
X82963333Y-35644285D01*
X83010952Y-35453809D01*
X83010952Y-35310952D01*
X82963333Y-35120476D01*
X82915714Y-35025238D01*
X82820476Y-34930000D01*
X82677619Y-34882380D01*
X82582380Y-34882380D01*
X82439523Y-34930000D01*
X82391904Y-34977619D01*
X81677619Y-34882380D02*
X81677619Y-35596666D01*
X81725238Y-35739523D01*
X81820476Y-35834761D01*
X81963333Y-35882380D01*
X82058571Y-35882380D01*
X80725238Y-35882380D02*
X81201428Y-35882380D01*
X81201428Y-34882380D01*
X79820476Y-35787142D02*
X79868095Y-35834761D01*
X80010952Y-35882380D01*
X80106190Y-35882380D01*
X80249047Y-35834761D01*
X80344285Y-35739523D01*
X80391904Y-35644285D01*
X80439523Y-35453809D01*
X80439523Y-35310952D01*
X80391904Y-35120476D01*
X80344285Y-35025238D01*
X80249047Y-34930000D01*
X80106190Y-34882380D01*
X80010952Y-34882380D01*
X79868095Y-34930000D01*
X79820476Y-34977619D01*
X79106190Y-34882380D02*
X79106190Y-35596666D01*
X79153809Y-35739523D01*
X79249047Y-35834761D01*
X79391904Y-35882380D01*
X79487142Y-35882380D01*
X78153809Y-35882380D02*
X78630000Y-35882380D01*
X78630000Y-34882380D01*
X77249047Y-35787142D02*
X77296666Y-35834761D01*
X77439523Y-35882380D01*
X77534761Y-35882380D01*
X77677619Y-35834761D01*
X77772857Y-35739523D01*
X77820476Y-35644285D01*
X77868095Y-35453809D01*
X77868095Y-35310952D01*
X77820476Y-35120476D01*
X77772857Y-35025238D01*
X77677619Y-34930000D01*
X77534761Y-34882380D01*
X77439523Y-34882380D01*
X77296666Y-34930000D01*
X77249047Y-34977619D01*
X76534761Y-34882380D02*
X76534761Y-35596666D01*
X76582380Y-35739523D01*
X76677619Y-35834761D01*
X76820476Y-35882380D01*
X76915714Y-35882380D01*
X75582380Y-35882380D02*
X76058571Y-35882380D01*
X76058571Y-34882380D01*
X74677619Y-35787142D02*
X74725238Y-35834761D01*
X74868095Y-35882380D01*
X74963333Y-35882380D01*
X75106190Y-35834761D01*
X75201428Y-35739523D01*
X75249047Y-35644285D01*
X75296666Y-35453809D01*
X75296666Y-35310952D01*
X75249047Y-35120476D01*
X75201428Y-35025238D01*
X75106190Y-34930000D01*
X74963333Y-34882380D01*
X74868095Y-34882380D01*
X74725238Y-34930000D01*
X74677619Y-34977619D01*
X84474404Y-33232380D02*
X84474404Y-32232380D01*
X84045833Y-33232380D02*
X84045833Y-32708571D01*
X84093452Y-32613333D01*
X84188690Y-32565714D01*
X84331547Y-32565714D01*
X84426785Y-32613333D01*
X84474404Y-32660952D01*
X83712500Y-32565714D02*
X83331547Y-32565714D01*
X83569642Y-32232380D02*
X83569642Y-33089523D01*
X83522023Y-33184761D01*
X83426785Y-33232380D01*
X83331547Y-33232380D01*
X83141071Y-32565714D02*
X82760119Y-32565714D01*
X82998214Y-32232380D02*
X82998214Y-33089523D01*
X82950595Y-33184761D01*
X82855357Y-33232380D01*
X82760119Y-33232380D01*
X82426785Y-32565714D02*
X82426785Y-33565714D01*
X82426785Y-32613333D02*
X82331547Y-32565714D01*
X82141071Y-32565714D01*
X82045833Y-32613333D01*
X81998214Y-32660952D01*
X81950595Y-32756190D01*
X81950595Y-33041904D01*
X81998214Y-33137142D01*
X82045833Y-33184761D01*
X82141071Y-33232380D01*
X82331547Y-33232380D01*
X82426785Y-33184761D01*
X81569642Y-33184761D02*
X81474404Y-33232380D01*
X81283928Y-33232380D01*
X81188690Y-33184761D01*
X81141071Y-33089523D01*
X81141071Y-33041904D01*
X81188690Y-32946666D01*
X81283928Y-32899047D01*
X81426785Y-32899047D01*
X81522023Y-32851428D01*
X81569642Y-32756190D01*
X81569642Y-32708571D01*
X81522023Y-32613333D01*
X81426785Y-32565714D01*
X81283928Y-32565714D01*
X81188690Y-32613333D01*
X80712500Y-33137142D02*
X80664880Y-33184761D01*
X80712500Y-33232380D01*
X80760119Y-33184761D01*
X80712500Y-33137142D01*
X80712500Y-33232380D01*
X80712500Y-32613333D02*
X80664880Y-32660952D01*
X80712500Y-32708571D01*
X80760119Y-32660952D01*
X80712500Y-32613333D01*
X80712500Y-32708571D01*
X79522023Y-32184761D02*
X80379166Y-33470476D01*
X78474404Y-32184761D02*
X79331547Y-33470476D01*
X77712500Y-32565714D02*
X77712500Y-33375238D01*
X77760119Y-33470476D01*
X77807738Y-33518095D01*
X77902976Y-33565714D01*
X78045833Y-33565714D01*
X78141071Y-33518095D01*
X77712500Y-33184761D02*
X77807738Y-33232380D01*
X77998214Y-33232380D01*
X78093452Y-33184761D01*
X78141071Y-33137142D01*
X78188690Y-33041904D01*
X78188690Y-32756190D01*
X78141071Y-32660952D01*
X78093452Y-32613333D01*
X77998214Y-32565714D01*
X77807738Y-32565714D01*
X77712500Y-32613333D01*
X77236309Y-33232380D02*
X77236309Y-32565714D01*
X77236309Y-32232380D02*
X77283928Y-32280000D01*
X77236309Y-32327619D01*
X77188690Y-32280000D01*
X77236309Y-32232380D01*
X77236309Y-32327619D01*
X76902976Y-32565714D02*
X76522023Y-32565714D01*
X76760119Y-32232380D02*
X76760119Y-33089523D01*
X76712500Y-33184761D01*
X76617261Y-33232380D01*
X76522023Y-33232380D01*
X76188690Y-33232380D02*
X76188690Y-32232380D01*
X75760119Y-33232380D02*
X75760119Y-32708571D01*
X75807738Y-32613333D01*
X75902976Y-32565714D01*
X76045833Y-32565714D01*
X76141071Y-32613333D01*
X76188690Y-32660952D01*
X74855357Y-32565714D02*
X74855357Y-33232380D01*
X75283928Y-32565714D02*
X75283928Y-33089523D01*
X75236309Y-33184761D01*
X75141071Y-33232380D01*
X74998214Y-33232380D01*
X74902976Y-33184761D01*
X74855357Y-33137142D01*
X74379166Y-33232380D02*
X74379166Y-32232380D01*
X74379166Y-32613333D02*
X74283928Y-32565714D01*
X74093452Y-32565714D01*
X73998214Y-32613333D01*
X73950595Y-32660952D01*
X73902976Y-32756190D01*
X73902976Y-33041904D01*
X73950595Y-33137142D01*
X73998214Y-33184761D01*
X74093452Y-33232380D01*
X74283928Y-33232380D01*
X74379166Y-33184761D01*
X73474404Y-33137142D02*
X73426785Y-33184761D01*
X73474404Y-33232380D01*
X73522023Y-33184761D01*
X73474404Y-33137142D01*
X73474404Y-33232380D01*
X72569642Y-33184761D02*
X72664880Y-33232380D01*
X72855357Y-33232380D01*
X72950595Y-33184761D01*
X72998214Y-33137142D01*
X73045833Y-33041904D01*
X73045833Y-32756190D01*
X72998214Y-32660952D01*
X72950595Y-32613333D01*
X72855357Y-32565714D01*
X72664880Y-32565714D01*
X72569642Y-32613333D01*
X71998214Y-33232380D02*
X72093452Y-33184761D01*
X72141071Y-33137142D01*
X72188690Y-33041904D01*
X72188690Y-32756190D01*
X72141071Y-32660952D01*
X72093452Y-32613333D01*
X71998214Y-32565714D01*
X71855357Y-32565714D01*
X71760119Y-32613333D01*
X71712500Y-32660952D01*
X71664880Y-32756190D01*
X71664880Y-33041904D01*
X71712500Y-33137142D01*
X71760119Y-33184761D01*
X71855357Y-33232380D01*
X71998214Y-33232380D01*
X71236309Y-33232380D02*
X71236309Y-32565714D01*
X71236309Y-32660952D02*
X71188690Y-32613333D01*
X71093452Y-32565714D01*
X70950595Y-32565714D01*
X70855357Y-32613333D01*
X70807738Y-32708571D01*
X70807738Y-33232380D01*
X70807738Y-32708571D02*
X70760119Y-32613333D01*
X70664880Y-32565714D01*
X70522023Y-32565714D01*
X70426785Y-32613333D01*
X70379166Y-32708571D01*
X70379166Y-33232380D01*
X69188690Y-32184761D02*
X70045833Y-33470476D01*
X68569642Y-32232380D02*
X68569642Y-32946666D01*
X68617261Y-33089523D01*
X68712500Y-33184761D01*
X68855357Y-33232380D01*
X68950595Y-33232380D01*
X67950595Y-33232380D02*
X68045833Y-33184761D01*
X68093452Y-33137142D01*
X68141071Y-33041904D01*
X68141071Y-32756190D01*
X68093452Y-32660952D01*
X68045833Y-32613333D01*
X67950595Y-32565714D01*
X67807738Y-32565714D01*
X67712500Y-32613333D01*
X67664880Y-32660952D01*
X67617261Y-32756190D01*
X67617261Y-33041904D01*
X67664880Y-33137142D01*
X67712500Y-33184761D01*
X67807738Y-33232380D01*
X67950595Y-33232380D01*
X67188690Y-32565714D02*
X67188690Y-33232380D01*
X67188690Y-32660952D02*
X67141071Y-32613333D01*
X67045833Y-32565714D01*
X66902976Y-32565714D01*
X66807738Y-32613333D01*
X66760119Y-32708571D01*
X66760119Y-33232380D01*
X65855357Y-33232380D02*
X65855357Y-32708571D01*
X65902976Y-32613333D01*
X65998214Y-32565714D01*
X66188690Y-32565714D01*
X66283928Y-32613333D01*
X65855357Y-33184761D02*
X65950595Y-33232380D01*
X66188690Y-33232380D01*
X66283928Y-33184761D01*
X66331547Y-33089523D01*
X66331547Y-32994285D01*
X66283928Y-32899047D01*
X66188690Y-32851428D01*
X65950595Y-32851428D01*
X65855357Y-32803809D01*
X65522023Y-32565714D02*
X65141071Y-32565714D01*
X65379166Y-32232380D02*
X65379166Y-33089523D01*
X65331547Y-33184761D01*
X65236309Y-33232380D01*
X65141071Y-33232380D01*
X64807738Y-33232380D02*
X64807738Y-32232380D01*
X64379166Y-33232380D02*
X64379166Y-32708571D01*
X64426785Y-32613333D01*
X64522023Y-32565714D01*
X64664880Y-32565714D01*
X64760119Y-32613333D01*
X64807738Y-32660952D01*
X63474404Y-33232380D02*
X63474404Y-32708571D01*
X63522023Y-32613333D01*
X63617261Y-32565714D01*
X63807738Y-32565714D01*
X63902976Y-32613333D01*
X63474404Y-33184761D02*
X63569642Y-33232380D01*
X63807738Y-33232380D01*
X63902976Y-33184761D01*
X63950595Y-33089523D01*
X63950595Y-32994285D01*
X63902976Y-32899047D01*
X63807738Y-32851428D01*
X63569642Y-32851428D01*
X63474404Y-32803809D01*
X62998214Y-32565714D02*
X62998214Y-33232380D01*
X62998214Y-32660952D02*
X62950595Y-32613333D01*
X62855357Y-32565714D01*
X62712500Y-32565714D01*
X62617261Y-32613333D01*
X62569642Y-32708571D01*
X62569642Y-33232380D01*
X61760119Y-32708571D02*
X62093452Y-32708571D01*
X62093452Y-33232380D02*
X62093452Y-32232380D01*
X61617261Y-32232380D01*
X60855357Y-33184761D02*
X60950595Y-33232380D01*
X61141071Y-33232380D01*
X61236309Y-33184761D01*
X61283928Y-33089523D01*
X61283928Y-32708571D01*
X61236309Y-32613333D01*
X61141071Y-32565714D01*
X60950595Y-32565714D01*
X60855357Y-32613333D01*
X60807738Y-32708571D01*
X60807738Y-32803809D01*
X61283928Y-32899047D01*
X60379166Y-33232380D02*
X60379166Y-32565714D01*
X60379166Y-32756190D02*
X60331547Y-32660952D01*
X60283928Y-32613333D01*
X60188690Y-32565714D01*
X60093452Y-32565714D01*
X59760119Y-33232380D02*
X59760119Y-32565714D01*
X59760119Y-32756190D02*
X59712500Y-32660952D01*
X59664880Y-32613333D01*
X59569642Y-32565714D01*
X59474404Y-32565714D01*
X58998214Y-33232380D02*
X59093452Y-33184761D01*
X59141071Y-33137142D01*
X59188690Y-33041904D01*
X59188690Y-32756190D01*
X59141071Y-32660952D01*
X59093452Y-32613333D01*
X58998214Y-32565714D01*
X58855357Y-32565714D01*
X58760119Y-32613333D01*
X58712500Y-32660952D01*
X58664880Y-32756190D01*
X58664880Y-33041904D01*
X58712500Y-33137142D01*
X58760119Y-33184761D01*
X58855357Y-33232380D01*
X58998214Y-33232380D01*
X58236309Y-32565714D02*
X58236309Y-33232380D01*
X58236309Y-32660952D02*
X58188690Y-32613333D01*
X58093452Y-32565714D01*
X57950595Y-32565714D01*
X57855357Y-32613333D01*
X57807738Y-32708571D01*
X57807738Y-33232380D01*
X56617261Y-32184761D02*
X57474404Y-33470476D01*
X55950595Y-32708571D02*
X55807738Y-32756190D01*
X55760119Y-32803809D01*
X55712500Y-32899047D01*
X55712500Y-33041904D01*
X55760119Y-33137142D01*
X55807738Y-33184761D01*
X55902976Y-33232380D01*
X56283928Y-33232380D01*
X56283928Y-32232380D01*
X55950595Y-32232380D01*
X55855357Y-32280000D01*
X55807738Y-32327619D01*
X55760119Y-32422857D01*
X55760119Y-32518095D01*
X55807738Y-32613333D01*
X55855357Y-32660952D01*
X55950595Y-32708571D01*
X56283928Y-32708571D01*
X55141071Y-33232380D02*
X55236309Y-33184761D01*
X55283928Y-33089523D01*
X55283928Y-32232380D01*
X54331547Y-32565714D02*
X54331547Y-33232380D01*
X54760119Y-32565714D02*
X54760119Y-33089523D01*
X54712500Y-33184761D01*
X54617261Y-33232380D01*
X54474404Y-33232380D01*
X54379166Y-33184761D01*
X54331547Y-33137142D01*
X53474404Y-33184761D02*
X53569642Y-33232380D01*
X53760119Y-33232380D01*
X53855357Y-33184761D01*
X53902976Y-33089523D01*
X53902976Y-32708571D01*
X53855357Y-32613333D01*
X53760119Y-32565714D01*
X53569642Y-32565714D01*
X53474404Y-32613333D01*
X53426785Y-32708571D01*
X53426785Y-32803809D01*
X53902976Y-32899047D01*
X52712500Y-32232380D02*
X52712500Y-32946666D01*
X52760119Y-33089523D01*
X52855357Y-33184761D01*
X52998214Y-33232380D01*
X53093452Y-33232380D01*
X51807738Y-33232380D02*
X51807738Y-32708571D01*
X51855357Y-32613333D01*
X51950595Y-32565714D01*
X52141071Y-32565714D01*
X52236309Y-32613333D01*
X51807738Y-33184761D02*
X51902976Y-33232380D01*
X52141071Y-33232380D01*
X52236309Y-33184761D01*
X52283928Y-33089523D01*
X52283928Y-32994285D01*
X52236309Y-32899047D01*
X52141071Y-32851428D01*
X51902976Y-32851428D01*
X51807738Y-32803809D01*
X51426785Y-32565714D02*
X51188690Y-33232380D01*
X50950595Y-32565714D02*
X51188690Y-33232380D01*
X51283928Y-33470476D01*
X51331547Y-33518095D01*
X51426785Y-33565714D01*
M02*
