%FSLAX45Y45*%
G04 Gerber Fmt 4.5, Leading zero omitted, Abs format (unit mm)*
G04 Created by KiCad (PCBNEW (6.0.5)) date 2022-10-04 21:38:22*
%MOMM*%
%LPD*%
G01*
G04 APERTURE LIST*
%TA.AperFunction,Profile*%
%ADD10C,0.100000*%
%TD*%
%ADD11C,0.200000*%
G04 APERTURE END LIST*
D10*
X6123000Y-7274000D02*
X4962000Y-8575000D01*
X-3231000Y-3754000D02*
G75*
G03*
X-3372000Y-3714000I-133168J-200906D01*
G01*
X4783000Y-8570000D02*
G75*
G03*
X-1674000Y-5604000I-6964601J-6650515D01*
G01*
X-1847000Y-5543000D02*
G75*
G03*
X-1674000Y-5604000I157834J171807D01*
G01*
X6146002Y5417000D02*
G75*
G03*
X5958000Y5617000I-194702J5340D01*
G01*
X6146000Y-7200000D02*
X6146000Y5417000D01*
X-8523000Y5617000D02*
G75*
G03*
X-8723000Y5418000I-2392J-197598D01*
G01*
X-8723000Y-3511000D02*
G75*
G03*
X-8523000Y-3714000I202211J-799D01*
G01*
X-8723000Y-3511000D02*
X-8723000Y5418000D01*
X-8523000Y-3714000D02*
X-3372000Y-3714000D01*
X-3231000Y-3754000D02*
X-1847000Y-5543000D01*
X6122999Y-7273999D02*
G75*
G03*
X6146000Y-7200000I-153349J88239D01*
G01*
X5958000Y5617000D02*
X-8523000Y5617000D01*
X4783002Y-8569999D02*
G75*
G03*
X4962000Y-8575000I91418J66179D01*
G01*
D11*
X-8470386Y-8932154D02*
X-8470386Y-8732154D01*
X-8422767Y-8732154D01*
X-8394195Y-8741678D01*
X-8375148Y-8760725D01*
X-8365624Y-8779773D01*
X-8356100Y-8817868D01*
X-8356100Y-8846440D01*
X-8365624Y-8884535D01*
X-8375148Y-8903582D01*
X-8394195Y-8922630D01*
X-8422767Y-8932154D01*
X-8470386Y-8932154D01*
X-8270386Y-8932154D02*
X-8270386Y-8798820D01*
X-8270386Y-8836916D02*
X-8260862Y-8817868D01*
X-8251338Y-8808344D01*
X-8232291Y-8798820D01*
X-8213243Y-8798820D01*
X-8146576Y-8932154D02*
X-8146576Y-8798820D01*
X-8146576Y-8732154D02*
X-8156100Y-8741678D01*
X-8146576Y-8751201D01*
X-8137053Y-8741678D01*
X-8146576Y-8732154D01*
X-8146576Y-8751201D01*
X-8022767Y-8932154D02*
X-8041814Y-8922630D01*
X-8051338Y-8903582D01*
X-8051338Y-8732154D01*
X-7918005Y-8932154D02*
X-7937053Y-8922630D01*
X-7946576Y-8903582D01*
X-7946576Y-8732154D01*
X-7689433Y-8932154D02*
X-7689433Y-8732154D01*
X-7622767Y-8875011D01*
X-7556100Y-8732154D01*
X-7556100Y-8932154D01*
X-7375148Y-8932154D02*
X-7375148Y-8827392D01*
X-7384672Y-8808344D01*
X-7403719Y-8798820D01*
X-7441814Y-8798820D01*
X-7460862Y-8808344D01*
X-7375148Y-8922630D02*
X-7394195Y-8932154D01*
X-7441814Y-8932154D01*
X-7460862Y-8922630D01*
X-7470386Y-8903582D01*
X-7470386Y-8884535D01*
X-7460862Y-8865487D01*
X-7441814Y-8855963D01*
X-7394195Y-8855963D01*
X-7375148Y-8846440D01*
X-7279910Y-8798820D02*
X-7279910Y-8998820D01*
X-7279910Y-8808344D02*
X-7260862Y-8798820D01*
X-7222767Y-8798820D01*
X-7203719Y-8808344D01*
X-7194195Y-8817868D01*
X-7184672Y-8836916D01*
X-7184672Y-8894059D01*
X-7194195Y-8913106D01*
X-7203719Y-8922630D01*
X-7222767Y-8932154D01*
X-7260862Y-8932154D01*
X-7279910Y-8922630D01*
X-7098957Y-8913106D02*
X-7089433Y-8922630D01*
X-7098957Y-8932154D01*
X-7108481Y-8922630D01*
X-7098957Y-8913106D01*
X-7098957Y-8932154D01*
X-7098957Y-8808344D02*
X-7089433Y-8817868D01*
X-7098957Y-8827392D01*
X-7108481Y-8817868D01*
X-7098957Y-8808344D01*
X-7098957Y-8827392D01*
M02*
