G04 #@! TF.GenerationSoftware,KiCad,Pcbnew,(6.0.5)*
G04 #@! TF.CreationDate,2022-10-04T21:37:59-03:00*
G04 #@! TF.ProjectId,bluejay_base,626c7565-6a61-4795-9f62-6173652e6b69,rev?*
G04 #@! TF.SameCoordinates,Original*
G04 #@! TF.FileFunction,Legend,Bot*
G04 #@! TF.FilePolarity,Positive*
%FSLAX46Y46*%
G04 Gerber Fmt 4.6, Leading zero omitted, Abs format (unit mm)*
G04 Created by KiCad (PCBNEW (6.0.5)) date 2022-10-04 21:37:59*
%MOMM*%
%LPD*%
G01*
G04 APERTURE LIST*
%ADD10C,0.311607*%
%ADD11C,1.000000*%
%ADD12C,4.400000*%
G04 APERTURE END LIST*
D10*
X-21509121Y28475376D02*
X-21509121Y28475376D01*
X4930368Y11893770D02*
X4246591Y11153011D01*
X-15867945Y37250516D02*
X-15867945Y37250516D01*
X-7719596Y33489740D02*
X-7719596Y33489740D01*
X-51310309Y11722832D02*
X-51310309Y11722832D01*
X-13987469Y13033401D02*
X-13987469Y13033401D01*
X-39629107Y11665852D02*
X-39629107Y11665852D01*
X-1394564Y1295216D02*
X-1223620Y-72338D01*
X-39970995Y12862461D02*
X-43162081Y13318312D01*
X-7833559Y25569321D02*
X-7890509Y24657618D01*
X-13246792Y38390146D02*
X-13873591Y35484092D01*
X-32848433Y19529291D02*
X-32848433Y19529291D01*
X-8631303Y25683283D02*
X-8631303Y25683283D01*
X-13987469Y13033401D02*
X-14785202Y11665848D01*
X-27606028Y5340908D02*
X-27606028Y5340908D01*
X-33361265Y18047773D02*
X-32962397Y17363995D01*
X5842077Y10526215D02*
X5842077Y10526215D01*
X770725Y13489252D02*
X770725Y13489252D01*
X-43674788Y5910725D02*
X-46808775Y5625820D01*
X-8916174Y23574970D02*
X-10739584Y22321379D01*
X-48860106Y11323963D02*
X-48860106Y11323963D01*
X-7092803Y27677633D02*
X-8631303Y25683283D01*
D11*
X-183830656Y-71886108D02*
X-183464934Y-71154663D01*
D10*
X5329244Y7962048D02*
X5842077Y7278267D01*
X-52791827Y8759796D02*
X-52791827Y8759796D01*
X-37007963Y11153019D02*
X-39970995Y12862461D01*
X6183966Y8645824D02*
X6183966Y8645824D01*
X-5782139Y41634D02*
X-5782139Y41634D01*
X-16209833Y34857296D02*
X-14329445Y38789015D01*
X-18318146Y35142203D02*
X-18489090Y33318797D01*
X-14329445Y38789015D02*
X-14329445Y38789015D01*
X-20312517Y31096522D02*
X-20312517Y31096522D01*
X-20711386Y35655037D02*
X-20711386Y35655037D01*
X-43788752Y12064722D02*
X-43788752Y12064722D01*
X3334891Y12634531D02*
X4930368Y11893770D01*
X-14785202Y11665848D02*
X-14785202Y11665848D01*
X-3730807Y-15347D02*
X-5782139Y41634D01*
X1454503Y2947678D02*
X1454503Y2947678D01*
X-40198920Y10925095D02*
X-39629107Y11665852D01*
X-5782139Y41634D02*
X-11765190Y3346558D01*
X3163946Y3175602D02*
X1454503Y2947678D01*
X-48518210Y10697166D02*
X-48860106Y11323963D01*
X-11081444Y19187399D02*
X-10454645Y18332674D01*
X-16266722Y4885056D02*
X-18147110Y3517502D01*
D11*
X-183464934Y-71154663D02*
X-184196379Y-70788940D01*
D10*
X-40369986Y15255680D02*
X-39458285Y17136068D01*
X-11594248Y16509270D02*
X-11594248Y16509270D01*
X-7092803Y28247448D02*
X-7092803Y28247448D01*
X-43674788Y5910725D02*
X-43674788Y5910725D01*
X5158300Y9386585D02*
X6183966Y8645824D01*
X-11195469Y35825980D02*
X-7890539Y39928644D01*
X3562813Y4600140D02*
X3163946Y3175602D01*
X-33019377Y19073439D02*
X-33019377Y19073439D01*
X-10511595Y17307009D02*
X-10511595Y17307009D01*
X-51367285Y6765450D02*
X-52791827Y8759796D01*
X-32677496Y18788534D02*
X-32677496Y18788534D01*
X-7263749Y30754631D02*
X-7662616Y29102170D01*
X-19571736Y38789015D02*
X-19571736Y38789015D01*
X-21509121Y28475376D02*
X-20996289Y30583691D01*
X-12961890Y40897328D02*
X-12961890Y40897328D01*
X-39458285Y17136068D02*
X-37179030Y18674568D01*
X-10739584Y22321379D02*
X-9372029Y22207417D01*
X-6921861Y35142202D02*
X-6921861Y35142202D01*
X-47948397Y12178686D02*
X-44928385Y11096039D01*
X-11765190Y3346558D02*
X-14671244Y5511852D01*
X4246591Y11153011D02*
X5842077Y10526215D01*
X-8916207Y35199184D02*
X-8916207Y35199184D01*
X-7035818Y36737683D02*
X-7035818Y36737683D01*
X-41452521Y7107334D02*
X-43674788Y5910725D01*
X-12733879Y13774160D02*
X-12733879Y13774160D01*
X-22021954Y36965611D02*
X-20711386Y35655037D01*
X-25212920Y20440994D02*
X-21907997Y27107822D01*
X-21907997Y27107822D02*
X-21907997Y27107822D01*
X-7890509Y24657618D02*
X-7890509Y24657618D01*
X-21907997Y27107822D02*
X-22306866Y30241800D01*
X-43788752Y12064722D02*
X-41794405Y11551887D01*
X2765079Y13090382D02*
X2765079Y13090382D01*
X-7890509Y24657618D02*
X-8916174Y23574970D01*
X-1736453Y13033401D02*
X-1736453Y13033401D01*
X-46808775Y5625820D02*
X-47834441Y5967709D01*
X3562813Y4600140D02*
X3562813Y4600140D01*
X-10454645Y18332674D02*
X-10511595Y17307009D01*
X-18489090Y33318797D02*
X-18489090Y33318797D01*
X-21338177Y34230501D02*
X-22021954Y36965611D01*
X-39629107Y11665852D02*
X-37007963Y11153019D01*
X-20141573Y33489742D02*
X-20312517Y31096522D01*
X-53304652Y11209999D02*
X-52335974Y11039055D01*
X-10454703Y41866012D02*
X-10454703Y41866012D01*
X-53703528Y10754147D02*
X-53304652Y11209999D01*
X-32962397Y17363995D02*
X-30056341Y16167385D01*
X-32905302Y8189980D02*
X-35412482Y8987720D01*
X-20084568Y40897328D02*
X-18318146Y37991275D01*
X-29144640Y16395311D02*
X-25212920Y20440994D01*
X-10340739Y39187884D02*
X-11195469Y35825980D01*
X-11195469Y35825980D02*
X-11195469Y35825980D01*
X-8916146Y20611935D02*
X-11081444Y19187399D01*
X-51367285Y6765450D02*
X-51367285Y6765450D01*
X-35412482Y8987720D02*
X-35412482Y8987720D01*
X-53304652Y11209999D02*
X-53304652Y11209999D01*
X-52335974Y11039055D02*
X-51310309Y11722832D01*
X-53703528Y10754147D02*
X-53703528Y10754147D01*
X-9372029Y22207417D02*
X-8859196Y21466658D01*
X-7890539Y39928644D02*
X-7890539Y39928644D01*
X-20312517Y31096522D02*
X-20369467Y30298782D01*
X4930368Y11893770D02*
X4930368Y11893770D01*
X-15753981Y40783366D02*
X-15867945Y37250516D01*
X-32677496Y18788534D02*
X-33361265Y18047773D01*
X-10511595Y17307009D02*
X-11594248Y16509270D01*
X-13417736Y42606772D02*
X-12961890Y40897328D01*
X5842077Y10526215D02*
X5158300Y9386585D01*
X-6921861Y33603704D02*
X-6921861Y33603704D01*
X-47834441Y5967709D02*
X-47834441Y5967709D01*
X-13873591Y35484092D02*
X-11879237Y38789015D01*
X-25212920Y20440994D02*
X-25212920Y20440994D01*
X-7890539Y39928644D02*
X-8232429Y37478442D01*
X-11879237Y38789015D02*
X-10454703Y41866012D01*
X-47948397Y12178686D02*
X-47948397Y12178686D01*
X-7662616Y29102170D02*
X-8745261Y28076504D01*
X-7092803Y27677633D02*
X-7092803Y27677633D01*
X-22306866Y30241800D02*
X-22306866Y30241800D01*
X-29144640Y16395311D02*
X-29144640Y16395311D01*
X-6921861Y33603704D02*
X-7206763Y32008224D01*
X-16836624Y42492809D02*
X-16836624Y42492809D01*
X-39515147Y7449223D02*
X-39515147Y7449223D01*
X-18489090Y33318797D02*
X-16836624Y37877313D01*
X-44928385Y11096039D02*
X-43788752Y12064722D01*
X-11993115Y14856806D02*
X-11993115Y14856806D01*
X1454503Y2947678D02*
X1169601Y1751068D01*
X-10454703Y41866012D02*
X-10340739Y39187884D01*
X-32962397Y17363995D02*
X-32962397Y17363995D01*
X4987356Y6537506D02*
X5158300Y5340897D01*
X-52335974Y11039055D02*
X-52335974Y11039055D01*
X-41794405Y11551887D02*
X-41794405Y11551887D01*
X-8802248Y30298780D02*
X-8802248Y30298780D01*
X-52620882Y9215649D02*
X-52620882Y9215649D01*
X-13246792Y38390146D02*
X-13246792Y38390146D01*
X-52620882Y9215649D02*
X-53703528Y10754147D01*
X1169601Y1751068D02*
X-1394564Y1295216D01*
X1169601Y1751068D02*
X1169601Y1751068D01*
X-14671244Y5511852D02*
X-16266722Y4885056D01*
X-8859196Y21466658D02*
X-8916146Y20611935D01*
X-27606028Y5340908D02*
X-32905302Y8189980D01*
X-44928385Y11096039D02*
X-44928385Y11096039D01*
X-13417736Y42606772D02*
X-13417736Y42606772D01*
X-20369467Y30298782D02*
X-19400791Y34914277D01*
X-10454645Y18332674D02*
X-10454645Y18332674D01*
X-19400791Y34914277D02*
X-19571736Y38789015D01*
X-35412482Y8987720D02*
X-38261557Y8588852D01*
X5158300Y5340897D02*
X5158300Y5340897D01*
X-8745261Y28076504D02*
X-8745261Y28076504D01*
X-16266722Y4885056D02*
X-16266722Y4885056D01*
X-10739584Y22321379D02*
X-10739584Y22321379D01*
X5158300Y9386585D02*
X5158300Y9386585D01*
X-8004416Y12007736D02*
X-8004416Y12007736D01*
X-11081444Y19187399D02*
X-11081444Y19187399D01*
X1568468Y13204346D02*
X1568468Y13204346D01*
X-22306866Y30241800D02*
X-21509121Y28475376D01*
X-19571736Y38789015D02*
X-20084568Y40897328D01*
X-8232429Y37478442D02*
X-8232429Y37478442D01*
X-8745261Y28076504D02*
X-7092803Y28247448D01*
X-8004416Y12007736D02*
X-1736453Y13033401D01*
X-12961890Y40897328D02*
X-13246792Y38390146D01*
X-18318146Y37991275D02*
X-18318146Y35142203D01*
X-14329445Y38789015D02*
X-13417736Y42606772D01*
X-1223620Y-72338D02*
X-3730807Y-15347D01*
X-14671244Y5511852D02*
X-14671244Y5511852D01*
X-20141573Y33489742D02*
X-20141573Y33489742D01*
X-11993115Y14856806D02*
X-12733879Y13774160D01*
X-18318146Y35142203D02*
X-18318146Y35142203D01*
X-20768254Y3118633D02*
X-20768254Y3118633D01*
X-13873591Y35484092D02*
X-13873591Y35484092D01*
D11*
X-183464934Y-71154663D02*
X-183464934Y-71154663D01*
D10*
X-9372029Y22207417D02*
X-9372029Y22207417D01*
X-12733879Y13774160D02*
X-13987469Y13033401D01*
X6183966Y8645824D02*
X5329244Y7962048D01*
X-1736453Y13033401D02*
X770725Y13489252D01*
X-30056341Y16167385D02*
X-29144640Y16395311D01*
X-38261557Y8588852D02*
X-39515147Y7449223D01*
X-12733879Y16167379D02*
X-12733879Y16167379D01*
X1568468Y13204346D02*
X2765079Y13090382D01*
X-32848433Y19529291D02*
X-33019377Y19073439D01*
X-20369467Y30298782D02*
X-20369467Y30298782D01*
X-8916207Y35199184D02*
X-7035818Y36737683D01*
X-8802248Y30298780D02*
X-7263749Y30754631D01*
X3163946Y3175602D02*
X3163946Y3175602D01*
X4246591Y11153011D02*
X4246591Y11153011D01*
X-18318146Y37991275D02*
X-18318146Y37991275D01*
X5842077Y7278267D02*
X5842077Y7278267D01*
X-11765190Y3346558D02*
X-11765190Y3346558D01*
X-16836624Y37877313D02*
X-16836624Y42492809D01*
X5329244Y7962048D02*
X5329244Y7962048D01*
D11*
X-184562102Y-71520386D02*
X-184562102Y-71520386D01*
D10*
X-37179030Y18674568D02*
X-37179030Y18674568D01*
X-3730807Y-15347D02*
X-3730807Y-15347D01*
X-21338177Y34230501D02*
X-21338177Y34230501D01*
X-39970995Y12862461D02*
X-39970995Y12862461D01*
X-10340739Y39187884D02*
X-10340739Y39187884D01*
X-7206763Y32008224D02*
X-7206763Y32008224D01*
X-20711386Y35655037D02*
X-20141573Y33489742D01*
X-47834441Y5967709D02*
X-51367285Y6765450D01*
X-41794405Y11551887D02*
X-40198920Y10925095D01*
X-20768254Y3118633D02*
X-27606028Y5340908D01*
X-15867945Y37250516D02*
X-16209833Y34857296D01*
X-6921861Y35142202D02*
X-7719596Y33489740D01*
X-8631303Y25683283D02*
X-7833559Y25569321D01*
X-8859196Y21466658D02*
X-8859196Y21466658D01*
X-46808775Y5625820D02*
X-46808775Y5625820D01*
X-48860106Y11323963D02*
X-47948397Y12178686D01*
D11*
X-184196379Y-70788940D02*
X-184196379Y-70788940D01*
D10*
X-40198920Y10925095D02*
X-40198920Y10925095D01*
X-16836624Y42492809D02*
X-15753981Y40783366D01*
X3334891Y12634531D02*
X3334891Y12634531D01*
X5158300Y5340897D02*
X3562813Y4600140D01*
X-7662616Y29102170D02*
X-7662616Y29102170D01*
X-52791827Y8759796D02*
X-52620882Y9215649D01*
X-38261557Y8588852D02*
X-38261557Y8588852D01*
X-51310309Y11722832D02*
X-48518210Y10697166D01*
X-18147110Y3517502D02*
X-20768254Y3118633D01*
X-16209833Y34857296D02*
X-16209833Y34857296D01*
X-41452521Y7107334D02*
X-41452521Y7107334D01*
X-20084568Y40897328D02*
X-20084568Y40897328D01*
X-37007963Y11153019D02*
X-37007963Y11153019D01*
X-1223620Y-72338D02*
X-1223620Y-72338D01*
X-30056341Y16167385D02*
X-30056341Y16167385D01*
X-7833559Y25569321D02*
X-7833559Y25569321D01*
X-11594248Y16509270D02*
X-12733879Y16167379D01*
X4987356Y6537506D02*
X4987356Y6537506D01*
X-48518210Y10697166D02*
X-48518210Y10697166D01*
X-20996289Y30583691D02*
X-21338177Y34230501D01*
X-16836624Y37877313D02*
X-16836624Y37877313D01*
X-39458285Y17136068D02*
X-39458285Y17136068D01*
X-20996289Y30583691D02*
X-20996289Y30583691D01*
X-7263749Y30754631D02*
X-7263749Y30754631D01*
X-37179030Y18674568D02*
X-32848433Y19529291D01*
X5842077Y7278267D02*
X4987356Y6537506D01*
X-7206763Y32008224D02*
X-8802248Y30298780D01*
X-33019377Y19073439D02*
X-32677496Y18788534D01*
X-11879237Y38789015D02*
X-11879237Y38789015D01*
X-40369986Y15255680D02*
X-40369986Y15255680D01*
X-8916174Y23574970D02*
X-8916174Y23574970D01*
X-22021954Y36965611D02*
X-22021954Y36965611D01*
X-1394564Y1295216D02*
X-1394564Y1295216D01*
X-12733879Y16167379D02*
X-11993115Y14856806D01*
X770725Y13489252D02*
X1568468Y13204346D01*
X-18147110Y3517502D02*
X-18147110Y3517502D01*
X-8916146Y20611935D02*
X-8916146Y20611935D01*
X-15753981Y40783366D02*
X-15753981Y40783366D01*
D11*
X-184562102Y-71520386D02*
X-183830656Y-71886108D01*
D10*
X-8232429Y37478442D02*
X-8916207Y35199184D01*
X-43162081Y13318312D02*
X-40369986Y15255680D01*
X-39515147Y7449223D02*
X-41452521Y7107334D01*
X-7035818Y36737683D02*
X-6921861Y35142202D01*
X-19400791Y34914277D02*
X-19400791Y34914277D01*
D11*
X-184196379Y-70788940D02*
X-184562102Y-71520386D01*
D10*
X-14785202Y11665848D02*
X-8004416Y12007736D01*
X-32905302Y8189980D02*
X-32905302Y8189980D01*
X-33361265Y18047773D02*
X-33361265Y18047773D01*
X-7719596Y33489740D02*
X-6921861Y33603704D01*
X-7092803Y28247448D02*
X-7092803Y27677633D01*
X2765079Y13090382D02*
X3334891Y12634531D01*
%LPC*%
D12*
X-29150000Y-9550000D03*
X-29090000Y28590000D03*
X9000000Y28600000D03*
X40230000Y-63820000D03*
X9300000Y-31520000D03*
X-66800000Y2400000D03*
M02*
