%FSLAX45Y45*%
G04 Gerber Fmt 4.5, Leading zero omitted, Abs format (unit mm)*
G04 Created by KiCad (PCBNEW (6.0.5)) date 2022-10-04 21:40:48*
%MOMM*%
%LPD*%
G01*
G04 APERTURE LIST*
%TA.AperFunction,Profile*%
%ADD10C,0.100000*%
%TD*%
%ADD11C,0.200000*%
%ADD12C,0.040000*%
%ADD13C,0.060000*%
%ADD14C,0.070000*%
%ADD15C,0.080000*%
%ADD16C,0.110000*%
%ADD17C,0.149860*%
%ADD18C,0.220000*%
G04 APERTURE END LIST*
D10*
X-6146000Y-7200000D02*
G75*
G03*
X-6123000Y-7274000I176352J14238D01*
G01*
X8723000Y-3511000D02*
X8723000Y5418000D01*
X-5780000Y5620000D02*
X-5958000Y5617500D01*
X3372000Y-3714000D02*
G75*
G03*
X3231000Y-3754000I-7830J-240910D01*
G01*
X8523000Y-3713999D02*
G75*
G03*
X8723000Y-3511000I-2210J202200D01*
G01*
X-5958000Y5617500D02*
G75*
G03*
X-6146000Y5417000I6952J-194908D01*
G01*
X8523000Y5617000D02*
X-4060000Y5620000D01*
X-4962000Y-8575000D02*
X-6123000Y-7274000D01*
X3372000Y-3714000D02*
X8523000Y-3714000D01*
X-4962000Y-8575000D02*
G75*
G03*
X-4783000Y-8570000I87582J71176D01*
G01*
X1674000Y-5604000D02*
G75*
G03*
X-4783000Y-8570000I507601J-9616516D01*
G01*
X1847000Y-5543000D02*
X3231000Y-3754000D01*
X-6146000Y5417000D02*
X-6146000Y-7200000D01*
X8723000Y5418000D02*
G75*
G03*
X8523000Y5617000I-197610J1400D01*
G01*
X1674000Y-5603996D02*
G75*
G03*
X1847000Y-5543000I15170J232806D01*
G01*
D11*
D12*
X-2045000Y5145000D02*
X-2005000Y5105000D01*
X-2005000Y5145000D02*
X-2045000Y5105000D01*
X6455000Y1245000D02*
X6495000Y1205000D01*
X6495000Y1245000D02*
X6455000Y1205000D01*
X7755000Y2195000D02*
X7795000Y2155000D01*
X7795000Y2195000D02*
X7755000Y2155000D01*
D13*
X-5635000Y4065000D02*
G75*
G03*
X-5635000Y4065000I-30000J0D01*
G01*
X-5485000Y4065000D02*
G75*
G03*
X-5485000Y4065000I-30000J0D01*
G01*
D14*
X-5785000Y4933000D02*
X-5785000Y4863000D01*
X-5820000Y4898000D02*
X-5750000Y4898000D01*
X-5785000Y4425000D02*
X-5785000Y4355000D01*
X-5820000Y4390000D02*
X-5750000Y4390000D01*
X-4999000Y4135000D02*
X-4999000Y4065000D01*
X-5034000Y4100000D02*
X-4964000Y4100000D01*
X-4491000Y4135000D02*
X-4491000Y4065000D01*
X-4526000Y4100000D02*
X-4456000Y4100000D01*
D15*
X-5637715Y-427284D02*
X-5637715Y-370715D01*
X-5694284Y-370715D01*
X-5694284Y-427284D01*
X-5637715Y-427284D01*
X-5637715Y-927284D02*
X-5637715Y-870715D01*
X-5694284Y-870715D01*
X-5694284Y-927284D01*
X-5637715Y-927284D01*
X-5346716Y1471715D02*
X-5346716Y1528284D01*
X-5403285Y1528284D01*
X-5403285Y1471715D01*
X-5346716Y1471715D01*
X-5346716Y1217716D02*
X-5346716Y1274285D01*
X-5403285Y1274285D01*
X-5403285Y1217716D01*
X-5346716Y1217716D01*
X-5346716Y963715D02*
X-5346716Y1020284D01*
X-5403285Y1020284D01*
X-5403285Y963715D01*
X-5346716Y963715D01*
X-5346716Y709715D02*
X-5346716Y766284D01*
X-5403285Y766284D01*
X-5403285Y709715D01*
X-5346716Y709715D01*
X-5346716Y455715D02*
X-5346716Y512284D01*
X-5403285Y512284D01*
X-5403285Y455715D01*
X-5346716Y455715D01*
X-5346716Y201715D02*
X-5346716Y258284D01*
X-5403285Y258284D01*
X-5403285Y201715D01*
X-5346716Y201715D01*
X-5346716Y-52284D02*
X-5346716Y4285D01*
X-5403285Y4285D01*
X-5403285Y-52284D01*
X-5346716Y-52284D01*
X-5346716Y-306285D02*
X-5346716Y-249715D01*
X-5403285Y-249715D01*
X-5403285Y-306285D01*
X-5346716Y-306285D01*
X-5346716Y-560285D02*
X-5346716Y-503715D01*
X-5403285Y-503715D01*
X-5403285Y-560285D01*
X-5346716Y-560285D01*
X-5346716Y-814284D02*
X-5346716Y-757715D01*
X-5403285Y-757715D01*
X-5403285Y-814284D01*
X-5346716Y-814284D01*
X-5346716Y-1068285D02*
X-5346716Y-1011715D01*
X-5403285Y-1011715D01*
X-5403285Y-1068285D01*
X-5346716Y-1068285D01*
X-5346716Y-1322285D02*
X-5346716Y-1265716D01*
X-5403285Y-1265716D01*
X-5403285Y-1322285D01*
X-5346716Y-1322285D01*
X-5346716Y-1576284D02*
X-5346716Y-1519715D01*
X-5403285Y-1519715D01*
X-5403285Y-1576284D01*
X-5346716Y-1576284D01*
X-5346716Y-1830284D02*
X-5346716Y-1773715D01*
X-5403285Y-1773715D01*
X-5403285Y-1830284D01*
X-5346716Y-1830284D01*
X-5326716Y-5548285D02*
X-5326716Y-5491716D01*
X-5383285Y-5491716D01*
X-5383285Y-5548285D01*
X-5326716Y-5548285D01*
X-4818716Y-5548285D02*
X-4818716Y-5491716D01*
X-4875285Y-5491716D01*
X-4875285Y-5548285D01*
X-4818716Y-5548285D01*
X-4584716Y1471715D02*
X-4584716Y1528284D01*
X-4641285Y1528284D01*
X-4641285Y1471715D01*
X-4584716Y1471715D01*
X-4584716Y1217716D02*
X-4584716Y1274285D01*
X-4641285Y1274285D01*
X-4641285Y1217716D01*
X-4584716Y1217716D01*
X-4584716Y963715D02*
X-4584716Y1020284D01*
X-4641285Y1020284D01*
X-4641285Y963715D01*
X-4584716Y963715D01*
X-4584716Y709715D02*
X-4584716Y766284D01*
X-4641285Y766284D01*
X-4641285Y709715D01*
X-4584716Y709715D01*
X-4584716Y455715D02*
X-4584716Y512284D01*
X-4641285Y512284D01*
X-4641285Y455715D01*
X-4584716Y455715D01*
X-4584716Y201715D02*
X-4584716Y258284D01*
X-4641285Y258284D01*
X-4641285Y201715D01*
X-4584716Y201715D01*
X-4584716Y-52284D02*
X-4584716Y4285D01*
X-4641285Y4285D01*
X-4641285Y-52284D01*
X-4584716Y-52284D01*
X-4584716Y-306285D02*
X-4584716Y-249715D01*
X-4641285Y-249715D01*
X-4641285Y-306285D01*
X-4584716Y-306285D01*
X-4584716Y-560285D02*
X-4584716Y-503715D01*
X-4641285Y-503715D01*
X-4641285Y-560285D01*
X-4584716Y-560285D01*
X-4584716Y-814284D02*
X-4584716Y-757715D01*
X-4641285Y-757715D01*
X-4641285Y-814284D01*
X-4584716Y-814284D01*
X-4584716Y-1068285D02*
X-4584716Y-1011715D01*
X-4641285Y-1011715D01*
X-4641285Y-1068285D01*
X-4584716Y-1068285D01*
X-4584716Y-1322285D02*
X-4584716Y-1265716D01*
X-4641285Y-1265716D01*
X-4641285Y-1322285D01*
X-4584716Y-1322285D01*
X-4584716Y-1576284D02*
X-4584716Y-1519715D01*
X-4641285Y-1519715D01*
X-4641285Y-1576284D01*
X-4584716Y-1576284D01*
X-4584716Y-1830284D02*
X-4584716Y-1773715D01*
X-4641285Y-1773715D01*
X-4641285Y-1830284D01*
X-4584716Y-1830284D01*
X-3876715Y-4393285D02*
X-3876715Y-4336716D01*
X-3933284Y-4336716D01*
X-3933284Y-4393285D01*
X-3876715Y-4393285D01*
X-3630345Y1221716D02*
X-3630345Y1278285D01*
X-3686914Y1278285D01*
X-3686914Y1221716D01*
X-3630345Y1221716D01*
X-3630345Y-478284D02*
X-3630345Y-421715D01*
X-3686914Y-421715D01*
X-3686914Y-478284D01*
X-3630345Y-478284D01*
X-3628465Y-1978284D02*
X-3628465Y-1921715D01*
X-3685034Y-1921715D01*
X-3685034Y-1978284D01*
X-3628465Y-1978284D01*
X-3564715Y2711716D02*
X-3564715Y2768285D01*
X-3621284Y2768285D01*
X-3621284Y2711716D01*
X-3564715Y2711716D01*
X-3480345Y1971715D02*
X-3480345Y2028284D01*
X-3536914Y2028284D01*
X-3536914Y1971715D01*
X-3480345Y1971715D01*
X-3455345Y321716D02*
X-3455345Y378284D01*
X-3511914Y378284D01*
X-3511914Y321716D01*
X-3455345Y321716D01*
X-3455345Y-1203285D02*
X-3455345Y-1146716D01*
X-3511914Y-1146716D01*
X-3511914Y-1203285D01*
X-3455345Y-1203285D01*
X-3453465Y-2703285D02*
X-3453465Y-2646716D01*
X-3510034Y-2646716D01*
X-3510034Y-2703285D01*
X-3453465Y-2703285D01*
X-3368715Y-4393285D02*
X-3368715Y-4336716D01*
X-3425284Y-4336716D01*
X-3425284Y-4393285D01*
X-3368715Y-4393285D01*
X-3122345Y1221716D02*
X-3122345Y1278285D01*
X-3178914Y1278285D01*
X-3178914Y1221716D01*
X-3122345Y1221716D01*
X-3122345Y-478284D02*
X-3122345Y-421715D01*
X-3178914Y-421715D01*
X-3178914Y-478284D01*
X-3122345Y-478284D01*
X-3120465Y-1978284D02*
X-3120465Y-1921715D01*
X-3177034Y-1921715D01*
X-3177034Y-1978284D01*
X-3120465Y-1978284D01*
X-3056715Y2711716D02*
X-3056715Y2768285D01*
X-3113284Y2768285D01*
X-3113284Y2711716D01*
X-3056715Y2711716D01*
X-2972345Y1971715D02*
X-2972345Y2028284D01*
X-3028914Y2028284D01*
X-3028914Y1971715D01*
X-2972345Y1971715D01*
X-2947345Y321716D02*
X-2947345Y378284D01*
X-3003914Y378284D01*
X-3003914Y321716D01*
X-2947345Y321716D01*
X-2947345Y-1203285D02*
X-2947345Y-1146716D01*
X-3003914Y-1146716D01*
X-3003914Y-1203285D01*
X-2947345Y-1203285D01*
X-2945465Y-2703285D02*
X-2945465Y-2646716D01*
X-3002034Y-2646716D01*
X-3002034Y-2703285D01*
X-2945465Y-2703285D01*
X-1334716Y4831716D02*
X-1334716Y4888285D01*
X-1391285Y4888285D01*
X-1391285Y4831716D01*
X-1334716Y4831716D01*
X-826715Y4831716D02*
X-826715Y4888285D01*
X-883284Y4888285D01*
X-883284Y4831716D01*
X-826715Y4831716D01*
X-589716Y5216716D02*
X-589716Y5273285D01*
X-646285Y5273285D01*
X-646285Y5216716D01*
X-589716Y5216716D01*
X-266716Y-3298284D02*
X-266716Y-3241715D01*
X-323285Y-3241715D01*
X-323285Y-3298284D01*
X-266716Y-3298284D01*
X-81716Y5216716D02*
X-81716Y5273285D01*
X-138285Y5273285D01*
X-138285Y5216716D01*
X-81716Y5216716D01*
X175284Y4831716D02*
X175284Y4888285D01*
X118715Y4888285D01*
X118715Y4831716D01*
X175284Y4831716D01*
X241284Y-3298284D02*
X241284Y-3241715D01*
X184715Y-3241715D01*
X184715Y-3298284D01*
X241284Y-3298284D01*
X683285Y4831716D02*
X683285Y4888285D01*
X626716Y4888285D01*
X626716Y4831716D01*
X683285Y4831716D01*
X905284Y-268285D02*
X905284Y-211715D01*
X848715Y-211715D01*
X848715Y-268285D01*
X905284Y-268285D01*
X1413284Y-268285D02*
X1413284Y-211715D01*
X1356716Y-211715D01*
X1356716Y-268285D01*
X1413284Y-268285D01*
X1732034Y-2868284D02*
X1732034Y-2811715D01*
X1675465Y-2811715D01*
X1675465Y-2868284D01*
X1732034Y-2868284D01*
X2240035Y-2868284D02*
X2240035Y-2811715D01*
X2183466Y-2811715D01*
X2183466Y-2868284D01*
X2240035Y-2868284D01*
X3603284Y5221716D02*
X3603284Y5278285D01*
X3546715Y5278285D01*
X3546715Y5221716D01*
X3603284Y5221716D01*
X3616534Y-968284D02*
X3616534Y-911715D01*
X3559965Y-911715D01*
X3559965Y-968284D01*
X3616534Y-968284D01*
X4111284Y5221716D02*
X4111284Y5278285D01*
X4054715Y5278285D01*
X4054715Y5221716D01*
X4111284Y5221716D01*
X4124534Y-968284D02*
X4124534Y-911715D01*
X4067965Y-911715D01*
X4067965Y-968284D01*
X4124534Y-968284D01*
X4778285Y5221716D02*
X4778285Y5278285D01*
X4721716Y5278285D01*
X4721716Y5221716D01*
X4778285Y5221716D01*
X4898285Y4466716D02*
X4898285Y4523285D01*
X4841716Y4523285D01*
X4841716Y4466716D01*
X4898285Y4466716D01*
X5286285Y5221716D02*
X5286285Y5278285D01*
X5229716Y5278285D01*
X5229716Y5221716D01*
X5286285Y5221716D01*
X5406285Y4466716D02*
X5406285Y4523285D01*
X5349716Y4523285D01*
X5349716Y4466716D01*
X5406285Y4466716D01*
X5952034Y5216716D02*
X5952034Y5273285D01*
X5895465Y5273285D01*
X5895465Y5216716D01*
X5952034Y5216716D01*
X6143284Y4466716D02*
X6143284Y4523285D01*
X6086715Y4523285D01*
X6086715Y4466716D01*
X6143284Y4466716D01*
X6460034Y5216716D02*
X6460034Y5273285D01*
X6403465Y5273285D01*
X6403465Y5216716D01*
X6460034Y5216716D01*
X6651284Y4466716D02*
X6651284Y4523285D01*
X6594715Y4523285D01*
X6594715Y4466716D01*
X6651284Y4466716D01*
X6778284Y4016715D02*
X6778284Y4073284D01*
X6721715Y4073284D01*
X6721715Y4016715D01*
X6778284Y4016715D01*
X6898284Y3171715D02*
X6898284Y3228284D01*
X6841715Y3228284D01*
X6841715Y3171715D01*
X6898284Y3171715D01*
X7286284Y4016715D02*
X7286284Y4073284D01*
X7229715Y4073284D01*
X7229715Y4016715D01*
X7286284Y4016715D01*
X7406284Y3171715D02*
X7406284Y3228284D01*
X7349715Y3228284D01*
X7349715Y3171715D01*
X7406284Y3171715D01*
X7558284Y4466716D02*
X7558284Y4523285D01*
X7501715Y4523285D01*
X7501715Y4466716D01*
X7558284Y4466716D01*
X7683284Y3596715D02*
X7683284Y3653284D01*
X7626715Y3653284D01*
X7626715Y3596715D01*
X7683284Y3596715D01*
X7802034Y2746716D02*
X7802034Y2803284D01*
X7745465Y2803284D01*
X7745465Y2746716D01*
X7802034Y2746716D01*
X8066284Y4466716D02*
X8066284Y4523285D01*
X8009715Y4523285D01*
X8009715Y4466716D01*
X8066284Y4466716D01*
X8191284Y3596715D02*
X8191284Y3653284D01*
X8134715Y3653284D01*
X8134715Y3596715D01*
X8191284Y3596715D01*
X8310034Y2746716D02*
X8310034Y2803284D01*
X8253465Y2803284D01*
X8253465Y2746716D01*
X8310034Y2746716D01*
D16*
X-5345000Y5275000D02*
X-5290000Y5330000D01*
X-5345000Y5385000D01*
X-5400000Y5330000D01*
X-5345000Y5275000D01*
X-5255000Y4775000D02*
X-5200000Y4830000D01*
X-5255000Y4885000D01*
X-5310000Y4830000D01*
X-5255000Y4775000D01*
X-4735000Y4465000D02*
X-4680000Y4520000D01*
X-4735000Y4575000D01*
X-4790000Y4520000D01*
X-4735000Y4465000D01*
X-4415000Y5275000D02*
X-4360000Y5330000D01*
X-4415000Y5385000D01*
X-4470000Y5330000D01*
X-4415000Y5275000D01*
D17*
X-5355027Y-7097250D02*
X-5205167Y-7247110D01*
X-5205167Y-7097250D02*
X-5355027Y-7247110D01*
X-5205167Y-7172180D02*
G75*
G03*
X-5205167Y-7172180I-74930J0D01*
G01*
X-5053090Y-6483593D02*
X-4903230Y-6633453D01*
X-4903230Y-6483593D02*
X-5053090Y-6633453D01*
X-4903230Y-6558523D02*
G75*
G03*
X-4903230Y-6558523I-74930J0D01*
G01*
X-3657699Y-5662300D02*
X-3507839Y-5812160D01*
X-3507839Y-5662300D02*
X-3657699Y-5812160D01*
X-3507839Y-5737230D02*
G75*
G03*
X-3507839Y-5737230I-74930J0D01*
G01*
X-3216273Y-5139917D02*
X-3066413Y-5289777D01*
X-3066413Y-5139917D02*
X-3216273Y-5289777D01*
X-3066413Y-5214847D02*
G75*
G03*
X-3066413Y-5214847I-74930J0D01*
G01*
X-2360930Y3900810D02*
X-2211070Y3750950D01*
X-2211070Y3900810D02*
X-2360930Y3750950D01*
X-2211070Y3825880D02*
G75*
G03*
X-2211070Y3825880I-74930J0D01*
G01*
X-2360930Y1995810D02*
X-2211070Y1845950D01*
X-2211070Y1995810D02*
X-2360930Y1845950D01*
X-2211070Y1920880D02*
G75*
G03*
X-2211070Y1920880I-74930J0D01*
G01*
X-2360930Y90800D02*
X-2211070Y-59060D01*
X-2211070Y90800D02*
X-2360930Y-59060D01*
X-2211070Y15870D02*
G75*
G03*
X-2211070Y15870I-74930J0D01*
G01*
X-2360930Y-1814200D02*
X-2211070Y-1964060D01*
X-2211070Y-1814200D02*
X-2360930Y-1964060D01*
X-2211070Y-1889130D02*
G75*
G03*
X-2211070Y-1889130I-74930J0D01*
G01*
X-1725930Y4154810D02*
X-1576070Y4004950D01*
X-1576070Y4154810D02*
X-1725930Y4004950D01*
X-1576070Y4079880D02*
G75*
G03*
X-1576070Y4079880I-74930J0D01*
G01*
X-1725930Y2249810D02*
X-1576070Y2099950D01*
X-1576070Y2249810D02*
X-1725930Y2099950D01*
X-1576070Y2174880D02*
G75*
G03*
X-1576070Y2174880I-74930J0D01*
G01*
X-1725930Y344800D02*
X-1576070Y194940D01*
X-1576070Y344800D02*
X-1725930Y194940D01*
X-1576070Y269870D02*
G75*
G03*
X-1576070Y269870I-74930J0D01*
G01*
X-1725930Y-1560200D02*
X-1576070Y-1710060D01*
X-1576070Y-1560200D02*
X-1725930Y-1710060D01*
X-1576070Y-1635130D02*
G75*
G03*
X-1576070Y-1635130I-74930J0D01*
G01*
X-1669181Y-4672417D02*
X-1519321Y-4822277D01*
X-1519321Y-4672417D02*
X-1669181Y-4822277D01*
X-1519321Y-4747347D02*
G75*
G03*
X-1519321Y-4747347I-74930J0D01*
G01*
X-1114491Y-4272342D02*
X-964631Y-4422202D01*
X-964631Y-4272342D02*
X-1114491Y-4422202D01*
X-964631Y-4347272D02*
G75*
G03*
X-964631Y-4347272I-74930J0D01*
G01*
X-455930Y4138930D02*
X-306070Y3989070D01*
X-306070Y4138930D02*
X-455930Y3989070D01*
X-306070Y4064000D02*
G75*
G03*
X-306070Y4064000I-74930J0D01*
G01*
X-455930Y2233930D02*
X-306070Y2084070D01*
X-306070Y2233930D02*
X-455930Y2084070D01*
X-306070Y2159000D02*
G75*
G03*
X-306070Y2159000I-74930J0D01*
G01*
X-455930Y328930D02*
X-306070Y179070D01*
X-306070Y328930D02*
X-455930Y179070D01*
X-306070Y254000D02*
G75*
G03*
X-306070Y254000I-74930J0D01*
G01*
X-455930Y-1576070D02*
X-306070Y-1725930D01*
X-306070Y-1576070D02*
X-455930Y-1725930D01*
X-306070Y-1651000D02*
G75*
G03*
X-306070Y-1651000I-74930J0D01*
G01*
X179070Y4392930D02*
X328930Y4243070D01*
X328930Y4392930D02*
X179070Y4243070D01*
X328930Y4318000D02*
G75*
G03*
X328930Y4318000I-74930J0D01*
G01*
X179070Y2487930D02*
X328930Y2338070D01*
X328930Y2487930D02*
X179070Y2338070D01*
X328930Y2413000D02*
G75*
G03*
X328930Y2413000I-74930J0D01*
G01*
X179070Y582930D02*
X328930Y433070D01*
X328930Y582930D02*
X179070Y433070D01*
X328930Y508000D02*
G75*
G03*
X328930Y508000I-74930J0D01*
G01*
X179070Y-1322070D02*
X328930Y-1471930D01*
X328930Y-1322070D02*
X179070Y-1471930D01*
X328930Y-1397000D02*
G75*
G03*
X328930Y-1397000I-74930J0D01*
G01*
X496570Y-4195450D02*
X646430Y-4345310D01*
X646430Y-4195450D02*
X496570Y-4345310D01*
X646430Y-4270380D02*
G75*
G03*
X646430Y-4270380I-74930J0D01*
G01*
X1131570Y-3941450D02*
X1281430Y-4091310D01*
X1281430Y-3941450D02*
X1131570Y-4091310D01*
X1281430Y-4016380D02*
G75*
G03*
X1281430Y-4016380I-74930J0D01*
G01*
X1449070Y4853310D02*
X1598930Y4703450D01*
X1598930Y4853310D02*
X1449070Y4703450D01*
X1598930Y4778380D02*
G75*
G03*
X1598930Y4778380I-74930J0D01*
G01*
X1449070Y2948310D02*
X1598930Y2798450D01*
X1598930Y2948310D02*
X1449070Y2798450D01*
X1598930Y2873380D02*
G75*
G03*
X1598930Y2873380I-74930J0D01*
G01*
X1449070Y1043310D02*
X1598930Y893450D01*
X1598930Y1043310D02*
X1449070Y893450D01*
X1598930Y968380D02*
G75*
G03*
X1598930Y968380I-74930J0D01*
G01*
X1449070Y-861700D02*
X1598930Y-1011560D01*
X1598930Y-861700D02*
X1449070Y-1011560D01*
X1598930Y-936630D02*
G75*
G03*
X1598930Y-936630I-74930J0D01*
G01*
X2084070Y5107310D02*
X2233930Y4957450D01*
X2233930Y5107310D02*
X2084070Y4957450D01*
X2233930Y5032380D02*
G75*
G03*
X2233930Y5032380I-74930J0D01*
G01*
X2084070Y3202310D02*
X2233930Y3052450D01*
X2233930Y3202310D02*
X2084070Y3052450D01*
X2233930Y3127380D02*
G75*
G03*
X2233930Y3127380I-74930J0D01*
G01*
X2084070Y1297310D02*
X2233930Y1147450D01*
X2233930Y1297310D02*
X2084070Y1147450D01*
X2233930Y1222380D02*
G75*
G03*
X2233930Y1222380I-74930J0D01*
G01*
X2084070Y-607700D02*
X2233930Y-757560D01*
X2233930Y-607700D02*
X2084070Y-757560D01*
X2233930Y-682630D02*
G75*
G03*
X2233930Y-682630I-74930J0D01*
G01*
X3354070Y4138930D02*
X3503930Y3989070D01*
X3503930Y4138930D02*
X3354070Y3989070D01*
X3503930Y4064000D02*
G75*
G03*
X3503930Y4064000I-74930J0D01*
G01*
X3354070Y2233930D02*
X3503930Y2084070D01*
X3503930Y2233930D02*
X3354070Y2084070D01*
X3503930Y2159000D02*
G75*
G03*
X3503930Y2159000I-74930J0D01*
G01*
X3354070Y328930D02*
X3503930Y179070D01*
X3503930Y328930D02*
X3354070Y179070D01*
X3503930Y254000D02*
G75*
G03*
X3503930Y254000I-74930J0D01*
G01*
X3354070Y-1576070D02*
X3503930Y-1725930D01*
X3503930Y-1576070D02*
X3354070Y-1725930D01*
X3503930Y-1651000D02*
G75*
G03*
X3503930Y-1651000I-74930J0D01*
G01*
X3989070Y4392930D02*
X4138930Y4243070D01*
X4138930Y4392930D02*
X3989070Y4243070D01*
X4138930Y4318000D02*
G75*
G03*
X4138930Y4318000I-74930J0D01*
G01*
X3989070Y2487930D02*
X4138930Y2338070D01*
X4138930Y2487930D02*
X3989070Y2338070D01*
X4138930Y2413000D02*
G75*
G03*
X4138930Y2413000I-74930J0D01*
G01*
X3989070Y582930D02*
X4138930Y433070D01*
X4138930Y582930D02*
X3989070Y433070D01*
X4138930Y508000D02*
G75*
G03*
X4138930Y508000I-74930J0D01*
G01*
X3989070Y-1322070D02*
X4138930Y-1471930D01*
X4138930Y-1322070D02*
X3989070Y-1471930D01*
X4138930Y-1397000D02*
G75*
G03*
X4138930Y-1397000I-74930J0D01*
G01*
X5259070Y3424560D02*
X5408930Y3274700D01*
X5408930Y3424560D02*
X5259070Y3274700D01*
X5408930Y3349630D02*
G75*
G03*
X5408930Y3349630I-74930J0D01*
G01*
X5259070Y1519560D02*
X5408930Y1369700D01*
X5408930Y1519560D02*
X5259070Y1369700D01*
X5408930Y1444630D02*
G75*
G03*
X5408930Y1444630I-74930J0D01*
G01*
X5259070Y-385450D02*
X5408930Y-535310D01*
X5408930Y-385450D02*
X5259070Y-535310D01*
X5408930Y-460380D02*
G75*
G03*
X5408930Y-460380I-74930J0D01*
G01*
X5259070Y-2290450D02*
X5408930Y-2440310D01*
X5408930Y-2290450D02*
X5259070Y-2440310D01*
X5408930Y-2365380D02*
G75*
G03*
X5408930Y-2365380I-74930J0D01*
G01*
X5894070Y3678560D02*
X6043930Y3528700D01*
X6043930Y3678560D02*
X5894070Y3528700D01*
X6043930Y3603630D02*
G75*
G03*
X6043930Y3603630I-74930J0D01*
G01*
X5894070Y1773560D02*
X6043930Y1623700D01*
X6043930Y1773560D02*
X5894070Y1623700D01*
X6043930Y1698630D02*
G75*
G03*
X6043930Y1698630I-74930J0D01*
G01*
X5894070Y-131450D02*
X6043930Y-281310D01*
X6043930Y-131450D02*
X5894070Y-281310D01*
X6043930Y-206380D02*
G75*
G03*
X6043930Y-206380I-74930J0D01*
G01*
X5894070Y-2036450D02*
X6043930Y-2186310D01*
X6043930Y-2036450D02*
X5894070Y-2186310D01*
X6043930Y-2111380D02*
G75*
G03*
X6043930Y-2111380I-74930J0D01*
G01*
X7164070Y1519560D02*
X7313930Y1369700D01*
X7313930Y1519560D02*
X7164070Y1369700D01*
X7313930Y1444630D02*
G75*
G03*
X7313930Y1444630I-74930J0D01*
G01*
X7164070Y-385450D02*
X7313930Y-535310D01*
X7313930Y-385450D02*
X7164070Y-535310D01*
X7313930Y-460380D02*
G75*
G03*
X7313930Y-460380I-74930J0D01*
G01*
X7164070Y-2290450D02*
X7313930Y-2440310D01*
X7313930Y-2290450D02*
X7164070Y-2440310D01*
X7313930Y-2365380D02*
G75*
G03*
X7313930Y-2365380I-74930J0D01*
G01*
X7799070Y1773560D02*
X7948930Y1623700D01*
X7948930Y1773560D02*
X7799070Y1623700D01*
X7948930Y1698630D02*
G75*
G03*
X7948930Y1698630I-74930J0D01*
G01*
X7799070Y-131450D02*
X7948930Y-281310D01*
X7948930Y-131450D02*
X7799070Y-281310D01*
X7948930Y-206380D02*
G75*
G03*
X7948930Y-206380I-74930J0D01*
G01*
X7799070Y-2036450D02*
X7948930Y-2186310D01*
X7948930Y-2036450D02*
X7799070Y-2186310D01*
X7948930Y-2111380D02*
G75*
G03*
X7948930Y-2111380I-74930J0D01*
G01*
D18*
X-4133000Y-6272000D02*
X-3913000Y-6492000D01*
X-3913000Y-6272000D02*
X-4133000Y-6492000D01*
X-4023000Y-6272000D02*
X-4023000Y-6492000D01*
X-4133000Y-6382000D02*
X-3913000Y-6382000D01*
X-1040000Y-3042000D02*
X-820000Y-3262000D01*
X-820000Y-3042000D02*
X-1040000Y-3262000D01*
X-930000Y-3042000D02*
X-930000Y-3262000D01*
X-1040000Y-3152000D02*
X-820000Y-3152000D01*
X-1010000Y2970000D02*
X-790000Y2750000D01*
X-790000Y2970000D02*
X-1010000Y2750000D01*
X-900000Y2970000D02*
X-900000Y2750000D01*
X-1010000Y2860000D02*
X-790000Y2860000D01*
X2799000Y2969000D02*
X3019000Y2749000D01*
X3019000Y2969000D02*
X2799000Y2749000D01*
X2909000Y2969000D02*
X2909000Y2749000D01*
X2799000Y2859000D02*
X3019000Y2859000D01*
X2805000Y-845000D02*
X3025000Y-1065000D01*
X3025000Y-845000D02*
X2805000Y-1065000D01*
X2915000Y-845000D02*
X2915000Y-1065000D01*
X2805000Y-955000D02*
X3025000Y-955000D01*
X6570000Y350000D02*
X6790000Y130000D01*
X6790000Y350000D02*
X6570000Y130000D01*
X6680000Y350000D02*
X6680000Y130000D01*
X6570000Y240000D02*
X6790000Y240000D01*
D11*
X-5893461Y-8932157D02*
X-5893461Y-8732157D01*
X-5845842Y-8732157D01*
X-5817271Y-8741681D01*
X-5798223Y-8760728D01*
X-5788699Y-8779776D01*
X-5779175Y-8817871D01*
X-5779175Y-8846442D01*
X-5788699Y-8884538D01*
X-5798223Y-8903585D01*
X-5817271Y-8922633D01*
X-5845842Y-8932157D01*
X-5893461Y-8932157D01*
X-5693461Y-8932157D02*
X-5693461Y-8798823D01*
X-5693461Y-8836919D02*
X-5683937Y-8817871D01*
X-5674413Y-8808347D01*
X-5655366Y-8798823D01*
X-5636318Y-8798823D01*
X-5569652Y-8932157D02*
X-5569652Y-8798823D01*
X-5569652Y-8732157D02*
X-5579175Y-8741681D01*
X-5569652Y-8751204D01*
X-5560128Y-8741681D01*
X-5569652Y-8732157D01*
X-5569652Y-8751204D01*
X-5445842Y-8932157D02*
X-5464890Y-8922633D01*
X-5474414Y-8903585D01*
X-5474414Y-8732157D01*
X-5341080Y-8932157D02*
X-5360128Y-8922633D01*
X-5369652Y-8903585D01*
X-5369652Y-8732157D01*
X-5112509Y-8932157D02*
X-5112509Y-8732157D01*
X-5045842Y-8875014D01*
X-4979175Y-8732157D01*
X-4979175Y-8932157D01*
X-4798223Y-8932157D02*
X-4798223Y-8827395D01*
X-4807747Y-8808347D01*
X-4826794Y-8798823D01*
X-4864890Y-8798823D01*
X-4883937Y-8808347D01*
X-4798223Y-8922633D02*
X-4817271Y-8932157D01*
X-4864890Y-8932157D01*
X-4883937Y-8922633D01*
X-4893461Y-8903585D01*
X-4893461Y-8884538D01*
X-4883937Y-8865490D01*
X-4864890Y-8855966D01*
X-4817271Y-8855966D01*
X-4798223Y-8846442D01*
X-4702985Y-8798823D02*
X-4702985Y-8998823D01*
X-4702985Y-8808347D02*
X-4683937Y-8798823D01*
X-4645842Y-8798823D01*
X-4626794Y-8808347D01*
X-4617271Y-8817871D01*
X-4607747Y-8836919D01*
X-4607747Y-8894061D01*
X-4617271Y-8913109D01*
X-4626794Y-8922633D01*
X-4645842Y-8932157D01*
X-4683937Y-8932157D01*
X-4702985Y-8922633D01*
X-4522033Y-8913109D02*
X-4512509Y-8922633D01*
X-4522033Y-8932157D01*
X-4531556Y-8922633D01*
X-4522033Y-8913109D01*
X-4522033Y-8932157D01*
X-4522033Y-8808347D02*
X-4512509Y-8817871D01*
X-4522033Y-8827395D01*
X-4531556Y-8817871D01*
X-4522033Y-8808347D01*
X-4522033Y-8827395D01*
D12*
X-6191080Y-9241681D02*
X-6151080Y-9281681D01*
X-6151080Y-9241681D02*
X-6191080Y-9281681D01*
D11*
X-5855366Y-9152157D02*
X-5836318Y-9152157D01*
X-5817271Y-9161681D01*
X-5807747Y-9171204D01*
X-5798223Y-9190252D01*
X-5788699Y-9228347D01*
X-5788699Y-9275966D01*
X-5798223Y-9314061D01*
X-5807747Y-9333109D01*
X-5817271Y-9342633D01*
X-5836318Y-9352157D01*
X-5855366Y-9352157D01*
X-5874413Y-9342633D01*
X-5883937Y-9333109D01*
X-5893461Y-9314061D01*
X-5902985Y-9275966D01*
X-5902985Y-9228347D01*
X-5893461Y-9190252D01*
X-5883937Y-9171204D01*
X-5874413Y-9161681D01*
X-5855366Y-9152157D01*
X-5702985Y-9333109D02*
X-5693461Y-9342633D01*
X-5702985Y-9352157D01*
X-5712509Y-9342633D01*
X-5702985Y-9333109D01*
X-5702985Y-9352157D01*
X-5522033Y-9218823D02*
X-5522033Y-9352157D01*
X-5569652Y-9142633D02*
X-5617271Y-9285490D01*
X-5493461Y-9285490D01*
X-5379175Y-9152157D02*
X-5360128Y-9152157D01*
X-5341080Y-9161681D01*
X-5331556Y-9171204D01*
X-5322033Y-9190252D01*
X-5312509Y-9228347D01*
X-5312509Y-9275966D01*
X-5322033Y-9314061D01*
X-5331556Y-9333109D01*
X-5341080Y-9342633D01*
X-5360128Y-9352157D01*
X-5379175Y-9352157D01*
X-5398223Y-9342633D01*
X-5407747Y-9333109D01*
X-5417271Y-9314061D01*
X-5426794Y-9275966D01*
X-5426794Y-9228347D01*
X-5417271Y-9190252D01*
X-5407747Y-9171204D01*
X-5398223Y-9161681D01*
X-5379175Y-9152157D01*
X-5188699Y-9152157D02*
X-5169652Y-9152157D01*
X-5150604Y-9161681D01*
X-5141080Y-9171204D01*
X-5131556Y-9190252D01*
X-5122033Y-9228347D01*
X-5122033Y-9275966D01*
X-5131556Y-9314061D01*
X-5141080Y-9333109D01*
X-5150604Y-9342633D01*
X-5169652Y-9352157D01*
X-5188699Y-9352157D01*
X-5207747Y-9342633D01*
X-5217271Y-9333109D01*
X-5226794Y-9314061D01*
X-5236318Y-9275966D01*
X-5236318Y-9228347D01*
X-5226794Y-9190252D01*
X-5217271Y-9171204D01*
X-5207747Y-9161681D01*
X-5188699Y-9152157D01*
X-5036318Y-9352157D02*
X-5036318Y-9218823D01*
X-5036318Y-9237871D02*
X-5026794Y-9228347D01*
X-5007747Y-9218823D01*
X-4979175Y-9218823D01*
X-4960128Y-9228347D01*
X-4950604Y-9247395D01*
X-4950604Y-9352157D01*
X-4950604Y-9247395D02*
X-4941080Y-9228347D01*
X-4922033Y-9218823D01*
X-4893461Y-9218823D01*
X-4874414Y-9228347D01*
X-4864890Y-9247395D01*
X-4864890Y-9352157D01*
X-4769652Y-9352157D02*
X-4769652Y-9218823D01*
X-4769652Y-9237871D02*
X-4760128Y-9228347D01*
X-4741080Y-9218823D01*
X-4712509Y-9218823D01*
X-4693461Y-9228347D01*
X-4683937Y-9247395D01*
X-4683937Y-9352157D01*
X-4683937Y-9247395D02*
X-4674414Y-9228347D01*
X-4655366Y-9218823D01*
X-4626794Y-9218823D01*
X-4607747Y-9228347D01*
X-4598223Y-9247395D01*
X-4598223Y-9352157D01*
X-4207747Y-9142633D02*
X-4379175Y-9399776D01*
X-3950604Y-9152157D02*
X-3931556Y-9152157D01*
X-3912509Y-9161681D01*
X-3902985Y-9171204D01*
X-3893461Y-9190252D01*
X-3883937Y-9228347D01*
X-3883937Y-9275966D01*
X-3893461Y-9314061D01*
X-3902985Y-9333109D01*
X-3912509Y-9342633D01*
X-3931556Y-9352157D01*
X-3950604Y-9352157D01*
X-3969652Y-9342633D01*
X-3979175Y-9333109D01*
X-3988699Y-9314061D01*
X-3998223Y-9275966D01*
X-3998223Y-9228347D01*
X-3988699Y-9190252D01*
X-3979175Y-9171204D01*
X-3969652Y-9161681D01*
X-3950604Y-9152157D01*
X-3798223Y-9333109D02*
X-3788699Y-9342633D01*
X-3798223Y-9352157D01*
X-3807747Y-9342633D01*
X-3798223Y-9333109D01*
X-3798223Y-9352157D01*
X-3664890Y-9152157D02*
X-3645842Y-9152157D01*
X-3626794Y-9161681D01*
X-3617271Y-9171204D01*
X-3607747Y-9190252D01*
X-3598223Y-9228347D01*
X-3598223Y-9275966D01*
X-3607747Y-9314061D01*
X-3617271Y-9333109D01*
X-3626794Y-9342633D01*
X-3645842Y-9352157D01*
X-3664890Y-9352157D01*
X-3683937Y-9342633D01*
X-3693461Y-9333109D01*
X-3702985Y-9314061D01*
X-3712509Y-9275966D01*
X-3712509Y-9228347D01*
X-3702985Y-9190252D01*
X-3693461Y-9171204D01*
X-3683937Y-9161681D01*
X-3664890Y-9152157D01*
X-3407747Y-9352157D02*
X-3522032Y-9352157D01*
X-3464890Y-9352157D02*
X-3464890Y-9152157D01*
X-3483937Y-9180728D01*
X-3502985Y-9199776D01*
X-3522032Y-9209300D01*
X-3226794Y-9152157D02*
X-3322032Y-9152157D01*
X-3331556Y-9247395D01*
X-3322032Y-9237871D01*
X-3302985Y-9228347D01*
X-3255366Y-9228347D01*
X-3236318Y-9237871D01*
X-3226794Y-9247395D01*
X-3217271Y-9266442D01*
X-3217271Y-9314061D01*
X-3226794Y-9333109D01*
X-3236318Y-9342633D01*
X-3255366Y-9352157D01*
X-3302985Y-9352157D01*
X-3322032Y-9342633D01*
X-3331556Y-9333109D01*
X-3150604Y-9152157D02*
X-3017271Y-9152157D01*
X-3102985Y-9352157D01*
X-2950604Y-9152157D02*
X-2950604Y-9190252D01*
X-2874413Y-9152157D02*
X-2874413Y-9190252D01*
X-2579175Y-9428347D02*
X-2588699Y-9418823D01*
X-2607747Y-9390252D01*
X-2617271Y-9371204D01*
X-2626794Y-9342633D01*
X-2636318Y-9295014D01*
X-2636318Y-9256919D01*
X-2626794Y-9209300D01*
X-2617271Y-9180728D01*
X-2607747Y-9161681D01*
X-2588699Y-9133109D01*
X-2579175Y-9123585D01*
X-2522033Y-9152157D02*
X-2398223Y-9152157D01*
X-2464890Y-9228347D01*
X-2436318Y-9228347D01*
X-2417271Y-9237871D01*
X-2407747Y-9247395D01*
X-2398223Y-9266442D01*
X-2398223Y-9314061D01*
X-2407747Y-9333109D01*
X-2417271Y-9342633D01*
X-2436318Y-9352157D01*
X-2493461Y-9352157D01*
X-2512509Y-9342633D01*
X-2522033Y-9333109D01*
X-2160128Y-9352157D02*
X-2160128Y-9152157D01*
X-2074413Y-9352157D02*
X-2074413Y-9247395D01*
X-2083937Y-9228347D01*
X-2102985Y-9218823D01*
X-2131556Y-9218823D01*
X-2150604Y-9228347D01*
X-2160128Y-9237871D01*
X-1950604Y-9352157D02*
X-1969652Y-9342633D01*
X-1979175Y-9333109D01*
X-1988699Y-9314061D01*
X-1988699Y-9256919D01*
X-1979175Y-9237871D01*
X-1969652Y-9228347D01*
X-1950604Y-9218823D01*
X-1922032Y-9218823D01*
X-1902985Y-9228347D01*
X-1893461Y-9237871D01*
X-1883937Y-9256919D01*
X-1883937Y-9314061D01*
X-1893461Y-9333109D01*
X-1902985Y-9342633D01*
X-1922032Y-9352157D01*
X-1950604Y-9352157D01*
X-1769652Y-9352157D02*
X-1788699Y-9342633D01*
X-1798223Y-9323585D01*
X-1798223Y-9152157D01*
X-1617271Y-9342633D02*
X-1636318Y-9352157D01*
X-1674413Y-9352157D01*
X-1693461Y-9342633D01*
X-1702985Y-9323585D01*
X-1702985Y-9247395D01*
X-1693461Y-9228347D01*
X-1674413Y-9218823D01*
X-1636318Y-9218823D01*
X-1617271Y-9228347D01*
X-1607747Y-9247395D01*
X-1607747Y-9266442D01*
X-1702985Y-9285490D01*
X-1531556Y-9342633D02*
X-1512509Y-9352157D01*
X-1474413Y-9352157D01*
X-1455366Y-9342633D01*
X-1445842Y-9323585D01*
X-1445842Y-9314061D01*
X-1455366Y-9295014D01*
X-1474413Y-9285490D01*
X-1502985Y-9285490D01*
X-1522032Y-9275966D01*
X-1531556Y-9256919D01*
X-1531556Y-9247395D01*
X-1522032Y-9228347D01*
X-1502985Y-9218823D01*
X-1474413Y-9218823D01*
X-1455366Y-9228347D01*
X-1379175Y-9428347D02*
X-1369652Y-9418823D01*
X-1350604Y-9390252D01*
X-1341080Y-9371204D01*
X-1331556Y-9342633D01*
X-1322033Y-9295014D01*
X-1322033Y-9256919D01*
X-1331556Y-9209300D01*
X-1341080Y-9180728D01*
X-1350604Y-9161681D01*
X-1369652Y-9133109D01*
X-1379175Y-9123585D01*
D13*
X-6151080Y-9525681D02*
G75*
G03*
X-6151080Y-9525681I-30000J0D01*
G01*
D11*
X-5855366Y-9416157D02*
X-5836318Y-9416157D01*
X-5817271Y-9425681D01*
X-5807747Y-9435204D01*
X-5798223Y-9454252D01*
X-5788699Y-9492347D01*
X-5788699Y-9539966D01*
X-5798223Y-9578061D01*
X-5807747Y-9597109D01*
X-5817271Y-9606633D01*
X-5836318Y-9616157D01*
X-5855366Y-9616157D01*
X-5874413Y-9606633D01*
X-5883937Y-9597109D01*
X-5893461Y-9578061D01*
X-5902985Y-9539966D01*
X-5902985Y-9492347D01*
X-5893461Y-9454252D01*
X-5883937Y-9435204D01*
X-5874413Y-9425681D01*
X-5855366Y-9416157D01*
X-5702985Y-9597109D02*
X-5693461Y-9606633D01*
X-5702985Y-9616157D01*
X-5712509Y-9606633D01*
X-5702985Y-9597109D01*
X-5702985Y-9616157D01*
X-5522033Y-9416157D02*
X-5560128Y-9416157D01*
X-5579175Y-9425681D01*
X-5588699Y-9435204D01*
X-5607747Y-9463776D01*
X-5617271Y-9501871D01*
X-5617271Y-9578061D01*
X-5607747Y-9597109D01*
X-5598223Y-9606633D01*
X-5579175Y-9616157D01*
X-5541080Y-9616157D01*
X-5522033Y-9606633D01*
X-5512509Y-9597109D01*
X-5502985Y-9578061D01*
X-5502985Y-9530442D01*
X-5512509Y-9511395D01*
X-5522033Y-9501871D01*
X-5541080Y-9492347D01*
X-5579175Y-9492347D01*
X-5598223Y-9501871D01*
X-5607747Y-9511395D01*
X-5617271Y-9530442D01*
X-5379175Y-9416157D02*
X-5360128Y-9416157D01*
X-5341080Y-9425681D01*
X-5331556Y-9435204D01*
X-5322033Y-9454252D01*
X-5312509Y-9492347D01*
X-5312509Y-9539966D01*
X-5322033Y-9578061D01*
X-5331556Y-9597109D01*
X-5341080Y-9606633D01*
X-5360128Y-9616157D01*
X-5379175Y-9616157D01*
X-5398223Y-9606633D01*
X-5407747Y-9597109D01*
X-5417271Y-9578061D01*
X-5426794Y-9539966D01*
X-5426794Y-9492347D01*
X-5417271Y-9454252D01*
X-5407747Y-9435204D01*
X-5398223Y-9425681D01*
X-5379175Y-9416157D01*
X-5188699Y-9416157D02*
X-5169652Y-9416157D01*
X-5150604Y-9425681D01*
X-5141080Y-9435204D01*
X-5131556Y-9454252D01*
X-5122033Y-9492347D01*
X-5122033Y-9539966D01*
X-5131556Y-9578061D01*
X-5141080Y-9597109D01*
X-5150604Y-9606633D01*
X-5169652Y-9616157D01*
X-5188699Y-9616157D01*
X-5207747Y-9606633D01*
X-5217271Y-9597109D01*
X-5226794Y-9578061D01*
X-5236318Y-9539966D01*
X-5236318Y-9492347D01*
X-5226794Y-9454252D01*
X-5217271Y-9435204D01*
X-5207747Y-9425681D01*
X-5188699Y-9416157D01*
X-5036318Y-9616157D02*
X-5036318Y-9482823D01*
X-5036318Y-9501871D02*
X-5026794Y-9492347D01*
X-5007747Y-9482823D01*
X-4979175Y-9482823D01*
X-4960128Y-9492347D01*
X-4950604Y-9511395D01*
X-4950604Y-9616157D01*
X-4950604Y-9511395D02*
X-4941080Y-9492347D01*
X-4922033Y-9482823D01*
X-4893461Y-9482823D01*
X-4874414Y-9492347D01*
X-4864890Y-9511395D01*
X-4864890Y-9616157D01*
X-4769652Y-9616157D02*
X-4769652Y-9482823D01*
X-4769652Y-9501871D02*
X-4760128Y-9492347D01*
X-4741080Y-9482823D01*
X-4712509Y-9482823D01*
X-4693461Y-9492347D01*
X-4683937Y-9511395D01*
X-4683937Y-9616157D01*
X-4683937Y-9511395D02*
X-4674414Y-9492347D01*
X-4655366Y-9482823D01*
X-4626794Y-9482823D01*
X-4607747Y-9492347D01*
X-4598223Y-9511395D01*
X-4598223Y-9616157D01*
X-4207747Y-9406633D02*
X-4379175Y-9663776D01*
X-3950604Y-9416157D02*
X-3931556Y-9416157D01*
X-3912509Y-9425681D01*
X-3902985Y-9435204D01*
X-3893461Y-9454252D01*
X-3883937Y-9492347D01*
X-3883937Y-9539966D01*
X-3893461Y-9578061D01*
X-3902985Y-9597109D01*
X-3912509Y-9606633D01*
X-3931556Y-9616157D01*
X-3950604Y-9616157D01*
X-3969652Y-9606633D01*
X-3979175Y-9597109D01*
X-3988699Y-9578061D01*
X-3998223Y-9539966D01*
X-3998223Y-9492347D01*
X-3988699Y-9454252D01*
X-3979175Y-9435204D01*
X-3969652Y-9425681D01*
X-3950604Y-9416157D01*
X-3798223Y-9597109D02*
X-3788699Y-9606633D01*
X-3798223Y-9616157D01*
X-3807747Y-9606633D01*
X-3798223Y-9597109D01*
X-3798223Y-9616157D01*
X-3664890Y-9416157D02*
X-3645842Y-9416157D01*
X-3626794Y-9425681D01*
X-3617271Y-9435204D01*
X-3607747Y-9454252D01*
X-3598223Y-9492347D01*
X-3598223Y-9539966D01*
X-3607747Y-9578061D01*
X-3617271Y-9597109D01*
X-3626794Y-9606633D01*
X-3645842Y-9616157D01*
X-3664890Y-9616157D01*
X-3683937Y-9606633D01*
X-3693461Y-9597109D01*
X-3702985Y-9578061D01*
X-3712509Y-9539966D01*
X-3712509Y-9492347D01*
X-3702985Y-9454252D01*
X-3693461Y-9435204D01*
X-3683937Y-9425681D01*
X-3664890Y-9416157D01*
X-3522032Y-9435204D02*
X-3512509Y-9425681D01*
X-3493461Y-9416157D01*
X-3445842Y-9416157D01*
X-3426794Y-9425681D01*
X-3417271Y-9435204D01*
X-3407747Y-9454252D01*
X-3407747Y-9473300D01*
X-3417271Y-9501871D01*
X-3531556Y-9616157D01*
X-3407747Y-9616157D01*
X-3341080Y-9416157D02*
X-3217271Y-9416157D01*
X-3283937Y-9492347D01*
X-3255366Y-9492347D01*
X-3236318Y-9501871D01*
X-3226794Y-9511395D01*
X-3217271Y-9530442D01*
X-3217271Y-9578061D01*
X-3226794Y-9597109D01*
X-3236318Y-9606633D01*
X-3255366Y-9616157D01*
X-3312509Y-9616157D01*
X-3331556Y-9606633D01*
X-3341080Y-9597109D01*
X-3045842Y-9416157D02*
X-3083937Y-9416157D01*
X-3102985Y-9425681D01*
X-3112509Y-9435204D01*
X-3131556Y-9463776D01*
X-3141080Y-9501871D01*
X-3141080Y-9578061D01*
X-3131556Y-9597109D01*
X-3122032Y-9606633D01*
X-3102985Y-9616157D01*
X-3064890Y-9616157D01*
X-3045842Y-9606633D01*
X-3036318Y-9597109D01*
X-3026794Y-9578061D01*
X-3026794Y-9530442D01*
X-3036318Y-9511395D01*
X-3045842Y-9501871D01*
X-3064890Y-9492347D01*
X-3102985Y-9492347D01*
X-3122032Y-9501871D01*
X-3131556Y-9511395D01*
X-3141080Y-9530442D01*
X-2950604Y-9416157D02*
X-2950604Y-9454252D01*
X-2874413Y-9416157D02*
X-2874413Y-9454252D01*
X-2579175Y-9692347D02*
X-2588699Y-9682823D01*
X-2607747Y-9654252D01*
X-2617271Y-9635204D01*
X-2626794Y-9606633D01*
X-2636318Y-9559014D01*
X-2636318Y-9520919D01*
X-2626794Y-9473300D01*
X-2617271Y-9444728D01*
X-2607747Y-9425681D01*
X-2588699Y-9397109D01*
X-2579175Y-9387585D01*
X-2512509Y-9435204D02*
X-2502985Y-9425681D01*
X-2483937Y-9416157D01*
X-2436318Y-9416157D01*
X-2417271Y-9425681D01*
X-2407747Y-9435204D01*
X-2398223Y-9454252D01*
X-2398223Y-9473300D01*
X-2407747Y-9501871D01*
X-2522033Y-9616157D01*
X-2398223Y-9616157D01*
X-2160128Y-9616157D02*
X-2160128Y-9416157D01*
X-2074413Y-9616157D02*
X-2074413Y-9511395D01*
X-2083937Y-9492347D01*
X-2102985Y-9482823D01*
X-2131556Y-9482823D01*
X-2150604Y-9492347D01*
X-2160128Y-9501871D01*
X-1950604Y-9616157D02*
X-1969652Y-9606633D01*
X-1979175Y-9597109D01*
X-1988699Y-9578061D01*
X-1988699Y-9520919D01*
X-1979175Y-9501871D01*
X-1969652Y-9492347D01*
X-1950604Y-9482823D01*
X-1922032Y-9482823D01*
X-1902985Y-9492347D01*
X-1893461Y-9501871D01*
X-1883937Y-9520919D01*
X-1883937Y-9578061D01*
X-1893461Y-9597109D01*
X-1902985Y-9606633D01*
X-1922032Y-9616157D01*
X-1950604Y-9616157D01*
X-1769652Y-9616157D02*
X-1788699Y-9606633D01*
X-1798223Y-9587585D01*
X-1798223Y-9416157D01*
X-1617271Y-9606633D02*
X-1636318Y-9616157D01*
X-1674413Y-9616157D01*
X-1693461Y-9606633D01*
X-1702985Y-9587585D01*
X-1702985Y-9511395D01*
X-1693461Y-9492347D01*
X-1674413Y-9482823D01*
X-1636318Y-9482823D01*
X-1617271Y-9492347D01*
X-1607747Y-9511395D01*
X-1607747Y-9530442D01*
X-1702985Y-9549490D01*
X-1531556Y-9606633D02*
X-1512509Y-9616157D01*
X-1474413Y-9616157D01*
X-1455366Y-9606633D01*
X-1445842Y-9587585D01*
X-1445842Y-9578061D01*
X-1455366Y-9559014D01*
X-1474413Y-9549490D01*
X-1502985Y-9549490D01*
X-1522032Y-9539966D01*
X-1531556Y-9520919D01*
X-1531556Y-9511395D01*
X-1522032Y-9492347D01*
X-1502985Y-9482823D01*
X-1474413Y-9482823D01*
X-1455366Y-9492347D01*
X-1379175Y-9692347D02*
X-1369652Y-9682823D01*
X-1350604Y-9654252D01*
X-1341080Y-9635204D01*
X-1331556Y-9606633D01*
X-1322033Y-9559014D01*
X-1322033Y-9520919D01*
X-1331556Y-9473300D01*
X-1341080Y-9444728D01*
X-1350604Y-9425681D01*
X-1369652Y-9397109D01*
X-1379175Y-9387585D01*
D14*
X-6186080Y-9754681D02*
X-6186080Y-9824681D01*
X-6221080Y-9789681D02*
X-6151080Y-9789681D01*
D11*
X-5855366Y-9680157D02*
X-5836318Y-9680157D01*
X-5817271Y-9689681D01*
X-5807747Y-9699204D01*
X-5798223Y-9718252D01*
X-5788699Y-9756347D01*
X-5788699Y-9803966D01*
X-5798223Y-9842061D01*
X-5807747Y-9861109D01*
X-5817271Y-9870633D01*
X-5836318Y-9880157D01*
X-5855366Y-9880157D01*
X-5874413Y-9870633D01*
X-5883937Y-9861109D01*
X-5893461Y-9842061D01*
X-5902985Y-9803966D01*
X-5902985Y-9756347D01*
X-5893461Y-9718252D01*
X-5883937Y-9699204D01*
X-5874413Y-9689681D01*
X-5855366Y-9680157D01*
X-5702985Y-9861109D02*
X-5693461Y-9870633D01*
X-5702985Y-9880157D01*
X-5712509Y-9870633D01*
X-5702985Y-9861109D01*
X-5702985Y-9880157D01*
X-5626794Y-9680157D02*
X-5493461Y-9680157D01*
X-5579175Y-9880157D01*
X-5379175Y-9680157D02*
X-5360128Y-9680157D01*
X-5341080Y-9689681D01*
X-5331556Y-9699204D01*
X-5322033Y-9718252D01*
X-5312509Y-9756347D01*
X-5312509Y-9803966D01*
X-5322033Y-9842061D01*
X-5331556Y-9861109D01*
X-5341080Y-9870633D01*
X-5360128Y-9880157D01*
X-5379175Y-9880157D01*
X-5398223Y-9870633D01*
X-5407747Y-9861109D01*
X-5417271Y-9842061D01*
X-5426794Y-9803966D01*
X-5426794Y-9756347D01*
X-5417271Y-9718252D01*
X-5407747Y-9699204D01*
X-5398223Y-9689681D01*
X-5379175Y-9680157D01*
X-5188699Y-9680157D02*
X-5169652Y-9680157D01*
X-5150604Y-9689681D01*
X-5141080Y-9699204D01*
X-5131556Y-9718252D01*
X-5122033Y-9756347D01*
X-5122033Y-9803966D01*
X-5131556Y-9842061D01*
X-5141080Y-9861109D01*
X-5150604Y-9870633D01*
X-5169652Y-9880157D01*
X-5188699Y-9880157D01*
X-5207747Y-9870633D01*
X-5217271Y-9861109D01*
X-5226794Y-9842061D01*
X-5236318Y-9803966D01*
X-5236318Y-9756347D01*
X-5226794Y-9718252D01*
X-5217271Y-9699204D01*
X-5207747Y-9689681D01*
X-5188699Y-9680157D01*
X-5036318Y-9880157D02*
X-5036318Y-9746823D01*
X-5036318Y-9765871D02*
X-5026794Y-9756347D01*
X-5007747Y-9746823D01*
X-4979175Y-9746823D01*
X-4960128Y-9756347D01*
X-4950604Y-9775395D01*
X-4950604Y-9880157D01*
X-4950604Y-9775395D02*
X-4941080Y-9756347D01*
X-4922033Y-9746823D01*
X-4893461Y-9746823D01*
X-4874414Y-9756347D01*
X-4864890Y-9775395D01*
X-4864890Y-9880157D01*
X-4769652Y-9880157D02*
X-4769652Y-9746823D01*
X-4769652Y-9765871D02*
X-4760128Y-9756347D01*
X-4741080Y-9746823D01*
X-4712509Y-9746823D01*
X-4693461Y-9756347D01*
X-4683937Y-9775395D01*
X-4683937Y-9880157D01*
X-4683937Y-9775395D02*
X-4674414Y-9756347D01*
X-4655366Y-9746823D01*
X-4626794Y-9746823D01*
X-4607747Y-9756347D01*
X-4598223Y-9775395D01*
X-4598223Y-9880157D01*
X-4207747Y-9670633D02*
X-4379175Y-9927776D01*
X-3950604Y-9680157D02*
X-3931556Y-9680157D01*
X-3912509Y-9689681D01*
X-3902985Y-9699204D01*
X-3893461Y-9718252D01*
X-3883937Y-9756347D01*
X-3883937Y-9803966D01*
X-3893461Y-9842061D01*
X-3902985Y-9861109D01*
X-3912509Y-9870633D01*
X-3931556Y-9880157D01*
X-3950604Y-9880157D01*
X-3969652Y-9870633D01*
X-3979175Y-9861109D01*
X-3988699Y-9842061D01*
X-3998223Y-9803966D01*
X-3998223Y-9756347D01*
X-3988699Y-9718252D01*
X-3979175Y-9699204D01*
X-3969652Y-9689681D01*
X-3950604Y-9680157D01*
X-3798223Y-9861109D02*
X-3788699Y-9870633D01*
X-3798223Y-9880157D01*
X-3807747Y-9870633D01*
X-3798223Y-9861109D01*
X-3798223Y-9880157D01*
X-3664890Y-9680157D02*
X-3645842Y-9680157D01*
X-3626794Y-9689681D01*
X-3617271Y-9699204D01*
X-3607747Y-9718252D01*
X-3598223Y-9756347D01*
X-3598223Y-9803966D01*
X-3607747Y-9842061D01*
X-3617271Y-9861109D01*
X-3626794Y-9870633D01*
X-3645842Y-9880157D01*
X-3664890Y-9880157D01*
X-3683937Y-9870633D01*
X-3693461Y-9861109D01*
X-3702985Y-9842061D01*
X-3712509Y-9803966D01*
X-3712509Y-9756347D01*
X-3702985Y-9718252D01*
X-3693461Y-9699204D01*
X-3683937Y-9689681D01*
X-3664890Y-9680157D01*
X-3522032Y-9699204D02*
X-3512509Y-9689681D01*
X-3493461Y-9680157D01*
X-3445842Y-9680157D01*
X-3426794Y-9689681D01*
X-3417271Y-9699204D01*
X-3407747Y-9718252D01*
X-3407747Y-9737300D01*
X-3417271Y-9765871D01*
X-3531556Y-9880157D01*
X-3407747Y-9880157D01*
X-3341080Y-9680157D02*
X-3207747Y-9680157D01*
X-3293461Y-9880157D01*
X-3045842Y-9680157D02*
X-3083937Y-9680157D01*
X-3102985Y-9689681D01*
X-3112509Y-9699204D01*
X-3131556Y-9727776D01*
X-3141080Y-9765871D01*
X-3141080Y-9842061D01*
X-3131556Y-9861109D01*
X-3122032Y-9870633D01*
X-3102985Y-9880157D01*
X-3064890Y-9880157D01*
X-3045842Y-9870633D01*
X-3036318Y-9861109D01*
X-3026794Y-9842061D01*
X-3026794Y-9794442D01*
X-3036318Y-9775395D01*
X-3045842Y-9765871D01*
X-3064890Y-9756347D01*
X-3102985Y-9756347D01*
X-3122032Y-9765871D01*
X-3131556Y-9775395D01*
X-3141080Y-9794442D01*
X-2950604Y-9680157D02*
X-2950604Y-9718252D01*
X-2874413Y-9680157D02*
X-2874413Y-9718252D01*
X-2579175Y-9956347D02*
X-2588699Y-9946823D01*
X-2607747Y-9918252D01*
X-2617271Y-9899204D01*
X-2626794Y-9870633D01*
X-2636318Y-9823014D01*
X-2636318Y-9784919D01*
X-2626794Y-9737300D01*
X-2617271Y-9708728D01*
X-2607747Y-9689681D01*
X-2588699Y-9661109D01*
X-2579175Y-9651585D01*
X-2417271Y-9746823D02*
X-2417271Y-9880157D01*
X-2464890Y-9670633D02*
X-2512509Y-9813490D01*
X-2388699Y-9813490D01*
X-2160128Y-9880157D02*
X-2160128Y-9680157D01*
X-2074413Y-9880157D02*
X-2074413Y-9775395D01*
X-2083937Y-9756347D01*
X-2102985Y-9746823D01*
X-2131556Y-9746823D01*
X-2150604Y-9756347D01*
X-2160128Y-9765871D01*
X-1950604Y-9880157D02*
X-1969652Y-9870633D01*
X-1979175Y-9861109D01*
X-1988699Y-9842061D01*
X-1988699Y-9784919D01*
X-1979175Y-9765871D01*
X-1969652Y-9756347D01*
X-1950604Y-9746823D01*
X-1922032Y-9746823D01*
X-1902985Y-9756347D01*
X-1893461Y-9765871D01*
X-1883937Y-9784919D01*
X-1883937Y-9842061D01*
X-1893461Y-9861109D01*
X-1902985Y-9870633D01*
X-1922032Y-9880157D01*
X-1950604Y-9880157D01*
X-1769652Y-9880157D02*
X-1788699Y-9870633D01*
X-1798223Y-9851585D01*
X-1798223Y-9680157D01*
X-1617271Y-9870633D02*
X-1636318Y-9880157D01*
X-1674413Y-9880157D01*
X-1693461Y-9870633D01*
X-1702985Y-9851585D01*
X-1702985Y-9775395D01*
X-1693461Y-9756347D01*
X-1674413Y-9746823D01*
X-1636318Y-9746823D01*
X-1617271Y-9756347D01*
X-1607747Y-9775395D01*
X-1607747Y-9794442D01*
X-1702985Y-9813490D01*
X-1531556Y-9870633D02*
X-1512509Y-9880157D01*
X-1474413Y-9880157D01*
X-1455366Y-9870633D01*
X-1445842Y-9851585D01*
X-1445842Y-9842061D01*
X-1455366Y-9823014D01*
X-1474413Y-9813490D01*
X-1502985Y-9813490D01*
X-1522032Y-9803966D01*
X-1531556Y-9784919D01*
X-1531556Y-9775395D01*
X-1522032Y-9756347D01*
X-1502985Y-9746823D01*
X-1474413Y-9746823D01*
X-1455366Y-9756347D01*
X-1379175Y-9956347D02*
X-1369652Y-9946823D01*
X-1350604Y-9918252D01*
X-1341080Y-9899204D01*
X-1331556Y-9870633D01*
X-1322033Y-9823014D01*
X-1322033Y-9784919D01*
X-1331556Y-9737300D01*
X-1341080Y-9708728D01*
X-1350604Y-9689681D01*
X-1369652Y-9661109D01*
X-1379175Y-9651585D01*
D15*
X-6162796Y-10081965D02*
X-6162796Y-10025396D01*
X-6219365Y-10025396D01*
X-6219365Y-10081965D01*
X-6162796Y-10081965D01*
D11*
X-5855366Y-9944157D02*
X-5836318Y-9944157D01*
X-5817271Y-9953681D01*
X-5807747Y-9963204D01*
X-5798223Y-9982252D01*
X-5788699Y-10020347D01*
X-5788699Y-10067966D01*
X-5798223Y-10106061D01*
X-5807747Y-10125109D01*
X-5817271Y-10134633D01*
X-5836318Y-10144157D01*
X-5855366Y-10144157D01*
X-5874413Y-10134633D01*
X-5883937Y-10125109D01*
X-5893461Y-10106061D01*
X-5902985Y-10067966D01*
X-5902985Y-10020347D01*
X-5893461Y-9982252D01*
X-5883937Y-9963204D01*
X-5874413Y-9953681D01*
X-5855366Y-9944157D01*
X-5702985Y-10125109D02*
X-5693461Y-10134633D01*
X-5702985Y-10144157D01*
X-5712509Y-10134633D01*
X-5702985Y-10125109D01*
X-5702985Y-10144157D01*
X-5579175Y-10029871D02*
X-5598223Y-10020347D01*
X-5607747Y-10010823D01*
X-5617271Y-9991776D01*
X-5617271Y-9982252D01*
X-5607747Y-9963204D01*
X-5598223Y-9953681D01*
X-5579175Y-9944157D01*
X-5541080Y-9944157D01*
X-5522033Y-9953681D01*
X-5512509Y-9963204D01*
X-5502985Y-9982252D01*
X-5502985Y-9991776D01*
X-5512509Y-10010823D01*
X-5522033Y-10020347D01*
X-5541080Y-10029871D01*
X-5579175Y-10029871D01*
X-5598223Y-10039395D01*
X-5607747Y-10048919D01*
X-5617271Y-10067966D01*
X-5617271Y-10106061D01*
X-5607747Y-10125109D01*
X-5598223Y-10134633D01*
X-5579175Y-10144157D01*
X-5541080Y-10144157D01*
X-5522033Y-10134633D01*
X-5512509Y-10125109D01*
X-5502985Y-10106061D01*
X-5502985Y-10067966D01*
X-5512509Y-10048919D01*
X-5522033Y-10039395D01*
X-5541080Y-10029871D01*
X-5379175Y-9944157D02*
X-5360128Y-9944157D01*
X-5341080Y-9953681D01*
X-5331556Y-9963204D01*
X-5322033Y-9982252D01*
X-5312509Y-10020347D01*
X-5312509Y-10067966D01*
X-5322033Y-10106061D01*
X-5331556Y-10125109D01*
X-5341080Y-10134633D01*
X-5360128Y-10144157D01*
X-5379175Y-10144157D01*
X-5398223Y-10134633D01*
X-5407747Y-10125109D01*
X-5417271Y-10106061D01*
X-5426794Y-10067966D01*
X-5426794Y-10020347D01*
X-5417271Y-9982252D01*
X-5407747Y-9963204D01*
X-5398223Y-9953681D01*
X-5379175Y-9944157D01*
X-5188699Y-9944157D02*
X-5169652Y-9944157D01*
X-5150604Y-9953681D01*
X-5141080Y-9963204D01*
X-5131556Y-9982252D01*
X-5122033Y-10020347D01*
X-5122033Y-10067966D01*
X-5131556Y-10106061D01*
X-5141080Y-10125109D01*
X-5150604Y-10134633D01*
X-5169652Y-10144157D01*
X-5188699Y-10144157D01*
X-5207747Y-10134633D01*
X-5217271Y-10125109D01*
X-5226794Y-10106061D01*
X-5236318Y-10067966D01*
X-5236318Y-10020347D01*
X-5226794Y-9982252D01*
X-5217271Y-9963204D01*
X-5207747Y-9953681D01*
X-5188699Y-9944157D01*
X-5036318Y-10144157D02*
X-5036318Y-10010823D01*
X-5036318Y-10029871D02*
X-5026794Y-10020347D01*
X-5007747Y-10010823D01*
X-4979175Y-10010823D01*
X-4960128Y-10020347D01*
X-4950604Y-10039395D01*
X-4950604Y-10144157D01*
X-4950604Y-10039395D02*
X-4941080Y-10020347D01*
X-4922033Y-10010823D01*
X-4893461Y-10010823D01*
X-4874414Y-10020347D01*
X-4864890Y-10039395D01*
X-4864890Y-10144157D01*
X-4769652Y-10144157D02*
X-4769652Y-10010823D01*
X-4769652Y-10029871D02*
X-4760128Y-10020347D01*
X-4741080Y-10010823D01*
X-4712509Y-10010823D01*
X-4693461Y-10020347D01*
X-4683937Y-10039395D01*
X-4683937Y-10144157D01*
X-4683937Y-10039395D02*
X-4674414Y-10020347D01*
X-4655366Y-10010823D01*
X-4626794Y-10010823D01*
X-4607747Y-10020347D01*
X-4598223Y-10039395D01*
X-4598223Y-10144157D01*
X-4207747Y-9934633D02*
X-4379175Y-10191776D01*
X-3950604Y-9944157D02*
X-3931556Y-9944157D01*
X-3912509Y-9953681D01*
X-3902985Y-9963204D01*
X-3893461Y-9982252D01*
X-3883937Y-10020347D01*
X-3883937Y-10067966D01*
X-3893461Y-10106061D01*
X-3902985Y-10125109D01*
X-3912509Y-10134633D01*
X-3931556Y-10144157D01*
X-3950604Y-10144157D01*
X-3969652Y-10134633D01*
X-3979175Y-10125109D01*
X-3988699Y-10106061D01*
X-3998223Y-10067966D01*
X-3998223Y-10020347D01*
X-3988699Y-9982252D01*
X-3979175Y-9963204D01*
X-3969652Y-9953681D01*
X-3950604Y-9944157D01*
X-3798223Y-10125109D02*
X-3788699Y-10134633D01*
X-3798223Y-10144157D01*
X-3807747Y-10134633D01*
X-3798223Y-10125109D01*
X-3798223Y-10144157D01*
X-3664890Y-9944157D02*
X-3645842Y-9944157D01*
X-3626794Y-9953681D01*
X-3617271Y-9963204D01*
X-3607747Y-9982252D01*
X-3598223Y-10020347D01*
X-3598223Y-10067966D01*
X-3607747Y-10106061D01*
X-3617271Y-10125109D01*
X-3626794Y-10134633D01*
X-3645842Y-10144157D01*
X-3664890Y-10144157D01*
X-3683937Y-10134633D01*
X-3693461Y-10125109D01*
X-3702985Y-10106061D01*
X-3712509Y-10067966D01*
X-3712509Y-10020347D01*
X-3702985Y-9982252D01*
X-3693461Y-9963204D01*
X-3683937Y-9953681D01*
X-3664890Y-9944157D01*
X-3531556Y-9944157D02*
X-3407747Y-9944157D01*
X-3474413Y-10020347D01*
X-3445842Y-10020347D01*
X-3426794Y-10029871D01*
X-3417271Y-10039395D01*
X-3407747Y-10058442D01*
X-3407747Y-10106061D01*
X-3417271Y-10125109D01*
X-3426794Y-10134633D01*
X-3445842Y-10144157D01*
X-3502985Y-10144157D01*
X-3522032Y-10134633D01*
X-3531556Y-10125109D01*
X-3217271Y-10144157D02*
X-3331556Y-10144157D01*
X-3274413Y-10144157D02*
X-3274413Y-9944157D01*
X-3293461Y-9972728D01*
X-3312509Y-9991776D01*
X-3331556Y-10001300D01*
X-3036318Y-9944157D02*
X-3131556Y-9944157D01*
X-3141080Y-10039395D01*
X-3131556Y-10029871D01*
X-3112509Y-10020347D01*
X-3064890Y-10020347D01*
X-3045842Y-10029871D01*
X-3036318Y-10039395D01*
X-3026794Y-10058442D01*
X-3026794Y-10106061D01*
X-3036318Y-10125109D01*
X-3045842Y-10134633D01*
X-3064890Y-10144157D01*
X-3112509Y-10144157D01*
X-3131556Y-10134633D01*
X-3141080Y-10125109D01*
X-2950604Y-9944157D02*
X-2950604Y-9982252D01*
X-2874413Y-9944157D02*
X-2874413Y-9982252D01*
X-2579175Y-10220347D02*
X-2588699Y-10210823D01*
X-2607747Y-10182252D01*
X-2617271Y-10163204D01*
X-2626794Y-10134633D01*
X-2636318Y-10087014D01*
X-2636318Y-10048919D01*
X-2626794Y-10001300D01*
X-2617271Y-9972728D01*
X-2607747Y-9953681D01*
X-2588699Y-9925109D01*
X-2579175Y-9915585D01*
X-2474414Y-10029871D02*
X-2493461Y-10020347D01*
X-2502985Y-10010823D01*
X-2512509Y-9991776D01*
X-2512509Y-9982252D01*
X-2502985Y-9963204D01*
X-2493461Y-9953681D01*
X-2474414Y-9944157D01*
X-2436318Y-9944157D01*
X-2417271Y-9953681D01*
X-2407747Y-9963204D01*
X-2398223Y-9982252D01*
X-2398223Y-9991776D01*
X-2407747Y-10010823D01*
X-2417271Y-10020347D01*
X-2436318Y-10029871D01*
X-2474414Y-10029871D01*
X-2493461Y-10039395D01*
X-2502985Y-10048919D01*
X-2512509Y-10067966D01*
X-2512509Y-10106061D01*
X-2502985Y-10125109D01*
X-2493461Y-10134633D01*
X-2474414Y-10144157D01*
X-2436318Y-10144157D01*
X-2417271Y-10134633D01*
X-2407747Y-10125109D01*
X-2398223Y-10106061D01*
X-2398223Y-10067966D01*
X-2407747Y-10048919D01*
X-2417271Y-10039395D01*
X-2436318Y-10029871D01*
X-2226794Y-10010823D02*
X-2226794Y-10144157D01*
X-2274414Y-9934633D02*
X-2322033Y-10077490D01*
X-2198223Y-10077490D01*
X-1969652Y-10144157D02*
X-1969652Y-9944157D01*
X-1883937Y-10144157D02*
X-1883937Y-10039395D01*
X-1893461Y-10020347D01*
X-1912509Y-10010823D01*
X-1941080Y-10010823D01*
X-1960128Y-10020347D01*
X-1969652Y-10029871D01*
X-1760128Y-10144157D02*
X-1779175Y-10134633D01*
X-1788699Y-10125109D01*
X-1798223Y-10106061D01*
X-1798223Y-10048919D01*
X-1788699Y-10029871D01*
X-1779175Y-10020347D01*
X-1760128Y-10010823D01*
X-1731556Y-10010823D01*
X-1712509Y-10020347D01*
X-1702985Y-10029871D01*
X-1693461Y-10048919D01*
X-1693461Y-10106061D01*
X-1702985Y-10125109D01*
X-1712509Y-10134633D01*
X-1731556Y-10144157D01*
X-1760128Y-10144157D01*
X-1579175Y-10144157D02*
X-1598223Y-10134633D01*
X-1607747Y-10115585D01*
X-1607747Y-9944157D01*
X-1426794Y-10134633D02*
X-1445842Y-10144157D01*
X-1483937Y-10144157D01*
X-1502985Y-10134633D01*
X-1512509Y-10115585D01*
X-1512509Y-10039395D01*
X-1502985Y-10020347D01*
X-1483937Y-10010823D01*
X-1445842Y-10010823D01*
X-1426794Y-10020347D01*
X-1417271Y-10039395D01*
X-1417271Y-10058442D01*
X-1512509Y-10077490D01*
X-1341080Y-10134633D02*
X-1322033Y-10144157D01*
X-1283937Y-10144157D01*
X-1264890Y-10134633D01*
X-1255366Y-10115585D01*
X-1255366Y-10106061D01*
X-1264890Y-10087014D01*
X-1283937Y-10077490D01*
X-1312509Y-10077490D01*
X-1331556Y-10067966D01*
X-1341080Y-10048919D01*
X-1341080Y-10039395D01*
X-1331556Y-10020347D01*
X-1312509Y-10010823D01*
X-1283937Y-10010823D01*
X-1264890Y-10020347D01*
X-1188699Y-10220347D02*
X-1179175Y-10210823D01*
X-1160128Y-10182252D01*
X-1150604Y-10163204D01*
X-1141080Y-10134633D01*
X-1131556Y-10087014D01*
X-1131556Y-10048919D01*
X-1141080Y-10001300D01*
X-1150604Y-9972728D01*
X-1160128Y-9953681D01*
X-1179175Y-9925109D01*
X-1188699Y-9915585D01*
D16*
X-6206080Y-10372681D02*
X-6151080Y-10317681D01*
X-6206080Y-10262681D01*
X-6261080Y-10317681D01*
X-6206080Y-10372681D01*
D11*
X-5788699Y-10408157D02*
X-5902985Y-10408157D01*
X-5845842Y-10408157D02*
X-5845842Y-10208157D01*
X-5864890Y-10236728D01*
X-5883937Y-10255776D01*
X-5902985Y-10265300D01*
X-5702985Y-10389109D02*
X-5693461Y-10398633D01*
X-5702985Y-10408157D01*
X-5712509Y-10398633D01*
X-5702985Y-10389109D01*
X-5702985Y-10408157D01*
X-5502985Y-10408157D02*
X-5617271Y-10408157D01*
X-5560128Y-10408157D02*
X-5560128Y-10208157D01*
X-5579175Y-10236728D01*
X-5598223Y-10255776D01*
X-5617271Y-10265300D01*
X-5379175Y-10208157D02*
X-5360128Y-10208157D01*
X-5341080Y-10217681D01*
X-5331556Y-10227204D01*
X-5322033Y-10246252D01*
X-5312509Y-10284347D01*
X-5312509Y-10331966D01*
X-5322033Y-10370061D01*
X-5331556Y-10389109D01*
X-5341080Y-10398633D01*
X-5360128Y-10408157D01*
X-5379175Y-10408157D01*
X-5398223Y-10398633D01*
X-5407747Y-10389109D01*
X-5417271Y-10370061D01*
X-5426794Y-10331966D01*
X-5426794Y-10284347D01*
X-5417271Y-10246252D01*
X-5407747Y-10227204D01*
X-5398223Y-10217681D01*
X-5379175Y-10208157D01*
X-5188699Y-10208157D02*
X-5169652Y-10208157D01*
X-5150604Y-10217681D01*
X-5141080Y-10227204D01*
X-5131556Y-10246252D01*
X-5122033Y-10284347D01*
X-5122033Y-10331966D01*
X-5131556Y-10370061D01*
X-5141080Y-10389109D01*
X-5150604Y-10398633D01*
X-5169652Y-10408157D01*
X-5188699Y-10408157D01*
X-5207747Y-10398633D01*
X-5217271Y-10389109D01*
X-5226794Y-10370061D01*
X-5236318Y-10331966D01*
X-5236318Y-10284347D01*
X-5226794Y-10246252D01*
X-5217271Y-10227204D01*
X-5207747Y-10217681D01*
X-5188699Y-10208157D01*
X-5036318Y-10408157D02*
X-5036318Y-10274823D01*
X-5036318Y-10293871D02*
X-5026794Y-10284347D01*
X-5007747Y-10274823D01*
X-4979175Y-10274823D01*
X-4960128Y-10284347D01*
X-4950604Y-10303395D01*
X-4950604Y-10408157D01*
X-4950604Y-10303395D02*
X-4941080Y-10284347D01*
X-4922033Y-10274823D01*
X-4893461Y-10274823D01*
X-4874414Y-10284347D01*
X-4864890Y-10303395D01*
X-4864890Y-10408157D01*
X-4769652Y-10408157D02*
X-4769652Y-10274823D01*
X-4769652Y-10293871D02*
X-4760128Y-10284347D01*
X-4741080Y-10274823D01*
X-4712509Y-10274823D01*
X-4693461Y-10284347D01*
X-4683937Y-10303395D01*
X-4683937Y-10408157D01*
X-4683937Y-10303395D02*
X-4674414Y-10284347D01*
X-4655366Y-10274823D01*
X-4626794Y-10274823D01*
X-4607747Y-10284347D01*
X-4598223Y-10303395D01*
X-4598223Y-10408157D01*
X-4207747Y-10198633D02*
X-4379175Y-10455776D01*
X-3950604Y-10208157D02*
X-3931556Y-10208157D01*
X-3912509Y-10217681D01*
X-3902985Y-10227204D01*
X-3893461Y-10246252D01*
X-3883937Y-10284347D01*
X-3883937Y-10331966D01*
X-3893461Y-10370061D01*
X-3902985Y-10389109D01*
X-3912509Y-10398633D01*
X-3931556Y-10408157D01*
X-3950604Y-10408157D01*
X-3969652Y-10398633D01*
X-3979175Y-10389109D01*
X-3988699Y-10370061D01*
X-3998223Y-10331966D01*
X-3998223Y-10284347D01*
X-3988699Y-10246252D01*
X-3979175Y-10227204D01*
X-3969652Y-10217681D01*
X-3950604Y-10208157D01*
X-3798223Y-10389109D02*
X-3788699Y-10398633D01*
X-3798223Y-10408157D01*
X-3807747Y-10398633D01*
X-3798223Y-10389109D01*
X-3798223Y-10408157D01*
X-3664890Y-10208157D02*
X-3645842Y-10208157D01*
X-3626794Y-10217681D01*
X-3617271Y-10227204D01*
X-3607747Y-10246252D01*
X-3598223Y-10284347D01*
X-3598223Y-10331966D01*
X-3607747Y-10370061D01*
X-3617271Y-10389109D01*
X-3626794Y-10398633D01*
X-3645842Y-10408157D01*
X-3664890Y-10408157D01*
X-3683937Y-10398633D01*
X-3693461Y-10389109D01*
X-3702985Y-10370061D01*
X-3712509Y-10331966D01*
X-3712509Y-10284347D01*
X-3702985Y-10246252D01*
X-3693461Y-10227204D01*
X-3683937Y-10217681D01*
X-3664890Y-10208157D01*
X-3426794Y-10274823D02*
X-3426794Y-10408157D01*
X-3474413Y-10198633D02*
X-3522032Y-10341490D01*
X-3398223Y-10341490D01*
X-3341080Y-10208157D02*
X-3217271Y-10208157D01*
X-3283937Y-10284347D01*
X-3255366Y-10284347D01*
X-3236318Y-10293871D01*
X-3226794Y-10303395D01*
X-3217271Y-10322442D01*
X-3217271Y-10370061D01*
X-3226794Y-10389109D01*
X-3236318Y-10398633D01*
X-3255366Y-10408157D01*
X-3312509Y-10408157D01*
X-3331556Y-10398633D01*
X-3341080Y-10389109D01*
X-3150604Y-10208157D02*
X-3026794Y-10208157D01*
X-3093461Y-10284347D01*
X-3064890Y-10284347D01*
X-3045842Y-10293871D01*
X-3036318Y-10303395D01*
X-3026794Y-10322442D01*
X-3026794Y-10370061D01*
X-3036318Y-10389109D01*
X-3045842Y-10398633D01*
X-3064890Y-10408157D01*
X-3122032Y-10408157D01*
X-3141080Y-10398633D01*
X-3150604Y-10389109D01*
X-2950604Y-10208157D02*
X-2950604Y-10246252D01*
X-2874413Y-10208157D02*
X-2874413Y-10246252D01*
X-2579175Y-10484347D02*
X-2588699Y-10474823D01*
X-2607747Y-10446252D01*
X-2617271Y-10427204D01*
X-2626794Y-10398633D01*
X-2636318Y-10351014D01*
X-2636318Y-10312919D01*
X-2626794Y-10265300D01*
X-2617271Y-10236728D01*
X-2607747Y-10217681D01*
X-2588699Y-10189109D01*
X-2579175Y-10179585D01*
X-2417271Y-10274823D02*
X-2417271Y-10408157D01*
X-2464890Y-10198633D02*
X-2512509Y-10341490D01*
X-2388699Y-10341490D01*
X-2160128Y-10408157D02*
X-2160128Y-10208157D01*
X-2074413Y-10408157D02*
X-2074413Y-10303395D01*
X-2083937Y-10284347D01*
X-2102985Y-10274823D01*
X-2131556Y-10274823D01*
X-2150604Y-10284347D01*
X-2160128Y-10293871D01*
X-1950604Y-10408157D02*
X-1969652Y-10398633D01*
X-1979175Y-10389109D01*
X-1988699Y-10370061D01*
X-1988699Y-10312919D01*
X-1979175Y-10293871D01*
X-1969652Y-10284347D01*
X-1950604Y-10274823D01*
X-1922032Y-10274823D01*
X-1902985Y-10284347D01*
X-1893461Y-10293871D01*
X-1883937Y-10312919D01*
X-1883937Y-10370061D01*
X-1893461Y-10389109D01*
X-1902985Y-10398633D01*
X-1922032Y-10408157D01*
X-1950604Y-10408157D01*
X-1769652Y-10408157D02*
X-1788699Y-10398633D01*
X-1798223Y-10379585D01*
X-1798223Y-10208157D01*
X-1617271Y-10398633D02*
X-1636318Y-10408157D01*
X-1674413Y-10408157D01*
X-1693461Y-10398633D01*
X-1702985Y-10379585D01*
X-1702985Y-10303395D01*
X-1693461Y-10284347D01*
X-1674413Y-10274823D01*
X-1636318Y-10274823D01*
X-1617271Y-10284347D01*
X-1607747Y-10303395D01*
X-1607747Y-10322442D01*
X-1702985Y-10341490D01*
X-1531556Y-10398633D02*
X-1512509Y-10408157D01*
X-1474413Y-10408157D01*
X-1455366Y-10398633D01*
X-1445842Y-10379585D01*
X-1445842Y-10370061D01*
X-1455366Y-10351014D01*
X-1474413Y-10341490D01*
X-1502985Y-10341490D01*
X-1522032Y-10331966D01*
X-1531556Y-10312919D01*
X-1531556Y-10303395D01*
X-1522032Y-10284347D01*
X-1502985Y-10274823D01*
X-1474413Y-10274823D01*
X-1455366Y-10284347D01*
X-1379175Y-10484347D02*
X-1369652Y-10474823D01*
X-1350604Y-10446252D01*
X-1341080Y-10427204D01*
X-1331556Y-10398633D01*
X-1322033Y-10351014D01*
X-1322033Y-10312919D01*
X-1331556Y-10265300D01*
X-1341080Y-10236728D01*
X-1350604Y-10217681D01*
X-1369652Y-10189109D01*
X-1379175Y-10179585D01*
D17*
X-6300940Y-10506751D02*
X-6151080Y-10656611D01*
X-6151080Y-10506751D02*
X-6300940Y-10656611D01*
X-6151080Y-10581681D02*
G75*
G03*
X-6151080Y-10581681I-74930J0D01*
G01*
D11*
X-5788699Y-10672157D02*
X-5902985Y-10672157D01*
X-5845842Y-10672157D02*
X-5845842Y-10472157D01*
X-5864890Y-10500728D01*
X-5883937Y-10519776D01*
X-5902985Y-10529300D01*
X-5702985Y-10653109D02*
X-5693461Y-10662633D01*
X-5702985Y-10672157D01*
X-5712509Y-10662633D01*
X-5702985Y-10653109D01*
X-5702985Y-10672157D01*
X-5522033Y-10538823D02*
X-5522033Y-10672157D01*
X-5569652Y-10462633D02*
X-5617271Y-10605490D01*
X-5493461Y-10605490D01*
X-5407747Y-10672157D02*
X-5369652Y-10672157D01*
X-5350604Y-10662633D01*
X-5341080Y-10653109D01*
X-5322033Y-10624538D01*
X-5312509Y-10586442D01*
X-5312509Y-10510252D01*
X-5322033Y-10491204D01*
X-5331556Y-10481681D01*
X-5350604Y-10472157D01*
X-5388699Y-10472157D01*
X-5407747Y-10481681D01*
X-5417271Y-10491204D01*
X-5426794Y-10510252D01*
X-5426794Y-10557871D01*
X-5417271Y-10576919D01*
X-5407747Y-10586442D01*
X-5388699Y-10595966D01*
X-5350604Y-10595966D01*
X-5331556Y-10586442D01*
X-5322033Y-10576919D01*
X-5312509Y-10557871D01*
X-5217271Y-10672157D02*
X-5179175Y-10672157D01*
X-5160128Y-10662633D01*
X-5150604Y-10653109D01*
X-5131556Y-10624538D01*
X-5122033Y-10586442D01*
X-5122033Y-10510252D01*
X-5131556Y-10491204D01*
X-5141080Y-10481681D01*
X-5160128Y-10472157D01*
X-5198223Y-10472157D01*
X-5217271Y-10481681D01*
X-5226794Y-10491204D01*
X-5236318Y-10510252D01*
X-5236318Y-10557871D01*
X-5226794Y-10576919D01*
X-5217271Y-10586442D01*
X-5198223Y-10595966D01*
X-5160128Y-10595966D01*
X-5141080Y-10586442D01*
X-5131556Y-10576919D01*
X-5122033Y-10557871D01*
X-5036318Y-10672157D02*
X-5036318Y-10538823D01*
X-5036318Y-10557871D02*
X-5026794Y-10548347D01*
X-5007747Y-10538823D01*
X-4979175Y-10538823D01*
X-4960128Y-10548347D01*
X-4950604Y-10567395D01*
X-4950604Y-10672157D01*
X-4950604Y-10567395D02*
X-4941080Y-10548347D01*
X-4922033Y-10538823D01*
X-4893461Y-10538823D01*
X-4874414Y-10548347D01*
X-4864890Y-10567395D01*
X-4864890Y-10672157D01*
X-4769652Y-10672157D02*
X-4769652Y-10538823D01*
X-4769652Y-10557871D02*
X-4760128Y-10548347D01*
X-4741080Y-10538823D01*
X-4712509Y-10538823D01*
X-4693461Y-10548347D01*
X-4683937Y-10567395D01*
X-4683937Y-10672157D01*
X-4683937Y-10567395D02*
X-4674414Y-10548347D01*
X-4655366Y-10538823D01*
X-4626794Y-10538823D01*
X-4607747Y-10548347D01*
X-4598223Y-10567395D01*
X-4598223Y-10672157D01*
X-4207747Y-10462633D02*
X-4379175Y-10719776D01*
X-3950604Y-10472157D02*
X-3931556Y-10472157D01*
X-3912509Y-10481681D01*
X-3902985Y-10491204D01*
X-3893461Y-10510252D01*
X-3883937Y-10548347D01*
X-3883937Y-10595966D01*
X-3893461Y-10634061D01*
X-3902985Y-10653109D01*
X-3912509Y-10662633D01*
X-3931556Y-10672157D01*
X-3950604Y-10672157D01*
X-3969652Y-10662633D01*
X-3979175Y-10653109D01*
X-3988699Y-10634061D01*
X-3998223Y-10595966D01*
X-3998223Y-10548347D01*
X-3988699Y-10510252D01*
X-3979175Y-10491204D01*
X-3969652Y-10481681D01*
X-3950604Y-10472157D01*
X-3798223Y-10653109D02*
X-3788699Y-10662633D01*
X-3798223Y-10672157D01*
X-3807747Y-10662633D01*
X-3798223Y-10653109D01*
X-3798223Y-10672157D01*
X-3664890Y-10472157D02*
X-3645842Y-10472157D01*
X-3626794Y-10481681D01*
X-3617271Y-10491204D01*
X-3607747Y-10510252D01*
X-3598223Y-10548347D01*
X-3598223Y-10595966D01*
X-3607747Y-10634061D01*
X-3617271Y-10653109D01*
X-3626794Y-10662633D01*
X-3645842Y-10672157D01*
X-3664890Y-10672157D01*
X-3683937Y-10662633D01*
X-3693461Y-10653109D01*
X-3702985Y-10634061D01*
X-3712509Y-10595966D01*
X-3712509Y-10548347D01*
X-3702985Y-10510252D01*
X-3693461Y-10491204D01*
X-3683937Y-10481681D01*
X-3664890Y-10472157D01*
X-3417271Y-10472157D02*
X-3512509Y-10472157D01*
X-3522032Y-10567395D01*
X-3512509Y-10557871D01*
X-3493461Y-10548347D01*
X-3445842Y-10548347D01*
X-3426794Y-10557871D01*
X-3417271Y-10567395D01*
X-3407747Y-10586442D01*
X-3407747Y-10634061D01*
X-3417271Y-10653109D01*
X-3426794Y-10662633D01*
X-3445842Y-10672157D01*
X-3493461Y-10672157D01*
X-3512509Y-10662633D01*
X-3522032Y-10653109D01*
X-3312509Y-10672157D02*
X-3274413Y-10672157D01*
X-3255366Y-10662633D01*
X-3245842Y-10653109D01*
X-3226794Y-10624538D01*
X-3217271Y-10586442D01*
X-3217271Y-10510252D01*
X-3226794Y-10491204D01*
X-3236318Y-10481681D01*
X-3255366Y-10472157D01*
X-3293461Y-10472157D01*
X-3312509Y-10481681D01*
X-3322032Y-10491204D01*
X-3331556Y-10510252D01*
X-3331556Y-10557871D01*
X-3322032Y-10576919D01*
X-3312509Y-10586442D01*
X-3293461Y-10595966D01*
X-3255366Y-10595966D01*
X-3236318Y-10586442D01*
X-3226794Y-10576919D01*
X-3217271Y-10557871D01*
X-3093461Y-10472157D02*
X-3074413Y-10472157D01*
X-3055366Y-10481681D01*
X-3045842Y-10491204D01*
X-3036318Y-10510252D01*
X-3026794Y-10548347D01*
X-3026794Y-10595966D01*
X-3036318Y-10634061D01*
X-3045842Y-10653109D01*
X-3055366Y-10662633D01*
X-3074413Y-10672157D01*
X-3093461Y-10672157D01*
X-3112509Y-10662633D01*
X-3122032Y-10653109D01*
X-3131556Y-10634061D01*
X-3141080Y-10595966D01*
X-3141080Y-10548347D01*
X-3131556Y-10510252D01*
X-3122032Y-10491204D01*
X-3112509Y-10481681D01*
X-3093461Y-10472157D01*
X-2950604Y-10472157D02*
X-2950604Y-10510252D01*
X-2874413Y-10472157D02*
X-2874413Y-10510252D01*
X-2579175Y-10748347D02*
X-2588699Y-10738823D01*
X-2607747Y-10710252D01*
X-2617271Y-10691204D01*
X-2626794Y-10662633D01*
X-2636318Y-10615014D01*
X-2636318Y-10576919D01*
X-2626794Y-10529300D01*
X-2617271Y-10500728D01*
X-2607747Y-10481681D01*
X-2588699Y-10453109D01*
X-2579175Y-10443585D01*
X-2407747Y-10472157D02*
X-2502985Y-10472157D01*
X-2512509Y-10567395D01*
X-2502985Y-10557871D01*
X-2483937Y-10548347D01*
X-2436318Y-10548347D01*
X-2417271Y-10557871D01*
X-2407747Y-10567395D01*
X-2398223Y-10586442D01*
X-2398223Y-10634061D01*
X-2407747Y-10653109D01*
X-2417271Y-10662633D01*
X-2436318Y-10672157D01*
X-2483937Y-10672157D01*
X-2502985Y-10662633D01*
X-2512509Y-10653109D01*
X-2226794Y-10538823D02*
X-2226794Y-10672157D01*
X-2274414Y-10462633D02*
X-2322033Y-10605490D01*
X-2198223Y-10605490D01*
X-1969652Y-10672157D02*
X-1969652Y-10472157D01*
X-1883937Y-10672157D02*
X-1883937Y-10567395D01*
X-1893461Y-10548347D01*
X-1912509Y-10538823D01*
X-1941080Y-10538823D01*
X-1960128Y-10548347D01*
X-1969652Y-10557871D01*
X-1760128Y-10672157D02*
X-1779175Y-10662633D01*
X-1788699Y-10653109D01*
X-1798223Y-10634061D01*
X-1798223Y-10576919D01*
X-1788699Y-10557871D01*
X-1779175Y-10548347D01*
X-1760128Y-10538823D01*
X-1731556Y-10538823D01*
X-1712509Y-10548347D01*
X-1702985Y-10557871D01*
X-1693461Y-10576919D01*
X-1693461Y-10634061D01*
X-1702985Y-10653109D01*
X-1712509Y-10662633D01*
X-1731556Y-10672157D01*
X-1760128Y-10672157D01*
X-1579175Y-10672157D02*
X-1598223Y-10662633D01*
X-1607747Y-10643585D01*
X-1607747Y-10472157D01*
X-1426794Y-10662633D02*
X-1445842Y-10672157D01*
X-1483937Y-10672157D01*
X-1502985Y-10662633D01*
X-1512509Y-10643585D01*
X-1512509Y-10567395D01*
X-1502985Y-10548347D01*
X-1483937Y-10538823D01*
X-1445842Y-10538823D01*
X-1426794Y-10548347D01*
X-1417271Y-10567395D01*
X-1417271Y-10586442D01*
X-1512509Y-10605490D01*
X-1341080Y-10662633D02*
X-1322033Y-10672157D01*
X-1283937Y-10672157D01*
X-1264890Y-10662633D01*
X-1255366Y-10643585D01*
X-1255366Y-10634061D01*
X-1264890Y-10615014D01*
X-1283937Y-10605490D01*
X-1312509Y-10605490D01*
X-1331556Y-10595966D01*
X-1341080Y-10576919D01*
X-1341080Y-10567395D01*
X-1331556Y-10548347D01*
X-1312509Y-10538823D01*
X-1283937Y-10538823D01*
X-1264890Y-10548347D01*
X-1188699Y-10748347D02*
X-1179175Y-10738823D01*
X-1160128Y-10710252D01*
X-1150604Y-10691204D01*
X-1141080Y-10662633D01*
X-1131556Y-10615014D01*
X-1131556Y-10576919D01*
X-1141080Y-10529300D01*
X-1150604Y-10500728D01*
X-1160128Y-10481681D01*
X-1179175Y-10453109D01*
X-1188699Y-10443585D01*
X-6351080Y-10751541D02*
X-6151080Y-10951541D01*
X-6151080Y-10751541D02*
X-6351080Y-10951541D01*
X-6251080Y-10751541D02*
X-6251080Y-10951541D01*
X-6351080Y-10851541D02*
X-6151080Y-10851541D01*
X-5902985Y-10761064D02*
X-5893461Y-10751541D01*
X-5874413Y-10742017D01*
X-5826794Y-10742017D01*
X-5807747Y-10751541D01*
X-5798223Y-10761064D01*
X-5788699Y-10780112D01*
X-5788699Y-10799160D01*
X-5798223Y-10827731D01*
X-5912509Y-10942017D01*
X-5788699Y-10942017D01*
X-5702985Y-10922969D02*
X-5693461Y-10932493D01*
X-5702985Y-10942017D01*
X-5712509Y-10932493D01*
X-5702985Y-10922969D01*
X-5702985Y-10942017D01*
X-5617271Y-10761064D02*
X-5607747Y-10751541D01*
X-5588699Y-10742017D01*
X-5541080Y-10742017D01*
X-5522033Y-10751541D01*
X-5512509Y-10761064D01*
X-5502985Y-10780112D01*
X-5502985Y-10799160D01*
X-5512509Y-10827731D01*
X-5626794Y-10942017D01*
X-5502985Y-10942017D01*
X-5379175Y-10742017D02*
X-5360128Y-10742017D01*
X-5341080Y-10751541D01*
X-5331556Y-10761064D01*
X-5322033Y-10780112D01*
X-5312509Y-10818207D01*
X-5312509Y-10865826D01*
X-5322033Y-10903921D01*
X-5331556Y-10922969D01*
X-5341080Y-10932493D01*
X-5360128Y-10942017D01*
X-5379175Y-10942017D01*
X-5398223Y-10932493D01*
X-5407747Y-10922969D01*
X-5417271Y-10903921D01*
X-5426794Y-10865826D01*
X-5426794Y-10818207D01*
X-5417271Y-10780112D01*
X-5407747Y-10761064D01*
X-5398223Y-10751541D01*
X-5379175Y-10742017D01*
X-5188699Y-10742017D02*
X-5169652Y-10742017D01*
X-5150604Y-10751541D01*
X-5141080Y-10761064D01*
X-5131556Y-10780112D01*
X-5122033Y-10818207D01*
X-5122033Y-10865826D01*
X-5131556Y-10903921D01*
X-5141080Y-10922969D01*
X-5150604Y-10932493D01*
X-5169652Y-10942017D01*
X-5188699Y-10942017D01*
X-5207747Y-10932493D01*
X-5217271Y-10922969D01*
X-5226794Y-10903921D01*
X-5236318Y-10865826D01*
X-5236318Y-10818207D01*
X-5226794Y-10780112D01*
X-5217271Y-10761064D01*
X-5207747Y-10751541D01*
X-5188699Y-10742017D01*
X-5036318Y-10942017D02*
X-5036318Y-10808683D01*
X-5036318Y-10827731D02*
X-5026794Y-10818207D01*
X-5007747Y-10808683D01*
X-4979175Y-10808683D01*
X-4960128Y-10818207D01*
X-4950604Y-10837255D01*
X-4950604Y-10942017D01*
X-4950604Y-10837255D02*
X-4941080Y-10818207D01*
X-4922033Y-10808683D01*
X-4893461Y-10808683D01*
X-4874414Y-10818207D01*
X-4864890Y-10837255D01*
X-4864890Y-10942017D01*
X-4769652Y-10942017D02*
X-4769652Y-10808683D01*
X-4769652Y-10827731D02*
X-4760128Y-10818207D01*
X-4741080Y-10808683D01*
X-4712509Y-10808683D01*
X-4693461Y-10818207D01*
X-4683937Y-10837255D01*
X-4683937Y-10942017D01*
X-4683937Y-10837255D02*
X-4674414Y-10818207D01*
X-4655366Y-10808683D01*
X-4626794Y-10808683D01*
X-4607747Y-10818207D01*
X-4598223Y-10837255D01*
X-4598223Y-10942017D01*
X-4207747Y-10732493D02*
X-4379175Y-10989636D01*
X-3950604Y-10742017D02*
X-3931556Y-10742017D01*
X-3912509Y-10751541D01*
X-3902985Y-10761064D01*
X-3893461Y-10780112D01*
X-3883937Y-10818207D01*
X-3883937Y-10865826D01*
X-3893461Y-10903921D01*
X-3902985Y-10922969D01*
X-3912509Y-10932493D01*
X-3931556Y-10942017D01*
X-3950604Y-10942017D01*
X-3969652Y-10932493D01*
X-3979175Y-10922969D01*
X-3988699Y-10903921D01*
X-3998223Y-10865826D01*
X-3998223Y-10818207D01*
X-3988699Y-10780112D01*
X-3979175Y-10761064D01*
X-3969652Y-10751541D01*
X-3950604Y-10742017D01*
X-3798223Y-10922969D02*
X-3788699Y-10932493D01*
X-3798223Y-10942017D01*
X-3807747Y-10932493D01*
X-3798223Y-10922969D01*
X-3798223Y-10942017D01*
X-3664890Y-10742017D02*
X-3645842Y-10742017D01*
X-3626794Y-10751541D01*
X-3617271Y-10761064D01*
X-3607747Y-10780112D01*
X-3598223Y-10818207D01*
X-3598223Y-10865826D01*
X-3607747Y-10903921D01*
X-3617271Y-10922969D01*
X-3626794Y-10932493D01*
X-3645842Y-10942017D01*
X-3664890Y-10942017D01*
X-3683937Y-10932493D01*
X-3693461Y-10922969D01*
X-3702985Y-10903921D01*
X-3712509Y-10865826D01*
X-3712509Y-10818207D01*
X-3702985Y-10780112D01*
X-3693461Y-10761064D01*
X-3683937Y-10751541D01*
X-3664890Y-10742017D01*
X-3483937Y-10827731D02*
X-3502985Y-10818207D01*
X-3512509Y-10808683D01*
X-3522032Y-10789636D01*
X-3522032Y-10780112D01*
X-3512509Y-10761064D01*
X-3502985Y-10751541D01*
X-3483937Y-10742017D01*
X-3445842Y-10742017D01*
X-3426794Y-10751541D01*
X-3417271Y-10761064D01*
X-3407747Y-10780112D01*
X-3407747Y-10789636D01*
X-3417271Y-10808683D01*
X-3426794Y-10818207D01*
X-3445842Y-10827731D01*
X-3483937Y-10827731D01*
X-3502985Y-10837255D01*
X-3512509Y-10846779D01*
X-3522032Y-10865826D01*
X-3522032Y-10903921D01*
X-3512509Y-10922969D01*
X-3502985Y-10932493D01*
X-3483937Y-10942017D01*
X-3445842Y-10942017D01*
X-3426794Y-10932493D01*
X-3417271Y-10922969D01*
X-3407747Y-10903921D01*
X-3407747Y-10865826D01*
X-3417271Y-10846779D01*
X-3426794Y-10837255D01*
X-3445842Y-10827731D01*
X-3236318Y-10742017D02*
X-3274413Y-10742017D01*
X-3293461Y-10751541D01*
X-3302985Y-10761064D01*
X-3322032Y-10789636D01*
X-3331556Y-10827731D01*
X-3331556Y-10903921D01*
X-3322032Y-10922969D01*
X-3312509Y-10932493D01*
X-3293461Y-10942017D01*
X-3255366Y-10942017D01*
X-3236318Y-10932493D01*
X-3226794Y-10922969D01*
X-3217271Y-10903921D01*
X-3217271Y-10856302D01*
X-3226794Y-10837255D01*
X-3236318Y-10827731D01*
X-3255366Y-10818207D01*
X-3293461Y-10818207D01*
X-3312509Y-10827731D01*
X-3322032Y-10837255D01*
X-3331556Y-10856302D01*
X-3045842Y-10742017D02*
X-3083937Y-10742017D01*
X-3102985Y-10751541D01*
X-3112509Y-10761064D01*
X-3131556Y-10789636D01*
X-3141080Y-10827731D01*
X-3141080Y-10903921D01*
X-3131556Y-10922969D01*
X-3122032Y-10932493D01*
X-3102985Y-10942017D01*
X-3064890Y-10942017D01*
X-3045842Y-10932493D01*
X-3036318Y-10922969D01*
X-3026794Y-10903921D01*
X-3026794Y-10856302D01*
X-3036318Y-10837255D01*
X-3045842Y-10827731D01*
X-3064890Y-10818207D01*
X-3102985Y-10818207D01*
X-3122032Y-10827731D01*
X-3131556Y-10837255D01*
X-3141080Y-10856302D01*
X-2950604Y-10742017D02*
X-2950604Y-10780112D01*
X-2874413Y-10742017D02*
X-2874413Y-10780112D01*
X-2579175Y-11018207D02*
X-2588699Y-11008683D01*
X-2607747Y-10980112D01*
X-2617271Y-10961064D01*
X-2626794Y-10932493D01*
X-2636318Y-10884874D01*
X-2636318Y-10846779D01*
X-2626794Y-10799160D01*
X-2617271Y-10770588D01*
X-2607747Y-10751541D01*
X-2588699Y-10722969D01*
X-2579175Y-10713445D01*
X-2417271Y-10742017D02*
X-2455366Y-10742017D01*
X-2474414Y-10751541D01*
X-2483937Y-10761064D01*
X-2502985Y-10789636D01*
X-2512509Y-10827731D01*
X-2512509Y-10903921D01*
X-2502985Y-10922969D01*
X-2493461Y-10932493D01*
X-2474414Y-10942017D01*
X-2436318Y-10942017D01*
X-2417271Y-10932493D01*
X-2407747Y-10922969D01*
X-2398223Y-10903921D01*
X-2398223Y-10856302D01*
X-2407747Y-10837255D01*
X-2417271Y-10827731D01*
X-2436318Y-10818207D01*
X-2474414Y-10818207D01*
X-2493461Y-10827731D01*
X-2502985Y-10837255D01*
X-2512509Y-10856302D01*
X-2160128Y-10942017D02*
X-2160128Y-10742017D01*
X-2074413Y-10942017D02*
X-2074413Y-10837255D01*
X-2083937Y-10818207D01*
X-2102985Y-10808683D01*
X-2131556Y-10808683D01*
X-2150604Y-10818207D01*
X-2160128Y-10827731D01*
X-1950604Y-10942017D02*
X-1969652Y-10932493D01*
X-1979175Y-10922969D01*
X-1988699Y-10903921D01*
X-1988699Y-10846779D01*
X-1979175Y-10827731D01*
X-1969652Y-10818207D01*
X-1950604Y-10808683D01*
X-1922032Y-10808683D01*
X-1902985Y-10818207D01*
X-1893461Y-10827731D01*
X-1883937Y-10846779D01*
X-1883937Y-10903921D01*
X-1893461Y-10922969D01*
X-1902985Y-10932493D01*
X-1922032Y-10942017D01*
X-1950604Y-10942017D01*
X-1769652Y-10942017D02*
X-1788699Y-10932493D01*
X-1798223Y-10913445D01*
X-1798223Y-10742017D01*
X-1617271Y-10932493D02*
X-1636318Y-10942017D01*
X-1674413Y-10942017D01*
X-1693461Y-10932493D01*
X-1702985Y-10913445D01*
X-1702985Y-10837255D01*
X-1693461Y-10818207D01*
X-1674413Y-10808683D01*
X-1636318Y-10808683D01*
X-1617271Y-10818207D01*
X-1607747Y-10837255D01*
X-1607747Y-10856302D01*
X-1702985Y-10875350D01*
X-1531556Y-10932493D02*
X-1512509Y-10942017D01*
X-1474413Y-10942017D01*
X-1455366Y-10932493D01*
X-1445842Y-10913445D01*
X-1445842Y-10903921D01*
X-1455366Y-10884874D01*
X-1474413Y-10875350D01*
X-1502985Y-10875350D01*
X-1522032Y-10865826D01*
X-1531556Y-10846779D01*
X-1531556Y-10837255D01*
X-1522032Y-10818207D01*
X-1502985Y-10808683D01*
X-1474413Y-10808683D01*
X-1455366Y-10818207D01*
X-1379175Y-11018207D02*
X-1369652Y-11008683D01*
X-1350604Y-10980112D01*
X-1341080Y-10961064D01*
X-1331556Y-10932493D01*
X-1322033Y-10884874D01*
X-1322033Y-10846779D01*
X-1331556Y-10799160D01*
X-1341080Y-10770588D01*
X-1350604Y-10751541D01*
X-1369652Y-10722969D01*
X-1379175Y-10713445D01*
M02*
