%TF.GenerationSoftware,KiCad,Pcbnew,(6.0.5)*%
%TF.CreationDate,2022-07-25T14:12:34-03:00*%
%TF.ProjectId,bluejay_right,626c7565-6a61-4795-9f72-696768742e6b,rev?*%
%TF.SameCoordinates,Original*%
%TF.FileFunction,Soldermask,Bot*%
%TF.FilePolarity,Negative*%
%FSLAX46Y46*%
G04 Gerber Fmt 4.6, Leading zero omitted, Abs format (unit mm)*
G04 Created by KiCad (PCBNEW (6.0.5)) date 2022-07-25 14:12:34*
%MOMM*%
%LPD*%
G01*
G04 APERTURE LIST*
%ADD10C,4.400000*%
%ADD11C,3.987800*%
%ADD12C,2.286000*%
%ADD13R,1.600000X1.600000*%
%ADD14O,1.600000X1.600000*%
%ADD15C,1.100000*%
%ADD16R,1.650000X1.650000*%
%ADD17C,1.650000*%
%ADD18R,1.200000X1.200000*%
%ADD19C,1.200000*%
%ADD20C,1.400000*%
%ADD21O,1.400000X1.400000*%
%ADD22C,1.600000*%
G04 APERTURE END LIST*
D10*
%TO.C,H5*%
X29150000Y-9550000D03*
%TD*%
D11*
%TO.C,SWd1*%
X38100000Y38100000D03*
D12*
X40640000Y43180000D03*
X34290000Y40640000D03*
%TD*%
D10*
%TO.C,H3*%
X-9000000Y28600000D03*
%TD*%
%TO.C,H4*%
X66800000Y2400000D03*
%TD*%
D13*
%TO.C,Dc4*%
X8770000Y-2400000D03*
D14*
X13850000Y-2400000D03*
%TD*%
D13*
%TO.C,Db2*%
X-34836300Y3500000D03*
D14*
X-29756300Y3500000D03*
%TD*%
D13*
%TO.C,Db3*%
X-34836300Y-11750000D03*
D14*
X-29756300Y-11750000D03*
%TD*%
D11*
%TO.C,SWb5*%
X-31271200Y-57826300D03*
D12*
X-31413429Y-52148468D03*
X-35827688Y-57372300D03*
%TD*%
D15*
%TO.C,J2*%
X-48950000Y53300000D03*
X-48950000Y48300000D03*
D16*
X-44150000Y53300000D03*
D17*
X-52550000Y48300000D03*
X-47350000Y45200000D03*
X-53450000Y53300000D03*
%TD*%
D11*
%TO.C,SWb1*%
X0Y38100000D03*
D12*
X2540000Y43180000D03*
X-3810000Y40640000D03*
%TD*%
D11*
%TO.C,SWd3*%
X38100000Y0D03*
D12*
X40640000Y5080000D03*
X34290000Y2540000D03*
%TD*%
D18*
%TO.C,C6*%
X-55150000Y40650000D03*
D19*
X-56650000Y40650000D03*
%TD*%
D13*
%TO.C,Db1*%
X-35086300Y20000000D03*
D14*
X-30006300Y20000000D03*
%TD*%
D13*
%TO.C,Df4*%
X82817500Y27750000D03*
D14*
X77737500Y27750000D03*
%TD*%
D13*
%TO.C,Df3*%
X81630000Y36250000D03*
D14*
X76550000Y36250000D03*
%TD*%
D11*
%TO.C,SWf2*%
X76200000Y11906300D03*
D12*
X78740000Y16986300D03*
X72390000Y14446300D03*
%TD*%
D10*
%TO.C,H2*%
X-57200000Y52500000D03*
%TD*%
D13*
%TO.C,De1*%
X64317500Y52450000D03*
D14*
X59237500Y52450000D03*
%TD*%
D10*
%TO.C,H1*%
X82200000Y52600000D03*
%TD*%
D11*
%TO.C,SWd4*%
X38100000Y-19050000D03*
D12*
X40640000Y-13970000D03*
X34290000Y-16510000D03*
%TD*%
D10*
%TO.C,H7*%
X-1600000Y-46000000D03*
%TD*%
D11*
%TO.C,SWf4*%
X76200000Y-26193800D03*
D12*
X78740000Y-21113800D03*
X72390000Y-23653800D03*
%TD*%
D11*
%TO.C,SWa3*%
X-19050000Y-2381300D03*
D12*
X-16510000Y2698700D03*
X-22860000Y158700D03*
%TD*%
D11*
%TO.C,SWc3*%
X19050000Y7143800D03*
D12*
X21590000Y12223800D03*
X15240000Y9683800D03*
%TD*%
D13*
%TO.C,Da2*%
X-36586300Y12500000D03*
D14*
X-31506300Y12500000D03*
%TD*%
D10*
%TO.C,H8*%
X-40900000Y-63300000D03*
%TD*%
D11*
%TO.C,SWd2*%
X38100000Y19050000D03*
D12*
X40640000Y24130000D03*
X34290000Y21590000D03*
%TD*%
D11*
%TO.C,SWb2*%
X0Y19050000D03*
D12*
X2540000Y24130000D03*
X-3810000Y21590000D03*
%TD*%
D13*
%TO.C,Da3*%
X-36586300Y-4500000D03*
D14*
X-31506300Y-4500000D03*
%TD*%
D11*
%TO.C,SWf3*%
X76200000Y-7143800D03*
D12*
X78740000Y-2063800D03*
X72390000Y-4603800D03*
%TD*%
D20*
%TO.C,R6*%
X-57850000Y43900000D03*
D21*
X-57850000Y48980000D03*
%TD*%
D11*
%TO.C,SWb3*%
X0Y0D03*
D12*
X2540000Y5080000D03*
X-3810000Y2540000D03*
%TD*%
D13*
%TO.C,Dd4*%
X35882500Y-9400000D03*
D14*
X40962500Y-9400000D03*
%TD*%
D11*
%TO.C,SWe4*%
X57150000Y-26193800D03*
D12*
X59690000Y-21113800D03*
X53340000Y-23653800D03*
%TD*%
D11*
%TO.C,SWa2*%
X-19050000Y16668800D03*
D12*
X-16510000Y21748800D03*
X-22860000Y19208800D03*
%TD*%
D11*
%TO.C,SWb4*%
X0Y-19050000D03*
D12*
X2540000Y-13970000D03*
X-3810000Y-16510000D03*
%TD*%
D13*
%TO.C,Dd1*%
X40830000Y52500000D03*
D14*
X35750000Y52500000D03*
%TD*%
D11*
%TO.C,SWa1*%
X-19050000Y35718800D03*
D12*
X-16510000Y40798800D03*
X-22860000Y38258800D03*
%TD*%
D11*
%TO.C,SWe3*%
X57150000Y-7143800D03*
D12*
X59690000Y-2063800D03*
X53340000Y-4603800D03*
%TD*%
D13*
%TO.C,Dd3*%
X53780000Y44950000D03*
D14*
X48700000Y44950000D03*
%TD*%
D13*
%TO.C,Db4*%
X-34817500Y-26750000D03*
D14*
X-29737500Y-26750000D03*
%TD*%
D11*
%TO.C,SWc1*%
X19050000Y45243800D03*
D12*
X21590000Y50323800D03*
X15240000Y47783800D03*
%TD*%
D13*
%TO.C,De3*%
X72580000Y40450000D03*
D14*
X67500000Y40450000D03*
%TD*%
D10*
%TO.C,H9*%
X-56950000Y-64150000D03*
%TD*%
D13*
%TO.C,Dc1*%
X-6180000Y52450000D03*
D14*
X-1100000Y52450000D03*
%TD*%
D20*
%TO.C,R5*%
X-49990000Y41000000D03*
D21*
X-44910000Y41000000D03*
%TD*%
D11*
%TO.C,SWc5*%
X-11631200Y-49016300D03*
D12*
X-10395612Y-43472716D03*
X-15942508Y-47473471D03*
%TD*%
D11*
%TO.C,SWa4*%
X-19050000Y-21431300D03*
D12*
X-16510000Y-16351300D03*
X-22860000Y-18891300D03*
%TD*%
D13*
%TO.C,Dc3*%
X-13630000Y48600000D03*
D14*
X-8550000Y48600000D03*
%TD*%
D13*
%TO.C,Dd2*%
X52580000Y52500000D03*
D14*
X47500000Y52500000D03*
%TD*%
D22*
%TO.C,C7*%
X-56650000Y5750000D03*
X-56650000Y750000D03*
%TD*%
D11*
%TO.C,SWd5*%
X9525000Y-45243800D03*
D12*
X12065000Y-40163800D03*
X5715000Y-42703800D03*
%TD*%
D13*
%TO.C,Dd5*%
X22117500Y-28400000D03*
D14*
X17037500Y-28400000D03*
%TD*%
D13*
%TO.C,U2*%
X-53750000Y24825000D03*
D14*
X-53750000Y22285000D03*
X-53750000Y19745000D03*
X-53750000Y17205000D03*
X-53750000Y14665000D03*
X-53750000Y12125000D03*
X-53750000Y9585000D03*
X-53750000Y7045000D03*
X-53750000Y4505000D03*
X-53750000Y1965000D03*
X-53750000Y-575000D03*
X-53750000Y-3115000D03*
X-53750000Y-5655000D03*
X-53750000Y-8195000D03*
X-46130000Y-8195000D03*
X-46130000Y-5655000D03*
X-46130000Y-3115000D03*
X-46130000Y-575000D03*
X-46130000Y1965000D03*
X-46130000Y4505000D03*
X-46130000Y7045000D03*
X-46130000Y9585000D03*
X-46130000Y12125000D03*
X-46130000Y14665000D03*
X-46130000Y17205000D03*
X-46130000Y19745000D03*
X-46130000Y22285000D03*
X-46130000Y24825000D03*
%TD*%
D11*
%TO.C,SWc4*%
X19050000Y-11906300D03*
D12*
X21590000Y-6826300D03*
X15240000Y-9366300D03*
%TD*%
D13*
%TO.C,Dc2*%
X1470000Y48600000D03*
D14*
X6550000Y48600000D03*
%TD*%
D11*
%TO.C,SWe2*%
X57150000Y11906300D03*
D12*
X59690000Y16986300D03*
X53340000Y14446300D03*
%TD*%
D13*
%TO.C,De2*%
X66230000Y44950000D03*
D14*
X61150000Y44950000D03*
%TD*%
D13*
%TO.C,Dc5*%
X2130000Y-32700000D03*
D14*
X-2950000Y-32700000D03*
%TD*%
D13*
%TO.C,Df2*%
X80380000Y44950000D03*
D14*
X75300000Y44950000D03*
%TD*%
D11*
%TO.C,SWc2*%
X19050000Y26193800D03*
D12*
X21590000Y31273800D03*
X15240000Y28733800D03*
%TD*%
D13*
%TO.C,Da4*%
X-36567500Y-19500000D03*
D14*
X-31487500Y-19500000D03*
%TD*%
D13*
%TO.C,Db5*%
X-33970000Y-43650000D03*
D14*
X-39050000Y-43650000D03*
%TD*%
D11*
%TO.C,SWa5*%
X-48270000Y-71060000D03*
D12*
X-49781596Y-65585233D03*
X-52800974Y-71721800D03*
%TD*%
D13*
%TO.C,De4*%
X73780000Y32000000D03*
D14*
X68700000Y32000000D03*
%TD*%
D11*
%TO.C,SWe1*%
X57150000Y30956300D03*
D12*
X59690000Y36036300D03*
X53340000Y33496300D03*
%TD*%
D13*
%TO.C,Da1*%
X-35930000Y27400000D03*
D14*
X-30850000Y27400000D03*
%TD*%
D10*
%TO.C,H6*%
X66800000Y-16600000D03*
%TD*%
D13*
%TO.C,Da5*%
X-48470000Y-55200000D03*
D14*
X-53550000Y-55200000D03*
%TD*%
M02*
