%TF.GenerationSoftware,KiCad,Pcbnew,(6.0.5)*%
%TF.CreationDate,2022-07-25T14:12:34-03:00*%
%TF.ProjectId,bluejay_right,626c7565-6a61-4795-9f72-696768742e6b,rev?*%
%TF.SameCoordinates,Original*%
%TF.FileFunction,Legend,Top*%
%TF.FilePolarity,Positive*%
%FSLAX46Y46*%
G04 Gerber Fmt 4.6, Leading zero omitted, Abs format (unit mm)*
G04 Created by KiCad (PCBNEW (6.0.5)) date 2022-07-25 14:12:34*
%MOMM*%
%LPD*%
G01*
G04 APERTURE LIST*
%ADD10C,0.150000*%
%ADD11C,0.120150*%
%ADD12C,0.120000*%
%ADD13C,0.127000*%
%ADD14C,0.400000*%
G04 APERTURE END LIST*
D10*
%TO.C,SWd1*%
X36314285Y45950238D02*
X36457142Y45902619D01*
X36695238Y45902619D01*
X36790476Y45950238D01*
X36838095Y45997857D01*
X36885714Y46093095D01*
X36885714Y46188333D01*
X36838095Y46283571D01*
X36790476Y46331190D01*
X36695238Y46378809D01*
X36504761Y46426428D01*
X36409523Y46474047D01*
X36361904Y46521666D01*
X36314285Y46616904D01*
X36314285Y46712142D01*
X36361904Y46807380D01*
X36409523Y46855000D01*
X36504761Y46902619D01*
X36742857Y46902619D01*
X36885714Y46855000D01*
X37219047Y46902619D02*
X37457142Y45902619D01*
X37647619Y46616904D01*
X37838095Y45902619D01*
X38076190Y46902619D01*
X38885714Y45902619D02*
X38885714Y46902619D01*
X38885714Y45950238D02*
X38790476Y45902619D01*
X38600000Y45902619D01*
X38504761Y45950238D01*
X38457142Y45997857D01*
X38409523Y46093095D01*
X38409523Y46378809D01*
X38457142Y46474047D01*
X38504761Y46521666D01*
X38600000Y46569285D01*
X38790476Y46569285D01*
X38885714Y46521666D01*
X39885714Y45902619D02*
X39314285Y45902619D01*
X39600000Y45902619D02*
X39600000Y46902619D01*
X39504761Y46759761D01*
X39409523Y46664523D01*
X39314285Y46616904D01*
%TO.C,Dc4*%
X9636666Y-4801904D02*
X9636666Y-4001904D01*
X9827142Y-4001904D01*
X9941428Y-4040000D01*
X10017619Y-4116190D01*
X10055714Y-4192380D01*
X10093809Y-4344761D01*
X10093809Y-4459047D01*
X10055714Y-4611428D01*
X10017619Y-4687619D01*
X9941428Y-4763809D01*
X9827142Y-4801904D01*
X9636666Y-4801904D01*
X10779523Y-4763809D02*
X10703333Y-4801904D01*
X10550952Y-4801904D01*
X10474761Y-4763809D01*
X10436666Y-4725714D01*
X10398571Y-4649523D01*
X10398571Y-4420952D01*
X10436666Y-4344761D01*
X10474761Y-4306666D01*
X10550952Y-4268571D01*
X10703333Y-4268571D01*
X10779523Y-4306666D01*
X11465238Y-4268571D02*
X11465238Y-4801904D01*
X11274761Y-3963809D02*
X11084285Y-4535238D01*
X11579523Y-4535238D01*
%TO.C,Db2*%
X-33248680Y1106095D02*
X-33248680Y1906095D01*
X-33058204Y1906095D01*
X-32943919Y1868000D01*
X-32867728Y1791809D01*
X-32829633Y1715619D01*
X-32791538Y1563238D01*
X-32791538Y1448952D01*
X-32829633Y1296571D01*
X-32867728Y1220380D01*
X-32943919Y1144190D01*
X-33058204Y1106095D01*
X-33248680Y1106095D01*
X-32448680Y1106095D02*
X-32448680Y1906095D01*
X-32448680Y1601333D02*
X-32372490Y1639428D01*
X-32220109Y1639428D01*
X-32143919Y1601333D01*
X-32105823Y1563238D01*
X-32067728Y1487047D01*
X-32067728Y1258476D01*
X-32105823Y1182285D01*
X-32143919Y1144190D01*
X-32220109Y1106095D01*
X-32372490Y1106095D01*
X-32448680Y1144190D01*
X-31762966Y1829904D02*
X-31724871Y1868000D01*
X-31648680Y1906095D01*
X-31458204Y1906095D01*
X-31382014Y1868000D01*
X-31343919Y1829904D01*
X-31305823Y1753714D01*
X-31305823Y1677523D01*
X-31343919Y1563238D01*
X-31801061Y1106095D01*
X-31305823Y1106095D01*
%TO.C,Db3*%
X-33248680Y-14143904D02*
X-33248680Y-13343904D01*
X-33058204Y-13343904D01*
X-32943919Y-13382000D01*
X-32867728Y-13458190D01*
X-32829633Y-13534380D01*
X-32791538Y-13686761D01*
X-32791538Y-13801047D01*
X-32829633Y-13953428D01*
X-32867728Y-14029619D01*
X-32943919Y-14105809D01*
X-33058204Y-14143904D01*
X-33248680Y-14143904D01*
X-32448680Y-14143904D02*
X-32448680Y-13343904D01*
X-32448680Y-13648666D02*
X-32372490Y-13610571D01*
X-32220109Y-13610571D01*
X-32143919Y-13648666D01*
X-32105823Y-13686761D01*
X-32067728Y-13762952D01*
X-32067728Y-13991523D01*
X-32105823Y-14067714D01*
X-32143919Y-14105809D01*
X-32220109Y-14143904D01*
X-32372490Y-14143904D01*
X-32448680Y-14105809D01*
X-31801061Y-13343904D02*
X-31305823Y-13343904D01*
X-31572490Y-13648666D01*
X-31458204Y-13648666D01*
X-31382014Y-13686761D01*
X-31343919Y-13724857D01*
X-31305823Y-13801047D01*
X-31305823Y-13991523D01*
X-31343919Y-14067714D01*
X-31382014Y-14105809D01*
X-31458204Y-14143904D01*
X-31686776Y-14143904D01*
X-31762966Y-14105809D01*
X-31801061Y-14067714D01*
%TO.C,SWb5*%
X-36533355Y-51733293D02*
X-36384864Y-51708271D01*
X-36174639Y-51596492D01*
X-36112904Y-51509735D01*
X-36093215Y-51445334D01*
X-36095881Y-51338888D01*
X-36140593Y-51254798D01*
X-36227350Y-51193064D01*
X-36291751Y-51173374D01*
X-36398197Y-51176041D01*
X-36588733Y-51223419D01*
X-36695179Y-51226085D01*
X-36759580Y-51206396D01*
X-36846336Y-51144661D01*
X-36891048Y-51060571D01*
X-36893714Y-50954125D01*
X-36874025Y-50889724D01*
X-36812291Y-50802968D01*
X-36602065Y-50691189D01*
X-36453574Y-50666166D01*
X-36181614Y-50467631D02*
X-35501917Y-51238799D01*
X-35669073Y-50518699D01*
X-35165556Y-51059953D01*
X-35424802Y-50065226D01*
X-34618969Y-50769328D02*
X-35088441Y-49886380D01*
X-34909594Y-50222741D02*
X-34847860Y-50135984D01*
X-34679679Y-50046561D01*
X-34573233Y-50043895D01*
X-34508832Y-50063584D01*
X-34422076Y-50125319D01*
X-34287941Y-50377589D01*
X-34285275Y-50484035D01*
X-34304964Y-50548436D01*
X-34366698Y-50635193D01*
X-34534879Y-50724616D01*
X-34641325Y-50727283D01*
X-33869132Y-49238062D02*
X-34289583Y-49461620D01*
X-34108071Y-49904427D01*
X-34088381Y-49840026D01*
X-34026647Y-49753270D01*
X-33816421Y-49641491D01*
X-33709975Y-49638824D01*
X-33645574Y-49658514D01*
X-33558817Y-49720248D01*
X-33447039Y-49930474D01*
X-33444372Y-50036920D01*
X-33464061Y-50101321D01*
X-33525796Y-50188077D01*
X-33736021Y-50299856D01*
X-33842468Y-50302523D01*
X-33906868Y-50282833D01*
D11*
%TO.C,J2*%
X-42399914Y53519503D02*
X-42056630Y53519503D01*
X-41987973Y53496618D01*
X-41942202Y53450846D01*
X-41919316Y53382189D01*
X-41919316Y53336418D01*
X-42354143Y53725474D02*
X-42377029Y53748359D01*
X-42399914Y53794131D01*
X-42399914Y53908559D01*
X-42377029Y53954330D01*
X-42354143Y53977216D01*
X-42308372Y54000101D01*
X-42262600Y54000101D01*
X-42193944Y53977216D01*
X-41919316Y53702588D01*
X-41919316Y54000101D01*
D10*
%TO.C,SWb1*%
X-1785714Y45950238D02*
X-1642857Y45902619D01*
X-1404761Y45902619D01*
X-1309523Y45950238D01*
X-1261904Y45997857D01*
X-1214285Y46093095D01*
X-1214285Y46188333D01*
X-1261904Y46283571D01*
X-1309523Y46331190D01*
X-1404761Y46378809D01*
X-1595238Y46426428D01*
X-1690476Y46474047D01*
X-1738095Y46521666D01*
X-1785714Y46616904D01*
X-1785714Y46712142D01*
X-1738095Y46807380D01*
X-1690476Y46855000D01*
X-1595238Y46902619D01*
X-1357142Y46902619D01*
X-1214285Y46855000D01*
X-880952Y46902619D02*
X-642857Y45902619D01*
X-452380Y46616904D01*
X-261904Y45902619D01*
X-23809Y46902619D01*
X357142Y45902619D02*
X357142Y46902619D01*
X357142Y46521666D02*
X452380Y46569285D01*
X642857Y46569285D01*
X738095Y46521666D01*
X785714Y46474047D01*
X833333Y46378809D01*
X833333Y46093095D01*
X785714Y45997857D01*
X738095Y45950238D01*
X642857Y45902619D01*
X452380Y45902619D01*
X357142Y45950238D01*
X1785714Y45902619D02*
X1214285Y45902619D01*
X1500000Y45902619D02*
X1500000Y46902619D01*
X1404761Y46759761D01*
X1309523Y46664523D01*
X1214285Y46616904D01*
%TO.C,SWd3*%
X36314285Y7850238D02*
X36457142Y7802619D01*
X36695238Y7802619D01*
X36790476Y7850238D01*
X36838095Y7897857D01*
X36885714Y7993095D01*
X36885714Y8088333D01*
X36838095Y8183571D01*
X36790476Y8231190D01*
X36695238Y8278809D01*
X36504761Y8326428D01*
X36409523Y8374047D01*
X36361904Y8421666D01*
X36314285Y8516904D01*
X36314285Y8612142D01*
X36361904Y8707380D01*
X36409523Y8755000D01*
X36504761Y8802619D01*
X36742857Y8802619D01*
X36885714Y8755000D01*
X37219047Y8802619D02*
X37457142Y7802619D01*
X37647619Y8516904D01*
X37838095Y7802619D01*
X38076190Y8802619D01*
X38885714Y7802619D02*
X38885714Y8802619D01*
X38885714Y7850238D02*
X38790476Y7802619D01*
X38600000Y7802619D01*
X38504761Y7850238D01*
X38457142Y7897857D01*
X38409523Y7993095D01*
X38409523Y8278809D01*
X38457142Y8374047D01*
X38504761Y8421666D01*
X38600000Y8469285D01*
X38790476Y8469285D01*
X38885714Y8421666D01*
X39266666Y8802619D02*
X39885714Y8802619D01*
X39552380Y8421666D01*
X39695238Y8421666D01*
X39790476Y8374047D01*
X39838095Y8326428D01*
X39885714Y8231190D01*
X39885714Y7993095D01*
X39838095Y7897857D01*
X39790476Y7850238D01*
X39695238Y7802619D01*
X39409523Y7802619D01*
X39314285Y7850238D01*
X39266666Y7897857D01*
%TO.C,C6*%
X-56066666Y37042857D02*
X-56114285Y36995238D01*
X-56257142Y36947619D01*
X-56352380Y36947619D01*
X-56495238Y36995238D01*
X-56590476Y37090476D01*
X-56638095Y37185714D01*
X-56685714Y37376190D01*
X-56685714Y37519047D01*
X-56638095Y37709523D01*
X-56590476Y37804761D01*
X-56495238Y37900000D01*
X-56352380Y37947619D01*
X-56257142Y37947619D01*
X-56114285Y37900000D01*
X-56066666Y37852380D01*
X-55209523Y37947619D02*
X-55400000Y37947619D01*
X-55495238Y37900000D01*
X-55542857Y37852380D01*
X-55638095Y37709523D01*
X-55685714Y37519047D01*
X-55685714Y37138095D01*
X-55638095Y37042857D01*
X-55590476Y36995238D01*
X-55495238Y36947619D01*
X-55304761Y36947619D01*
X-55209523Y36995238D01*
X-55161904Y37042857D01*
X-55114285Y37138095D01*
X-55114285Y37376190D01*
X-55161904Y37471428D01*
X-55209523Y37519047D01*
X-55304761Y37566666D01*
X-55495238Y37566666D01*
X-55590476Y37519047D01*
X-55638095Y37471428D01*
X-55685714Y37376190D01*
%TO.C,Db1*%
X-33498680Y17606095D02*
X-33498680Y18406095D01*
X-33308204Y18406095D01*
X-33193919Y18368000D01*
X-33117728Y18291809D01*
X-33079633Y18215619D01*
X-33041538Y18063238D01*
X-33041538Y17948952D01*
X-33079633Y17796571D01*
X-33117728Y17720380D01*
X-33193919Y17644190D01*
X-33308204Y17606095D01*
X-33498680Y17606095D01*
X-32698680Y17606095D02*
X-32698680Y18406095D01*
X-32698680Y18101333D02*
X-32622490Y18139428D01*
X-32470109Y18139428D01*
X-32393919Y18101333D01*
X-32355823Y18063238D01*
X-32317728Y17987047D01*
X-32317728Y17758476D01*
X-32355823Y17682285D01*
X-32393919Y17644190D01*
X-32470109Y17606095D01*
X-32622490Y17606095D01*
X-32698680Y17644190D01*
X-31555823Y17606095D02*
X-32012966Y17606095D01*
X-31784395Y17606095D02*
X-31784395Y18406095D01*
X-31860585Y18291809D01*
X-31936776Y18215619D01*
X-32012966Y18177523D01*
%TO.C,Df4*%
X79458452Y29420095D02*
X79458452Y30220095D01*
X79648928Y30220095D01*
X79763214Y30182000D01*
X79839404Y30105809D01*
X79877500Y30029619D01*
X79915595Y29877238D01*
X79915595Y29762952D01*
X79877500Y29610571D01*
X79839404Y29534380D01*
X79763214Y29458190D01*
X79648928Y29420095D01*
X79458452Y29420095D01*
X80144166Y29953428D02*
X80448928Y29953428D01*
X80258452Y29420095D02*
X80258452Y30105809D01*
X80296547Y30182000D01*
X80372738Y30220095D01*
X80448928Y30220095D01*
X81058452Y29953428D02*
X81058452Y29420095D01*
X80867976Y30258190D02*
X80677500Y29686761D01*
X81172738Y29686761D01*
%TO.C,Df3*%
X78270952Y37920095D02*
X78270952Y38720095D01*
X78461428Y38720095D01*
X78575714Y38682000D01*
X78651904Y38605809D01*
X78690000Y38529619D01*
X78728095Y38377238D01*
X78728095Y38262952D01*
X78690000Y38110571D01*
X78651904Y38034380D01*
X78575714Y37958190D01*
X78461428Y37920095D01*
X78270952Y37920095D01*
X78956666Y38453428D02*
X79261428Y38453428D01*
X79070952Y37920095D02*
X79070952Y38605809D01*
X79109047Y38682000D01*
X79185238Y38720095D01*
X79261428Y38720095D01*
X79451904Y38720095D02*
X79947142Y38720095D01*
X79680476Y38415333D01*
X79794761Y38415333D01*
X79870952Y38377238D01*
X79909047Y38339142D01*
X79947142Y38262952D01*
X79947142Y38072476D01*
X79909047Y37996285D01*
X79870952Y37958190D01*
X79794761Y37920095D01*
X79566190Y37920095D01*
X79490000Y37958190D01*
X79451904Y37996285D01*
%TO.C,SWf2*%
X74580952Y19756538D02*
X74723809Y19708919D01*
X74961904Y19708919D01*
X75057142Y19756538D01*
X75104761Y19804157D01*
X75152380Y19899395D01*
X75152380Y19994633D01*
X75104761Y20089871D01*
X75057142Y20137490D01*
X74961904Y20185109D01*
X74771428Y20232728D01*
X74676190Y20280347D01*
X74628571Y20327966D01*
X74580952Y20423204D01*
X74580952Y20518442D01*
X74628571Y20613680D01*
X74676190Y20661300D01*
X74771428Y20708919D01*
X75009523Y20708919D01*
X75152380Y20661300D01*
X75485714Y20708919D02*
X75723809Y19708919D01*
X75914285Y20423204D01*
X76104761Y19708919D01*
X76342857Y20708919D01*
X76580952Y20375585D02*
X76961904Y20375585D01*
X76723809Y19708919D02*
X76723809Y20566061D01*
X76771428Y20661300D01*
X76866666Y20708919D01*
X76961904Y20708919D01*
X77247619Y20613680D02*
X77295238Y20661300D01*
X77390476Y20708919D01*
X77628571Y20708919D01*
X77723809Y20661300D01*
X77771428Y20613680D01*
X77819047Y20518442D01*
X77819047Y20423204D01*
X77771428Y20280347D01*
X77200000Y19708919D01*
X77819047Y19708919D01*
%TO.C,De1*%
X60844166Y54120095D02*
X60844166Y54920095D01*
X61034642Y54920095D01*
X61148928Y54882000D01*
X61225119Y54805809D01*
X61263214Y54729619D01*
X61301309Y54577238D01*
X61301309Y54462952D01*
X61263214Y54310571D01*
X61225119Y54234380D01*
X61148928Y54158190D01*
X61034642Y54120095D01*
X60844166Y54120095D01*
X61948928Y54158190D02*
X61872738Y54120095D01*
X61720357Y54120095D01*
X61644166Y54158190D01*
X61606071Y54234380D01*
X61606071Y54539142D01*
X61644166Y54615333D01*
X61720357Y54653428D01*
X61872738Y54653428D01*
X61948928Y54615333D01*
X61987023Y54539142D01*
X61987023Y54462952D01*
X61606071Y54386761D01*
X62748928Y54120095D02*
X62291785Y54120095D01*
X62520357Y54120095D02*
X62520357Y54920095D01*
X62444166Y54805809D01*
X62367976Y54729619D01*
X62291785Y54691523D01*
%TO.C,SWd4*%
X42604285Y-11254761D02*
X42747142Y-11302380D01*
X42985238Y-11302380D01*
X43080476Y-11254761D01*
X43128095Y-11207142D01*
X43175714Y-11111904D01*
X43175714Y-11016666D01*
X43128095Y-10921428D01*
X43080476Y-10873809D01*
X42985238Y-10826190D01*
X42794761Y-10778571D01*
X42699523Y-10730952D01*
X42651904Y-10683333D01*
X42604285Y-10588095D01*
X42604285Y-10492857D01*
X42651904Y-10397619D01*
X42699523Y-10350000D01*
X42794761Y-10302380D01*
X43032857Y-10302380D01*
X43175714Y-10350000D01*
X43509047Y-10302380D02*
X43747142Y-11302380D01*
X43937619Y-10588095D01*
X44128095Y-11302380D01*
X44366190Y-10302380D01*
X45175714Y-11302380D02*
X45175714Y-10302380D01*
X45175714Y-11254761D02*
X45080476Y-11302380D01*
X44890000Y-11302380D01*
X44794761Y-11254761D01*
X44747142Y-11207142D01*
X44699523Y-11111904D01*
X44699523Y-10826190D01*
X44747142Y-10730952D01*
X44794761Y-10683333D01*
X44890000Y-10635714D01*
X45080476Y-10635714D01*
X45175714Y-10683333D01*
X46080476Y-10635714D02*
X46080476Y-11302380D01*
X45842380Y-10254761D02*
X45604285Y-10969047D01*
X46223333Y-10969047D01*
%TO.C,SWf4*%
X74580952Y-18343561D02*
X74723809Y-18391180D01*
X74961904Y-18391180D01*
X75057142Y-18343561D01*
X75104761Y-18295942D01*
X75152380Y-18200704D01*
X75152380Y-18105466D01*
X75104761Y-18010228D01*
X75057142Y-17962609D01*
X74961904Y-17914990D01*
X74771428Y-17867371D01*
X74676190Y-17819752D01*
X74628571Y-17772133D01*
X74580952Y-17676895D01*
X74580952Y-17581657D01*
X74628571Y-17486419D01*
X74676190Y-17438800D01*
X74771428Y-17391180D01*
X75009523Y-17391180D01*
X75152380Y-17438800D01*
X75485714Y-17391180D02*
X75723809Y-18391180D01*
X75914285Y-17676895D01*
X76104761Y-18391180D01*
X76342857Y-17391180D01*
X76580952Y-17724514D02*
X76961904Y-17724514D01*
X76723809Y-18391180D02*
X76723809Y-17534038D01*
X76771428Y-17438800D01*
X76866666Y-17391180D01*
X76961904Y-17391180D01*
X77723809Y-17724514D02*
X77723809Y-18391180D01*
X77485714Y-17343561D02*
X77247619Y-18057847D01*
X77866666Y-18057847D01*
%TO.C,SWa3*%
X-20835714Y5468938D02*
X-20692857Y5421319D01*
X-20454761Y5421319D01*
X-20359523Y5468938D01*
X-20311904Y5516557D01*
X-20264285Y5611795D01*
X-20264285Y5707033D01*
X-20311904Y5802271D01*
X-20359523Y5849890D01*
X-20454761Y5897509D01*
X-20645238Y5945128D01*
X-20740476Y5992747D01*
X-20788095Y6040366D01*
X-20835714Y6135604D01*
X-20835714Y6230842D01*
X-20788095Y6326080D01*
X-20740476Y6373700D01*
X-20645238Y6421319D01*
X-20407142Y6421319D01*
X-20264285Y6373700D01*
X-19930952Y6421319D02*
X-19692857Y5421319D01*
X-19502380Y6135604D01*
X-19311904Y5421319D01*
X-19073809Y6421319D01*
X-18264285Y5421319D02*
X-18264285Y5945128D01*
X-18311904Y6040366D01*
X-18407142Y6087985D01*
X-18597619Y6087985D01*
X-18692857Y6040366D01*
X-18264285Y5468938D02*
X-18359523Y5421319D01*
X-18597619Y5421319D01*
X-18692857Y5468938D01*
X-18740476Y5564176D01*
X-18740476Y5659414D01*
X-18692857Y5754652D01*
X-18597619Y5802271D01*
X-18359523Y5802271D01*
X-18264285Y5849890D01*
X-17883333Y6421319D02*
X-17264285Y6421319D01*
X-17597619Y6040366D01*
X-17454761Y6040366D01*
X-17359523Y5992747D01*
X-17311904Y5945128D01*
X-17264285Y5849890D01*
X-17264285Y5611795D01*
X-17311904Y5516557D01*
X-17359523Y5468938D01*
X-17454761Y5421319D01*
X-17740476Y5421319D01*
X-17835714Y5468938D01*
X-17883333Y5516557D01*
%TO.C,SWc3*%
X17288095Y14994038D02*
X17430952Y14946419D01*
X17669047Y14946419D01*
X17764285Y14994038D01*
X17811904Y15041657D01*
X17859523Y15136895D01*
X17859523Y15232133D01*
X17811904Y15327371D01*
X17764285Y15374990D01*
X17669047Y15422609D01*
X17478571Y15470228D01*
X17383333Y15517847D01*
X17335714Y15565466D01*
X17288095Y15660704D01*
X17288095Y15755942D01*
X17335714Y15851180D01*
X17383333Y15898800D01*
X17478571Y15946419D01*
X17716666Y15946419D01*
X17859523Y15898800D01*
X18192857Y15946419D02*
X18430952Y14946419D01*
X18621428Y15660704D01*
X18811904Y14946419D01*
X19050000Y15946419D01*
X19859523Y14994038D02*
X19764285Y14946419D01*
X19573809Y14946419D01*
X19478571Y14994038D01*
X19430952Y15041657D01*
X19383333Y15136895D01*
X19383333Y15422609D01*
X19430952Y15517847D01*
X19478571Y15565466D01*
X19573809Y15613085D01*
X19764285Y15613085D01*
X19859523Y15565466D01*
X20192857Y15946419D02*
X20811904Y15946419D01*
X20478571Y15565466D01*
X20621428Y15565466D01*
X20716666Y15517847D01*
X20764285Y15470228D01*
X20811904Y15374990D01*
X20811904Y15136895D01*
X20764285Y15041657D01*
X20716666Y14994038D01*
X20621428Y14946419D01*
X20335714Y14946419D01*
X20240476Y14994038D01*
X20192857Y15041657D01*
%TO.C,Da2*%
X-34998680Y10106095D02*
X-34998680Y10906095D01*
X-34808204Y10906095D01*
X-34693919Y10868000D01*
X-34617728Y10791809D01*
X-34579633Y10715619D01*
X-34541538Y10563238D01*
X-34541538Y10448952D01*
X-34579633Y10296571D01*
X-34617728Y10220380D01*
X-34693919Y10144190D01*
X-34808204Y10106095D01*
X-34998680Y10106095D01*
X-33855823Y10106095D02*
X-33855823Y10525142D01*
X-33893919Y10601333D01*
X-33970109Y10639428D01*
X-34122490Y10639428D01*
X-34198680Y10601333D01*
X-33855823Y10144190D02*
X-33932014Y10106095D01*
X-34122490Y10106095D01*
X-34198680Y10144190D01*
X-34236776Y10220380D01*
X-34236776Y10296571D01*
X-34198680Y10372761D01*
X-34122490Y10410857D01*
X-33932014Y10410857D01*
X-33855823Y10448952D01*
X-33512966Y10829904D02*
X-33474871Y10868000D01*
X-33398680Y10906095D01*
X-33208204Y10906095D01*
X-33132014Y10868000D01*
X-33093919Y10829904D01*
X-33055823Y10753714D01*
X-33055823Y10677523D01*
X-33093919Y10563238D01*
X-33551061Y10106095D01*
X-33055823Y10106095D01*
%TO.C,SWd2*%
X36314285Y26900238D02*
X36457142Y26852619D01*
X36695238Y26852619D01*
X36790476Y26900238D01*
X36838095Y26947857D01*
X36885714Y27043095D01*
X36885714Y27138333D01*
X36838095Y27233571D01*
X36790476Y27281190D01*
X36695238Y27328809D01*
X36504761Y27376428D01*
X36409523Y27424047D01*
X36361904Y27471666D01*
X36314285Y27566904D01*
X36314285Y27662142D01*
X36361904Y27757380D01*
X36409523Y27805000D01*
X36504761Y27852619D01*
X36742857Y27852619D01*
X36885714Y27805000D01*
X37219047Y27852619D02*
X37457142Y26852619D01*
X37647619Y27566904D01*
X37838095Y26852619D01*
X38076190Y27852619D01*
X38885714Y26852619D02*
X38885714Y27852619D01*
X38885714Y26900238D02*
X38790476Y26852619D01*
X38600000Y26852619D01*
X38504761Y26900238D01*
X38457142Y26947857D01*
X38409523Y27043095D01*
X38409523Y27328809D01*
X38457142Y27424047D01*
X38504761Y27471666D01*
X38600000Y27519285D01*
X38790476Y27519285D01*
X38885714Y27471666D01*
X39314285Y27757380D02*
X39361904Y27805000D01*
X39457142Y27852619D01*
X39695238Y27852619D01*
X39790476Y27805000D01*
X39838095Y27757380D01*
X39885714Y27662142D01*
X39885714Y27566904D01*
X39838095Y27424047D01*
X39266666Y26852619D01*
X39885714Y26852619D01*
%TO.C,SWb2*%
X-1785714Y26900238D02*
X-1642857Y26852619D01*
X-1404761Y26852619D01*
X-1309523Y26900238D01*
X-1261904Y26947857D01*
X-1214285Y27043095D01*
X-1214285Y27138333D01*
X-1261904Y27233571D01*
X-1309523Y27281190D01*
X-1404761Y27328809D01*
X-1595238Y27376428D01*
X-1690476Y27424047D01*
X-1738095Y27471666D01*
X-1785714Y27566904D01*
X-1785714Y27662142D01*
X-1738095Y27757380D01*
X-1690476Y27805000D01*
X-1595238Y27852619D01*
X-1357142Y27852619D01*
X-1214285Y27805000D01*
X-880952Y27852619D02*
X-642857Y26852619D01*
X-452380Y27566904D01*
X-261904Y26852619D01*
X-23809Y27852619D01*
X357142Y26852619D02*
X357142Y27852619D01*
X357142Y27471666D02*
X452380Y27519285D01*
X642857Y27519285D01*
X738095Y27471666D01*
X785714Y27424047D01*
X833333Y27328809D01*
X833333Y27043095D01*
X785714Y26947857D01*
X738095Y26900238D01*
X642857Y26852619D01*
X452380Y26852619D01*
X357142Y26900238D01*
X1214285Y27757380D02*
X1261904Y27805000D01*
X1357142Y27852619D01*
X1595238Y27852619D01*
X1690476Y27805000D01*
X1738095Y27757380D01*
X1785714Y27662142D01*
X1785714Y27566904D01*
X1738095Y27424047D01*
X1166666Y26852619D01*
X1785714Y26852619D01*
%TO.C,Da3*%
X-34998680Y-6893904D02*
X-34998680Y-6093904D01*
X-34808204Y-6093904D01*
X-34693919Y-6132000D01*
X-34617728Y-6208190D01*
X-34579633Y-6284380D01*
X-34541538Y-6436761D01*
X-34541538Y-6551047D01*
X-34579633Y-6703428D01*
X-34617728Y-6779619D01*
X-34693919Y-6855809D01*
X-34808204Y-6893904D01*
X-34998680Y-6893904D01*
X-33855823Y-6893904D02*
X-33855823Y-6474857D01*
X-33893919Y-6398666D01*
X-33970109Y-6360571D01*
X-34122490Y-6360571D01*
X-34198680Y-6398666D01*
X-33855823Y-6855809D02*
X-33932014Y-6893904D01*
X-34122490Y-6893904D01*
X-34198680Y-6855809D01*
X-34236776Y-6779619D01*
X-34236776Y-6703428D01*
X-34198680Y-6627238D01*
X-34122490Y-6589142D01*
X-33932014Y-6589142D01*
X-33855823Y-6551047D01*
X-33551061Y-6093904D02*
X-33055823Y-6093904D01*
X-33322490Y-6398666D01*
X-33208204Y-6398666D01*
X-33132014Y-6436761D01*
X-33093919Y-6474857D01*
X-33055823Y-6551047D01*
X-33055823Y-6741523D01*
X-33093919Y-6817714D01*
X-33132014Y-6855809D01*
X-33208204Y-6893904D01*
X-33436776Y-6893904D01*
X-33512966Y-6855809D01*
X-33551061Y-6817714D01*
%TO.C,SWf3*%
X74580952Y706438D02*
X74723809Y658819D01*
X74961904Y658819D01*
X75057142Y706438D01*
X75104761Y754057D01*
X75152380Y849295D01*
X75152380Y944533D01*
X75104761Y1039771D01*
X75057142Y1087390D01*
X74961904Y1135009D01*
X74771428Y1182628D01*
X74676190Y1230247D01*
X74628571Y1277866D01*
X74580952Y1373104D01*
X74580952Y1468342D01*
X74628571Y1563580D01*
X74676190Y1611200D01*
X74771428Y1658819D01*
X75009523Y1658819D01*
X75152380Y1611200D01*
X75485714Y1658819D02*
X75723809Y658819D01*
X75914285Y1373104D01*
X76104761Y658819D01*
X76342857Y1658819D01*
X76580952Y1325485D02*
X76961904Y1325485D01*
X76723809Y658819D02*
X76723809Y1515961D01*
X76771428Y1611200D01*
X76866666Y1658819D01*
X76961904Y1658819D01*
X77200000Y1658819D02*
X77819047Y1658819D01*
X77485714Y1277866D01*
X77628571Y1277866D01*
X77723809Y1230247D01*
X77771428Y1182628D01*
X77819047Y1087390D01*
X77819047Y849295D01*
X77771428Y754057D01*
X77723809Y706438D01*
X77628571Y658819D01*
X77342857Y658819D01*
X77247619Y706438D01*
X77200000Y754057D01*
%TO.C,R6*%
X-59317619Y46273333D02*
X-59793809Y45940000D01*
X-59317619Y45701904D02*
X-60317619Y45701904D01*
X-60317619Y46082857D01*
X-60270000Y46178095D01*
X-60222380Y46225714D01*
X-60127142Y46273333D01*
X-59984285Y46273333D01*
X-59889047Y46225714D01*
X-59841428Y46178095D01*
X-59793809Y46082857D01*
X-59793809Y45701904D01*
X-60317619Y47130476D02*
X-60317619Y46940000D01*
X-60270000Y46844761D01*
X-60222380Y46797142D01*
X-60079523Y46701904D01*
X-59889047Y46654285D01*
X-59508095Y46654285D01*
X-59412857Y46701904D01*
X-59365238Y46749523D01*
X-59317619Y46844761D01*
X-59317619Y47035238D01*
X-59365238Y47130476D01*
X-59412857Y47178095D01*
X-59508095Y47225714D01*
X-59746190Y47225714D01*
X-59841428Y47178095D01*
X-59889047Y47130476D01*
X-59936666Y47035238D01*
X-59936666Y46844761D01*
X-59889047Y46749523D01*
X-59841428Y46701904D01*
X-59746190Y46654285D01*
X-58211904Y45035238D02*
X-58250000Y45082857D01*
X-58288095Y45178095D01*
X-58288095Y45416190D01*
X-58250000Y45511428D01*
X-58211904Y45559047D01*
X-58135714Y45606666D01*
X-58059523Y45606666D01*
X-57945238Y45559047D01*
X-57488095Y44987619D01*
X-57488095Y45606666D01*
X-57564285Y46035238D02*
X-57526190Y46082857D01*
X-57488095Y46035238D01*
X-57526190Y45987619D01*
X-57564285Y46035238D01*
X-57488095Y46035238D01*
X-58211904Y46463809D02*
X-58250000Y46511428D01*
X-58288095Y46606666D01*
X-58288095Y46844761D01*
X-58250000Y46940000D01*
X-58211904Y46987619D01*
X-58135714Y47035238D01*
X-58059523Y47035238D01*
X-57945238Y46987619D01*
X-57488095Y46416190D01*
X-57488095Y47035238D01*
X-57488095Y47463809D02*
X-58288095Y47463809D01*
X-57792857Y47559047D02*
X-57488095Y47844761D01*
X-58021428Y47844761D02*
X-57716666Y47463809D01*
%TO.C,SWb3*%
X-1785714Y7850238D02*
X-1642857Y7802619D01*
X-1404761Y7802619D01*
X-1309523Y7850238D01*
X-1261904Y7897857D01*
X-1214285Y7993095D01*
X-1214285Y8088333D01*
X-1261904Y8183571D01*
X-1309523Y8231190D01*
X-1404761Y8278809D01*
X-1595238Y8326428D01*
X-1690476Y8374047D01*
X-1738095Y8421666D01*
X-1785714Y8516904D01*
X-1785714Y8612142D01*
X-1738095Y8707380D01*
X-1690476Y8755000D01*
X-1595238Y8802619D01*
X-1357142Y8802619D01*
X-1214285Y8755000D01*
X-880952Y8802619D02*
X-642857Y7802619D01*
X-452380Y8516904D01*
X-261904Y7802619D01*
X-23809Y8802619D01*
X357142Y7802619D02*
X357142Y8802619D01*
X357142Y8421666D02*
X452380Y8469285D01*
X642857Y8469285D01*
X738095Y8421666D01*
X785714Y8374047D01*
X833333Y8278809D01*
X833333Y7993095D01*
X785714Y7897857D01*
X738095Y7850238D01*
X642857Y7802619D01*
X452380Y7802619D01*
X357142Y7850238D01*
X1166666Y8802619D02*
X1785714Y8802619D01*
X1452380Y8421666D01*
X1595238Y8421666D01*
X1690476Y8374047D01*
X1738095Y8326428D01*
X1785714Y8231190D01*
X1785714Y7993095D01*
X1738095Y7897857D01*
X1690476Y7850238D01*
X1595238Y7802619D01*
X1309523Y7802619D01*
X1214285Y7850238D01*
X1166666Y7897857D01*
%TO.C,Dd4*%
X37327619Y-7621904D02*
X37327619Y-6821904D01*
X37518095Y-6821904D01*
X37632380Y-6860000D01*
X37708571Y-6936190D01*
X37746666Y-7012380D01*
X37784761Y-7164761D01*
X37784761Y-7279047D01*
X37746666Y-7431428D01*
X37708571Y-7507619D01*
X37632380Y-7583809D01*
X37518095Y-7621904D01*
X37327619Y-7621904D01*
X38470476Y-7621904D02*
X38470476Y-6821904D01*
X38470476Y-7583809D02*
X38394285Y-7621904D01*
X38241904Y-7621904D01*
X38165714Y-7583809D01*
X38127619Y-7545714D01*
X38089523Y-7469523D01*
X38089523Y-7240952D01*
X38127619Y-7164761D01*
X38165714Y-7126666D01*
X38241904Y-7088571D01*
X38394285Y-7088571D01*
X38470476Y-7126666D01*
X39194285Y-7088571D02*
X39194285Y-7621904D01*
X39003809Y-6783809D02*
X38813333Y-7355238D01*
X39308571Y-7355238D01*
%TO.C,SWe4*%
X55388095Y-18343561D02*
X55530952Y-18391180D01*
X55769047Y-18391180D01*
X55864285Y-18343561D01*
X55911904Y-18295942D01*
X55959523Y-18200704D01*
X55959523Y-18105466D01*
X55911904Y-18010228D01*
X55864285Y-17962609D01*
X55769047Y-17914990D01*
X55578571Y-17867371D01*
X55483333Y-17819752D01*
X55435714Y-17772133D01*
X55388095Y-17676895D01*
X55388095Y-17581657D01*
X55435714Y-17486419D01*
X55483333Y-17438800D01*
X55578571Y-17391180D01*
X55816666Y-17391180D01*
X55959523Y-17438800D01*
X56292857Y-17391180D02*
X56530952Y-18391180D01*
X56721428Y-17676895D01*
X56911904Y-18391180D01*
X57150000Y-17391180D01*
X57911904Y-18343561D02*
X57816666Y-18391180D01*
X57626190Y-18391180D01*
X57530952Y-18343561D01*
X57483333Y-18248323D01*
X57483333Y-17867371D01*
X57530952Y-17772133D01*
X57626190Y-17724514D01*
X57816666Y-17724514D01*
X57911904Y-17772133D01*
X57959523Y-17867371D01*
X57959523Y-17962609D01*
X57483333Y-18057847D01*
X58816666Y-17724514D02*
X58816666Y-18391180D01*
X58578571Y-17343561D02*
X58340476Y-18057847D01*
X58959523Y-18057847D01*
%TO.C,SWa2*%
X-20835714Y24519038D02*
X-20692857Y24471419D01*
X-20454761Y24471419D01*
X-20359523Y24519038D01*
X-20311904Y24566657D01*
X-20264285Y24661895D01*
X-20264285Y24757133D01*
X-20311904Y24852371D01*
X-20359523Y24899990D01*
X-20454761Y24947609D01*
X-20645238Y24995228D01*
X-20740476Y25042847D01*
X-20788095Y25090466D01*
X-20835714Y25185704D01*
X-20835714Y25280942D01*
X-20788095Y25376180D01*
X-20740476Y25423800D01*
X-20645238Y25471419D01*
X-20407142Y25471419D01*
X-20264285Y25423800D01*
X-19930952Y25471419D02*
X-19692857Y24471419D01*
X-19502380Y25185704D01*
X-19311904Y24471419D01*
X-19073809Y25471419D01*
X-18264285Y24471419D02*
X-18264285Y24995228D01*
X-18311904Y25090466D01*
X-18407142Y25138085D01*
X-18597619Y25138085D01*
X-18692857Y25090466D01*
X-18264285Y24519038D02*
X-18359523Y24471419D01*
X-18597619Y24471419D01*
X-18692857Y24519038D01*
X-18740476Y24614276D01*
X-18740476Y24709514D01*
X-18692857Y24804752D01*
X-18597619Y24852371D01*
X-18359523Y24852371D01*
X-18264285Y24899990D01*
X-17835714Y25376180D02*
X-17788095Y25423800D01*
X-17692857Y25471419D01*
X-17454761Y25471419D01*
X-17359523Y25423800D01*
X-17311904Y25376180D01*
X-17264285Y25280942D01*
X-17264285Y25185704D01*
X-17311904Y25042847D01*
X-17883333Y24471419D01*
X-17264285Y24471419D01*
%TO.C,SWb4*%
X-1785714Y-11199761D02*
X-1642857Y-11247380D01*
X-1404761Y-11247380D01*
X-1309523Y-11199761D01*
X-1261904Y-11152142D01*
X-1214285Y-11056904D01*
X-1214285Y-10961666D01*
X-1261904Y-10866428D01*
X-1309523Y-10818809D01*
X-1404761Y-10771190D01*
X-1595238Y-10723571D01*
X-1690476Y-10675952D01*
X-1738095Y-10628333D01*
X-1785714Y-10533095D01*
X-1785714Y-10437857D01*
X-1738095Y-10342619D01*
X-1690476Y-10295000D01*
X-1595238Y-10247380D01*
X-1357142Y-10247380D01*
X-1214285Y-10295000D01*
X-880952Y-10247380D02*
X-642857Y-11247380D01*
X-452380Y-10533095D01*
X-261904Y-11247380D01*
X-23809Y-10247380D01*
X357142Y-11247380D02*
X357142Y-10247380D01*
X357142Y-10628333D02*
X452380Y-10580714D01*
X642857Y-10580714D01*
X738095Y-10628333D01*
X785714Y-10675952D01*
X833333Y-10771190D01*
X833333Y-11056904D01*
X785714Y-11152142D01*
X738095Y-11199761D01*
X642857Y-11247380D01*
X452380Y-11247380D01*
X357142Y-11199761D01*
X1690476Y-10580714D02*
X1690476Y-11247380D01*
X1452380Y-10199761D02*
X1214285Y-10914047D01*
X1833333Y-10914047D01*
%TO.C,Dd1*%
X37337619Y54170095D02*
X37337619Y54970095D01*
X37528095Y54970095D01*
X37642380Y54932000D01*
X37718571Y54855809D01*
X37756666Y54779619D01*
X37794761Y54627238D01*
X37794761Y54512952D01*
X37756666Y54360571D01*
X37718571Y54284380D01*
X37642380Y54208190D01*
X37528095Y54170095D01*
X37337619Y54170095D01*
X38480476Y54170095D02*
X38480476Y54970095D01*
X38480476Y54208190D02*
X38404285Y54170095D01*
X38251904Y54170095D01*
X38175714Y54208190D01*
X38137619Y54246285D01*
X38099523Y54322476D01*
X38099523Y54551047D01*
X38137619Y54627238D01*
X38175714Y54665333D01*
X38251904Y54703428D01*
X38404285Y54703428D01*
X38480476Y54665333D01*
X39280476Y54170095D02*
X38823333Y54170095D01*
X39051904Y54170095D02*
X39051904Y54970095D01*
X38975714Y54855809D01*
X38899523Y54779619D01*
X38823333Y54741523D01*
%TO.C,SWa1*%
X-20835714Y43569038D02*
X-20692857Y43521419D01*
X-20454761Y43521419D01*
X-20359523Y43569038D01*
X-20311904Y43616657D01*
X-20264285Y43711895D01*
X-20264285Y43807133D01*
X-20311904Y43902371D01*
X-20359523Y43949990D01*
X-20454761Y43997609D01*
X-20645238Y44045228D01*
X-20740476Y44092847D01*
X-20788095Y44140466D01*
X-20835714Y44235704D01*
X-20835714Y44330942D01*
X-20788095Y44426180D01*
X-20740476Y44473800D01*
X-20645238Y44521419D01*
X-20407142Y44521419D01*
X-20264285Y44473800D01*
X-19930952Y44521419D02*
X-19692857Y43521419D01*
X-19502380Y44235704D01*
X-19311904Y43521419D01*
X-19073809Y44521419D01*
X-18264285Y43521419D02*
X-18264285Y44045228D01*
X-18311904Y44140466D01*
X-18407142Y44188085D01*
X-18597619Y44188085D01*
X-18692857Y44140466D01*
X-18264285Y43569038D02*
X-18359523Y43521419D01*
X-18597619Y43521419D01*
X-18692857Y43569038D01*
X-18740476Y43664276D01*
X-18740476Y43759514D01*
X-18692857Y43854752D01*
X-18597619Y43902371D01*
X-18359523Y43902371D01*
X-18264285Y43949990D01*
X-17264285Y43521419D02*
X-17835714Y43521419D01*
X-17550000Y43521419D02*
X-17550000Y44521419D01*
X-17645238Y44378561D01*
X-17740476Y44283323D01*
X-17835714Y44235704D01*
%TO.C,SWe3*%
X55388095Y706438D02*
X55530952Y658819D01*
X55769047Y658819D01*
X55864285Y706438D01*
X55911904Y754057D01*
X55959523Y849295D01*
X55959523Y944533D01*
X55911904Y1039771D01*
X55864285Y1087390D01*
X55769047Y1135009D01*
X55578571Y1182628D01*
X55483333Y1230247D01*
X55435714Y1277866D01*
X55388095Y1373104D01*
X55388095Y1468342D01*
X55435714Y1563580D01*
X55483333Y1611200D01*
X55578571Y1658819D01*
X55816666Y1658819D01*
X55959523Y1611200D01*
X56292857Y1658819D02*
X56530952Y658819D01*
X56721428Y1373104D01*
X56911904Y658819D01*
X57150000Y1658819D01*
X57911904Y706438D02*
X57816666Y658819D01*
X57626190Y658819D01*
X57530952Y706438D01*
X57483333Y801676D01*
X57483333Y1182628D01*
X57530952Y1277866D01*
X57626190Y1325485D01*
X57816666Y1325485D01*
X57911904Y1277866D01*
X57959523Y1182628D01*
X57959523Y1087390D01*
X57483333Y992152D01*
X58292857Y1658819D02*
X58911904Y1658819D01*
X58578571Y1277866D01*
X58721428Y1277866D01*
X58816666Y1230247D01*
X58864285Y1182628D01*
X58911904Y1087390D01*
X58911904Y849295D01*
X58864285Y754057D01*
X58816666Y706438D01*
X58721428Y658819D01*
X58435714Y658819D01*
X58340476Y706438D01*
X58292857Y754057D01*
%TO.C,Dd3*%
X50287619Y46620095D02*
X50287619Y47420095D01*
X50478095Y47420095D01*
X50592380Y47382000D01*
X50668571Y47305809D01*
X50706666Y47229619D01*
X50744761Y47077238D01*
X50744761Y46962952D01*
X50706666Y46810571D01*
X50668571Y46734380D01*
X50592380Y46658190D01*
X50478095Y46620095D01*
X50287619Y46620095D01*
X51430476Y46620095D02*
X51430476Y47420095D01*
X51430476Y46658190D02*
X51354285Y46620095D01*
X51201904Y46620095D01*
X51125714Y46658190D01*
X51087619Y46696285D01*
X51049523Y46772476D01*
X51049523Y47001047D01*
X51087619Y47077238D01*
X51125714Y47115333D01*
X51201904Y47153428D01*
X51354285Y47153428D01*
X51430476Y47115333D01*
X51735238Y47420095D02*
X52230476Y47420095D01*
X51963809Y47115333D01*
X52078095Y47115333D01*
X52154285Y47077238D01*
X52192380Y47039142D01*
X52230476Y46962952D01*
X52230476Y46772476D01*
X52192380Y46696285D01*
X52154285Y46658190D01*
X52078095Y46620095D01*
X51849523Y46620095D01*
X51773333Y46658190D01*
X51735238Y46696285D01*
%TO.C,Db4*%
X-33229880Y-29143904D02*
X-33229880Y-28343904D01*
X-33039404Y-28343904D01*
X-32925119Y-28382000D01*
X-32848928Y-28458190D01*
X-32810833Y-28534380D01*
X-32772738Y-28686761D01*
X-32772738Y-28801047D01*
X-32810833Y-28953428D01*
X-32848928Y-29029619D01*
X-32925119Y-29105809D01*
X-33039404Y-29143904D01*
X-33229880Y-29143904D01*
X-32429880Y-29143904D02*
X-32429880Y-28343904D01*
X-32429880Y-28648666D02*
X-32353690Y-28610571D01*
X-32201309Y-28610571D01*
X-32125119Y-28648666D01*
X-32087023Y-28686761D01*
X-32048928Y-28762952D01*
X-32048928Y-28991523D01*
X-32087023Y-29067714D01*
X-32125119Y-29105809D01*
X-32201309Y-29143904D01*
X-32353690Y-29143904D01*
X-32429880Y-29105809D01*
X-31363214Y-28610571D02*
X-31363214Y-29143904D01*
X-31553690Y-28305809D02*
X-31744166Y-28877238D01*
X-31248928Y-28877238D01*
%TO.C,SWc1*%
X17288095Y53094038D02*
X17430952Y53046419D01*
X17669047Y53046419D01*
X17764285Y53094038D01*
X17811904Y53141657D01*
X17859523Y53236895D01*
X17859523Y53332133D01*
X17811904Y53427371D01*
X17764285Y53474990D01*
X17669047Y53522609D01*
X17478571Y53570228D01*
X17383333Y53617847D01*
X17335714Y53665466D01*
X17288095Y53760704D01*
X17288095Y53855942D01*
X17335714Y53951180D01*
X17383333Y53998800D01*
X17478571Y54046419D01*
X17716666Y54046419D01*
X17859523Y53998800D01*
X18192857Y54046419D02*
X18430952Y53046419D01*
X18621428Y53760704D01*
X18811904Y53046419D01*
X19050000Y54046419D01*
X19859523Y53094038D02*
X19764285Y53046419D01*
X19573809Y53046419D01*
X19478571Y53094038D01*
X19430952Y53141657D01*
X19383333Y53236895D01*
X19383333Y53522609D01*
X19430952Y53617847D01*
X19478571Y53665466D01*
X19573809Y53713085D01*
X19764285Y53713085D01*
X19859523Y53665466D01*
X20811904Y53046419D02*
X20240476Y53046419D01*
X20526190Y53046419D02*
X20526190Y54046419D01*
X20430952Y53903561D01*
X20335714Y53808323D01*
X20240476Y53760704D01*
%TO.C,De3*%
X69106666Y42120095D02*
X69106666Y42920095D01*
X69297142Y42920095D01*
X69411428Y42882000D01*
X69487619Y42805809D01*
X69525714Y42729619D01*
X69563809Y42577238D01*
X69563809Y42462952D01*
X69525714Y42310571D01*
X69487619Y42234380D01*
X69411428Y42158190D01*
X69297142Y42120095D01*
X69106666Y42120095D01*
X70211428Y42158190D02*
X70135238Y42120095D01*
X69982857Y42120095D01*
X69906666Y42158190D01*
X69868571Y42234380D01*
X69868571Y42539142D01*
X69906666Y42615333D01*
X69982857Y42653428D01*
X70135238Y42653428D01*
X70211428Y42615333D01*
X70249523Y42539142D01*
X70249523Y42462952D01*
X69868571Y42386761D01*
X70516190Y42920095D02*
X71011428Y42920095D01*
X70744761Y42615333D01*
X70859047Y42615333D01*
X70935238Y42577238D01*
X70973333Y42539142D01*
X71011428Y42462952D01*
X71011428Y42272476D01*
X70973333Y42196285D01*
X70935238Y42158190D01*
X70859047Y42120095D01*
X70630476Y42120095D01*
X70554285Y42158190D01*
X70516190Y42196285D01*
%TO.C,Dc1*%
X-4573333Y50056095D02*
X-4573333Y50856095D01*
X-4382857Y50856095D01*
X-4268571Y50818000D01*
X-4192380Y50741809D01*
X-4154285Y50665619D01*
X-4116190Y50513238D01*
X-4116190Y50398952D01*
X-4154285Y50246571D01*
X-4192380Y50170380D01*
X-4268571Y50094190D01*
X-4382857Y50056095D01*
X-4573333Y50056095D01*
X-3430476Y50094190D02*
X-3506666Y50056095D01*
X-3659047Y50056095D01*
X-3735238Y50094190D01*
X-3773333Y50132285D01*
X-3811428Y50208476D01*
X-3811428Y50437047D01*
X-3773333Y50513238D01*
X-3735238Y50551333D01*
X-3659047Y50589428D01*
X-3506666Y50589428D01*
X-3430476Y50551333D01*
X-2668571Y50056095D02*
X-3125714Y50056095D01*
X-2897142Y50056095D02*
X-2897142Y50856095D01*
X-2973333Y50741809D01*
X-3049523Y50665619D01*
X-3125714Y50627523D01*
%TO.C,R5*%
X-47616666Y42467619D02*
X-47950000Y42943809D01*
X-48188095Y42467619D02*
X-48188095Y43467619D01*
X-47807142Y43467619D01*
X-47711904Y43420000D01*
X-47664285Y43372380D01*
X-47616666Y43277142D01*
X-47616666Y43134285D01*
X-47664285Y43039047D01*
X-47711904Y42991428D01*
X-47807142Y42943809D01*
X-48188095Y42943809D01*
X-46711904Y43467619D02*
X-47188095Y43467619D01*
X-47235714Y42991428D01*
X-47188095Y43039047D01*
X-47092857Y43086666D01*
X-46854761Y43086666D01*
X-46759523Y43039047D01*
X-46711904Y42991428D01*
X-46664285Y42896190D01*
X-46664285Y42658095D01*
X-46711904Y42562857D01*
X-46759523Y42515238D01*
X-46854761Y42467619D01*
X-47092857Y42467619D01*
X-47188095Y42515238D01*
X-47235714Y42562857D01*
X-48854761Y41361904D02*
X-48807142Y41400000D01*
X-48711904Y41438095D01*
X-48473809Y41438095D01*
X-48378571Y41400000D01*
X-48330952Y41361904D01*
X-48283333Y41285714D01*
X-48283333Y41209523D01*
X-48330952Y41095238D01*
X-48902380Y40638095D01*
X-48283333Y40638095D01*
X-47854761Y40714285D02*
X-47807142Y40676190D01*
X-47854761Y40638095D01*
X-47902380Y40676190D01*
X-47854761Y40714285D01*
X-47854761Y40638095D01*
X-47426190Y41361904D02*
X-47378571Y41400000D01*
X-47283333Y41438095D01*
X-47045238Y41438095D01*
X-46950000Y41400000D01*
X-46902380Y41361904D01*
X-46854761Y41285714D01*
X-46854761Y41209523D01*
X-46902380Y41095238D01*
X-47473809Y40638095D01*
X-46854761Y40638095D01*
X-46426190Y40638095D02*
X-46426190Y41438095D01*
X-46330952Y40942857D02*
X-46045238Y40638095D01*
X-46045238Y41171428D02*
X-46426190Y40866666D01*
%TO.C,SWc5*%
X-15239912Y-41825491D02*
X-15089779Y-41837135D01*
X-14858756Y-41779534D01*
X-14777867Y-41710290D01*
X-14743182Y-41652565D01*
X-14720018Y-41548636D01*
X-14743058Y-41456227D01*
X-14812303Y-41375338D01*
X-14870028Y-41340653D01*
X-14973957Y-41317489D01*
X-15170295Y-41317365D01*
X-15274224Y-41294200D01*
X-15331949Y-41259516D01*
X-15401194Y-41178627D01*
X-15424234Y-41086218D01*
X-15401069Y-40982288D01*
X-15366385Y-40924564D01*
X-15285496Y-40855319D01*
X-15054473Y-40797719D01*
X-14904339Y-40809363D01*
X-14592428Y-40682518D02*
X-14119483Y-41595213D01*
X-14107466Y-40856064D01*
X-13749846Y-41503052D01*
X-13760746Y-40475156D01*
X-12744866Y-41203406D02*
X-12825755Y-41272650D01*
X-13010574Y-41318731D01*
X-13114503Y-41295566D01*
X-13172227Y-41260882D01*
X-13241472Y-41179993D01*
X-13310593Y-40902766D01*
X-13287428Y-40798836D01*
X-13252744Y-40741112D01*
X-13171855Y-40671867D01*
X-12987037Y-40625787D01*
X-12883107Y-40648951D01*
X-12097381Y-40060433D02*
X-12559427Y-40175634D01*
X-12490431Y-40649199D01*
X-12455746Y-40591475D01*
X-12374857Y-40522230D01*
X-12143834Y-40464630D01*
X-12039905Y-40487794D01*
X-11982181Y-40522478D01*
X-11912936Y-40603367D01*
X-11855335Y-40834390D01*
X-11878500Y-40938319D01*
X-11913184Y-40996044D01*
X-11994073Y-41065289D01*
X-12225096Y-41122889D01*
X-12329025Y-41099725D01*
X-12386750Y-41065040D01*
%TO.C,SWa4*%
X-20835714Y-13581061D02*
X-20692857Y-13628680D01*
X-20454761Y-13628680D01*
X-20359523Y-13581061D01*
X-20311904Y-13533442D01*
X-20264285Y-13438204D01*
X-20264285Y-13342966D01*
X-20311904Y-13247728D01*
X-20359523Y-13200109D01*
X-20454761Y-13152490D01*
X-20645238Y-13104871D01*
X-20740476Y-13057252D01*
X-20788095Y-13009633D01*
X-20835714Y-12914395D01*
X-20835714Y-12819157D01*
X-20788095Y-12723919D01*
X-20740476Y-12676300D01*
X-20645238Y-12628680D01*
X-20407142Y-12628680D01*
X-20264285Y-12676300D01*
X-19930952Y-12628680D02*
X-19692857Y-13628680D01*
X-19502380Y-12914395D01*
X-19311904Y-13628680D01*
X-19073809Y-12628680D01*
X-18264285Y-13628680D02*
X-18264285Y-13104871D01*
X-18311904Y-13009633D01*
X-18407142Y-12962014D01*
X-18597619Y-12962014D01*
X-18692857Y-13009633D01*
X-18264285Y-13581061D02*
X-18359523Y-13628680D01*
X-18597619Y-13628680D01*
X-18692857Y-13581061D01*
X-18740476Y-13485823D01*
X-18740476Y-13390585D01*
X-18692857Y-13295347D01*
X-18597619Y-13247728D01*
X-18359523Y-13247728D01*
X-18264285Y-13200109D01*
X-17359523Y-12962014D02*
X-17359523Y-13628680D01*
X-17597619Y-12581061D02*
X-17835714Y-13295347D01*
X-17216666Y-13295347D01*
%TO.C,Dc3*%
X-12023333Y46206095D02*
X-12023333Y47006095D01*
X-11832857Y47006095D01*
X-11718571Y46968000D01*
X-11642380Y46891809D01*
X-11604285Y46815619D01*
X-11566190Y46663238D01*
X-11566190Y46548952D01*
X-11604285Y46396571D01*
X-11642380Y46320380D01*
X-11718571Y46244190D01*
X-11832857Y46206095D01*
X-12023333Y46206095D01*
X-10880476Y46244190D02*
X-10956666Y46206095D01*
X-11109047Y46206095D01*
X-11185238Y46244190D01*
X-11223333Y46282285D01*
X-11261428Y46358476D01*
X-11261428Y46587047D01*
X-11223333Y46663238D01*
X-11185238Y46701333D01*
X-11109047Y46739428D01*
X-10956666Y46739428D01*
X-10880476Y46701333D01*
X-10613809Y47006095D02*
X-10118571Y47006095D01*
X-10385238Y46701333D01*
X-10270952Y46701333D01*
X-10194761Y46663238D01*
X-10156666Y46625142D01*
X-10118571Y46548952D01*
X-10118571Y46358476D01*
X-10156666Y46282285D01*
X-10194761Y46244190D01*
X-10270952Y46206095D01*
X-10499523Y46206095D01*
X-10575714Y46244190D01*
X-10613809Y46282285D01*
%TO.C,Dd2*%
X49087619Y54170095D02*
X49087619Y54970095D01*
X49278095Y54970095D01*
X49392380Y54932000D01*
X49468571Y54855809D01*
X49506666Y54779619D01*
X49544761Y54627238D01*
X49544761Y54512952D01*
X49506666Y54360571D01*
X49468571Y54284380D01*
X49392380Y54208190D01*
X49278095Y54170095D01*
X49087619Y54170095D01*
X50230476Y54170095D02*
X50230476Y54970095D01*
X50230476Y54208190D02*
X50154285Y54170095D01*
X50001904Y54170095D01*
X49925714Y54208190D01*
X49887619Y54246285D01*
X49849523Y54322476D01*
X49849523Y54551047D01*
X49887619Y54627238D01*
X49925714Y54665333D01*
X50001904Y54703428D01*
X50154285Y54703428D01*
X50230476Y54665333D01*
X50573333Y54893904D02*
X50611428Y54932000D01*
X50687619Y54970095D01*
X50878095Y54970095D01*
X50954285Y54932000D01*
X50992380Y54893904D01*
X51030476Y54817714D01*
X51030476Y54741523D01*
X50992380Y54627238D01*
X50535238Y54170095D01*
X51030476Y54170095D01*
%TO.C,C7*%
X-58592857Y3183333D02*
X-58545238Y3135714D01*
X-58497619Y2992857D01*
X-58497619Y2897619D01*
X-58545238Y2754761D01*
X-58640476Y2659523D01*
X-58735714Y2611904D01*
X-58926190Y2564285D01*
X-59069047Y2564285D01*
X-59259523Y2611904D01*
X-59354761Y2659523D01*
X-59450000Y2754761D01*
X-59497619Y2897619D01*
X-59497619Y2992857D01*
X-59450000Y3135714D01*
X-59402380Y3183333D01*
X-59497619Y3516666D02*
X-59497619Y4183333D01*
X-58497619Y3754761D01*
%TO.C,SWd5*%
X7739285Y-37393561D02*
X7882142Y-37441180D01*
X8120238Y-37441180D01*
X8215476Y-37393561D01*
X8263095Y-37345942D01*
X8310714Y-37250704D01*
X8310714Y-37155466D01*
X8263095Y-37060228D01*
X8215476Y-37012609D01*
X8120238Y-36964990D01*
X7929761Y-36917371D01*
X7834523Y-36869752D01*
X7786904Y-36822133D01*
X7739285Y-36726895D01*
X7739285Y-36631657D01*
X7786904Y-36536419D01*
X7834523Y-36488800D01*
X7929761Y-36441180D01*
X8167857Y-36441180D01*
X8310714Y-36488800D01*
X8644047Y-36441180D02*
X8882142Y-37441180D01*
X9072619Y-36726895D01*
X9263095Y-37441180D01*
X9501190Y-36441180D01*
X10310714Y-37441180D02*
X10310714Y-36441180D01*
X10310714Y-37393561D02*
X10215476Y-37441180D01*
X10025000Y-37441180D01*
X9929761Y-37393561D01*
X9882142Y-37345942D01*
X9834523Y-37250704D01*
X9834523Y-36964990D01*
X9882142Y-36869752D01*
X9929761Y-36822133D01*
X10025000Y-36774514D01*
X10215476Y-36774514D01*
X10310714Y-36822133D01*
X11263095Y-36441180D02*
X10786904Y-36441180D01*
X10739285Y-36917371D01*
X10786904Y-36869752D01*
X10882142Y-36822133D01*
X11120238Y-36822133D01*
X11215476Y-36869752D01*
X11263095Y-36917371D01*
X11310714Y-37012609D01*
X11310714Y-37250704D01*
X11263095Y-37345942D01*
X11215476Y-37393561D01*
X11120238Y-37441180D01*
X10882142Y-37441180D01*
X10786904Y-37393561D01*
X10739285Y-37345942D01*
%TO.C,Dd5*%
X18625119Y-26729904D02*
X18625119Y-25929904D01*
X18815595Y-25929904D01*
X18929880Y-25968000D01*
X19006071Y-26044190D01*
X19044166Y-26120380D01*
X19082261Y-26272761D01*
X19082261Y-26387047D01*
X19044166Y-26539428D01*
X19006071Y-26615619D01*
X18929880Y-26691809D01*
X18815595Y-26729904D01*
X18625119Y-26729904D01*
X19767976Y-26729904D02*
X19767976Y-25929904D01*
X19767976Y-26691809D02*
X19691785Y-26729904D01*
X19539404Y-26729904D01*
X19463214Y-26691809D01*
X19425119Y-26653714D01*
X19387023Y-26577523D01*
X19387023Y-26348952D01*
X19425119Y-26272761D01*
X19463214Y-26234666D01*
X19539404Y-26196571D01*
X19691785Y-26196571D01*
X19767976Y-26234666D01*
X20529880Y-25929904D02*
X20148928Y-25929904D01*
X20110833Y-26310857D01*
X20148928Y-26272761D01*
X20225119Y-26234666D01*
X20415595Y-26234666D01*
X20491785Y-26272761D01*
X20529880Y-26310857D01*
X20567976Y-26387047D01*
X20567976Y-26577523D01*
X20529880Y-26653714D01*
X20491785Y-26691809D01*
X20415595Y-26729904D01*
X20225119Y-26729904D01*
X20148928Y-26691809D01*
X20110833Y-26653714D01*
%TO.C,U2*%
X-50701904Y28337619D02*
X-50701904Y27528095D01*
X-50654285Y27432857D01*
X-50606666Y27385238D01*
X-50511428Y27337619D01*
X-50320952Y27337619D01*
X-50225714Y27385238D01*
X-50178095Y27432857D01*
X-50130476Y27528095D01*
X-50130476Y28337619D01*
X-49701904Y28242380D02*
X-49654285Y28290000D01*
X-49559047Y28337619D01*
X-49320952Y28337619D01*
X-49225714Y28290000D01*
X-49178095Y28242380D01*
X-49130476Y28147142D01*
X-49130476Y28051904D01*
X-49178095Y27909047D01*
X-49749523Y27337619D01*
X-49130476Y27337619D01*
%TO.C,SWc4*%
X17288095Y-4056061D02*
X17430952Y-4103680D01*
X17669047Y-4103680D01*
X17764285Y-4056061D01*
X17811904Y-4008442D01*
X17859523Y-3913204D01*
X17859523Y-3817966D01*
X17811904Y-3722728D01*
X17764285Y-3675109D01*
X17669047Y-3627490D01*
X17478571Y-3579871D01*
X17383333Y-3532252D01*
X17335714Y-3484633D01*
X17288095Y-3389395D01*
X17288095Y-3294157D01*
X17335714Y-3198919D01*
X17383333Y-3151300D01*
X17478571Y-3103680D01*
X17716666Y-3103680D01*
X17859523Y-3151300D01*
X18192857Y-3103680D02*
X18430952Y-4103680D01*
X18621428Y-3389395D01*
X18811904Y-4103680D01*
X19050000Y-3103680D01*
X19859523Y-4056061D02*
X19764285Y-4103680D01*
X19573809Y-4103680D01*
X19478571Y-4056061D01*
X19430952Y-4008442D01*
X19383333Y-3913204D01*
X19383333Y-3627490D01*
X19430952Y-3532252D01*
X19478571Y-3484633D01*
X19573809Y-3437014D01*
X19764285Y-3437014D01*
X19859523Y-3484633D01*
X20716666Y-3437014D02*
X20716666Y-4103680D01*
X20478571Y-3056061D02*
X20240476Y-3770347D01*
X20859523Y-3770347D01*
%TO.C,Dc2*%
X3076666Y46206095D02*
X3076666Y47006095D01*
X3267142Y47006095D01*
X3381428Y46968000D01*
X3457619Y46891809D01*
X3495714Y46815619D01*
X3533809Y46663238D01*
X3533809Y46548952D01*
X3495714Y46396571D01*
X3457619Y46320380D01*
X3381428Y46244190D01*
X3267142Y46206095D01*
X3076666Y46206095D01*
X4219523Y46244190D02*
X4143333Y46206095D01*
X3990952Y46206095D01*
X3914761Y46244190D01*
X3876666Y46282285D01*
X3838571Y46358476D01*
X3838571Y46587047D01*
X3876666Y46663238D01*
X3914761Y46701333D01*
X3990952Y46739428D01*
X4143333Y46739428D01*
X4219523Y46701333D01*
X4524285Y46929904D02*
X4562380Y46968000D01*
X4638571Y47006095D01*
X4829047Y47006095D01*
X4905238Y46968000D01*
X4943333Y46929904D01*
X4981428Y46853714D01*
X4981428Y46777523D01*
X4943333Y46663238D01*
X4486190Y46206095D01*
X4981428Y46206095D01*
%TO.C,SWe2*%
X55388095Y19756538D02*
X55530952Y19708919D01*
X55769047Y19708919D01*
X55864285Y19756538D01*
X55911904Y19804157D01*
X55959523Y19899395D01*
X55959523Y19994633D01*
X55911904Y20089871D01*
X55864285Y20137490D01*
X55769047Y20185109D01*
X55578571Y20232728D01*
X55483333Y20280347D01*
X55435714Y20327966D01*
X55388095Y20423204D01*
X55388095Y20518442D01*
X55435714Y20613680D01*
X55483333Y20661300D01*
X55578571Y20708919D01*
X55816666Y20708919D01*
X55959523Y20661300D01*
X56292857Y20708919D02*
X56530952Y19708919D01*
X56721428Y20423204D01*
X56911904Y19708919D01*
X57150000Y20708919D01*
X57911904Y19756538D02*
X57816666Y19708919D01*
X57626190Y19708919D01*
X57530952Y19756538D01*
X57483333Y19851776D01*
X57483333Y20232728D01*
X57530952Y20327966D01*
X57626190Y20375585D01*
X57816666Y20375585D01*
X57911904Y20327966D01*
X57959523Y20232728D01*
X57959523Y20137490D01*
X57483333Y20042252D01*
X58340476Y20613680D02*
X58388095Y20661300D01*
X58483333Y20708919D01*
X58721428Y20708919D01*
X58816666Y20661300D01*
X58864285Y20613680D01*
X58911904Y20518442D01*
X58911904Y20423204D01*
X58864285Y20280347D01*
X58292857Y19708919D01*
X58911904Y19708919D01*
%TO.C,De2*%
X62756666Y46620095D02*
X62756666Y47420095D01*
X62947142Y47420095D01*
X63061428Y47382000D01*
X63137619Y47305809D01*
X63175714Y47229619D01*
X63213809Y47077238D01*
X63213809Y46962952D01*
X63175714Y46810571D01*
X63137619Y46734380D01*
X63061428Y46658190D01*
X62947142Y46620095D01*
X62756666Y46620095D01*
X63861428Y46658190D02*
X63785238Y46620095D01*
X63632857Y46620095D01*
X63556666Y46658190D01*
X63518571Y46734380D01*
X63518571Y47039142D01*
X63556666Y47115333D01*
X63632857Y47153428D01*
X63785238Y47153428D01*
X63861428Y47115333D01*
X63899523Y47039142D01*
X63899523Y46962952D01*
X63518571Y46886761D01*
X64204285Y47343904D02*
X64242380Y47382000D01*
X64318571Y47420095D01*
X64509047Y47420095D01*
X64585238Y47382000D01*
X64623333Y47343904D01*
X64661428Y47267714D01*
X64661428Y47191523D01*
X64623333Y47077238D01*
X64166190Y46620095D01*
X64661428Y46620095D01*
%TO.C,Dc5*%
X-1343333Y-31029904D02*
X-1343333Y-30229904D01*
X-1152857Y-30229904D01*
X-1038571Y-30268000D01*
X-962380Y-30344190D01*
X-924285Y-30420380D01*
X-886190Y-30572761D01*
X-886190Y-30687047D01*
X-924285Y-30839428D01*
X-962380Y-30915619D01*
X-1038571Y-30991809D01*
X-1152857Y-31029904D01*
X-1343333Y-31029904D01*
X-200476Y-30991809D02*
X-276666Y-31029904D01*
X-429047Y-31029904D01*
X-505238Y-30991809D01*
X-543333Y-30953714D01*
X-581428Y-30877523D01*
X-581428Y-30648952D01*
X-543333Y-30572761D01*
X-505238Y-30534666D01*
X-429047Y-30496571D01*
X-276666Y-30496571D01*
X-200476Y-30534666D01*
X523333Y-30229904D02*
X142380Y-30229904D01*
X104285Y-30610857D01*
X142380Y-30572761D01*
X218571Y-30534666D01*
X409047Y-30534666D01*
X485238Y-30572761D01*
X523333Y-30610857D01*
X561428Y-30687047D01*
X561428Y-30877523D01*
X523333Y-30953714D01*
X485238Y-30991809D01*
X409047Y-31029904D01*
X218571Y-31029904D01*
X142380Y-30991809D01*
X104285Y-30953714D01*
%TO.C,Df2*%
X77020952Y46620095D02*
X77020952Y47420095D01*
X77211428Y47420095D01*
X77325714Y47382000D01*
X77401904Y47305809D01*
X77440000Y47229619D01*
X77478095Y47077238D01*
X77478095Y46962952D01*
X77440000Y46810571D01*
X77401904Y46734380D01*
X77325714Y46658190D01*
X77211428Y46620095D01*
X77020952Y46620095D01*
X77706666Y47153428D02*
X78011428Y47153428D01*
X77820952Y46620095D02*
X77820952Y47305809D01*
X77859047Y47382000D01*
X77935238Y47420095D01*
X78011428Y47420095D01*
X78240000Y47343904D02*
X78278095Y47382000D01*
X78354285Y47420095D01*
X78544761Y47420095D01*
X78620952Y47382000D01*
X78659047Y47343904D01*
X78697142Y47267714D01*
X78697142Y47191523D01*
X78659047Y47077238D01*
X78201904Y46620095D01*
X78697142Y46620095D01*
%TO.C,SWc2*%
X17288095Y34044038D02*
X17430952Y33996419D01*
X17669047Y33996419D01*
X17764285Y34044038D01*
X17811904Y34091657D01*
X17859523Y34186895D01*
X17859523Y34282133D01*
X17811904Y34377371D01*
X17764285Y34424990D01*
X17669047Y34472609D01*
X17478571Y34520228D01*
X17383333Y34567847D01*
X17335714Y34615466D01*
X17288095Y34710704D01*
X17288095Y34805942D01*
X17335714Y34901180D01*
X17383333Y34948800D01*
X17478571Y34996419D01*
X17716666Y34996419D01*
X17859523Y34948800D01*
X18192857Y34996419D02*
X18430952Y33996419D01*
X18621428Y34710704D01*
X18811904Y33996419D01*
X19050000Y34996419D01*
X19859523Y34044038D02*
X19764285Y33996419D01*
X19573809Y33996419D01*
X19478571Y34044038D01*
X19430952Y34091657D01*
X19383333Y34186895D01*
X19383333Y34472609D01*
X19430952Y34567847D01*
X19478571Y34615466D01*
X19573809Y34663085D01*
X19764285Y34663085D01*
X19859523Y34615466D01*
X20240476Y34901180D02*
X20288095Y34948800D01*
X20383333Y34996419D01*
X20621428Y34996419D01*
X20716666Y34948800D01*
X20764285Y34901180D01*
X20811904Y34805942D01*
X20811904Y34710704D01*
X20764285Y34567847D01*
X20192857Y33996419D01*
X20811904Y33996419D01*
%TO.C,Da4*%
X-34979880Y-21893904D02*
X-34979880Y-21093904D01*
X-34789404Y-21093904D01*
X-34675119Y-21132000D01*
X-34598928Y-21208190D01*
X-34560833Y-21284380D01*
X-34522738Y-21436761D01*
X-34522738Y-21551047D01*
X-34560833Y-21703428D01*
X-34598928Y-21779619D01*
X-34675119Y-21855809D01*
X-34789404Y-21893904D01*
X-34979880Y-21893904D01*
X-33837023Y-21893904D02*
X-33837023Y-21474857D01*
X-33875119Y-21398666D01*
X-33951309Y-21360571D01*
X-34103690Y-21360571D01*
X-34179880Y-21398666D01*
X-33837023Y-21855809D02*
X-33913214Y-21893904D01*
X-34103690Y-21893904D01*
X-34179880Y-21855809D01*
X-34217976Y-21779619D01*
X-34217976Y-21703428D01*
X-34179880Y-21627238D01*
X-34103690Y-21589142D01*
X-33913214Y-21589142D01*
X-33837023Y-21551047D01*
X-33113214Y-21360571D02*
X-33113214Y-21893904D01*
X-33303690Y-21055809D02*
X-33494166Y-21627238D01*
X-32998928Y-21627238D01*
%TO.C,Db5*%
X-37462380Y-41979904D02*
X-37462380Y-41179904D01*
X-37271904Y-41179904D01*
X-37157619Y-41218000D01*
X-37081428Y-41294190D01*
X-37043333Y-41370380D01*
X-37005238Y-41522761D01*
X-37005238Y-41637047D01*
X-37043333Y-41789428D01*
X-37081428Y-41865619D01*
X-37157619Y-41941809D01*
X-37271904Y-41979904D01*
X-37462380Y-41979904D01*
X-36662380Y-41979904D02*
X-36662380Y-41179904D01*
X-36662380Y-41484666D02*
X-36586190Y-41446571D01*
X-36433809Y-41446571D01*
X-36357619Y-41484666D01*
X-36319523Y-41522761D01*
X-36281428Y-41598952D01*
X-36281428Y-41827523D01*
X-36319523Y-41903714D01*
X-36357619Y-41941809D01*
X-36433809Y-41979904D01*
X-36586190Y-41979904D01*
X-36662380Y-41941809D01*
X-35557619Y-41179904D02*
X-35938571Y-41179904D01*
X-35976666Y-41560857D01*
X-35938571Y-41522761D01*
X-35862380Y-41484666D01*
X-35671904Y-41484666D01*
X-35595714Y-41522761D01*
X-35557619Y-41560857D01*
X-35519523Y-41637047D01*
X-35519523Y-41827523D01*
X-35557619Y-41903714D01*
X-35595714Y-41941809D01*
X-35671904Y-41979904D01*
X-35862380Y-41979904D01*
X-35938571Y-41941809D01*
X-35976666Y-41903714D01*
%TO.C,SWa5*%
X-52876205Y-64325672D02*
X-52738178Y-64265470D01*
X-52561239Y-64106153D01*
X-52522327Y-64007039D01*
X-52518802Y-63939787D01*
X-52547141Y-63837148D01*
X-52610868Y-63766373D01*
X-52709982Y-63727460D01*
X-52777234Y-63723936D01*
X-52879873Y-63752275D01*
X-53053287Y-63844340D01*
X-53155927Y-63872679D01*
X-53223178Y-63869155D01*
X-53322292Y-63830242D01*
X-53386019Y-63759467D01*
X-53414358Y-63656828D01*
X-53410833Y-63589576D01*
X-53371921Y-63490462D01*
X-53194982Y-63331145D01*
X-53056955Y-63270943D01*
X-52841103Y-63012511D02*
X-51995034Y-63596339D01*
X-52331433Y-62938068D01*
X-51711931Y-63341433D01*
X-52204122Y-62438971D01*
X-50933398Y-62640439D02*
X-51283895Y-62251172D01*
X-51383010Y-62212260D01*
X-51485649Y-62240599D01*
X-51627200Y-62368052D01*
X-51666112Y-62467167D01*
X-50965261Y-62605051D02*
X-51004174Y-62704165D01*
X-51181113Y-62863482D01*
X-51283752Y-62891821D01*
X-51382867Y-62852909D01*
X-51446593Y-62782133D01*
X-51474932Y-62679494D01*
X-51436020Y-62580379D01*
X-51259081Y-62421063D01*
X-51220168Y-62321948D01*
X-50894772Y-61260027D02*
X-51248650Y-61578660D01*
X-50965404Y-61964402D01*
X-50961880Y-61897151D01*
X-50922968Y-61798036D01*
X-50746028Y-61638719D01*
X-50643389Y-61610381D01*
X-50576138Y-61613905D01*
X-50477023Y-61652817D01*
X-50317707Y-61829757D01*
X-50289368Y-61932396D01*
X-50292892Y-61999647D01*
X-50331805Y-62098761D01*
X-50508744Y-62258078D01*
X-50611383Y-62286417D01*
X-50678634Y-62282893D01*
%TO.C,De4*%
X70306666Y33670095D02*
X70306666Y34470095D01*
X70497142Y34470095D01*
X70611428Y34432000D01*
X70687619Y34355809D01*
X70725714Y34279619D01*
X70763809Y34127238D01*
X70763809Y34012952D01*
X70725714Y33860571D01*
X70687619Y33784380D01*
X70611428Y33708190D01*
X70497142Y33670095D01*
X70306666Y33670095D01*
X71411428Y33708190D02*
X71335238Y33670095D01*
X71182857Y33670095D01*
X71106666Y33708190D01*
X71068571Y33784380D01*
X71068571Y34089142D01*
X71106666Y34165333D01*
X71182857Y34203428D01*
X71335238Y34203428D01*
X71411428Y34165333D01*
X71449523Y34089142D01*
X71449523Y34012952D01*
X71068571Y33936761D01*
X72135238Y34203428D02*
X72135238Y33670095D01*
X71944761Y34508190D02*
X71754285Y33936761D01*
X72249523Y33936761D01*
%TO.C,SWe1*%
X55388095Y38806538D02*
X55530952Y38758919D01*
X55769047Y38758919D01*
X55864285Y38806538D01*
X55911904Y38854157D01*
X55959523Y38949395D01*
X55959523Y39044633D01*
X55911904Y39139871D01*
X55864285Y39187490D01*
X55769047Y39235109D01*
X55578571Y39282728D01*
X55483333Y39330347D01*
X55435714Y39377966D01*
X55388095Y39473204D01*
X55388095Y39568442D01*
X55435714Y39663680D01*
X55483333Y39711300D01*
X55578571Y39758919D01*
X55816666Y39758919D01*
X55959523Y39711300D01*
X56292857Y39758919D02*
X56530952Y38758919D01*
X56721428Y39473204D01*
X56911904Y38758919D01*
X57150000Y39758919D01*
X57911904Y38806538D02*
X57816666Y38758919D01*
X57626190Y38758919D01*
X57530952Y38806538D01*
X57483333Y38901776D01*
X57483333Y39282728D01*
X57530952Y39377966D01*
X57626190Y39425585D01*
X57816666Y39425585D01*
X57911904Y39377966D01*
X57959523Y39282728D01*
X57959523Y39187490D01*
X57483333Y39092252D01*
X58911904Y38758919D02*
X58340476Y38758919D01*
X58626190Y38758919D02*
X58626190Y39758919D01*
X58530952Y39616061D01*
X58435714Y39520823D01*
X58340476Y39473204D01*
%TO.C,Da1*%
X-34342380Y25006095D02*
X-34342380Y25806095D01*
X-34151904Y25806095D01*
X-34037619Y25768000D01*
X-33961428Y25691809D01*
X-33923333Y25615619D01*
X-33885238Y25463238D01*
X-33885238Y25348952D01*
X-33923333Y25196571D01*
X-33961428Y25120380D01*
X-34037619Y25044190D01*
X-34151904Y25006095D01*
X-34342380Y25006095D01*
X-33199523Y25006095D02*
X-33199523Y25425142D01*
X-33237619Y25501333D01*
X-33313809Y25539428D01*
X-33466190Y25539428D01*
X-33542380Y25501333D01*
X-33199523Y25044190D02*
X-33275714Y25006095D01*
X-33466190Y25006095D01*
X-33542380Y25044190D01*
X-33580476Y25120380D01*
X-33580476Y25196571D01*
X-33542380Y25272761D01*
X-33466190Y25310857D01*
X-33275714Y25310857D01*
X-33199523Y25348952D01*
X-32399523Y25006095D02*
X-32856666Y25006095D01*
X-32628095Y25006095D02*
X-32628095Y25806095D01*
X-32704285Y25691809D01*
X-32780476Y25615619D01*
X-32856666Y25577523D01*
%TO.C,Da5*%
X-51962380Y-53529904D02*
X-51962380Y-52729904D01*
X-51771904Y-52729904D01*
X-51657619Y-52768000D01*
X-51581428Y-52844190D01*
X-51543333Y-52920380D01*
X-51505238Y-53072761D01*
X-51505238Y-53187047D01*
X-51543333Y-53339428D01*
X-51581428Y-53415619D01*
X-51657619Y-53491809D01*
X-51771904Y-53529904D01*
X-51962380Y-53529904D01*
X-50819523Y-53529904D02*
X-50819523Y-53110857D01*
X-50857619Y-53034666D01*
X-50933809Y-52996571D01*
X-51086190Y-52996571D01*
X-51162380Y-53034666D01*
X-50819523Y-53491809D02*
X-50895714Y-53529904D01*
X-51086190Y-53529904D01*
X-51162380Y-53491809D01*
X-51200476Y-53415619D01*
X-51200476Y-53339428D01*
X-51162380Y-53263238D01*
X-51086190Y-53225142D01*
X-50895714Y-53225142D01*
X-50819523Y-53187047D01*
X-50057619Y-52729904D02*
X-50438571Y-52729904D01*
X-50476666Y-53110857D01*
X-50438571Y-53072761D01*
X-50362380Y-53034666D01*
X-50171904Y-53034666D01*
X-50095714Y-53072761D01*
X-50057619Y-53110857D01*
X-50019523Y-53187047D01*
X-50019523Y-53377523D01*
X-50057619Y-53453714D01*
X-50095714Y-53491809D01*
X-50171904Y-53529904D01*
X-50362380Y-53529904D01*
X-50438571Y-53491809D01*
X-50476666Y-53453714D01*
%TO.C,SWd1*%
X45100000Y45100000D02*
X45100000Y44100000D01*
X31100000Y31100000D02*
X32100000Y31100000D01*
X32100000Y45100000D02*
X31100000Y45100000D01*
X45100000Y32100000D02*
X45100000Y31100000D01*
X31100000Y44100000D02*
X31100000Y45100000D01*
X45100000Y45100000D02*
X44100000Y45100000D01*
X31100000Y31100000D02*
X31100000Y32100000D01*
X44100000Y31100000D02*
X45100000Y31100000D01*
D12*
%TO.C,Dc4*%
X9830000Y-3400000D02*
X9830000Y-1400000D01*
X9840000Y-3400000D02*
X12810000Y-3400000D01*
X9570000Y-2390000D02*
X10850000Y-2390000D01*
X12820000Y-3400000D02*
X12820000Y-1410000D01*
X11910000Y-2930000D02*
X11910000Y-1850000D01*
X13030000Y-2390000D02*
X11910000Y-2390000D01*
X10960000Y-2390000D02*
X11910000Y-1850000D01*
X9830000Y-1400000D02*
X12820000Y-1410000D01*
X10860000Y-2930000D02*
X10860000Y-1850000D01*
X10970000Y-2400000D02*
X11880000Y-2930000D01*
%TO.C,Db2*%
X-33776300Y2500000D02*
X-33776300Y4500000D01*
X-31696300Y2970000D02*
X-31696300Y4050000D01*
X-33766300Y2500000D02*
X-30796300Y2500000D01*
X-32746300Y2970000D02*
X-32746300Y4050000D01*
X-30786300Y2500000D02*
X-30786300Y4490000D01*
X-34036300Y3510000D02*
X-32756300Y3510000D01*
X-32646300Y3510000D02*
X-31696300Y4050000D01*
X-33776300Y4500000D02*
X-30786300Y4490000D01*
X-32636300Y3500000D02*
X-31726300Y2970000D01*
X-30576300Y3510000D02*
X-31696300Y3510000D01*
%TO.C,Db3*%
X-33776300Y-10750000D02*
X-30786300Y-10760000D01*
X-32646300Y-11740000D02*
X-31696300Y-11200000D01*
X-32636300Y-11750000D02*
X-31726300Y-12280000D01*
X-30786300Y-12750000D02*
X-30786300Y-10760000D01*
X-30576300Y-11740000D02*
X-31696300Y-11740000D01*
X-34036300Y-11740000D02*
X-32756300Y-11740000D01*
X-33766300Y-12750000D02*
X-30796300Y-12750000D01*
X-33776300Y-12750000D02*
X-33776300Y-10750000D01*
X-31696300Y-12280000D02*
X-31696300Y-11200000D01*
X-32746300Y-12280000D02*
X-32746300Y-11200000D01*
D10*
%TO.C,SWb5*%
X-40268663Y-55814915D02*
X-40738134Y-54931968D01*
X-22273737Y-59837685D02*
X-21804266Y-60720632D01*
X-28376868Y-48359366D02*
X-29259815Y-48828837D01*
X-34165532Y-67293234D02*
X-33282585Y-66823763D01*
X-34165532Y-67293234D02*
X-34635004Y-66410286D01*
X-39855186Y-54462496D02*
X-40738134Y-54931968D01*
X-22687214Y-61190104D02*
X-21804266Y-60720632D01*
X-28376868Y-48359366D02*
X-27907396Y-49242314D01*
D13*
%TO.C,J2*%
X-53250000Y56200000D02*
X-53250000Y54450000D01*
X-45950000Y59200000D02*
X-45950000Y56200000D01*
X-44250000Y52100000D02*
X-44250000Y45200000D01*
X-45950000Y56200000D02*
X-46700000Y56200000D01*
X-46700000Y54900000D02*
X-51200000Y54900000D01*
X-44250000Y54500000D02*
X-44250000Y56200000D01*
X-48600000Y45200000D02*
X-53250000Y45200000D01*
X-51950000Y56200000D02*
X-51950000Y59200000D01*
X-51200000Y56200000D02*
X-51950000Y56200000D01*
X-53250000Y45200000D02*
X-53250000Y47300000D01*
X-44250000Y56200000D02*
X-45950000Y56200000D01*
X-44250000Y45200000D02*
X-46250000Y45200000D01*
X-51200000Y54900000D02*
X-51200000Y56200000D01*
X-53250000Y49200000D02*
X-53250000Y52250000D01*
X-51950000Y59200000D02*
X-45950000Y59200000D01*
X-46700000Y56200000D02*
X-46700000Y54900000D01*
X-51950000Y56200000D02*
X-53250000Y56200000D01*
D14*
X-43250000Y54700000D02*
G75*
G03*
X-43250000Y54700000I-200000J0D01*
G01*
D10*
%TO.C,SWb1*%
X-7000000Y31100000D02*
X-7000000Y32100000D01*
X-6000000Y45100000D02*
X-7000000Y45100000D01*
X-7000000Y31100000D02*
X-6000000Y31100000D01*
X-7000000Y44100000D02*
X-7000000Y45100000D01*
X7000000Y45100000D02*
X6000000Y45100000D01*
X7000000Y45100000D02*
X7000000Y44100000D01*
X7000000Y32100000D02*
X7000000Y31100000D01*
X6000000Y31100000D02*
X7000000Y31100000D01*
%TO.C,SWd3*%
X32100000Y7000000D02*
X31100000Y7000000D01*
X31100000Y6000000D02*
X31100000Y7000000D01*
X45100000Y7000000D02*
X44100000Y7000000D01*
X44100000Y-7000000D02*
X45100000Y-7000000D01*
X31100000Y-7000000D02*
X31100000Y-6000000D01*
X31100000Y-7000000D02*
X32100000Y-7000000D01*
X45100000Y7000000D02*
X45100000Y6000000D01*
X45100000Y-6000000D02*
X45100000Y-7000000D01*
D12*
%TO.C,C6*%
X-56941000Y38842000D02*
X-56941000Y39810000D01*
X-56140000Y41490000D02*
X-56140000Y42717000D01*
X-57341000Y39134000D02*
X-57341000Y39810000D01*
X-56460000Y38645000D02*
X-56460000Y39810000D01*
X-56701000Y38726000D02*
X-56701000Y39810000D01*
X-56180000Y38588000D02*
X-56180000Y39810000D01*
X-57621000Y39450000D02*
X-57621000Y41850000D01*
X-56220000Y41490000D02*
X-56220000Y42706000D01*
X-56060000Y38576000D02*
X-56060000Y39810000D01*
X-56060000Y41490000D02*
X-56060000Y42724000D01*
X-57181000Y39000000D02*
X-57181000Y39810000D01*
X-57461000Y41490000D02*
X-57461000Y42046000D01*
X-55980000Y38571000D02*
X-55980000Y39810000D01*
X-57301000Y39098000D02*
X-57301000Y39810000D01*
X-56580000Y41490000D02*
X-56580000Y42618000D01*
X-56821000Y41490000D02*
X-56821000Y42520000D01*
X-57301000Y41490000D02*
X-57301000Y42202000D01*
X-57821000Y39791000D02*
X-57821000Y41509000D01*
X-57341000Y41490000D02*
X-57341000Y42166000D01*
X-56140000Y38583000D02*
X-56140000Y39810000D01*
X-57581000Y39396000D02*
X-57581000Y41904000D01*
X-56300000Y41490000D02*
X-56300000Y42692000D01*
X-55980000Y41490000D02*
X-55980000Y42729000D01*
X-56180000Y41490000D02*
X-56180000Y42712000D01*
X-57021000Y41490000D02*
X-57021000Y42410000D01*
X-57501000Y39299000D02*
X-57501000Y42001000D01*
X-56540000Y38668000D02*
X-56540000Y39810000D01*
X-57061000Y38915000D02*
X-57061000Y39810000D01*
X-57981000Y40280000D02*
X-57981000Y41020000D01*
X-56020000Y41490000D02*
X-56020000Y42727000D01*
X-57021000Y38890000D02*
X-57021000Y39810000D01*
X-53630199Y39455000D02*
X-54030199Y39455000D01*
X-57261000Y39063000D02*
X-57261000Y39810000D01*
X-56100000Y38579000D02*
X-56100000Y39810000D01*
X-56981000Y41490000D02*
X-56981000Y42435000D01*
X-56901000Y41490000D02*
X-56901000Y42480000D01*
X-55900000Y41490000D02*
X-55900000Y42730000D01*
X-56741000Y38743000D02*
X-56741000Y39810000D01*
X-56741000Y41490000D02*
X-56741000Y42557000D01*
X-56100000Y41490000D02*
X-56100000Y42721000D01*
X-56500000Y38656000D02*
X-56500000Y39810000D01*
X-57781000Y39710000D02*
X-57781000Y41590000D01*
X-56941000Y41490000D02*
X-56941000Y42458000D01*
X-57861000Y39882000D02*
X-57861000Y41418000D01*
X-56540000Y41490000D02*
X-56540000Y42632000D01*
X-56260000Y41490000D02*
X-56260000Y42700000D01*
X-56621000Y38696000D02*
X-56621000Y39810000D01*
X-57381000Y39172000D02*
X-57381000Y39810000D01*
X-56821000Y38780000D02*
X-56821000Y39810000D01*
X-56861000Y38799000D02*
X-56861000Y39810000D01*
X-57421000Y41490000D02*
X-57421000Y42088000D01*
X-55900000Y38570000D02*
X-55900000Y39810000D01*
X-57421000Y39212000D02*
X-57421000Y39810000D01*
X-56621000Y41490000D02*
X-56621000Y42604000D01*
X-53830199Y39255000D02*
X-53830199Y39655000D01*
X-56340000Y38616000D02*
X-56340000Y39810000D01*
X-57181000Y41490000D02*
X-57181000Y42300000D01*
X-57461000Y39254000D02*
X-57461000Y39810000D01*
X-56661000Y41490000D02*
X-56661000Y42590000D01*
X-56380000Y41490000D02*
X-56380000Y42675000D01*
X-56220000Y38594000D02*
X-56220000Y39810000D01*
X-56661000Y38710000D02*
X-56661000Y39810000D01*
X-56260000Y38600000D02*
X-56260000Y39810000D01*
X-56781000Y38761000D02*
X-56781000Y39810000D01*
X-57701000Y39570000D02*
X-57701000Y41730000D01*
X-56420000Y41490000D02*
X-56420000Y42666000D01*
X-56500000Y41490000D02*
X-56500000Y42644000D01*
X-56300000Y38608000D02*
X-56300000Y39810000D01*
X-57741000Y39637000D02*
X-57741000Y41663000D01*
X-56701000Y41490000D02*
X-56701000Y42574000D01*
X-56861000Y41490000D02*
X-56861000Y42501000D01*
X-57221000Y39031000D02*
X-57221000Y39810000D01*
X-56460000Y41490000D02*
X-56460000Y42655000D01*
X-57941000Y40113000D02*
X-57941000Y41187000D01*
X-56781000Y41490000D02*
X-56781000Y42539000D01*
X-57661000Y39508000D02*
X-57661000Y41792000D01*
X-56420000Y38634000D02*
X-56420000Y39810000D01*
X-56340000Y41490000D02*
X-56340000Y42684000D01*
X-56901000Y38820000D02*
X-56901000Y39810000D01*
X-57101000Y41490000D02*
X-57101000Y42358000D01*
X-55940000Y38570000D02*
X-55940000Y39810000D01*
X-56981000Y38865000D02*
X-56981000Y39810000D01*
X-57061000Y41490000D02*
X-57061000Y42385000D01*
X-56580000Y38682000D02*
X-56580000Y39810000D01*
X-56380000Y38625000D02*
X-56380000Y39810000D01*
X-57901000Y39986000D02*
X-57901000Y41314000D01*
X-57101000Y38942000D02*
X-57101000Y39810000D01*
X-56020000Y38573000D02*
X-56020000Y39810000D01*
X-57141000Y38970000D02*
X-57141000Y39810000D01*
X-57541000Y39346000D02*
X-57541000Y41954000D01*
X-57381000Y41490000D02*
X-57381000Y42128000D01*
X-55940000Y41490000D02*
X-55940000Y42730000D01*
X-57141000Y41490000D02*
X-57141000Y42330000D01*
X-57261000Y41490000D02*
X-57261000Y42237000D01*
X-57221000Y41490000D02*
X-57221000Y42269000D01*
X-53780000Y40650000D02*
G75*
G03*
X-53780000Y40650000I-2120000J0D01*
G01*
%TO.C,G\u002A\u002A\u002A*%
G36*
X-45825087Y-31135085D02*
G01*
X-45858181Y-31388788D01*
X-45857330Y-31606034D01*
X-45821900Y-31793456D01*
X-45751253Y-31957684D01*
X-45644752Y-32105352D01*
X-45532878Y-32211779D01*
X-45333300Y-32337039D01*
X-45085820Y-32431336D01*
X-44789388Y-32495039D01*
X-44442957Y-32528517D01*
X-44387517Y-32531426D01*
X-44242810Y-32541440D01*
X-44148106Y-32553108D01*
X-44096411Y-32567535D01*
X-44080733Y-32585828D01*
X-44103267Y-32619076D01*
X-44162049Y-32647369D01*
X-44187714Y-32652981D01*
X-44293225Y-32664213D01*
X-44433802Y-32668911D01*
X-44591974Y-32667446D01*
X-44750274Y-32660185D01*
X-44891232Y-32647496D01*
X-44997380Y-32629749D01*
X-45139780Y-32586298D01*
X-45351897Y-32496808D01*
X-45560362Y-32384061D01*
X-45740481Y-32260335D01*
X-45765316Y-32240118D01*
X-45952244Y-32055477D01*
X-46130041Y-31824998D01*
X-46291430Y-31560430D01*
X-46429135Y-31273524D01*
X-46535879Y-30976029D01*
X-46607488Y-30735113D01*
X-46497971Y-30735113D01*
X-46489120Y-30801442D01*
X-46465733Y-30892113D01*
X-46408292Y-31064922D01*
X-46333689Y-31253547D01*
X-46250532Y-31436800D01*
X-46167427Y-31593490D01*
X-46140980Y-31637279D01*
X-46076505Y-31736572D01*
X-46010568Y-31830051D01*
X-45949041Y-31910592D01*
X-45897796Y-31971075D01*
X-45862705Y-32004375D01*
X-45849639Y-32003372D01*
X-45864472Y-31960943D01*
X-45924785Y-31790640D01*
X-45962311Y-31577683D01*
X-45963746Y-31369306D01*
X-45959593Y-31333910D01*
X-45940542Y-31217984D01*
X-45911863Y-31072703D01*
X-45877490Y-30915594D01*
X-45841356Y-30764183D01*
X-45807395Y-30635997D01*
X-45779540Y-30548565D01*
X-45777891Y-30542423D01*
X-45789309Y-30529475D01*
X-45833813Y-30531944D01*
X-45919075Y-30550921D01*
X-46052769Y-30587502D01*
X-46131768Y-30609825D01*
X-46258520Y-30644831D01*
X-46362306Y-30672514D01*
X-46426207Y-30688307D01*
X-46477279Y-30703770D01*
X-46497971Y-30735113D01*
X-46607488Y-30735113D01*
X-46608905Y-30730346D01*
X-46786321Y-30751224D01*
X-46797012Y-30752462D01*
X-46920333Y-30765169D01*
X-47069490Y-30778556D01*
X-47214582Y-30789921D01*
X-47465428Y-30807741D01*
X-47455854Y-30939139D01*
X-47422061Y-31169314D01*
X-47342962Y-31448111D01*
X-47228265Y-31722508D01*
X-47085570Y-31974725D01*
X-46922476Y-32186985D01*
X-46756339Y-32351744D01*
X-46595349Y-32472425D01*
X-46422516Y-32559568D01*
X-46220776Y-32623796D01*
X-46191348Y-32631571D01*
X-46069471Y-32666931D01*
X-45909953Y-32716294D01*
X-45726253Y-32775196D01*
X-45531829Y-32839172D01*
X-45340140Y-32903759D01*
X-45164644Y-32964494D01*
X-45018799Y-33016911D01*
X-44916065Y-33056548D01*
X-44905758Y-33061093D01*
X-44844840Y-33101972D01*
X-44819965Y-33144554D01*
X-44822754Y-33164626D01*
X-44849215Y-33180868D01*
X-44916065Y-33172166D01*
X-44998970Y-33151747D01*
X-45127171Y-33116360D01*
X-45286221Y-33070147D01*
X-45465160Y-33016507D01*
X-45653030Y-32958845D01*
X-45838872Y-32900562D01*
X-46011727Y-32845059D01*
X-46160636Y-32795740D01*
X-46274641Y-32756005D01*
X-46342782Y-32729258D01*
X-46409580Y-32700587D01*
X-46528081Y-32661953D01*
X-46658520Y-32637461D01*
X-46816507Y-32624604D01*
X-47017652Y-32620875D01*
X-47114432Y-32622223D01*
X-47319838Y-32638094D01*
X-47497171Y-32674736D01*
X-47666987Y-32735786D01*
X-47706152Y-32751524D01*
X-47772851Y-32766508D01*
X-47812620Y-32750196D01*
X-47814238Y-32748490D01*
X-47816981Y-32722115D01*
X-47776405Y-32688952D01*
X-47685970Y-32643493D01*
X-47637278Y-32622825D01*
X-47413685Y-32555492D01*
X-47165854Y-32517572D01*
X-46917557Y-32513099D01*
X-46711360Y-32524751D01*
X-46845319Y-32410246D01*
X-46961197Y-32294819D01*
X-47090158Y-32136046D01*
X-47212699Y-31957238D01*
X-47315257Y-31776678D01*
X-47321501Y-31763941D01*
X-47375722Y-31633000D01*
X-47432264Y-31467012D01*
X-47484984Y-31286769D01*
X-47527745Y-31113069D01*
X-47554405Y-30966705D01*
X-47572413Y-30829977D01*
X-47962952Y-30809869D01*
X-48123146Y-30800703D01*
X-48468832Y-30773873D01*
X-48772323Y-30739921D01*
X-49025271Y-30699715D01*
X-49106100Y-30683016D01*
X-49160077Y-30665098D01*
X-49175605Y-30643129D01*
X-49163673Y-30609985D01*
X-49150025Y-30562409D01*
X-49172244Y-30507473D01*
X-49242392Y-30451727D01*
X-49365484Y-30389698D01*
X-49397564Y-30376185D01*
X-49554456Y-30321720D01*
X-49755840Y-30265158D01*
X-49990269Y-30208930D01*
X-50246296Y-30155470D01*
X-50512477Y-30107211D01*
X-50777364Y-30066586D01*
X-51029511Y-30036026D01*
X-51124976Y-30024947D01*
X-51205168Y-30012909D01*
X-51244418Y-30003418D01*
X-51244421Y-29987184D01*
X-51215936Y-29937139D01*
X-51162169Y-29867824D01*
X-51135538Y-29836057D01*
X-51079119Y-29756971D01*
X-51066143Y-29704568D01*
X-51100422Y-29673985D01*
X-51185771Y-29660355D01*
X-51326002Y-29658816D01*
X-51365780Y-29660326D01*
X-51551179Y-29681925D01*
X-51784575Y-29727645D01*
X-52061780Y-29796246D01*
X-52378607Y-29886486D01*
X-52730871Y-29997124D01*
X-53114385Y-30126920D01*
X-53524961Y-30274633D01*
X-53958414Y-30439022D01*
X-54114540Y-30499687D01*
X-54285181Y-30565711D01*
X-54411715Y-30613740D01*
X-54500541Y-30645674D01*
X-54558057Y-30663413D01*
X-54590660Y-30668857D01*
X-54604750Y-30663905D01*
X-54606725Y-30650457D01*
X-54602982Y-30630413D01*
X-54600739Y-30625094D01*
X-54556861Y-30589975D01*
X-54460475Y-30539168D01*
X-54314918Y-30473999D01*
X-54123525Y-30395796D01*
X-53889631Y-30305886D01*
X-53616571Y-30205596D01*
X-53307681Y-30096253D01*
X-52966298Y-29979184D01*
X-52768834Y-29913395D01*
X-52369728Y-29787352D01*
X-52022468Y-29688184D01*
X-51726535Y-29615786D01*
X-51481407Y-29570051D01*
X-51286566Y-29550877D01*
X-51141491Y-29558157D01*
X-51045661Y-29591787D01*
X-50987015Y-29655410D01*
X-50973344Y-29741948D01*
X-51013786Y-29833696D01*
X-51041418Y-29874273D01*
X-51058140Y-29910217D01*
X-51052587Y-29915001D01*
X-51003726Y-29929409D01*
X-50915253Y-29946779D01*
X-50800349Y-29964344D01*
X-50766565Y-29969030D01*
X-50581873Y-29997772D01*
X-50377021Y-30033854D01*
X-50165114Y-30074580D01*
X-49959258Y-30117254D01*
X-49772559Y-30159179D01*
X-49618123Y-30197660D01*
X-49509056Y-30230000D01*
X-49356449Y-30288939D01*
X-49203632Y-30367396D01*
X-49103479Y-30446623D01*
X-49059179Y-30524533D01*
X-49051640Y-30555031D01*
X-49032873Y-30585949D01*
X-48993358Y-30607095D01*
X-48920465Y-30624296D01*
X-48801568Y-30643377D01*
X-48753813Y-30649730D01*
X-48616358Y-30663561D01*
X-48445063Y-30676689D01*
X-48257164Y-30687876D01*
X-48069899Y-30695886D01*
X-47579322Y-30712155D01*
X-47578826Y-30704249D01*
X-47481199Y-30704249D01*
X-47296391Y-30700508D01*
X-47217622Y-30697394D01*
X-47089098Y-30688416D01*
X-46952830Y-30675645D01*
X-46825514Y-30660877D01*
X-46723847Y-30645907D01*
X-46664524Y-30632533D01*
X-46656382Y-30622640D01*
X-46653684Y-30569690D01*
X-46667811Y-30468457D01*
X-46699209Y-30314870D01*
X-46710080Y-30266750D01*
X-46773710Y-30020673D01*
X-46839311Y-29828832D01*
X-46908522Y-29687044D01*
X-46982983Y-29591126D01*
X-47002059Y-29573048D01*
X-47053879Y-29532137D01*
X-47095213Y-29526878D01*
X-47149870Y-29551638D01*
X-47179196Y-29571861D01*
X-47254881Y-29661545D01*
X-47325220Y-29795181D01*
X-47386564Y-29961758D01*
X-47435268Y-30150263D01*
X-47467685Y-30349684D01*
X-47480167Y-30549010D01*
X-47481199Y-30704249D01*
X-47578826Y-30704249D01*
X-47560996Y-30419902D01*
X-47545511Y-30252609D01*
X-47505642Y-30022874D01*
X-47448544Y-29825572D01*
X-47377054Y-29664508D01*
X-47294005Y-29543490D01*
X-47202232Y-29466326D01*
X-47104570Y-29436821D01*
X-47003852Y-29458783D01*
X-46902913Y-29536019D01*
X-46868403Y-29576505D01*
X-46797300Y-29690044D01*
X-46731973Y-29841500D01*
X-46669643Y-30037929D01*
X-46607532Y-30286386D01*
X-46584523Y-30385700D01*
X-46557918Y-30495341D01*
X-46538442Y-30569690D01*
X-46537823Y-30572054D01*
X-46527376Y-30603434D01*
X-46525638Y-30604124D01*
X-46485710Y-30599285D01*
X-46404607Y-30581802D01*
X-46295605Y-30555204D01*
X-46171979Y-30523023D01*
X-46047006Y-30488791D01*
X-45933961Y-30456038D01*
X-45846121Y-30428297D01*
X-45796762Y-30409097D01*
X-45788408Y-30403712D01*
X-45743019Y-30347997D01*
X-45709172Y-30267599D01*
X-45708325Y-30264419D01*
X-45673078Y-30123314D01*
X-45633565Y-29950695D01*
X-45591157Y-29754011D01*
X-45547229Y-29540708D01*
X-45503153Y-29318237D01*
X-45460302Y-29094044D01*
X-45420050Y-28875579D01*
X-45383768Y-28670288D01*
X-45352831Y-28485622D01*
X-45328611Y-28329027D01*
X-45312482Y-28207951D01*
X-45305816Y-28129844D01*
X-45309986Y-28102153D01*
X-45325915Y-28111207D01*
X-45380892Y-28149545D01*
X-45464681Y-28211000D01*
X-45566858Y-28288031D01*
X-45873526Y-28505546D01*
X-46233536Y-28729046D01*
X-46610650Y-28934715D01*
X-46987103Y-29112905D01*
X-47345134Y-29253968D01*
X-47634429Y-29343645D01*
X-48093820Y-29444834D01*
X-48560452Y-29500645D01*
X-49025349Y-29511033D01*
X-49479533Y-29475950D01*
X-49914025Y-29395353D01*
X-50319848Y-29269193D01*
X-50398638Y-29238908D01*
X-50498408Y-29196127D01*
X-50556395Y-29155494D01*
X-50574679Y-29106554D01*
X-50565059Y-29072877D01*
X-50449375Y-29072877D01*
X-50427223Y-29102785D01*
X-50356502Y-29143315D01*
X-50246667Y-29189424D01*
X-50107417Y-29237762D01*
X-49948453Y-29284979D01*
X-49779475Y-29327727D01*
X-49610186Y-29362655D01*
X-49432095Y-29387243D01*
X-49182867Y-29405747D01*
X-48912236Y-29412503D01*
X-48640043Y-29407516D01*
X-48386131Y-29390791D01*
X-48170340Y-29362332D01*
X-48157918Y-29360067D01*
X-47898616Y-29304571D01*
X-47620514Y-29231793D01*
X-47349530Y-29149045D01*
X-47111583Y-29063638D01*
X-46980455Y-29008759D01*
X-46673689Y-28861728D01*
X-46349715Y-28684196D01*
X-46023904Y-28485324D01*
X-45711626Y-28274275D01*
X-45428251Y-28060211D01*
X-45385761Y-28026384D01*
X-45297863Y-27959168D01*
X-45231954Y-27912589D01*
X-45199828Y-27895168D01*
X-45187228Y-27917959D01*
X-45189516Y-27976484D01*
X-45192428Y-27995468D01*
X-45203943Y-28078628D01*
X-45218996Y-28194428D01*
X-45235101Y-28323923D01*
X-45243141Y-28386259D01*
X-45272698Y-28584883D01*
X-45312097Y-28820812D01*
X-45358699Y-29080358D01*
X-45409863Y-29349836D01*
X-45462948Y-29615558D01*
X-45515314Y-29863837D01*
X-45564320Y-30080985D01*
X-45607325Y-30253317D01*
X-45612497Y-30296714D01*
X-45593189Y-30315449D01*
X-45542580Y-30306075D01*
X-45454466Y-30267389D01*
X-45322642Y-30198191D01*
X-45036478Y-30024515D01*
X-44695091Y-29759818D01*
X-44398327Y-29456498D01*
X-44146123Y-29114454D01*
X-43938417Y-28733582D01*
X-43775145Y-28313779D01*
X-43656243Y-27854942D01*
X-43581650Y-27356968D01*
X-43567155Y-27226712D01*
X-43550553Y-27129693D01*
X-43526833Y-27057008D01*
X-43490086Y-26990854D01*
X-43434401Y-26913429D01*
X-43373684Y-26825889D01*
X-43292126Y-26692319D01*
X-43224124Y-26564551D01*
X-43190700Y-26491858D01*
X-43154738Y-26391867D01*
X-43140084Y-26298215D01*
X-43140661Y-26183128D01*
X-43149301Y-25993905D01*
X-43031024Y-25951639D01*
X-43000315Y-25941271D01*
X-42899330Y-25910440D01*
X-42770408Y-25873860D01*
X-42633917Y-25837391D01*
X-42558998Y-25817734D01*
X-42451461Y-25788235D01*
X-42375259Y-25765650D01*
X-42343402Y-25753724D01*
X-42344401Y-25747292D01*
X-42379800Y-25717528D01*
X-42451429Y-25672066D01*
X-42547337Y-25617546D01*
X-42655575Y-25560607D01*
X-42764190Y-25507890D01*
X-42861232Y-25466032D01*
X-42971320Y-25416065D01*
X-43046692Y-25360758D01*
X-43100467Y-25288404D01*
X-43116716Y-25261086D01*
X-43199065Y-25136136D01*
X-43309760Y-24982003D01*
X-43439806Y-24810157D01*
X-43580206Y-24632070D01*
X-43721964Y-24459213D01*
X-43856085Y-24303057D01*
X-43973571Y-24175074D01*
X-44196397Y-23956977D01*
X-44435430Y-23754072D01*
X-44658701Y-23598661D01*
X-44863202Y-23492810D01*
X-45045924Y-23438586D01*
X-45147217Y-23422148D01*
X-45127749Y-23936249D01*
X-45125801Y-23989006D01*
X-45118790Y-24245670D01*
X-45119605Y-24458536D01*
X-45130588Y-24640387D01*
X-45154081Y-24804007D01*
X-45192425Y-24962178D01*
X-45247960Y-25127684D01*
X-45323028Y-25313308D01*
X-45419970Y-25531832D01*
X-45664381Y-26069953D01*
X-46044960Y-26213442D01*
X-46471514Y-26380334D01*
X-46996395Y-26602763D01*
X-47501063Y-26835533D01*
X-47980791Y-27075927D01*
X-48430852Y-27321230D01*
X-48846518Y-27568725D01*
X-49223062Y-27815696D01*
X-49555756Y-28059428D01*
X-49839873Y-28297204D01*
X-50070686Y-28526309D01*
X-50096556Y-28555300D01*
X-50200699Y-28679858D01*
X-50295724Y-28804966D01*
X-50373960Y-28919554D01*
X-50427734Y-29012548D01*
X-50449375Y-29072877D01*
X-50565059Y-29072877D01*
X-50555340Y-29038854D01*
X-50500458Y-28941939D01*
X-50412111Y-28805355D01*
X-50392876Y-28776436D01*
X-50195521Y-28523449D01*
X-49941547Y-28262950D01*
X-49632579Y-27996355D01*
X-49270245Y-27725080D01*
X-48856170Y-27450542D01*
X-48711713Y-27363392D01*
X-48476442Y-27230808D01*
X-48204850Y-27085943D01*
X-47907725Y-26934086D01*
X-47595855Y-26780522D01*
X-47280030Y-26630541D01*
X-46971038Y-26489429D01*
X-46679667Y-26362474D01*
X-46416705Y-26254964D01*
X-46370674Y-26236929D01*
X-46197756Y-26169083D01*
X-46043130Y-26108269D01*
X-45915992Y-26058113D01*
X-45825538Y-26022241D01*
X-45780966Y-26004279D01*
X-45769783Y-25996696D01*
X-45727438Y-25941161D01*
X-45667378Y-25833687D01*
X-45588930Y-25673002D01*
X-45491421Y-25457837D01*
X-45469196Y-25407482D01*
X-45394348Y-25236099D01*
X-45339251Y-25103928D01*
X-45300283Y-24999202D01*
X-45273819Y-24910151D01*
X-45256236Y-24825007D01*
X-45243907Y-24732002D01*
X-45233211Y-24619368D01*
X-45226236Y-24515507D01*
X-45220387Y-24303534D01*
X-45222131Y-24063484D01*
X-45231506Y-23814610D01*
X-45237408Y-23696843D01*
X-45243606Y-23547704D01*
X-45247081Y-23427371D01*
X-45247568Y-23345919D01*
X-45244798Y-23313424D01*
X-45222256Y-23311177D01*
X-45155679Y-23318565D01*
X-45062939Y-23335404D01*
X-44946349Y-23365868D01*
X-44689988Y-23473401D01*
X-44423688Y-23638563D01*
X-44147985Y-23860994D01*
X-43863414Y-24140335D01*
X-43818200Y-24189655D01*
X-43703269Y-24322210D01*
X-43575401Y-24477358D01*
X-43443236Y-24643911D01*
X-43315418Y-24810682D01*
X-43200589Y-24966485D01*
X-43107390Y-25100132D01*
X-43044464Y-25200435D01*
X-42994880Y-25269981D01*
X-42922648Y-25325409D01*
X-42811346Y-25376142D01*
X-42783144Y-25388268D01*
X-42697718Y-25431561D01*
X-42587764Y-25492901D01*
X-42462761Y-25566355D01*
X-42332188Y-25645991D01*
X-42205525Y-25725876D01*
X-42163013Y-25753724D01*
X-42092251Y-25800078D01*
X-42001844Y-25862664D01*
X-41943785Y-25907701D01*
X-41927551Y-25929258D01*
X-41944615Y-25930317D01*
X-42004946Y-25918312D01*
X-42091127Y-25893588D01*
X-42141303Y-25878132D01*
X-42199624Y-25864985D01*
X-42258083Y-25862259D01*
X-42330993Y-25870916D01*
X-42432668Y-25891917D01*
X-42577421Y-25926221D01*
X-42580743Y-25927023D01*
X-42753393Y-25969029D01*
X-42876583Y-26001228D01*
X-42958202Y-26027663D01*
X-43006136Y-26052382D01*
X-43028273Y-26079430D01*
X-43032500Y-26112853D01*
X-43026703Y-26156697D01*
X-43024109Y-26218510D01*
X-43047986Y-26354671D01*
X-43104268Y-26517152D01*
X-43188657Y-26694520D01*
X-43296855Y-26875346D01*
X-43311614Y-26897616D01*
X-43379487Y-27003801D01*
X-43423806Y-27087573D01*
X-43451890Y-27169250D01*
X-43471062Y-27269150D01*
X-43488643Y-27407593D01*
X-43503247Y-27522881D01*
X-43594417Y-28017875D01*
X-43727187Y-28471136D01*
X-43902008Y-28883352D01*
X-44119333Y-29255210D01*
X-44379611Y-29587398D01*
X-44683295Y-29880602D01*
X-45030835Y-30135511D01*
X-45422684Y-30352811D01*
X-45664892Y-30469030D01*
X-45683544Y-30542423D01*
X-45764290Y-30860155D01*
X-45825087Y-31135085D01*
G37*
%TO.C,Db1*%
X-32886300Y20000000D02*
X-31976300Y19470000D01*
X-34026300Y19000000D02*
X-34026300Y21000000D01*
X-30826300Y20010000D02*
X-31946300Y20010000D01*
X-31946300Y19470000D02*
X-31946300Y20550000D01*
X-31036300Y19000000D02*
X-31036300Y20990000D01*
X-34026300Y21000000D02*
X-31036300Y20990000D01*
X-32896300Y20010000D02*
X-31946300Y20550000D01*
X-34016300Y19000000D02*
X-31046300Y19000000D01*
X-34286300Y20010000D02*
X-33006300Y20010000D01*
X-32996300Y19470000D02*
X-32996300Y20550000D01*
%TO.C,Df4*%
X79677500Y28280000D02*
X79677500Y27200000D01*
X78767500Y28750000D02*
X78767500Y26760000D01*
X78557500Y27740000D02*
X79677500Y27740000D01*
X80727500Y28280000D02*
X80727500Y27200000D01*
X81747500Y28750000D02*
X78777500Y28750000D01*
X80617500Y27750000D02*
X79707500Y28280000D01*
X81757500Y26750000D02*
X78767500Y26760000D01*
X80627500Y27740000D02*
X79677500Y27200000D01*
X81757500Y28750000D02*
X81757500Y26750000D01*
X82017500Y27740000D02*
X80737500Y27740000D01*
%TO.C,Df3*%
X79440000Y36240000D02*
X78490000Y35700000D01*
X80570000Y37250000D02*
X80570000Y35250000D01*
X77370000Y36240000D02*
X78490000Y36240000D01*
X80560000Y37250000D02*
X77590000Y37250000D01*
X78490000Y36780000D02*
X78490000Y35700000D01*
X79540000Y36780000D02*
X79540000Y35700000D01*
X79430000Y36250000D02*
X78520000Y36780000D01*
X77580000Y37250000D02*
X77580000Y35260000D01*
X80570000Y35250000D02*
X77580000Y35260000D01*
X80830000Y36240000D02*
X79550000Y36240000D01*
D10*
%TO.C,SWf2*%
X69200000Y17906300D02*
X69200000Y18906300D01*
X70200000Y18906300D02*
X69200000Y18906300D01*
X83200000Y5906300D02*
X83200000Y4906300D01*
X69200000Y4906300D02*
X69200000Y5906300D01*
X69200000Y4906300D02*
X70200000Y4906300D01*
X83200000Y18906300D02*
X83200000Y17906300D01*
X82200000Y4906300D02*
X83200000Y4906300D01*
X83200000Y18906300D02*
X82200000Y18906300D01*
D12*
%TO.C,De1*%
X62127500Y52440000D02*
X61177500Y51900000D01*
X62117500Y52450000D02*
X61207500Y52980000D01*
X63247500Y53450000D02*
X60277500Y53450000D01*
X60267500Y53450000D02*
X60267500Y51460000D01*
X62227500Y52980000D02*
X62227500Y51900000D01*
X63257500Y53450000D02*
X63257500Y51450000D01*
X61177500Y52980000D02*
X61177500Y51900000D01*
X63257500Y51450000D02*
X60267500Y51460000D01*
X63517500Y52440000D02*
X62237500Y52440000D01*
X60057500Y52440000D02*
X61177500Y52440000D01*
D10*
%TO.C,SWd4*%
X45100000Y-12050000D02*
X45100000Y-13050000D01*
X31100000Y-26050000D02*
X31100000Y-25050000D01*
X31100000Y-26050000D02*
X32100000Y-26050000D01*
X45100000Y-25050000D02*
X45100000Y-26050000D01*
X32100000Y-12050000D02*
X31100000Y-12050000D01*
X45100000Y-12050000D02*
X44100000Y-12050000D01*
X44100000Y-26050000D02*
X45100000Y-26050000D01*
X31100000Y-13050000D02*
X31100000Y-12050000D01*
%TO.C,SWf4*%
X83200000Y-19193800D02*
X82200000Y-19193800D01*
X69200000Y-20193800D02*
X69200000Y-19193800D01*
X70200000Y-19193800D02*
X69200000Y-19193800D01*
X83200000Y-19193800D02*
X83200000Y-20193800D01*
X83200000Y-32193800D02*
X83200000Y-33193800D01*
X69200000Y-33193800D02*
X69200000Y-32193800D01*
X82200000Y-33193800D02*
X83200000Y-33193800D01*
X69200000Y-33193800D02*
X70200000Y-33193800D01*
%TO.C,SWa3*%
X-12050000Y4618700D02*
X-12050000Y3618700D01*
X-12050000Y4618700D02*
X-13050000Y4618700D01*
X-26050000Y-9381300D02*
X-26050000Y-8381300D01*
X-12050000Y-8381300D02*
X-12050000Y-9381300D01*
X-26050000Y-9381300D02*
X-25050000Y-9381300D01*
X-26050000Y3618700D02*
X-26050000Y4618700D01*
X-13050000Y-9381300D02*
X-12050000Y-9381300D01*
X-25050000Y4618700D02*
X-26050000Y4618700D01*
%TO.C,SWc3*%
X26050000Y14143800D02*
X26050000Y13143800D01*
X25050000Y143800D02*
X26050000Y143800D01*
X12050000Y143800D02*
X13050000Y143800D01*
X13050000Y14143800D02*
X12050000Y14143800D01*
X26050000Y1143800D02*
X26050000Y143800D01*
X12050000Y143800D02*
X12050000Y1143800D01*
X26050000Y14143800D02*
X25050000Y14143800D01*
X12050000Y13143800D02*
X12050000Y14143800D01*
D12*
%TO.C,Da2*%
X-32326300Y12510000D02*
X-33446300Y12510000D01*
X-34496300Y11970000D02*
X-34496300Y13050000D01*
X-35516300Y11500000D02*
X-32546300Y11500000D01*
X-32536300Y11500000D02*
X-32536300Y13490000D01*
X-35526300Y13500000D02*
X-32536300Y13490000D01*
X-34396300Y12510000D02*
X-33446300Y13050000D01*
X-35526300Y11500000D02*
X-35526300Y13500000D01*
X-33446300Y11970000D02*
X-33446300Y13050000D01*
X-35786300Y12510000D02*
X-34506300Y12510000D01*
X-34386300Y12500000D02*
X-33476300Y11970000D01*
D10*
%TO.C,SWd2*%
X31100000Y12050000D02*
X32100000Y12050000D01*
X31100000Y12050000D02*
X31100000Y13050000D01*
X31100000Y25050000D02*
X31100000Y26050000D01*
X32100000Y26050000D02*
X31100000Y26050000D01*
X44100000Y12050000D02*
X45100000Y12050000D01*
X45100000Y26050000D02*
X44100000Y26050000D01*
X45100000Y26050000D02*
X45100000Y25050000D01*
X45100000Y13050000D02*
X45100000Y12050000D01*
%TO.C,SWb2*%
X6000000Y12050000D02*
X7000000Y12050000D01*
X-7000000Y12050000D02*
X-6000000Y12050000D01*
X-7000000Y12050000D02*
X-7000000Y13050000D01*
X7000000Y26050000D02*
X6000000Y26050000D01*
X7000000Y13050000D02*
X7000000Y12050000D01*
X-7000000Y25050000D02*
X-7000000Y26050000D01*
X-6000000Y26050000D02*
X-7000000Y26050000D01*
X7000000Y26050000D02*
X7000000Y25050000D01*
D12*
%TO.C,Da3*%
X-34396300Y-4490000D02*
X-33446300Y-3950000D01*
X-32536300Y-5500000D02*
X-32536300Y-3510000D01*
X-35516300Y-5500000D02*
X-32546300Y-5500000D01*
X-34496300Y-5030000D02*
X-34496300Y-3950000D01*
X-34386300Y-4500000D02*
X-33476300Y-5030000D01*
X-35786300Y-4490000D02*
X-34506300Y-4490000D01*
X-35526300Y-5500000D02*
X-35526300Y-3500000D01*
X-33446300Y-5030000D02*
X-33446300Y-3950000D01*
X-32326300Y-4490000D02*
X-33446300Y-4490000D01*
X-35526300Y-3500000D02*
X-32536300Y-3510000D01*
D10*
%TO.C,SWf3*%
X69200000Y-1143800D02*
X69200000Y-143800D01*
X83200000Y-13143800D02*
X83200000Y-14143800D01*
X83200000Y-143800D02*
X82200000Y-143800D01*
X83200000Y-143800D02*
X83200000Y-1143800D01*
X69200000Y-14143800D02*
X70200000Y-14143800D01*
X70200000Y-143800D02*
X69200000Y-143800D01*
X82200000Y-14143800D02*
X83200000Y-14143800D01*
X69200000Y-14143800D02*
X69200000Y-13143800D01*
D12*
%TO.C,R6*%
X-56930000Y44520000D02*
X-56930000Y48360000D01*
X-58770000Y44520000D02*
X-58770000Y48360000D01*
D10*
%TO.C,SWb3*%
X6000000Y-7000000D02*
X7000000Y-7000000D01*
X-7000000Y-7000000D02*
X-6000000Y-7000000D01*
X-6000000Y7000000D02*
X-7000000Y7000000D01*
X7000000Y7000000D02*
X6000000Y7000000D01*
X7000000Y7000000D02*
X7000000Y6000000D01*
X7000000Y-6000000D02*
X7000000Y-7000000D01*
X-7000000Y-7000000D02*
X-7000000Y-6000000D01*
X-7000000Y6000000D02*
X-7000000Y7000000D01*
D12*
%TO.C,Dd4*%
X36942500Y-10400000D02*
X36942500Y-8400000D01*
X39932500Y-10400000D02*
X39932500Y-8410000D01*
X36942500Y-8400000D02*
X39932500Y-8410000D01*
X36952500Y-10400000D02*
X39922500Y-10400000D01*
X38072500Y-9390000D02*
X39022500Y-8850000D01*
X40142500Y-9390000D02*
X39022500Y-9390000D01*
X39022500Y-9930000D02*
X39022500Y-8850000D01*
X37972500Y-9930000D02*
X37972500Y-8850000D01*
X38082500Y-9400000D02*
X38992500Y-9930000D01*
X36682500Y-9390000D02*
X37962500Y-9390000D01*
D10*
%TO.C,SWe4*%
X64150000Y-19193800D02*
X64150000Y-20193800D01*
X64150000Y-19193800D02*
X63150000Y-19193800D01*
X63150000Y-33193800D02*
X64150000Y-33193800D01*
X51150000Y-19193800D02*
X50150000Y-19193800D01*
X50150000Y-20193800D02*
X50150000Y-19193800D01*
X50150000Y-33193800D02*
X51150000Y-33193800D01*
X64150000Y-32193800D02*
X64150000Y-33193800D01*
X50150000Y-33193800D02*
X50150000Y-32193800D01*
%TO.C,SWa2*%
X-26050000Y9668800D02*
X-26050000Y10668800D01*
X-26050000Y22668800D02*
X-26050000Y23668800D01*
X-13050000Y9668800D02*
X-12050000Y9668800D01*
X-12050000Y23668800D02*
X-12050000Y22668800D01*
X-12050000Y10668800D02*
X-12050000Y9668800D01*
X-25050000Y23668800D02*
X-26050000Y23668800D01*
X-12050000Y23668800D02*
X-13050000Y23668800D01*
X-26050000Y9668800D02*
X-25050000Y9668800D01*
%TO.C,SWb4*%
X-7000000Y-13050000D02*
X-7000000Y-12050000D01*
X7000000Y-12050000D02*
X6000000Y-12050000D01*
X6000000Y-26050000D02*
X7000000Y-26050000D01*
X7000000Y-25050000D02*
X7000000Y-26050000D01*
X-7000000Y-26050000D02*
X-6000000Y-26050000D01*
X-6000000Y-12050000D02*
X-7000000Y-12050000D01*
X7000000Y-12050000D02*
X7000000Y-13050000D01*
X-7000000Y-26050000D02*
X-7000000Y-25050000D01*
D12*
%TO.C,Dd1*%
X36780000Y53500000D02*
X36780000Y51510000D01*
X38740000Y53030000D02*
X38740000Y51950000D01*
X38640000Y52490000D02*
X37690000Y51950000D01*
X38630000Y52500000D02*
X37720000Y53030000D01*
X39760000Y53500000D02*
X36790000Y53500000D01*
X36570000Y52490000D02*
X37690000Y52490000D01*
X40030000Y52490000D02*
X38750000Y52490000D01*
X39770000Y51500000D02*
X36780000Y51510000D01*
X37690000Y53030000D02*
X37690000Y51950000D01*
X39770000Y53500000D02*
X39770000Y51500000D01*
D10*
%TO.C,SWa1*%
X-12050000Y29718800D02*
X-12050000Y28718800D01*
X-26050000Y28718800D02*
X-26050000Y29718800D01*
X-12050000Y42718800D02*
X-12050000Y41718800D01*
X-26050000Y28718800D02*
X-25050000Y28718800D01*
X-12050000Y42718800D02*
X-13050000Y42718800D01*
X-13050000Y28718800D02*
X-12050000Y28718800D01*
X-25050000Y42718800D02*
X-26050000Y42718800D01*
X-26050000Y41718800D02*
X-26050000Y42718800D01*
%TO.C,SWe3*%
X50150000Y-14143800D02*
X51150000Y-14143800D01*
X63150000Y-14143800D02*
X64150000Y-14143800D01*
X50150000Y-14143800D02*
X50150000Y-13143800D01*
X64150000Y-13143800D02*
X64150000Y-14143800D01*
X64150000Y-143800D02*
X63150000Y-143800D01*
X64150000Y-143800D02*
X64150000Y-1143800D01*
X51150000Y-143800D02*
X50150000Y-143800D01*
X50150000Y-1143800D02*
X50150000Y-143800D01*
D12*
%TO.C,Dd3*%
X52980000Y44940000D02*
X51700000Y44940000D01*
X52720000Y43950000D02*
X49730000Y43960000D01*
X49520000Y44940000D02*
X50640000Y44940000D01*
X51690000Y45480000D02*
X51690000Y44400000D01*
X49730000Y45950000D02*
X49730000Y43960000D01*
X52710000Y45950000D02*
X49740000Y45950000D01*
X50640000Y45480000D02*
X50640000Y44400000D01*
X52720000Y45950000D02*
X52720000Y43950000D01*
X51590000Y44940000D02*
X50640000Y44400000D01*
X51580000Y44950000D02*
X50670000Y45480000D01*
%TO.C,Db4*%
X-31677500Y-27280000D02*
X-31677500Y-26200000D01*
X-33757500Y-25750000D02*
X-30767500Y-25760000D01*
X-30557500Y-26740000D02*
X-31677500Y-26740000D01*
X-32617500Y-26750000D02*
X-31707500Y-27280000D01*
X-30767500Y-27750000D02*
X-30767500Y-25760000D01*
X-33747500Y-27750000D02*
X-30777500Y-27750000D01*
X-34017500Y-26740000D02*
X-32737500Y-26740000D01*
X-33757500Y-27750000D02*
X-33757500Y-25750000D01*
X-32627500Y-26740000D02*
X-31677500Y-26200000D01*
X-32727500Y-27280000D02*
X-32727500Y-26200000D01*
D10*
%TO.C,SWc1*%
X25050000Y38243800D02*
X26050000Y38243800D01*
X12050000Y38243800D02*
X13050000Y38243800D01*
X26050000Y39243800D02*
X26050000Y38243800D01*
X26050000Y52243800D02*
X26050000Y51243800D01*
X12050000Y51243800D02*
X12050000Y52243800D01*
X26050000Y52243800D02*
X25050000Y52243800D01*
X12050000Y38243800D02*
X12050000Y39243800D01*
X13050000Y52243800D02*
X12050000Y52243800D01*
D12*
%TO.C,De3*%
X70490000Y40980000D02*
X70490000Y39900000D01*
X71520000Y39450000D02*
X68530000Y39460000D01*
X71510000Y41450000D02*
X68540000Y41450000D01*
X71780000Y40440000D02*
X70500000Y40440000D01*
X69440000Y40980000D02*
X69440000Y39900000D01*
X70390000Y40440000D02*
X69440000Y39900000D01*
X68320000Y40440000D02*
X69440000Y40440000D01*
X68530000Y41450000D02*
X68530000Y39460000D01*
X70380000Y40450000D02*
X69470000Y40980000D01*
X71520000Y41450000D02*
X71520000Y39450000D01*
%TO.C,Dc1*%
X-4090000Y51920000D02*
X-4090000Y53000000D01*
X-3040000Y51920000D02*
X-3040000Y53000000D01*
X-5120000Y51450000D02*
X-5120000Y53450000D01*
X-2130000Y51450000D02*
X-2130000Y53440000D01*
X-1920000Y52460000D02*
X-3040000Y52460000D01*
X-5120000Y53450000D02*
X-2130000Y53440000D01*
X-3980000Y52450000D02*
X-3070000Y51920000D01*
X-5110000Y51450000D02*
X-2140000Y51450000D01*
X-5380000Y52460000D02*
X-4100000Y52460000D01*
X-3990000Y52460000D02*
X-3040000Y53000000D01*
%TO.C,R5*%
X-49370000Y41920000D02*
X-45530000Y41920000D01*
X-49370000Y40080000D02*
X-45530000Y40080000D01*
D10*
%TO.C,SWc5*%
X-6532583Y-40530777D02*
X-7502879Y-40772699D01*
X-3387599Y-53144621D02*
X-3145677Y-54114917D01*
X-4115972Y-54356839D02*
X-3145677Y-54114917D01*
X-19874801Y-44887979D02*
X-20116723Y-43917683D01*
X-16729817Y-57501823D02*
X-16971739Y-56531528D01*
X-19146428Y-43675761D02*
X-20116723Y-43917683D01*
X-6532583Y-40530777D02*
X-6290661Y-41501072D01*
X-16729817Y-57501823D02*
X-15759521Y-57259901D01*
%TO.C,SWa4*%
X-26050000Y-28431300D02*
X-25050000Y-28431300D01*
X-12050000Y-27431300D02*
X-12050000Y-28431300D01*
X-12050000Y-14431300D02*
X-13050000Y-14431300D01*
X-13050000Y-28431300D02*
X-12050000Y-28431300D01*
X-26050000Y-28431300D02*
X-26050000Y-27431300D01*
X-25050000Y-14431300D02*
X-26050000Y-14431300D01*
X-26050000Y-15431300D02*
X-26050000Y-14431300D01*
X-12050000Y-14431300D02*
X-12050000Y-15431300D01*
D12*
%TO.C,Dc3*%
X-9370000Y48610000D02*
X-10490000Y48610000D01*
X-12570000Y49600000D02*
X-9580000Y49590000D01*
X-11540000Y48070000D02*
X-11540000Y49150000D01*
X-9580000Y47600000D02*
X-9580000Y49590000D01*
X-11430000Y48600000D02*
X-10520000Y48070000D01*
X-12570000Y47600000D02*
X-12570000Y49600000D01*
X-11440000Y48610000D02*
X-10490000Y49150000D01*
X-12560000Y47600000D02*
X-9590000Y47600000D01*
X-10490000Y48070000D02*
X-10490000Y49150000D01*
X-12830000Y48610000D02*
X-11550000Y48610000D01*
%TO.C,Dd2*%
X51520000Y51500000D02*
X48530000Y51510000D01*
X50490000Y53030000D02*
X50490000Y51950000D01*
X50390000Y52490000D02*
X49440000Y51950000D01*
X51780000Y52490000D02*
X50500000Y52490000D01*
X51520000Y53500000D02*
X51520000Y51500000D01*
X49440000Y53030000D02*
X49440000Y51950000D01*
X48530000Y53500000D02*
X48530000Y51510000D01*
X51510000Y53500000D02*
X48540000Y53500000D01*
X48320000Y52490000D02*
X49440000Y52490000D01*
X50380000Y52500000D02*
X49470000Y53030000D01*
%TO.C,C7*%
X-55580000Y980000D02*
X-55595000Y980000D01*
X-55580000Y5520000D02*
X-55580000Y980000D01*
X-57705000Y980000D02*
X-57720000Y980000D01*
X-55580000Y5520000D02*
X-55595000Y5520000D01*
X-57705000Y5520000D02*
X-57720000Y5520000D01*
X-57720000Y5520000D02*
X-57720000Y980000D01*
D10*
%TO.C,SWd5*%
X2525000Y-52243800D02*
X2525000Y-51243800D01*
X15525000Y-52243800D02*
X16525000Y-52243800D01*
X16525000Y-38243800D02*
X15525000Y-38243800D01*
X2525000Y-52243800D02*
X3525000Y-52243800D01*
X2525000Y-39243800D02*
X2525000Y-38243800D01*
X3525000Y-38243800D02*
X2525000Y-38243800D01*
X16525000Y-51243800D02*
X16525000Y-52243800D01*
X16525000Y-38243800D02*
X16525000Y-39243800D01*
D12*
%TO.C,Dd5*%
X17857500Y-28410000D02*
X18977500Y-28410000D01*
X21317500Y-28410000D02*
X20037500Y-28410000D01*
X19927500Y-28410000D02*
X18977500Y-28950000D01*
X21057500Y-27400000D02*
X21057500Y-29400000D01*
X18977500Y-27870000D02*
X18977500Y-28950000D01*
X21047500Y-27400000D02*
X18077500Y-27400000D01*
X19917500Y-28400000D02*
X19007500Y-27870000D01*
X20027500Y-27870000D02*
X20027500Y-28950000D01*
X21057500Y-29400000D02*
X18067500Y-29390000D01*
X18067500Y-27400000D02*
X18067500Y-29390000D01*
%TO.C,U2*%
X-47290000Y-10160000D02*
X-47290000Y26790000D01*
X-50940000Y26790000D02*
X-52590000Y26790000D01*
X-44800000Y26850000D02*
X-55080000Y26850000D01*
X-55080000Y26850000D02*
X-55080000Y-10220000D01*
X-52590000Y-10160000D02*
X-47290000Y-10160000D01*
X-47290000Y26790000D02*
X-48940000Y26790000D01*
X-55080000Y-10220000D02*
X-44800000Y-10220000D01*
X-44800000Y-10220000D02*
X-44800000Y26850000D01*
X-52590000Y26790000D02*
X-52590000Y-10160000D01*
X-50940000Y26790000D02*
G75*
G03*
X-48940000Y26790000I1000000J0D01*
G01*
X-51772000Y26222000D02*
G75*
G03*
X-51772000Y26222000I-200000J0D01*
G01*
X-51922000Y26222000D02*
G75*
G03*
X-51922000Y26222000I-50000J0D01*
G01*
X-51847000Y26222000D02*
G75*
G03*
X-51847000Y26222000I-125000J0D01*
G01*
D10*
%TO.C,SWc4*%
X26050000Y-4906300D02*
X25050000Y-4906300D01*
X12050000Y-18906300D02*
X12050000Y-17906300D01*
X26050000Y-17906300D02*
X26050000Y-18906300D01*
X25050000Y-18906300D02*
X26050000Y-18906300D01*
X26050000Y-4906300D02*
X26050000Y-5906300D01*
X13050000Y-4906300D02*
X12050000Y-4906300D01*
X12050000Y-18906300D02*
X13050000Y-18906300D01*
X12050000Y-5906300D02*
X12050000Y-4906300D01*
D12*
%TO.C,Dc2*%
X2270000Y48610000D02*
X3550000Y48610000D01*
X3670000Y48600000D02*
X4580000Y48070000D01*
X2530000Y49600000D02*
X5520000Y49590000D01*
X2530000Y47600000D02*
X2530000Y49600000D01*
X5730000Y48610000D02*
X4610000Y48610000D01*
X4610000Y48070000D02*
X4610000Y49150000D01*
X5520000Y47600000D02*
X5520000Y49590000D01*
X3660000Y48610000D02*
X4610000Y49150000D01*
X3560000Y48070000D02*
X3560000Y49150000D01*
X2540000Y47600000D02*
X5510000Y47600000D01*
D10*
%TO.C,SWe2*%
X51150000Y18906300D02*
X50150000Y18906300D01*
X63150000Y4906300D02*
X64150000Y4906300D01*
X64150000Y18906300D02*
X63150000Y18906300D01*
X50150000Y17906300D02*
X50150000Y18906300D01*
X64150000Y5906300D02*
X64150000Y4906300D01*
X64150000Y18906300D02*
X64150000Y17906300D01*
X50150000Y4906300D02*
X50150000Y5906300D01*
X50150000Y4906300D02*
X51150000Y4906300D01*
D12*
%TO.C,De2*%
X65170000Y45950000D02*
X65170000Y43950000D01*
X65170000Y43950000D02*
X62180000Y43960000D01*
X64140000Y45480000D02*
X64140000Y44400000D01*
X62180000Y45950000D02*
X62180000Y43960000D01*
X64040000Y44940000D02*
X63090000Y44400000D01*
X65160000Y45950000D02*
X62190000Y45950000D01*
X61970000Y44940000D02*
X63090000Y44940000D01*
X63090000Y45480000D02*
X63090000Y44400000D01*
X65430000Y44940000D02*
X64150000Y44940000D01*
X64030000Y44950000D02*
X63120000Y45480000D01*
%TO.C,Dc5*%
X-1920000Y-31700000D02*
X-1920000Y-33690000D01*
X-70000Y-32700000D02*
X-980000Y-32170000D01*
X1330000Y-32710000D02*
X50000Y-32710000D01*
X1060000Y-31700000D02*
X-1910000Y-31700000D01*
X1070000Y-33700000D02*
X-1920000Y-33690000D01*
X-60000Y-32710000D02*
X-1010000Y-33250000D01*
X-1010000Y-32170000D02*
X-1010000Y-33250000D01*
X-2130000Y-32710000D02*
X-1010000Y-32710000D01*
X40000Y-32170000D02*
X40000Y-33250000D01*
X1070000Y-31700000D02*
X1070000Y-33700000D01*
%TO.C,Df2*%
X78290000Y45480000D02*
X78290000Y44400000D01*
X76330000Y45950000D02*
X76330000Y43960000D01*
X78190000Y44940000D02*
X77240000Y44400000D01*
X76120000Y44940000D02*
X77240000Y44940000D01*
X78180000Y44950000D02*
X77270000Y45480000D01*
X79320000Y43950000D02*
X76330000Y43960000D01*
X79580000Y44940000D02*
X78300000Y44940000D01*
X79320000Y45950000D02*
X79320000Y43950000D01*
X77240000Y45480000D02*
X77240000Y44400000D01*
X79310000Y45950000D02*
X76340000Y45950000D01*
D10*
%TO.C,SWc2*%
X12050000Y19193800D02*
X13050000Y19193800D01*
X12050000Y19193800D02*
X12050000Y20193800D01*
X26050000Y33193800D02*
X25050000Y33193800D01*
X26050000Y20193800D02*
X26050000Y19193800D01*
X26050000Y33193800D02*
X26050000Y32193800D01*
X13050000Y33193800D02*
X12050000Y33193800D01*
X12050000Y32193800D02*
X12050000Y33193800D01*
X25050000Y19193800D02*
X26050000Y19193800D01*
D12*
%TO.C,Da4*%
X-34377500Y-19490000D02*
X-33427500Y-18950000D01*
X-32517500Y-20500000D02*
X-32517500Y-18510000D01*
X-35507500Y-18500000D02*
X-32517500Y-18510000D01*
X-35507500Y-20500000D02*
X-35507500Y-18500000D01*
X-32307500Y-19490000D02*
X-33427500Y-19490000D01*
X-35497500Y-20500000D02*
X-32527500Y-20500000D01*
X-35767500Y-19490000D02*
X-34487500Y-19490000D01*
X-34367500Y-19500000D02*
X-33457500Y-20030000D01*
X-34477500Y-20030000D02*
X-34477500Y-18950000D01*
X-33427500Y-20030000D02*
X-33427500Y-18950000D01*
%TO.C,Db5*%
X-34770000Y-43660000D02*
X-36050000Y-43660000D01*
X-35030000Y-44650000D02*
X-38020000Y-44640000D01*
X-38020000Y-42650000D02*
X-38020000Y-44640000D01*
X-36160000Y-43660000D02*
X-37110000Y-44200000D01*
X-37110000Y-43120000D02*
X-37110000Y-44200000D01*
X-36060000Y-43120000D02*
X-36060000Y-44200000D01*
X-35040000Y-42650000D02*
X-38010000Y-42650000D01*
X-36170000Y-43650000D02*
X-37080000Y-43120000D01*
X-35030000Y-42650000D02*
X-35030000Y-44650000D01*
X-38230000Y-43660000D02*
X-37110000Y-43660000D01*
D10*
%TO.C,SWa5*%
X-47751900Y-61174072D02*
X-47082770Y-61917217D01*
X-57412783Y-69872770D02*
X-58155928Y-70541900D01*
X-48788100Y-80945928D02*
X-48044955Y-80276797D01*
X-57486797Y-71285045D02*
X-58155928Y-70541900D01*
X-47751900Y-61174072D02*
X-48495045Y-61843203D01*
X-39127217Y-72247230D02*
X-38384072Y-71578100D01*
X-39053203Y-70834955D02*
X-38384072Y-71578100D01*
X-48788100Y-80945928D02*
X-49457230Y-80202783D01*
D12*
%TO.C,De4*%
X71590000Y31990000D02*
X70640000Y31450000D01*
X72720000Y33000000D02*
X72720000Y31000000D01*
X72720000Y31000000D02*
X69730000Y31010000D01*
X72980000Y31990000D02*
X71700000Y31990000D01*
X69520000Y31990000D02*
X70640000Y31990000D01*
X72710000Y33000000D02*
X69740000Y33000000D01*
X70640000Y32530000D02*
X70640000Y31450000D01*
X71580000Y32000000D02*
X70670000Y32530000D01*
X69730000Y33000000D02*
X69730000Y31010000D01*
X71690000Y32530000D02*
X71690000Y31450000D01*
D10*
%TO.C,SWe1*%
X50150000Y36956300D02*
X50150000Y37956300D01*
X63150000Y23956300D02*
X64150000Y23956300D01*
X64150000Y24956300D02*
X64150000Y23956300D01*
X64150000Y37956300D02*
X64150000Y36956300D01*
X50150000Y23956300D02*
X51150000Y23956300D01*
X51150000Y37956300D02*
X50150000Y37956300D01*
X50150000Y23956300D02*
X50150000Y24956300D01*
X64150000Y37956300D02*
X63150000Y37956300D01*
D12*
%TO.C,Da1*%
X-31880000Y26400000D02*
X-31880000Y28390000D01*
X-34870000Y28400000D02*
X-31880000Y28390000D01*
X-31670000Y27410000D02*
X-32790000Y27410000D01*
X-35130000Y27410000D02*
X-33850000Y27410000D01*
X-33740000Y27410000D02*
X-32790000Y27950000D01*
X-34870000Y26400000D02*
X-34870000Y28400000D01*
X-32790000Y26870000D02*
X-32790000Y27950000D01*
X-33730000Y27400000D02*
X-32820000Y26870000D01*
X-33840000Y26870000D02*
X-33840000Y27950000D01*
X-34860000Y26400000D02*
X-31890000Y26400000D01*
%TO.C,Da5*%
X-49540000Y-54200000D02*
X-52510000Y-54200000D01*
X-52730000Y-55210000D02*
X-51610000Y-55210000D01*
X-49530000Y-56200000D02*
X-52520000Y-56190000D01*
X-49270000Y-55210000D02*
X-50550000Y-55210000D01*
X-49530000Y-54200000D02*
X-49530000Y-56200000D01*
X-50560000Y-54670000D02*
X-50560000Y-55750000D01*
X-50660000Y-55210000D02*
X-51610000Y-55750000D01*
X-52520000Y-54200000D02*
X-52520000Y-56190000D01*
X-50670000Y-55200000D02*
X-51580000Y-54670000D01*
X-51610000Y-54670000D02*
X-51610000Y-55750000D01*
%TD*%
M02*
