M48
; DRILL file {KiCad (6.0.5)} date Tue Oct  4 21:40:47 2022
; FORMAT={-:-/ absolute / metric / decimal}
; #@! TF.CreationDate,2022-10-04T21:40:47-03:00
; #@! TF.GenerationSoftware,Kicad,Pcbnew,(6.0.5)
; #@! TF.FileFunction,NonPlated,1,2,NPTH
FMAT,2
METRIC
; #@! TA.AperFunction,NonPlated,NPTH,ComponentDrill
T1C1.100
; #@! TA.AperFunction,NonPlated,NPTH,ComponentDrill
T2C1.702
; #@! TA.AperFunction,NonPlated,NPTH,ComponentDrill
T3C3.988
%
G90
G05
T1
X-48.95Y53.3
X-48.95Y48.3
T2
X-52.045Y-74.459
X-44.495Y-67.661
X-35.757Y-60.211
X-26.786Y-55.441
X-24.13Y35.719
X-24.13Y16.669
X-24.13Y-2.381
X-24.13Y-21.431
X-16.56Y-50.245
X-13.97Y35.719
X-13.97Y16.669
X-13.97Y-2.381
X-13.97Y-21.431
X-6.702Y-47.787
X-5.08Y38.1
X-5.08Y19.05
X-5.08Y0.0
X-5.08Y-19.05
X4.445Y-45.244
X5.08Y38.1
X5.08Y19.05
X5.08Y0.0
X5.08Y-19.05
X13.97Y45.244
X13.97Y26.194
X13.97Y7.144
X13.97Y-11.906
X14.605Y-45.244
X24.13Y45.244
X24.13Y26.194
X24.13Y7.144
X24.13Y-11.906
X33.02Y38.1
X33.02Y19.05
X33.02Y0.0
X33.02Y-19.05
X43.18Y38.1
X43.18Y19.05
X43.18Y0.0
X43.18Y-19.05
X52.07Y30.956
X52.07Y11.906
X52.07Y-7.144
X52.07Y-26.194
X62.23Y30.956
X62.23Y11.906
X62.23Y-7.144
X62.23Y-26.194
X71.12Y11.906
X71.12Y-7.144
X71.12Y-26.194
X81.28Y11.906
X81.28Y-7.144
X81.28Y-26.194
T3
X-48.27Y-71.06
X-31.271Y-57.826
X-19.05Y35.719
X-19.05Y16.669
X-19.05Y-2.381
X-19.05Y-21.431
X-11.631Y-49.016
X0.0Y38.1
X0.0Y19.05
X0.0Y0.0
X0.0Y-19.05
X9.525Y-45.244
X19.05Y45.244
X19.05Y26.194
X19.05Y7.144
X19.05Y-11.906
X38.1Y38.1
X38.1Y19.05
X38.1Y0.0
X38.1Y-19.05
X57.15Y30.956
X57.15Y11.906
X57.15Y-7.144
X57.15Y-26.194
X76.2Y11.906
X76.2Y-7.144
X76.2Y-26.194
T0
M30
