M48
; DRILL file {KiCad (6.0.5)} date Tue Oct  4 21:26:39 2022
; FORMAT={-:-/ absolute / metric / decimal}
; #@! TF.CreationDate,2022-10-04T21:26:39-03:00
; #@! TF.GenerationSoftware,Kicad,Pcbnew,(6.0.5)
; #@! TF.FileFunction,NonPlated,1,2,NPTH
FMAT,2
METRIC
; #@! TA.AperFunction,NonPlated,NPTH,ComponentDrill
T1C0.150
%
G90
G05
T1
X-83.121Y18.831G85X-83.121Y4.981
G05
X-83.121Y-0.219G85X-83.121Y-14.069
G05
X-83.121Y-19.269G85X-83.121Y-33.119
G05
X-83.125Y18.828G85X-69.275Y18.828
G05
X-83.125Y4.985G85X-69.275Y4.985
G05
X-83.125Y-0.222G85X-69.275Y-0.222
G05
X-83.125Y-14.065G85X-69.275Y-14.065
G05
X-83.125Y-19.272G85X-69.275Y-19.272
G05
X-83.125Y-33.115G85X-69.275Y-33.115
G05
X-69.278Y18.831G85X-69.278Y4.981
G05
X-69.278Y-0.219G85X-69.278Y-14.069
G05
X-69.278Y-19.269G85X-69.278Y-33.119
G05
X-64.072Y37.881G85X-64.072Y24.031
G05
X-64.072Y18.831G85X-64.072Y4.981
G05
X-64.072Y-0.219G85X-64.072Y-14.069
G05
X-64.072Y-19.269G85X-64.072Y-33.119
G05
X-64.075Y37.878G85X-50.225Y37.878
G05
X-64.075Y24.035G85X-50.225Y24.035
G05
X-64.075Y18.828G85X-50.225Y18.828
G05
X-64.075Y4.985G85X-50.225Y4.985
G05
X-64.075Y-0.222G85X-50.225Y-0.222
G05
X-64.075Y-14.065G85X-50.225Y-14.065
G05
X-64.075Y-19.272G85X-50.225Y-19.272
G05
X-64.075Y-33.115G85X-50.225Y-33.115
G05
X-50.228Y37.881G85X-50.228Y24.031
G05
X-50.228Y18.831G85X-50.228Y4.981
G05
X-50.228Y-0.219G85X-50.228Y-14.069
G05
X-50.228Y-19.269G85X-50.228Y-33.119
G05
X-45.021Y45.025G85X-45.021Y31.175
G05
X-45.021Y25.975G85X-45.021Y12.125
G05
X-45.021Y6.925G85X-45.021Y-6.925
G05
X-45.021Y-12.125G85X-45.021Y-25.975
G05
X-45.025Y45.021G85X-31.175Y45.021
G05
X-45.025Y31.178G85X-31.175Y31.178
G05
X-45.025Y25.971G85X-31.175Y25.971
G05
X-45.025Y12.128G85X-31.175Y12.128
G05
X-45.025Y6.921G85X-31.175Y6.921
G05
X-45.025Y-6.921G85X-31.175Y-6.921
G05
X-45.025Y-12.128G85X-31.175Y-12.128
G05
X-45.025Y-25.971G85X-31.175Y-25.971
G05
X-31.178Y45.025G85X-31.178Y31.175
G05
X-31.178Y25.975G85X-31.178Y12.125
G05
X-31.178Y6.925G85X-31.178Y-6.925
G05
X-31.178Y-12.125G85X-31.178Y-25.975
G05
X-25.971Y52.169G85X-25.971Y38.319
G05
X-25.971Y33.119G85X-25.971Y19.269
G05
X-25.971Y14.069G85X-25.971Y0.219
G05
X-25.971Y-4.981G85X-25.971Y-18.831
G05
X-25.975Y52.165G85X-12.125Y52.165
G05
X-25.975Y38.322G85X-12.125Y38.322
G05
X-25.975Y33.115G85X-12.125Y33.115
G05
X-25.975Y19.272G85X-12.125Y19.272
G05
X-25.975Y14.065G85X-12.125Y14.065
G05
X-25.975Y0.222G85X-12.125Y0.222
G05
X-25.975Y-4.985G85X-12.125Y-4.985
G05
X-25.975Y-18.828G85X-12.125Y-18.828
G05
X-16.447Y-38.319G85X-16.447Y-52.169
G05
X-12.128Y52.169G85X-12.128Y38.319
G05
X-12.128Y33.119G85X-12.128Y19.269
G05
X-12.128Y14.069G85X-12.128Y0.219
G05
X-12.128Y-4.981G85X-12.128Y-18.831
G05
X-16.45Y-38.322G85X-2.6Y-38.322
G05
X-16.45Y-52.165G85X-2.6Y-52.165
G05
X-6.921Y45.025G85X-6.921Y31.175
G05
X-6.921Y25.975G85X-6.921Y12.125
G05
X-6.921Y6.925G85X-6.921Y-6.925
G05
X-6.921Y-12.125G85X-6.921Y-25.975
G05
X-2.603Y-38.319G85X-2.603Y-52.169
G05
X-6.925Y45.021G85X6.925Y45.021
G05
X-6.925Y31.178G85X6.925Y31.178
G05
X-6.925Y25.971G85X6.925Y25.971
G05
X-6.925Y12.128G85X6.925Y12.128
G05
X-6.925Y6.921G85X6.925Y6.921
G05
X-6.925Y-6.921G85X6.925Y-6.921
G05
X-6.925Y-12.128G85X6.925Y-12.128
G05
X-6.925Y-25.971G85X6.925Y-25.971
G05
X6.591Y-40.623G85X3.24Y-54.061
G05
X6.921Y45.025G85X6.921Y31.175
G05
X6.921Y25.975G85X6.921Y12.125
G05
X6.921Y6.925G85X6.921Y-6.925
G05
X6.921Y-12.125G85X6.921Y-25.975
G05
X3.237Y-54.057G85X16.676Y-57.408
G05
X12.128Y42.644G85X12.128Y28.794
G05
X12.128Y23.594G85X12.128Y9.744
G05
X12.128Y4.544G85X12.128Y-9.306
G05
X12.128Y-14.506G85X12.128Y-28.356
G05
X6.586Y-40.625G85X20.025Y-43.976
G05
X20.022Y-43.971G85X16.672Y-57.41
G05
X12.125Y42.64G85X25.975Y42.64
G05
X12.125Y28.797G85X25.975Y28.797
G05
X12.125Y23.59G85X25.975Y23.59
G05
X12.125Y9.747G85X25.975Y9.747
G05
X12.125Y4.54G85X25.975Y4.54
G05
X12.125Y-9.303G85X25.975Y-9.303
G05
X12.125Y-14.51G85X25.975Y-14.51
G05
X12.125Y-28.353G85X25.975Y-28.353
G05
X28.411Y-48.462G85X21.909Y-60.691
G05
X25.971Y42.644G85X25.971Y28.794
G05
X25.971Y23.594G85X25.971Y9.744
G05
X25.971Y4.544G85X25.971Y-9.306
G05
X25.971Y-14.506G85X25.971Y-28.356
G05
X21.907Y-60.687G85X34.136Y-67.189
G05
X28.406Y-48.464G85X40.635Y-54.966
G05
X40.634Y-54.961G85X34.131Y-67.19
G05
X47.691Y-61.279G85X38.424Y-71.571
G05
X38.424Y-71.566G85X48.716Y-80.834
G05
X47.686Y-61.279G85X57.979Y-70.546
G05
X57.979Y-70.541G85X48.711Y-80.834
G05
T0
M30
