%TF.GenerationSoftware,KiCad,Pcbnew,(6.0.5)*%
%TF.CreationDate,2022-07-25T14:01:38-03:00*%
%TF.ProjectId,bluejay_left,626c7565-6a61-4795-9f6c-6566742e6b69,rev?*%
%TF.SameCoordinates,Original*%
%TF.FileFunction,Soldermask,Top*%
%TF.FilePolarity,Negative*%
%FSLAX46Y46*%
G04 Gerber Fmt 4.6, Leading zero omitted, Abs format (unit mm)*
G04 Created by KiCad (PCBNEW (6.0.5)) date 2022-07-25 14:01:38*
%MOMM*%
%LPD*%
G01*
G04 APERTURE LIST*
%ADD10C,1.600000*%
%ADD11R,1.600000X1.600000*%
%ADD12O,1.600000X1.600000*%
%ADD13C,1.500000*%
%ADD14C,3.987800*%
%ADD15C,2.286000*%
%ADD16C,4.400000*%
%ADD17C,1.400000*%
%ADD18O,1.400000X1.400000*%
%ADD19O,1.100000X1.650000*%
%ADD20O,1.700000X2.700000*%
%ADD21C,2.000000*%
%ADD22C,1.100000*%
%ADD23R,1.650000X1.650000*%
%ADD24C,1.650000*%
%ADD25R,1.200000X1.200000*%
%ADD26C,1.200000*%
%ADD27C,2.010000*%
G04 APERTURE END LIST*
D10*
%TO.C,C2*%
X40731200Y-3656300D03*
X43231200Y-3656300D03*
%TD*%
D11*
%TO.C,Dc5*%
X-2130000Y-32700000D03*
D12*
X2950000Y-32700000D03*
%TD*%
D13*
%TO.C,Y1*%
X41481200Y1143700D03*
X41481200Y6023700D03*
%TD*%
D14*
%TO.C,SWa3*%
X19050000Y-2381300D03*
D15*
X21590000Y2698700D03*
X15240000Y158700D03*
%TD*%
D14*
%TO.C,SWa5*%
X48201200Y-71056300D03*
D15*
X53487971Y-68980716D03*
X47069410Y-66619325D03*
%TD*%
D11*
%TO.C,Da1*%
X35930000Y27400000D03*
D12*
X30850000Y27400000D03*
%TD*%
D14*
%TO.C,SWf2*%
X-76200000Y11906300D03*
D15*
X-73660000Y16986300D03*
X-80010000Y14446300D03*
%TD*%
D14*
%TO.C,SWc2*%
X-19050000Y26193800D03*
D15*
X-16510000Y31273800D03*
X-22860000Y28733800D03*
%TD*%
D14*
%TO.C,SWd1*%
X-38100000Y38100000D03*
D15*
X-35560000Y43180000D03*
X-41910000Y40640000D03*
%TD*%
D14*
%TO.C,SWc3*%
X-19050000Y7143800D03*
D15*
X-16510000Y12223800D03*
X-22860000Y9683800D03*
%TD*%
D11*
%TO.C,DZ2*%
X38580000Y45960000D03*
D12*
X38580000Y51040000D03*
%TD*%
D11*
%TO.C,De2*%
X-65530000Y44950000D03*
D12*
X-60450000Y44950000D03*
%TD*%
D14*
%TO.C,SWe3*%
X-57150000Y-7143800D03*
D15*
X-54610000Y-2063800D03*
X-60960000Y-4603800D03*
%TD*%
D11*
%TO.C,U1*%
X45931200Y25037500D03*
D12*
X45931200Y22497500D03*
X45931200Y19957500D03*
X45931200Y17417500D03*
X45931200Y14877500D03*
X45931200Y12337500D03*
X45931200Y9797500D03*
X45931200Y7257500D03*
X45931200Y4717500D03*
X45931200Y2177500D03*
X45931200Y-362500D03*
X45931200Y-2902500D03*
X45931200Y-5442500D03*
X45931200Y-7982500D03*
X53551200Y-7982500D03*
X53551200Y-5442500D03*
X53551200Y-2902500D03*
X53551200Y-362500D03*
X53551200Y2177500D03*
X53551200Y4717500D03*
X53551200Y7257500D03*
X53551200Y9797500D03*
X53551200Y12337500D03*
X53551200Y14877500D03*
X53551200Y17417500D03*
X53551200Y19957500D03*
X53551200Y22497500D03*
X53551200Y25037500D03*
%TD*%
D11*
%TO.C,Da4*%
X36567500Y-19500000D03*
D12*
X31487500Y-19500000D03*
%TD*%
D11*
%TO.C,De1*%
X-64317500Y52450000D03*
D12*
X-59237500Y52450000D03*
%TD*%
D14*
%TO.C,SWc4*%
X-19050000Y-11906300D03*
D15*
X-16510000Y-6826300D03*
X-22860000Y-9366300D03*
%TD*%
D14*
%TO.C,SWe2*%
X-57150000Y11906300D03*
D15*
X-54610000Y16986300D03*
X-60960000Y14446300D03*
%TD*%
D11*
%TO.C,Da3*%
X36586300Y-4500000D03*
D12*
X31506300Y-4500000D03*
%TD*%
D14*
%TO.C,SWd5*%
X-9525000Y-45243800D03*
D15*
X-6985000Y-40163800D03*
X-13335000Y-42703800D03*
%TD*%
D11*
%TO.C,De3*%
X-72580000Y40450000D03*
D12*
X-67500000Y40450000D03*
%TD*%
D16*
%TO.C,H9*%
X56950000Y-64150000D03*
%TD*%
D14*
%TO.C,SWa4*%
X19050000Y-21431300D03*
D15*
X21590000Y-16351300D03*
X15240000Y-18891300D03*
%TD*%
D14*
%TO.C,SWb1*%
X0Y38100000D03*
D15*
X2540000Y43180000D03*
X-3810000Y40640000D03*
%TD*%
D14*
%TO.C,SWb2*%
X0Y19050000D03*
D15*
X2540000Y24130000D03*
X-3810000Y21590000D03*
%TD*%
D11*
%TO.C,De4*%
X-73780000Y32000000D03*
D12*
X-68700000Y32000000D03*
%TD*%
D10*
%TO.C,C4*%
X42981200Y13093700D03*
X42981200Y18093700D03*
%TD*%
D14*
%TO.C,SWa2*%
X19050000Y16668800D03*
D15*
X21590000Y21748800D03*
X15240000Y19208800D03*
%TD*%
D11*
%TO.C,Db2*%
X34836300Y3500000D03*
D12*
X29756300Y3500000D03*
%TD*%
D16*
%TO.C,H8*%
X40900000Y-63300000D03*
%TD*%
D14*
%TO.C,SWf3*%
X-76200000Y-7143800D03*
D15*
X-73660000Y-2063800D03*
X-80010000Y-4603800D03*
%TD*%
D14*
%TO.C,SWd4*%
X-38100000Y-19050000D03*
D15*
X-35560000Y-13970000D03*
X-41910000Y-16510000D03*
%TD*%
D11*
%TO.C,Db4*%
X34817500Y-26750000D03*
D12*
X29737500Y-26750000D03*
%TD*%
D17*
%TO.C,R1*%
X41640000Y50980000D03*
D18*
X41640000Y45900000D03*
%TD*%
D16*
%TO.C,H5*%
X-29150000Y-9550000D03*
%TD*%
D11*
%TO.C,DZ1*%
X25000000Y48782500D03*
D12*
X25000000Y53862500D03*
%TD*%
D14*
%TO.C,SWb4*%
X0Y-19050000D03*
D15*
X2540000Y-13970000D03*
X-3810000Y-16510000D03*
%TD*%
D14*
%TO.C,SWe4*%
X-57150000Y-26193800D03*
D15*
X-54610000Y-21113800D03*
X-60960000Y-23653800D03*
%TD*%
D16*
%TO.C,H1*%
X-82200000Y52600000D03*
%TD*%
D11*
%TO.C,Dd2*%
X-52580000Y52500000D03*
D12*
X-47500000Y52500000D03*
%TD*%
D14*
%TO.C,SWa1*%
X19050000Y35718800D03*
D15*
X21590000Y40798800D03*
X15240000Y38258800D03*
%TD*%
D11*
%TO.C,Dd1*%
X-40830000Y52500000D03*
D12*
X-35750000Y52500000D03*
%TD*%
D11*
%TO.C,Df2*%
X-80380000Y44950000D03*
D12*
X-75300000Y44950000D03*
%TD*%
D16*
%TO.C,H7*%
X1600000Y-46000000D03*
%TD*%
D11*
%TO.C,Dd4*%
X-40580000Y-9500000D03*
D12*
X-35500000Y-9500000D03*
%TD*%
D11*
%TO.C,Db1*%
X35086300Y20000000D03*
D12*
X30006300Y20000000D03*
%TD*%
D16*
%TO.C,H2*%
X57200000Y52500000D03*
%TD*%
D11*
%TO.C,Da2*%
X36586300Y12500000D03*
D12*
X31506300Y12500000D03*
%TD*%
D16*
%TO.C,H3*%
X9000000Y28600000D03*
%TD*%
D11*
%TO.C,Dc4*%
X-8770000Y-2400000D03*
D12*
X-13850000Y-2400000D03*
%TD*%
D11*
%TO.C,Dc2*%
X-1470000Y48600000D03*
D12*
X-6550000Y48600000D03*
%TD*%
D11*
%TO.C,Df3*%
X-81630000Y36250000D03*
D12*
X-76550000Y36250000D03*
%TD*%
D17*
%TO.C,R3*%
X42990000Y38080000D03*
D18*
X37910000Y38080000D03*
%TD*%
D11*
%TO.C,Da5*%
X48470000Y-55200000D03*
D12*
X53550000Y-55200000D03*
%TD*%
D14*
%TO.C,SWb3*%
X0Y0D03*
D15*
X2540000Y5080000D03*
X-3810000Y2540000D03*
%TD*%
D11*
%TO.C,Db3*%
X34836300Y-11750000D03*
D12*
X29756300Y-11750000D03*
%TD*%
D10*
%TO.C,C5*%
X56481200Y4843700D03*
X56481200Y9843700D03*
%TD*%
D19*
%TO.C,USB1*%
X33331200Y46968700D03*
X32531200Y48718700D03*
X31731200Y46968700D03*
X30931200Y48718700D03*
X30131200Y46968700D03*
D20*
X28081200Y52293700D03*
X35381200Y52293700D03*
%TD*%
D14*
%TO.C,SWb5*%
X31271200Y-57826300D03*
D15*
X35898802Y-54533384D03*
X29099627Y-53794926D03*
%TD*%
D16*
%TO.C,H6*%
X-66800000Y-16600000D03*
%TD*%
D11*
%TO.C,Dd5*%
X-22117500Y-28400000D03*
D12*
X-17037500Y-28400000D03*
%TD*%
D16*
%TO.C,H4*%
X-66800000Y2400000D03*
%TD*%
D10*
%TO.C,C1*%
X40731200Y10843700D03*
X43231200Y10843700D03*
%TD*%
D21*
%TO.C,PB2*%
X54000000Y-23250000D03*
X54000000Y-29750000D03*
X58500000Y-29750000D03*
X58500000Y-23250000D03*
%TD*%
D14*
%TO.C,SWc1*%
X-19050000Y45243800D03*
D15*
X-16510000Y50323800D03*
X-22860000Y47783800D03*
%TD*%
D11*
%TO.C,Dd3*%
X-53780000Y44950000D03*
D12*
X-48700000Y44950000D03*
%TD*%
D21*
%TO.C,PB1*%
X54000000Y-12750000D03*
X54000000Y-19250000D03*
X58500000Y-19250000D03*
X58500000Y-12750000D03*
%TD*%
D14*
%TO.C,SWe1*%
X-57150000Y30956300D03*
D15*
X-54610000Y36036300D03*
X-60960000Y33496300D03*
%TD*%
D11*
%TO.C,Db5*%
X33970000Y-43650000D03*
D12*
X39050000Y-43650000D03*
%TD*%
D11*
%TO.C,Df4*%
X-82817500Y27750000D03*
D12*
X-77737500Y27750000D03*
%TD*%
D11*
%TO.C,Dc1*%
X6180000Y52450000D03*
D12*
X1100000Y52450000D03*
%TD*%
D14*
%TO.C,SWf4*%
X-76200000Y-26193800D03*
D15*
X-73660000Y-21113800D03*
X-80010000Y-23653800D03*
%TD*%
D14*
%TO.C,SWd3*%
X-38100000Y0D03*
D15*
X-35560000Y5080000D03*
X-41910000Y2540000D03*
%TD*%
D22*
%TO.C,J1*%
X48700000Y48500000D03*
X48700000Y53500000D03*
D23*
X53500000Y53500000D03*
D24*
X45100000Y48500000D03*
X50300000Y45400000D03*
X44200000Y53500000D03*
%TD*%
D25*
%TO.C,C3*%
X54981200Y41343700D03*
D26*
X56481200Y41343700D03*
%TD*%
D27*
%TO.C,F1*%
X47531200Y40743700D03*
X42431200Y41943700D03*
%TD*%
D14*
%TO.C,SWc5*%
X11631200Y-49016300D03*
D15*
X15324714Y-44701679D03*
X8548855Y-45630026D03*
%TD*%
D14*
%TO.C,SWd2*%
X-38100000Y19050000D03*
D15*
X-35560000Y24130000D03*
X-41910000Y21590000D03*
%TD*%
D17*
%TO.C,R2*%
X42990000Y35950000D03*
D18*
X37910000Y35950000D03*
%TD*%
D17*
%TO.C,R4*%
X46000000Y33900000D03*
D18*
X46000000Y28820000D03*
%TD*%
D11*
%TO.C,Dc3*%
X13630000Y48600000D03*
D12*
X8550000Y48600000D03*
%TD*%
M02*
