M48
; DRILL file {KiCad (6.0.5)} date Mon Jul 25 14:12:51 2022
; FORMAT={-:-/ absolute / inch / decimal}
; #@! TF.CreationDate,2022-07-25T14:12:51-03:00
; #@! TF.GenerationSoftware,Kicad,Pcbnew,(6.0.5)
; #@! TF.FileFunction,Plated,1,2,PTH
FMAT,2
INCH
; #@! TA.AperFunction,Plated,PTH,ViaDrill
T1C0.0157
; #@! TA.AperFunction,Plated,PTH,ComponentDrill
T2C0.0236
; #@! TA.AperFunction,Plated,PTH,ComponentDrill
T3C0.0276
; #@! TA.AperFunction,Plated,PTH,ComponentDrill
T4C0.0315
; #@! TA.AperFunction,Plated,PTH,ComponentDrill
T5C0.0433
; #@! TA.AperFunction,Plated,PTH,ComponentDrill
T6C0.0590
; #@! TA.AperFunction,Plated,PTH,ComponentDrill
T7C0.0866
%
G90
G05
T1
X-0.7972Y2.0177
X2.5492Y0.4823
X3.061Y0.8563
T2
X-2.2303Y1.6004
X-2.1713Y1.6004
T3
X-2.2776Y1.9283
X-2.2776Y1.7283
X-1.9681Y1.6142
X-1.7681Y1.6142
T4
X-2.2303Y0.2264
X-2.2303Y0.0295
X-2.1161Y0.9774
X-2.1161Y0.8774
X-2.1161Y0.7774
X-2.1161Y0.6774
X-2.1161Y0.5774
X-2.1161Y0.4774
X-2.1161Y0.3774
X-2.1161Y0.2774
X-2.1161Y0.1774
X-2.1161Y0.0774
X-2.1161Y-0.0226
X-2.1161Y-0.1226
X-2.1161Y-0.2226
X-2.1161Y-0.3226
X-2.1083Y-2.1732
X-1.9083Y-2.1732
X-1.8161Y0.9774
X-1.8161Y0.8774
X-1.8161Y0.7774
X-1.8161Y0.6774
X-1.8161Y0.5774
X-1.8161Y0.4774
X-1.8161Y0.3774
X-1.8161Y0.2774
X-1.8161Y0.1774
X-1.8161Y0.0774
X-1.8161Y-0.0226
X-1.8161Y-0.1226
X-1.8161Y-0.2226
X-1.8161Y-0.3226
X-1.5374Y-1.7185
X-1.4404Y0.4921
X-1.4404Y-0.1772
X-1.4397Y-0.7677
X-1.4146Y1.0787
X-1.3814Y0.7874
X-1.3715Y0.1378
X-1.3715Y-0.4626
X-1.3708Y-1.0531
X-1.3374Y-1.7185
X-1.2404Y0.4921
X-1.2404Y-0.1772
X-1.2397Y-0.7677
X-1.2146Y1.0787
X-1.1814Y0.7874
X-1.1715Y0.1378
X-1.1715Y-0.4626
X-1.1708Y-1.0531
X-0.5366Y1.9134
X-0.3366Y1.9134
X-0.2433Y2.065
X-0.1161Y-1.2874
X-0.0433Y2.065
X0.0579Y1.9134
X0.0839Y-1.2874
X0.2579Y1.9134
X0.3453Y-0.0945
X0.5453Y-0.0945
X0.6708Y-1.1181
X0.8708Y-1.1181
X1.4075Y2.0669
X1.4127Y-0.3701
X1.6075Y2.0669
X1.6127Y-0.3701
X1.8701Y2.0669
X1.9173Y1.7697
X2.0701Y2.0669
X2.1173Y1.7697
X2.3322Y2.065
X2.4075Y1.7697
X2.5322Y2.065
X2.6075Y1.7697
X2.6575Y1.5925
X2.7047Y1.2598
X2.8575Y1.5925
X2.9047Y1.2598
X2.9646Y1.7697
X3.0138Y1.4272
X3.0605Y1.0925
X3.1646Y1.7697
X3.2138Y1.4272
X3.2605Y1.0925
T5
X-2.1043Y2.0984
X-2.0689Y1.9016
X-1.8642Y1.7795
X-1.7382Y2.0984
T6
X-2.0788Y-2.8237
X-1.9599Y-2.5821
X-1.4105Y-2.2588
X-1.2367Y-2.0531
X-0.9Y1.5063
X-0.9Y0.7563
X-0.9Y0.0062
X-0.9Y-0.7438
X-0.65Y1.6063
X-0.65Y0.8563
X-0.65Y0.1062
X-0.65Y-0.6438
X-0.6277Y-1.869
X-0.4093Y-1.7115
X-0.15Y1.6
X-0.15Y0.85
X-0.15Y0.1
X-0.15Y-0.65
X0.1Y1.7
X0.1Y0.95
X0.1Y0.2
X0.1Y-0.55
X0.225Y-1.6813
X0.475Y-1.5813
X0.6Y1.8813
X0.6Y1.1313
X0.6Y0.3813
X0.6Y-0.3688
X0.85Y1.9813
X0.85Y1.2313
X0.85Y0.4813
X0.85Y-0.2688
X1.35Y1.6
X1.35Y0.85
X1.35Y0.1
X1.35Y-0.65
X1.6Y1.7
X1.6Y0.95
X1.6Y0.2
X1.6Y-0.55
X2.1Y1.3188
X2.1Y0.5688
X2.1Y-0.1813
X2.1Y-0.9313
X2.35Y1.4188
X2.35Y0.6688
X2.35Y-0.0813
X2.35Y-0.8313
X2.85Y0.5688
X2.85Y-0.1813
X2.85Y-0.9313
X3.1Y0.6688
X3.1Y-0.0813
X3.1Y-0.8313
T7
X-2.252Y2.0669
X-2.2421Y-2.5256
X-1.6102Y-2.4921
X-0.3543Y1.126
X-0.063Y-1.811
X1.1476Y-0.376
X2.6299Y0.0945
X2.6299Y-0.6535
X3.2362Y2.0709
T0
M30
