%TF.GenerationSoftware,KiCad,Pcbnew,(6.0.5)*%
%TF.CreationDate,2022-07-25T14:14:25-03:00*%
%TF.ProjectId,bluejay_plate,626c7565-6a61-4795-9f70-6c6174652e6b,rev?*%
%TF.SameCoordinates,Original*%
%TF.FileFunction,Copper,L2,Bot*%
%TF.FilePolarity,Positive*%
%FSLAX46Y46*%
G04 Gerber Fmt 4.6, Leading zero omitted, Abs format (unit mm)*
G04 Created by KiCad (PCBNEW (6.0.5)) date 2022-07-25 14:14:25*
%MOMM*%
%LPD*%
G01*
G04 APERTURE LIST*
G04 Aperture macros list*
%AMHorizOval*
0 Thick line with rounded ends*
0 $1 width*
0 $2 $3 position (X,Y) of the first rounded end (center of the circle)*
0 $4 $5 position (X,Y) of the second rounded end (center of the circle)*
0 Add line between two ends*
20,1,$1,$2,$3,$4,$5,0*
0 Add two circle primitives to create the rounded ends*
1,1,$1,$2,$3*
1,1,$1,$4,$5*%
G04 Aperture macros list end*
%TA.AperFunction,WasherPad*%
%ADD10O,15.000000X1.500000*%
%TD*%
%TA.AperFunction,WasherPad*%
%ADD11O,1.500000X15.000000*%
%TD*%
%TA.AperFunction,WasherPad*%
%ADD12HorizOval,1.500000X-4.516632X-5.016228X4.516632X5.016228X0*%
%TD*%
%TA.AperFunction,WasherPad*%
%ADD13HorizOval,1.500000X-5.016228X4.516632X5.016228X-4.516632X0*%
%TD*%
%TA.AperFunction,ComponentPad*%
%ADD14C,4.400000*%
%TD*%
%TA.AperFunction,WasherPad*%
%ADD15HorizOval,1.500000X-5.959896X3.168933X5.959896X-3.168933X0*%
%TD*%
%TA.AperFunction,WasherPad*%
%ADD16HorizOval,1.500000X-3.168933X-5.959896X3.168933X5.959896X0*%
%TD*%
%TA.AperFunction,WasherPad*%
%ADD17HorizOval,1.500000X-1.632973X-6.549496X1.632973X6.549496X0*%
%TD*%
%TA.AperFunction,WasherPad*%
%ADD18HorizOval,1.500000X-6.549496X1.632973X6.549496X-1.632973X0*%
%TD*%
G04 APERTURE END LIST*
D10*
%TO.P,SWa3,*%
%TO.N,*%
X19050000Y4540200D03*
D11*
X12128500Y-2381300D03*
X25971500Y-2381300D03*
D10*
X19050000Y-9302800D03*
%TD*%
D12*
%TO.P,SWa5,*%
%TO.N,*%
X43057523Y-66424913D03*
D13*
X43569813Y-76199977D03*
D12*
X53344877Y-75687687D03*
D13*
X52832587Y-65912623D03*
%TD*%
D11*
%TO.P,SWf2,*%
%TO.N,*%
X-83121500Y11906300D03*
D10*
X-76200000Y18827800D03*
D11*
X-69278500Y11906300D03*
D10*
X-76200000Y4984800D03*
%TD*%
%TO.P,SWc2,*%
%TO.N,*%
X-19050000Y33115300D03*
D11*
X-25971500Y26193800D03*
X-12128500Y26193800D03*
D10*
X-19050000Y19272300D03*
%TD*%
D11*
%TO.P,SWd1,*%
%TO.N,*%
X-31178500Y38100000D03*
D10*
X-38100000Y31178500D03*
X-38100000Y45021500D03*
D11*
X-45021500Y38100000D03*
%TD*%
D10*
%TO.P,SWc3,*%
%TO.N,*%
X-19050000Y14065300D03*
D11*
X-25971500Y7143800D03*
X-12128500Y7143800D03*
D10*
X-19050000Y222300D03*
%TD*%
%TO.P,SWe3,*%
%TO.N,*%
X-57150000Y-222300D03*
D11*
X-50228500Y-7143800D03*
D10*
X-57150000Y-14065300D03*
D11*
X-64071500Y-7143800D03*
%TD*%
%TO.P,SWc4,*%
%TO.N,*%
X-12128500Y-11906300D03*
D10*
X-19050000Y-4984800D03*
X-19050000Y-18827800D03*
D11*
X-25971500Y-11906300D03*
%TD*%
D10*
%TO.P,SWe2,*%
%TO.N,*%
X-57150000Y18827800D03*
D11*
X-50228500Y11906300D03*
D10*
X-57150000Y4984800D03*
D11*
X-64071500Y11906300D03*
%TD*%
%TO.P,SWd5,*%
%TO.N,*%
X-2603500Y-45243800D03*
D10*
X-9525000Y-52165300D03*
X-9525000Y-38322300D03*
D11*
X-16446500Y-45243800D03*
%TD*%
%TO.P,SWa4,*%
%TO.N,*%
X12128500Y-21431300D03*
D10*
X19050000Y-14509800D03*
D11*
X25971500Y-21431300D03*
D10*
X19050000Y-28352800D03*
%TD*%
D11*
%TO.P,SWb1,*%
%TO.N,*%
X-6921500Y38100000D03*
D10*
X0Y45021500D03*
D11*
X6921500Y38100000D03*
D10*
X0Y31178500D03*
%TD*%
%TO.P,SWb2,*%
%TO.N,*%
X0Y25971500D03*
D11*
X6921500Y19050000D03*
D10*
X0Y12128500D03*
D11*
X-6921500Y19050000D03*
%TD*%
D10*
%TO.P,SWa2,*%
%TO.N,*%
X19050000Y9747300D03*
X19050000Y23590300D03*
D11*
X12128500Y16668800D03*
X25971500Y16668800D03*
%TD*%
D14*
%TO.P,H8,1*%
%TO.N,N/C*%
X40900000Y-63300000D03*
%TD*%
D11*
%TO.P,SWf3,*%
%TO.N,*%
X-69278500Y-7143800D03*
X-83121500Y-7143800D03*
D10*
X-76200000Y-222300D03*
X-76200000Y-14065300D03*
%TD*%
%TO.P,SWd4,*%
%TO.N,*%
X-38100000Y-25971500D03*
D11*
X-31178500Y-19050000D03*
D10*
X-38100000Y-12128500D03*
D11*
X-45021500Y-19050000D03*
%TD*%
D14*
%TO.P,H5,1*%
%TO.N,N/C*%
X-29150000Y-9550000D03*
%TD*%
D11*
%TO.P,SWb4,*%
%TO.N,*%
X6921500Y-19050000D03*
D10*
X0Y-12128500D03*
X0Y-25971500D03*
D11*
X-6921500Y-19050000D03*
%TD*%
D10*
%TO.P,SWe4,*%
%TO.N,*%
X-57150000Y-33115300D03*
D11*
X-50228500Y-26193800D03*
X-64071500Y-26193800D03*
D10*
X-57150000Y-19272300D03*
%TD*%
D11*
%TO.P,SWa1,*%
%TO.N,*%
X25971500Y35718800D03*
D10*
X19050000Y28797300D03*
D11*
X12128500Y35718800D03*
D10*
X19050000Y42640300D03*
%TD*%
D14*
%TO.P,H7,1*%
%TO.N,N/C*%
X1600000Y-46000000D03*
%TD*%
%TO.P,H3,1,1*%
%TO.N,GND*%
X9000000Y28600000D03*
%TD*%
D11*
%TO.P,SWb3,*%
%TO.N,*%
X6921500Y0D03*
D10*
X0Y6921500D03*
D11*
X-6921500Y0D03*
D10*
X0Y-6921500D03*
%TD*%
D15*
%TO.P,SWb5,*%
%TO.N,*%
X34520647Y-51714978D03*
D16*
X37382522Y-61075747D03*
D15*
X28021753Y-63937622D03*
D16*
X25159878Y-54576853D03*
%TD*%
D14*
%TO.P,H6,1*%
%TO.N,N/C*%
X-66800000Y-16600000D03*
%TD*%
%TO.P,H4,1,1*%
%TO.N,GND*%
X-66800000Y2400000D03*
%TD*%
D11*
%TO.P,SWc1,*%
%TO.N,*%
X-25971500Y45243800D03*
X-12128500Y45243800D03*
D10*
X-19050000Y52165300D03*
X-19050000Y38322300D03*
%TD*%
%TO.P,SWe1,*%
%TO.N,*%
X-57150000Y24034800D03*
D11*
X-64071500Y30956300D03*
X-50228500Y30956300D03*
D10*
X-57150000Y37877800D03*
%TD*%
D11*
%TO.P,SWf4,*%
%TO.N,*%
X-83121500Y-26193800D03*
X-69278500Y-26193800D03*
D10*
X-76200000Y-33115300D03*
X-76200000Y-19272300D03*
%TD*%
%TO.P,SWd3,*%
%TO.N,*%
X-38100000Y6921500D03*
X-38100000Y-6921500D03*
D11*
X-31178500Y0D03*
X-45021500Y0D03*
%TD*%
D17*
%TO.P,SWc5,*%
%TO.N,*%
X18347102Y-50690762D03*
X4915298Y-47341838D03*
D18*
X9956738Y-55732202D03*
X13305662Y-42300398D03*
%TD*%
D11*
%TO.P,SWd2,*%
%TO.N,*%
X-31178500Y19050000D03*
D10*
X-38100000Y25971500D03*
D11*
X-45021500Y19050000D03*
D10*
X-38100000Y12128500D03*
%TD*%
%TA.AperFunction,Conductor*%
%TO.N,GND*%
G36*
X-10756419Y54280136D02*
G01*
X-10622778Y54260311D01*
X-10613891Y54261538D01*
X-10612670Y54261532D01*
X-10583354Y54261970D01*
X-10546282Y54257976D01*
X-10500500Y54253043D01*
X-10472412Y54246707D01*
X-10453050Y54239937D01*
X-10375925Y54212968D01*
X-10350007Y54200419D01*
X-10263695Y54145649D01*
X-10241311Y54127550D01*
X-10169687Y54054612D01*
X-10151994Y54031897D01*
X-10098807Y53944610D01*
X-10086730Y53918468D01*
X-10054751Y53821385D01*
X-10048926Y53793182D01*
X-10042059Y53716359D01*
X-10041648Y53700405D01*
X-10041958Y53692169D01*
X-10043563Y53683341D01*
X-10042626Y53674419D01*
X-10042626Y53674415D01*
X-10036172Y53612972D01*
X-10028348Y53538480D01*
X-10024941Y53530172D01*
X-10019087Y53515895D01*
X-10009669Y53467349D01*
X-10037460Y48756374D01*
X-10039019Y48737345D01*
X-10042159Y48717585D01*
X-10042160Y48717575D01*
X-10042923Y48712772D01*
X-10042962Y48700219D01*
X-10042228Y48695408D01*
X-10041254Y48689017D01*
X-10040223Y48680160D01*
X-10033120Y48592115D01*
X-10023341Y48470883D01*
X-9972390Y48246505D01*
X-9890025Y48031661D01*
X-9777923Y47830726D01*
X-9638366Y47647790D01*
X-9635165Y47644647D01*
X-9635160Y47644641D01*
X-9564034Y47574797D01*
X-9474195Y47486577D01*
X-9288752Y47350368D01*
X-9284784Y47348248D01*
X-9089786Y47244061D01*
X-9089783Y47244060D01*
X-9085812Y47241938D01*
X-8869506Y47163493D01*
X-8644238Y47116629D01*
X-8639756Y47116349D01*
X-8639753Y47116349D01*
X-8591823Y47113359D01*
X-8452434Y47104663D01*
X-8440531Y47103348D01*
X-8427137Y47101220D01*
X-8420805Y47101200D01*
X-8419450Y47101196D01*
X-8419448Y47101196D01*
X-8414584Y47101181D01*
X-8409778Y47101914D01*
X-8409777Y47101914D01*
X-8389680Y47104979D01*
X-8370764Y47106419D01*
X-4070593Y47109104D01*
X8391537Y47116885D01*
X8410103Y47115521D01*
X8426991Y47113016D01*
X8426993Y47113016D01*
X8435871Y47111699D01*
X8444763Y47112927D01*
X8445969Y47112921D01*
X8475297Y47113359D01*
X8525038Y47108000D01*
X8558148Y47104433D01*
X8586237Y47098096D01*
X8682729Y47064355D01*
X8708637Y47051812D01*
X8794954Y46997040D01*
X8817340Y46978938D01*
X8888965Y46906000D01*
X8906654Y46883290D01*
X8950669Y46811056D01*
X8959844Y46795999D01*
X8971920Y46769857D01*
X9003899Y46672774D01*
X9009724Y46644571D01*
X9016589Y46567771D01*
X9017000Y46551816D01*
X9016689Y46543559D01*
X9015084Y46534730D01*
X9016021Y46525806D01*
X9016021Y46525801D01*
X9017972Y46507224D01*
X9018568Y46489230D01*
X9014088Y46372589D01*
X9012619Y46357650D01*
X9007842Y46327589D01*
X9007841Y46327581D01*
X9007077Y46322771D01*
X9007038Y46310218D01*
X9007771Y46305413D01*
X9007771Y46305410D01*
X9008753Y46298972D01*
X9009785Y46290108D01*
X9026662Y46080883D01*
X9027657Y46076502D01*
X9027657Y46076501D01*
X9076614Y45860902D01*
X9076616Y45860895D01*
X9077613Y45856505D01*
X9159978Y45641662D01*
X9162172Y45637730D01*
X9245619Y45488156D01*
X9272079Y45440727D01*
X9411636Y45257791D01*
X9414837Y45254648D01*
X9414842Y45254642D01*
X9454991Y45215217D01*
X9575806Y45096579D01*
X9761249Y44960370D01*
X9765210Y44958254D01*
X9765211Y44958253D01*
X9855911Y44909792D01*
X9964188Y44851940D01*
X10180493Y44773494D01*
X10184898Y44772578D01*
X10184900Y44772577D01*
X10293126Y44750062D01*
X10405760Y44726630D01*
X10410251Y44726350D01*
X10410257Y44726349D01*
X10597546Y44714664D01*
X10609463Y44713349D01*
X10622861Y44711220D01*
X10629155Y44711200D01*
X10630546Y44711196D01*
X10630548Y44711196D01*
X10635414Y44711181D01*
X10660595Y44715021D01*
X10679402Y44716461D01*
X27433206Y44741430D01*
X27451884Y44740066D01*
X27477425Y44736277D01*
X27486317Y44737505D01*
X27487525Y44737499D01*
X27516852Y44737937D01*
X27599699Y44729011D01*
X27627791Y44722674D01*
X27724268Y44688939D01*
X27750188Y44676390D01*
X27836492Y44621626D01*
X27858885Y44603518D01*
X27930500Y44530588D01*
X27948192Y44507877D01*
X28001381Y44420584D01*
X28013454Y44394446D01*
X28045431Y44297361D01*
X28051255Y44269158D01*
X28058133Y44192192D01*
X28058544Y44176239D01*
X28058240Y44168152D01*
X28056634Y44159323D01*
X28057571Y44150398D01*
X28057571Y44150394D01*
X28060826Y44119396D01*
X28061515Y44106282D01*
X28091475Y-43778471D01*
X28091285Y-43781434D01*
X28090488Y-43784309D01*
X28090598Y-43792167D01*
X28090598Y-43792170D01*
X28091490Y-43855779D01*
X28091502Y-43857502D01*
X28091510Y-43882195D01*
X28091511Y-43882202D01*
X28091512Y-43886686D01*
X28091885Y-43889284D01*
X28091996Y-43891884D01*
X28092530Y-43929952D01*
X28094636Y-43942327D01*
X28096813Y-43948832D01*
X28100242Y-43961117D01*
X28104542Y-43980208D01*
X28105200Y-43983781D01*
X28105693Y-43985466D01*
X28106963Y-43994311D01*
X28106968Y-43994348D01*
X28106963Y-43994349D01*
X28106960Y-43997993D01*
X28108470Y-43997653D01*
X28178461Y-44308460D01*
X28290548Y-44666891D01*
X28312536Y-44721204D01*
X28409305Y-44960235D01*
X28431474Y-45014996D01*
X28600301Y-45350458D01*
X28601637Y-45352648D01*
X28601645Y-45352662D01*
X28780516Y-45645824D01*
X28795904Y-45671045D01*
X29016984Y-45974624D01*
X29262069Y-46259176D01*
X29529530Y-46522809D01*
X29531504Y-46524460D01*
X29815606Y-46762112D01*
X29815612Y-46762117D01*
X29817585Y-46763767D01*
X30124320Y-46980448D01*
X30418163Y-47153972D01*
X30431273Y-47162872D01*
X30436045Y-47166570D01*
X30447032Y-47172641D01*
X30458367Y-47176784D01*
X30480038Y-47187142D01*
X30490384Y-47193362D01*
X30499067Y-47195642D01*
X30499066Y-47195642D01*
X30517864Y-47200579D01*
X30534722Y-47206307D01*
X32010065Y-47827033D01*
X32012699Y-47828177D01*
X33508358Y-48497972D01*
X33510966Y-48499175D01*
X34991056Y-49202925D01*
X34993635Y-49204188D01*
X36457232Y-49941454D01*
X36459782Y-49942775D01*
X37906230Y-50713226D01*
X37908749Y-50714605D01*
X39337247Y-51517815D01*
X39339734Y-51519251D01*
X40517980Y-52217562D01*
X40749540Y-52354801D01*
X40751983Y-52356286D01*
X41465402Y-52801387D01*
X42142428Y-53223782D01*
X42144847Y-53225330D01*
X42442776Y-53420779D01*
X43383139Y-54037681D01*
X43515138Y-54124276D01*
X43517465Y-54125841D01*
X44866957Y-55055817D01*
X44869273Y-55057453D01*
X45446939Y-55475273D01*
X46148476Y-55982688D01*
X46197185Y-56017919D01*
X46199485Y-56019623D01*
X47116775Y-56715477D01*
X47505126Y-57010079D01*
X47507393Y-57011839D01*
X48790168Y-58031834D01*
X48792342Y-58033603D01*
X49728080Y-58813115D01*
X50051573Y-59082599D01*
X50053758Y-59084463D01*
X51282828Y-60156717D01*
X51288630Y-60161779D01*
X51290761Y-60163680D01*
X52036098Y-60844452D01*
X52500860Y-61268954D01*
X52502958Y-61270915D01*
X53687525Y-62403456D01*
X53689516Y-62405404D01*
X54135543Y-62851738D01*
X54847984Y-63564671D01*
X54849991Y-63566726D01*
X55981687Y-64752042D01*
X55983646Y-64754141D01*
X56274504Y-65073025D01*
X57079703Y-65955811D01*
X57088053Y-65964966D01*
X57089952Y-65967097D01*
X57805529Y-66788467D01*
X58166470Y-67202771D01*
X58168332Y-67204958D01*
X59216397Y-68464837D01*
X59218209Y-68467066D01*
X60197029Y-69699802D01*
X60203333Y-69709887D01*
X60203809Y-69709569D01*
X60208789Y-69717033D01*
X60212663Y-69725132D01*
X60218653Y-69731817D01*
X60222130Y-69737028D01*
X60225900Y-69742013D01*
X60230244Y-69749867D01*
X60236619Y-69756187D01*
X60268649Y-69787942D01*
X60273777Y-69793336D01*
X60303872Y-69826921D01*
X60309867Y-69833611D01*
X60317495Y-69838348D01*
X60322293Y-69842372D01*
X60327309Y-69846098D01*
X60333683Y-69852417D01*
X60338022Y-69854768D01*
X60346236Y-69861868D01*
X60394308Y-69910066D01*
X60410348Y-69929777D01*
X60462722Y-70009359D01*
X60474481Y-70031888D01*
X60509823Y-70120367D01*
X60516820Y-70144794D01*
X60521829Y-70172635D01*
X60533689Y-70238557D01*
X60535644Y-70263895D01*
X60533486Y-70353679D01*
X60511852Y-70421299D01*
X60503199Y-70432639D01*
X49419577Y-83366829D01*
X49409307Y-83377478D01*
X49396721Y-83389082D01*
X49382949Y-83401779D01*
X49378321Y-83409473D01*
X49377543Y-83410428D01*
X49359493Y-83433504D01*
X49325218Y-83467735D01*
X49295157Y-83497758D01*
X49272590Y-83515644D01*
X49179308Y-83573569D01*
X49153266Y-83585866D01*
X49049267Y-83621097D01*
X49021117Y-83627159D01*
X48911842Y-83637857D01*
X48883048Y-83637370D01*
X48793747Y-83625562D01*
X48774187Y-83622976D01*
X48746261Y-83615964D01*
X48643513Y-83577228D01*
X48617907Y-83564058D01*
X48526636Y-83503004D01*
X48504692Y-83484365D01*
X48446917Y-83422617D01*
X48436773Y-83410297D01*
X48431859Y-83403492D01*
X48427688Y-83395542D01*
X48409333Y-83376525D01*
X48397575Y-83362413D01*
X48382177Y-83340921D01*
X48377763Y-83336425D01*
X48376791Y-83335434D01*
X48376787Y-83335431D01*
X48373383Y-83331963D01*
X48370579Y-83329875D01*
X48368261Y-83327737D01*
X46973005Y-81966993D01*
X46968822Y-81962913D01*
X46968819Y-81962910D01*
X46968380Y-81962482D01*
X46302823Y-81337759D01*
X45538265Y-80620108D01*
X45538223Y-80620070D01*
X45537838Y-80619708D01*
X44081893Y-79304522D01*
X42601076Y-78017404D01*
X42600679Y-78017072D01*
X42600652Y-78017049D01*
X41096412Y-76759228D01*
X41095929Y-76758824D01*
X39567002Y-75529242D01*
X38014852Y-74329108D01*
X36440048Y-73158859D01*
X34843164Y-72018924D01*
X34842699Y-72018605D01*
X34842670Y-72018585D01*
X33547977Y-71131229D01*
X33224783Y-70909718D01*
X33224351Y-70909434D01*
X33224311Y-70909407D01*
X31585938Y-69831937D01*
X31585911Y-69831920D01*
X31585498Y-69831648D01*
X31524744Y-69793336D01*
X29926398Y-68785415D01*
X29925908Y-68785106D01*
X29236552Y-68368596D01*
X28247174Y-67770812D01*
X28247135Y-67770789D01*
X28246617Y-67770476D01*
X26548240Y-66788128D01*
X24831398Y-65838421D01*
X23096718Y-64921702D01*
X23096241Y-64921461D01*
X23096213Y-64921447D01*
X21345363Y-64038572D01*
X21345342Y-64038562D01*
X21344833Y-64038305D01*
X21105411Y-63923261D01*
X20512198Y-63638219D01*
X19576383Y-63188554D01*
X17792015Y-62372759D01*
X17140550Y-62089843D01*
X15992972Y-61591475D01*
X15992964Y-61591472D01*
X15992380Y-61591218D01*
X15170761Y-61252922D01*
X14178711Y-60844452D01*
X14178680Y-60844440D01*
X14178137Y-60844216D01*
X14177588Y-60844002D01*
X13536010Y-60594069D01*
X20728659Y-60594069D01*
X20729410Y-60599622D01*
X20729410Y-60599626D01*
X20738695Y-60668300D01*
X20758759Y-60816695D01*
X20760484Y-60822035D01*
X20827807Y-61030472D01*
X20827217Y-61030662D01*
X20832841Y-61049965D01*
X20839072Y-61087201D01*
X20914801Y-61298703D01*
X20917596Y-61303563D01*
X21023260Y-61487317D01*
X21026788Y-61493453D01*
X21030402Y-61497745D01*
X21030405Y-61497749D01*
X21167872Y-61660997D01*
X21171490Y-61665293D01*
X21175807Y-61668877D01*
X21175810Y-61668880D01*
X21324346Y-61792197D01*
X21344337Y-61808794D01*
X21393129Y-61838459D01*
X21394740Y-61839315D01*
X21394753Y-61839323D01*
X33328465Y-68184590D01*
X33441147Y-68244504D01*
X33595377Y-68309654D01*
X33814532Y-68359042D01*
X33820140Y-68359287D01*
X33820141Y-68359287D01*
X33868839Y-68361413D01*
X34038970Y-68368841D01*
X34044523Y-68368090D01*
X34044527Y-68368090D01*
X34256033Y-68339493D01*
X34261595Y-68338741D01*
X34475373Y-68269693D01*
X34475564Y-68270285D01*
X34494866Y-68264659D01*
X34500780Y-68263669D01*
X34532101Y-68258428D01*
X34537383Y-68256537D01*
X34537386Y-68256536D01*
X34738322Y-68184590D01*
X34738323Y-68184589D01*
X34743603Y-68182699D01*
X34827190Y-68134634D01*
X34933488Y-68073510D01*
X34933492Y-68073507D01*
X34938353Y-68070712D01*
X34942645Y-68067098D01*
X34942649Y-68067095D01*
X35105897Y-67929628D01*
X35105900Y-67929625D01*
X35110193Y-67926010D01*
X35239042Y-67770812D01*
X35250746Y-67756714D01*
X35250747Y-67756713D01*
X35253694Y-67753163D01*
X35283359Y-67704371D01*
X35284215Y-67702760D01*
X35284223Y-67702747D01*
X38047701Y-62505401D01*
X38097342Y-62454644D01*
X38166544Y-62438783D01*
X38233336Y-62462853D01*
X38276511Y-62519213D01*
X38282362Y-62589968D01*
X38278887Y-62603176D01*
X38271797Y-62625192D01*
X38271079Y-62628903D01*
X38271078Y-62628907D01*
X38210482Y-62942105D01*
X38210481Y-62942114D01*
X38209763Y-62945824D01*
X38209496Y-62949600D01*
X38209495Y-62949605D01*
X38195149Y-63152220D01*
X38186698Y-63271585D01*
X38202936Y-63597759D01*
X38203577Y-63601490D01*
X38203578Y-63601498D01*
X38221703Y-63706975D01*
X38258241Y-63919619D01*
X38259329Y-63923258D01*
X38259330Y-63923261D01*
X38295835Y-64045323D01*
X38351814Y-64232504D01*
X38482297Y-64531881D01*
X38647802Y-64813414D01*
X38650103Y-64816429D01*
X38843631Y-65070012D01*
X38843636Y-65070017D01*
X38845931Y-65073025D01*
X39073814Y-65306953D01*
X39204186Y-65411962D01*
X39325196Y-65509431D01*
X39325201Y-65509435D01*
X39328149Y-65511809D01*
X39605253Y-65684627D01*
X39901112Y-65822903D01*
X40211440Y-65924634D01*
X40531742Y-65988346D01*
X40535514Y-65988633D01*
X40535522Y-65988634D01*
X40853602Y-66012829D01*
X40853607Y-66012829D01*
X40857379Y-66013116D01*
X41183633Y-65998586D01*
X41379285Y-65966021D01*
X41491972Y-65947265D01*
X41562452Y-65955811D01*
X41617123Y-66001105D01*
X41638628Y-66068767D01*
X41620138Y-66137313D01*
X41606295Y-66155865D01*
X39614399Y-68368090D01*
X37567503Y-70641399D01*
X37466977Y-70775286D01*
X37464456Y-70780298D01*
X37464455Y-70780300D01*
X37375006Y-70958152D01*
X37366038Y-70975984D01*
X37302233Y-71191384D01*
X37277581Y-71414679D01*
X37292861Y-71638810D01*
X37292242Y-71638852D01*
X37293029Y-71658933D01*
X37290067Y-71696577D01*
X37312379Y-71920117D01*
X37373925Y-72136174D01*
X37472758Y-72337917D01*
X37605754Y-72518970D01*
X37608997Y-72522247D01*
X37609002Y-72522253D01*
X37644647Y-72558273D01*
X37645920Y-72559559D01*
X47786299Y-81689996D01*
X47920186Y-81790522D01*
X48120884Y-81891462D01*
X48126268Y-81893057D01*
X48126271Y-81893058D01*
X48204945Y-81916362D01*
X48336284Y-81955266D01*
X48341862Y-81955882D01*
X48341863Y-81955882D01*
X48554005Y-81979304D01*
X48554009Y-81979304D01*
X48559579Y-81979919D01*
X48783710Y-81964639D01*
X48783752Y-81965258D01*
X48803833Y-81964471D01*
X48835885Y-81966993D01*
X48835886Y-81966993D01*
X48841477Y-81967433D01*
X48847057Y-81966876D01*
X48847059Y-81966876D01*
X49059430Y-81945679D01*
X49059434Y-81945678D01*
X49065017Y-81945121D01*
X49281074Y-81883575D01*
X49286118Y-81881104D01*
X49286123Y-81881102D01*
X49465868Y-81793045D01*
X49482817Y-81784742D01*
X49609504Y-81691682D01*
X49660144Y-81654483D01*
X49663870Y-81651746D01*
X49667147Y-81648503D01*
X49667153Y-81648498D01*
X49703173Y-81612853D01*
X49703180Y-81612846D01*
X49704459Y-81611580D01*
X49920823Y-81371284D01*
X58050424Y-72342445D01*
X58834896Y-71471201D01*
X58935422Y-71337314D01*
X59036362Y-71136616D01*
X59100166Y-70921216D01*
X59101400Y-70910041D01*
X59124204Y-70703495D01*
X59124204Y-70703491D01*
X59124819Y-70697921D01*
X59109539Y-70473790D01*
X59110158Y-70473748D01*
X59109371Y-70453667D01*
X59111893Y-70421615D01*
X59111893Y-70421614D01*
X59112333Y-70416023D01*
X59090021Y-70192482D01*
X59028474Y-69976426D01*
X58929642Y-69774683D01*
X58882045Y-69709887D01*
X58799379Y-69597352D01*
X58796645Y-69593630D01*
X58756480Y-69553041D01*
X58755141Y-69551835D01*
X58755127Y-69551822D01*
X49059715Y-60822035D01*
X48616101Y-60422603D01*
X48482214Y-60322077D01*
X48477202Y-60319556D01*
X48477200Y-60319555D01*
X48286535Y-60223662D01*
X48286533Y-60223661D01*
X48281516Y-60221138D01*
X48066116Y-60157333D01*
X48060538Y-60156717D01*
X48060537Y-60156717D01*
X47848396Y-60133296D01*
X47848391Y-60133296D01*
X47842821Y-60132681D01*
X47618690Y-60147961D01*
X47618648Y-60147342D01*
X47598567Y-60148129D01*
X47566515Y-60145607D01*
X47566514Y-60145607D01*
X47560923Y-60145167D01*
X47555343Y-60145724D01*
X47555341Y-60145724D01*
X47491797Y-60152067D01*
X47337382Y-60167479D01*
X47121326Y-60229026D01*
X46919583Y-60327858D01*
X46738530Y-60460855D01*
X46735245Y-60464106D01*
X46699233Y-60499741D01*
X46699225Y-60499750D01*
X46697941Y-60501020D01*
X46696735Y-60502359D01*
X46696722Y-60502373D01*
X44203313Y-63271585D01*
X43909625Y-63597759D01*
X43811286Y-63706975D01*
X43750840Y-63744215D01*
X43679856Y-63742863D01*
X43620872Y-63703350D01*
X43592614Y-63638219D01*
X43592065Y-63612451D01*
X43612674Y-63359063D01*
X43612856Y-63356826D01*
X43613451Y-63300000D01*
X43611510Y-63267796D01*
X43594026Y-62977793D01*
X43594026Y-62977789D01*
X43593798Y-62974015D01*
X43588650Y-62945824D01*
X43535805Y-62656473D01*
X43535804Y-62656469D01*
X43535125Y-62652751D01*
X43527722Y-62628907D01*
X43439404Y-62344477D01*
X43438282Y-62340863D01*
X43304670Y-62042869D01*
X43136226Y-61763084D01*
X43133899Y-61760100D01*
X43133894Y-61760093D01*
X42937726Y-61508558D01*
X42937724Y-61508556D01*
X42935390Y-61505563D01*
X42705070Y-61274034D01*
X42448603Y-61071852D01*
X42169705Y-60901945D01*
X42166261Y-60900379D01*
X42166257Y-60900377D01*
X41969974Y-60811133D01*
X41872414Y-60766775D01*
X41561037Y-60668300D01*
X41343492Y-60627390D01*
X41243809Y-60608645D01*
X41243807Y-60608645D01*
X41240086Y-60607945D01*
X40946757Y-60588719D01*
X40917992Y-60586834D01*
X40914208Y-60586586D01*
X40910428Y-60586794D01*
X40910427Y-60586794D01*
X40812897Y-60592162D01*
X40588124Y-60604532D01*
X40584397Y-60605193D01*
X40584393Y-60605193D01*
X40427341Y-60633027D01*
X40266557Y-60661522D01*
X40262941Y-60662624D01*
X40262933Y-60662626D01*
X39957789Y-60755627D01*
X39954167Y-60756731D01*
X39655477Y-60888781D01*
X39630041Y-60903914D01*
X39378074Y-61053817D01*
X39378068Y-61053821D01*
X39374814Y-61055757D01*
X39371812Y-61058073D01*
X39333640Y-61087523D01*
X39116244Y-61255243D01*
X38883513Y-61484347D01*
X38881149Y-61487314D01*
X38881146Y-61487317D01*
X38853719Y-61521736D01*
X38795623Y-61562546D01*
X38724687Y-61565468D01*
X38663431Y-61529575D01*
X38631305Y-61466263D01*
X38638508Y-61395633D01*
X38643928Y-61384060D01*
X38821570Y-61049965D01*
X39698589Y-59400531D01*
X41688085Y-55658834D01*
X41688086Y-55658831D01*
X41689404Y-55656353D01*
X41754554Y-55502123D01*
X41803942Y-55282968D01*
X41813741Y-55058530D01*
X41802537Y-54975658D01*
X41784393Y-54841467D01*
X41783641Y-54835905D01*
X41714593Y-54622127D01*
X41715185Y-54621936D01*
X41709560Y-54602636D01*
X41704255Y-54570932D01*
X41704254Y-54570929D01*
X41703329Y-54565400D01*
X41627600Y-54353897D01*
X41515613Y-54159148D01*
X41511999Y-54154856D01*
X41511996Y-54154852D01*
X41374528Y-53991603D01*
X41374525Y-53991600D01*
X41370910Y-53987307D01*
X41198063Y-53843807D01*
X41194116Y-53841407D01*
X41150823Y-53815084D01*
X41150807Y-53815075D01*
X41149271Y-53814141D01*
X41147671Y-53813290D01*
X41147660Y-53813284D01*
X29103735Y-47409415D01*
X29103732Y-47409414D01*
X29101254Y-47408096D01*
X28947024Y-47342946D01*
X28727868Y-47293558D01*
X28722260Y-47293313D01*
X28722259Y-47293313D01*
X28673824Y-47291198D01*
X28503431Y-47283759D01*
X28497878Y-47284510D01*
X28497874Y-47284510D01*
X28290449Y-47312555D01*
X28280805Y-47313859D01*
X28067028Y-47382907D01*
X28066836Y-47382312D01*
X28047541Y-47387939D01*
X28041015Y-47389031D01*
X28015842Y-47393243D01*
X28015836Y-47393245D01*
X28010300Y-47394171D01*
X27798797Y-47469900D01*
X27728811Y-47510144D01*
X27608913Y-47579089D01*
X27608909Y-47579092D01*
X27604048Y-47581887D01*
X27599756Y-47585501D01*
X27599752Y-47585504D01*
X27436503Y-47722972D01*
X27436500Y-47722975D01*
X27432207Y-47726590D01*
X27288707Y-47899437D01*
X27286308Y-47903382D01*
X27286307Y-47903384D01*
X27259984Y-47946677D01*
X27259975Y-47946693D01*
X27259041Y-47948229D01*
X27258190Y-47949829D01*
X27258184Y-47949840D01*
X20907568Y-59893611D01*
X20852996Y-59996246D01*
X20787846Y-60150476D01*
X20738458Y-60369632D01*
X20728659Y-60594069D01*
X13536010Y-60594069D01*
X12350479Y-60132234D01*
X12350458Y-60132226D01*
X12349947Y-60132027D01*
X11188835Y-59705081D01*
X10509032Y-59455114D01*
X10509000Y-59455103D01*
X10508479Y-59454911D01*
X10507960Y-59454731D01*
X10507903Y-59454711D01*
X8654955Y-58813305D01*
X8654919Y-58813293D01*
X8654405Y-58813115D01*
X8653884Y-58812946D01*
X8653855Y-58812936D01*
X6789026Y-58207075D01*
X6789019Y-58207073D01*
X6788404Y-58206873D01*
X5070536Y-57684841D01*
X4911762Y-57636592D01*
X4911747Y-57636587D01*
X4911156Y-57636408D01*
X4910616Y-57636255D01*
X4910585Y-57636246D01*
X3023878Y-57102076D01*
X3023847Y-57102067D01*
X3023347Y-57101926D01*
X1125668Y-56603625D01*
X-525554Y-56203613D01*
X-780594Y-56141829D01*
X-780608Y-56141826D01*
X-781189Y-56141685D01*
X-781752Y-56141560D01*
X-781769Y-56141556D01*
X-1954486Y-55881088D01*
X-2696526Y-55716276D01*
X-2697157Y-55716148D01*
X-2697178Y-55716144D01*
X-3901217Y-55472770D01*
X-4619645Y-55327553D01*
X-6064543Y-55064133D01*
X-6549221Y-54975771D01*
X-6549242Y-54975767D01*
X-6549842Y-54975658D01*
X-6550476Y-54975555D01*
X-6550487Y-54975553D01*
X-8485797Y-54660819D01*
X-8485799Y-54660819D01*
X-8486412Y-54660719D01*
X-10428649Y-54382853D01*
X-11484600Y-54252326D01*
X-12375216Y-54142236D01*
X-12375242Y-54142233D01*
X-12375841Y-54142159D01*
X-13895662Y-53983721D01*
X-14326673Y-53938789D01*
X-14326680Y-53938788D01*
X-14327278Y-53938726D01*
X-16282246Y-53772629D01*
X-16282799Y-53772593D01*
X-16282834Y-53772590D01*
X-17636636Y-53683594D01*
X-17970124Y-53661671D01*
X-18036786Y-53637243D01*
X-18058202Y-53617145D01*
X-18233708Y-53408917D01*
X-19378407Y-52050799D01*
X-17705000Y-52050799D01*
X-17704751Y-52053586D01*
X-17704751Y-52053592D01*
X-17698491Y-52123729D01*
X-17690117Y-52217562D01*
X-17630837Y-52434251D01*
X-17534122Y-52637018D01*
X-17403029Y-52819454D01*
X-17291707Y-52927333D01*
X-17241701Y-52975792D01*
X-17242135Y-52976239D01*
X-17228109Y-52990636D01*
X-17205123Y-53020592D01*
X-17038964Y-53171785D01*
X-17034217Y-53174763D01*
X-17034214Y-53174765D01*
X-16870931Y-53277191D01*
X-16848656Y-53291164D01*
X-16640217Y-53374956D01*
X-16420233Y-53420513D01*
X-16415622Y-53420779D01*
X-16415621Y-53420779D01*
X-16365048Y-53423695D01*
X-16365044Y-53423695D01*
X-16363225Y-53423800D01*
X-2718001Y-53423800D01*
X-2715214Y-53423551D01*
X-2715208Y-53423551D01*
X-2645071Y-53417291D01*
X-2551238Y-53408917D01*
X-2545824Y-53407436D01*
X-2545819Y-53407435D01*
X-2418088Y-53372491D01*
X-2334549Y-53349637D01*
X-2329491Y-53347225D01*
X-2329487Y-53347223D01*
X-2211958Y-53291164D01*
X-2131782Y-53252922D01*
X-1949346Y-53121829D01*
X-1793008Y-52960501D01*
X-1792561Y-52960935D01*
X-1778164Y-52946909D01*
X-1748208Y-52923923D01*
X-1597015Y-52757764D01*
X-1477636Y-52567456D01*
X-1393844Y-52359017D01*
X-1348287Y-52139033D01*
X-1345000Y-52082025D01*
X-1345000Y-46332156D01*
X-1324998Y-46264035D01*
X-1271342Y-46217542D01*
X-1201068Y-46207438D01*
X-1136488Y-46236932D01*
X-1098104Y-46296658D01*
X-1094820Y-46310817D01*
X-1041759Y-46619619D01*
X-1040671Y-46623258D01*
X-1040670Y-46623261D01*
X-998649Y-46763767D01*
X-948186Y-46932504D01*
X-946673Y-46935975D01*
X-946671Y-46935981D01*
X-857132Y-47141416D01*
X-817703Y-47231881D01*
X-815780Y-47235152D01*
X-815778Y-47235156D01*
X-753137Y-47341711D01*
X-652198Y-47513414D01*
X-649897Y-47516429D01*
X-456369Y-47770012D01*
X-456364Y-47770017D01*
X-454069Y-47773025D01*
X-451425Y-47775739D01*
X-283392Y-47948229D01*
X-226186Y-48006953D01*
X-95814Y-48111962D01*
X25196Y-48209431D01*
X25201Y-48209435D01*
X28149Y-48211809D01*
X305253Y-48384627D01*
X601112Y-48522903D01*
X911440Y-48624634D01*
X1231742Y-48688346D01*
X1235514Y-48688633D01*
X1235522Y-48688634D01*
X1553602Y-48712829D01*
X1553607Y-48712829D01*
X1557379Y-48713116D01*
X1883633Y-48698586D01*
X1943425Y-48688634D01*
X2202037Y-48645590D01*
X2202042Y-48645589D01*
X2205778Y-48644967D01*
X2519149Y-48553034D01*
X2522616Y-48551544D01*
X2522620Y-48551543D01*
X2815721Y-48425616D01*
X2815723Y-48425615D01*
X2819205Y-48424119D01*
X3101601Y-48260091D01*
X3171666Y-48207197D01*
X3238085Y-48182117D01*
X3307520Y-48196928D01*
X3357925Y-48246926D01*
X3373297Y-48316239D01*
X3369840Y-48338241D01*
X3153935Y-49204188D01*
X2047419Y-53642181D01*
X2021516Y-53807591D01*
X2021643Y-53813196D01*
X2021643Y-53813199D01*
X2021686Y-53815084D01*
X2026613Y-54032185D01*
X2027731Y-54037679D01*
X2027731Y-54037681D01*
X2053434Y-54164013D01*
X2071401Y-54252326D01*
X2154465Y-54461057D01*
X2221773Y-54569192D01*
X2273179Y-54651780D01*
X2272652Y-54652108D01*
X2282780Y-54669478D01*
X2295595Y-54698950D01*
X2295598Y-54698955D01*
X2297834Y-54704098D01*
X2422480Y-54890997D01*
X2578255Y-55052870D01*
X2760231Y-55184599D01*
X2765283Y-55187030D01*
X2765289Y-55187034D01*
X2928759Y-55265707D01*
X2962659Y-55282022D01*
X2967068Y-55283395D01*
X2967075Y-55283398D01*
X3000801Y-55293902D01*
X3017179Y-55299003D01*
X3018957Y-55299446D01*
X3018963Y-55299448D01*
X16254353Y-58599402D01*
X16254357Y-58599403D01*
X16257081Y-58600082D01*
X16259846Y-58600515D01*
X16259856Y-58600517D01*
X16416946Y-58625116D01*
X16416949Y-58625116D01*
X16422491Y-58625984D01*
X16428096Y-58625857D01*
X16428099Y-58625857D01*
X16539477Y-58623329D01*
X16647085Y-58620887D01*
X16652579Y-58619769D01*
X16652581Y-58619769D01*
X16861737Y-58577216D01*
X16861740Y-58577215D01*
X16867226Y-58576099D01*
X16872428Y-58574029D01*
X16872431Y-58574028D01*
X16973219Y-58533919D01*
X17075957Y-58493035D01*
X17266680Y-58374321D01*
X17267008Y-58374848D01*
X17284378Y-58364720D01*
X17313850Y-58351905D01*
X17313855Y-58351902D01*
X17318998Y-58349666D01*
X17505897Y-58225020D01*
X17596760Y-58137580D01*
X17663725Y-58073138D01*
X17663727Y-58073136D01*
X17667770Y-58069245D01*
X17799499Y-57887269D01*
X17801930Y-57882217D01*
X17801934Y-57882211D01*
X17894914Y-57689013D01*
X17896922Y-57684841D01*
X17898295Y-57680432D01*
X17898298Y-57680425D01*
X17912007Y-57636408D01*
X17913903Y-57630321D01*
X18011047Y-57240700D01*
X21214302Y-44393147D01*
X21214303Y-44393143D01*
X21214982Y-44390419D01*
X21227817Y-44308460D01*
X21240016Y-44230554D01*
X21240016Y-44230551D01*
X21240884Y-44225009D01*
X21235787Y-44000415D01*
X21233630Y-43989813D01*
X21192116Y-43785763D01*
X21192115Y-43785760D01*
X21190999Y-43780274D01*
X21187648Y-43771852D01*
X21114795Y-43588781D01*
X21107935Y-43571543D01*
X20989221Y-43380820D01*
X20989748Y-43380492D01*
X20979620Y-43363122D01*
X20966805Y-43333650D01*
X20966802Y-43333645D01*
X20964566Y-43328502D01*
X20839920Y-43141603D01*
X20684145Y-42979730D01*
X20502169Y-42848001D01*
X20497117Y-42845570D01*
X20497111Y-42845566D01*
X20303913Y-42752586D01*
X20299741Y-42750578D01*
X20295332Y-42749205D01*
X20295325Y-42749202D01*
X20261599Y-42738698D01*
X20245221Y-42733597D01*
X20243443Y-42733154D01*
X20243437Y-42733152D01*
X15207899Y-41477652D01*
X7005319Y-39432519D01*
X6839909Y-39406616D01*
X6834304Y-39406743D01*
X6834301Y-39406743D01*
X6722923Y-39409271D01*
X6615315Y-39411713D01*
X6609821Y-39412831D01*
X6609819Y-39412831D01*
X6400663Y-39455384D01*
X6400660Y-39455385D01*
X6395174Y-39456501D01*
X6389972Y-39458571D01*
X6389969Y-39458572D01*
X6289181Y-39498681D01*
X6186443Y-39539565D01*
X5995720Y-39658279D01*
X5995392Y-39657752D01*
X5978022Y-39667880D01*
X5948550Y-39680695D01*
X5948545Y-39680698D01*
X5943402Y-39682934D01*
X5756503Y-39807580D01*
X5594630Y-39963355D01*
X5462901Y-40145331D01*
X5460470Y-40150383D01*
X5460466Y-40150389D01*
X5381793Y-40313859D01*
X5365478Y-40347759D01*
X5364105Y-40352168D01*
X5364102Y-40352175D01*
X5353598Y-40385901D01*
X5348497Y-40402279D01*
X5348054Y-40404057D01*
X5348052Y-40404063D01*
X4512381Y-43755757D01*
X4261198Y-44763198D01*
X4260934Y-44764255D01*
X4225046Y-44825513D01*
X4161737Y-44857645D01*
X4091106Y-44850448D01*
X4035579Y-44806207D01*
X4023705Y-44785323D01*
X4006225Y-44746338D01*
X4004670Y-44742869D01*
X3836226Y-44463084D01*
X3833899Y-44460100D01*
X3833894Y-44460093D01*
X3637726Y-44208558D01*
X3637724Y-44208556D01*
X3635390Y-44205563D01*
X3405070Y-43974034D01*
X3148603Y-43771852D01*
X2869705Y-43601945D01*
X2866261Y-43600379D01*
X2866257Y-43600377D01*
X2755667Y-43550095D01*
X2572414Y-43466775D01*
X2261037Y-43368300D01*
X2024579Y-43323834D01*
X1943809Y-43308645D01*
X1943807Y-43308645D01*
X1940086Y-43307945D01*
X1614208Y-43286586D01*
X1610428Y-43286794D01*
X1610427Y-43286794D01*
X1512897Y-43292162D01*
X1288124Y-43304532D01*
X1284397Y-43305193D01*
X1284393Y-43305193D01*
X1179212Y-43323834D01*
X966557Y-43361522D01*
X962941Y-43362624D01*
X962933Y-43362626D01*
X657789Y-43455627D01*
X654167Y-43456731D01*
X355477Y-43588781D01*
X330041Y-43603914D01*
X78074Y-43753817D01*
X78068Y-43753821D01*
X74814Y-43755757D01*
X71812Y-43758073D01*
X-175433Y-43948822D01*
X-183756Y-43955243D01*
X-186466Y-43957911D01*
X-331049Y-44100241D01*
X-416487Y-44184347D01*
X-418851Y-44187314D01*
X-418854Y-44187317D01*
X-448889Y-44225009D01*
X-620009Y-44439751D01*
X-791374Y-44717757D01*
X-928098Y-45014336D01*
X-929259Y-45017940D01*
X-929259Y-45017941D01*
X-946579Y-45071724D01*
X-1028203Y-45325192D01*
X-1028921Y-45328903D01*
X-1028922Y-45328907D01*
X-1089518Y-45642105D01*
X-1089519Y-45642114D01*
X-1090237Y-45645824D01*
X-1090504Y-45649600D01*
X-1090505Y-45649605D01*
X-1093315Y-45689296D01*
X-1118078Y-45755834D01*
X-1174883Y-45798421D01*
X-1245695Y-45803537D01*
X-1308032Y-45769556D01*
X-1342101Y-45707268D01*
X-1345000Y-45680397D01*
X-1345000Y-38436801D01*
X-1347949Y-38403752D01*
X-1359384Y-38275633D01*
X-1359883Y-38270038D01*
X-1419163Y-38053349D01*
X-1515878Y-37850582D01*
X-1646971Y-37668146D01*
X-1808299Y-37511808D01*
X-1807865Y-37511361D01*
X-1821891Y-37496964D01*
X-1844877Y-37467008D01*
X-2011036Y-37315815D01*
X-2015783Y-37312837D01*
X-2015786Y-37312835D01*
X-2196595Y-37199415D01*
X-2201344Y-37196436D01*
X-2409783Y-37112644D01*
X-2629767Y-37067087D01*
X-2634378Y-37066821D01*
X-2634379Y-37066821D01*
X-2684952Y-37063905D01*
X-2684956Y-37063905D01*
X-2686775Y-37063800D01*
X-16331999Y-37063800D01*
X-16334786Y-37064049D01*
X-16334792Y-37064049D01*
X-16404929Y-37070309D01*
X-16498762Y-37078683D01*
X-16504176Y-37080164D01*
X-16504181Y-37080165D01*
X-16565860Y-37097039D01*
X-16715451Y-37137963D01*
X-16720509Y-37140375D01*
X-16720513Y-37140377D01*
X-16750604Y-37154730D01*
X-16918218Y-37234678D01*
X-17100654Y-37365771D01*
X-17256992Y-37527099D01*
X-17257439Y-37526665D01*
X-17271836Y-37540691D01*
X-17301792Y-37563677D01*
X-17452985Y-37729836D01*
X-17572364Y-37920144D01*
X-17656156Y-38128583D01*
X-17701713Y-38348567D01*
X-17705000Y-38405575D01*
X-17705000Y-52050799D01*
X-19378407Y-52050799D01*
X-32601673Y-36362178D01*
X-32611882Y-36348225D01*
X-32622828Y-36330882D01*
X-32622829Y-36330880D01*
X-32627620Y-36323290D01*
X-32680909Y-36276239D01*
X-32681309Y-36275885D01*
X-32734702Y-36228274D01*
X-32735856Y-36227725D01*
X-32736808Y-36226885D01*
X-32801151Y-36196686D01*
X-32801710Y-36196422D01*
X-32858430Y-36169460D01*
X-32858434Y-36169459D01*
X-32866253Y-36165742D01*
X-32867513Y-36165540D01*
X-32868665Y-36164999D01*
X-32877223Y-36163668D01*
X-32877225Y-36163667D01*
X-32916700Y-36157526D01*
X-32939034Y-36154052D01*
X-32939439Y-36153988D01*
X-32984084Y-36146818D01*
X-33001206Y-36144068D01*
X-33001208Y-36144068D01*
X-33010068Y-36142645D01*
X-33018973Y-36143766D01*
X-33018976Y-36143766D01*
X-33043216Y-36146818D01*
X-33058937Y-36147805D01*
X-37918720Y-36148445D01*
X-83972973Y-36154511D01*
X-83993624Y-36152809D01*
X-84014051Y-36149416D01*
X-84029378Y-36151263D01*
X-84054669Y-36151753D01*
X-84225502Y-36137851D01*
X-84243183Y-36135138D01*
X-84435128Y-36091537D01*
X-84452244Y-36086347D01*
X-84636074Y-36015990D01*
X-84652293Y-36008421D01*
X-84824287Y-35912734D01*
X-84839270Y-35902944D01*
X-84995977Y-35783848D01*
X-85009422Y-35772033D01*
X-85147670Y-35631938D01*
X-85159305Y-35618338D01*
X-85276313Y-35460062D01*
X-85285899Y-35444958D01*
X-85379302Y-35271696D01*
X-85386648Y-35255394D01*
X-85454564Y-35070634D01*
X-85459527Y-35053448D01*
X-85500574Y-34860954D01*
X-85503054Y-34843228D01*
X-85514203Y-34679332D01*
X-85513382Y-34661034D01*
X-85513259Y-34653068D01*
X-85511850Y-34644199D01*
X-85516005Y-34611622D01*
X-85517018Y-34595682D01*
X-85517014Y-34299637D01*
X-85516999Y-33000799D01*
X-84380000Y-33000799D01*
X-84379751Y-33003586D01*
X-84379751Y-33003592D01*
X-84373491Y-33073729D01*
X-84365117Y-33167562D01*
X-84305837Y-33384251D01*
X-84209122Y-33587018D01*
X-84078029Y-33769454D01*
X-83966707Y-33877333D01*
X-83916701Y-33925792D01*
X-83917135Y-33926239D01*
X-83903109Y-33940636D01*
X-83880123Y-33970592D01*
X-83713964Y-34121785D01*
X-83709217Y-34124763D01*
X-83709214Y-34124765D01*
X-83580771Y-34205336D01*
X-83523656Y-34241164D01*
X-83315217Y-34324956D01*
X-83095233Y-34370513D01*
X-83090622Y-34370779D01*
X-83090621Y-34370779D01*
X-83040048Y-34373695D01*
X-83040044Y-34373695D01*
X-83038225Y-34373800D01*
X-69393001Y-34373800D01*
X-69390214Y-34373551D01*
X-69390208Y-34373551D01*
X-69320071Y-34367291D01*
X-69226238Y-34358917D01*
X-69220824Y-34357436D01*
X-69220819Y-34357435D01*
X-69093088Y-34322491D01*
X-69009549Y-34299637D01*
X-69004491Y-34297225D01*
X-69004487Y-34297223D01*
X-68886958Y-34241164D01*
X-68806782Y-34202922D01*
X-68624346Y-34071829D01*
X-68468008Y-33910501D01*
X-68467561Y-33910935D01*
X-68453164Y-33896909D01*
X-68423208Y-33873923D01*
X-68272015Y-33707764D01*
X-68152636Y-33517456D01*
X-68068844Y-33309017D01*
X-68023287Y-33089033D01*
X-68020000Y-33032025D01*
X-68020000Y-19386801D01*
X-68022949Y-19353752D01*
X-68027929Y-19297962D01*
X-68034743Y-19221609D01*
X-68020876Y-19151981D01*
X-67971566Y-19100902D01*
X-67902468Y-19084591D01*
X-67855892Y-19096261D01*
X-67798888Y-19122903D01*
X-67488560Y-19224634D01*
X-67484846Y-19225373D01*
X-67484845Y-19225373D01*
X-67458468Y-19230620D01*
X-67168258Y-19288346D01*
X-67164486Y-19288633D01*
X-67164478Y-19288634D01*
X-66846398Y-19312829D01*
X-66846393Y-19312829D01*
X-66842621Y-19313116D01*
X-66516367Y-19298586D01*
X-66491554Y-19294456D01*
X-66197963Y-19245590D01*
X-66197958Y-19245589D01*
X-66194222Y-19244967D01*
X-65880851Y-19153034D01*
X-65877384Y-19151544D01*
X-65877380Y-19151543D01*
X-65584279Y-19025616D01*
X-65584277Y-19025615D01*
X-65580795Y-19024119D01*
X-65500049Y-18977218D01*
X-65471218Y-18960472D01*
X-65402267Y-18943553D01*
X-65335115Y-18966599D01*
X-65291082Y-19022291D01*
X-65284551Y-19094977D01*
X-65326713Y-19298567D01*
X-65330000Y-19355575D01*
X-65330000Y-33000799D01*
X-65329751Y-33003586D01*
X-65329751Y-33003592D01*
X-65323491Y-33073729D01*
X-65315117Y-33167562D01*
X-65255837Y-33384251D01*
X-65159122Y-33587018D01*
X-65028029Y-33769454D01*
X-64916707Y-33877333D01*
X-64866701Y-33925792D01*
X-64867135Y-33926239D01*
X-64853109Y-33940636D01*
X-64830123Y-33970592D01*
X-64663964Y-34121785D01*
X-64659217Y-34124763D01*
X-64659214Y-34124765D01*
X-64530771Y-34205336D01*
X-64473656Y-34241164D01*
X-64265217Y-34324956D01*
X-64045233Y-34370513D01*
X-64040622Y-34370779D01*
X-64040621Y-34370779D01*
X-63990048Y-34373695D01*
X-63990044Y-34373695D01*
X-63988225Y-34373800D01*
X-50343001Y-34373800D01*
X-50340214Y-34373551D01*
X-50340208Y-34373551D01*
X-50270071Y-34367291D01*
X-50176238Y-34358917D01*
X-50170824Y-34357436D01*
X-50170819Y-34357435D01*
X-50043088Y-34322491D01*
X-49959549Y-34299637D01*
X-49954491Y-34297225D01*
X-49954487Y-34297223D01*
X-49836958Y-34241164D01*
X-49756782Y-34202922D01*
X-49574346Y-34071829D01*
X-49418008Y-33910501D01*
X-49417561Y-33910935D01*
X-49403164Y-33896909D01*
X-49373208Y-33873923D01*
X-49222015Y-33707764D01*
X-49102636Y-33517456D01*
X-49018844Y-33309017D01*
X-48973287Y-33089033D01*
X-48970000Y-33032025D01*
X-48970000Y-28238299D01*
X10870000Y-28238299D01*
X10870249Y-28241086D01*
X10870249Y-28241092D01*
X10876509Y-28311229D01*
X10884883Y-28405062D01*
X10944163Y-28621751D01*
X11040878Y-28824518D01*
X11171971Y-29006954D01*
X11283293Y-29114833D01*
X11333299Y-29163292D01*
X11332865Y-29163739D01*
X11346891Y-29178136D01*
X11369877Y-29208092D01*
X11536036Y-29359285D01*
X11540783Y-29362263D01*
X11540786Y-29362265D01*
X11669229Y-29442836D01*
X11726344Y-29478664D01*
X11934783Y-29562456D01*
X12154767Y-29608013D01*
X12159378Y-29608279D01*
X12159379Y-29608279D01*
X12209952Y-29611195D01*
X12209956Y-29611195D01*
X12211775Y-29611300D01*
X25856999Y-29611300D01*
X25859786Y-29611051D01*
X25859792Y-29611051D01*
X25929929Y-29604791D01*
X26023762Y-29596417D01*
X26029176Y-29594936D01*
X26029181Y-29594935D01*
X26156912Y-29559991D01*
X26240451Y-29537137D01*
X26245509Y-29534725D01*
X26245513Y-29534723D01*
X26363042Y-29478664D01*
X26443218Y-29440422D01*
X26625654Y-29309329D01*
X26781992Y-29148001D01*
X26782439Y-29148435D01*
X26796836Y-29134409D01*
X26826792Y-29111423D01*
X26977985Y-28945264D01*
X27097364Y-28754956D01*
X27181156Y-28546517D01*
X27226713Y-28326533D01*
X27230000Y-28269525D01*
X27230000Y-14624301D01*
X27227051Y-14591252D01*
X27222125Y-14536067D01*
X27215117Y-14457538D01*
X27155837Y-14240849D01*
X27059122Y-14038082D01*
X26928029Y-13855646D01*
X26766701Y-13699308D01*
X26767135Y-13698861D01*
X26753109Y-13684464D01*
X26730123Y-13654508D01*
X26563964Y-13503315D01*
X26559217Y-13500337D01*
X26559214Y-13500335D01*
X26378405Y-13386915D01*
X26373656Y-13383936D01*
X26165217Y-13300144D01*
X25945233Y-13254587D01*
X25940622Y-13254321D01*
X25940621Y-13254321D01*
X25890048Y-13251405D01*
X25890044Y-13251405D01*
X25888225Y-13251300D01*
X12243001Y-13251300D01*
X12240214Y-13251549D01*
X12240208Y-13251549D01*
X12170071Y-13257809D01*
X12076238Y-13266183D01*
X12070824Y-13267664D01*
X12070819Y-13267665D01*
X11956262Y-13299005D01*
X11859549Y-13325463D01*
X11854491Y-13327875D01*
X11854487Y-13327877D01*
X11758165Y-13373821D01*
X11656782Y-13422178D01*
X11474346Y-13553271D01*
X11318008Y-13714599D01*
X11317561Y-13714165D01*
X11303164Y-13728191D01*
X11273208Y-13751177D01*
X11122015Y-13917336D01*
X11119037Y-13922083D01*
X11119035Y-13922086D01*
X11028990Y-14065631D01*
X11002636Y-14107644D01*
X10918844Y-14316083D01*
X10873287Y-14536067D01*
X10870000Y-14593075D01*
X10870000Y-28238299D01*
X-48970000Y-28238299D01*
X-48970000Y-25856999D01*
X-46280000Y-25856999D01*
X-46279751Y-25859786D01*
X-46279751Y-25859792D01*
X-46273491Y-25929929D01*
X-46265117Y-26023762D01*
X-46205837Y-26240451D01*
X-46109122Y-26443218D01*
X-45978029Y-26625654D01*
X-45866707Y-26733533D01*
X-45816701Y-26781992D01*
X-45817135Y-26782439D01*
X-45803109Y-26796836D01*
X-45780123Y-26826792D01*
X-45613964Y-26977985D01*
X-45609217Y-26980963D01*
X-45609214Y-26980965D01*
X-45428405Y-27094385D01*
X-45423656Y-27097364D01*
X-45215217Y-27181156D01*
X-44995233Y-27226713D01*
X-44990622Y-27226979D01*
X-44990621Y-27226979D01*
X-44940048Y-27229895D01*
X-44940044Y-27229895D01*
X-44938225Y-27230000D01*
X-31293001Y-27230000D01*
X-31290214Y-27229751D01*
X-31290208Y-27229751D01*
X-31220071Y-27223491D01*
X-31126238Y-27215117D01*
X-31120824Y-27213636D01*
X-31120819Y-27213635D01*
X-30993088Y-27178691D01*
X-30909549Y-27155837D01*
X-30904491Y-27153425D01*
X-30904487Y-27153423D01*
X-30786958Y-27097364D01*
X-30706782Y-27059122D01*
X-30524346Y-26928029D01*
X-30368008Y-26766701D01*
X-30367561Y-26767135D01*
X-30353164Y-26753109D01*
X-30323208Y-26730123D01*
X-30172015Y-26563964D01*
X-30052636Y-26373656D01*
X-29968844Y-26165217D01*
X-29923287Y-25945233D01*
X-29920000Y-25888225D01*
X-29920000Y-25856999D01*
X-8180000Y-25856999D01*
X-8179751Y-25859786D01*
X-8179751Y-25859792D01*
X-8173491Y-25929929D01*
X-8165117Y-26023762D01*
X-8105837Y-26240451D01*
X-8009122Y-26443218D01*
X-7878029Y-26625654D01*
X-7766707Y-26733533D01*
X-7716701Y-26781992D01*
X-7717135Y-26782439D01*
X-7703109Y-26796836D01*
X-7680123Y-26826792D01*
X-7513964Y-26977985D01*
X-7509217Y-26980963D01*
X-7509214Y-26980965D01*
X-7328405Y-27094385D01*
X-7323656Y-27097364D01*
X-7115217Y-27181156D01*
X-6895233Y-27226713D01*
X-6890622Y-27226979D01*
X-6890621Y-27226979D01*
X-6840048Y-27229895D01*
X-6840044Y-27229895D01*
X-6838225Y-27230000D01*
X6806999Y-27230000D01*
X6809786Y-27229751D01*
X6809792Y-27229751D01*
X6879929Y-27223491D01*
X6973762Y-27215117D01*
X6979176Y-27213636D01*
X6979181Y-27213635D01*
X7106912Y-27178691D01*
X7190451Y-27155837D01*
X7195509Y-27153425D01*
X7195513Y-27153423D01*
X7313042Y-27097364D01*
X7393218Y-27059122D01*
X7575654Y-26928029D01*
X7731992Y-26766701D01*
X7732439Y-26767135D01*
X7746836Y-26753109D01*
X7776792Y-26730123D01*
X7927985Y-26563964D01*
X8047364Y-26373656D01*
X8131156Y-26165217D01*
X8176713Y-25945233D01*
X8180000Y-25888225D01*
X8180000Y-12243001D01*
X8179611Y-12238634D01*
X8165616Y-12081833D01*
X8165117Y-12076238D01*
X8136659Y-11972212D01*
X8107317Y-11864960D01*
X8105837Y-11859549D01*
X8081158Y-11807807D01*
X8011536Y-11661844D01*
X8009122Y-11656782D01*
X7878029Y-11474346D01*
X7716701Y-11318008D01*
X7717135Y-11317561D01*
X7703109Y-11303164D01*
X7680123Y-11273208D01*
X7513964Y-11122015D01*
X7509217Y-11119037D01*
X7509214Y-11119035D01*
X7328405Y-11005615D01*
X7323656Y-11002636D01*
X7115217Y-10918844D01*
X6895233Y-10873287D01*
X6890622Y-10873021D01*
X6890621Y-10873021D01*
X6840048Y-10870105D01*
X6840044Y-10870105D01*
X6838225Y-10870000D01*
X-6806999Y-10870000D01*
X-6809786Y-10870249D01*
X-6809792Y-10870249D01*
X-6879929Y-10876509D01*
X-6973762Y-10884883D01*
X-6979176Y-10886364D01*
X-6979181Y-10886365D01*
X-7093738Y-10917705D01*
X-7190451Y-10944163D01*
X-7195509Y-10946575D01*
X-7195513Y-10946577D01*
X-7291834Y-10992520D01*
X-7393218Y-11040878D01*
X-7575654Y-11171971D01*
X-7731992Y-11333299D01*
X-7732439Y-11332865D01*
X-7746836Y-11346891D01*
X-7776792Y-11369877D01*
X-7927985Y-11536036D01*
X-8047364Y-11726344D01*
X-8131156Y-11934783D01*
X-8176713Y-12154767D01*
X-8176979Y-12159378D01*
X-8176979Y-12159379D01*
X-8178969Y-12193901D01*
X-8180000Y-12211775D01*
X-8180000Y-25856999D01*
X-29920000Y-25856999D01*
X-29920000Y-12311966D01*
X-29899998Y-12243845D01*
X-29846342Y-12197352D01*
X-29769419Y-12188387D01*
X-29518258Y-12238346D01*
X-29514486Y-12238633D01*
X-29514478Y-12238634D01*
X-29196398Y-12262829D01*
X-29196393Y-12262829D01*
X-29192621Y-12263116D01*
X-28866367Y-12248586D01*
X-28832812Y-12243001D01*
X-28547963Y-12195590D01*
X-28547958Y-12195589D01*
X-28544222Y-12194967D01*
X-28230851Y-12103034D01*
X-28227384Y-12101544D01*
X-28227380Y-12101543D01*
X-27934279Y-11975616D01*
X-27934277Y-11975615D01*
X-27930795Y-11974119D01*
X-27648399Y-11810091D01*
X-27431917Y-11646663D01*
X-27365497Y-11621583D01*
X-27296063Y-11636394D01*
X-27245658Y-11686392D01*
X-27230000Y-11747225D01*
X-27230000Y-18713299D01*
X-27229751Y-18716086D01*
X-27229751Y-18716092D01*
X-27223491Y-18786229D01*
X-27215117Y-18880062D01*
X-27155837Y-19096751D01*
X-27153425Y-19101809D01*
X-27153423Y-19101813D01*
X-27107480Y-19198134D01*
X-27059122Y-19299518D01*
X-26928029Y-19481954D01*
X-26816707Y-19589833D01*
X-26766701Y-19638292D01*
X-26767135Y-19638739D01*
X-26753109Y-19653136D01*
X-26730123Y-19683092D01*
X-26563964Y-19834285D01*
X-26559217Y-19837263D01*
X-26559214Y-19837265D01*
X-26430771Y-19917836D01*
X-26373656Y-19953664D01*
X-26165217Y-20037456D01*
X-25945233Y-20083013D01*
X-25940622Y-20083279D01*
X-25940621Y-20083279D01*
X-25890048Y-20086195D01*
X-25890044Y-20086195D01*
X-25888225Y-20086300D01*
X-12243001Y-20086300D01*
X-12240214Y-20086051D01*
X-12240208Y-20086051D01*
X-12170071Y-20079791D01*
X-12076238Y-20071417D01*
X-12070824Y-20069936D01*
X-12070819Y-20069935D01*
X-11943088Y-20034991D01*
X-11859549Y-20012137D01*
X-11854491Y-20009725D01*
X-11854487Y-20009723D01*
X-11736958Y-19953664D01*
X-11656782Y-19915422D01*
X-11474346Y-19784329D01*
X-11318008Y-19623001D01*
X-11317561Y-19623435D01*
X-11303164Y-19609409D01*
X-11273208Y-19586423D01*
X-11122015Y-19420264D01*
X-11102781Y-19389603D01*
X-11005615Y-19234705D01*
X-11002636Y-19229956D01*
X-10918844Y-19021517D01*
X-10873287Y-18801533D01*
X-10870000Y-18744525D01*
X-10870000Y-9188299D01*
X10870000Y-9188299D01*
X10870249Y-9191086D01*
X10870249Y-9191092D01*
X10876509Y-9261229D01*
X10884883Y-9355062D01*
X10944163Y-9571751D01*
X11040878Y-9774518D01*
X11171971Y-9956954D01*
X11283293Y-10064833D01*
X11333299Y-10113292D01*
X11332865Y-10113739D01*
X11346891Y-10128136D01*
X11369877Y-10158092D01*
X11536036Y-10309285D01*
X11540783Y-10312263D01*
X11540786Y-10312265D01*
X11669229Y-10392836D01*
X11726344Y-10428664D01*
X11934783Y-10512456D01*
X12154767Y-10558013D01*
X12159378Y-10558279D01*
X12159379Y-10558279D01*
X12209952Y-10561195D01*
X12209956Y-10561195D01*
X12211775Y-10561300D01*
X25856999Y-10561300D01*
X25859786Y-10561051D01*
X25859792Y-10561051D01*
X25929929Y-10554791D01*
X26023762Y-10546417D01*
X26029176Y-10544936D01*
X26029181Y-10544935D01*
X26156912Y-10509991D01*
X26240451Y-10487137D01*
X26245509Y-10484725D01*
X26245513Y-10484723D01*
X26363042Y-10428664D01*
X26443218Y-10390422D01*
X26625654Y-10259329D01*
X26781992Y-10098001D01*
X26782439Y-10098435D01*
X26796836Y-10084409D01*
X26826792Y-10061423D01*
X26977985Y-9895264D01*
X27097364Y-9704956D01*
X27181156Y-9496517D01*
X27226713Y-9276533D01*
X27230000Y-9219525D01*
X27230000Y4425699D01*
X27227051Y4458748D01*
X27215616Y4586867D01*
X27215117Y4592462D01*
X27179882Y4721260D01*
X27157317Y4803740D01*
X27155837Y4809151D01*
X27059122Y5011918D01*
X26928029Y5194354D01*
X26766701Y5350692D01*
X26767135Y5351139D01*
X26753109Y5365536D01*
X26730123Y5395492D01*
X26563964Y5546685D01*
X26559217Y5549663D01*
X26559214Y5549665D01*
X26378405Y5663085D01*
X26373656Y5666064D01*
X26165217Y5749856D01*
X25945233Y5795413D01*
X25940622Y5795679D01*
X25940621Y5795679D01*
X25890048Y5798595D01*
X25890044Y5798595D01*
X25888225Y5798700D01*
X12243001Y5798700D01*
X12240214Y5798451D01*
X12240208Y5798451D01*
X12170071Y5792191D01*
X12076238Y5783817D01*
X12070824Y5782336D01*
X12070819Y5782335D01*
X11956262Y5750995D01*
X11859549Y5724537D01*
X11854491Y5722125D01*
X11854487Y5722123D01*
X11758166Y5676180D01*
X11656782Y5627822D01*
X11474346Y5496729D01*
X11318008Y5335401D01*
X11317561Y5335835D01*
X11303164Y5321809D01*
X11273208Y5298823D01*
X11122015Y5132664D01*
X11119037Y5127917D01*
X11119035Y5127914D01*
X11080355Y5066252D01*
X11002636Y4942356D01*
X10918844Y4733917D01*
X10873287Y4513933D01*
X10870000Y4456925D01*
X10870000Y-9188299D01*
X-10870000Y-9188299D01*
X-10870000Y-6806999D01*
X-8180000Y-6806999D01*
X-8179751Y-6809786D01*
X-8179751Y-6809792D01*
X-8175758Y-6854532D01*
X-8165117Y-6973762D01*
X-8163636Y-6979176D01*
X-8163635Y-6979181D01*
X-8128691Y-7106912D01*
X-8105837Y-7190451D01*
X-8009122Y-7393218D01*
X-7878029Y-7575654D01*
X-7766707Y-7683533D01*
X-7716701Y-7731992D01*
X-7717135Y-7732439D01*
X-7703109Y-7746836D01*
X-7680123Y-7776792D01*
X-7513964Y-7927985D01*
X-7509217Y-7930963D01*
X-7509214Y-7930965D01*
X-7328405Y-8044385D01*
X-7323656Y-8047364D01*
X-7115217Y-8131156D01*
X-6895233Y-8176713D01*
X-6890622Y-8176979D01*
X-6890621Y-8176979D01*
X-6840048Y-8179895D01*
X-6840044Y-8179895D01*
X-6838225Y-8180000D01*
X6806999Y-8180000D01*
X6809786Y-8179751D01*
X6809792Y-8179751D01*
X6879929Y-8173491D01*
X6973762Y-8165117D01*
X6979176Y-8163636D01*
X6979181Y-8163635D01*
X7106912Y-8128691D01*
X7190451Y-8105837D01*
X7195509Y-8103425D01*
X7195513Y-8103423D01*
X7313042Y-8047364D01*
X7393218Y-8009122D01*
X7575654Y-7878029D01*
X7731992Y-7716701D01*
X7732439Y-7717135D01*
X7746836Y-7703109D01*
X7776792Y-7680123D01*
X7927985Y-7513964D01*
X8047364Y-7323656D01*
X8131156Y-7115217D01*
X8176713Y-6895233D01*
X8180000Y-6838225D01*
X8180000Y6806999D01*
X8177051Y6840048D01*
X8165616Y6968167D01*
X8165117Y6973762D01*
X8105837Y7190451D01*
X8009122Y7393218D01*
X7878029Y7575654D01*
X7716701Y7731992D01*
X7717135Y7732439D01*
X7703109Y7746836D01*
X7680123Y7776792D01*
X7513964Y7927985D01*
X7509217Y7930963D01*
X7509214Y7930965D01*
X7328405Y8044385D01*
X7323656Y8047364D01*
X7115217Y8131156D01*
X6895233Y8176713D01*
X6890622Y8176979D01*
X6890621Y8176979D01*
X6840048Y8179895D01*
X6840044Y8179895D01*
X6838225Y8180000D01*
X-6806999Y8180000D01*
X-6809786Y8179751D01*
X-6809792Y8179751D01*
X-6879929Y8173491D01*
X-6973762Y8165117D01*
X-6979176Y8163636D01*
X-6979181Y8163635D01*
X-7093738Y8132295D01*
X-7190451Y8105837D01*
X-7195509Y8103425D01*
X-7195513Y8103423D01*
X-7291834Y8057480D01*
X-7393218Y8009122D01*
X-7575654Y7878029D01*
X-7731992Y7716701D01*
X-7732439Y7717135D01*
X-7746836Y7703109D01*
X-7776792Y7680123D01*
X-7927985Y7513964D01*
X-8047364Y7323656D01*
X-8131156Y7115217D01*
X-8176713Y6895233D01*
X-8180000Y6838225D01*
X-8180000Y-6806999D01*
X-10870000Y-6806999D01*
X-10870000Y-5099301D01*
X-10872949Y-5066252D01*
X-10884384Y-4938133D01*
X-10884883Y-4932538D01*
X-10944163Y-4715849D01*
X-11040878Y-4513082D01*
X-11171971Y-4330646D01*
X-11333299Y-4174308D01*
X-11332865Y-4173861D01*
X-11346891Y-4159464D01*
X-11369877Y-4129508D01*
X-11536036Y-3978315D01*
X-11540783Y-3975337D01*
X-11540786Y-3975335D01*
X-11721595Y-3861915D01*
X-11726344Y-3858936D01*
X-11934783Y-3775144D01*
X-12154767Y-3729587D01*
X-12159378Y-3729321D01*
X-12159379Y-3729321D01*
X-12209952Y-3726405D01*
X-12209956Y-3726405D01*
X-12211775Y-3726300D01*
X-25856999Y-3726300D01*
X-25859786Y-3726549D01*
X-25859792Y-3726549D01*
X-25929929Y-3732809D01*
X-26023762Y-3741183D01*
X-26029176Y-3742664D01*
X-26029181Y-3742665D01*
X-26143738Y-3774005D01*
X-26240451Y-3800463D01*
X-26245509Y-3802875D01*
X-26245513Y-3802877D01*
X-26341835Y-3848821D01*
X-26443218Y-3897178D01*
X-26625654Y-4028271D01*
X-26781992Y-4189599D01*
X-26782439Y-4189165D01*
X-26796836Y-4203191D01*
X-26826792Y-4226177D01*
X-26977985Y-4392336D01*
X-27097364Y-4582644D01*
X-27181156Y-4791083D01*
X-27226713Y-5011067D01*
X-27230000Y-5068075D01*
X-27230000Y-7354862D01*
X-27250002Y-7422983D01*
X-27303658Y-7469476D01*
X-27373932Y-7479580D01*
X-27434006Y-7453812D01*
X-27593085Y-7328405D01*
X-27601397Y-7321852D01*
X-27880295Y-7151945D01*
X-27883739Y-7150379D01*
X-27883743Y-7150377D01*
X-27994333Y-7100095D01*
X-28177586Y-7016775D01*
X-28488963Y-6918300D01*
X-28706508Y-6877390D01*
X-28806191Y-6858645D01*
X-28806193Y-6858645D01*
X-28809914Y-6857945D01*
X-29135792Y-6836586D01*
X-29139572Y-6836794D01*
X-29139573Y-6836794D01*
X-29198698Y-6840048D01*
X-29461876Y-6854532D01*
X-29465603Y-6855193D01*
X-29465607Y-6855193D01*
X-29772012Y-6909496D01*
X-29842578Y-6901688D01*
X-29897721Y-6856969D01*
X-29920000Y-6785429D01*
X-29920000Y336801D01*
X-27230000Y336801D01*
X-27229751Y334014D01*
X-27229751Y334008D01*
X-27223491Y263871D01*
X-27215117Y170038D01*
X-27213636Y164624D01*
X-27213635Y164619D01*
X-27178691Y36888D01*
X-27155837Y-46651D01*
X-27059122Y-249418D01*
X-26928029Y-431854D01*
X-26816707Y-539733D01*
X-26766701Y-588192D01*
X-26767135Y-588639D01*
X-26753109Y-603036D01*
X-26730123Y-632992D01*
X-26563964Y-784185D01*
X-26559217Y-787163D01*
X-26559214Y-787165D01*
X-26430771Y-867736D01*
X-26373656Y-903564D01*
X-26165217Y-987356D01*
X-25945233Y-1032913D01*
X-25940622Y-1033179D01*
X-25940621Y-1033179D01*
X-25890048Y-1036095D01*
X-25890044Y-1036095D01*
X-25888225Y-1036200D01*
X-12243001Y-1036200D01*
X-12240214Y-1035951D01*
X-12240208Y-1035951D01*
X-12170071Y-1029691D01*
X-12076238Y-1021317D01*
X-12070824Y-1019836D01*
X-12070819Y-1019835D01*
X-11943088Y-984891D01*
X-11859549Y-962037D01*
X-11854491Y-959625D01*
X-11854487Y-959623D01*
X-11736958Y-903564D01*
X-11656782Y-865322D01*
X-11474346Y-734229D01*
X-11318008Y-572901D01*
X-11317561Y-573335D01*
X-11303164Y-559309D01*
X-11273208Y-536323D01*
X-11122015Y-370164D01*
X-11101086Y-336801D01*
X-11005615Y-184605D01*
X-11002636Y-179856D01*
X-10918844Y28583D01*
X-10873287Y248567D01*
X-10870000Y305575D01*
X-10870000Y9861801D01*
X10870000Y9861801D01*
X10870249Y9859014D01*
X10870249Y9859008D01*
X10876509Y9788871D01*
X10884883Y9695038D01*
X10944163Y9478349D01*
X11040878Y9275582D01*
X11171971Y9093146D01*
X11283293Y8985267D01*
X11333299Y8936808D01*
X11332865Y8936361D01*
X11346891Y8921964D01*
X11369877Y8892008D01*
X11536036Y8740815D01*
X11540783Y8737837D01*
X11540786Y8737835D01*
X11669229Y8657264D01*
X11726344Y8621436D01*
X11934783Y8537644D01*
X12154767Y8492087D01*
X12159378Y8491821D01*
X12159379Y8491821D01*
X12209952Y8488905D01*
X12209956Y8488905D01*
X12211775Y8488800D01*
X25856999Y8488800D01*
X25859786Y8489049D01*
X25859792Y8489049D01*
X25929929Y8495309D01*
X26023762Y8503683D01*
X26029176Y8505164D01*
X26029181Y8505165D01*
X26156912Y8540109D01*
X26240451Y8562963D01*
X26245509Y8565375D01*
X26245513Y8565377D01*
X26363042Y8621436D01*
X26443218Y8659678D01*
X26625654Y8790771D01*
X26781992Y8952099D01*
X26782439Y8951665D01*
X26796836Y8965691D01*
X26826792Y8988677D01*
X26977985Y9154836D01*
X27097364Y9345144D01*
X27181156Y9553583D01*
X27226713Y9773567D01*
X27230000Y9830575D01*
X27230000Y23475799D01*
X27227051Y23508848D01*
X27222125Y23564033D01*
X27215117Y23642562D01*
X27155837Y23859251D01*
X27059122Y24062018D01*
X26928029Y24244454D01*
X26766701Y24400792D01*
X26767135Y24401239D01*
X26753109Y24415636D01*
X26730123Y24445592D01*
X26563964Y24596785D01*
X26559217Y24599763D01*
X26559214Y24599765D01*
X26378405Y24713185D01*
X26373656Y24716164D01*
X26165217Y24799956D01*
X25945233Y24845513D01*
X25940622Y24845779D01*
X25940621Y24845779D01*
X25890048Y24848695D01*
X25890044Y24848695D01*
X25888225Y24848800D01*
X12243001Y24848800D01*
X12240214Y24848551D01*
X12240208Y24848551D01*
X12170071Y24842291D01*
X12076238Y24833917D01*
X12070824Y24832436D01*
X12070819Y24832435D01*
X11956262Y24801095D01*
X11859549Y24774637D01*
X11854491Y24772225D01*
X11854487Y24772223D01*
X11758165Y24726279D01*
X11656782Y24677922D01*
X11474346Y24546829D01*
X11318008Y24385501D01*
X11317561Y24385935D01*
X11303164Y24371909D01*
X11273208Y24348923D01*
X11122015Y24182764D01*
X11119037Y24178017D01*
X11119035Y24178014D01*
X11049128Y24066571D01*
X11002636Y23992456D01*
X10918844Y23784017D01*
X10873287Y23564033D01*
X10870000Y23507025D01*
X10870000Y9861801D01*
X-10870000Y9861801D01*
X-10870000Y12243001D01*
X-8180000Y12243001D01*
X-8179751Y12240214D01*
X-8179751Y12240208D01*
X-8173491Y12170071D01*
X-8165117Y12076238D01*
X-8105837Y11859549D01*
X-8009122Y11656782D01*
X-7878029Y11474346D01*
X-7766707Y11366467D01*
X-7716701Y11318008D01*
X-7717135Y11317561D01*
X-7703109Y11303164D01*
X-7680123Y11273208D01*
X-7513964Y11122015D01*
X-7509217Y11119037D01*
X-7509214Y11119035D01*
X-7380771Y11038464D01*
X-7323656Y11002636D01*
X-7115217Y10918844D01*
X-6895233Y10873287D01*
X-6890622Y10873021D01*
X-6890621Y10873021D01*
X-6840048Y10870105D01*
X-6840044Y10870105D01*
X-6838225Y10870000D01*
X6806999Y10870000D01*
X6809786Y10870249D01*
X6809792Y10870249D01*
X6879929Y10876509D01*
X6973762Y10884883D01*
X6979176Y10886364D01*
X6979181Y10886365D01*
X7106912Y10921309D01*
X7190451Y10944163D01*
X7195509Y10946575D01*
X7195513Y10946577D01*
X7313042Y11002636D01*
X7393218Y11040878D01*
X7575654Y11171971D01*
X7731992Y11333299D01*
X7732439Y11332865D01*
X7746836Y11346891D01*
X7776792Y11369877D01*
X7927985Y11536036D01*
X8047364Y11726344D01*
X8131156Y11934783D01*
X8176713Y12154767D01*
X8180000Y12211775D01*
X8180000Y25856999D01*
X8177051Y25890048D01*
X8165616Y26018167D01*
X8165117Y26023762D01*
X8105837Y26240451D01*
X8009122Y26443218D01*
X7878029Y26625654D01*
X7716701Y26781992D01*
X7717135Y26782439D01*
X7703109Y26796836D01*
X7680123Y26826792D01*
X7513964Y26977985D01*
X7509217Y26980963D01*
X7509214Y26980965D01*
X7328405Y27094385D01*
X7323656Y27097364D01*
X7115217Y27181156D01*
X6895233Y27226713D01*
X6890622Y27226979D01*
X6890621Y27226979D01*
X6840048Y27229895D01*
X6840044Y27229895D01*
X6838225Y27230000D01*
X-6806999Y27230000D01*
X-6809786Y27229751D01*
X-6809792Y27229751D01*
X-6879929Y27223491D01*
X-6973762Y27215117D01*
X-6979176Y27213636D01*
X-6979181Y27213635D01*
X-7093738Y27182295D01*
X-7190451Y27155837D01*
X-7195509Y27153425D01*
X-7195513Y27153423D01*
X-7291835Y27107479D01*
X-7393218Y27059122D01*
X-7575654Y26928029D01*
X-7731992Y26766701D01*
X-7732439Y26767135D01*
X-7746836Y26753109D01*
X-7776792Y26730123D01*
X-7927985Y26563964D01*
X-8047364Y26373656D01*
X-8131156Y26165217D01*
X-8176713Y25945233D01*
X-8180000Y25888225D01*
X-8180000Y12243001D01*
X-10870000Y12243001D01*
X-10870000Y13950799D01*
X-10872949Y13983848D01*
X-10884384Y14111967D01*
X-10884883Y14117562D01*
X-10944163Y14334251D01*
X-11040878Y14537018D01*
X-11171971Y14719454D01*
X-11333299Y14875792D01*
X-11332865Y14876239D01*
X-11346891Y14890636D01*
X-11369877Y14920592D01*
X-11536036Y15071785D01*
X-11540783Y15074763D01*
X-11540786Y15074765D01*
X-11721595Y15188185D01*
X-11726344Y15191164D01*
X-11934783Y15274956D01*
X-12154767Y15320513D01*
X-12159378Y15320779D01*
X-12159379Y15320779D01*
X-12209952Y15323695D01*
X-12209956Y15323695D01*
X-12211775Y15323800D01*
X-25856999Y15323800D01*
X-25859786Y15323551D01*
X-25859792Y15323551D01*
X-25929929Y15317291D01*
X-26023762Y15308917D01*
X-26029176Y15307436D01*
X-26029181Y15307435D01*
X-26143738Y15276095D01*
X-26240451Y15249637D01*
X-26245509Y15247225D01*
X-26245513Y15247223D01*
X-26341835Y15201279D01*
X-26443218Y15152922D01*
X-26625654Y15021829D01*
X-26781992Y14860501D01*
X-26782439Y14860935D01*
X-26796836Y14846909D01*
X-26826792Y14823923D01*
X-26977985Y14657764D01*
X-27097364Y14467456D01*
X-27181156Y14259017D01*
X-27226713Y14039033D01*
X-27230000Y13982025D01*
X-27230000Y336801D01*
X-29920000Y336801D01*
X-29920000Y6806999D01*
X-29922949Y6840048D01*
X-29934384Y6968167D01*
X-29934883Y6973762D01*
X-29994163Y7190451D01*
X-30090878Y7393218D01*
X-30221971Y7575654D01*
X-30383299Y7731992D01*
X-30382865Y7732439D01*
X-30396891Y7746836D01*
X-30419877Y7776792D01*
X-30586036Y7927985D01*
X-30590783Y7930963D01*
X-30590786Y7930965D01*
X-30771595Y8044385D01*
X-30776344Y8047364D01*
X-30984783Y8131156D01*
X-31204767Y8176713D01*
X-31209378Y8176979D01*
X-31209379Y8176979D01*
X-31259952Y8179895D01*
X-31259956Y8179895D01*
X-31261775Y8180000D01*
X-44906999Y8180000D01*
X-44909786Y8179751D01*
X-44909792Y8179751D01*
X-44979929Y8173491D01*
X-45073762Y8165117D01*
X-45079176Y8163636D01*
X-45079181Y8163635D01*
X-45193738Y8132295D01*
X-45290451Y8105837D01*
X-45295509Y8103425D01*
X-45295513Y8103423D01*
X-45391834Y8057480D01*
X-45493218Y8009122D01*
X-45675654Y7878029D01*
X-45831992Y7716701D01*
X-45832439Y7717135D01*
X-45846836Y7703109D01*
X-45876792Y7680123D01*
X-46027985Y7513964D01*
X-46147364Y7323656D01*
X-46231156Y7115217D01*
X-46276713Y6895233D01*
X-46280000Y6838225D01*
X-46280000Y-6806999D01*
X-46279751Y-6809786D01*
X-46279751Y-6809792D01*
X-46275758Y-6854532D01*
X-46265117Y-6973762D01*
X-46263636Y-6979176D01*
X-46263635Y-6979181D01*
X-46228691Y-7106912D01*
X-46205837Y-7190451D01*
X-46109122Y-7393218D01*
X-45978029Y-7575654D01*
X-45866707Y-7683533D01*
X-45816701Y-7731992D01*
X-45817135Y-7732439D01*
X-45803109Y-7746836D01*
X-45780123Y-7776792D01*
X-45613964Y-7927985D01*
X-45609217Y-7930963D01*
X-45609214Y-7930965D01*
X-45428405Y-8044385D01*
X-45423656Y-8047364D01*
X-45215217Y-8131156D01*
X-44995233Y-8176713D01*
X-44990622Y-8176979D01*
X-44990621Y-8176979D01*
X-44940048Y-8179895D01*
X-44940044Y-8179895D01*
X-44938225Y-8180000D01*
X-31697749Y-8180000D01*
X-31629628Y-8200002D01*
X-31583135Y-8253658D01*
X-31573031Y-8323932D01*
X-31583323Y-8358751D01*
X-31678098Y-8564336D01*
X-31778203Y-8875192D01*
X-31778921Y-8878903D01*
X-31778922Y-8878907D01*
X-31839518Y-9192105D01*
X-31839519Y-9192114D01*
X-31840237Y-9195824D01*
X-31840504Y-9199600D01*
X-31840505Y-9199605D01*
X-31863034Y-9517796D01*
X-31863302Y-9521585D01*
X-31847064Y-9847759D01*
X-31846423Y-9851490D01*
X-31846422Y-9851498D01*
X-31793092Y-10161861D01*
X-31791759Y-10169619D01*
X-31698186Y-10482504D01*
X-31665159Y-10558279D01*
X-31606155Y-10693657D01*
X-31597274Y-10764096D01*
X-31627884Y-10828154D01*
X-31688268Y-10865495D01*
X-31721661Y-10870000D01*
X-44906999Y-10870000D01*
X-44909786Y-10870249D01*
X-44909792Y-10870249D01*
X-44979929Y-10876509D01*
X-45073762Y-10884883D01*
X-45079176Y-10886364D01*
X-45079181Y-10886365D01*
X-45193738Y-10917705D01*
X-45290451Y-10944163D01*
X-45295509Y-10946575D01*
X-45295513Y-10946577D01*
X-45391834Y-10992520D01*
X-45493218Y-11040878D01*
X-45675654Y-11171971D01*
X-45831992Y-11333299D01*
X-45832439Y-11332865D01*
X-45846836Y-11346891D01*
X-45876792Y-11369877D01*
X-46027985Y-11536036D01*
X-46147364Y-11726344D01*
X-46231156Y-11934783D01*
X-46276713Y-12154767D01*
X-46276979Y-12159378D01*
X-46276979Y-12159379D01*
X-46278969Y-12193901D01*
X-46280000Y-12211775D01*
X-46280000Y-25856999D01*
X-48970000Y-25856999D01*
X-48970000Y-19386801D01*
X-48972949Y-19353752D01*
X-48977929Y-19297962D01*
X-48984883Y-19220038D01*
X-49002922Y-19154097D01*
X-49025008Y-19073369D01*
X-49044163Y-19003349D01*
X-49140878Y-18800582D01*
X-49271971Y-18618146D01*
X-49433299Y-18461808D01*
X-49432865Y-18461361D01*
X-49446891Y-18446964D01*
X-49469877Y-18417008D01*
X-49636036Y-18265815D01*
X-49640783Y-18262837D01*
X-49640786Y-18262835D01*
X-49821595Y-18149415D01*
X-49826344Y-18146436D01*
X-50034783Y-18062644D01*
X-50254767Y-18017087D01*
X-50259378Y-18016821D01*
X-50259379Y-18016821D01*
X-50309952Y-18013905D01*
X-50309956Y-18013905D01*
X-50311775Y-18013800D01*
X-63956999Y-18013800D01*
X-63959786Y-18014049D01*
X-63959792Y-18014049D01*
X-64029929Y-18020309D01*
X-64123762Y-18028683D01*
X-64268203Y-18068198D01*
X-64339186Y-18066880D01*
X-64398189Y-18027395D01*
X-64426479Y-17962278D01*
X-64415317Y-17892719D01*
X-64282362Y-17612084D01*
X-64268088Y-17569300D01*
X-64180210Y-17305897D01*
X-64180208Y-17305891D01*
X-64179008Y-17302293D01*
X-64113619Y-16982329D01*
X-64107044Y-16901498D01*
X-64087326Y-16659061D01*
X-64087144Y-16656826D01*
X-64086549Y-16600000D01*
X-64088490Y-16567796D01*
X-64105974Y-16277793D01*
X-64105974Y-16277789D01*
X-64106202Y-16274015D01*
X-64111350Y-16245824D01*
X-64164195Y-15956473D01*
X-64164196Y-15956469D01*
X-64164875Y-15952751D01*
X-64172278Y-15928907D01*
X-64260596Y-15644477D01*
X-64261718Y-15640863D01*
X-64341369Y-15463217D01*
X-64350988Y-15392877D01*
X-64321050Y-15328502D01*
X-64261061Y-15290531D01*
X-64200846Y-15288287D01*
X-64108384Y-15307435D01*
X-64045233Y-15320513D01*
X-64040622Y-15320779D01*
X-64040621Y-15320779D01*
X-63990048Y-15323695D01*
X-63990044Y-15323695D01*
X-63988225Y-15323800D01*
X-50343001Y-15323800D01*
X-50340214Y-15323551D01*
X-50340208Y-15323551D01*
X-50270071Y-15317291D01*
X-50176238Y-15308917D01*
X-50170824Y-15307436D01*
X-50170819Y-15307435D01*
X-50043088Y-15272491D01*
X-49959549Y-15249637D01*
X-49954491Y-15247225D01*
X-49954487Y-15247223D01*
X-49836958Y-15191164D01*
X-49756782Y-15152922D01*
X-49574346Y-15021829D01*
X-49418008Y-14860501D01*
X-49417561Y-14860935D01*
X-49403164Y-14846909D01*
X-49373208Y-14823923D01*
X-49222015Y-14657764D01*
X-49202781Y-14627103D01*
X-49105615Y-14472205D01*
X-49102636Y-14467456D01*
X-49018844Y-14259017D01*
X-48973287Y-14039033D01*
X-48970000Y-13982025D01*
X-48970000Y-336801D01*
X-48972949Y-303752D01*
X-48984384Y-175633D01*
X-48984883Y-170038D01*
X-49020118Y-41240D01*
X-49042683Y41240D01*
X-49044163Y46651D01*
X-49140878Y249418D01*
X-49271971Y431854D01*
X-49433299Y588192D01*
X-49432865Y588639D01*
X-49446891Y603036D01*
X-49469877Y632992D01*
X-49636036Y784185D01*
X-49640783Y787163D01*
X-49640786Y787165D01*
X-49821595Y900585D01*
X-49826344Y903564D01*
X-50034783Y987356D01*
X-50254767Y1032913D01*
X-50259378Y1033179D01*
X-50259379Y1033179D01*
X-50309952Y1036095D01*
X-50309956Y1036095D01*
X-50311775Y1036200D01*
X-63956999Y1036200D01*
X-63959786Y1035951D01*
X-63959792Y1035951D01*
X-64029929Y1029691D01*
X-64123762Y1021317D01*
X-64129176Y1019836D01*
X-64129181Y1019835D01*
X-64243738Y988495D01*
X-64340451Y962037D01*
X-64345509Y959625D01*
X-64345513Y959623D01*
X-64441835Y913679D01*
X-64543218Y865322D01*
X-64725654Y734229D01*
X-64881992Y572901D01*
X-64882439Y573335D01*
X-64896836Y559309D01*
X-64926792Y536323D01*
X-65077985Y370164D01*
X-65080963Y365417D01*
X-65080965Y365414D01*
X-65119645Y303752D01*
X-65197364Y179856D01*
X-65281156Y-28583D01*
X-65326713Y-248567D01*
X-65330000Y-305575D01*
X-65330000Y-13950799D01*
X-65329751Y-13953584D01*
X-65329751Y-13953594D01*
X-65316979Y-14096702D01*
X-65330846Y-14166331D01*
X-65380157Y-14217409D01*
X-65449254Y-14233720D01*
X-65508035Y-14215506D01*
X-65527059Y-14203916D01*
X-65527064Y-14203913D01*
X-65530295Y-14201945D01*
X-65533739Y-14200379D01*
X-65533743Y-14200377D01*
X-65644333Y-14150095D01*
X-65827586Y-14066775D01*
X-66138963Y-13968300D01*
X-66409975Y-13917336D01*
X-66456191Y-13908645D01*
X-66456193Y-13908645D01*
X-66459914Y-13907945D01*
X-66785792Y-13886586D01*
X-66789572Y-13886794D01*
X-66789573Y-13886794D01*
X-66887103Y-13892162D01*
X-67111876Y-13904532D01*
X-67115603Y-13905193D01*
X-67115607Y-13905193D01*
X-67210925Y-13922086D01*
X-67433443Y-13961522D01*
X-67437059Y-13962624D01*
X-67437067Y-13962626D01*
X-67701253Y-14043144D01*
X-67745833Y-14056731D01*
X-67749306Y-14058266D01*
X-67749305Y-14058266D01*
X-67843124Y-14099743D01*
X-67913515Y-14108994D01*
X-67977733Y-14078719D01*
X-68015389Y-14018531D01*
X-68019880Y-13982025D01*
X-68020000Y-13982025D01*
X-68020000Y-336801D01*
X-68022949Y-303752D01*
X-68034384Y-175633D01*
X-68034883Y-170038D01*
X-68070118Y-41240D01*
X-68092683Y41240D01*
X-68094163Y46651D01*
X-68190878Y249418D01*
X-68321971Y431854D01*
X-68483299Y588192D01*
X-68482865Y588639D01*
X-68496891Y603036D01*
X-68519877Y632992D01*
X-68686036Y784185D01*
X-68690783Y787163D01*
X-68690786Y787165D01*
X-68871595Y900585D01*
X-68876344Y903564D01*
X-69084783Y987356D01*
X-69304767Y1032913D01*
X-69309378Y1033179D01*
X-69309379Y1033179D01*
X-69359952Y1036095D01*
X-69359956Y1036095D01*
X-69361775Y1036200D01*
X-83006999Y1036200D01*
X-83009786Y1035951D01*
X-83009792Y1035951D01*
X-83079929Y1029691D01*
X-83173762Y1021317D01*
X-83179176Y1019836D01*
X-83179181Y1019835D01*
X-83293738Y988495D01*
X-83390451Y962037D01*
X-83395509Y959625D01*
X-83395513Y959623D01*
X-83491834Y913680D01*
X-83593218Y865322D01*
X-83775654Y734229D01*
X-83931992Y572901D01*
X-83932439Y573335D01*
X-83946836Y559309D01*
X-83976792Y536323D01*
X-84127985Y370164D01*
X-84130963Y365417D01*
X-84130965Y365414D01*
X-84169645Y303752D01*
X-84247364Y179856D01*
X-84331156Y-28583D01*
X-84376713Y-248567D01*
X-84380000Y-305575D01*
X-84380000Y-13950799D01*
X-84379751Y-13953586D01*
X-84379751Y-13953592D01*
X-84373955Y-14018531D01*
X-84365117Y-14117562D01*
X-84363636Y-14122976D01*
X-84363635Y-14122981D01*
X-84332774Y-14235787D01*
X-84305837Y-14334251D01*
X-84303425Y-14339309D01*
X-84303423Y-14339313D01*
X-84279770Y-14388901D01*
X-84209122Y-14537018D01*
X-84078029Y-14719454D01*
X-83966707Y-14827333D01*
X-83916701Y-14875792D01*
X-83917135Y-14876239D01*
X-83903109Y-14890636D01*
X-83880123Y-14920592D01*
X-83713964Y-15071785D01*
X-83709217Y-15074763D01*
X-83709214Y-15074765D01*
X-83580771Y-15155336D01*
X-83523656Y-15191164D01*
X-83315217Y-15274956D01*
X-83095233Y-15320513D01*
X-83090622Y-15320779D01*
X-83090621Y-15320779D01*
X-83040048Y-15323695D01*
X-83040044Y-15323695D01*
X-83038225Y-15323800D01*
X-69393001Y-15323800D01*
X-69393001Y-15324702D01*
X-69327591Y-15340797D01*
X-69278767Y-15392340D01*
X-69265560Y-15462098D01*
X-69276523Y-15502460D01*
X-69328098Y-15614336D01*
X-69329259Y-15617940D01*
X-69329259Y-15617941D01*
X-69337804Y-15644477D01*
X-69428203Y-15925192D01*
X-69428921Y-15928903D01*
X-69428922Y-15928907D01*
X-69489518Y-16242105D01*
X-69489519Y-16242114D01*
X-69490237Y-16245824D01*
X-69513302Y-16571585D01*
X-69497064Y-16897759D01*
X-69496423Y-16901490D01*
X-69496422Y-16901498D01*
X-69481891Y-16986060D01*
X-69441759Y-17219619D01*
X-69348186Y-17532504D01*
X-69346673Y-17535975D01*
X-69346671Y-17535981D01*
X-69337111Y-17557914D01*
X-69217703Y-17831881D01*
X-69217154Y-17832815D01*
X-69204156Y-17902022D01*
X-69230855Y-17967807D01*
X-69288881Y-18008714D01*
X-69336779Y-18015241D01*
X-69359950Y-18013905D01*
X-69359958Y-18013905D01*
X-69361775Y-18013800D01*
X-83006999Y-18013800D01*
X-83009786Y-18014049D01*
X-83009792Y-18014049D01*
X-83079929Y-18020309D01*
X-83173762Y-18028683D01*
X-83179176Y-18030164D01*
X-83179181Y-18030165D01*
X-83293738Y-18061505D01*
X-83390451Y-18087963D01*
X-83395509Y-18090375D01*
X-83395513Y-18090377D01*
X-83491834Y-18136320D01*
X-83593218Y-18184678D01*
X-83775654Y-18315771D01*
X-83931992Y-18477099D01*
X-83932439Y-18476665D01*
X-83946836Y-18490691D01*
X-83976792Y-18513677D01*
X-84127985Y-18679836D01*
X-84130963Y-18684583D01*
X-84130965Y-18684586D01*
X-84200872Y-18796029D01*
X-84247364Y-18870144D01*
X-84331156Y-19078583D01*
X-84376713Y-19298567D01*
X-84380000Y-19355575D01*
X-84380000Y-33000799D01*
X-85516999Y-33000799D01*
X-85516799Y-15617941D01*
X-85516559Y5099301D01*
X-84380000Y5099301D01*
X-84379751Y5096514D01*
X-84379751Y5096508D01*
X-84373491Y5026371D01*
X-84365117Y4932538D01*
X-84363636Y4927124D01*
X-84363635Y4927119D01*
X-84328691Y4799388D01*
X-84305837Y4715849D01*
X-84209122Y4513082D01*
X-84078029Y4330646D01*
X-83966707Y4222767D01*
X-83916701Y4174308D01*
X-83917135Y4173861D01*
X-83903109Y4159464D01*
X-83880123Y4129508D01*
X-83713964Y3978315D01*
X-83709217Y3975337D01*
X-83709214Y3975335D01*
X-83580771Y3894764D01*
X-83523656Y3858936D01*
X-83315217Y3775144D01*
X-83095233Y3729587D01*
X-83090622Y3729321D01*
X-83090621Y3729321D01*
X-83040048Y3726405D01*
X-83040044Y3726405D01*
X-83038225Y3726300D01*
X-69393001Y3726300D01*
X-69390214Y3726549D01*
X-69390208Y3726549D01*
X-69320071Y3732809D01*
X-69226238Y3741183D01*
X-69220824Y3742664D01*
X-69220819Y3742665D01*
X-69093088Y3777609D01*
X-69009549Y3800463D01*
X-69004491Y3802875D01*
X-69004487Y3802877D01*
X-68886958Y3858936D01*
X-68806782Y3897178D01*
X-68624346Y4028271D01*
X-68468008Y4189599D01*
X-68467561Y4189165D01*
X-68453164Y4203191D01*
X-68423208Y4226177D01*
X-68272015Y4392336D01*
X-68251086Y4425699D01*
X-68155615Y4577895D01*
X-68152636Y4582644D01*
X-68068844Y4791083D01*
X-68023287Y5011067D01*
X-68020000Y5068075D01*
X-68020000Y5099301D01*
X-65330000Y5099301D01*
X-65329751Y5096514D01*
X-65329751Y5096508D01*
X-65323491Y5026371D01*
X-65315117Y4932538D01*
X-65313636Y4927124D01*
X-65313635Y4927119D01*
X-65278691Y4799388D01*
X-65255837Y4715849D01*
X-65159122Y4513082D01*
X-65028029Y4330646D01*
X-64916707Y4222767D01*
X-64866701Y4174308D01*
X-64867135Y4173861D01*
X-64853109Y4159464D01*
X-64830123Y4129508D01*
X-64663964Y3978315D01*
X-64659217Y3975337D01*
X-64659214Y3975335D01*
X-64530771Y3894764D01*
X-64473656Y3858936D01*
X-64265217Y3775144D01*
X-64045233Y3729587D01*
X-64040622Y3729321D01*
X-64040621Y3729321D01*
X-63990048Y3726405D01*
X-63990044Y3726405D01*
X-63988225Y3726300D01*
X-50343001Y3726300D01*
X-50340214Y3726549D01*
X-50340208Y3726549D01*
X-50270071Y3732809D01*
X-50176238Y3741183D01*
X-50170824Y3742664D01*
X-50170819Y3742665D01*
X-50043088Y3777609D01*
X-49959549Y3800463D01*
X-49954491Y3802875D01*
X-49954487Y3802877D01*
X-49836958Y3858936D01*
X-49756782Y3897178D01*
X-49574346Y4028271D01*
X-49418008Y4189599D01*
X-49417561Y4189165D01*
X-49403164Y4203191D01*
X-49373208Y4226177D01*
X-49222015Y4392336D01*
X-49201086Y4425699D01*
X-49105615Y4577895D01*
X-49102636Y4582644D01*
X-49018844Y4791083D01*
X-48973287Y5011067D01*
X-48970000Y5068075D01*
X-48970000Y12243001D01*
X-46280000Y12243001D01*
X-46279751Y12240214D01*
X-46279751Y12240208D01*
X-46273491Y12170071D01*
X-46265117Y12076238D01*
X-46205837Y11859549D01*
X-46109122Y11656782D01*
X-45978029Y11474346D01*
X-45866707Y11366467D01*
X-45816701Y11318008D01*
X-45817135Y11317561D01*
X-45803109Y11303164D01*
X-45780123Y11273208D01*
X-45613964Y11122015D01*
X-45609217Y11119037D01*
X-45609214Y11119035D01*
X-45480771Y11038464D01*
X-45423656Y11002636D01*
X-45215217Y10918844D01*
X-44995233Y10873287D01*
X-44990622Y10873021D01*
X-44990621Y10873021D01*
X-44940048Y10870105D01*
X-44940044Y10870105D01*
X-44938225Y10870000D01*
X-31293001Y10870000D01*
X-31290214Y10870249D01*
X-31290208Y10870249D01*
X-31220071Y10876509D01*
X-31126238Y10884883D01*
X-31120824Y10886364D01*
X-31120819Y10886365D01*
X-30993088Y10921309D01*
X-30909549Y10944163D01*
X-30904491Y10946575D01*
X-30904487Y10946577D01*
X-30786958Y11002636D01*
X-30706782Y11040878D01*
X-30524346Y11171971D01*
X-30368008Y11333299D01*
X-30367561Y11332865D01*
X-30353164Y11346891D01*
X-30323208Y11369877D01*
X-30172015Y11536036D01*
X-30052636Y11726344D01*
X-29968844Y11934783D01*
X-29923287Y12154767D01*
X-29920000Y12211775D01*
X-29920000Y19386801D01*
X-27230000Y19386801D01*
X-27229751Y19384014D01*
X-27229751Y19384008D01*
X-27223491Y19313871D01*
X-27215117Y19220038D01*
X-27155837Y19003349D01*
X-27059122Y18800582D01*
X-26928029Y18618146D01*
X-26816707Y18510267D01*
X-26766701Y18461808D01*
X-26767135Y18461361D01*
X-26753109Y18446964D01*
X-26730123Y18417008D01*
X-26563964Y18265815D01*
X-26559217Y18262837D01*
X-26559214Y18262835D01*
X-26430771Y18182264D01*
X-26373656Y18146436D01*
X-26165217Y18062644D01*
X-25945233Y18017087D01*
X-25940622Y18016821D01*
X-25940621Y18016821D01*
X-25890048Y18013905D01*
X-25890044Y18013905D01*
X-25888225Y18013800D01*
X-12243001Y18013800D01*
X-12240214Y18014049D01*
X-12240208Y18014049D01*
X-12170071Y18020309D01*
X-12076238Y18028683D01*
X-12070824Y18030164D01*
X-12070819Y18030165D01*
X-11943088Y18065109D01*
X-11859549Y18087963D01*
X-11854491Y18090375D01*
X-11854487Y18090377D01*
X-11736958Y18146436D01*
X-11656782Y18184678D01*
X-11474346Y18315771D01*
X-11318008Y18477099D01*
X-11317561Y18476665D01*
X-11303164Y18490691D01*
X-11273208Y18513677D01*
X-11122015Y18679836D01*
X-11102781Y18710497D01*
X-11005615Y18865395D01*
X-11002636Y18870144D01*
X-10918844Y19078583D01*
X-10873287Y19298567D01*
X-10870000Y19355575D01*
X-10870000Y28911801D01*
X10870000Y28911801D01*
X10870249Y28909014D01*
X10870249Y28909008D01*
X10876509Y28838871D01*
X10884883Y28745038D01*
X10944163Y28528349D01*
X11040878Y28325582D01*
X11171971Y28143146D01*
X11283293Y28035267D01*
X11333299Y27986808D01*
X11332865Y27986361D01*
X11346891Y27971964D01*
X11369877Y27942008D01*
X11536036Y27790815D01*
X11540783Y27787837D01*
X11540786Y27787835D01*
X11669229Y27707264D01*
X11726344Y27671436D01*
X11934783Y27587644D01*
X12154767Y27542087D01*
X12159378Y27541821D01*
X12159379Y27541821D01*
X12209952Y27538905D01*
X12209956Y27538905D01*
X12211775Y27538800D01*
X25856999Y27538800D01*
X25859786Y27539049D01*
X25859792Y27539049D01*
X25929929Y27545309D01*
X26023762Y27553683D01*
X26029176Y27555164D01*
X26029181Y27555165D01*
X26156912Y27590109D01*
X26240451Y27612963D01*
X26245509Y27615375D01*
X26245513Y27615377D01*
X26363042Y27671436D01*
X26443218Y27709678D01*
X26625654Y27840771D01*
X26781992Y28002099D01*
X26782439Y28001665D01*
X26796836Y28015691D01*
X26826792Y28038677D01*
X26977985Y28204836D01*
X27097364Y28395144D01*
X27181156Y28603583D01*
X27226713Y28823567D01*
X27230000Y28880575D01*
X27230000Y42525799D01*
X27227051Y42558848D01*
X27215616Y42686967D01*
X27215117Y42692562D01*
X27155837Y42909251D01*
X27059122Y43112018D01*
X26928029Y43294454D01*
X26766701Y43450792D01*
X26767135Y43451239D01*
X26753109Y43465636D01*
X26730123Y43495592D01*
X26563964Y43646785D01*
X26559217Y43649763D01*
X26559214Y43649765D01*
X26378405Y43763185D01*
X26373656Y43766164D01*
X26165217Y43849956D01*
X25945233Y43895513D01*
X25940622Y43895779D01*
X25940621Y43895779D01*
X25890048Y43898695D01*
X25890044Y43898695D01*
X25888225Y43898800D01*
X12243001Y43898800D01*
X12240214Y43898551D01*
X12240208Y43898551D01*
X12170071Y43892291D01*
X12076238Y43883917D01*
X12070824Y43882436D01*
X12070819Y43882435D01*
X11956262Y43851095D01*
X11859549Y43824637D01*
X11854491Y43822225D01*
X11854487Y43822223D01*
X11758165Y43776279D01*
X11656782Y43727922D01*
X11474346Y43596829D01*
X11318008Y43435501D01*
X11317561Y43435935D01*
X11303164Y43421909D01*
X11273208Y43398923D01*
X11122015Y43232764D01*
X11002636Y43042456D01*
X10918844Y42834017D01*
X10873287Y42614033D01*
X10870000Y42557025D01*
X10870000Y28911801D01*
X-10870000Y28911801D01*
X-10870000Y31293001D01*
X-8180000Y31293001D01*
X-8179751Y31290214D01*
X-8179751Y31290208D01*
X-8173491Y31220071D01*
X-8165117Y31126238D01*
X-8105837Y30909549D01*
X-8009122Y30706782D01*
X-7878029Y30524346D01*
X-7766707Y30416467D01*
X-7716701Y30368008D01*
X-7717135Y30367561D01*
X-7703109Y30353164D01*
X-7680123Y30323208D01*
X-7513964Y30172015D01*
X-7509217Y30169037D01*
X-7509214Y30169035D01*
X-7380771Y30088464D01*
X-7323656Y30052636D01*
X-7115217Y29968844D01*
X-6895233Y29923287D01*
X-6890622Y29923021D01*
X-6890621Y29923021D01*
X-6840048Y29920105D01*
X-6840044Y29920105D01*
X-6838225Y29920000D01*
X6806999Y29920000D01*
X6809786Y29920249D01*
X6809792Y29920249D01*
X6879929Y29926509D01*
X6973762Y29934883D01*
X6979176Y29936364D01*
X6979181Y29936365D01*
X7106912Y29971309D01*
X7190451Y29994163D01*
X7195509Y29996575D01*
X7195513Y29996577D01*
X7313042Y30052636D01*
X7393218Y30090878D01*
X7575654Y30221971D01*
X7731992Y30383299D01*
X7732439Y30382865D01*
X7746836Y30396891D01*
X7776792Y30419877D01*
X7927985Y30586036D01*
X8047364Y30776344D01*
X8131156Y30984783D01*
X8176713Y31204767D01*
X8180000Y31261775D01*
X8180000Y44906999D01*
X8177051Y44940048D01*
X8165616Y45068167D01*
X8165117Y45073762D01*
X8159604Y45093917D01*
X8114772Y45257791D01*
X8105837Y45290451D01*
X8009122Y45493218D01*
X7878029Y45675654D01*
X7716701Y45831992D01*
X7717135Y45832439D01*
X7703109Y45846836D01*
X7698922Y45852292D01*
X7680123Y45876792D01*
X7513964Y46027985D01*
X7509217Y46030963D01*
X7509214Y46030965D01*
X7328405Y46144385D01*
X7323656Y46147364D01*
X7115217Y46231156D01*
X6895233Y46276713D01*
X6890622Y46276979D01*
X6890621Y46276979D01*
X6840048Y46279895D01*
X6840044Y46279895D01*
X6838225Y46280000D01*
X-6806999Y46280000D01*
X-6809786Y46279751D01*
X-6809792Y46279751D01*
X-6879929Y46273491D01*
X-6973762Y46265117D01*
X-6979176Y46263636D01*
X-6979181Y46263635D01*
X-7093738Y46232295D01*
X-7190451Y46205837D01*
X-7195509Y46203425D01*
X-7195513Y46203423D01*
X-7291834Y46157480D01*
X-7393218Y46109122D01*
X-7575654Y45978029D01*
X-7731992Y45816701D01*
X-7732439Y45817135D01*
X-7746836Y45803109D01*
X-7776792Y45780123D01*
X-7927985Y45613964D01*
X-7930963Y45609217D01*
X-7930965Y45609214D01*
X-8036808Y45440484D01*
X-8047364Y45423656D01*
X-8131156Y45215217D01*
X-8176713Y44995233D01*
X-8180000Y44938225D01*
X-8180000Y31293001D01*
X-10870000Y31293001D01*
X-10870000Y33000799D01*
X-10872949Y33033848D01*
X-10884384Y33161967D01*
X-10884883Y33167562D01*
X-10889384Y33184018D01*
X-10942683Y33378840D01*
X-10944163Y33384251D01*
X-11040878Y33587018D01*
X-11171971Y33769454D01*
X-11333299Y33925792D01*
X-11332865Y33926239D01*
X-11346891Y33940636D01*
X-11369877Y33970592D01*
X-11536036Y34121785D01*
X-11540783Y34124763D01*
X-11540786Y34124765D01*
X-11721595Y34238185D01*
X-11726344Y34241164D01*
X-11934783Y34324956D01*
X-12154767Y34370513D01*
X-12159378Y34370779D01*
X-12159379Y34370779D01*
X-12209952Y34373695D01*
X-12209956Y34373695D01*
X-12211775Y34373800D01*
X-25856999Y34373800D01*
X-25859786Y34373551D01*
X-25859792Y34373551D01*
X-25929929Y34367291D01*
X-26023762Y34358917D01*
X-26029176Y34357436D01*
X-26029181Y34357435D01*
X-26143738Y34326095D01*
X-26240451Y34299637D01*
X-26245509Y34297225D01*
X-26245513Y34297223D01*
X-26341834Y34251280D01*
X-26443218Y34202922D01*
X-26625654Y34071829D01*
X-26781992Y33910501D01*
X-26782439Y33910935D01*
X-26796836Y33896909D01*
X-26826792Y33873923D01*
X-26977985Y33707764D01*
X-27097364Y33517456D01*
X-27181156Y33309017D01*
X-27226713Y33089033D01*
X-27230000Y33032025D01*
X-27230000Y19386801D01*
X-29920000Y19386801D01*
X-29920000Y25856999D01*
X-29922949Y25890048D01*
X-29934384Y26018167D01*
X-29934883Y26023762D01*
X-29994163Y26240451D01*
X-30090878Y26443218D01*
X-30221971Y26625654D01*
X-30383299Y26781992D01*
X-30382865Y26782439D01*
X-30396891Y26796836D01*
X-30419877Y26826792D01*
X-30586036Y26977985D01*
X-30590783Y26980963D01*
X-30590786Y26980965D01*
X-30771595Y27094385D01*
X-30776344Y27097364D01*
X-30984783Y27181156D01*
X-31204767Y27226713D01*
X-31209378Y27226979D01*
X-31209379Y27226979D01*
X-31259952Y27229895D01*
X-31259956Y27229895D01*
X-31261775Y27230000D01*
X-44906999Y27230000D01*
X-44909786Y27229751D01*
X-44909792Y27229751D01*
X-44979929Y27223491D01*
X-45073762Y27215117D01*
X-45079176Y27213636D01*
X-45079181Y27213635D01*
X-45193738Y27182295D01*
X-45290451Y27155837D01*
X-45295509Y27153425D01*
X-45295513Y27153423D01*
X-45391834Y27107480D01*
X-45493218Y27059122D01*
X-45675654Y26928029D01*
X-45831992Y26766701D01*
X-45832439Y26767135D01*
X-45846836Y26753109D01*
X-45876792Y26730123D01*
X-46027985Y26563964D01*
X-46147364Y26373656D01*
X-46231156Y26165217D01*
X-46276713Y25945233D01*
X-46280000Y25888225D01*
X-46280000Y12243001D01*
X-48970000Y12243001D01*
X-48970000Y18713299D01*
X-48972949Y18746348D01*
X-48977875Y18801533D01*
X-48984883Y18880062D01*
X-49044163Y19096751D01*
X-49140878Y19299518D01*
X-49271971Y19481954D01*
X-49433299Y19638292D01*
X-49432865Y19638739D01*
X-49446891Y19653136D01*
X-49469877Y19683092D01*
X-49636036Y19834285D01*
X-49640783Y19837263D01*
X-49640786Y19837265D01*
X-49821595Y19950685D01*
X-49826344Y19953664D01*
X-50034783Y20037456D01*
X-50254767Y20083013D01*
X-50259378Y20083279D01*
X-50259379Y20083279D01*
X-50309952Y20086195D01*
X-50309956Y20086195D01*
X-50311775Y20086300D01*
X-63956999Y20086300D01*
X-63959786Y20086051D01*
X-63959792Y20086051D01*
X-64029929Y20079791D01*
X-64123762Y20071417D01*
X-64129176Y20069936D01*
X-64129181Y20069935D01*
X-64243738Y20038595D01*
X-64340451Y20012137D01*
X-64345509Y20009725D01*
X-64345513Y20009723D01*
X-64441835Y19963779D01*
X-64543218Y19915422D01*
X-64725654Y19784329D01*
X-64881992Y19623001D01*
X-64882439Y19623435D01*
X-64896836Y19609409D01*
X-64926792Y19586423D01*
X-65077985Y19420264D01*
X-65080963Y19415517D01*
X-65080965Y19415514D01*
X-65150872Y19304071D01*
X-65197364Y19229956D01*
X-65281156Y19021517D01*
X-65326713Y18801533D01*
X-65330000Y18744525D01*
X-65330000Y5099301D01*
X-68020000Y5099301D01*
X-68020000Y18713299D01*
X-68022949Y18746348D01*
X-68027875Y18801533D01*
X-68034883Y18880062D01*
X-68094163Y19096751D01*
X-68190878Y19299518D01*
X-68321971Y19481954D01*
X-68483299Y19638292D01*
X-68482865Y19638739D01*
X-68496891Y19653136D01*
X-68519877Y19683092D01*
X-68686036Y19834285D01*
X-68690783Y19837263D01*
X-68690786Y19837265D01*
X-68871595Y19950685D01*
X-68876344Y19953664D01*
X-69084783Y20037456D01*
X-69304767Y20083013D01*
X-69309378Y20083279D01*
X-69309379Y20083279D01*
X-69359952Y20086195D01*
X-69359956Y20086195D01*
X-69361775Y20086300D01*
X-83006999Y20086300D01*
X-83009786Y20086051D01*
X-83009792Y20086051D01*
X-83079929Y20079791D01*
X-83173762Y20071417D01*
X-83179176Y20069936D01*
X-83179181Y20069935D01*
X-83293738Y20038595D01*
X-83390451Y20012137D01*
X-83395509Y20009725D01*
X-83395513Y20009723D01*
X-83491835Y19963779D01*
X-83593218Y19915422D01*
X-83775654Y19784329D01*
X-83931992Y19623001D01*
X-83932439Y19623435D01*
X-83946836Y19609409D01*
X-83976792Y19586423D01*
X-84127985Y19420264D01*
X-84130963Y19415517D01*
X-84130965Y19415514D01*
X-84200872Y19304071D01*
X-84247364Y19229956D01*
X-84331156Y19021517D01*
X-84376713Y18801533D01*
X-84380000Y18744525D01*
X-84380000Y5099301D01*
X-85516559Y5099301D01*
X-85516384Y20226956D01*
X-85510205Y20265929D01*
X-85478427Y20363626D01*
X-85468795Y20385762D01*
X-85396197Y20516666D01*
X-85382522Y20536556D01*
X-85286298Y20651210D01*
X-85269080Y20668129D01*
X-85152752Y20762332D01*
X-85132626Y20775655D01*
X-85000466Y20845947D01*
X-84978167Y20855188D01*
X-84835035Y20898986D01*
X-84811388Y20903804D01*
X-84695522Y20916023D01*
X-84690695Y20916532D01*
X-84674552Y20916208D01*
X-84674550Y20916854D01*
X-84665574Y20916826D01*
X-84656694Y20915527D01*
X-84628225Y20919515D01*
X-84610697Y20920732D01*
X-68260532Y20912472D01*
X-67865351Y20912272D01*
X-67845641Y20910711D01*
X-67822772Y20907077D01*
X-67816428Y20907057D01*
X-67815088Y20907053D01*
X-67815086Y20907053D01*
X-67810219Y20907038D01*
X-67799017Y20908746D01*
X-67790160Y20909777D01*
X-67685760Y20918199D01*
X-67580883Y20926659D01*
X-67356505Y20977610D01*
X-67141661Y21059975D01*
X-66940726Y21172077D01*
X-66757790Y21311634D01*
X-66754647Y21314835D01*
X-66754641Y21314840D01*
X-66626849Y21444978D01*
X-66596577Y21475805D01*
X-66460368Y21661248D01*
X-66397622Y21778685D01*
X-66354061Y21860214D01*
X-66354060Y21860217D01*
X-66351938Y21864188D01*
X-66273493Y22080494D01*
X-66226629Y22305762D01*
X-66225004Y22331800D01*
X-66221940Y22380921D01*
X-66214663Y22497566D01*
X-66213348Y22509469D01*
X-66211220Y22522863D01*
X-66211181Y22535416D01*
X-66211913Y22540219D01*
X-66211914Y22540226D01*
X-66214810Y22559214D01*
X-66216250Y22578506D01*
X-66212548Y24149301D01*
X-65330000Y24149301D01*
X-65329751Y24146514D01*
X-65329751Y24146508D01*
X-65323491Y24076371D01*
X-65315117Y23982538D01*
X-65255837Y23765849D01*
X-65159122Y23563082D01*
X-65028029Y23380646D01*
X-64916707Y23272767D01*
X-64866701Y23224308D01*
X-64867135Y23223861D01*
X-64853109Y23209464D01*
X-64830123Y23179508D01*
X-64663964Y23028315D01*
X-64659217Y23025337D01*
X-64659214Y23025335D01*
X-64530771Y22944764D01*
X-64473656Y22908936D01*
X-64265217Y22825144D01*
X-64045233Y22779587D01*
X-64040622Y22779321D01*
X-64040621Y22779321D01*
X-63990048Y22776405D01*
X-63990044Y22776405D01*
X-63988225Y22776300D01*
X-50343001Y22776300D01*
X-50340214Y22776549D01*
X-50340208Y22776549D01*
X-50270071Y22782809D01*
X-50176238Y22791183D01*
X-50170824Y22792664D01*
X-50170819Y22792665D01*
X-50043088Y22827609D01*
X-49959549Y22850463D01*
X-49954491Y22852875D01*
X-49954487Y22852877D01*
X-49836958Y22908936D01*
X-49756782Y22947178D01*
X-49574346Y23078271D01*
X-49418008Y23239599D01*
X-49417561Y23239165D01*
X-49403164Y23253191D01*
X-49373208Y23276177D01*
X-49222015Y23442336D01*
X-49202781Y23472997D01*
X-49105615Y23627895D01*
X-49102636Y23632644D01*
X-49018844Y23841083D01*
X-48973287Y24061067D01*
X-48970000Y24118075D01*
X-48970000Y31293001D01*
X-46280000Y31293001D01*
X-46279751Y31290214D01*
X-46279751Y31290208D01*
X-46273491Y31220071D01*
X-46265117Y31126238D01*
X-46205837Y30909549D01*
X-46109122Y30706782D01*
X-45978029Y30524346D01*
X-45866707Y30416467D01*
X-45816701Y30368008D01*
X-45817135Y30367561D01*
X-45803109Y30353164D01*
X-45780123Y30323208D01*
X-45613964Y30172015D01*
X-45609217Y30169037D01*
X-45609214Y30169035D01*
X-45480771Y30088464D01*
X-45423656Y30052636D01*
X-45215217Y29968844D01*
X-44995233Y29923287D01*
X-44990622Y29923021D01*
X-44990621Y29923021D01*
X-44940048Y29920105D01*
X-44940044Y29920105D01*
X-44938225Y29920000D01*
X-31293001Y29920000D01*
X-31290214Y29920249D01*
X-31290208Y29920249D01*
X-31220071Y29926509D01*
X-31126238Y29934883D01*
X-31120824Y29936364D01*
X-31120819Y29936365D01*
X-30993088Y29971309D01*
X-30909549Y29994163D01*
X-30904491Y29996575D01*
X-30904487Y29996577D01*
X-30786958Y30052636D01*
X-30706782Y30090878D01*
X-30524346Y30221971D01*
X-30368008Y30383299D01*
X-30367561Y30382865D01*
X-30353164Y30396891D01*
X-30323208Y30419877D01*
X-30172015Y30586036D01*
X-30052636Y30776344D01*
X-29968844Y30984783D01*
X-29923287Y31204767D01*
X-29920000Y31261775D01*
X-29920000Y38436801D01*
X-27230000Y38436801D01*
X-27229751Y38434014D01*
X-27229751Y38434008D01*
X-27223491Y38363871D01*
X-27215117Y38270038D01*
X-27155837Y38053349D01*
X-27059122Y37850582D01*
X-26928029Y37668146D01*
X-26816707Y37560267D01*
X-26766701Y37511808D01*
X-26767135Y37511361D01*
X-26753109Y37496964D01*
X-26730123Y37467008D01*
X-26563964Y37315815D01*
X-26559217Y37312837D01*
X-26559214Y37312835D01*
X-26430771Y37232264D01*
X-26373656Y37196436D01*
X-26165217Y37112644D01*
X-25945233Y37067087D01*
X-25940622Y37066821D01*
X-25940621Y37066821D01*
X-25890048Y37063905D01*
X-25890044Y37063905D01*
X-25888225Y37063800D01*
X-12243001Y37063800D01*
X-12240214Y37064049D01*
X-12240208Y37064049D01*
X-12170071Y37070309D01*
X-12076238Y37078683D01*
X-12070824Y37080164D01*
X-12070819Y37080165D01*
X-11943088Y37115109D01*
X-11859549Y37137963D01*
X-11854491Y37140375D01*
X-11854487Y37140377D01*
X-11736958Y37196436D01*
X-11656782Y37234678D01*
X-11474346Y37365771D01*
X-11318008Y37527099D01*
X-11317561Y37526665D01*
X-11303164Y37540691D01*
X-11273208Y37563677D01*
X-11122015Y37729836D01*
X-11102781Y37760497D01*
X-11005615Y37915395D01*
X-11002636Y37920144D01*
X-10918844Y38128583D01*
X-10873287Y38348567D01*
X-10870000Y38405575D01*
X-10870000Y52050799D01*
X-10872949Y52083848D01*
X-10884384Y52211967D01*
X-10884883Y52217562D01*
X-10944163Y52434251D01*
X-11040878Y52637018D01*
X-11171971Y52819454D01*
X-11333299Y52975792D01*
X-11332865Y52976239D01*
X-11346891Y52990636D01*
X-11369877Y53020592D01*
X-11536036Y53171785D01*
X-11540783Y53174763D01*
X-11540786Y53174765D01*
X-11721595Y53288185D01*
X-11726344Y53291164D01*
X-11934783Y53374956D01*
X-12154767Y53420513D01*
X-12159378Y53420779D01*
X-12159379Y53420779D01*
X-12209952Y53423695D01*
X-12209956Y53423695D01*
X-12211775Y53423800D01*
X-25856999Y53423800D01*
X-25859786Y53423551D01*
X-25859792Y53423551D01*
X-25929929Y53417291D01*
X-26023762Y53408917D01*
X-26029176Y53407436D01*
X-26029181Y53407435D01*
X-26143738Y53376095D01*
X-26240451Y53349637D01*
X-26245509Y53347225D01*
X-26245513Y53347223D01*
X-26341834Y53301280D01*
X-26443218Y53252922D01*
X-26625654Y53121829D01*
X-26781992Y52960501D01*
X-26782439Y52960935D01*
X-26796836Y52946909D01*
X-26826792Y52923923D01*
X-26977985Y52757764D01*
X-27097364Y52567456D01*
X-27181156Y52359017D01*
X-27226713Y52139033D01*
X-27230000Y52082025D01*
X-27230000Y38436801D01*
X-29920000Y38436801D01*
X-29920000Y44906999D01*
X-29922949Y44940048D01*
X-29934384Y45068167D01*
X-29934883Y45073762D01*
X-29940396Y45093917D01*
X-29985228Y45257791D01*
X-29994163Y45290451D01*
X-30090878Y45493218D01*
X-30221971Y45675654D01*
X-30383299Y45831992D01*
X-30382865Y45832439D01*
X-30396891Y45846836D01*
X-30401078Y45852292D01*
X-30419877Y45876792D01*
X-30586036Y46027985D01*
X-30590783Y46030963D01*
X-30590786Y46030965D01*
X-30771595Y46144385D01*
X-30776344Y46147364D01*
X-30984783Y46231156D01*
X-31204767Y46276713D01*
X-31209378Y46276979D01*
X-31209379Y46276979D01*
X-31259952Y46279895D01*
X-31259956Y46279895D01*
X-31261775Y46280000D01*
X-44906999Y46280000D01*
X-44909786Y46279751D01*
X-44909792Y46279751D01*
X-44979929Y46273491D01*
X-45073762Y46265117D01*
X-45079176Y46263636D01*
X-45079181Y46263635D01*
X-45193738Y46232295D01*
X-45290451Y46205837D01*
X-45295509Y46203425D01*
X-45295513Y46203423D01*
X-45391835Y46157479D01*
X-45493218Y46109122D01*
X-45675654Y45978029D01*
X-45831992Y45816701D01*
X-45832439Y45817135D01*
X-45846836Y45803109D01*
X-45876792Y45780123D01*
X-46027985Y45613964D01*
X-46030963Y45609217D01*
X-46030965Y45609214D01*
X-46136808Y45440484D01*
X-46147364Y45423656D01*
X-46231156Y45215217D01*
X-46276713Y44995233D01*
X-46280000Y44938225D01*
X-46280000Y31293001D01*
X-48970000Y31293001D01*
X-48970000Y37763299D01*
X-48972949Y37796348D01*
X-48977875Y37851533D01*
X-48984883Y37930062D01*
X-49044163Y38146751D01*
X-49140878Y38349518D01*
X-49271971Y38531954D01*
X-49433299Y38688292D01*
X-49432865Y38688739D01*
X-49446891Y38703136D01*
X-49469877Y38733092D01*
X-49636036Y38884285D01*
X-49640783Y38887263D01*
X-49640786Y38887265D01*
X-49821595Y39000685D01*
X-49826344Y39003664D01*
X-50034783Y39087456D01*
X-50254767Y39133013D01*
X-50259378Y39133279D01*
X-50259379Y39133279D01*
X-50309952Y39136195D01*
X-50309956Y39136195D01*
X-50311775Y39136300D01*
X-63956999Y39136300D01*
X-63959786Y39136051D01*
X-63959792Y39136051D01*
X-64029929Y39129791D01*
X-64123762Y39121417D01*
X-64129176Y39119936D01*
X-64129181Y39119935D01*
X-64243738Y39088595D01*
X-64340451Y39062137D01*
X-64345509Y39059725D01*
X-64345513Y39059723D01*
X-64441834Y39013780D01*
X-64543218Y38965422D01*
X-64725654Y38834329D01*
X-64881992Y38673001D01*
X-64882439Y38673435D01*
X-64896836Y38659409D01*
X-64926792Y38636423D01*
X-65077985Y38470264D01*
X-65080963Y38465517D01*
X-65080965Y38465514D01*
X-65150872Y38354071D01*
X-65197364Y38279956D01*
X-65281156Y38071517D01*
X-65326713Y37851533D01*
X-65330000Y37794525D01*
X-65330000Y24149301D01*
X-66212548Y24149301D01*
X-66176793Y39321823D01*
X-66175464Y39339777D01*
X-66172684Y39358768D01*
X-66172684Y39358769D01*
X-66171384Y39367648D01*
X-66172645Y39376656D01*
X-66173194Y39407100D01*
X-66170693Y39431262D01*
X-66164458Y39491517D01*
X-66158430Y39519079D01*
X-66124952Y39617620D01*
X-66112941Y39643152D01*
X-66073750Y39706800D01*
X-66058377Y39731767D01*
X-66040988Y39753983D01*
X-65968070Y39828240D01*
X-65946170Y39846033D01*
X-65858556Y39902201D01*
X-65833249Y39914673D01*
X-65735333Y39949937D01*
X-65707886Y39956465D01*
X-65695536Y39957970D01*
X-65630221Y39965931D01*
X-65614575Y39966014D01*
X-65614572Y39966855D01*
X-65605596Y39966827D01*
X-65596717Y39965527D01*
X-65587833Y39966771D01*
X-65587832Y39966771D01*
X-65519793Y39976298D01*
X-65492317Y39980145D01*
X-65474704Y39981362D01*
X-61113580Y39976391D01*
X-48755468Y39962303D01*
X-48735841Y39960742D01*
X-48720533Y39958310D01*
X-48712772Y39957077D01*
X-48706397Y39957057D01*
X-48705088Y39957053D01*
X-48705086Y39957053D01*
X-48700219Y39957038D01*
X-48689017Y39958746D01*
X-48680160Y39959777D01*
X-48575760Y39968199D01*
X-48470883Y39976659D01*
X-48246505Y40027610D01*
X-48031661Y40109975D01*
X-47830726Y40222077D01*
X-47647790Y40361634D01*
X-47644647Y40364835D01*
X-47644641Y40364840D01*
X-47566260Y40444660D01*
X-47486577Y40525805D01*
X-47350368Y40711248D01*
X-47241938Y40914188D01*
X-47163493Y41130494D01*
X-47116629Y41355762D01*
X-47115004Y41381800D01*
X-47111940Y41430921D01*
X-47104663Y41547566D01*
X-47103348Y41559469D01*
X-47101220Y41572863D01*
X-47101181Y41585416D01*
X-47104999Y41610454D01*
X-47106439Y41629316D01*
X-47107533Y42686967D01*
X-47108650Y43766164D01*
X-47111533Y46551814D01*
X-47111533Y46551819D01*
X-47111538Y46556293D01*
X-47116146Y46588235D01*
X-47116768Y46619196D01*
X-47114458Y46641517D01*
X-47108430Y46669079D01*
X-47074952Y46767620D01*
X-47062941Y46793152D01*
X-47008378Y46881766D01*
X-46990988Y46903983D01*
X-46918070Y46978240D01*
X-46896170Y46996033D01*
X-46808556Y47052201D01*
X-46783249Y47064673D01*
X-46685333Y47099937D01*
X-46657886Y47106465D01*
X-46645291Y47108000D01*
X-46580221Y47115931D01*
X-46564579Y47116014D01*
X-46564576Y47116855D01*
X-46555599Y47116827D01*
X-46546717Y47115527D01*
X-46518305Y47119506D01*
X-46500772Y47120722D01*
X-29710466Y47111527D01*
X-29690763Y47109966D01*
X-29672696Y47107095D01*
X-29672686Y47107094D01*
X-29667883Y47106331D01*
X-29661539Y47106311D01*
X-29660199Y47106307D01*
X-29660197Y47106307D01*
X-29655330Y47106292D01*
X-29644128Y47108000D01*
X-29635271Y47109031D01*
X-29524387Y47117976D01*
X-29425994Y47125913D01*
X-29201616Y47176864D01*
X-28986772Y47259229D01*
X-28785837Y47371331D01*
X-28602901Y47510888D01*
X-28599758Y47514089D01*
X-28599752Y47514094D01*
X-28468466Y47647790D01*
X-28441688Y47675059D01*
X-28305479Y47860502D01*
X-28235416Y47991633D01*
X-28199172Y48059468D01*
X-28199171Y48059471D01*
X-28197049Y48063442D01*
X-28118604Y48279748D01*
X-28071740Y48505016D01*
X-28059774Y48696820D01*
X-28058459Y48708723D01*
X-28056331Y48722117D01*
X-28056292Y48734670D01*
X-28060110Y48759708D01*
X-28061550Y48778569D01*
X-28066562Y53612972D01*
X-28065233Y53631353D01*
X-28062684Y53648767D01*
X-28062684Y53648769D01*
X-28061384Y53657648D01*
X-28062645Y53666656D01*
X-28063194Y53697100D01*
X-28063147Y53697546D01*
X-28054458Y53781517D01*
X-28048430Y53809079D01*
X-28014952Y53907620D01*
X-28002941Y53933152D01*
X-27995885Y53944610D01*
X-27948377Y54021767D01*
X-27930988Y54043983D01*
X-27858070Y54118240D01*
X-27836170Y54136033D01*
X-27748556Y54192201D01*
X-27723249Y54204673D01*
X-27700217Y54212968D01*
X-27625333Y54239937D01*
X-27597886Y54246465D01*
X-27585536Y54247970D01*
X-27520221Y54255931D01*
X-27504575Y54256014D01*
X-27504572Y54256855D01*
X-27495596Y54256827D01*
X-27486717Y54255527D01*
X-27477833Y54256771D01*
X-27477831Y54256771D01*
X-27351358Y54274480D01*
X-27351357Y54274480D01*
X-27342467Y54275725D01*
X-27339016Y54277281D01*
X-27309226Y54281500D01*
X-10774907Y54281500D01*
X-10756419Y54280136D01*
G37*
%TD.AperFunction*%
%TD*%
M02*
