G04 #@! TF.GenerationSoftware,KiCad,Pcbnew,(6.0.5)*
G04 #@! TF.CreationDate,2022-10-04T21:25:23-03:00*
G04 #@! TF.ProjectId,bluejay_plate,626c7565-6a61-4795-9f70-6c6174652e6b,rev?*
G04 #@! TF.SameCoordinates,Original*
G04 #@! TF.FileFunction,Legend,Top*
G04 #@! TF.FilePolarity,Positive*
%FSLAX46Y46*%
G04 Gerber Fmt 4.6, Leading zero omitted, Abs format (unit mm)*
G04 Created by KiCad (PCBNEW (6.0.5)) date 2022-10-04 21:25:23*
%MOMM*%
%LPD*%
G01*
G04 APERTURE LIST*
%ADD10C,0.150000*%
%ADD11C,0.250000*%
%ADD12C,1.700000*%
G04 APERTURE END LIST*
D10*
X-23619047Y36287619D02*
X-23619047Y35573333D01*
X-23666666Y35430476D01*
X-23761904Y35335238D01*
X-23904761Y35287619D01*
X-24000000Y35287619D01*
X-22666666Y35287619D02*
X-23142857Y35287619D01*
X-23142857Y36287619D01*
X-21761904Y35382857D02*
X-21809523Y35335238D01*
X-21952380Y35287619D01*
X-22047619Y35287619D01*
X-22190476Y35335238D01*
X-22285714Y35430476D01*
X-22333333Y35525714D01*
X-22380952Y35716190D01*
X-22380952Y35859047D01*
X-22333333Y36049523D01*
X-22285714Y36144761D01*
X-22190476Y36240000D01*
X-22047619Y36287619D01*
X-21952380Y36287619D01*
X-21809523Y36240000D01*
X-21761904Y36192380D01*
X-21047619Y36287619D02*
X-21047619Y35573333D01*
X-21095238Y35430476D01*
X-21190476Y35335238D01*
X-21333333Y35287619D01*
X-21428571Y35287619D01*
X-20095238Y35287619D02*
X-20571428Y35287619D01*
X-20571428Y36287619D01*
X-19190476Y35382857D02*
X-19238095Y35335238D01*
X-19380952Y35287619D01*
X-19476190Y35287619D01*
X-19619047Y35335238D01*
X-19714285Y35430476D01*
X-19761904Y35525714D01*
X-19809523Y35716190D01*
X-19809523Y35859047D01*
X-19761904Y36049523D01*
X-19714285Y36144761D01*
X-19619047Y36240000D01*
X-19476190Y36287619D01*
X-19380952Y36287619D01*
X-19238095Y36240000D01*
X-19190476Y36192380D01*
X-18476190Y36287619D02*
X-18476190Y35573333D01*
X-18523809Y35430476D01*
X-18619047Y35335238D01*
X-18761904Y35287619D01*
X-18857142Y35287619D01*
X-17523809Y35287619D02*
X-18000000Y35287619D01*
X-18000000Y36287619D01*
X-16619047Y35382857D02*
X-16666666Y35335238D01*
X-16809523Y35287619D01*
X-16904761Y35287619D01*
X-17047619Y35335238D01*
X-17142857Y35430476D01*
X-17190476Y35525714D01*
X-17238095Y35716190D01*
X-17238095Y35859047D01*
X-17190476Y36049523D01*
X-17142857Y36144761D01*
X-17047619Y36240000D01*
X-16904761Y36287619D01*
X-16809523Y36287619D01*
X-16666666Y36240000D01*
X-16619047Y36192380D01*
X-15904761Y36287619D02*
X-15904761Y35573333D01*
X-15952380Y35430476D01*
X-16047619Y35335238D01*
X-16190476Y35287619D01*
X-16285714Y35287619D01*
X-14952380Y35287619D02*
X-15428571Y35287619D01*
X-15428571Y36287619D01*
X-14047619Y35382857D02*
X-14095238Y35335238D01*
X-14238095Y35287619D01*
X-14333333Y35287619D01*
X-14476190Y35335238D01*
X-14571428Y35430476D01*
X-14619047Y35525714D01*
X-14666666Y35716190D01*
X-14666666Y35859047D01*
X-14619047Y36049523D01*
X-14571428Y36144761D01*
X-14476190Y36240000D01*
X-14333333Y36287619D01*
X-14238095Y36287619D01*
X-14095238Y36240000D01*
X-14047619Y36192380D01*
D11*
X-28462857Y-32142857D02*
X-28248571Y-32214285D01*
X-28177142Y-32285714D01*
X-28105714Y-32428571D01*
X-28105714Y-32642857D01*
X-28177142Y-32785714D01*
X-28248571Y-32857142D01*
X-28391428Y-32928571D01*
X-28962857Y-32928571D01*
X-28962857Y-31428571D01*
X-28462857Y-31428571D01*
X-28320000Y-31500000D01*
X-28248571Y-31571428D01*
X-28177142Y-31714285D01*
X-28177142Y-31857142D01*
X-28248571Y-32000000D01*
X-28320000Y-32071428D01*
X-28462857Y-32142857D01*
X-28962857Y-32142857D01*
X-27248571Y-32928571D02*
X-27391428Y-32857142D01*
X-27462857Y-32714285D01*
X-27462857Y-31428571D01*
X-26034285Y-31928571D02*
X-26034285Y-32928571D01*
X-26677142Y-31928571D02*
X-26677142Y-32714285D01*
X-26605714Y-32857142D01*
X-26462857Y-32928571D01*
X-26248571Y-32928571D01*
X-26105714Y-32857142D01*
X-26034285Y-32785714D01*
X-24748571Y-32857142D02*
X-24891428Y-32928571D01*
X-25177142Y-32928571D01*
X-25320000Y-32857142D01*
X-25391428Y-32714285D01*
X-25391428Y-32142857D01*
X-25320000Y-32000000D01*
X-25177142Y-31928571D01*
X-24891428Y-31928571D01*
X-24748571Y-32000000D01*
X-24677142Y-32142857D01*
X-24677142Y-32285714D01*
X-25391428Y-32428571D01*
X-23605714Y-31428571D02*
X-23605714Y-32500000D01*
X-23677142Y-32714285D01*
X-23820000Y-32857142D01*
X-24034285Y-32928571D01*
X-24177142Y-32928571D01*
X-22248571Y-32928571D02*
X-22248571Y-32142857D01*
X-22320000Y-32000000D01*
X-22462857Y-31928571D01*
X-22748571Y-31928571D01*
X-22891428Y-32000000D01*
X-22248571Y-32857142D02*
X-22391428Y-32928571D01*
X-22748571Y-32928571D01*
X-22891428Y-32857142D01*
X-22962857Y-32714285D01*
X-22962857Y-32571428D01*
X-22891428Y-32428571D01*
X-22748571Y-32357142D01*
X-22391428Y-32357142D01*
X-22248571Y-32285714D01*
X-21677142Y-31928571D02*
X-21320000Y-32928571D01*
X-20962857Y-31928571D02*
X-21320000Y-32928571D01*
X-21462857Y-33285714D01*
X-21534285Y-33357142D01*
X-21677142Y-33428571D01*
X-19248571Y-32928571D02*
X-19248571Y-31428571D01*
X-18391428Y-32928571D02*
X-19034285Y-32071428D01*
X-18391428Y-31428571D02*
X-19248571Y-32285714D01*
X-17177142Y-32857142D02*
X-17320000Y-32928571D01*
X-17605714Y-32928571D01*
X-17748571Y-32857142D01*
X-17820000Y-32714285D01*
X-17820000Y-32142857D01*
X-17748571Y-32000000D01*
X-17605714Y-31928571D01*
X-17320000Y-31928571D01*
X-17177142Y-32000000D01*
X-17105714Y-32142857D01*
X-17105714Y-32285714D01*
X-17820000Y-32428571D01*
X-16605714Y-31928571D02*
X-16248571Y-32928571D01*
X-15891428Y-31928571D02*
X-16248571Y-32928571D01*
X-16391428Y-33285714D01*
X-16462857Y-33357142D01*
X-16605714Y-33428571D01*
X-15320000Y-32928571D02*
X-15320000Y-31428571D01*
X-15320000Y-32000000D02*
X-15177142Y-31928571D01*
X-14891428Y-31928571D01*
X-14748571Y-32000000D01*
X-14677142Y-32071428D01*
X-14605714Y-32214285D01*
X-14605714Y-32642857D01*
X-14677142Y-32785714D01*
X-14748571Y-32857142D01*
X-14891428Y-32928571D01*
X-15177142Y-32928571D01*
X-15320000Y-32857142D01*
X-13748571Y-32928571D02*
X-13891428Y-32857142D01*
X-13962857Y-32785714D01*
X-14034285Y-32642857D01*
X-14034285Y-32214285D01*
X-13962857Y-32071428D01*
X-13891428Y-32000000D01*
X-13748571Y-31928571D01*
X-13534285Y-31928571D01*
X-13391428Y-32000000D01*
X-13320000Y-32071428D01*
X-13248571Y-32214285D01*
X-13248571Y-32642857D01*
X-13320000Y-32785714D01*
X-13391428Y-32857142D01*
X-13534285Y-32928571D01*
X-13748571Y-32928571D01*
X-11962857Y-32928571D02*
X-11962857Y-32142857D01*
X-12034285Y-32000000D01*
X-12177142Y-31928571D01*
X-12462857Y-31928571D01*
X-12605714Y-32000000D01*
X-11962857Y-32857142D02*
X-12105714Y-32928571D01*
X-12462857Y-32928571D01*
X-12605714Y-32857142D01*
X-12677142Y-32714285D01*
X-12677142Y-32571428D01*
X-12605714Y-32428571D01*
X-12462857Y-32357142D01*
X-12105714Y-32357142D01*
X-11962857Y-32285714D01*
X-11248571Y-32928571D02*
X-11248571Y-31928571D01*
X-11248571Y-32214285D02*
X-11177142Y-32071428D01*
X-11105714Y-32000000D01*
X-10962857Y-31928571D01*
X-10820000Y-31928571D01*
X-9677142Y-32928571D02*
X-9677142Y-31428571D01*
X-9677142Y-32857142D02*
X-9820000Y-32928571D01*
X-10105714Y-32928571D01*
X-10248571Y-32857142D01*
X-10320000Y-32785714D01*
X-10391428Y-32642857D01*
X-10391428Y-32214285D01*
X-10320000Y-32071428D01*
X-10248571Y-32000000D01*
X-10105714Y-31928571D01*
X-9820000Y-31928571D01*
X-9677142Y-32000000D01*
%LPC*%
D12*
X40230000Y-63820000D03*
X9000000Y28600000D03*
X-66800000Y2400000D03*
X9300000Y-31520000D03*
X-29150000Y-9550000D03*
X-29090000Y28590000D03*
M02*
