M48
; DRILL file {KiCad (6.0.5)} date Mon Jul 25 14:02:23 2022
; FORMAT={-:-/ absolute / inch / decimal}
; #@! TF.CreationDate,2022-07-25T14:02:23-03:00
; #@! TF.GenerationSoftware,Kicad,Pcbnew,(6.0.5)
; #@! TF.FileFunction,Plated,1,2,PTH
FMAT,2
INCH
; #@! TA.AperFunction,Plated,PTH,ViaDrill
T1C0.0157
; #@! TA.AperFunction,Plated,PTH,ComponentDrill
T2C0.0236
; #@! TA.AperFunction,Plated,PTH,ComponentDrill
T3C0.0276
; #@! TA.AperFunction,Plated,PTH,ComponentDrill
T4C0.0315
; #@! TA.AperFunction,Plated,PTH,ComponentDrill
T5C0.0398
; #@! TA.AperFunction,Plated,PTH,ComponentDrill
T6C0.0433
; #@! TA.AperFunction,Plated,PTH,ComponentDrill
T7C0.0590
; #@! TA.AperFunction,Plated,PTH,ComponentDrill
T8C0.0866
%
G90
G05
T1
X1.4173Y1.5748
X1.9587Y0.8957
X2.1457Y1.1693
X2.1762Y1.2028
X2.206Y1.2313
X2.2394Y1.2598
X2.315Y0.9409
X2.3432Y0.8464
T2
X2.1646Y1.6277
X2.2237Y1.6277
T3
X1.1863Y1.86
X1.2178Y1.9072
X1.2493Y1.86
X1.2808Y1.9072
X1.3123Y1.86
X1.4925Y1.4992
X1.4925Y1.4154
X1.6394Y2.0071
X1.6394Y1.8071
X1.6925Y1.4992
X1.6925Y1.4154
X1.811Y1.3346
X1.811Y1.1346
T4
X-3.2605Y1.0925
X-3.2138Y1.4272
X-3.1646Y1.7697
X-3.0605Y1.0925
X-3.0138Y1.4272
X-2.9646Y1.7697
X-2.9047Y1.2598
X-2.8575Y1.5925
X-2.7047Y1.2598
X-2.6575Y1.5925
X-2.5799Y1.7697
X-2.5322Y2.065
X-2.3799Y1.7697
X-2.3322Y2.065
X-2.1173Y1.7697
X-2.0701Y2.0669
X-1.9173Y1.7697
X-1.8701Y2.0669
X-1.6075Y2.0669
X-1.5976Y-0.374
X-1.4075Y2.0669
X-1.3976Y-0.374
X-0.8708Y-1.1181
X-0.6708Y-1.1181
X-0.5453Y-0.0945
X-0.3453Y-0.0945
X-0.2579Y1.9134
X-0.0839Y-1.2874
X-0.0579Y1.9134
X0.0433Y2.065
X0.1161Y-1.2874
X0.2433Y2.065
X0.3366Y1.9134
X0.5366Y1.9134
X0.9843Y2.1206
X0.9843Y1.9206
X1.1708Y-1.0531
X1.1715Y0.1378
X1.1715Y-0.4626
X1.1814Y0.7874
X1.2146Y1.0787
X1.2397Y-0.7677
X1.2404Y0.4921
X1.2404Y-0.1772
X1.3374Y-1.7185
X1.3708Y-1.0531
X1.3715Y0.1378
X1.3715Y-0.4626
X1.3814Y0.7874
X1.4146Y1.0787
X1.4397Y-0.7677
X1.4404Y0.4921
X1.4404Y-0.1772
X1.5189Y2.0094
X1.5189Y1.8094
X1.5374Y-1.7185
X1.6036Y0.4269
X1.6036Y-0.1439
X1.6331Y0.2372
X1.6331Y0.045
X1.6922Y0.7124
X1.6922Y0.5155
X1.702Y0.4269
X1.702Y-0.1439
X1.8083Y0.9857
X1.8083Y0.8857
X1.8083Y0.7857
X1.8083Y0.6857
X1.8083Y0.5857
X1.8083Y0.4857
X1.8083Y0.3857
X1.8083Y0.2857
X1.8083Y0.1857
X1.8083Y0.0857
X1.8083Y-0.0143
X1.8083Y-0.1143
X1.8083Y-0.2143
X1.8083Y-0.3143
X1.9083Y-2.1732
X2.1083Y-2.1732
X2.1083Y0.9857
X2.1083Y0.8857
X2.1083Y0.7857
X2.1083Y0.6857
X2.1083Y0.5857
X2.1083Y0.4857
X2.1083Y0.3857
X2.1083Y0.2857
X2.1083Y0.1857
X2.1083Y0.0857
X2.1083Y-0.0143
X2.1083Y-0.1143
X2.1083Y-0.2143
X2.1083Y-0.3143
X2.2237Y0.3875
X2.2237Y0.1907
T5
X1.6705Y1.6513
X1.8713Y1.6041
T6
X1.7402Y2.1063
X1.7756Y1.9094
X1.9803Y1.7874
X2.1063Y2.1063
X2.126Y-0.502
X2.126Y-0.7579
X2.126Y-0.9154
X2.126Y-1.1713
X2.3031Y-0.502
X2.3031Y-0.7579
X2.3031Y-0.9154
X2.3031Y-1.1713
T7
X-3.15Y0.5688
X-3.15Y-0.1813
X-3.15Y-0.9313
X-2.9Y0.6688
X-2.9Y-0.0813
X-2.9Y-0.8313
X-2.4Y1.3188
X-2.4Y0.5688
X-2.4Y-0.1813
X-2.4Y-0.9313
X-2.15Y1.4188
X-2.15Y0.6688
X-2.15Y-0.0813
X-2.15Y-0.8313
X-1.65Y1.6
X-1.65Y0.85
X-1.65Y0.1
X-1.65Y-0.65
X-1.4Y1.7
X-1.4Y0.95
X-1.4Y0.2
X-1.4Y-0.55
X-0.9Y1.8813
X-0.9Y1.1313
X-0.9Y0.3813
X-0.9Y-0.3688
X-0.65Y1.9813
X-0.65Y1.2313
X-0.65Y0.4813
X-0.65Y-0.2688
X-0.525Y-1.6813
X-0.275Y-1.5813
X-0.15Y1.6
X-0.15Y0.85
X-0.15Y0.1
X-0.15Y-0.65
X0.1Y1.7
X0.1Y0.95
X0.1Y0.2
X0.1Y-0.55
X0.3366Y-1.7965
X0.6Y1.5063
X0.6Y0.7563
X0.6Y0.0062
X0.6Y-0.7438
X0.6033Y-1.7599
X0.85Y1.6063
X0.85Y0.8563
X0.85Y0.1062
X0.85Y-0.6438
X1.1457Y-2.1179
X1.4133Y-2.147
X1.8531Y-2.6228
X2.1058Y-2.7158
T8
X-3.2362Y2.0709
X-2.6299Y0.0945
X-2.6299Y-0.6535
X-1.1476Y-0.376
X0.063Y-1.811
X0.3543Y1.126
X1.6102Y-2.4921
X2.2421Y-2.5256
X2.252Y2.0669
T3
G00X1.1056Y2.0824
M15
G01X1.1056Y2.0352
M16
G05
G00X1.393Y2.0824
M15
G01X1.393Y2.0352
M16
G05
T0
M30
