%FSLAX45Y45*%
G04 Gerber Fmt 4.5, Leading zero omitted, Abs format (unit mm)*
G04 Created by KiCad (PCBNEW (6.0.5)) date 2022-10-04 21:40:48*
%MOMM*%
%LPD*%
G01*
G04 APERTURE LIST*
%TA.AperFunction,Profile*%
%ADD10C,0.100000*%
%TD*%
%ADD11C,0.200000*%
%ADD12C,0.110000*%
%ADD13C,0.170180*%
%ADD14C,0.398780*%
G04 APERTURE END LIST*
D10*
X-6146000Y-7200000D02*
G75*
G03*
X-6123000Y-7274000I176352J14238D01*
G01*
X8723000Y-3511000D02*
X8723000Y5418000D01*
X-5780000Y5620000D02*
X-5958000Y5617500D01*
X3372000Y-3714000D02*
G75*
G03*
X3231000Y-3754000I-7830J-240910D01*
G01*
X8523000Y-3713999D02*
G75*
G03*
X8723000Y-3511000I-2210J202200D01*
G01*
X-5958000Y5617500D02*
G75*
G03*
X-6146000Y5417000I6952J-194908D01*
G01*
X8523000Y5617000D02*
X-4060000Y5620000D01*
X-4962000Y-8575000D02*
X-6123000Y-7274000D01*
X3372000Y-3714000D02*
X8523000Y-3714000D01*
X-4962000Y-8575000D02*
G75*
G03*
X-4783000Y-8570000I87582J71176D01*
G01*
X1674000Y-5604000D02*
G75*
G03*
X-4783000Y-8570000I507601J-9616516D01*
G01*
X1847000Y-5543000D02*
X3231000Y-3754000D01*
X-6146000Y5417000D02*
X-6146000Y-7200000D01*
X8723000Y5418000D02*
G75*
G03*
X8523000Y5617000I-197610J1400D01*
G01*
X1674000Y-5603996D02*
G75*
G03*
X1847000Y-5543000I15170J232806D01*
G01*
D11*
D12*
X-4950000Y5385000D02*
X-4840000Y5275000D01*
X-4840000Y5385000D02*
X-4950000Y5275000D01*
X-4950000Y4885000D02*
X-4840000Y4775000D01*
X-4840000Y4885000D02*
X-4950000Y4775000D01*
D13*
X-5119428Y-7445918D02*
G75*
G03*
X-5119428Y-7445918I-85090J0D01*
G01*
X-4364392Y-6766082D02*
G75*
G03*
X-4364392Y-6766082I-85090J0D01*
G01*
X-3490567Y-6021122D02*
G75*
G03*
X-3490567Y-6021122I-85090J0D01*
G01*
X-2593493Y-5544138D02*
G75*
G03*
X-2593493Y-5544138I-85090J0D01*
G01*
X-2327910Y3571880D02*
G75*
G03*
X-2327910Y3571880I-85090J0D01*
G01*
X-2327910Y1666880D02*
G75*
G03*
X-2327910Y1666880I-85090J0D01*
G01*
X-2327910Y-238130D02*
G75*
G03*
X-2327910Y-238130I-85090J0D01*
G01*
X-2327910Y-2143130D02*
G75*
G03*
X-2327910Y-2143130I-85090J0D01*
G01*
X-1570940Y-5024526D02*
G75*
G03*
X-1570940Y-5024526I-85090J0D01*
G01*
X-1311910Y3571880D02*
G75*
G03*
X-1311910Y3571880I-85090J0D01*
G01*
X-1311910Y1666880D02*
G75*
G03*
X-1311910Y1666880I-85090J0D01*
G01*
X-1311910Y-238130D02*
G75*
G03*
X-1311910Y-238130I-85090J0D01*
G01*
X-1311910Y-2143130D02*
G75*
G03*
X-1311910Y-2143130I-85090J0D01*
G01*
X-585120Y-4778734D02*
G75*
G03*
X-585120Y-4778734I-85090J0D01*
G01*
X-422910Y3810000D02*
G75*
G03*
X-422910Y3810000I-85090J0D01*
G01*
X-422910Y1905000D02*
G75*
G03*
X-422910Y1905000I-85090J0D01*
G01*
X-422910Y0D02*
G75*
G03*
X-422910Y0I-85090J0D01*
G01*
X-422910Y-1905000D02*
G75*
G03*
X-422910Y-1905000I-85090J0D01*
G01*
X529590Y-4524380D02*
G75*
G03*
X529590Y-4524380I-85090J0D01*
G01*
X593090Y3810000D02*
G75*
G03*
X593090Y3810000I-85090J0D01*
G01*
X593090Y1905000D02*
G75*
G03*
X593090Y1905000I-85090J0D01*
G01*
X593090Y0D02*
G75*
G03*
X593090Y0I-85090J0D01*
G01*
X593090Y-1905000D02*
G75*
G03*
X593090Y-1905000I-85090J0D01*
G01*
X1482090Y4524380D02*
G75*
G03*
X1482090Y4524380I-85090J0D01*
G01*
X1482090Y2619380D02*
G75*
G03*
X1482090Y2619380I-85090J0D01*
G01*
X1482090Y714380D02*
G75*
G03*
X1482090Y714380I-85090J0D01*
G01*
X1482090Y-1190630D02*
G75*
G03*
X1482090Y-1190630I-85090J0D01*
G01*
X1545590Y-4524380D02*
G75*
G03*
X1545590Y-4524380I-85090J0D01*
G01*
X2498090Y4524380D02*
G75*
G03*
X2498090Y4524380I-85090J0D01*
G01*
X2498090Y2619380D02*
G75*
G03*
X2498090Y2619380I-85090J0D01*
G01*
X2498090Y714380D02*
G75*
G03*
X2498090Y714380I-85090J0D01*
G01*
X2498090Y-1190630D02*
G75*
G03*
X2498090Y-1190630I-85090J0D01*
G01*
X3387090Y3810000D02*
G75*
G03*
X3387090Y3810000I-85090J0D01*
G01*
X3387090Y1905000D02*
G75*
G03*
X3387090Y1905000I-85090J0D01*
G01*
X3387090Y0D02*
G75*
G03*
X3387090Y0I-85090J0D01*
G01*
X3387090Y-1905000D02*
G75*
G03*
X3387090Y-1905000I-85090J0D01*
G01*
X4403090Y3810000D02*
G75*
G03*
X4403090Y3810000I-85090J0D01*
G01*
X4403090Y1905000D02*
G75*
G03*
X4403090Y1905000I-85090J0D01*
G01*
X4403090Y0D02*
G75*
G03*
X4403090Y0I-85090J0D01*
G01*
X4403090Y-1905000D02*
G75*
G03*
X4403090Y-1905000I-85090J0D01*
G01*
X5292090Y3095630D02*
G75*
G03*
X5292090Y3095630I-85090J0D01*
G01*
X5292090Y1190630D02*
G75*
G03*
X5292090Y1190630I-85090J0D01*
G01*
X5292090Y-714380D02*
G75*
G03*
X5292090Y-714380I-85090J0D01*
G01*
X5292090Y-2619380D02*
G75*
G03*
X5292090Y-2619380I-85090J0D01*
G01*
X6308090Y3095630D02*
G75*
G03*
X6308090Y3095630I-85090J0D01*
G01*
X6308090Y1190630D02*
G75*
G03*
X6308090Y1190630I-85090J0D01*
G01*
X6308090Y-714380D02*
G75*
G03*
X6308090Y-714380I-85090J0D01*
G01*
X6308090Y-2619380D02*
G75*
G03*
X6308090Y-2619380I-85090J0D01*
G01*
X7197090Y1190630D02*
G75*
G03*
X7197090Y1190630I-85090J0D01*
G01*
X7197090Y-714380D02*
G75*
G03*
X7197090Y-714380I-85090J0D01*
G01*
X7197090Y-2619380D02*
G75*
G03*
X7197090Y-2619380I-85090J0D01*
G01*
X8213090Y1190630D02*
G75*
G03*
X8213090Y1190630I-85090J0D01*
G01*
X8213090Y-714380D02*
G75*
G03*
X8213090Y-714380I-85090J0D01*
G01*
X8213090Y-2619380D02*
G75*
G03*
X8213090Y-2619380I-85090J0D01*
G01*
D14*
X-4827000Y-6906610D02*
X-4827000Y-7305390D01*
X-5026390Y-7106000D02*
X-4627610Y-7106000D01*
X-3127120Y-5583240D02*
X-3127120Y-5982020D01*
X-3326510Y-5782630D02*
X-2927730Y-5782630D01*
X-1905000Y3771270D02*
X-1905000Y3372490D01*
X-2104390Y3571880D02*
X-1705610Y3571880D01*
X-1905000Y1866270D02*
X-1905000Y1467490D01*
X-2104390Y1666880D02*
X-1705610Y1666880D01*
X-1905000Y-38740D02*
X-1905000Y-437520D01*
X-2104390Y-238130D02*
X-1705610Y-238130D01*
X-1905000Y-1943740D02*
X-1905000Y-2342520D01*
X-2104390Y-2143130D02*
X-1705610Y-2143130D01*
X-1163120Y-4702240D02*
X-1163120Y-5101020D01*
X-1362510Y-4901630D02*
X-963730Y-4901630D01*
X0Y4009390D02*
X0Y3610610D01*
X-199390Y3810000D02*
X199390Y3810000D01*
X0Y2104390D02*
X0Y1705610D01*
X-199390Y1905000D02*
X199390Y1905000D01*
X0Y199390D02*
X0Y-199390D01*
X-199390Y0D02*
X199390Y0D01*
X0Y-1705610D02*
X0Y-2104390D01*
X-199390Y-1905000D02*
X199390Y-1905000D01*
X952500Y-4324990D02*
X952500Y-4723770D01*
X753110Y-4524380D02*
X1151890Y-4524380D01*
X1905000Y4723770D02*
X1905000Y4324990D01*
X1705610Y4524380D02*
X2104390Y4524380D01*
X1905000Y2818770D02*
X1905000Y2419990D01*
X1705610Y2619380D02*
X2104390Y2619380D01*
X1905000Y913770D02*
X1905000Y514990D01*
X1705610Y714380D02*
X2104390Y714380D01*
X1905000Y-991240D02*
X1905000Y-1390020D01*
X1705610Y-1190630D02*
X2104390Y-1190630D01*
X3810000Y4009390D02*
X3810000Y3610610D01*
X3610610Y3810000D02*
X4009390Y3810000D01*
X3810000Y2104390D02*
X3810000Y1705610D01*
X3610610Y1905000D02*
X4009390Y1905000D01*
X3810000Y199390D02*
X3810000Y-199390D01*
X3610610Y0D02*
X4009390Y0D01*
X3810000Y-1705610D02*
X3810000Y-2104390D01*
X3610610Y-1905000D02*
X4009390Y-1905000D01*
X5715000Y3295020D02*
X5715000Y2896240D01*
X5515610Y3095630D02*
X5914390Y3095630D01*
X5715000Y1390020D02*
X5715000Y991240D01*
X5515610Y1190630D02*
X5914390Y1190630D01*
X5715000Y-514990D02*
X5715000Y-913770D01*
X5515610Y-714380D02*
X5914390Y-714380D01*
X5715000Y-2419990D02*
X5715000Y-2818770D01*
X5515610Y-2619380D02*
X5914390Y-2619380D01*
X7620000Y1390020D02*
X7620000Y991240D01*
X7420610Y1190630D02*
X7819390Y1190630D01*
X7620000Y-514990D02*
X7620000Y-913770D01*
X7420610Y-714380D02*
X7819390Y-714380D01*
X7620000Y-2419990D02*
X7620000Y-2818770D01*
X7420610Y-2619380D02*
X7819390Y-2619380D01*
D11*
X-5893461Y-8932157D02*
X-5893461Y-8732157D01*
X-5845842Y-8732157D01*
X-5817271Y-8741681D01*
X-5798223Y-8760728D01*
X-5788699Y-8779776D01*
X-5779175Y-8817871D01*
X-5779175Y-8846442D01*
X-5788699Y-8884538D01*
X-5798223Y-8903585D01*
X-5817271Y-8922633D01*
X-5845842Y-8932157D01*
X-5893461Y-8932157D01*
X-5693461Y-8932157D02*
X-5693461Y-8798823D01*
X-5693461Y-8836919D02*
X-5683937Y-8817871D01*
X-5674413Y-8808347D01*
X-5655366Y-8798823D01*
X-5636318Y-8798823D01*
X-5569652Y-8932157D02*
X-5569652Y-8798823D01*
X-5569652Y-8732157D02*
X-5579175Y-8741681D01*
X-5569652Y-8751204D01*
X-5560128Y-8741681D01*
X-5569652Y-8732157D01*
X-5569652Y-8751204D01*
X-5445842Y-8932157D02*
X-5464890Y-8922633D01*
X-5474414Y-8903585D01*
X-5474414Y-8732157D01*
X-5341080Y-8932157D02*
X-5360128Y-8922633D01*
X-5369652Y-8903585D01*
X-5369652Y-8732157D01*
X-5112509Y-8932157D02*
X-5112509Y-8732157D01*
X-5045842Y-8875014D01*
X-4979175Y-8732157D01*
X-4979175Y-8932157D01*
X-4798223Y-8932157D02*
X-4798223Y-8827395D01*
X-4807747Y-8808347D01*
X-4826794Y-8798823D01*
X-4864890Y-8798823D01*
X-4883937Y-8808347D01*
X-4798223Y-8922633D02*
X-4817271Y-8932157D01*
X-4864890Y-8932157D01*
X-4883937Y-8922633D01*
X-4893461Y-8903585D01*
X-4893461Y-8884538D01*
X-4883937Y-8865490D01*
X-4864890Y-8855966D01*
X-4817271Y-8855966D01*
X-4798223Y-8846442D01*
X-4702985Y-8798823D02*
X-4702985Y-8998823D01*
X-4702985Y-8808347D02*
X-4683937Y-8798823D01*
X-4645842Y-8798823D01*
X-4626794Y-8808347D01*
X-4617271Y-8817871D01*
X-4607747Y-8836919D01*
X-4607747Y-8894061D01*
X-4617271Y-8913109D01*
X-4626794Y-8922633D01*
X-4645842Y-8932157D01*
X-4683937Y-8932157D01*
X-4702985Y-8922633D01*
X-4522033Y-8913109D02*
X-4512509Y-8922633D01*
X-4522033Y-8932157D01*
X-4531556Y-8922633D01*
X-4522033Y-8913109D01*
X-4522033Y-8932157D01*
X-4522033Y-8808347D02*
X-4512509Y-8817871D01*
X-4522033Y-8827395D01*
X-4531556Y-8817871D01*
X-4522033Y-8808347D01*
X-4522033Y-8827395D01*
D12*
X-6261080Y-9206681D02*
X-6151080Y-9316681D01*
X-6151080Y-9206681D02*
X-6261080Y-9316681D01*
D11*
X-5788699Y-9352157D02*
X-5902985Y-9352157D01*
X-5845842Y-9352157D02*
X-5845842Y-9152157D01*
X-5864890Y-9180728D01*
X-5883937Y-9199776D01*
X-5902985Y-9209300D01*
X-5702985Y-9333109D02*
X-5693461Y-9342633D01*
X-5702985Y-9352157D01*
X-5712509Y-9342633D01*
X-5702985Y-9333109D01*
X-5702985Y-9352157D01*
X-5502985Y-9352157D02*
X-5617271Y-9352157D01*
X-5560128Y-9352157D02*
X-5560128Y-9152157D01*
X-5579175Y-9180728D01*
X-5598223Y-9199776D01*
X-5617271Y-9209300D01*
X-5379175Y-9152157D02*
X-5360128Y-9152157D01*
X-5341080Y-9161681D01*
X-5331556Y-9171204D01*
X-5322033Y-9190252D01*
X-5312509Y-9228347D01*
X-5312509Y-9275966D01*
X-5322033Y-9314061D01*
X-5331556Y-9333109D01*
X-5341080Y-9342633D01*
X-5360128Y-9352157D01*
X-5379175Y-9352157D01*
X-5398223Y-9342633D01*
X-5407747Y-9333109D01*
X-5417271Y-9314061D01*
X-5426794Y-9275966D01*
X-5426794Y-9228347D01*
X-5417271Y-9190252D01*
X-5407747Y-9171204D01*
X-5398223Y-9161681D01*
X-5379175Y-9152157D01*
X-5188699Y-9152157D02*
X-5169652Y-9152157D01*
X-5150604Y-9161681D01*
X-5141080Y-9171204D01*
X-5131556Y-9190252D01*
X-5122033Y-9228347D01*
X-5122033Y-9275966D01*
X-5131556Y-9314061D01*
X-5141080Y-9333109D01*
X-5150604Y-9342633D01*
X-5169652Y-9352157D01*
X-5188699Y-9352157D01*
X-5207747Y-9342633D01*
X-5217271Y-9333109D01*
X-5226794Y-9314061D01*
X-5236318Y-9275966D01*
X-5236318Y-9228347D01*
X-5226794Y-9190252D01*
X-5217271Y-9171204D01*
X-5207747Y-9161681D01*
X-5188699Y-9152157D01*
X-5036318Y-9352157D02*
X-5036318Y-9218823D01*
X-5036318Y-9237871D02*
X-5026794Y-9228347D01*
X-5007747Y-9218823D01*
X-4979175Y-9218823D01*
X-4960128Y-9228347D01*
X-4950604Y-9247395D01*
X-4950604Y-9352157D01*
X-4950604Y-9247395D02*
X-4941080Y-9228347D01*
X-4922033Y-9218823D01*
X-4893461Y-9218823D01*
X-4874414Y-9228347D01*
X-4864890Y-9247395D01*
X-4864890Y-9352157D01*
X-4769652Y-9352157D02*
X-4769652Y-9218823D01*
X-4769652Y-9237871D02*
X-4760128Y-9228347D01*
X-4741080Y-9218823D01*
X-4712509Y-9218823D01*
X-4693461Y-9228347D01*
X-4683937Y-9247395D01*
X-4683937Y-9352157D01*
X-4683937Y-9247395D02*
X-4674414Y-9228347D01*
X-4655366Y-9218823D01*
X-4626794Y-9218823D01*
X-4607747Y-9228347D01*
X-4598223Y-9247395D01*
X-4598223Y-9352157D01*
X-4207747Y-9142633D02*
X-4379175Y-9399776D01*
X-3950604Y-9152157D02*
X-3931556Y-9152157D01*
X-3912509Y-9161681D01*
X-3902985Y-9171204D01*
X-3893461Y-9190252D01*
X-3883937Y-9228347D01*
X-3883937Y-9275966D01*
X-3893461Y-9314061D01*
X-3902985Y-9333109D01*
X-3912509Y-9342633D01*
X-3931556Y-9352157D01*
X-3950604Y-9352157D01*
X-3969652Y-9342633D01*
X-3979175Y-9333109D01*
X-3988699Y-9314061D01*
X-3998223Y-9275966D01*
X-3998223Y-9228347D01*
X-3988699Y-9190252D01*
X-3979175Y-9171204D01*
X-3969652Y-9161681D01*
X-3950604Y-9152157D01*
X-3798223Y-9333109D02*
X-3788699Y-9342633D01*
X-3798223Y-9352157D01*
X-3807747Y-9342633D01*
X-3798223Y-9333109D01*
X-3798223Y-9352157D01*
X-3664890Y-9152157D02*
X-3645842Y-9152157D01*
X-3626794Y-9161681D01*
X-3617271Y-9171204D01*
X-3607747Y-9190252D01*
X-3598223Y-9228347D01*
X-3598223Y-9275966D01*
X-3607747Y-9314061D01*
X-3617271Y-9333109D01*
X-3626794Y-9342633D01*
X-3645842Y-9352157D01*
X-3664890Y-9352157D01*
X-3683937Y-9342633D01*
X-3693461Y-9333109D01*
X-3702985Y-9314061D01*
X-3712509Y-9275966D01*
X-3712509Y-9228347D01*
X-3702985Y-9190252D01*
X-3693461Y-9171204D01*
X-3683937Y-9161681D01*
X-3664890Y-9152157D01*
X-3426794Y-9218823D02*
X-3426794Y-9352157D01*
X-3474413Y-9142633D02*
X-3522032Y-9285490D01*
X-3398223Y-9285490D01*
X-3341080Y-9152157D02*
X-3217271Y-9152157D01*
X-3283937Y-9228347D01*
X-3255366Y-9228347D01*
X-3236318Y-9237871D01*
X-3226794Y-9247395D01*
X-3217271Y-9266442D01*
X-3217271Y-9314061D01*
X-3226794Y-9333109D01*
X-3236318Y-9342633D01*
X-3255366Y-9352157D01*
X-3312509Y-9352157D01*
X-3331556Y-9342633D01*
X-3341080Y-9333109D01*
X-3150604Y-9152157D02*
X-3026794Y-9152157D01*
X-3093461Y-9228347D01*
X-3064890Y-9228347D01*
X-3045842Y-9237871D01*
X-3036318Y-9247395D01*
X-3026794Y-9266442D01*
X-3026794Y-9314061D01*
X-3036318Y-9333109D01*
X-3045842Y-9342633D01*
X-3064890Y-9352157D01*
X-3122032Y-9352157D01*
X-3141080Y-9342633D01*
X-3150604Y-9333109D01*
X-2950604Y-9152157D02*
X-2950604Y-9190252D01*
X-2874413Y-9152157D02*
X-2874413Y-9190252D01*
X-2579175Y-9428347D02*
X-2588699Y-9418823D01*
X-2607747Y-9390252D01*
X-2617271Y-9371204D01*
X-2626794Y-9342633D01*
X-2636318Y-9295014D01*
X-2636318Y-9256919D01*
X-2626794Y-9209300D01*
X-2617271Y-9180728D01*
X-2607747Y-9161681D01*
X-2588699Y-9133109D01*
X-2579175Y-9123585D01*
X-2512509Y-9171204D02*
X-2502985Y-9161681D01*
X-2483937Y-9152157D01*
X-2436318Y-9152157D01*
X-2417271Y-9161681D01*
X-2407747Y-9171204D01*
X-2398223Y-9190252D01*
X-2398223Y-9209300D01*
X-2407747Y-9237871D01*
X-2522033Y-9352157D01*
X-2398223Y-9352157D01*
X-2160128Y-9352157D02*
X-2160128Y-9152157D01*
X-2074413Y-9352157D02*
X-2074413Y-9247395D01*
X-2083937Y-9228347D01*
X-2102985Y-9218823D01*
X-2131556Y-9218823D01*
X-2150604Y-9228347D01*
X-2160128Y-9237871D01*
X-1950604Y-9352157D02*
X-1969652Y-9342633D01*
X-1979175Y-9333109D01*
X-1988699Y-9314061D01*
X-1988699Y-9256919D01*
X-1979175Y-9237871D01*
X-1969652Y-9228347D01*
X-1950604Y-9218823D01*
X-1922032Y-9218823D01*
X-1902985Y-9228347D01*
X-1893461Y-9237871D01*
X-1883937Y-9256919D01*
X-1883937Y-9314061D01*
X-1893461Y-9333109D01*
X-1902985Y-9342633D01*
X-1922032Y-9352157D01*
X-1950604Y-9352157D01*
X-1769652Y-9352157D02*
X-1788699Y-9342633D01*
X-1798223Y-9323585D01*
X-1798223Y-9152157D01*
X-1617271Y-9342633D02*
X-1636318Y-9352157D01*
X-1674413Y-9352157D01*
X-1693461Y-9342633D01*
X-1702985Y-9323585D01*
X-1702985Y-9247395D01*
X-1693461Y-9228347D01*
X-1674413Y-9218823D01*
X-1636318Y-9218823D01*
X-1617271Y-9228347D01*
X-1607747Y-9247395D01*
X-1607747Y-9266442D01*
X-1702985Y-9285490D01*
X-1531556Y-9342633D02*
X-1512509Y-9352157D01*
X-1474413Y-9352157D01*
X-1455366Y-9342633D01*
X-1445842Y-9323585D01*
X-1445842Y-9314061D01*
X-1455366Y-9295014D01*
X-1474413Y-9285490D01*
X-1502985Y-9285490D01*
X-1522032Y-9275966D01*
X-1531556Y-9256919D01*
X-1531556Y-9247395D01*
X-1522032Y-9228347D01*
X-1502985Y-9218823D01*
X-1474413Y-9218823D01*
X-1455366Y-9228347D01*
X-1379175Y-9428347D02*
X-1369652Y-9418823D01*
X-1350604Y-9390252D01*
X-1341080Y-9371204D01*
X-1331556Y-9342633D01*
X-1322033Y-9295014D01*
X-1322033Y-9256919D01*
X-1331556Y-9209300D01*
X-1341080Y-9180728D01*
X-1350604Y-9161681D01*
X-1369652Y-9133109D01*
X-1379175Y-9123585D01*
X-1017271Y-9428347D02*
X-1026794Y-9418823D01*
X-1045842Y-9390252D01*
X-1055366Y-9371204D01*
X-1064890Y-9342633D01*
X-1074414Y-9295014D01*
X-1074414Y-9256919D01*
X-1064890Y-9209300D01*
X-1055366Y-9180728D01*
X-1045842Y-9161681D01*
X-1026794Y-9133109D01*
X-1017271Y-9123585D01*
X-941080Y-9218823D02*
X-941080Y-9352157D01*
X-941080Y-9237871D02*
X-931556Y-9228347D01*
X-912509Y-9218823D01*
X-883937Y-9218823D01*
X-864890Y-9228347D01*
X-855366Y-9247395D01*
X-855366Y-9352157D01*
X-731556Y-9352157D02*
X-750604Y-9342633D01*
X-760128Y-9333109D01*
X-769652Y-9314061D01*
X-769652Y-9256919D01*
X-760128Y-9237871D01*
X-750604Y-9228347D01*
X-731556Y-9218823D01*
X-702985Y-9218823D01*
X-683937Y-9228347D01*
X-674414Y-9237871D01*
X-664890Y-9256919D01*
X-664890Y-9314061D01*
X-674414Y-9333109D01*
X-683937Y-9342633D01*
X-702985Y-9352157D01*
X-731556Y-9352157D01*
X-607747Y-9218823D02*
X-531556Y-9218823D01*
X-579175Y-9152157D02*
X-579175Y-9323585D01*
X-569652Y-9342633D01*
X-550604Y-9352157D01*
X-531556Y-9352157D01*
X-312509Y-9218823D02*
X-312509Y-9418823D01*
X-312509Y-9228347D02*
X-293461Y-9218823D01*
X-255366Y-9218823D01*
X-236318Y-9228347D01*
X-226794Y-9237871D01*
X-217271Y-9256919D01*
X-217271Y-9314061D01*
X-226794Y-9333109D01*
X-236318Y-9342633D01*
X-255366Y-9352157D01*
X-293461Y-9352157D01*
X-312509Y-9342633D01*
X-102985Y-9352157D02*
X-122032Y-9342633D01*
X-131556Y-9323585D01*
X-131556Y-9152157D01*
X58920Y-9352157D02*
X58920Y-9247395D01*
X49396Y-9228347D01*
X30348Y-9218823D01*
X-7747Y-9218823D01*
X-26794Y-9228347D01*
X58920Y-9342633D02*
X39872Y-9352157D01*
X-7747Y-9352157D01*
X-26794Y-9342633D01*
X-36318Y-9323585D01*
X-36318Y-9304538D01*
X-26794Y-9285490D01*
X-7747Y-9275966D01*
X39872Y-9275966D01*
X58920Y-9266442D01*
X125586Y-9218823D02*
X201777Y-9218823D01*
X154158Y-9152157D02*
X154158Y-9323585D01*
X163682Y-9342633D01*
X182729Y-9352157D01*
X201777Y-9352157D01*
X344634Y-9342633D02*
X325586Y-9352157D01*
X287491Y-9352157D01*
X268444Y-9342633D01*
X258920Y-9323585D01*
X258920Y-9247395D01*
X268444Y-9228347D01*
X287491Y-9218823D01*
X325586Y-9218823D01*
X344634Y-9228347D01*
X354158Y-9247395D01*
X354158Y-9266442D01*
X258920Y-9285490D01*
X525586Y-9352157D02*
X525586Y-9152157D01*
X525586Y-9342633D02*
X506539Y-9352157D01*
X468444Y-9352157D01*
X449396Y-9342633D01*
X439872Y-9333109D01*
X430348Y-9314061D01*
X430348Y-9256919D01*
X439872Y-9237871D01*
X449396Y-9228347D01*
X468444Y-9218823D01*
X506539Y-9218823D01*
X525586Y-9228347D01*
X601777Y-9428347D02*
X611301Y-9418823D01*
X630348Y-9390252D01*
X639872Y-9371204D01*
X649396Y-9342633D01*
X658920Y-9295014D01*
X658920Y-9256919D01*
X649396Y-9209300D01*
X639872Y-9180728D01*
X630348Y-9161681D01*
X611301Y-9133109D01*
X601777Y-9123585D01*
D13*
X-6151080Y-9525681D02*
G75*
G03*
X-6151080Y-9525681I-85090J0D01*
G01*
D11*
X-5788699Y-9616157D02*
X-5902985Y-9616157D01*
X-5845842Y-9616157D02*
X-5845842Y-9416157D01*
X-5864890Y-9444728D01*
X-5883937Y-9463776D01*
X-5902985Y-9473300D01*
X-5702985Y-9597109D02*
X-5693461Y-9606633D01*
X-5702985Y-9616157D01*
X-5712509Y-9606633D01*
X-5702985Y-9597109D01*
X-5702985Y-9616157D01*
X-5626794Y-9416157D02*
X-5493461Y-9416157D01*
X-5579175Y-9616157D01*
X-5379175Y-9416157D02*
X-5360128Y-9416157D01*
X-5341080Y-9425681D01*
X-5331556Y-9435204D01*
X-5322033Y-9454252D01*
X-5312509Y-9492347D01*
X-5312509Y-9539966D01*
X-5322033Y-9578061D01*
X-5331556Y-9597109D01*
X-5341080Y-9606633D01*
X-5360128Y-9616157D01*
X-5379175Y-9616157D01*
X-5398223Y-9606633D01*
X-5407747Y-9597109D01*
X-5417271Y-9578061D01*
X-5426794Y-9539966D01*
X-5426794Y-9492347D01*
X-5417271Y-9454252D01*
X-5407747Y-9435204D01*
X-5398223Y-9425681D01*
X-5379175Y-9416157D01*
X-5236318Y-9435204D02*
X-5226794Y-9425681D01*
X-5207747Y-9416157D01*
X-5160128Y-9416157D01*
X-5141080Y-9425681D01*
X-5131556Y-9435204D01*
X-5122033Y-9454252D01*
X-5122033Y-9473300D01*
X-5131556Y-9501871D01*
X-5245842Y-9616157D01*
X-5122033Y-9616157D01*
X-5036318Y-9616157D02*
X-5036318Y-9482823D01*
X-5036318Y-9501871D02*
X-5026794Y-9492347D01*
X-5007747Y-9482823D01*
X-4979175Y-9482823D01*
X-4960128Y-9492347D01*
X-4950604Y-9511395D01*
X-4950604Y-9616157D01*
X-4950604Y-9511395D02*
X-4941080Y-9492347D01*
X-4922033Y-9482823D01*
X-4893461Y-9482823D01*
X-4874414Y-9492347D01*
X-4864890Y-9511395D01*
X-4864890Y-9616157D01*
X-4769652Y-9616157D02*
X-4769652Y-9482823D01*
X-4769652Y-9501871D02*
X-4760128Y-9492347D01*
X-4741080Y-9482823D01*
X-4712509Y-9482823D01*
X-4693461Y-9492347D01*
X-4683937Y-9511395D01*
X-4683937Y-9616157D01*
X-4683937Y-9511395D02*
X-4674414Y-9492347D01*
X-4655366Y-9482823D01*
X-4626794Y-9482823D01*
X-4607747Y-9492347D01*
X-4598223Y-9511395D01*
X-4598223Y-9616157D01*
X-4207747Y-9406633D02*
X-4379175Y-9663776D01*
X-3950604Y-9416157D02*
X-3931556Y-9416157D01*
X-3912509Y-9425681D01*
X-3902985Y-9435204D01*
X-3893461Y-9454252D01*
X-3883937Y-9492347D01*
X-3883937Y-9539966D01*
X-3893461Y-9578061D01*
X-3902985Y-9597109D01*
X-3912509Y-9606633D01*
X-3931556Y-9616157D01*
X-3950604Y-9616157D01*
X-3969652Y-9606633D01*
X-3979175Y-9597109D01*
X-3988699Y-9578061D01*
X-3998223Y-9539966D01*
X-3998223Y-9492347D01*
X-3988699Y-9454252D01*
X-3979175Y-9435204D01*
X-3969652Y-9425681D01*
X-3950604Y-9416157D01*
X-3798223Y-9597109D02*
X-3788699Y-9606633D01*
X-3798223Y-9616157D01*
X-3807747Y-9606633D01*
X-3798223Y-9597109D01*
X-3798223Y-9616157D01*
X-3664890Y-9416157D02*
X-3645842Y-9416157D01*
X-3626794Y-9425681D01*
X-3617271Y-9435204D01*
X-3607747Y-9454252D01*
X-3598223Y-9492347D01*
X-3598223Y-9539966D01*
X-3607747Y-9578061D01*
X-3617271Y-9597109D01*
X-3626794Y-9606633D01*
X-3645842Y-9616157D01*
X-3664890Y-9616157D01*
X-3683937Y-9606633D01*
X-3693461Y-9597109D01*
X-3702985Y-9578061D01*
X-3712509Y-9539966D01*
X-3712509Y-9492347D01*
X-3702985Y-9454252D01*
X-3693461Y-9435204D01*
X-3683937Y-9425681D01*
X-3664890Y-9416157D01*
X-3426794Y-9416157D02*
X-3464890Y-9416157D01*
X-3483937Y-9425681D01*
X-3493461Y-9435204D01*
X-3512509Y-9463776D01*
X-3522032Y-9501871D01*
X-3522032Y-9578061D01*
X-3512509Y-9597109D01*
X-3502985Y-9606633D01*
X-3483937Y-9616157D01*
X-3445842Y-9616157D01*
X-3426794Y-9606633D01*
X-3417271Y-9597109D01*
X-3407747Y-9578061D01*
X-3407747Y-9530442D01*
X-3417271Y-9511395D01*
X-3426794Y-9501871D01*
X-3445842Y-9492347D01*
X-3483937Y-9492347D01*
X-3502985Y-9501871D01*
X-3512509Y-9511395D01*
X-3522032Y-9530442D01*
X-3341080Y-9416157D02*
X-3207747Y-9416157D01*
X-3293461Y-9616157D01*
X-3093461Y-9416157D02*
X-3074413Y-9416157D01*
X-3055366Y-9425681D01*
X-3045842Y-9435204D01*
X-3036318Y-9454252D01*
X-3026794Y-9492347D01*
X-3026794Y-9539966D01*
X-3036318Y-9578061D01*
X-3045842Y-9597109D01*
X-3055366Y-9606633D01*
X-3074413Y-9616157D01*
X-3093461Y-9616157D01*
X-3112509Y-9606633D01*
X-3122032Y-9597109D01*
X-3131556Y-9578061D01*
X-3141080Y-9539966D01*
X-3141080Y-9492347D01*
X-3131556Y-9454252D01*
X-3122032Y-9435204D01*
X-3112509Y-9425681D01*
X-3093461Y-9416157D01*
X-2950604Y-9416157D02*
X-2950604Y-9454252D01*
X-2874413Y-9416157D02*
X-2874413Y-9454252D01*
X-2579175Y-9692347D02*
X-2588699Y-9682823D01*
X-2607747Y-9654252D01*
X-2617271Y-9635204D01*
X-2626794Y-9606633D01*
X-2636318Y-9559014D01*
X-2636318Y-9520919D01*
X-2626794Y-9473300D01*
X-2617271Y-9444728D01*
X-2607747Y-9425681D01*
X-2588699Y-9397109D01*
X-2579175Y-9387585D01*
X-2407747Y-9416157D02*
X-2502985Y-9416157D01*
X-2512509Y-9511395D01*
X-2502985Y-9501871D01*
X-2483937Y-9492347D01*
X-2436318Y-9492347D01*
X-2417271Y-9501871D01*
X-2407747Y-9511395D01*
X-2398223Y-9530442D01*
X-2398223Y-9578061D01*
X-2407747Y-9597109D01*
X-2417271Y-9606633D01*
X-2436318Y-9616157D01*
X-2483937Y-9616157D01*
X-2502985Y-9606633D01*
X-2512509Y-9597109D01*
X-2226794Y-9482823D02*
X-2226794Y-9616157D01*
X-2274414Y-9406633D02*
X-2322033Y-9549490D01*
X-2198223Y-9549490D01*
X-1969652Y-9616157D02*
X-1969652Y-9416157D01*
X-1883937Y-9616157D02*
X-1883937Y-9511395D01*
X-1893461Y-9492347D01*
X-1912509Y-9482823D01*
X-1941080Y-9482823D01*
X-1960128Y-9492347D01*
X-1969652Y-9501871D01*
X-1760128Y-9616157D02*
X-1779175Y-9606633D01*
X-1788699Y-9597109D01*
X-1798223Y-9578061D01*
X-1798223Y-9520919D01*
X-1788699Y-9501871D01*
X-1779175Y-9492347D01*
X-1760128Y-9482823D01*
X-1731556Y-9482823D01*
X-1712509Y-9492347D01*
X-1702985Y-9501871D01*
X-1693461Y-9520919D01*
X-1693461Y-9578061D01*
X-1702985Y-9597109D01*
X-1712509Y-9606633D01*
X-1731556Y-9616157D01*
X-1760128Y-9616157D01*
X-1579175Y-9616157D02*
X-1598223Y-9606633D01*
X-1607747Y-9587585D01*
X-1607747Y-9416157D01*
X-1426794Y-9606633D02*
X-1445842Y-9616157D01*
X-1483937Y-9616157D01*
X-1502985Y-9606633D01*
X-1512509Y-9587585D01*
X-1512509Y-9511395D01*
X-1502985Y-9492347D01*
X-1483937Y-9482823D01*
X-1445842Y-9482823D01*
X-1426794Y-9492347D01*
X-1417271Y-9511395D01*
X-1417271Y-9530442D01*
X-1512509Y-9549490D01*
X-1341080Y-9606633D02*
X-1322033Y-9616157D01*
X-1283937Y-9616157D01*
X-1264890Y-9606633D01*
X-1255366Y-9587585D01*
X-1255366Y-9578061D01*
X-1264890Y-9559014D01*
X-1283937Y-9549490D01*
X-1312509Y-9549490D01*
X-1331556Y-9539966D01*
X-1341080Y-9520919D01*
X-1341080Y-9511395D01*
X-1331556Y-9492347D01*
X-1312509Y-9482823D01*
X-1283937Y-9482823D01*
X-1264890Y-9492347D01*
X-1188699Y-9692347D02*
X-1179175Y-9682823D01*
X-1160128Y-9654252D01*
X-1150604Y-9635204D01*
X-1141080Y-9606633D01*
X-1131556Y-9559014D01*
X-1131556Y-9520919D01*
X-1141080Y-9473300D01*
X-1150604Y-9444728D01*
X-1160128Y-9425681D01*
X-1179175Y-9397109D01*
X-1188699Y-9387585D01*
X-826794Y-9692347D02*
X-836318Y-9682823D01*
X-855366Y-9654252D01*
X-864890Y-9635204D01*
X-874413Y-9606633D01*
X-883937Y-9559014D01*
X-883937Y-9520919D01*
X-874413Y-9473300D01*
X-864890Y-9444728D01*
X-855366Y-9425681D01*
X-836318Y-9397109D01*
X-826794Y-9387585D01*
X-750604Y-9482823D02*
X-750604Y-9616157D01*
X-750604Y-9501871D02*
X-741080Y-9492347D01*
X-722032Y-9482823D01*
X-693461Y-9482823D01*
X-674414Y-9492347D01*
X-664890Y-9511395D01*
X-664890Y-9616157D01*
X-541080Y-9616157D02*
X-560128Y-9606633D01*
X-569652Y-9597109D01*
X-579175Y-9578061D01*
X-579175Y-9520919D01*
X-569652Y-9501871D01*
X-560128Y-9492347D01*
X-541080Y-9482823D01*
X-512509Y-9482823D01*
X-493461Y-9492347D01*
X-483937Y-9501871D01*
X-474413Y-9520919D01*
X-474413Y-9578061D01*
X-483937Y-9597109D01*
X-493461Y-9606633D01*
X-512509Y-9616157D01*
X-541080Y-9616157D01*
X-417271Y-9482823D02*
X-341080Y-9482823D01*
X-388699Y-9416157D02*
X-388699Y-9587585D01*
X-379175Y-9606633D01*
X-360128Y-9616157D01*
X-341080Y-9616157D01*
X-122032Y-9482823D02*
X-122032Y-9682823D01*
X-122032Y-9492347D02*
X-102985Y-9482823D01*
X-64890Y-9482823D01*
X-45842Y-9492347D01*
X-36318Y-9501871D01*
X-26794Y-9520919D01*
X-26794Y-9578061D01*
X-36318Y-9597109D01*
X-45842Y-9606633D01*
X-64890Y-9616157D01*
X-102985Y-9616157D01*
X-122032Y-9606633D01*
X87491Y-9616157D02*
X68444Y-9606633D01*
X58920Y-9587585D01*
X58920Y-9416157D01*
X249396Y-9616157D02*
X249396Y-9511395D01*
X239872Y-9492347D01*
X220824Y-9482823D01*
X182729Y-9482823D01*
X163682Y-9492347D01*
X249396Y-9606633D02*
X230348Y-9616157D01*
X182729Y-9616157D01*
X163682Y-9606633D01*
X154158Y-9587585D01*
X154158Y-9568538D01*
X163682Y-9549490D01*
X182729Y-9539966D01*
X230348Y-9539966D01*
X249396Y-9530442D01*
X316063Y-9482823D02*
X392253Y-9482823D01*
X344634Y-9416157D02*
X344634Y-9587585D01*
X354158Y-9606633D01*
X373205Y-9616157D01*
X392253Y-9616157D01*
X535110Y-9606633D02*
X516063Y-9616157D01*
X477967Y-9616157D01*
X458920Y-9606633D01*
X449396Y-9587585D01*
X449396Y-9511395D01*
X458920Y-9492347D01*
X477967Y-9482823D01*
X516063Y-9482823D01*
X535110Y-9492347D01*
X544634Y-9511395D01*
X544634Y-9530442D01*
X449396Y-9549490D01*
X716063Y-9616157D02*
X716063Y-9416157D01*
X716063Y-9606633D02*
X697015Y-9616157D01*
X658920Y-9616157D01*
X639872Y-9606633D01*
X630348Y-9597109D01*
X620825Y-9578061D01*
X620825Y-9520919D01*
X630348Y-9501871D01*
X639872Y-9492347D01*
X658920Y-9482823D01*
X697015Y-9482823D01*
X716063Y-9492347D01*
X792253Y-9692347D02*
X801777Y-9682823D01*
X820824Y-9654252D01*
X830348Y-9635204D01*
X839872Y-9606633D01*
X849396Y-9559014D01*
X849396Y-9520919D01*
X839872Y-9473300D01*
X830348Y-9444728D01*
X820824Y-9425681D01*
X801777Y-9397109D01*
X792253Y-9387585D01*
X-6251080Y-9715861D02*
X-6251080Y-9915861D01*
X-6351080Y-9815861D02*
X-6151080Y-9815861D01*
X-5912509Y-9706337D02*
X-5788699Y-9706337D01*
X-5855366Y-9782527D01*
X-5826794Y-9782527D01*
X-5807747Y-9792051D01*
X-5798223Y-9801575D01*
X-5788699Y-9820622D01*
X-5788699Y-9868241D01*
X-5798223Y-9887289D01*
X-5807747Y-9896813D01*
X-5826794Y-9906337D01*
X-5883937Y-9906337D01*
X-5902985Y-9896813D01*
X-5912509Y-9887289D01*
X-5702985Y-9887289D02*
X-5693461Y-9896813D01*
X-5702985Y-9906337D01*
X-5712509Y-9896813D01*
X-5702985Y-9887289D01*
X-5702985Y-9906337D01*
X-5598223Y-9906337D02*
X-5560128Y-9906337D01*
X-5541080Y-9896813D01*
X-5531556Y-9887289D01*
X-5512509Y-9858718D01*
X-5502985Y-9820622D01*
X-5502985Y-9744432D01*
X-5512509Y-9725384D01*
X-5522033Y-9715861D01*
X-5541080Y-9706337D01*
X-5579175Y-9706337D01*
X-5598223Y-9715861D01*
X-5607747Y-9725384D01*
X-5617271Y-9744432D01*
X-5617271Y-9792051D01*
X-5607747Y-9811099D01*
X-5598223Y-9820622D01*
X-5579175Y-9830146D01*
X-5541080Y-9830146D01*
X-5522033Y-9820622D01*
X-5512509Y-9811099D01*
X-5502985Y-9792051D01*
X-5388699Y-9792051D02*
X-5407747Y-9782527D01*
X-5417271Y-9773003D01*
X-5426794Y-9753956D01*
X-5426794Y-9744432D01*
X-5417271Y-9725384D01*
X-5407747Y-9715861D01*
X-5388699Y-9706337D01*
X-5350604Y-9706337D01*
X-5331556Y-9715861D01*
X-5322033Y-9725384D01*
X-5312509Y-9744432D01*
X-5312509Y-9753956D01*
X-5322033Y-9773003D01*
X-5331556Y-9782527D01*
X-5350604Y-9792051D01*
X-5388699Y-9792051D01*
X-5407747Y-9801575D01*
X-5417271Y-9811099D01*
X-5426794Y-9830146D01*
X-5426794Y-9868241D01*
X-5417271Y-9887289D01*
X-5407747Y-9896813D01*
X-5388699Y-9906337D01*
X-5350604Y-9906337D01*
X-5331556Y-9896813D01*
X-5322033Y-9887289D01*
X-5312509Y-9868241D01*
X-5312509Y-9830146D01*
X-5322033Y-9811099D01*
X-5331556Y-9801575D01*
X-5350604Y-9792051D01*
X-5198223Y-9792051D02*
X-5217271Y-9782527D01*
X-5226794Y-9773003D01*
X-5236318Y-9753956D01*
X-5236318Y-9744432D01*
X-5226794Y-9725384D01*
X-5217271Y-9715861D01*
X-5198223Y-9706337D01*
X-5160128Y-9706337D01*
X-5141080Y-9715861D01*
X-5131556Y-9725384D01*
X-5122033Y-9744432D01*
X-5122033Y-9753956D01*
X-5131556Y-9773003D01*
X-5141080Y-9782527D01*
X-5160128Y-9792051D01*
X-5198223Y-9792051D01*
X-5217271Y-9801575D01*
X-5226794Y-9811099D01*
X-5236318Y-9830146D01*
X-5236318Y-9868241D01*
X-5226794Y-9887289D01*
X-5217271Y-9896813D01*
X-5198223Y-9906337D01*
X-5160128Y-9906337D01*
X-5141080Y-9896813D01*
X-5131556Y-9887289D01*
X-5122033Y-9868241D01*
X-5122033Y-9830146D01*
X-5131556Y-9811099D01*
X-5141080Y-9801575D01*
X-5160128Y-9792051D01*
X-5036318Y-9906337D02*
X-5036318Y-9773003D01*
X-5036318Y-9792051D02*
X-5026794Y-9782527D01*
X-5007747Y-9773003D01*
X-4979175Y-9773003D01*
X-4960128Y-9782527D01*
X-4950604Y-9801575D01*
X-4950604Y-9906337D01*
X-4950604Y-9801575D02*
X-4941080Y-9782527D01*
X-4922033Y-9773003D01*
X-4893461Y-9773003D01*
X-4874414Y-9782527D01*
X-4864890Y-9801575D01*
X-4864890Y-9906337D01*
X-4769652Y-9906337D02*
X-4769652Y-9773003D01*
X-4769652Y-9792051D02*
X-4760128Y-9782527D01*
X-4741080Y-9773003D01*
X-4712509Y-9773003D01*
X-4693461Y-9782527D01*
X-4683937Y-9801575D01*
X-4683937Y-9906337D01*
X-4683937Y-9801575D02*
X-4674414Y-9782527D01*
X-4655366Y-9773003D01*
X-4626794Y-9773003D01*
X-4607747Y-9782527D01*
X-4598223Y-9801575D01*
X-4598223Y-9906337D01*
X-4207747Y-9696813D02*
X-4379175Y-9953956D01*
X-3950604Y-9706337D02*
X-3931556Y-9706337D01*
X-3912509Y-9715861D01*
X-3902985Y-9725384D01*
X-3893461Y-9744432D01*
X-3883937Y-9782527D01*
X-3883937Y-9830146D01*
X-3893461Y-9868241D01*
X-3902985Y-9887289D01*
X-3912509Y-9896813D01*
X-3931556Y-9906337D01*
X-3950604Y-9906337D01*
X-3969652Y-9896813D01*
X-3979175Y-9887289D01*
X-3988699Y-9868241D01*
X-3998223Y-9830146D01*
X-3998223Y-9782527D01*
X-3988699Y-9744432D01*
X-3979175Y-9725384D01*
X-3969652Y-9715861D01*
X-3950604Y-9706337D01*
X-3798223Y-9887289D02*
X-3788699Y-9896813D01*
X-3798223Y-9906337D01*
X-3807747Y-9896813D01*
X-3798223Y-9887289D01*
X-3798223Y-9906337D01*
X-3598223Y-9906337D02*
X-3712509Y-9906337D01*
X-3655366Y-9906337D02*
X-3655366Y-9706337D01*
X-3674413Y-9734908D01*
X-3693461Y-9753956D01*
X-3712509Y-9763480D01*
X-3417271Y-9706337D02*
X-3512509Y-9706337D01*
X-3522032Y-9801575D01*
X-3512509Y-9792051D01*
X-3493461Y-9782527D01*
X-3445842Y-9782527D01*
X-3426794Y-9792051D01*
X-3417271Y-9801575D01*
X-3407747Y-9820622D01*
X-3407747Y-9868241D01*
X-3417271Y-9887289D01*
X-3426794Y-9896813D01*
X-3445842Y-9906337D01*
X-3493461Y-9906337D01*
X-3512509Y-9896813D01*
X-3522032Y-9887289D01*
X-3341080Y-9706337D02*
X-3207747Y-9706337D01*
X-3293461Y-9906337D01*
X-3093461Y-9706337D02*
X-3074413Y-9706337D01*
X-3055366Y-9715861D01*
X-3045842Y-9725384D01*
X-3036318Y-9744432D01*
X-3026794Y-9782527D01*
X-3026794Y-9830146D01*
X-3036318Y-9868241D01*
X-3045842Y-9887289D01*
X-3055366Y-9896813D01*
X-3074413Y-9906337D01*
X-3093461Y-9906337D01*
X-3112509Y-9896813D01*
X-3122032Y-9887289D01*
X-3131556Y-9868241D01*
X-3141080Y-9830146D01*
X-3141080Y-9782527D01*
X-3131556Y-9744432D01*
X-3122032Y-9725384D01*
X-3112509Y-9715861D01*
X-3093461Y-9706337D01*
X-2950604Y-9706337D02*
X-2950604Y-9744432D01*
X-2874413Y-9706337D02*
X-2874413Y-9744432D01*
X-2579175Y-9982527D02*
X-2588699Y-9973003D01*
X-2607747Y-9944432D01*
X-2617271Y-9925384D01*
X-2626794Y-9896813D01*
X-2636318Y-9849194D01*
X-2636318Y-9811099D01*
X-2626794Y-9763480D01*
X-2617271Y-9734908D01*
X-2607747Y-9715861D01*
X-2588699Y-9687289D01*
X-2579175Y-9677765D01*
X-2512509Y-9725384D02*
X-2502985Y-9715861D01*
X-2483937Y-9706337D01*
X-2436318Y-9706337D01*
X-2417271Y-9715861D01*
X-2407747Y-9725384D01*
X-2398223Y-9744432D01*
X-2398223Y-9763480D01*
X-2407747Y-9792051D01*
X-2522033Y-9906337D01*
X-2398223Y-9906337D01*
X-2331556Y-9706337D02*
X-2198223Y-9706337D01*
X-2283937Y-9906337D01*
X-1969652Y-9906337D02*
X-1969652Y-9706337D01*
X-1883937Y-9906337D02*
X-1883937Y-9801575D01*
X-1893461Y-9782527D01*
X-1912509Y-9773003D01*
X-1941080Y-9773003D01*
X-1960128Y-9782527D01*
X-1969652Y-9792051D01*
X-1760128Y-9906337D02*
X-1779175Y-9896813D01*
X-1788699Y-9887289D01*
X-1798223Y-9868241D01*
X-1798223Y-9811099D01*
X-1788699Y-9792051D01*
X-1779175Y-9782527D01*
X-1760128Y-9773003D01*
X-1731556Y-9773003D01*
X-1712509Y-9782527D01*
X-1702985Y-9792051D01*
X-1693461Y-9811099D01*
X-1693461Y-9868241D01*
X-1702985Y-9887289D01*
X-1712509Y-9896813D01*
X-1731556Y-9906337D01*
X-1760128Y-9906337D01*
X-1579175Y-9906337D02*
X-1598223Y-9896813D01*
X-1607747Y-9877765D01*
X-1607747Y-9706337D01*
X-1426794Y-9896813D02*
X-1445842Y-9906337D01*
X-1483937Y-9906337D01*
X-1502985Y-9896813D01*
X-1512509Y-9877765D01*
X-1512509Y-9801575D01*
X-1502985Y-9782527D01*
X-1483937Y-9773003D01*
X-1445842Y-9773003D01*
X-1426794Y-9782527D01*
X-1417271Y-9801575D01*
X-1417271Y-9820622D01*
X-1512509Y-9839670D01*
X-1341080Y-9896813D02*
X-1322033Y-9906337D01*
X-1283937Y-9906337D01*
X-1264890Y-9896813D01*
X-1255366Y-9877765D01*
X-1255366Y-9868241D01*
X-1264890Y-9849194D01*
X-1283937Y-9839670D01*
X-1312509Y-9839670D01*
X-1331556Y-9830146D01*
X-1341080Y-9811099D01*
X-1341080Y-9801575D01*
X-1331556Y-9782527D01*
X-1312509Y-9773003D01*
X-1283937Y-9773003D01*
X-1264890Y-9782527D01*
X-1188699Y-9982527D02*
X-1179175Y-9973003D01*
X-1160128Y-9944432D01*
X-1150604Y-9925384D01*
X-1141080Y-9896813D01*
X-1131556Y-9849194D01*
X-1131556Y-9811099D01*
X-1141080Y-9763480D01*
X-1150604Y-9734908D01*
X-1160128Y-9715861D01*
X-1179175Y-9687289D01*
X-1188699Y-9677765D01*
X-826794Y-9982527D02*
X-836318Y-9973003D01*
X-855366Y-9944432D01*
X-864890Y-9925384D01*
X-874413Y-9896813D01*
X-883937Y-9849194D01*
X-883937Y-9811099D01*
X-874413Y-9763480D01*
X-864890Y-9734908D01*
X-855366Y-9715861D01*
X-836318Y-9687289D01*
X-826794Y-9677765D01*
X-750604Y-9773003D02*
X-750604Y-9906337D01*
X-750604Y-9792051D02*
X-741080Y-9782527D01*
X-722032Y-9773003D01*
X-693461Y-9773003D01*
X-674414Y-9782527D01*
X-664890Y-9801575D01*
X-664890Y-9906337D01*
X-541080Y-9906337D02*
X-560128Y-9896813D01*
X-569652Y-9887289D01*
X-579175Y-9868241D01*
X-579175Y-9811099D01*
X-569652Y-9792051D01*
X-560128Y-9782527D01*
X-541080Y-9773003D01*
X-512509Y-9773003D01*
X-493461Y-9782527D01*
X-483937Y-9792051D01*
X-474413Y-9811099D01*
X-474413Y-9868241D01*
X-483937Y-9887289D01*
X-493461Y-9896813D01*
X-512509Y-9906337D01*
X-541080Y-9906337D01*
X-417271Y-9773003D02*
X-341080Y-9773003D01*
X-388699Y-9706337D02*
X-388699Y-9877765D01*
X-379175Y-9896813D01*
X-360128Y-9906337D01*
X-341080Y-9906337D01*
X-122032Y-9773003D02*
X-122032Y-9973003D01*
X-122032Y-9782527D02*
X-102985Y-9773003D01*
X-64890Y-9773003D01*
X-45842Y-9782527D01*
X-36318Y-9792051D01*
X-26794Y-9811099D01*
X-26794Y-9868241D01*
X-36318Y-9887289D01*
X-45842Y-9896813D01*
X-64890Y-9906337D01*
X-102985Y-9906337D01*
X-122032Y-9896813D01*
X87491Y-9906337D02*
X68444Y-9896813D01*
X58920Y-9877765D01*
X58920Y-9706337D01*
X249396Y-9906337D02*
X249396Y-9801575D01*
X239872Y-9782527D01*
X220824Y-9773003D01*
X182729Y-9773003D01*
X163682Y-9782527D01*
X249396Y-9896813D02*
X230348Y-9906337D01*
X182729Y-9906337D01*
X163682Y-9896813D01*
X154158Y-9877765D01*
X154158Y-9858718D01*
X163682Y-9839670D01*
X182729Y-9830146D01*
X230348Y-9830146D01*
X249396Y-9820622D01*
X316063Y-9773003D02*
X392253Y-9773003D01*
X344634Y-9706337D02*
X344634Y-9877765D01*
X354158Y-9896813D01*
X373205Y-9906337D01*
X392253Y-9906337D01*
X535110Y-9896813D02*
X516063Y-9906337D01*
X477967Y-9906337D01*
X458920Y-9896813D01*
X449396Y-9877765D01*
X449396Y-9801575D01*
X458920Y-9782527D01*
X477967Y-9773003D01*
X516063Y-9773003D01*
X535110Y-9782527D01*
X544634Y-9801575D01*
X544634Y-9820622D01*
X449396Y-9839670D01*
X716063Y-9906337D02*
X716063Y-9706337D01*
X716063Y-9896813D02*
X697015Y-9906337D01*
X658920Y-9906337D01*
X639872Y-9896813D01*
X630348Y-9887289D01*
X620825Y-9868241D01*
X620825Y-9811099D01*
X630348Y-9792051D01*
X639872Y-9782527D01*
X658920Y-9773003D01*
X697015Y-9773003D01*
X716063Y-9782527D01*
X792253Y-9982527D02*
X801777Y-9973003D01*
X820824Y-9944432D01*
X830348Y-9925384D01*
X839872Y-9896813D01*
X849396Y-9849194D01*
X849396Y-9811099D01*
X839872Y-9763480D01*
X830348Y-9734908D01*
X820824Y-9715861D01*
X801777Y-9687289D01*
X792253Y-9677765D01*
M02*
