%TF.GenerationSoftware,KiCad,Pcbnew,(6.0.5)*%
%TF.CreationDate,2022-07-25T14:13:38-03:00*%
%TF.ProjectId,bluejay_base,626c7565-6a61-4795-9f62-6173652e6b69,rev?*%
%TF.SameCoordinates,Original*%
%TF.FileFunction,Copper,L1,Top*%
%TF.FilePolarity,Positive*%
%FSLAX46Y46*%
G04 Gerber Fmt 4.6, Leading zero omitted, Abs format (unit mm)*
G04 Created by KiCad (PCBNEW (6.0.5)) date 2022-07-25 14:13:38*
%MOMM*%
%LPD*%
G01*
G04 APERTURE LIST*
%TA.AperFunction,ComponentPad*%
%ADD10C,4.400000*%
%TD*%
G04 APERTURE END LIST*
D10*
%TO.P,H9,1*%
%TO.N,N/C*%
X56950000Y-64150000D03*
%TD*%
%TO.P,H8,1*%
%TO.N,N/C*%
X40900000Y-63300000D03*
%TD*%
%TO.P,H5,1*%
%TO.N,N/C*%
X-29150000Y-9550000D03*
%TD*%
%TO.P,H1,1*%
%TO.N,N/C*%
X-82200000Y52600000D03*
%TD*%
%TO.P,H7,1*%
%TO.N,N/C*%
X1600000Y-46000000D03*
%TD*%
%TO.P,H2,1,1*%
%TO.N,GND*%
X57200000Y52500000D03*
%TD*%
%TO.P,H3,1*%
%TO.N,N/C*%
X9000000Y28600000D03*
%TD*%
%TO.P,H6,1*%
%TO.N,N/C*%
X-66800000Y-16600000D03*
%TD*%
%TO.P,H4,1*%
%TO.N,N/C*%
X-66800000Y2400000D03*
%TD*%
%TA.AperFunction,Conductor*%
%TO.N,GND*%
G36*
X57044545Y55891442D02*
G01*
X57740352Y55871158D01*
X58925216Y55836616D01*
X58941331Y55835106D01*
X58973209Y55830033D01*
X58988526Y55831984D01*
X59013813Y55832644D01*
X59182821Y55820040D01*
X59200532Y55817444D01*
X59390887Y55775551D01*
X59408052Y55770471D01*
X59590542Y55702027D01*
X59606815Y55694566D01*
X59777774Y55600945D01*
X59792824Y55591253D01*
X59948784Y55474355D01*
X59962309Y55462628D01*
X60100128Y55324809D01*
X60111855Y55311284D01*
X60228753Y55155324D01*
X60238445Y55140274D01*
X60332066Y54969315D01*
X60339527Y54953042D01*
X60407971Y54770552D01*
X60413051Y54753387D01*
X60454944Y54563032D01*
X60457540Y54545321D01*
X60467211Y54415653D01*
X60469615Y54383414D01*
X60468912Y54365096D01*
X60468841Y54357135D01*
X60467490Y54348261D01*
X60468684Y54339364D01*
X60471580Y54317775D01*
X60472699Y54301021D01*
X60472700Y-70421628D01*
X60452698Y-70489749D01*
X60442378Y-70503615D01*
X60069844Y-70938349D01*
X49419577Y-83366829D01*
X49409307Y-83377478D01*
X49396721Y-83389082D01*
X49382949Y-83401779D01*
X49378321Y-83409473D01*
X49377543Y-83410428D01*
X49359493Y-83433504D01*
X49325218Y-83467735D01*
X49295157Y-83497758D01*
X49272590Y-83515644D01*
X49179308Y-83573569D01*
X49153266Y-83585866D01*
X49049267Y-83621097D01*
X49021117Y-83627159D01*
X48911842Y-83637857D01*
X48883048Y-83637370D01*
X48793747Y-83625562D01*
X48774187Y-83622976D01*
X48746261Y-83615964D01*
X48643513Y-83577228D01*
X48617907Y-83564058D01*
X48526636Y-83503004D01*
X48504692Y-83484365D01*
X48446917Y-83422617D01*
X48436773Y-83410297D01*
X48431859Y-83403492D01*
X48427688Y-83395542D01*
X48409333Y-83376525D01*
X48397575Y-83362413D01*
X48382177Y-83340921D01*
X48377763Y-83336425D01*
X48376791Y-83335434D01*
X48376787Y-83335431D01*
X48373383Y-83331963D01*
X48370579Y-83329875D01*
X48368261Y-83327737D01*
X46968380Y-81962482D01*
X46302823Y-81337759D01*
X45538265Y-80620108D01*
X45538223Y-80620070D01*
X45537838Y-80619708D01*
X44081893Y-79304522D01*
X42601076Y-78017404D01*
X42600679Y-78017072D01*
X42600652Y-78017049D01*
X41096412Y-76759228D01*
X41095929Y-76758824D01*
X39567002Y-75529242D01*
X38014852Y-74329108D01*
X36440048Y-73158859D01*
X34843164Y-72018924D01*
X34842699Y-72018605D01*
X34842670Y-72018585D01*
X33225254Y-70910041D01*
X33224783Y-70909718D01*
X33224351Y-70909434D01*
X33224311Y-70909407D01*
X31585938Y-69831937D01*
X31585911Y-69831920D01*
X31585498Y-69831648D01*
X29925908Y-68785106D01*
X29535044Y-68548946D01*
X28247174Y-67770812D01*
X28247135Y-67770789D01*
X28246617Y-67770476D01*
X26548240Y-66788128D01*
X24831398Y-65838421D01*
X23096718Y-64921702D01*
X23096241Y-64921461D01*
X23096213Y-64921447D01*
X21345363Y-64038572D01*
X21345342Y-64038562D01*
X21344833Y-64038305D01*
X21277388Y-64005897D01*
X20435777Y-63601498D01*
X19749182Y-63271585D01*
X38186698Y-63271585D01*
X38202936Y-63597759D01*
X38203577Y-63601490D01*
X38203578Y-63601498D01*
X38242463Y-63827793D01*
X38258241Y-63919619D01*
X38259329Y-63923258D01*
X38259330Y-63923261D01*
X38344135Y-64206826D01*
X38351814Y-64232504D01*
X38482297Y-64531881D01*
X38484220Y-64535152D01*
X38484222Y-64535156D01*
X38526584Y-64607215D01*
X38647802Y-64813414D01*
X38650103Y-64816429D01*
X38843631Y-65070012D01*
X38843636Y-65070017D01*
X38845931Y-65073025D01*
X39073814Y-65306953D01*
X39204186Y-65411962D01*
X39325196Y-65509431D01*
X39325201Y-65509435D01*
X39328149Y-65511809D01*
X39605253Y-65684627D01*
X39901112Y-65822903D01*
X39904721Y-65824086D01*
X40206532Y-65923025D01*
X40211440Y-65924634D01*
X40531742Y-65988346D01*
X40535514Y-65988633D01*
X40535522Y-65988634D01*
X40853602Y-66012829D01*
X40853607Y-66012829D01*
X40857379Y-66013116D01*
X41183633Y-65998586D01*
X41243425Y-65988634D01*
X41502037Y-65945590D01*
X41502042Y-65945589D01*
X41505778Y-65944967D01*
X41819149Y-65853034D01*
X41822616Y-65851544D01*
X41822620Y-65851543D01*
X42115721Y-65725616D01*
X42115723Y-65725615D01*
X42119205Y-65724119D01*
X42401601Y-65560091D01*
X42662245Y-65363324D01*
X42871000Y-65162084D01*
X42894632Y-65139303D01*
X42894635Y-65139300D01*
X42897363Y-65136670D01*
X43072157Y-64921969D01*
X43101155Y-64886351D01*
X43101158Y-64886347D01*
X43103549Y-64883410D01*
X43277815Y-64607215D01*
X43313294Y-64532329D01*
X43416009Y-64315522D01*
X43417638Y-64312084D01*
X43444188Y-64232504D01*
X43481193Y-64121585D01*
X54236698Y-64121585D01*
X54252936Y-64447759D01*
X54253577Y-64451490D01*
X54253578Y-64451498D01*
X54268109Y-64536060D01*
X54308241Y-64769619D01*
X54309329Y-64773258D01*
X54309330Y-64773261D01*
X54353804Y-64921969D01*
X54401814Y-65082504D01*
X54403327Y-65085975D01*
X54403329Y-65085981D01*
X54434929Y-65158482D01*
X54532297Y-65381881D01*
X54534220Y-65385152D01*
X54534222Y-65385156D01*
X54576584Y-65457215D01*
X54697802Y-65663414D01*
X54700103Y-65666429D01*
X54893631Y-65920012D01*
X54893636Y-65920017D01*
X54895931Y-65923025D01*
X55123814Y-66156953D01*
X55196635Y-66215607D01*
X55375196Y-66359431D01*
X55375201Y-66359435D01*
X55378149Y-66361809D01*
X55655253Y-66534627D01*
X55951112Y-66672903D01*
X56261440Y-66774634D01*
X56581742Y-66838346D01*
X56585514Y-66838633D01*
X56585522Y-66838634D01*
X56903602Y-66862829D01*
X56903607Y-66862829D01*
X56907379Y-66863116D01*
X57233633Y-66848586D01*
X57293425Y-66838634D01*
X57552037Y-66795590D01*
X57552042Y-66795589D01*
X57555778Y-66794967D01*
X57869149Y-66703034D01*
X57872616Y-66701544D01*
X57872620Y-66701543D01*
X58165721Y-66575616D01*
X58165723Y-66575615D01*
X58169205Y-66574119D01*
X58451601Y-66410091D01*
X58712245Y-66213324D01*
X58829804Y-66099997D01*
X58944632Y-65989303D01*
X58944635Y-65989300D01*
X58947363Y-65986670D01*
X59153549Y-65733410D01*
X59327815Y-65457215D01*
X59467638Y-65162084D01*
X59468840Y-65158482D01*
X59569790Y-64855897D01*
X59569792Y-64855891D01*
X59570992Y-64852293D01*
X59636381Y-64532329D01*
X59642956Y-64451498D01*
X59662674Y-64209061D01*
X59662856Y-64206826D01*
X59663451Y-64150000D01*
X59661510Y-64117796D01*
X59644026Y-63827793D01*
X59644026Y-63827789D01*
X59643798Y-63824015D01*
X59638650Y-63795824D01*
X59585805Y-63506473D01*
X59585804Y-63506469D01*
X59585125Y-63502751D01*
X59577722Y-63478907D01*
X59489404Y-63194477D01*
X59488282Y-63190863D01*
X59354670Y-62892869D01*
X59186226Y-62613084D01*
X59183899Y-62610100D01*
X59183894Y-62610093D01*
X58987726Y-62358558D01*
X58987724Y-62358556D01*
X58985390Y-62355563D01*
X58755070Y-62124034D01*
X58498603Y-61921852D01*
X58219705Y-61751945D01*
X58216261Y-61750379D01*
X58216257Y-61750377D01*
X58105667Y-61700095D01*
X57922414Y-61616775D01*
X57611037Y-61518300D01*
X57393492Y-61477390D01*
X57293809Y-61458645D01*
X57293807Y-61458645D01*
X57290086Y-61457945D01*
X56964208Y-61436586D01*
X56960428Y-61436794D01*
X56960427Y-61436794D01*
X56862897Y-61442162D01*
X56638124Y-61454532D01*
X56634397Y-61455193D01*
X56634393Y-61455193D01*
X56484935Y-61481681D01*
X56316557Y-61511522D01*
X56312941Y-61512624D01*
X56312933Y-61512626D01*
X56054223Y-61591475D01*
X56004167Y-61606731D01*
X55705477Y-61738781D01*
X55614976Y-61792623D01*
X55428074Y-61903817D01*
X55428068Y-61903821D01*
X55424814Y-61905757D01*
X55421812Y-61908073D01*
X55242596Y-62046338D01*
X55166244Y-62105243D01*
X54933513Y-62334347D01*
X54931149Y-62337314D01*
X54931146Y-62337317D01*
X54775860Y-62532189D01*
X54729991Y-62589751D01*
X54558626Y-62867757D01*
X54421902Y-63164336D01*
X54420741Y-63167940D01*
X54420741Y-63167941D01*
X54412196Y-63194477D01*
X54321797Y-63475192D01*
X54321079Y-63478903D01*
X54321078Y-63478907D01*
X54260482Y-63792105D01*
X54260481Y-63792114D01*
X54259763Y-63795824D01*
X54259496Y-63799600D01*
X54259495Y-63799605D01*
X54237261Y-64113627D01*
X54236698Y-64121585D01*
X43481193Y-64121585D01*
X43519790Y-64005897D01*
X43519792Y-64005891D01*
X43520992Y-64002293D01*
X43586381Y-63682329D01*
X43592956Y-63601498D01*
X43612674Y-63359061D01*
X43612856Y-63356826D01*
X43613451Y-63300000D01*
X43611510Y-63267796D01*
X43594026Y-62977793D01*
X43594026Y-62977789D01*
X43593798Y-62974015D01*
X43588650Y-62945824D01*
X43535805Y-62656473D01*
X43535804Y-62656469D01*
X43535125Y-62652751D01*
X43527722Y-62628907D01*
X43442846Y-62355563D01*
X43438282Y-62340863D01*
X43304670Y-62042869D01*
X43136226Y-61763084D01*
X43133899Y-61760100D01*
X43133894Y-61760093D01*
X42937726Y-61508558D01*
X42937724Y-61508556D01*
X42935390Y-61505563D01*
X42705070Y-61274034D01*
X42448603Y-61071852D01*
X42169705Y-60901945D01*
X42166261Y-60900379D01*
X42166257Y-60900377D01*
X42042266Y-60844002D01*
X41872414Y-60766775D01*
X41561037Y-60668300D01*
X41343492Y-60627390D01*
X41243809Y-60608645D01*
X41243807Y-60608645D01*
X41240086Y-60607945D01*
X40914208Y-60586586D01*
X40910428Y-60586794D01*
X40910427Y-60586794D01*
X40812897Y-60592162D01*
X40588124Y-60604532D01*
X40584397Y-60605193D01*
X40584393Y-60605193D01*
X40427341Y-60633027D01*
X40266557Y-60661522D01*
X40262941Y-60662624D01*
X40262933Y-60662626D01*
X39957789Y-60755627D01*
X39954167Y-60756731D01*
X39655477Y-60888781D01*
X39630041Y-60903914D01*
X39378074Y-61053817D01*
X39378068Y-61053821D01*
X39374814Y-61055757D01*
X39371812Y-61058073D01*
X39333640Y-61087523D01*
X39116244Y-61255243D01*
X39113534Y-61257911D01*
X38913129Y-61455193D01*
X38883513Y-61484347D01*
X38881149Y-61487314D01*
X38881146Y-61487317D01*
X38777986Y-61616775D01*
X38679991Y-61739751D01*
X38508626Y-62017757D01*
X38371902Y-62314336D01*
X38370741Y-62317940D01*
X38370741Y-62317941D01*
X38362196Y-62344477D01*
X38271797Y-62625192D01*
X38271079Y-62628903D01*
X38271078Y-62628907D01*
X38210482Y-62942105D01*
X38210481Y-62942114D01*
X38209763Y-62945824D01*
X38209496Y-62949600D01*
X38209495Y-62949605D01*
X38186966Y-63267796D01*
X38186698Y-63271585D01*
X19749182Y-63271585D01*
X19576383Y-63188554D01*
X17792015Y-62372759D01*
X17140550Y-62089843D01*
X15992972Y-61591475D01*
X15992964Y-61591472D01*
X15992380Y-61591218D01*
X15170761Y-61252922D01*
X14178711Y-60844452D01*
X14178680Y-60844440D01*
X14178137Y-60844216D01*
X13979346Y-60766775D01*
X12350479Y-60132234D01*
X12350458Y-60132226D01*
X12349947Y-60132027D01*
X11397310Y-59781738D01*
X10509032Y-59455114D01*
X10509000Y-59455103D01*
X10508479Y-59454911D01*
X10507960Y-59454731D01*
X10507903Y-59454711D01*
X8654955Y-58813305D01*
X8654919Y-58813293D01*
X8654405Y-58813115D01*
X8653884Y-58812946D01*
X8653855Y-58812936D01*
X6789026Y-58207075D01*
X6789019Y-58207073D01*
X6788404Y-58206873D01*
X5534597Y-57825861D01*
X4911762Y-57636592D01*
X4911747Y-57636587D01*
X4911156Y-57636408D01*
X4910616Y-57636255D01*
X4910585Y-57636246D01*
X3023878Y-57102076D01*
X3023847Y-57102067D01*
X3023347Y-57101926D01*
X1125668Y-56603625D01*
X-303314Y-56257451D01*
X-780594Y-56141829D01*
X-780608Y-56141826D01*
X-781189Y-56141685D01*
X-781752Y-56141560D01*
X-781769Y-56141556D01*
X-1505797Y-55980745D01*
X-2696526Y-55716276D01*
X-2697157Y-55716148D01*
X-2697178Y-55716144D01*
X-3901217Y-55472770D01*
X-4619645Y-55327553D01*
X-5847269Y-55103744D01*
X-6549221Y-54975771D01*
X-6549242Y-54975767D01*
X-6549842Y-54975658D01*
X-6550476Y-54975555D01*
X-6550487Y-54975553D01*
X-8485797Y-54660819D01*
X-8485799Y-54660819D01*
X-8486412Y-54660719D01*
X-10428649Y-54382853D01*
X-11257080Y-54280450D01*
X-12375216Y-54142236D01*
X-12375242Y-54142233D01*
X-12375841Y-54142159D01*
X-13351560Y-54040442D01*
X-14326673Y-53938789D01*
X-14326680Y-53938788D01*
X-14327278Y-53938726D01*
X-16282246Y-53772629D01*
X-16282799Y-53772593D01*
X-16282834Y-53772590D01*
X-17636636Y-53683594D01*
X-17970124Y-53661671D01*
X-18036786Y-53637243D01*
X-18058202Y-53617145D01*
X-22739279Y-48063324D01*
X-24502316Y-45971585D01*
X-1113302Y-45971585D01*
X-1097064Y-46297759D01*
X-1096423Y-46301490D01*
X-1096422Y-46301498D01*
X-1081891Y-46386060D01*
X-1041759Y-46619619D01*
X-948186Y-46932504D01*
X-817703Y-47231881D01*
X-815780Y-47235152D01*
X-815778Y-47235156D01*
X-773416Y-47307215D01*
X-652198Y-47513414D01*
X-649897Y-47516429D01*
X-456369Y-47770012D01*
X-456364Y-47770017D01*
X-454069Y-47773025D01*
X-226186Y-48006953D01*
X-153365Y-48065607D01*
X25196Y-48209431D01*
X25201Y-48209435D01*
X28149Y-48211809D01*
X305253Y-48384627D01*
X601112Y-48522903D01*
X911440Y-48624634D01*
X1231742Y-48688346D01*
X1235514Y-48688633D01*
X1235522Y-48688634D01*
X1553602Y-48712829D01*
X1553607Y-48712829D01*
X1557379Y-48713116D01*
X1883633Y-48698586D01*
X1943425Y-48688634D01*
X2202037Y-48645590D01*
X2202042Y-48645589D01*
X2205778Y-48644967D01*
X2519149Y-48553034D01*
X2522616Y-48551544D01*
X2522620Y-48551543D01*
X2815721Y-48425616D01*
X2815723Y-48425615D01*
X2819205Y-48424119D01*
X3101601Y-48260091D01*
X3362245Y-48063324D01*
X3597363Y-47836670D01*
X3803549Y-47583410D01*
X3977815Y-47307215D01*
X4117638Y-47012084D01*
X4144188Y-46932504D01*
X4219790Y-46705897D01*
X4219792Y-46705891D01*
X4220992Y-46702293D01*
X4286381Y-46382329D01*
X4292956Y-46301498D01*
X4312674Y-46059061D01*
X4312856Y-46056826D01*
X4313451Y-46000000D01*
X4311510Y-45967796D01*
X4294026Y-45677793D01*
X4294026Y-45677789D01*
X4293798Y-45674015D01*
X4288650Y-45645824D01*
X4235805Y-45356473D01*
X4235804Y-45356469D01*
X4235125Y-45352751D01*
X4227722Y-45328907D01*
X4139404Y-45044477D01*
X4138282Y-45040863D01*
X4004670Y-44742869D01*
X3836226Y-44463084D01*
X3833899Y-44460100D01*
X3833894Y-44460093D01*
X3637726Y-44208558D01*
X3637724Y-44208556D01*
X3635390Y-44205563D01*
X3405070Y-43974034D01*
X3148603Y-43771852D01*
X2869705Y-43601945D01*
X2866261Y-43600379D01*
X2866257Y-43600377D01*
X2755667Y-43550095D01*
X2572414Y-43466775D01*
X2261037Y-43368300D01*
X2043492Y-43327390D01*
X1943809Y-43308645D01*
X1943807Y-43308645D01*
X1940086Y-43307945D01*
X1614208Y-43286586D01*
X1610428Y-43286794D01*
X1610427Y-43286794D01*
X1512897Y-43292162D01*
X1288124Y-43304532D01*
X1284397Y-43305193D01*
X1284393Y-43305193D01*
X1127341Y-43333027D01*
X966557Y-43361522D01*
X962941Y-43362624D01*
X962933Y-43362626D01*
X657789Y-43455627D01*
X654167Y-43456731D01*
X355477Y-43588781D01*
X330041Y-43603914D01*
X78074Y-43753817D01*
X78068Y-43753821D01*
X74814Y-43755757D01*
X-183756Y-43955243D01*
X-416487Y-44184347D01*
X-418851Y-44187314D01*
X-418854Y-44187317D01*
X-435780Y-44208558D01*
X-620009Y-44439751D01*
X-791374Y-44717757D01*
X-928098Y-45014336D01*
X-929259Y-45017940D01*
X-929259Y-45017941D01*
X-937804Y-45044477D01*
X-1028203Y-45325192D01*
X-1028921Y-45328903D01*
X-1028922Y-45328907D01*
X-1089518Y-45642105D01*
X-1089519Y-45642114D01*
X-1090237Y-45645824D01*
X-1113302Y-45971585D01*
X-24502316Y-45971585D01*
X-32601673Y-36362178D01*
X-32611882Y-36348225D01*
X-32622828Y-36330882D01*
X-32622829Y-36330880D01*
X-32627620Y-36323290D01*
X-32680909Y-36276239D01*
X-32681309Y-36275885D01*
X-32728273Y-36234007D01*
X-32734702Y-36228274D01*
X-32735856Y-36227725D01*
X-32736808Y-36226885D01*
X-32801151Y-36196686D01*
X-32801710Y-36196422D01*
X-32858430Y-36169460D01*
X-32858434Y-36169459D01*
X-32866253Y-36165742D01*
X-32867513Y-36165540D01*
X-32868665Y-36164999D01*
X-32877223Y-36163668D01*
X-32877225Y-36163667D01*
X-32916700Y-36157526D01*
X-32939034Y-36154052D01*
X-32939439Y-36153988D01*
X-32984084Y-36146818D01*
X-33001206Y-36144068D01*
X-33001208Y-36144068D01*
X-33010068Y-36142645D01*
X-33018973Y-36143766D01*
X-33018976Y-36143766D01*
X-33043216Y-36146818D01*
X-33058937Y-36147805D01*
X-37918720Y-36148445D01*
X-83972973Y-36154511D01*
X-83993624Y-36152809D01*
X-84014051Y-36149416D01*
X-84029378Y-36151263D01*
X-84054669Y-36151753D01*
X-84225502Y-36137851D01*
X-84243183Y-36135138D01*
X-84435128Y-36091537D01*
X-84452244Y-36086347D01*
X-84636074Y-36015990D01*
X-84652293Y-36008421D01*
X-84824287Y-35912734D01*
X-84839270Y-35902944D01*
X-84995977Y-35783848D01*
X-85009422Y-35772033D01*
X-85147670Y-35631938D01*
X-85159305Y-35618338D01*
X-85276313Y-35460062D01*
X-85285899Y-35444958D01*
X-85379302Y-35271696D01*
X-85386648Y-35255394D01*
X-85454564Y-35070634D01*
X-85459527Y-35053448D01*
X-85500574Y-34860954D01*
X-85503054Y-34843228D01*
X-85514203Y-34679332D01*
X-85513382Y-34661034D01*
X-85513259Y-34653068D01*
X-85511850Y-34644199D01*
X-85516005Y-34611622D01*
X-85517018Y-34595682D01*
X-85516835Y-18813817D01*
X-85516809Y-16571585D01*
X-69513302Y-16571585D01*
X-69497064Y-16897759D01*
X-69496423Y-16901490D01*
X-69496422Y-16901498D01*
X-69481891Y-16986060D01*
X-69441759Y-17219619D01*
X-69348186Y-17532504D01*
X-69217703Y-17831881D01*
X-69215780Y-17835152D01*
X-69215778Y-17835156D01*
X-69173416Y-17907215D01*
X-69052198Y-18113414D01*
X-69049897Y-18116429D01*
X-68856369Y-18370012D01*
X-68856364Y-18370017D01*
X-68854069Y-18373025D01*
X-68626186Y-18606953D01*
X-68553365Y-18665607D01*
X-68374804Y-18809431D01*
X-68374799Y-18809435D01*
X-68371851Y-18811809D01*
X-68094747Y-18984627D01*
X-67798888Y-19122903D01*
X-67488560Y-19224634D01*
X-67168258Y-19288346D01*
X-67164486Y-19288633D01*
X-67164478Y-19288634D01*
X-66846398Y-19312829D01*
X-66846393Y-19312829D01*
X-66842621Y-19313116D01*
X-66516367Y-19298586D01*
X-66456575Y-19288634D01*
X-66197963Y-19245590D01*
X-66197958Y-19245589D01*
X-66194222Y-19244967D01*
X-65880851Y-19153034D01*
X-65877384Y-19151544D01*
X-65877380Y-19151543D01*
X-65584279Y-19025616D01*
X-65584277Y-19025615D01*
X-65580795Y-19024119D01*
X-65298399Y-18860091D01*
X-65037755Y-18663324D01*
X-64802637Y-18436670D01*
X-64596451Y-18183410D01*
X-64422185Y-17907215D01*
X-64282362Y-17612084D01*
X-64255812Y-17532504D01*
X-64180210Y-17305897D01*
X-64180208Y-17305891D01*
X-64179008Y-17302293D01*
X-64113619Y-16982329D01*
X-64107044Y-16901498D01*
X-64087326Y-16659061D01*
X-64087144Y-16656826D01*
X-64086549Y-16600000D01*
X-64088490Y-16567796D01*
X-64105974Y-16277793D01*
X-64105974Y-16277789D01*
X-64106202Y-16274015D01*
X-64111350Y-16245824D01*
X-64164195Y-15956473D01*
X-64164196Y-15956469D01*
X-64164875Y-15952751D01*
X-64172278Y-15928907D01*
X-64260596Y-15644477D01*
X-64261718Y-15640863D01*
X-64395330Y-15342869D01*
X-64563774Y-15063084D01*
X-64566101Y-15060100D01*
X-64566106Y-15060093D01*
X-64762274Y-14808558D01*
X-64762276Y-14808556D01*
X-64764610Y-14805563D01*
X-64994930Y-14574034D01*
X-65251397Y-14371852D01*
X-65530295Y-14201945D01*
X-65533739Y-14200379D01*
X-65533743Y-14200377D01*
X-65644333Y-14150095D01*
X-65827586Y-14066775D01*
X-66138963Y-13968300D01*
X-66356508Y-13927390D01*
X-66456191Y-13908645D01*
X-66456193Y-13908645D01*
X-66459914Y-13907945D01*
X-66785792Y-13886586D01*
X-66789572Y-13886794D01*
X-66789573Y-13886794D01*
X-66887103Y-13892162D01*
X-67111876Y-13904532D01*
X-67115603Y-13905193D01*
X-67115607Y-13905193D01*
X-67272659Y-13933027D01*
X-67433443Y-13961522D01*
X-67437059Y-13962624D01*
X-67437067Y-13962626D01*
X-67742211Y-14055627D01*
X-67745833Y-14056731D01*
X-68044523Y-14188781D01*
X-68069959Y-14203914D01*
X-68321926Y-14353817D01*
X-68321932Y-14353821D01*
X-68325186Y-14355757D01*
X-68583756Y-14555243D01*
X-68816487Y-14784347D01*
X-68818851Y-14787314D01*
X-68818854Y-14787317D01*
X-68835780Y-14808558D01*
X-69020009Y-15039751D01*
X-69191374Y-15317757D01*
X-69328098Y-15614336D01*
X-69329259Y-15617940D01*
X-69329259Y-15617941D01*
X-69337804Y-15644477D01*
X-69428203Y-15925192D01*
X-69428921Y-15928903D01*
X-69428922Y-15928907D01*
X-69489518Y-16242105D01*
X-69489519Y-16242114D01*
X-69490237Y-16245824D01*
X-69513302Y-16571585D01*
X-85516809Y-16571585D01*
X-85516728Y-9521585D01*
X-31863302Y-9521585D01*
X-31847064Y-9847759D01*
X-31846423Y-9851490D01*
X-31846422Y-9851498D01*
X-31831891Y-9936060D01*
X-31791759Y-10169619D01*
X-31698186Y-10482504D01*
X-31567703Y-10781881D01*
X-31565780Y-10785152D01*
X-31565778Y-10785156D01*
X-31523416Y-10857215D01*
X-31402198Y-11063414D01*
X-31399897Y-11066429D01*
X-31206369Y-11320012D01*
X-31206364Y-11320017D01*
X-31204069Y-11323025D01*
X-30976186Y-11556953D01*
X-30903365Y-11615607D01*
X-30724804Y-11759431D01*
X-30724799Y-11759435D01*
X-30721851Y-11761809D01*
X-30444747Y-11934627D01*
X-30148888Y-12072903D01*
X-29838560Y-12174634D01*
X-29518258Y-12238346D01*
X-29514486Y-12238633D01*
X-29514478Y-12238634D01*
X-29196398Y-12262829D01*
X-29196393Y-12262829D01*
X-29192621Y-12263116D01*
X-28866367Y-12248586D01*
X-28806575Y-12238634D01*
X-28547963Y-12195590D01*
X-28547958Y-12195589D01*
X-28544222Y-12194967D01*
X-28230851Y-12103034D01*
X-28227384Y-12101544D01*
X-28227380Y-12101543D01*
X-27934279Y-11975616D01*
X-27934277Y-11975615D01*
X-27930795Y-11974119D01*
X-27648399Y-11810091D01*
X-27387755Y-11613324D01*
X-27152637Y-11386670D01*
X-26946451Y-11133410D01*
X-26772185Y-10857215D01*
X-26632362Y-10562084D01*
X-26605812Y-10482504D01*
X-26530210Y-10255897D01*
X-26530208Y-10255891D01*
X-26529008Y-10252293D01*
X-26463619Y-9932329D01*
X-26457044Y-9851498D01*
X-26437326Y-9609061D01*
X-26437144Y-9606826D01*
X-26436549Y-9550000D01*
X-26438490Y-9517796D01*
X-26455974Y-9227793D01*
X-26455974Y-9227789D01*
X-26456202Y-9224015D01*
X-26461350Y-9195824D01*
X-26514195Y-8906473D01*
X-26514196Y-8906469D01*
X-26514875Y-8902751D01*
X-26522278Y-8878907D01*
X-26610596Y-8594477D01*
X-26611718Y-8590863D01*
X-26745330Y-8292869D01*
X-26913774Y-8013084D01*
X-26916101Y-8010100D01*
X-26916106Y-8010093D01*
X-27112274Y-7758558D01*
X-27112276Y-7758556D01*
X-27114610Y-7755563D01*
X-27344930Y-7524034D01*
X-27601397Y-7321852D01*
X-27880295Y-7151945D01*
X-27883739Y-7150379D01*
X-27883743Y-7150377D01*
X-27994333Y-7100095D01*
X-28177586Y-7016775D01*
X-28488963Y-6918300D01*
X-28706508Y-6877390D01*
X-28806191Y-6858645D01*
X-28806193Y-6858645D01*
X-28809914Y-6857945D01*
X-29135792Y-6836586D01*
X-29139572Y-6836794D01*
X-29139573Y-6836794D01*
X-29237103Y-6842162D01*
X-29461876Y-6854532D01*
X-29465603Y-6855193D01*
X-29465607Y-6855193D01*
X-29622659Y-6883027D01*
X-29783443Y-6911522D01*
X-29787059Y-6912624D01*
X-29787067Y-6912626D01*
X-30092211Y-7005627D01*
X-30095833Y-7006731D01*
X-30394523Y-7138781D01*
X-30419959Y-7153914D01*
X-30671926Y-7303817D01*
X-30671932Y-7303821D01*
X-30675186Y-7305757D01*
X-30933756Y-7505243D01*
X-31166487Y-7734347D01*
X-31168851Y-7737314D01*
X-31168854Y-7737317D01*
X-31185780Y-7758558D01*
X-31370009Y-7989751D01*
X-31541374Y-8267757D01*
X-31678098Y-8564336D01*
X-31679259Y-8567940D01*
X-31679259Y-8567941D01*
X-31687804Y-8594477D01*
X-31778203Y-8875192D01*
X-31778921Y-8878903D01*
X-31778922Y-8878907D01*
X-31839518Y-9192105D01*
X-31839519Y-9192114D01*
X-31840237Y-9195824D01*
X-31863302Y-9521585D01*
X-85516728Y-9521585D01*
X-85516590Y2428415D01*
X-69513302Y2428415D01*
X-69497064Y2102241D01*
X-69496423Y2098510D01*
X-69496422Y2098502D01*
X-69481891Y2013940D01*
X-69441759Y1780381D01*
X-69348186Y1467496D01*
X-69217703Y1168119D01*
X-69215780Y1164848D01*
X-69215778Y1164844D01*
X-69173416Y1092785D01*
X-69052198Y886586D01*
X-69049897Y883571D01*
X-68856369Y629988D01*
X-68856364Y629983D01*
X-68854069Y626975D01*
X-68626186Y393047D01*
X-68553365Y334393D01*
X-68374804Y190569D01*
X-68374799Y190565D01*
X-68371851Y188191D01*
X-68094747Y15373D01*
X-67798888Y-122903D01*
X-67488560Y-224634D01*
X-67168258Y-288346D01*
X-67164486Y-288633D01*
X-67164478Y-288634D01*
X-66846398Y-312829D01*
X-66846393Y-312829D01*
X-66842621Y-313116D01*
X-66516367Y-298586D01*
X-66456575Y-288634D01*
X-66197963Y-245590D01*
X-66197958Y-245589D01*
X-66194222Y-244967D01*
X-65880851Y-153034D01*
X-65877384Y-151544D01*
X-65877380Y-151543D01*
X-65584279Y-25616D01*
X-65584277Y-25615D01*
X-65580795Y-24119D01*
X-65298399Y139909D01*
X-65037755Y336676D01*
X-64802637Y563330D01*
X-64596451Y816590D01*
X-64422185Y1092785D01*
X-64282362Y1387916D01*
X-64255812Y1467496D01*
X-64180210Y1694103D01*
X-64180208Y1694109D01*
X-64179008Y1697707D01*
X-64113619Y2017671D01*
X-64107044Y2098502D01*
X-64087326Y2340939D01*
X-64087144Y2343174D01*
X-64086549Y2400000D01*
X-64088490Y2432204D01*
X-64105974Y2722207D01*
X-64105974Y2722211D01*
X-64106202Y2725985D01*
X-64111350Y2754176D01*
X-64164195Y3043527D01*
X-64164196Y3043531D01*
X-64164875Y3047249D01*
X-64172278Y3071093D01*
X-64260596Y3355523D01*
X-64261718Y3359137D01*
X-64395330Y3657131D01*
X-64563774Y3936916D01*
X-64566101Y3939900D01*
X-64566106Y3939907D01*
X-64762274Y4191442D01*
X-64762276Y4191444D01*
X-64764610Y4194437D01*
X-64994930Y4425966D01*
X-65251397Y4628148D01*
X-65530295Y4798055D01*
X-65533739Y4799621D01*
X-65533743Y4799623D01*
X-65644333Y4849905D01*
X-65827586Y4933225D01*
X-66138963Y5031700D01*
X-66356508Y5072610D01*
X-66456191Y5091355D01*
X-66456193Y5091355D01*
X-66459914Y5092055D01*
X-66785792Y5113414D01*
X-66789572Y5113206D01*
X-66789573Y5113206D01*
X-66887103Y5107838D01*
X-67111876Y5095468D01*
X-67115603Y5094807D01*
X-67115607Y5094807D01*
X-67272659Y5066973D01*
X-67433443Y5038478D01*
X-67437059Y5037376D01*
X-67437067Y5037374D01*
X-67742211Y4944373D01*
X-67745833Y4943269D01*
X-68044523Y4811219D01*
X-68069959Y4796086D01*
X-68321926Y4646183D01*
X-68321932Y4646179D01*
X-68325186Y4644243D01*
X-68583756Y4444757D01*
X-68816487Y4215653D01*
X-68818851Y4212686D01*
X-68818854Y4212683D01*
X-68835780Y4191442D01*
X-69020009Y3960249D01*
X-69191374Y3682243D01*
X-69328098Y3385664D01*
X-69329259Y3382060D01*
X-69329259Y3382059D01*
X-69337804Y3355523D01*
X-69428203Y3074808D01*
X-69428921Y3071097D01*
X-69428922Y3071093D01*
X-69489518Y2757895D01*
X-69489519Y2757886D01*
X-69490237Y2754176D01*
X-69513302Y2428415D01*
X-85516590Y2428415D01*
X-85516311Y26539309D01*
X-85516287Y28628415D01*
X6286698Y28628415D01*
X6302936Y28302241D01*
X6303577Y28298510D01*
X6303578Y28298502D01*
X6318109Y28213940D01*
X6358241Y27980381D01*
X6451814Y27667496D01*
X6582297Y27368119D01*
X6584220Y27364848D01*
X6584222Y27364844D01*
X6626584Y27292785D01*
X6747802Y27086586D01*
X6750103Y27083571D01*
X6943631Y26829988D01*
X6943636Y26829983D01*
X6945931Y26826975D01*
X7173814Y26593047D01*
X7246635Y26534393D01*
X7425196Y26390569D01*
X7425201Y26390565D01*
X7428149Y26388191D01*
X7705253Y26215373D01*
X8001112Y26077097D01*
X8311440Y25975366D01*
X8631742Y25911654D01*
X8635514Y25911367D01*
X8635522Y25911366D01*
X8953602Y25887171D01*
X8953607Y25887171D01*
X8957379Y25886884D01*
X9283633Y25901414D01*
X9343425Y25911366D01*
X9602037Y25954410D01*
X9602042Y25954411D01*
X9605778Y25955033D01*
X9919149Y26046966D01*
X9922616Y26048456D01*
X9922620Y26048457D01*
X10215721Y26174384D01*
X10215723Y26174385D01*
X10219205Y26175881D01*
X10501601Y26339909D01*
X10762245Y26536676D01*
X10997363Y26763330D01*
X11203549Y27016590D01*
X11377815Y27292785D01*
X11517638Y27587916D01*
X11544188Y27667496D01*
X11619790Y27894103D01*
X11619792Y27894109D01*
X11620992Y27897707D01*
X11686381Y28217671D01*
X11692956Y28298502D01*
X11712674Y28540939D01*
X11712856Y28543174D01*
X11713451Y28600000D01*
X11711510Y28632204D01*
X11694026Y28922207D01*
X11694026Y28922211D01*
X11693798Y28925985D01*
X11688650Y28954176D01*
X11635805Y29243527D01*
X11635804Y29243531D01*
X11635125Y29247249D01*
X11627722Y29271093D01*
X11539404Y29555523D01*
X11538282Y29559137D01*
X11404670Y29857131D01*
X11236226Y30136916D01*
X11233899Y30139900D01*
X11233894Y30139907D01*
X11037726Y30391442D01*
X11037724Y30391444D01*
X11035390Y30394437D01*
X10805070Y30625966D01*
X10548603Y30828148D01*
X10269705Y30998055D01*
X10266261Y30999621D01*
X10266257Y30999623D01*
X10155667Y31049905D01*
X9972414Y31133225D01*
X9661037Y31231700D01*
X9443492Y31272610D01*
X9343809Y31291355D01*
X9343807Y31291355D01*
X9340086Y31292055D01*
X9014208Y31313414D01*
X9010428Y31313206D01*
X9010427Y31313206D01*
X8912897Y31307838D01*
X8688124Y31295468D01*
X8684397Y31294807D01*
X8684393Y31294807D01*
X8527340Y31266973D01*
X8366557Y31238478D01*
X8362941Y31237376D01*
X8362933Y31237374D01*
X8057789Y31144373D01*
X8054167Y31143269D01*
X7755477Y31011219D01*
X7730041Y30996086D01*
X7478074Y30846183D01*
X7478068Y30846179D01*
X7474814Y30844243D01*
X7216244Y30644757D01*
X6983513Y30415653D01*
X6981149Y30412686D01*
X6981146Y30412683D01*
X6964220Y30391442D01*
X6779991Y30160249D01*
X6608626Y29882243D01*
X6471902Y29585664D01*
X6470741Y29582060D01*
X6470741Y29582059D01*
X6462196Y29555523D01*
X6371797Y29274808D01*
X6371079Y29271097D01*
X6371078Y29271093D01*
X6310482Y28957895D01*
X6310481Y28957886D01*
X6309763Y28954176D01*
X6286698Y28628415D01*
X-85516287Y28628415D01*
X-85516009Y52628415D01*
X-84913302Y52628415D01*
X-84897064Y52302241D01*
X-84896423Y52298510D01*
X-84896422Y52298502D01*
X-84866013Y52121535D01*
X-84841759Y51980381D01*
X-84748186Y51667496D01*
X-84746673Y51664025D01*
X-84746671Y51664019D01*
X-84703161Y51564192D01*
X-84617703Y51368119D01*
X-84615780Y51364848D01*
X-84615778Y51364844D01*
X-84573416Y51292785D01*
X-84452198Y51086586D01*
X-84449897Y51083571D01*
X-84256369Y50829988D01*
X-84256364Y50829983D01*
X-84254069Y50826975D01*
X-84026186Y50593047D01*
X-83953365Y50534393D01*
X-83774804Y50390569D01*
X-83774799Y50390565D01*
X-83771851Y50388191D01*
X-83494747Y50215373D01*
X-83198888Y50077097D01*
X-83111522Y50048457D01*
X-82900173Y49979173D01*
X-82888560Y49975366D01*
X-82568258Y49911654D01*
X-82564486Y49911367D01*
X-82564478Y49911366D01*
X-82246398Y49887171D01*
X-82246393Y49887171D01*
X-82242621Y49886884D01*
X-81916367Y49901414D01*
X-81856575Y49911366D01*
X-81597963Y49954410D01*
X-81597958Y49954411D01*
X-81594222Y49955033D01*
X-81280851Y50046966D01*
X-81277384Y50048456D01*
X-81277380Y50048457D01*
X-80984279Y50174384D01*
X-80984277Y50174385D01*
X-80980795Y50175881D01*
X-80698399Y50339909D01*
X-80600816Y50413577D01*
X55478703Y50413577D01*
X55486227Y50403146D01*
X55625483Y50290980D01*
X55631657Y50286592D01*
X55902271Y50117822D01*
X55908931Y50114206D01*
X56197852Y49979173D01*
X56204905Y49976380D01*
X56507970Y49877030D01*
X56515282Y49875112D01*
X56828092Y49812891D01*
X56835590Y49811863D01*
X57153610Y49787672D01*
X57161173Y49787554D01*
X57479785Y49801743D01*
X57487326Y49802535D01*
X57801924Y49854899D01*
X57809302Y49856589D01*
X58115355Y49946375D01*
X58122450Y49948929D01*
X58415496Y50074831D01*
X58422263Y50078235D01*
X58698042Y50238420D01*
X58704349Y50242610D01*
X58914305Y50401111D01*
X58922761Y50412504D01*
X58916045Y50424744D01*
X57212810Y52127980D01*
X57198869Y52135592D01*
X57197034Y52135461D01*
X57190420Y52131210D01*
X55485818Y50426607D01*
X55478703Y50413577D01*
X-80600816Y50413577D01*
X-80437755Y50536676D01*
X-80202637Y50763330D01*
X-80080017Y50913945D01*
X-79998845Y51013649D01*
X-79998842Y51013653D01*
X-79996451Y51016590D01*
X-79839671Y51265071D01*
X-79824212Y51289572D01*
X-79824210Y51289575D01*
X-79822185Y51292785D01*
X-79682362Y51587916D01*
X-79655812Y51667496D01*
X-79580210Y51894103D01*
X-79580208Y51894109D01*
X-79579008Y51897707D01*
X-79513619Y52217671D01*
X-79507044Y52298502D01*
X-79495095Y52445424D01*
X-79488653Y52524617D01*
X54487388Y52524617D01*
X54503245Y52206086D01*
X54504076Y52198557D01*
X54558085Y51884241D01*
X54559818Y51876854D01*
X54651196Y51571305D01*
X54653799Y51564192D01*
X54781227Y51271827D01*
X54784669Y51265071D01*
X54946296Y50990135D01*
X54950519Y50983850D01*
X55101463Y50786066D01*
X55112989Y50777604D01*
X55125054Y50784265D01*
X56827980Y52487190D01*
X56834357Y52498869D01*
X57564408Y52498869D01*
X57564539Y52497034D01*
X57568790Y52490420D01*
X59273285Y50785926D01*
X59286408Y50778760D01*
X59296709Y50786149D01*
X59400751Y50913945D01*
X59405164Y50920086D01*
X59575349Y51189813D01*
X59579005Y51196464D01*
X59715544Y51484665D01*
X59718375Y51491705D01*
X59819306Y51794233D01*
X59821270Y51801567D01*
X59885122Y52114011D01*
X59886194Y52121535D01*
X59912173Y52440949D01*
X59912378Y52445424D01*
X59912927Y52497779D01*
X59912817Y52502211D01*
X59893529Y52822147D01*
X59892621Y52829649D01*
X59835319Y53143407D01*
X59833518Y53150740D01*
X59738935Y53455345D01*
X59736263Y53462417D01*
X59605781Y53753430D01*
X59602264Y53760157D01*
X59437771Y54033379D01*
X59433481Y54039623D01*
X59297991Y54213353D01*
X59286199Y54221822D01*
X59274486Y54215275D01*
X57572020Y52512810D01*
X57564408Y52498869D01*
X56834357Y52498869D01*
X56835592Y52501131D01*
X56835461Y52502966D01*
X56831210Y52509580D01*
X55126445Y54214344D01*
X55113510Y54221408D01*
X55102949Y54213748D01*
X54982766Y54062928D01*
X54978410Y54056730D01*
X54811059Y53785236D01*
X54807479Y53778560D01*
X54673956Y53488926D01*
X54671206Y53481875D01*
X54573444Y53178292D01*
X54571561Y53170959D01*
X54510979Y52857830D01*
X54509992Y52850330D01*
X54487467Y52532198D01*
X54487388Y52524617D01*
X-79488653Y52524617D01*
X-79487144Y52543174D01*
X-79486549Y52600000D01*
X-79488490Y52632204D01*
X-79505974Y52922207D01*
X-79505974Y52922211D01*
X-79506202Y52925985D01*
X-79511350Y52954176D01*
X-79564195Y53243527D01*
X-79564196Y53243531D01*
X-79564875Y53247249D01*
X-79572278Y53271093D01*
X-79660596Y53555523D01*
X-79661718Y53559137D01*
X-79795330Y53857131D01*
X-79963774Y54136916D01*
X-79966101Y54139900D01*
X-79966106Y54139907D01*
X-80162274Y54391442D01*
X-80162276Y54391444D01*
X-80164610Y54394437D01*
X-80355747Y54586577D01*
X55477917Y54586577D01*
X55484520Y54574691D01*
X57187190Y52872020D01*
X57201131Y52864408D01*
X57202966Y52864539D01*
X57209580Y52868790D01*
X58914559Y54573770D01*
X58921571Y54586611D01*
X58913777Y54597299D01*
X58751298Y54725387D01*
X58745075Y54729712D01*
X58472702Y54895643D01*
X58466025Y54899178D01*
X58175686Y55031187D01*
X58168616Y55033901D01*
X57864537Y55130068D01*
X57857186Y55131915D01*
X57543746Y55190858D01*
X57536237Y55191806D01*
X57217989Y55212665D01*
X57210424Y55212705D01*
X56891964Y55195179D01*
X56884450Y55194310D01*
X56570405Y55138652D01*
X56563044Y55136885D01*
X56257980Y55043908D01*
X56250860Y55041260D01*
X55959182Y54912310D01*
X55952445Y54908833D01*
X55678355Y54745767D01*
X55672091Y54741510D01*
X55486385Y54598238D01*
X55477917Y54586577D01*
X-80355747Y54586577D01*
X-80392258Y54623280D01*
X-80394930Y54625966D01*
X-80651397Y54828148D01*
X-80930295Y54998055D01*
X-80933739Y54999621D01*
X-80933743Y54999623D01*
X-81044333Y55049905D01*
X-81227586Y55133225D01*
X-81538963Y55231700D01*
X-81756508Y55272610D01*
X-81856191Y55291355D01*
X-81856193Y55291355D01*
X-81859914Y55292055D01*
X-82185792Y55313414D01*
X-82189572Y55313206D01*
X-82189573Y55313206D01*
X-82287103Y55307838D01*
X-82511876Y55295468D01*
X-82515603Y55294807D01*
X-82515607Y55294807D01*
X-82672660Y55266973D01*
X-82833443Y55238478D01*
X-82837059Y55237376D01*
X-82837067Y55237374D01*
X-83142211Y55144373D01*
X-83145833Y55143269D01*
X-83444523Y55011219D01*
X-83522310Y54964941D01*
X-83721926Y54846183D01*
X-83721932Y54846179D01*
X-83725186Y54844243D01*
X-83728188Y54841927D01*
X-83979818Y54647795D01*
X-83983756Y54644757D01*
X-84216487Y54415653D01*
X-84218851Y54412686D01*
X-84218854Y54412683D01*
X-84417644Y54163217D01*
X-84420009Y54160249D01*
X-84591374Y53882243D01*
X-84728098Y53585664D01*
X-84729259Y53582060D01*
X-84729259Y53582059D01*
X-84737804Y53555523D01*
X-84828203Y53274808D01*
X-84828921Y53271097D01*
X-84828922Y53271093D01*
X-84889518Y52957895D01*
X-84889519Y52957886D01*
X-84890237Y52954176D01*
X-84913302Y52628415D01*
X-85516009Y52628415D01*
X-85515990Y54304510D01*
X-85514635Y54322939D01*
X-85512078Y54340230D01*
X-85512078Y54340233D01*
X-85510765Y54349113D01*
X-85511998Y54358011D01*
X-85512856Y54364205D01*
X-85513786Y54389634D01*
X-85502899Y54557916D01*
X-85500416Y54575943D01*
X-85465273Y54741510D01*
X-85460161Y54765593D01*
X-85455108Y54783071D01*
X-85431805Y54846183D01*
X-85387956Y54964944D01*
X-85380438Y54981511D01*
X-85287789Y55151814D01*
X-85277969Y55167116D01*
X-85161750Y55322303D01*
X-85149819Y55336042D01*
X-85012471Y55472858D01*
X-84998686Y55484736D01*
X-84963496Y55510877D01*
X-84843046Y55600354D01*
X-84827704Y55610114D01*
X-84657043Y55702101D01*
X-84640449Y55709554D01*
X-84458319Y55775999D01*
X-84440817Y55780985D01*
X-84406145Y55788204D01*
X-84251011Y55820503D01*
X-84232982Y55822915D01*
X-84071736Y55832719D01*
X-84054522Y55831811D01*
X-84054522Y55831813D01*
X-84045551Y55831600D01*
X-84036697Y55830116D01*
X-84001278Y55834332D01*
X-83986435Y55835215D01*
X-70972983Y55840408D01*
X57040823Y55891496D01*
X57044545Y55891442D01*
G37*
%TD.AperFunction*%
%TD*%
M02*
