M48
; DRILL file {KiCad (6.0.5)} date Tue Oct  4 21:40:47 2022
; FORMAT={-:-/ absolute / metric / decimal}
; #@! TF.CreationDate,2022-10-04T21:40:47-03:00
; #@! TF.GenerationSoftware,Kicad,Pcbnew,(6.0.5)
; #@! TF.FileFunction,Plated,1,2,PTH
FMAT,2
METRIC
; #@! TA.AperFunction,Plated,PTH,ViaDrill
T1C0.400
; #@! TA.AperFunction,Plated,PTH,ComponentDrill
T2C0.600
; #@! TA.AperFunction,Plated,PTH,ComponentDrill
T3C0.700
; #@! TA.AperFunction,Plated,PTH,ComponentDrill
T4C0.800
; #@! TA.AperFunction,Plated,PTH,ComponentDrill
T5C1.100
; #@! TA.AperFunction,Plated,PTH,ComponentDrill
T6C1.499
; #@! TA.AperFunction,Plated,PTH,ComponentDrill
T7C2.200
%
G90
G05
T1
X-20.25Y51.25
X64.75Y12.25
X77.75Y21.75
T2
X-56.65Y40.65
X-55.15Y40.65
T3
X-57.85Y48.98
X-57.85Y43.9
X-49.99Y41.0
X-44.91Y41.0
T4
X-56.66Y-3.99
X-56.66Y-8.99
X-53.75Y15.0
X-53.75Y12.46
X-53.75Y9.92
X-53.75Y7.38
X-53.75Y4.84
X-53.75Y2.3
X-53.75Y-0.24
X-53.75Y-2.78
X-53.75Y-5.32
X-53.75Y-7.86
X-53.75Y-10.4
X-53.75Y-12.94
X-53.75Y-15.48
X-53.75Y-18.02
X-53.55Y-55.2
X-48.47Y-55.2
X-46.13Y15.0
X-46.13Y12.46
X-46.13Y9.92
X-46.13Y7.38
X-46.13Y4.84
X-46.13Y2.3
X-46.13Y-0.24
X-46.13Y-2.78
X-46.13Y-5.32
X-46.13Y-7.86
X-46.13Y-10.4
X-46.13Y-12.94
X-46.13Y-15.48
X-46.13Y-18.02
X-39.05Y-43.65
X-36.586Y12.5
X-36.586Y-4.5
X-36.567Y-19.5
X-35.93Y27.4
X-35.086Y20.0
X-34.836Y3.5
X-34.836Y-11.75
X-34.817Y-26.75
X-33.97Y-43.65
X-31.506Y12.5
X-31.506Y-4.5
X-31.487Y-19.5
X-30.85Y27.4
X-30.006Y20.0
X-29.756Y3.5
X-29.756Y-11.75
X-29.737Y-26.75
X-13.63Y48.6
X-8.55Y48.6
X-6.18Y52.45
X-2.95Y-32.7
X-1.1Y52.45
X1.47Y48.6
X2.13Y-32.7
X6.55Y48.6
X8.77Y-2.4
X13.85Y-2.4
X17.037Y-28.4
X22.117Y-28.4
X35.75Y52.5
X35.883Y-9.4
X40.83Y52.5
X40.962Y-9.4
X47.5Y52.5
X48.7Y44.95
X52.58Y52.5
X53.78Y44.95
X59.237Y52.45
X61.15Y44.95
X64.317Y52.45
X66.23Y44.95
X67.5Y40.45
X68.7Y32.0
X72.58Y40.45
X73.78Y32.0
X75.3Y44.95
X76.55Y36.25
X77.737Y27.75
X80.38Y44.95
X81.63Y36.25
X82.817Y27.75
T5
X-53.45Y53.3
X-52.55Y48.3
X-47.35Y45.2
X-44.15Y53.3
T6
X-52.801Y-71.722
X-49.782Y-65.585
X-35.828Y-57.372
X-31.413Y-52.148
X-22.86Y38.259
X-22.86Y19.209
X-22.86Y0.159
X-22.86Y-18.891
X-16.51Y40.799
X-16.51Y21.749
X-16.51Y2.699
X-16.51Y-16.351
X-15.943Y-47.473
X-10.396Y-43.473
X-3.81Y40.64
X-3.81Y21.59
X-3.81Y2.54
X-3.81Y-16.51
X2.54Y43.18
X2.54Y24.13
X2.54Y5.08
X2.54Y-13.97
X5.715Y-42.704
X12.065Y-40.164
X15.24Y47.784
X15.24Y28.734
X15.24Y9.684
X15.24Y-9.366
X21.59Y50.324
X21.59Y31.274
X21.59Y12.224
X21.59Y-6.826
X34.29Y40.64
X34.29Y21.59
X34.29Y2.54
X34.29Y-16.51
X40.64Y43.18
X40.64Y24.13
X40.64Y5.08
X40.64Y-13.97
X53.34Y33.496
X53.34Y14.446
X53.34Y-4.604
X53.34Y-23.654
X59.69Y36.036
X59.69Y16.986
X59.69Y-2.064
X59.69Y-21.114
X72.39Y14.446
X72.39Y-4.604
X72.39Y-23.654
X78.74Y16.986
X78.74Y-2.064
X78.74Y-21.114
T7
X-40.23Y-63.82
X-9.3Y-31.52
X-9.0Y28.6
X29.09Y28.59
X29.15Y-9.55
X66.8Y2.4
T0
M30
