%TF.GenerationSoftware,KiCad,Pcbnew,(6.0.5)*%
%TF.CreationDate,2022-07-25T14:01:38-03:00*%
%TF.ProjectId,bluejay_left,626c7565-6a61-4795-9f6c-6566742e6b69,rev?*%
%TF.SameCoordinates,Original*%
%TF.FileFunction,Legend,Top*%
%TF.FilePolarity,Positive*%
%FSLAX46Y46*%
G04 Gerber Fmt 4.6, Leading zero omitted, Abs format (unit mm)*
G04 Created by KiCad (PCBNEW (6.0.5)) date 2022-07-25 14:01:38*
%MOMM*%
%LPD*%
G01*
G04 APERTURE LIST*
%ADD10C,0.150000*%
%ADD11C,0.120150*%
%ADD12C,0.120000*%
%ADD13C,0.100000*%
%ADD14C,0.127000*%
%ADD15C,0.400000*%
G04 APERTURE END LIST*
D10*
%TO.C,C2*%
X39310342Y-3822966D02*
X39357961Y-3870585D01*
X39405580Y-4013442D01*
X39405580Y-4108680D01*
X39357961Y-4251538D01*
X39262723Y-4346776D01*
X39167485Y-4394395D01*
X38977009Y-4442014D01*
X38834152Y-4442014D01*
X38643676Y-4394395D01*
X38548438Y-4346776D01*
X38453200Y-4251538D01*
X38405580Y-4108680D01*
X38405580Y-4013442D01*
X38453200Y-3870585D01*
X38500819Y-3822966D01*
X38500819Y-3442014D02*
X38453200Y-3394395D01*
X38405580Y-3299157D01*
X38405580Y-3061061D01*
X38453200Y-2965823D01*
X38500819Y-2918204D01*
X38596057Y-2870585D01*
X38691295Y-2870585D01*
X38834152Y-2918204D01*
X39405580Y-3489633D01*
X39405580Y-2870585D01*
%TO.C,Dc5*%
X-523333Y-35093904D02*
X-523333Y-34293904D01*
X-332857Y-34293904D01*
X-218571Y-34332000D01*
X-142380Y-34408190D01*
X-104285Y-34484380D01*
X-66190Y-34636761D01*
X-66190Y-34751047D01*
X-104285Y-34903428D01*
X-142380Y-34979619D01*
X-218571Y-35055809D01*
X-332857Y-35093904D01*
X-523333Y-35093904D01*
X619523Y-35055809D02*
X543333Y-35093904D01*
X390952Y-35093904D01*
X314761Y-35055809D01*
X276666Y-35017714D01*
X238571Y-34941523D01*
X238571Y-34712952D01*
X276666Y-34636761D01*
X314761Y-34598666D01*
X390952Y-34560571D01*
X543333Y-34560571D01*
X619523Y-34598666D01*
X1343333Y-34293904D02*
X962380Y-34293904D01*
X924285Y-34674857D01*
X962380Y-34636761D01*
X1038571Y-34598666D01*
X1229047Y-34598666D01*
X1305238Y-34636761D01*
X1343333Y-34674857D01*
X1381428Y-34751047D01*
X1381428Y-34941523D01*
X1343333Y-35017714D01*
X1305238Y-35055809D01*
X1229047Y-35093904D01*
X1038571Y-35093904D01*
X962380Y-35055809D01*
X924285Y-35017714D01*
%TO.C,Y1*%
X41476326Y3107509D02*
X41952516Y3107509D01*
X40952516Y2774176D02*
X41476326Y3107509D01*
X40952516Y3440842D01*
X41952516Y4297985D02*
X41952516Y3726557D01*
X41952516Y4012271D02*
X40952516Y4012271D01*
X41095374Y3917033D01*
X41190612Y3821795D01*
X41238231Y3726557D01*
%TO.C,SWa3*%
X17264285Y5468938D02*
X17407142Y5421319D01*
X17645238Y5421319D01*
X17740476Y5468938D01*
X17788095Y5516557D01*
X17835714Y5611795D01*
X17835714Y5707033D01*
X17788095Y5802271D01*
X17740476Y5849890D01*
X17645238Y5897509D01*
X17454761Y5945128D01*
X17359523Y5992747D01*
X17311904Y6040366D01*
X17264285Y6135604D01*
X17264285Y6230842D01*
X17311904Y6326080D01*
X17359523Y6373700D01*
X17454761Y6421319D01*
X17692857Y6421319D01*
X17835714Y6373700D01*
X18169047Y6421319D02*
X18407142Y5421319D01*
X18597619Y6135604D01*
X18788095Y5421319D01*
X19026190Y6421319D01*
X19835714Y5421319D02*
X19835714Y5945128D01*
X19788095Y6040366D01*
X19692857Y6087985D01*
X19502380Y6087985D01*
X19407142Y6040366D01*
X19835714Y5468938D02*
X19740476Y5421319D01*
X19502380Y5421319D01*
X19407142Y5468938D01*
X19359523Y5564176D01*
X19359523Y5659414D01*
X19407142Y5754652D01*
X19502380Y5802271D01*
X19740476Y5802271D01*
X19835714Y5849890D01*
X20216666Y6421319D02*
X20835714Y6421319D01*
X20502380Y6040366D01*
X20645238Y6040366D01*
X20740476Y5992747D01*
X20788095Y5945128D01*
X20835714Y5849890D01*
X20835714Y5611795D01*
X20788095Y5516557D01*
X20740476Y5468938D01*
X20645238Y5421319D01*
X20359523Y5421319D01*
X20264285Y5468938D01*
X20216666Y5516557D01*
%TO.C,SWa5*%
X52126990Y-64027559D02*
X52201290Y-64158537D01*
X52378229Y-64317854D01*
X52480868Y-64346193D01*
X52548119Y-64342668D01*
X52647234Y-64303756D01*
X52710961Y-64232980D01*
X52739299Y-64130341D01*
X52735775Y-64063090D01*
X52696863Y-63963975D01*
X52587175Y-63801134D01*
X52548262Y-63702020D01*
X52544738Y-63634768D01*
X52573077Y-63532129D01*
X52636803Y-63461354D01*
X52735918Y-63422441D01*
X52803169Y-63418917D01*
X52905808Y-63447256D01*
X53082747Y-63606572D01*
X53157048Y-63737550D01*
X53436626Y-63925206D02*
X52944435Y-64827668D01*
X53563936Y-64424303D01*
X53227537Y-65082575D01*
X54073607Y-64498747D01*
X54006070Y-65783569D02*
X54356567Y-65394302D01*
X54384906Y-65291663D01*
X54345994Y-65192549D01*
X54204442Y-65065095D01*
X54101803Y-65036756D01*
X54037933Y-65748181D02*
X53935294Y-65719842D01*
X53758355Y-65560525D01*
X53719443Y-65461410D01*
X53747782Y-65358771D01*
X53811508Y-65287996D01*
X53910623Y-65249083D01*
X54013262Y-65277422D01*
X54190201Y-65436739D01*
X54292840Y-65465078D01*
X55382958Y-65677691D02*
X55029079Y-65359057D01*
X54675058Y-65681072D01*
X54742309Y-65677548D01*
X54844948Y-65705887D01*
X55021887Y-65865204D01*
X55060800Y-65964318D01*
X55064324Y-66031569D01*
X55035985Y-66134209D01*
X54876668Y-66311148D01*
X54777554Y-66350060D01*
X54710303Y-66353585D01*
X54607663Y-66325246D01*
X54430724Y-66165929D01*
X54391812Y-66066814D01*
X54388287Y-65999563D01*
%TO.C,Da1*%
X32437619Y29070095D02*
X32437619Y29870095D01*
X32628095Y29870095D01*
X32742380Y29832000D01*
X32818571Y29755809D01*
X32856666Y29679619D01*
X32894761Y29527238D01*
X32894761Y29412952D01*
X32856666Y29260571D01*
X32818571Y29184380D01*
X32742380Y29108190D01*
X32628095Y29070095D01*
X32437619Y29070095D01*
X33580476Y29070095D02*
X33580476Y29489142D01*
X33542380Y29565333D01*
X33466190Y29603428D01*
X33313809Y29603428D01*
X33237619Y29565333D01*
X33580476Y29108190D02*
X33504285Y29070095D01*
X33313809Y29070095D01*
X33237619Y29108190D01*
X33199523Y29184380D01*
X33199523Y29260571D01*
X33237619Y29336761D01*
X33313809Y29374857D01*
X33504285Y29374857D01*
X33580476Y29412952D01*
X34380476Y29070095D02*
X33923333Y29070095D01*
X34151904Y29070095D02*
X34151904Y29870095D01*
X34075714Y29755809D01*
X33999523Y29679619D01*
X33923333Y29641523D01*
%TO.C,SWf2*%
X-77819047Y19756538D02*
X-77676190Y19708919D01*
X-77438095Y19708919D01*
X-77342857Y19756538D01*
X-77295238Y19804157D01*
X-77247619Y19899395D01*
X-77247619Y19994633D01*
X-77295238Y20089871D01*
X-77342857Y20137490D01*
X-77438095Y20185109D01*
X-77628571Y20232728D01*
X-77723809Y20280347D01*
X-77771428Y20327966D01*
X-77819047Y20423204D01*
X-77819047Y20518442D01*
X-77771428Y20613680D01*
X-77723809Y20661300D01*
X-77628571Y20708919D01*
X-77390476Y20708919D01*
X-77247619Y20661300D01*
X-76914285Y20708919D02*
X-76676190Y19708919D01*
X-76485714Y20423204D01*
X-76295238Y19708919D01*
X-76057142Y20708919D01*
X-75819047Y20375585D02*
X-75438095Y20375585D01*
X-75676190Y19708919D02*
X-75676190Y20566061D01*
X-75628571Y20661300D01*
X-75533333Y20708919D01*
X-75438095Y20708919D01*
X-75152380Y20613680D02*
X-75104761Y20661300D01*
X-75009523Y20708919D01*
X-74771428Y20708919D01*
X-74676190Y20661300D01*
X-74628571Y20613680D01*
X-74580952Y20518442D01*
X-74580952Y20423204D01*
X-74628571Y20280347D01*
X-75200000Y19708919D01*
X-74580952Y19708919D01*
%TO.C,SWc2*%
X-20811904Y34044038D02*
X-20669047Y33996419D01*
X-20430952Y33996419D01*
X-20335714Y34044038D01*
X-20288095Y34091657D01*
X-20240476Y34186895D01*
X-20240476Y34282133D01*
X-20288095Y34377371D01*
X-20335714Y34424990D01*
X-20430952Y34472609D01*
X-20621428Y34520228D01*
X-20716666Y34567847D01*
X-20764285Y34615466D01*
X-20811904Y34710704D01*
X-20811904Y34805942D01*
X-20764285Y34901180D01*
X-20716666Y34948800D01*
X-20621428Y34996419D01*
X-20383333Y34996419D01*
X-20240476Y34948800D01*
X-19907142Y34996419D02*
X-19669047Y33996419D01*
X-19478571Y34710704D01*
X-19288095Y33996419D01*
X-19050000Y34996419D01*
X-18240476Y34044038D02*
X-18335714Y33996419D01*
X-18526190Y33996419D01*
X-18621428Y34044038D01*
X-18669047Y34091657D01*
X-18716666Y34186895D01*
X-18716666Y34472609D01*
X-18669047Y34567847D01*
X-18621428Y34615466D01*
X-18526190Y34663085D01*
X-18335714Y34663085D01*
X-18240476Y34615466D01*
X-17859523Y34901180D02*
X-17811904Y34948800D01*
X-17716666Y34996419D01*
X-17478571Y34996419D01*
X-17383333Y34948800D01*
X-17335714Y34901180D01*
X-17288095Y34805942D01*
X-17288095Y34710704D01*
X-17335714Y34567847D01*
X-17907142Y33996419D01*
X-17288095Y33996419D01*
%TO.C,SWd1*%
X-39885714Y45950238D02*
X-39742857Y45902619D01*
X-39504761Y45902619D01*
X-39409523Y45950238D01*
X-39361904Y45997857D01*
X-39314285Y46093095D01*
X-39314285Y46188333D01*
X-39361904Y46283571D01*
X-39409523Y46331190D01*
X-39504761Y46378809D01*
X-39695238Y46426428D01*
X-39790476Y46474047D01*
X-39838095Y46521666D01*
X-39885714Y46616904D01*
X-39885714Y46712142D01*
X-39838095Y46807380D01*
X-39790476Y46855000D01*
X-39695238Y46902619D01*
X-39457142Y46902619D01*
X-39314285Y46855000D01*
X-38980952Y46902619D02*
X-38742857Y45902619D01*
X-38552380Y46616904D01*
X-38361904Y45902619D01*
X-38123809Y46902619D01*
X-37314285Y45902619D02*
X-37314285Y46902619D01*
X-37314285Y45950238D02*
X-37409523Y45902619D01*
X-37600000Y45902619D01*
X-37695238Y45950238D01*
X-37742857Y45997857D01*
X-37790476Y46093095D01*
X-37790476Y46378809D01*
X-37742857Y46474047D01*
X-37695238Y46521666D01*
X-37600000Y46569285D01*
X-37409523Y46569285D01*
X-37314285Y46521666D01*
X-36314285Y45902619D02*
X-36885714Y45902619D01*
X-36600000Y45902619D02*
X-36600000Y46902619D01*
X-36695238Y46759761D01*
X-36790476Y46664523D01*
X-36885714Y46616904D01*
%TO.C,SWc3*%
X-20811904Y14994038D02*
X-20669047Y14946419D01*
X-20430952Y14946419D01*
X-20335714Y14994038D01*
X-20288095Y15041657D01*
X-20240476Y15136895D01*
X-20240476Y15232133D01*
X-20288095Y15327371D01*
X-20335714Y15374990D01*
X-20430952Y15422609D01*
X-20621428Y15470228D01*
X-20716666Y15517847D01*
X-20764285Y15565466D01*
X-20811904Y15660704D01*
X-20811904Y15755942D01*
X-20764285Y15851180D01*
X-20716666Y15898800D01*
X-20621428Y15946419D01*
X-20383333Y15946419D01*
X-20240476Y15898800D01*
X-19907142Y15946419D02*
X-19669047Y14946419D01*
X-19478571Y15660704D01*
X-19288095Y14946419D01*
X-19050000Y15946419D01*
X-18240476Y14994038D02*
X-18335714Y14946419D01*
X-18526190Y14946419D01*
X-18621428Y14994038D01*
X-18669047Y15041657D01*
X-18716666Y15136895D01*
X-18716666Y15422609D01*
X-18669047Y15517847D01*
X-18621428Y15565466D01*
X-18526190Y15613085D01*
X-18335714Y15613085D01*
X-18240476Y15565466D01*
X-17907142Y15946419D02*
X-17288095Y15946419D01*
X-17621428Y15565466D01*
X-17478571Y15565466D01*
X-17383333Y15517847D01*
X-17335714Y15470228D01*
X-17288095Y15374990D01*
X-17288095Y15136895D01*
X-17335714Y15041657D01*
X-17383333Y14994038D01*
X-17478571Y14946419D01*
X-17764285Y14946419D01*
X-17859523Y14994038D01*
X-17907142Y15041657D01*
%TO.C,DZ2*%
X37658571Y43568095D02*
X37658571Y44368095D01*
X37849047Y44368095D01*
X37963333Y44330000D01*
X38039523Y44253809D01*
X38077619Y44177619D01*
X38115714Y44025238D01*
X38115714Y43910952D01*
X38077619Y43758571D01*
X38039523Y43682380D01*
X37963333Y43606190D01*
X37849047Y43568095D01*
X37658571Y43568095D01*
X38382380Y44368095D02*
X38915714Y44368095D01*
X38382380Y43568095D01*
X38915714Y43568095D01*
X39182380Y44291904D02*
X39220476Y44330000D01*
X39296666Y44368095D01*
X39487142Y44368095D01*
X39563333Y44330000D01*
X39601428Y44291904D01*
X39639523Y44215714D01*
X39639523Y44139523D01*
X39601428Y44025238D01*
X39144285Y43568095D01*
X39639523Y43568095D01*
%TO.C,De2*%
X-64040833Y41556095D02*
X-64040833Y42356095D01*
X-63850357Y42356095D01*
X-63736071Y42318000D01*
X-63659880Y42241809D01*
X-63621785Y42165619D01*
X-63583690Y42013238D01*
X-63583690Y41898952D01*
X-63621785Y41746571D01*
X-63659880Y41670380D01*
X-63736071Y41594190D01*
X-63850357Y41556095D01*
X-64040833Y41556095D01*
X-62936071Y41594190D02*
X-63012261Y41556095D01*
X-63164642Y41556095D01*
X-63240833Y41594190D01*
X-63278928Y41670380D01*
X-63278928Y41975142D01*
X-63240833Y42051333D01*
X-63164642Y42089428D01*
X-63012261Y42089428D01*
X-62936071Y42051333D01*
X-62897976Y41975142D01*
X-62897976Y41898952D01*
X-63278928Y41822761D01*
X-62593214Y42279904D02*
X-62555119Y42318000D01*
X-62478928Y42356095D01*
X-62288452Y42356095D01*
X-62212261Y42318000D01*
X-62174166Y42279904D01*
X-62136071Y42203714D01*
X-62136071Y42127523D01*
X-62174166Y42013238D01*
X-62631309Y41556095D01*
X-62136071Y41556095D01*
%TO.C,SWe3*%
X-58911904Y706438D02*
X-58769047Y658819D01*
X-58530952Y658819D01*
X-58435714Y706438D01*
X-58388095Y754057D01*
X-58340476Y849295D01*
X-58340476Y944533D01*
X-58388095Y1039771D01*
X-58435714Y1087390D01*
X-58530952Y1135009D01*
X-58721428Y1182628D01*
X-58816666Y1230247D01*
X-58864285Y1277866D01*
X-58911904Y1373104D01*
X-58911904Y1468342D01*
X-58864285Y1563580D01*
X-58816666Y1611200D01*
X-58721428Y1658819D01*
X-58483333Y1658819D01*
X-58340476Y1611200D01*
X-58007142Y1658819D02*
X-57769047Y658819D01*
X-57578571Y1373104D01*
X-57388095Y658819D01*
X-57150000Y1658819D01*
X-56388095Y706438D02*
X-56483333Y658819D01*
X-56673809Y658819D01*
X-56769047Y706438D01*
X-56816666Y801676D01*
X-56816666Y1182628D01*
X-56769047Y1277866D01*
X-56673809Y1325485D01*
X-56483333Y1325485D01*
X-56388095Y1277866D01*
X-56340476Y1182628D01*
X-56340476Y1087390D01*
X-56816666Y992152D01*
X-56007142Y1658819D02*
X-55388095Y1658819D01*
X-55721428Y1277866D01*
X-55578571Y1277866D01*
X-55483333Y1230247D01*
X-55435714Y1182628D01*
X-55388095Y1087390D01*
X-55388095Y849295D01*
X-55435714Y754057D01*
X-55483333Y706438D01*
X-55578571Y658819D01*
X-55864285Y658819D01*
X-55959523Y706438D01*
X-56007142Y754057D01*
%TO.C,U1*%
X53219295Y28550119D02*
X53219295Y27740595D01*
X53266914Y27645357D01*
X53314533Y27597738D01*
X53409771Y27550119D01*
X53600247Y27550119D01*
X53695485Y27597738D01*
X53743104Y27645357D01*
X53790723Y27740595D01*
X53790723Y28550119D01*
X54790723Y27550119D02*
X54219295Y27550119D01*
X54505009Y27550119D02*
X54505009Y28550119D01*
X54409771Y28407261D01*
X54314533Y28312023D01*
X54219295Y28264404D01*
%TO.C,Da4*%
X33075119Y-17829904D02*
X33075119Y-17029904D01*
X33265595Y-17029904D01*
X33379880Y-17068000D01*
X33456071Y-17144190D01*
X33494166Y-17220380D01*
X33532261Y-17372761D01*
X33532261Y-17487047D01*
X33494166Y-17639428D01*
X33456071Y-17715619D01*
X33379880Y-17791809D01*
X33265595Y-17829904D01*
X33075119Y-17829904D01*
X34217976Y-17829904D02*
X34217976Y-17410857D01*
X34179880Y-17334666D01*
X34103690Y-17296571D01*
X33951309Y-17296571D01*
X33875119Y-17334666D01*
X34217976Y-17791809D02*
X34141785Y-17829904D01*
X33951309Y-17829904D01*
X33875119Y-17791809D01*
X33837023Y-17715619D01*
X33837023Y-17639428D01*
X33875119Y-17563238D01*
X33951309Y-17525142D01*
X34141785Y-17525142D01*
X34217976Y-17487047D01*
X34941785Y-17296571D02*
X34941785Y-17829904D01*
X34751309Y-16991809D02*
X34560833Y-17563238D01*
X35056071Y-17563238D01*
%TO.C,De1*%
X-62828333Y49056095D02*
X-62828333Y49856095D01*
X-62637857Y49856095D01*
X-62523571Y49818000D01*
X-62447380Y49741809D01*
X-62409285Y49665619D01*
X-62371190Y49513238D01*
X-62371190Y49398952D01*
X-62409285Y49246571D01*
X-62447380Y49170380D01*
X-62523571Y49094190D01*
X-62637857Y49056095D01*
X-62828333Y49056095D01*
X-61723571Y49094190D02*
X-61799761Y49056095D01*
X-61952142Y49056095D01*
X-62028333Y49094190D01*
X-62066428Y49170380D01*
X-62066428Y49475142D01*
X-62028333Y49551333D01*
X-61952142Y49589428D01*
X-61799761Y49589428D01*
X-61723571Y49551333D01*
X-61685476Y49475142D01*
X-61685476Y49398952D01*
X-62066428Y49322761D01*
X-60923571Y49056095D02*
X-61380714Y49056095D01*
X-61152142Y49056095D02*
X-61152142Y49856095D01*
X-61228333Y49741809D01*
X-61304523Y49665619D01*
X-61380714Y49627523D01*
%TO.C,SWc4*%
X-20811904Y-4056061D02*
X-20669047Y-4103680D01*
X-20430952Y-4103680D01*
X-20335714Y-4056061D01*
X-20288095Y-4008442D01*
X-20240476Y-3913204D01*
X-20240476Y-3817966D01*
X-20288095Y-3722728D01*
X-20335714Y-3675109D01*
X-20430952Y-3627490D01*
X-20621428Y-3579871D01*
X-20716666Y-3532252D01*
X-20764285Y-3484633D01*
X-20811904Y-3389395D01*
X-20811904Y-3294157D01*
X-20764285Y-3198919D01*
X-20716666Y-3151300D01*
X-20621428Y-3103680D01*
X-20383333Y-3103680D01*
X-20240476Y-3151300D01*
X-19907142Y-3103680D02*
X-19669047Y-4103680D01*
X-19478571Y-3389395D01*
X-19288095Y-4103680D01*
X-19050000Y-3103680D01*
X-18240476Y-4056061D02*
X-18335714Y-4103680D01*
X-18526190Y-4103680D01*
X-18621428Y-4056061D01*
X-18669047Y-4008442D01*
X-18716666Y-3913204D01*
X-18716666Y-3627490D01*
X-18669047Y-3532252D01*
X-18621428Y-3484633D01*
X-18526190Y-3437014D01*
X-18335714Y-3437014D01*
X-18240476Y-3484633D01*
X-17383333Y-3437014D02*
X-17383333Y-4103680D01*
X-17621428Y-3056061D02*
X-17859523Y-3770347D01*
X-17240476Y-3770347D01*
%TO.C,SWe2*%
X-58911904Y19756538D02*
X-58769047Y19708919D01*
X-58530952Y19708919D01*
X-58435714Y19756538D01*
X-58388095Y19804157D01*
X-58340476Y19899395D01*
X-58340476Y19994633D01*
X-58388095Y20089871D01*
X-58435714Y20137490D01*
X-58530952Y20185109D01*
X-58721428Y20232728D01*
X-58816666Y20280347D01*
X-58864285Y20327966D01*
X-58911904Y20423204D01*
X-58911904Y20518442D01*
X-58864285Y20613680D01*
X-58816666Y20661300D01*
X-58721428Y20708919D01*
X-58483333Y20708919D01*
X-58340476Y20661300D01*
X-58007142Y20708919D02*
X-57769047Y19708919D01*
X-57578571Y20423204D01*
X-57388095Y19708919D01*
X-57150000Y20708919D01*
X-56388095Y19756538D02*
X-56483333Y19708919D01*
X-56673809Y19708919D01*
X-56769047Y19756538D01*
X-56816666Y19851776D01*
X-56816666Y20232728D01*
X-56769047Y20327966D01*
X-56673809Y20375585D01*
X-56483333Y20375585D01*
X-56388095Y20327966D01*
X-56340476Y20232728D01*
X-56340476Y20137490D01*
X-56816666Y20042252D01*
X-55959523Y20613680D02*
X-55911904Y20661300D01*
X-55816666Y20708919D01*
X-55578571Y20708919D01*
X-55483333Y20661300D01*
X-55435714Y20613680D01*
X-55388095Y20518442D01*
X-55388095Y20423204D01*
X-55435714Y20280347D01*
X-56007142Y19708919D01*
X-55388095Y19708919D01*
%TO.C,Da3*%
X33093919Y-2829904D02*
X33093919Y-2029904D01*
X33284395Y-2029904D01*
X33398680Y-2068000D01*
X33474871Y-2144190D01*
X33512966Y-2220380D01*
X33551061Y-2372761D01*
X33551061Y-2487047D01*
X33512966Y-2639428D01*
X33474871Y-2715619D01*
X33398680Y-2791809D01*
X33284395Y-2829904D01*
X33093919Y-2829904D01*
X34236776Y-2829904D02*
X34236776Y-2410857D01*
X34198680Y-2334666D01*
X34122490Y-2296571D01*
X33970109Y-2296571D01*
X33893919Y-2334666D01*
X34236776Y-2791809D02*
X34160585Y-2829904D01*
X33970109Y-2829904D01*
X33893919Y-2791809D01*
X33855823Y-2715619D01*
X33855823Y-2639428D01*
X33893919Y-2563238D01*
X33970109Y-2525142D01*
X34160585Y-2525142D01*
X34236776Y-2487047D01*
X34541538Y-2029904D02*
X35036776Y-2029904D01*
X34770109Y-2334666D01*
X34884395Y-2334666D01*
X34960585Y-2372761D01*
X34998680Y-2410857D01*
X35036776Y-2487047D01*
X35036776Y-2677523D01*
X34998680Y-2753714D01*
X34960585Y-2791809D01*
X34884395Y-2829904D01*
X34655823Y-2829904D01*
X34579633Y-2791809D01*
X34541538Y-2753714D01*
%TO.C,SWd5*%
X-11310714Y-37393561D02*
X-11167857Y-37441180D01*
X-10929761Y-37441180D01*
X-10834523Y-37393561D01*
X-10786904Y-37345942D01*
X-10739285Y-37250704D01*
X-10739285Y-37155466D01*
X-10786904Y-37060228D01*
X-10834523Y-37012609D01*
X-10929761Y-36964990D01*
X-11120238Y-36917371D01*
X-11215476Y-36869752D01*
X-11263095Y-36822133D01*
X-11310714Y-36726895D01*
X-11310714Y-36631657D01*
X-11263095Y-36536419D01*
X-11215476Y-36488800D01*
X-11120238Y-36441180D01*
X-10882142Y-36441180D01*
X-10739285Y-36488800D01*
X-10405952Y-36441180D02*
X-10167857Y-37441180D01*
X-9977380Y-36726895D01*
X-9786904Y-37441180D01*
X-9548809Y-36441180D01*
X-8739285Y-37441180D02*
X-8739285Y-36441180D01*
X-8739285Y-37393561D02*
X-8834523Y-37441180D01*
X-9025000Y-37441180D01*
X-9120238Y-37393561D01*
X-9167857Y-37345942D01*
X-9215476Y-37250704D01*
X-9215476Y-36964990D01*
X-9167857Y-36869752D01*
X-9120238Y-36822133D01*
X-9025000Y-36774514D01*
X-8834523Y-36774514D01*
X-8739285Y-36822133D01*
X-7786904Y-36441180D02*
X-8263095Y-36441180D01*
X-8310714Y-36917371D01*
X-8263095Y-36869752D01*
X-8167857Y-36822133D01*
X-7929761Y-36822133D01*
X-7834523Y-36869752D01*
X-7786904Y-36917371D01*
X-7739285Y-37012609D01*
X-7739285Y-37250704D01*
X-7786904Y-37345942D01*
X-7834523Y-37393561D01*
X-7929761Y-37441180D01*
X-8167857Y-37441180D01*
X-8263095Y-37393561D01*
X-8310714Y-37345942D01*
%TO.C,De3*%
X-70973333Y38056095D02*
X-70973333Y38856095D01*
X-70782857Y38856095D01*
X-70668571Y38818000D01*
X-70592380Y38741809D01*
X-70554285Y38665619D01*
X-70516190Y38513238D01*
X-70516190Y38398952D01*
X-70554285Y38246571D01*
X-70592380Y38170380D01*
X-70668571Y38094190D01*
X-70782857Y38056095D01*
X-70973333Y38056095D01*
X-69868571Y38094190D02*
X-69944761Y38056095D01*
X-70097142Y38056095D01*
X-70173333Y38094190D01*
X-70211428Y38170380D01*
X-70211428Y38475142D01*
X-70173333Y38551333D01*
X-70097142Y38589428D01*
X-69944761Y38589428D01*
X-69868571Y38551333D01*
X-69830476Y38475142D01*
X-69830476Y38398952D01*
X-70211428Y38322761D01*
X-69563809Y38856095D02*
X-69068571Y38856095D01*
X-69335238Y38551333D01*
X-69220952Y38551333D01*
X-69144761Y38513238D01*
X-69106666Y38475142D01*
X-69068571Y38398952D01*
X-69068571Y38208476D01*
X-69106666Y38132285D01*
X-69144761Y38094190D01*
X-69220952Y38056095D01*
X-69449523Y38056095D01*
X-69525714Y38094190D01*
X-69563809Y38132285D01*
%TO.C,SWa4*%
X17264285Y-13581061D02*
X17407142Y-13628680D01*
X17645238Y-13628680D01*
X17740476Y-13581061D01*
X17788095Y-13533442D01*
X17835714Y-13438204D01*
X17835714Y-13342966D01*
X17788095Y-13247728D01*
X17740476Y-13200109D01*
X17645238Y-13152490D01*
X17454761Y-13104871D01*
X17359523Y-13057252D01*
X17311904Y-13009633D01*
X17264285Y-12914395D01*
X17264285Y-12819157D01*
X17311904Y-12723919D01*
X17359523Y-12676300D01*
X17454761Y-12628680D01*
X17692857Y-12628680D01*
X17835714Y-12676300D01*
X18169047Y-12628680D02*
X18407142Y-13628680D01*
X18597619Y-12914395D01*
X18788095Y-13628680D01*
X19026190Y-12628680D01*
X19835714Y-13628680D02*
X19835714Y-13104871D01*
X19788095Y-13009633D01*
X19692857Y-12962014D01*
X19502380Y-12962014D01*
X19407142Y-13009633D01*
X19835714Y-13581061D02*
X19740476Y-13628680D01*
X19502380Y-13628680D01*
X19407142Y-13581061D01*
X19359523Y-13485823D01*
X19359523Y-13390585D01*
X19407142Y-13295347D01*
X19502380Y-13247728D01*
X19740476Y-13247728D01*
X19835714Y-13200109D01*
X20740476Y-12962014D02*
X20740476Y-13628680D01*
X20502380Y-12581061D02*
X20264285Y-13295347D01*
X20883333Y-13295347D01*
%TO.C,SWb1*%
X-1785714Y45950238D02*
X-1642857Y45902619D01*
X-1404761Y45902619D01*
X-1309523Y45950238D01*
X-1261904Y45997857D01*
X-1214285Y46093095D01*
X-1214285Y46188333D01*
X-1261904Y46283571D01*
X-1309523Y46331190D01*
X-1404761Y46378809D01*
X-1595238Y46426428D01*
X-1690476Y46474047D01*
X-1738095Y46521666D01*
X-1785714Y46616904D01*
X-1785714Y46712142D01*
X-1738095Y46807380D01*
X-1690476Y46855000D01*
X-1595238Y46902619D01*
X-1357142Y46902619D01*
X-1214285Y46855000D01*
X-880952Y46902619D02*
X-642857Y45902619D01*
X-452380Y46616904D01*
X-261904Y45902619D01*
X-23809Y46902619D01*
X357142Y45902619D02*
X357142Y46902619D01*
X357142Y46521666D02*
X452380Y46569285D01*
X642857Y46569285D01*
X738095Y46521666D01*
X785714Y46474047D01*
X833333Y46378809D01*
X833333Y46093095D01*
X785714Y45997857D01*
X738095Y45950238D01*
X642857Y45902619D01*
X452380Y45902619D01*
X357142Y45950238D01*
X1785714Y45902619D02*
X1214285Y45902619D01*
X1500000Y45902619D02*
X1500000Y46902619D01*
X1404761Y46759761D01*
X1309523Y46664523D01*
X1214285Y46616904D01*
%TO.C,SWb2*%
X-1785714Y26900238D02*
X-1642857Y26852619D01*
X-1404761Y26852619D01*
X-1309523Y26900238D01*
X-1261904Y26947857D01*
X-1214285Y27043095D01*
X-1214285Y27138333D01*
X-1261904Y27233571D01*
X-1309523Y27281190D01*
X-1404761Y27328809D01*
X-1595238Y27376428D01*
X-1690476Y27424047D01*
X-1738095Y27471666D01*
X-1785714Y27566904D01*
X-1785714Y27662142D01*
X-1738095Y27757380D01*
X-1690476Y27805000D01*
X-1595238Y27852619D01*
X-1357142Y27852619D01*
X-1214285Y27805000D01*
X-880952Y27852619D02*
X-642857Y26852619D01*
X-452380Y27566904D01*
X-261904Y26852619D01*
X-23809Y27852619D01*
X357142Y26852619D02*
X357142Y27852619D01*
X357142Y27471666D02*
X452380Y27519285D01*
X642857Y27519285D01*
X738095Y27471666D01*
X785714Y27424047D01*
X833333Y27328809D01*
X833333Y27043095D01*
X785714Y26947857D01*
X738095Y26900238D01*
X642857Y26852619D01*
X452380Y26852619D01*
X357142Y26900238D01*
X1214285Y27757380D02*
X1261904Y27805000D01*
X1357142Y27852619D01*
X1595238Y27852619D01*
X1690476Y27805000D01*
X1738095Y27757380D01*
X1785714Y27662142D01*
X1785714Y27566904D01*
X1738095Y27424047D01*
X1166666Y26852619D01*
X1785714Y26852619D01*
%TO.C,De4*%
X-72173333Y29606095D02*
X-72173333Y30406095D01*
X-71982857Y30406095D01*
X-71868571Y30368000D01*
X-71792380Y30291809D01*
X-71754285Y30215619D01*
X-71716190Y30063238D01*
X-71716190Y29948952D01*
X-71754285Y29796571D01*
X-71792380Y29720380D01*
X-71868571Y29644190D01*
X-71982857Y29606095D01*
X-72173333Y29606095D01*
X-71068571Y29644190D02*
X-71144761Y29606095D01*
X-71297142Y29606095D01*
X-71373333Y29644190D01*
X-71411428Y29720380D01*
X-71411428Y30025142D01*
X-71373333Y30101333D01*
X-71297142Y30139428D01*
X-71144761Y30139428D01*
X-71068571Y30101333D01*
X-71030476Y30025142D01*
X-71030476Y29948952D01*
X-71411428Y29872761D01*
X-70344761Y30139428D02*
X-70344761Y29606095D01*
X-70535238Y30444190D02*
X-70725714Y29872761D01*
X-70230476Y29872761D01*
%TO.C,C4*%
X41433342Y15467033D02*
X41480961Y15419414D01*
X41528580Y15276557D01*
X41528580Y15181319D01*
X41480961Y15038461D01*
X41385723Y14943223D01*
X41290485Y14895604D01*
X41100009Y14847985D01*
X40957152Y14847985D01*
X40766676Y14895604D01*
X40671438Y14943223D01*
X40576200Y15038461D01*
X40528580Y15181319D01*
X40528580Y15276557D01*
X40576200Y15419414D01*
X40623819Y15467033D01*
X40861914Y16324176D02*
X41528580Y16324176D01*
X40480961Y16086080D02*
X41195247Y15847985D01*
X41195247Y16467033D01*
%TO.C,SWa2*%
X17264285Y24519038D02*
X17407142Y24471419D01*
X17645238Y24471419D01*
X17740476Y24519038D01*
X17788095Y24566657D01*
X17835714Y24661895D01*
X17835714Y24757133D01*
X17788095Y24852371D01*
X17740476Y24899990D01*
X17645238Y24947609D01*
X17454761Y24995228D01*
X17359523Y25042847D01*
X17311904Y25090466D01*
X17264285Y25185704D01*
X17264285Y25280942D01*
X17311904Y25376180D01*
X17359523Y25423800D01*
X17454761Y25471419D01*
X17692857Y25471419D01*
X17835714Y25423800D01*
X18169047Y25471419D02*
X18407142Y24471419D01*
X18597619Y25185704D01*
X18788095Y24471419D01*
X19026190Y25471419D01*
X19835714Y24471419D02*
X19835714Y24995228D01*
X19788095Y25090466D01*
X19692857Y25138085D01*
X19502380Y25138085D01*
X19407142Y25090466D01*
X19835714Y24519038D02*
X19740476Y24471419D01*
X19502380Y24471419D01*
X19407142Y24519038D01*
X19359523Y24614276D01*
X19359523Y24709514D01*
X19407142Y24804752D01*
X19502380Y24852371D01*
X19740476Y24852371D01*
X19835714Y24899990D01*
X20264285Y25376180D02*
X20311904Y25423800D01*
X20407142Y25471419D01*
X20645238Y25471419D01*
X20740476Y25423800D01*
X20788095Y25376180D01*
X20835714Y25280942D01*
X20835714Y25185704D01*
X20788095Y25042847D01*
X20216666Y24471419D01*
X20835714Y24471419D01*
%TO.C,Db2*%
X31343919Y5170095D02*
X31343919Y5970095D01*
X31534395Y5970095D01*
X31648680Y5932000D01*
X31724871Y5855809D01*
X31762966Y5779619D01*
X31801061Y5627238D01*
X31801061Y5512952D01*
X31762966Y5360571D01*
X31724871Y5284380D01*
X31648680Y5208190D01*
X31534395Y5170095D01*
X31343919Y5170095D01*
X32143919Y5170095D02*
X32143919Y5970095D01*
X32143919Y5665333D02*
X32220109Y5703428D01*
X32372490Y5703428D01*
X32448680Y5665333D01*
X32486776Y5627238D01*
X32524871Y5551047D01*
X32524871Y5322476D01*
X32486776Y5246285D01*
X32448680Y5208190D01*
X32372490Y5170095D01*
X32220109Y5170095D01*
X32143919Y5208190D01*
X32829633Y5893904D02*
X32867728Y5932000D01*
X32943919Y5970095D01*
X33134395Y5970095D01*
X33210585Y5932000D01*
X33248680Y5893904D01*
X33286776Y5817714D01*
X33286776Y5741523D01*
X33248680Y5627238D01*
X32791538Y5170095D01*
X33286776Y5170095D01*
%TO.C,SWf3*%
X-77819047Y706438D02*
X-77676190Y658819D01*
X-77438095Y658819D01*
X-77342857Y706438D01*
X-77295238Y754057D01*
X-77247619Y849295D01*
X-77247619Y944533D01*
X-77295238Y1039771D01*
X-77342857Y1087390D01*
X-77438095Y1135009D01*
X-77628571Y1182628D01*
X-77723809Y1230247D01*
X-77771428Y1277866D01*
X-77819047Y1373104D01*
X-77819047Y1468342D01*
X-77771428Y1563580D01*
X-77723809Y1611200D01*
X-77628571Y1658819D01*
X-77390476Y1658819D01*
X-77247619Y1611200D01*
X-76914285Y1658819D02*
X-76676190Y658819D01*
X-76485714Y1373104D01*
X-76295238Y658819D01*
X-76057142Y1658819D01*
X-75819047Y1325485D02*
X-75438095Y1325485D01*
X-75676190Y658819D02*
X-75676190Y1515961D01*
X-75628571Y1611200D01*
X-75533333Y1658819D01*
X-75438095Y1658819D01*
X-75200000Y1658819D02*
X-74580952Y1658819D01*
X-74914285Y1277866D01*
X-74771428Y1277866D01*
X-74676190Y1230247D01*
X-74628571Y1182628D01*
X-74580952Y1087390D01*
X-74580952Y849295D01*
X-74628571Y754057D01*
X-74676190Y706438D01*
X-74771428Y658819D01*
X-75057142Y658819D01*
X-75152380Y706438D01*
X-75200000Y754057D01*
%TO.C,SWd4*%
X-45375714Y-11544761D02*
X-45232857Y-11592380D01*
X-44994761Y-11592380D01*
X-44899523Y-11544761D01*
X-44851904Y-11497142D01*
X-44804285Y-11401904D01*
X-44804285Y-11306666D01*
X-44851904Y-11211428D01*
X-44899523Y-11163809D01*
X-44994761Y-11116190D01*
X-45185238Y-11068571D01*
X-45280476Y-11020952D01*
X-45328095Y-10973333D01*
X-45375714Y-10878095D01*
X-45375714Y-10782857D01*
X-45328095Y-10687619D01*
X-45280476Y-10640000D01*
X-45185238Y-10592380D01*
X-44947142Y-10592380D01*
X-44804285Y-10640000D01*
X-44470952Y-10592380D02*
X-44232857Y-11592380D01*
X-44042380Y-10878095D01*
X-43851904Y-11592380D01*
X-43613809Y-10592380D01*
X-42804285Y-11592380D02*
X-42804285Y-10592380D01*
X-42804285Y-11544761D02*
X-42899523Y-11592380D01*
X-43090000Y-11592380D01*
X-43185238Y-11544761D01*
X-43232857Y-11497142D01*
X-43280476Y-11401904D01*
X-43280476Y-11116190D01*
X-43232857Y-11020952D01*
X-43185238Y-10973333D01*
X-43090000Y-10925714D01*
X-42899523Y-10925714D01*
X-42804285Y-10973333D01*
X-41899523Y-10925714D02*
X-41899523Y-11592380D01*
X-42137619Y-10544761D02*
X-42375714Y-11259047D01*
X-41756666Y-11259047D01*
%TO.C,Db4*%
X31325119Y-25079904D02*
X31325119Y-24279904D01*
X31515595Y-24279904D01*
X31629880Y-24318000D01*
X31706071Y-24394190D01*
X31744166Y-24470380D01*
X31782261Y-24622761D01*
X31782261Y-24737047D01*
X31744166Y-24889428D01*
X31706071Y-24965619D01*
X31629880Y-25041809D01*
X31515595Y-25079904D01*
X31325119Y-25079904D01*
X32125119Y-25079904D02*
X32125119Y-24279904D01*
X32125119Y-24584666D02*
X32201309Y-24546571D01*
X32353690Y-24546571D01*
X32429880Y-24584666D01*
X32467976Y-24622761D01*
X32506071Y-24698952D01*
X32506071Y-24927523D01*
X32467976Y-25003714D01*
X32429880Y-25041809D01*
X32353690Y-25079904D01*
X32201309Y-25079904D01*
X32125119Y-25041809D01*
X33191785Y-24546571D02*
X33191785Y-25079904D01*
X33001309Y-24241809D02*
X32810833Y-24813238D01*
X33306071Y-24813238D01*
%TO.C,R1*%
X41382133Y43293919D02*
X41048800Y43770109D01*
X40810704Y43293919D02*
X40810704Y44293919D01*
X41191657Y44293919D01*
X41286895Y44246300D01*
X41334514Y44198680D01*
X41382133Y44103442D01*
X41382133Y43960585D01*
X41334514Y43865347D01*
X41286895Y43817728D01*
X41191657Y43770109D01*
X40810704Y43770109D01*
X42334514Y43293919D02*
X41763085Y43293919D01*
X42048800Y43293919D02*
X42048800Y44293919D01*
X41953561Y44151061D01*
X41858323Y44055823D01*
X41763085Y44008204D01*
X42001904Y47606666D02*
X42001904Y47035238D01*
X42001904Y47320952D02*
X41201904Y47320952D01*
X41316190Y47225714D01*
X41392380Y47130476D01*
X41430476Y47035238D01*
X41925714Y48035238D02*
X41963809Y48082857D01*
X42001904Y48035238D01*
X41963809Y47987619D01*
X41925714Y48035238D01*
X42001904Y48035238D01*
X41201904Y48987619D02*
X41201904Y48511428D01*
X41582857Y48463809D01*
X41544761Y48511428D01*
X41506666Y48606666D01*
X41506666Y48844761D01*
X41544761Y48940000D01*
X41582857Y48987619D01*
X41659047Y49035238D01*
X41849523Y49035238D01*
X41925714Y48987619D01*
X41963809Y48940000D01*
X42001904Y48844761D01*
X42001904Y48606666D01*
X41963809Y48511428D01*
X41925714Y48463809D01*
X42001904Y49463809D02*
X41201904Y49463809D01*
X41697142Y49559047D02*
X42001904Y49844761D01*
X41468571Y49844761D02*
X41773333Y49463809D01*
%TO.C,DZ1*%
X24088571Y46490595D02*
X24088571Y47290595D01*
X24279047Y47290595D01*
X24393333Y47252500D01*
X24469523Y47176309D01*
X24507619Y47100119D01*
X24545714Y46947738D01*
X24545714Y46833452D01*
X24507619Y46681071D01*
X24469523Y46604880D01*
X24393333Y46528690D01*
X24279047Y46490595D01*
X24088571Y46490595D01*
X24812380Y47290595D02*
X25345714Y47290595D01*
X24812380Y46490595D01*
X25345714Y46490595D01*
X26069523Y46490595D02*
X25612380Y46490595D01*
X25840952Y46490595D02*
X25840952Y47290595D01*
X25764761Y47176309D01*
X25688571Y47100119D01*
X25612380Y47062023D01*
%TO.C,SWb4*%
X-1785714Y-11199761D02*
X-1642857Y-11247380D01*
X-1404761Y-11247380D01*
X-1309523Y-11199761D01*
X-1261904Y-11152142D01*
X-1214285Y-11056904D01*
X-1214285Y-10961666D01*
X-1261904Y-10866428D01*
X-1309523Y-10818809D01*
X-1404761Y-10771190D01*
X-1595238Y-10723571D01*
X-1690476Y-10675952D01*
X-1738095Y-10628333D01*
X-1785714Y-10533095D01*
X-1785714Y-10437857D01*
X-1738095Y-10342619D01*
X-1690476Y-10295000D01*
X-1595238Y-10247380D01*
X-1357142Y-10247380D01*
X-1214285Y-10295000D01*
X-880952Y-10247380D02*
X-642857Y-11247380D01*
X-452380Y-10533095D01*
X-261904Y-11247380D01*
X-23809Y-10247380D01*
X357142Y-11247380D02*
X357142Y-10247380D01*
X357142Y-10628333D02*
X452380Y-10580714D01*
X642857Y-10580714D01*
X738095Y-10628333D01*
X785714Y-10675952D01*
X833333Y-10771190D01*
X833333Y-11056904D01*
X785714Y-11152142D01*
X738095Y-11199761D01*
X642857Y-11247380D01*
X452380Y-11247380D01*
X357142Y-11199761D01*
X1690476Y-10580714D02*
X1690476Y-11247380D01*
X1452380Y-10199761D02*
X1214285Y-10914047D01*
X1833333Y-10914047D01*
%TO.C,SWe4*%
X-58911904Y-18343561D02*
X-58769047Y-18391180D01*
X-58530952Y-18391180D01*
X-58435714Y-18343561D01*
X-58388095Y-18295942D01*
X-58340476Y-18200704D01*
X-58340476Y-18105466D01*
X-58388095Y-18010228D01*
X-58435714Y-17962609D01*
X-58530952Y-17914990D01*
X-58721428Y-17867371D01*
X-58816666Y-17819752D01*
X-58864285Y-17772133D01*
X-58911904Y-17676895D01*
X-58911904Y-17581657D01*
X-58864285Y-17486419D01*
X-58816666Y-17438800D01*
X-58721428Y-17391180D01*
X-58483333Y-17391180D01*
X-58340476Y-17438800D01*
X-58007142Y-17391180D02*
X-57769047Y-18391180D01*
X-57578571Y-17676895D01*
X-57388095Y-18391180D01*
X-57150000Y-17391180D01*
X-56388095Y-18343561D02*
X-56483333Y-18391180D01*
X-56673809Y-18391180D01*
X-56769047Y-18343561D01*
X-56816666Y-18248323D01*
X-56816666Y-17867371D01*
X-56769047Y-17772133D01*
X-56673809Y-17724514D01*
X-56483333Y-17724514D01*
X-56388095Y-17772133D01*
X-56340476Y-17867371D01*
X-56340476Y-17962609D01*
X-56816666Y-18057847D01*
X-55483333Y-17724514D02*
X-55483333Y-18391180D01*
X-55721428Y-17343561D02*
X-55959523Y-18057847D01*
X-55340476Y-18057847D01*
%TO.C,Dd2*%
X-50992380Y50106095D02*
X-50992380Y50906095D01*
X-50801904Y50906095D01*
X-50687619Y50868000D01*
X-50611428Y50791809D01*
X-50573333Y50715619D01*
X-50535238Y50563238D01*
X-50535238Y50448952D01*
X-50573333Y50296571D01*
X-50611428Y50220380D01*
X-50687619Y50144190D01*
X-50801904Y50106095D01*
X-50992380Y50106095D01*
X-49849523Y50106095D02*
X-49849523Y50906095D01*
X-49849523Y50144190D02*
X-49925714Y50106095D01*
X-50078095Y50106095D01*
X-50154285Y50144190D01*
X-50192380Y50182285D01*
X-50230476Y50258476D01*
X-50230476Y50487047D01*
X-50192380Y50563238D01*
X-50154285Y50601333D01*
X-50078095Y50639428D01*
X-49925714Y50639428D01*
X-49849523Y50601333D01*
X-49506666Y50829904D02*
X-49468571Y50868000D01*
X-49392380Y50906095D01*
X-49201904Y50906095D01*
X-49125714Y50868000D01*
X-49087619Y50829904D01*
X-49049523Y50753714D01*
X-49049523Y50677523D01*
X-49087619Y50563238D01*
X-49544761Y50106095D01*
X-49049523Y50106095D01*
%TO.C,SWa1*%
X17264285Y43569038D02*
X17407142Y43521419D01*
X17645238Y43521419D01*
X17740476Y43569038D01*
X17788095Y43616657D01*
X17835714Y43711895D01*
X17835714Y43807133D01*
X17788095Y43902371D01*
X17740476Y43949990D01*
X17645238Y43997609D01*
X17454761Y44045228D01*
X17359523Y44092847D01*
X17311904Y44140466D01*
X17264285Y44235704D01*
X17264285Y44330942D01*
X17311904Y44426180D01*
X17359523Y44473800D01*
X17454761Y44521419D01*
X17692857Y44521419D01*
X17835714Y44473800D01*
X18169047Y44521419D02*
X18407142Y43521419D01*
X18597619Y44235704D01*
X18788095Y43521419D01*
X19026190Y44521419D01*
X19835714Y43521419D02*
X19835714Y44045228D01*
X19788095Y44140466D01*
X19692857Y44188085D01*
X19502380Y44188085D01*
X19407142Y44140466D01*
X19835714Y43569038D02*
X19740476Y43521419D01*
X19502380Y43521419D01*
X19407142Y43569038D01*
X19359523Y43664276D01*
X19359523Y43759514D01*
X19407142Y43854752D01*
X19502380Y43902371D01*
X19740476Y43902371D01*
X19835714Y43949990D01*
X20835714Y43521419D02*
X20264285Y43521419D01*
X20550000Y43521419D02*
X20550000Y44521419D01*
X20454761Y44378561D01*
X20359523Y44283323D01*
X20264285Y44235704D01*
%TO.C,Dd1*%
X-39242380Y50106095D02*
X-39242380Y50906095D01*
X-39051904Y50906095D01*
X-38937619Y50868000D01*
X-38861428Y50791809D01*
X-38823333Y50715619D01*
X-38785238Y50563238D01*
X-38785238Y50448952D01*
X-38823333Y50296571D01*
X-38861428Y50220380D01*
X-38937619Y50144190D01*
X-39051904Y50106095D01*
X-39242380Y50106095D01*
X-38099523Y50106095D02*
X-38099523Y50906095D01*
X-38099523Y50144190D02*
X-38175714Y50106095D01*
X-38328095Y50106095D01*
X-38404285Y50144190D01*
X-38442380Y50182285D01*
X-38480476Y50258476D01*
X-38480476Y50487047D01*
X-38442380Y50563238D01*
X-38404285Y50601333D01*
X-38328095Y50639428D01*
X-38175714Y50639428D01*
X-38099523Y50601333D01*
X-37299523Y50106095D02*
X-37756666Y50106095D01*
X-37528095Y50106095D02*
X-37528095Y50906095D01*
X-37604285Y50791809D01*
X-37680476Y50715619D01*
X-37756666Y50677523D01*
%TO.C,Df2*%
X-78659047Y42556095D02*
X-78659047Y43356095D01*
X-78468571Y43356095D01*
X-78354285Y43318000D01*
X-78278095Y43241809D01*
X-78240000Y43165619D01*
X-78201904Y43013238D01*
X-78201904Y42898952D01*
X-78240000Y42746571D01*
X-78278095Y42670380D01*
X-78354285Y42594190D01*
X-78468571Y42556095D01*
X-78659047Y42556095D01*
X-77973333Y43089428D02*
X-77668571Y43089428D01*
X-77859047Y42556095D02*
X-77859047Y43241809D01*
X-77820952Y43318000D01*
X-77744761Y43356095D01*
X-77668571Y43356095D01*
X-77440000Y43279904D02*
X-77401904Y43318000D01*
X-77325714Y43356095D01*
X-77135238Y43356095D01*
X-77059047Y43318000D01*
X-77020952Y43279904D01*
X-76982857Y43203714D01*
X-76982857Y43127523D01*
X-77020952Y43013238D01*
X-77478095Y42556095D01*
X-76982857Y42556095D01*
%TO.C,Dd4*%
X-38992380Y-11893904D02*
X-38992380Y-11093904D01*
X-38801904Y-11093904D01*
X-38687619Y-11132000D01*
X-38611428Y-11208190D01*
X-38573333Y-11284380D01*
X-38535238Y-11436761D01*
X-38535238Y-11551047D01*
X-38573333Y-11703428D01*
X-38611428Y-11779619D01*
X-38687619Y-11855809D01*
X-38801904Y-11893904D01*
X-38992380Y-11893904D01*
X-37849523Y-11893904D02*
X-37849523Y-11093904D01*
X-37849523Y-11855809D02*
X-37925714Y-11893904D01*
X-38078095Y-11893904D01*
X-38154285Y-11855809D01*
X-38192380Y-11817714D01*
X-38230476Y-11741523D01*
X-38230476Y-11512952D01*
X-38192380Y-11436761D01*
X-38154285Y-11398666D01*
X-38078095Y-11360571D01*
X-37925714Y-11360571D01*
X-37849523Y-11398666D01*
X-37125714Y-11360571D02*
X-37125714Y-11893904D01*
X-37316190Y-11055809D02*
X-37506666Y-11627238D01*
X-37011428Y-11627238D01*
%TO.C,Db1*%
X31593919Y21670095D02*
X31593919Y22470095D01*
X31784395Y22470095D01*
X31898680Y22432000D01*
X31974871Y22355809D01*
X32012966Y22279619D01*
X32051061Y22127238D01*
X32051061Y22012952D01*
X32012966Y21860571D01*
X31974871Y21784380D01*
X31898680Y21708190D01*
X31784395Y21670095D01*
X31593919Y21670095D01*
X32393919Y21670095D02*
X32393919Y22470095D01*
X32393919Y22165333D02*
X32470109Y22203428D01*
X32622490Y22203428D01*
X32698680Y22165333D01*
X32736776Y22127238D01*
X32774871Y22051047D01*
X32774871Y21822476D01*
X32736776Y21746285D01*
X32698680Y21708190D01*
X32622490Y21670095D01*
X32470109Y21670095D01*
X32393919Y21708190D01*
X33536776Y21670095D02*
X33079633Y21670095D01*
X33308204Y21670095D02*
X33308204Y22470095D01*
X33232014Y22355809D01*
X33155823Y22279619D01*
X33079633Y22241523D01*
%TO.C,Da2*%
X33093919Y14170095D02*
X33093919Y14970095D01*
X33284395Y14970095D01*
X33398680Y14932000D01*
X33474871Y14855809D01*
X33512966Y14779619D01*
X33551061Y14627238D01*
X33551061Y14512952D01*
X33512966Y14360571D01*
X33474871Y14284380D01*
X33398680Y14208190D01*
X33284395Y14170095D01*
X33093919Y14170095D01*
X34236776Y14170095D02*
X34236776Y14589142D01*
X34198680Y14665333D01*
X34122490Y14703428D01*
X33970109Y14703428D01*
X33893919Y14665333D01*
X34236776Y14208190D02*
X34160585Y14170095D01*
X33970109Y14170095D01*
X33893919Y14208190D01*
X33855823Y14284380D01*
X33855823Y14360571D01*
X33893919Y14436761D01*
X33970109Y14474857D01*
X34160585Y14474857D01*
X34236776Y14512952D01*
X34579633Y14893904D02*
X34617728Y14932000D01*
X34693919Y14970095D01*
X34884395Y14970095D01*
X34960585Y14932000D01*
X34998680Y14893904D01*
X35036776Y14817714D01*
X35036776Y14741523D01*
X34998680Y14627238D01*
X34541538Y14170095D01*
X35036776Y14170095D01*
%TO.C,Dc4*%
X-11873333Y-861904D02*
X-11873333Y-61904D01*
X-11682857Y-61904D01*
X-11568571Y-100000D01*
X-11492380Y-176190D01*
X-11454285Y-252380D01*
X-11416190Y-404761D01*
X-11416190Y-519047D01*
X-11454285Y-671428D01*
X-11492380Y-747619D01*
X-11568571Y-823809D01*
X-11682857Y-861904D01*
X-11873333Y-861904D01*
X-10730476Y-823809D02*
X-10806666Y-861904D01*
X-10959047Y-861904D01*
X-11035238Y-823809D01*
X-11073333Y-785714D01*
X-11111428Y-709523D01*
X-11111428Y-480952D01*
X-11073333Y-404761D01*
X-11035238Y-366666D01*
X-10959047Y-328571D01*
X-10806666Y-328571D01*
X-10730476Y-366666D01*
X-10044761Y-328571D02*
X-10044761Y-861904D01*
X-10235238Y-23809D02*
X-10425714Y-595238D01*
X-9930476Y-595238D01*
%TO.C,Dc2*%
X-4943333Y50270095D02*
X-4943333Y51070095D01*
X-4752857Y51070095D01*
X-4638571Y51032000D01*
X-4562380Y50955809D01*
X-4524285Y50879619D01*
X-4486190Y50727238D01*
X-4486190Y50612952D01*
X-4524285Y50460571D01*
X-4562380Y50384380D01*
X-4638571Y50308190D01*
X-4752857Y50270095D01*
X-4943333Y50270095D01*
X-3800476Y50308190D02*
X-3876666Y50270095D01*
X-4029047Y50270095D01*
X-4105238Y50308190D01*
X-4143333Y50346285D01*
X-4181428Y50422476D01*
X-4181428Y50651047D01*
X-4143333Y50727238D01*
X-4105238Y50765333D01*
X-4029047Y50803428D01*
X-3876666Y50803428D01*
X-3800476Y50765333D01*
X-3495714Y50993904D02*
X-3457619Y51032000D01*
X-3381428Y51070095D01*
X-3190952Y51070095D01*
X-3114761Y51032000D01*
X-3076666Y50993904D01*
X-3038571Y50917714D01*
X-3038571Y50841523D01*
X-3076666Y50727238D01*
X-3533809Y50270095D01*
X-3038571Y50270095D01*
%TO.C,Df3*%
X-79909047Y33856095D02*
X-79909047Y34656095D01*
X-79718571Y34656095D01*
X-79604285Y34618000D01*
X-79528095Y34541809D01*
X-79490000Y34465619D01*
X-79451904Y34313238D01*
X-79451904Y34198952D01*
X-79490000Y34046571D01*
X-79528095Y33970380D01*
X-79604285Y33894190D01*
X-79718571Y33856095D01*
X-79909047Y33856095D01*
X-79223333Y34389428D02*
X-78918571Y34389428D01*
X-79109047Y33856095D02*
X-79109047Y34541809D01*
X-79070952Y34618000D01*
X-78994761Y34656095D01*
X-78918571Y34656095D01*
X-78728095Y34656095D02*
X-78232857Y34656095D01*
X-78499523Y34351333D01*
X-78385238Y34351333D01*
X-78309047Y34313238D01*
X-78270952Y34275142D01*
X-78232857Y34198952D01*
X-78232857Y34008476D01*
X-78270952Y33932285D01*
X-78309047Y33894190D01*
X-78385238Y33856095D01*
X-78613809Y33856095D01*
X-78690000Y33894190D01*
X-78728095Y33932285D01*
%TO.C,R3*%
X39733333Y39417619D02*
X39400000Y39893809D01*
X39161904Y39417619D02*
X39161904Y40417619D01*
X39542857Y40417619D01*
X39638095Y40370000D01*
X39685714Y40322380D01*
X39733333Y40227142D01*
X39733333Y40084285D01*
X39685714Y39989047D01*
X39638095Y39941428D01*
X39542857Y39893809D01*
X39161904Y39893809D01*
X40066666Y40417619D02*
X40685714Y40417619D01*
X40352380Y40036666D01*
X40495238Y40036666D01*
X40590476Y39989047D01*
X40638095Y39941428D01*
X40685714Y39846190D01*
X40685714Y39608095D01*
X40638095Y39512857D01*
X40590476Y39465238D01*
X40495238Y39417619D01*
X40209523Y39417619D01*
X40114285Y39465238D01*
X40066666Y39512857D01*
%TO.C,Da5*%
X50057619Y-57593904D02*
X50057619Y-56793904D01*
X50248095Y-56793904D01*
X50362380Y-56832000D01*
X50438571Y-56908190D01*
X50476666Y-56984380D01*
X50514761Y-57136761D01*
X50514761Y-57251047D01*
X50476666Y-57403428D01*
X50438571Y-57479619D01*
X50362380Y-57555809D01*
X50248095Y-57593904D01*
X50057619Y-57593904D01*
X51200476Y-57593904D02*
X51200476Y-57174857D01*
X51162380Y-57098666D01*
X51086190Y-57060571D01*
X50933809Y-57060571D01*
X50857619Y-57098666D01*
X51200476Y-57555809D02*
X51124285Y-57593904D01*
X50933809Y-57593904D01*
X50857619Y-57555809D01*
X50819523Y-57479619D01*
X50819523Y-57403428D01*
X50857619Y-57327238D01*
X50933809Y-57289142D01*
X51124285Y-57289142D01*
X51200476Y-57251047D01*
X51962380Y-56793904D02*
X51581428Y-56793904D01*
X51543333Y-57174857D01*
X51581428Y-57136761D01*
X51657619Y-57098666D01*
X51848095Y-57098666D01*
X51924285Y-57136761D01*
X51962380Y-57174857D01*
X52000476Y-57251047D01*
X52000476Y-57441523D01*
X51962380Y-57517714D01*
X51924285Y-57555809D01*
X51848095Y-57593904D01*
X51657619Y-57593904D01*
X51581428Y-57555809D01*
X51543333Y-57517714D01*
%TO.C,SWb3*%
X-1785714Y7850238D02*
X-1642857Y7802619D01*
X-1404761Y7802619D01*
X-1309523Y7850238D01*
X-1261904Y7897857D01*
X-1214285Y7993095D01*
X-1214285Y8088333D01*
X-1261904Y8183571D01*
X-1309523Y8231190D01*
X-1404761Y8278809D01*
X-1595238Y8326428D01*
X-1690476Y8374047D01*
X-1738095Y8421666D01*
X-1785714Y8516904D01*
X-1785714Y8612142D01*
X-1738095Y8707380D01*
X-1690476Y8755000D01*
X-1595238Y8802619D01*
X-1357142Y8802619D01*
X-1214285Y8755000D01*
X-880952Y8802619D02*
X-642857Y7802619D01*
X-452380Y8516904D01*
X-261904Y7802619D01*
X-23809Y8802619D01*
X357142Y7802619D02*
X357142Y8802619D01*
X357142Y8421666D02*
X452380Y8469285D01*
X642857Y8469285D01*
X738095Y8421666D01*
X785714Y8374047D01*
X833333Y8278809D01*
X833333Y7993095D01*
X785714Y7897857D01*
X738095Y7850238D01*
X642857Y7802619D01*
X452380Y7802619D01*
X357142Y7850238D01*
X1166666Y8802619D02*
X1785714Y8802619D01*
X1452380Y8421666D01*
X1595238Y8421666D01*
X1690476Y8374047D01*
X1738095Y8326428D01*
X1785714Y8231190D01*
X1785714Y7993095D01*
X1738095Y7897857D01*
X1690476Y7850238D01*
X1595238Y7802619D01*
X1309523Y7802619D01*
X1214285Y7850238D01*
X1166666Y7897857D01*
%TO.C,Db3*%
X31343919Y-10079904D02*
X31343919Y-9279904D01*
X31534395Y-9279904D01*
X31648680Y-9318000D01*
X31724871Y-9394190D01*
X31762966Y-9470380D01*
X31801061Y-9622761D01*
X31801061Y-9737047D01*
X31762966Y-9889428D01*
X31724871Y-9965619D01*
X31648680Y-10041809D01*
X31534395Y-10079904D01*
X31343919Y-10079904D01*
X32143919Y-10079904D02*
X32143919Y-9279904D01*
X32143919Y-9584666D02*
X32220109Y-9546571D01*
X32372490Y-9546571D01*
X32448680Y-9584666D01*
X32486776Y-9622761D01*
X32524871Y-9698952D01*
X32524871Y-9927523D01*
X32486776Y-10003714D01*
X32448680Y-10041809D01*
X32372490Y-10079904D01*
X32220109Y-10079904D01*
X32143919Y-10041809D01*
X32791538Y-9279904D02*
X33286776Y-9279904D01*
X33020109Y-9584666D01*
X33134395Y-9584666D01*
X33210585Y-9622761D01*
X33248680Y-9660857D01*
X33286776Y-9737047D01*
X33286776Y-9927523D01*
X33248680Y-10003714D01*
X33210585Y-10041809D01*
X33134395Y-10079904D01*
X32905823Y-10079904D01*
X32829633Y-10041809D01*
X32791538Y-10003714D01*
%TO.C,C5*%
X58838342Y7217033D02*
X58885961Y7169414D01*
X58933580Y7026557D01*
X58933580Y6931319D01*
X58885961Y6788461D01*
X58790723Y6693223D01*
X58695485Y6645604D01*
X58505009Y6597985D01*
X58362152Y6597985D01*
X58171676Y6645604D01*
X58076438Y6693223D01*
X57981200Y6788461D01*
X57933580Y6931319D01*
X57933580Y7026557D01*
X57981200Y7169414D01*
X58028819Y7217033D01*
X57933580Y8121795D02*
X57933580Y7645604D01*
X58409771Y7597985D01*
X58362152Y7645604D01*
X58314533Y7740842D01*
X58314533Y7978938D01*
X58362152Y8074176D01*
X58409771Y8121795D01*
X58505009Y8169414D01*
X58743104Y8169414D01*
X58838342Y8121795D01*
X58885961Y8074176D01*
X58933580Y7978938D01*
X58933580Y7740842D01*
X58885961Y7645604D01*
X58838342Y7597985D01*
%TO.C,USB1*%
X30481904Y45297619D02*
X30481904Y44488095D01*
X30529523Y44392857D01*
X30577142Y44345238D01*
X30672380Y44297619D01*
X30862857Y44297619D01*
X30958095Y44345238D01*
X31005714Y44392857D01*
X31053333Y44488095D01*
X31053333Y45297619D01*
X31481904Y44345238D02*
X31624761Y44297619D01*
X31862857Y44297619D01*
X31958095Y44345238D01*
X32005714Y44392857D01*
X32053333Y44488095D01*
X32053333Y44583333D01*
X32005714Y44678571D01*
X31958095Y44726190D01*
X31862857Y44773809D01*
X31672380Y44821428D01*
X31577142Y44869047D01*
X31529523Y44916666D01*
X31481904Y45011904D01*
X31481904Y45107142D01*
X31529523Y45202380D01*
X31577142Y45250000D01*
X31672380Y45297619D01*
X31910476Y45297619D01*
X32053333Y45250000D01*
X32815238Y44821428D02*
X32958095Y44773809D01*
X33005714Y44726190D01*
X33053333Y44630952D01*
X33053333Y44488095D01*
X33005714Y44392857D01*
X32958095Y44345238D01*
X32862857Y44297619D01*
X32481904Y44297619D01*
X32481904Y45297619D01*
X32815238Y45297619D01*
X32910476Y45250000D01*
X32958095Y45202380D01*
X33005714Y45107142D01*
X33005714Y45011904D01*
X32958095Y44916666D01*
X32910476Y44869047D01*
X32815238Y44821428D01*
X32481904Y44821428D01*
X34005714Y44297619D02*
X33434285Y44297619D01*
X33720000Y44297619D02*
X33720000Y45297619D01*
X33624761Y45154761D01*
X33529523Y45059523D01*
X33434285Y45011904D01*
%TO.C,SWb5*%
X33379971Y-50056609D02*
X33483751Y-50165721D01*
X33693976Y-50277500D01*
X33800422Y-50280167D01*
X33864823Y-50260478D01*
X33951580Y-50198743D01*
X33996292Y-50114653D01*
X33998958Y-50008207D01*
X33979269Y-49943806D01*
X33917534Y-49857049D01*
X33771710Y-49725581D01*
X33709975Y-49638824D01*
X33690286Y-49574423D01*
X33692952Y-49467977D01*
X33737664Y-49383887D01*
X33824420Y-49322153D01*
X33888821Y-49302463D01*
X33995267Y-49305130D01*
X34205493Y-49416909D01*
X34309273Y-49526021D01*
X34625944Y-49640466D02*
X34366698Y-50635193D01*
X34870216Y-50093939D01*
X34703059Y-50814039D01*
X35382757Y-50042871D01*
X35249646Y-51104665D02*
X35719117Y-50221717D01*
X35540271Y-50558078D02*
X35646717Y-50560744D01*
X35814898Y-50650168D01*
X35876632Y-50736924D01*
X35896322Y-50801325D01*
X35893655Y-50907771D01*
X35759520Y-51160042D01*
X35672764Y-51221776D01*
X35608363Y-51241466D01*
X35501917Y-51238799D01*
X35333736Y-51149376D01*
X35272002Y-51062619D01*
X36938426Y-50870035D02*
X36517975Y-50646477D01*
X36252372Y-51044572D01*
X36316773Y-51024883D01*
X36423219Y-51027550D01*
X36633444Y-51139328D01*
X36695179Y-51226085D01*
X36714868Y-51290486D01*
X36712202Y-51396932D01*
X36600423Y-51607158D01*
X36513666Y-51668892D01*
X36449265Y-51688582D01*
X36342819Y-51685915D01*
X36132594Y-51574136D01*
X36070859Y-51487379D01*
X36051170Y-51422979D01*
%TO.C,Dd5*%
X-20529880Y-30793904D02*
X-20529880Y-29993904D01*
X-20339404Y-29993904D01*
X-20225119Y-30032000D01*
X-20148928Y-30108190D01*
X-20110833Y-30184380D01*
X-20072738Y-30336761D01*
X-20072738Y-30451047D01*
X-20110833Y-30603428D01*
X-20148928Y-30679619D01*
X-20225119Y-30755809D01*
X-20339404Y-30793904D01*
X-20529880Y-30793904D01*
X-19387023Y-30793904D02*
X-19387023Y-29993904D01*
X-19387023Y-30755809D02*
X-19463214Y-30793904D01*
X-19615595Y-30793904D01*
X-19691785Y-30755809D01*
X-19729880Y-30717714D01*
X-19767976Y-30641523D01*
X-19767976Y-30412952D01*
X-19729880Y-30336761D01*
X-19691785Y-30298666D01*
X-19615595Y-30260571D01*
X-19463214Y-30260571D01*
X-19387023Y-30298666D01*
X-18625119Y-29993904D02*
X-19006071Y-29993904D01*
X-19044166Y-30374857D01*
X-19006071Y-30336761D01*
X-18929880Y-30298666D01*
X-18739404Y-30298666D01*
X-18663214Y-30336761D01*
X-18625119Y-30374857D01*
X-18587023Y-30451047D01*
X-18587023Y-30641523D01*
X-18625119Y-30717714D01*
X-18663214Y-30755809D01*
X-18739404Y-30793904D01*
X-18929880Y-30793904D01*
X-19006071Y-30755809D01*
X-19044166Y-30717714D01*
%TO.C,C1*%
X39310342Y10677033D02*
X39357961Y10629414D01*
X39405580Y10486557D01*
X39405580Y10391319D01*
X39357961Y10248461D01*
X39262723Y10153223D01*
X39167485Y10105604D01*
X38977009Y10057985D01*
X38834152Y10057985D01*
X38643676Y10105604D01*
X38548438Y10153223D01*
X38453200Y10248461D01*
X38405580Y10391319D01*
X38405580Y10486557D01*
X38453200Y10629414D01*
X38500819Y10677033D01*
X39405580Y11629414D02*
X39405580Y11057985D01*
X39405580Y11343700D02*
X38405580Y11343700D01*
X38548438Y11248461D01*
X38643676Y11153223D01*
X38691295Y11057985D01*
%TO.C,PB2*%
X50178571Y-27107142D02*
X50226190Y-26964285D01*
X50273809Y-26916666D01*
X50369047Y-26869047D01*
X50511904Y-26869047D01*
X50607142Y-26916666D01*
X50654761Y-26964285D01*
X50702380Y-27059523D01*
X50702380Y-27440476D01*
X49702380Y-27440476D01*
X49702380Y-27107142D01*
X49750000Y-27011904D01*
X49797619Y-26964285D01*
X49892857Y-26916666D01*
X49988095Y-26916666D01*
X50083333Y-26964285D01*
X50130952Y-27011904D01*
X50178571Y-27107142D01*
X50178571Y-27440476D01*
X49702380Y-26250000D02*
X49702380Y-26059523D01*
X49750000Y-25964285D01*
X49845238Y-25869047D01*
X50035714Y-25821428D01*
X50369047Y-25821428D01*
X50559523Y-25869047D01*
X50654761Y-25964285D01*
X50702380Y-26059523D01*
X50702380Y-26250000D01*
X50654761Y-26345238D01*
X50559523Y-26440476D01*
X50369047Y-26488095D01*
X50035714Y-26488095D01*
X49845238Y-26440476D01*
X49750000Y-26345238D01*
X49702380Y-26250000D01*
X49702380Y-25202380D02*
X49702380Y-25011904D01*
X49750000Y-24916666D01*
X49845238Y-24821428D01*
X50035714Y-24773809D01*
X50369047Y-24773809D01*
X50559523Y-24821428D01*
X50654761Y-24916666D01*
X50702380Y-25011904D01*
X50702380Y-25202380D01*
X50654761Y-25297619D01*
X50559523Y-25392857D01*
X50369047Y-25440476D01*
X50035714Y-25440476D01*
X49845238Y-25392857D01*
X49750000Y-25297619D01*
X49702380Y-25202380D01*
X49702380Y-24488095D02*
X49702380Y-23916666D01*
X50702380Y-24202380D02*
X49702380Y-24202380D01*
%TO.C,SWc1*%
X-20811904Y53094038D02*
X-20669047Y53046419D01*
X-20430952Y53046419D01*
X-20335714Y53094038D01*
X-20288095Y53141657D01*
X-20240476Y53236895D01*
X-20240476Y53332133D01*
X-20288095Y53427371D01*
X-20335714Y53474990D01*
X-20430952Y53522609D01*
X-20621428Y53570228D01*
X-20716666Y53617847D01*
X-20764285Y53665466D01*
X-20811904Y53760704D01*
X-20811904Y53855942D01*
X-20764285Y53951180D01*
X-20716666Y53998800D01*
X-20621428Y54046419D01*
X-20383333Y54046419D01*
X-20240476Y53998800D01*
X-19907142Y54046419D02*
X-19669047Y53046419D01*
X-19478571Y53760704D01*
X-19288095Y53046419D01*
X-19050000Y54046419D01*
X-18240476Y53094038D02*
X-18335714Y53046419D01*
X-18526190Y53046419D01*
X-18621428Y53094038D01*
X-18669047Y53141657D01*
X-18716666Y53236895D01*
X-18716666Y53522609D01*
X-18669047Y53617847D01*
X-18621428Y53665466D01*
X-18526190Y53713085D01*
X-18335714Y53713085D01*
X-18240476Y53665466D01*
X-17288095Y53046419D02*
X-17859523Y53046419D01*
X-17573809Y53046419D02*
X-17573809Y54046419D01*
X-17669047Y53903561D01*
X-17764285Y53808323D01*
X-17859523Y53760704D01*
%TO.C,Dd3*%
X-52192380Y42556095D02*
X-52192380Y43356095D01*
X-52001904Y43356095D01*
X-51887619Y43318000D01*
X-51811428Y43241809D01*
X-51773333Y43165619D01*
X-51735238Y43013238D01*
X-51735238Y42898952D01*
X-51773333Y42746571D01*
X-51811428Y42670380D01*
X-51887619Y42594190D01*
X-52001904Y42556095D01*
X-52192380Y42556095D01*
X-51049523Y42556095D02*
X-51049523Y43356095D01*
X-51049523Y42594190D02*
X-51125714Y42556095D01*
X-51278095Y42556095D01*
X-51354285Y42594190D01*
X-51392380Y42632285D01*
X-51430476Y42708476D01*
X-51430476Y42937047D01*
X-51392380Y43013238D01*
X-51354285Y43051333D01*
X-51278095Y43089428D01*
X-51125714Y43089428D01*
X-51049523Y43051333D01*
X-50744761Y43356095D02*
X-50249523Y43356095D01*
X-50516190Y43051333D01*
X-50401904Y43051333D01*
X-50325714Y43013238D01*
X-50287619Y42975142D01*
X-50249523Y42898952D01*
X-50249523Y42708476D01*
X-50287619Y42632285D01*
X-50325714Y42594190D01*
X-50401904Y42556095D01*
X-50630476Y42556095D01*
X-50706666Y42594190D01*
X-50744761Y42632285D01*
%TO.C,PB1*%
X50452380Y-17202380D02*
X49976190Y-17535714D01*
X50452380Y-17773809D02*
X49452380Y-17773809D01*
X49452380Y-17392857D01*
X49500000Y-17297619D01*
X49547619Y-17250000D01*
X49642857Y-17202380D01*
X49785714Y-17202380D01*
X49880952Y-17250000D01*
X49928571Y-17297619D01*
X49976190Y-17392857D01*
X49976190Y-17773809D01*
X49928571Y-16773809D02*
X49928571Y-16440476D01*
X50452380Y-16297619D02*
X50452380Y-16773809D01*
X49452380Y-16773809D01*
X49452380Y-16297619D01*
X50404761Y-15916666D02*
X50452380Y-15773809D01*
X50452380Y-15535714D01*
X50404761Y-15440476D01*
X50357142Y-15392857D01*
X50261904Y-15345238D01*
X50166666Y-15345238D01*
X50071428Y-15392857D01*
X50023809Y-15440476D01*
X49976190Y-15535714D01*
X49928571Y-15726190D01*
X49880952Y-15821428D01*
X49833333Y-15869047D01*
X49738095Y-15916666D01*
X49642857Y-15916666D01*
X49547619Y-15869047D01*
X49500000Y-15821428D01*
X49452380Y-15726190D01*
X49452380Y-15488095D01*
X49500000Y-15345238D01*
X49928571Y-14916666D02*
X49928571Y-14583333D01*
X50452380Y-14440476D02*
X50452380Y-14916666D01*
X49452380Y-14916666D01*
X49452380Y-14440476D01*
X49452380Y-14154761D02*
X49452380Y-13583333D01*
X50452380Y-13869047D02*
X49452380Y-13869047D01*
%TO.C,SWe1*%
X-58911904Y38806538D02*
X-58769047Y38758919D01*
X-58530952Y38758919D01*
X-58435714Y38806538D01*
X-58388095Y38854157D01*
X-58340476Y38949395D01*
X-58340476Y39044633D01*
X-58388095Y39139871D01*
X-58435714Y39187490D01*
X-58530952Y39235109D01*
X-58721428Y39282728D01*
X-58816666Y39330347D01*
X-58864285Y39377966D01*
X-58911904Y39473204D01*
X-58911904Y39568442D01*
X-58864285Y39663680D01*
X-58816666Y39711300D01*
X-58721428Y39758919D01*
X-58483333Y39758919D01*
X-58340476Y39711300D01*
X-58007142Y39758919D02*
X-57769047Y38758919D01*
X-57578571Y39473204D01*
X-57388095Y38758919D01*
X-57150000Y39758919D01*
X-56388095Y38806538D02*
X-56483333Y38758919D01*
X-56673809Y38758919D01*
X-56769047Y38806538D01*
X-56816666Y38901776D01*
X-56816666Y39282728D01*
X-56769047Y39377966D01*
X-56673809Y39425585D01*
X-56483333Y39425585D01*
X-56388095Y39377966D01*
X-56340476Y39282728D01*
X-56340476Y39187490D01*
X-56816666Y39092252D01*
X-55388095Y38758919D02*
X-55959523Y38758919D01*
X-55673809Y38758919D02*
X-55673809Y39758919D01*
X-55769047Y39616061D01*
X-55864285Y39520823D01*
X-55959523Y39473204D01*
%TO.C,Db5*%
X35557619Y-46043904D02*
X35557619Y-45243904D01*
X35748095Y-45243904D01*
X35862380Y-45282000D01*
X35938571Y-45358190D01*
X35976666Y-45434380D01*
X36014761Y-45586761D01*
X36014761Y-45701047D01*
X35976666Y-45853428D01*
X35938571Y-45929619D01*
X35862380Y-46005809D01*
X35748095Y-46043904D01*
X35557619Y-46043904D01*
X36357619Y-46043904D02*
X36357619Y-45243904D01*
X36357619Y-45548666D02*
X36433809Y-45510571D01*
X36586190Y-45510571D01*
X36662380Y-45548666D01*
X36700476Y-45586761D01*
X36738571Y-45662952D01*
X36738571Y-45891523D01*
X36700476Y-45967714D01*
X36662380Y-46005809D01*
X36586190Y-46043904D01*
X36433809Y-46043904D01*
X36357619Y-46005809D01*
X37462380Y-45243904D02*
X37081428Y-45243904D01*
X37043333Y-45624857D01*
X37081428Y-45586761D01*
X37157619Y-45548666D01*
X37348095Y-45548666D01*
X37424285Y-45586761D01*
X37462380Y-45624857D01*
X37500476Y-45701047D01*
X37500476Y-45891523D01*
X37462380Y-45967714D01*
X37424285Y-46005809D01*
X37348095Y-46043904D01*
X37157619Y-46043904D01*
X37081428Y-46005809D01*
X37043333Y-45967714D01*
%TO.C,Df4*%
X-81096547Y25356095D02*
X-81096547Y26156095D01*
X-80906071Y26156095D01*
X-80791785Y26118000D01*
X-80715595Y26041809D01*
X-80677500Y25965619D01*
X-80639404Y25813238D01*
X-80639404Y25698952D01*
X-80677500Y25546571D01*
X-80715595Y25470380D01*
X-80791785Y25394190D01*
X-80906071Y25356095D01*
X-81096547Y25356095D01*
X-80410833Y25889428D02*
X-80106071Y25889428D01*
X-80296547Y25356095D02*
X-80296547Y26041809D01*
X-80258452Y26118000D01*
X-80182261Y26156095D01*
X-80106071Y26156095D01*
X-79496547Y25889428D02*
X-79496547Y25356095D01*
X-79687023Y26194190D02*
X-79877500Y25622761D01*
X-79382261Y25622761D01*
%TO.C,Dc1*%
X2706666Y54120095D02*
X2706666Y54920095D01*
X2897142Y54920095D01*
X3011428Y54882000D01*
X3087619Y54805809D01*
X3125714Y54729619D01*
X3163809Y54577238D01*
X3163809Y54462952D01*
X3125714Y54310571D01*
X3087619Y54234380D01*
X3011428Y54158190D01*
X2897142Y54120095D01*
X2706666Y54120095D01*
X3849523Y54158190D02*
X3773333Y54120095D01*
X3620952Y54120095D01*
X3544761Y54158190D01*
X3506666Y54196285D01*
X3468571Y54272476D01*
X3468571Y54501047D01*
X3506666Y54577238D01*
X3544761Y54615333D01*
X3620952Y54653428D01*
X3773333Y54653428D01*
X3849523Y54615333D01*
X4611428Y54120095D02*
X4154285Y54120095D01*
X4382857Y54120095D02*
X4382857Y54920095D01*
X4306666Y54805809D01*
X4230476Y54729619D01*
X4154285Y54691523D01*
%TO.C,SWf4*%
X-77819047Y-18343561D02*
X-77676190Y-18391180D01*
X-77438095Y-18391180D01*
X-77342857Y-18343561D01*
X-77295238Y-18295942D01*
X-77247619Y-18200704D01*
X-77247619Y-18105466D01*
X-77295238Y-18010228D01*
X-77342857Y-17962609D01*
X-77438095Y-17914990D01*
X-77628571Y-17867371D01*
X-77723809Y-17819752D01*
X-77771428Y-17772133D01*
X-77819047Y-17676895D01*
X-77819047Y-17581657D01*
X-77771428Y-17486419D01*
X-77723809Y-17438800D01*
X-77628571Y-17391180D01*
X-77390476Y-17391180D01*
X-77247619Y-17438800D01*
X-76914285Y-17391180D02*
X-76676190Y-18391180D01*
X-76485714Y-17676895D01*
X-76295238Y-18391180D01*
X-76057142Y-17391180D01*
X-75819047Y-17724514D02*
X-75438095Y-17724514D01*
X-75676190Y-18391180D02*
X-75676190Y-17534038D01*
X-75628571Y-17438800D01*
X-75533333Y-17391180D01*
X-75438095Y-17391180D01*
X-74676190Y-17724514D02*
X-74676190Y-18391180D01*
X-74914285Y-17343561D02*
X-75152380Y-18057847D01*
X-74533333Y-18057847D01*
%TO.C,SWd3*%
X-39885714Y7850238D02*
X-39742857Y7802619D01*
X-39504761Y7802619D01*
X-39409523Y7850238D01*
X-39361904Y7897857D01*
X-39314285Y7993095D01*
X-39314285Y8088333D01*
X-39361904Y8183571D01*
X-39409523Y8231190D01*
X-39504761Y8278809D01*
X-39695238Y8326428D01*
X-39790476Y8374047D01*
X-39838095Y8421666D01*
X-39885714Y8516904D01*
X-39885714Y8612142D01*
X-39838095Y8707380D01*
X-39790476Y8755000D01*
X-39695238Y8802619D01*
X-39457142Y8802619D01*
X-39314285Y8755000D01*
X-38980952Y8802619D02*
X-38742857Y7802619D01*
X-38552380Y8516904D01*
X-38361904Y7802619D01*
X-38123809Y8802619D01*
X-37314285Y7802619D02*
X-37314285Y8802619D01*
X-37314285Y7850238D02*
X-37409523Y7802619D01*
X-37600000Y7802619D01*
X-37695238Y7850238D01*
X-37742857Y7897857D01*
X-37790476Y7993095D01*
X-37790476Y8278809D01*
X-37742857Y8374047D01*
X-37695238Y8421666D01*
X-37600000Y8469285D01*
X-37409523Y8469285D01*
X-37314285Y8421666D01*
X-36933333Y8802619D02*
X-36314285Y8802619D01*
X-36647619Y8421666D01*
X-36504761Y8421666D01*
X-36409523Y8374047D01*
X-36361904Y8326428D01*
X-36314285Y8231190D01*
X-36314285Y7993095D01*
X-36361904Y7897857D01*
X-36409523Y7850238D01*
X-36504761Y7802619D01*
X-36790476Y7802619D01*
X-36885714Y7850238D01*
X-36933333Y7897857D01*
D11*
%TO.C,J1*%
X54155615Y46496100D02*
X54498899Y46496100D01*
X54567556Y46473215D01*
X54613327Y46427443D01*
X54636213Y46358786D01*
X54636213Y46313015D01*
X54636213Y46976698D02*
X54636213Y46702071D01*
X54636213Y46839384D02*
X54155615Y46839384D01*
X54224272Y46793613D01*
X54270043Y46747842D01*
X54292929Y46702071D01*
D10*
%TO.C,C3*%
X55723333Y37452857D02*
X55675714Y37405238D01*
X55532857Y37357619D01*
X55437619Y37357619D01*
X55294761Y37405238D01*
X55199523Y37500476D01*
X55151904Y37595714D01*
X55104285Y37786190D01*
X55104285Y37929047D01*
X55151904Y38119523D01*
X55199523Y38214761D01*
X55294761Y38310000D01*
X55437619Y38357619D01*
X55532857Y38357619D01*
X55675714Y38310000D01*
X55723333Y38262380D01*
X56056666Y38357619D02*
X56675714Y38357619D01*
X56342380Y37976666D01*
X56485238Y37976666D01*
X56580476Y37929047D01*
X56628095Y37881428D01*
X56675714Y37786190D01*
X56675714Y37548095D01*
X56628095Y37452857D01*
X56580476Y37405238D01*
X56485238Y37357619D01*
X56199523Y37357619D01*
X56104285Y37405238D01*
X56056666Y37452857D01*
%TO.C,F1*%
X44647866Y38915128D02*
X44314533Y38915128D01*
X44314533Y38391319D02*
X44314533Y39391319D01*
X44790723Y39391319D01*
X45695485Y38391319D02*
X45124057Y38391319D01*
X45409771Y38391319D02*
X45409771Y39391319D01*
X45314533Y39248461D01*
X45219295Y39153223D01*
X45124057Y39105604D01*
%TO.C,SWc5*%
X11902510Y-40756495D02*
X12029604Y-40837260D01*
X12260626Y-40894860D01*
X12364556Y-40871696D01*
X12422280Y-40837011D01*
X12491525Y-40756122D01*
X12514565Y-40663713D01*
X12491401Y-40559784D01*
X12456716Y-40502059D01*
X12375827Y-40432815D01*
X12202529Y-40340530D01*
X12121640Y-40271285D01*
X12086956Y-40213560D01*
X12063791Y-40109631D01*
X12086832Y-40017222D01*
X12156076Y-39936333D01*
X12213801Y-39901648D01*
X12317730Y-39878484D01*
X12548753Y-39936085D01*
X12675846Y-40016849D01*
X13010798Y-40051285D02*
X12999899Y-41079182D01*
X13357519Y-40432194D01*
X13369536Y-41171342D01*
X13842481Y-40258647D01*
X14397556Y-41378580D02*
X14293627Y-41401744D01*
X14108809Y-41355664D01*
X14027920Y-41286419D01*
X13993235Y-41228694D01*
X13970071Y-41124765D01*
X14039191Y-40847538D01*
X14108436Y-40766649D01*
X14166161Y-40731964D01*
X14270090Y-40708800D01*
X14454908Y-40754880D01*
X14535797Y-40824125D01*
X15505845Y-40673370D02*
X15043799Y-40558169D01*
X14882394Y-41008695D01*
X14940118Y-40974010D01*
X15044047Y-40950846D01*
X15275070Y-41008447D01*
X15355959Y-41077691D01*
X15390644Y-41135416D01*
X15413808Y-41239345D01*
X15356208Y-41470368D01*
X15286963Y-41551257D01*
X15229238Y-41585941D01*
X15125309Y-41609106D01*
X14894286Y-41551505D01*
X14813397Y-41482261D01*
X14778713Y-41424536D01*
%TO.C,SWd2*%
X-39885714Y26900238D02*
X-39742857Y26852619D01*
X-39504761Y26852619D01*
X-39409523Y26900238D01*
X-39361904Y26947857D01*
X-39314285Y27043095D01*
X-39314285Y27138333D01*
X-39361904Y27233571D01*
X-39409523Y27281190D01*
X-39504761Y27328809D01*
X-39695238Y27376428D01*
X-39790476Y27424047D01*
X-39838095Y27471666D01*
X-39885714Y27566904D01*
X-39885714Y27662142D01*
X-39838095Y27757380D01*
X-39790476Y27805000D01*
X-39695238Y27852619D01*
X-39457142Y27852619D01*
X-39314285Y27805000D01*
X-38980952Y27852619D02*
X-38742857Y26852619D01*
X-38552380Y27566904D01*
X-38361904Y26852619D01*
X-38123809Y27852619D01*
X-37314285Y26852619D02*
X-37314285Y27852619D01*
X-37314285Y26900238D02*
X-37409523Y26852619D01*
X-37600000Y26852619D01*
X-37695238Y26900238D01*
X-37742857Y26947857D01*
X-37790476Y27043095D01*
X-37790476Y27328809D01*
X-37742857Y27424047D01*
X-37695238Y27471666D01*
X-37600000Y27519285D01*
X-37409523Y27519285D01*
X-37314285Y27471666D01*
X-36885714Y27757380D02*
X-36838095Y27805000D01*
X-36742857Y27852619D01*
X-36504761Y27852619D01*
X-36409523Y27805000D01*
X-36361904Y27757380D01*
X-36314285Y27662142D01*
X-36314285Y27566904D01*
X-36361904Y27424047D01*
X-36933333Y26852619D01*
X-36314285Y26852619D01*
%TO.C,R2*%
X40373333Y33667619D02*
X40040000Y34143809D01*
X39801904Y33667619D02*
X39801904Y34667619D01*
X40182857Y34667619D01*
X40278095Y34620000D01*
X40325714Y34572380D01*
X40373333Y34477142D01*
X40373333Y34334285D01*
X40325714Y34239047D01*
X40278095Y34191428D01*
X40182857Y34143809D01*
X39801904Y34143809D01*
X40754285Y34572380D02*
X40801904Y34620000D01*
X40897142Y34667619D01*
X41135238Y34667619D01*
X41230476Y34620000D01*
X41278095Y34572380D01*
X41325714Y34477142D01*
X41325714Y34381904D01*
X41278095Y34239047D01*
X40706666Y33667619D01*
X41325714Y33667619D01*
%TO.C,R4*%
X45933333Y35357619D02*
X45600000Y35833809D01*
X45361904Y35357619D02*
X45361904Y36357619D01*
X45742857Y36357619D01*
X45838095Y36310000D01*
X45885714Y36262380D01*
X45933333Y36167142D01*
X45933333Y36024285D01*
X45885714Y35929047D01*
X45838095Y35881428D01*
X45742857Y35833809D01*
X45361904Y35833809D01*
X46790476Y36024285D02*
X46790476Y35357619D01*
X46552380Y36405238D02*
X46314285Y35690952D01*
X46933333Y35690952D01*
X46361904Y30764761D02*
X46361904Y30193333D01*
X46361904Y30479047D02*
X45561904Y30479047D01*
X45676190Y30383809D01*
X45752380Y30288571D01*
X45790476Y30193333D01*
X45561904Y31383809D02*
X45561904Y31479047D01*
X45600000Y31574285D01*
X45638095Y31621904D01*
X45714285Y31669523D01*
X45866666Y31717142D01*
X46057142Y31717142D01*
X46209523Y31669523D01*
X46285714Y31621904D01*
X46323809Y31574285D01*
X46361904Y31479047D01*
X46361904Y31383809D01*
X46323809Y31288571D01*
X46285714Y31240952D01*
X46209523Y31193333D01*
X46057142Y31145714D01*
X45866666Y31145714D01*
X45714285Y31193333D01*
X45638095Y31240952D01*
X45600000Y31288571D01*
X45561904Y31383809D01*
X46361904Y32145714D02*
X45561904Y32145714D01*
X46057142Y32240952D02*
X46361904Y32526666D01*
X45828571Y32526666D02*
X46133333Y32145714D01*
%TO.C,Dc3*%
X10156666Y50270095D02*
X10156666Y51070095D01*
X10347142Y51070095D01*
X10461428Y51032000D01*
X10537619Y50955809D01*
X10575714Y50879619D01*
X10613809Y50727238D01*
X10613809Y50612952D01*
X10575714Y50460571D01*
X10537619Y50384380D01*
X10461428Y50308190D01*
X10347142Y50270095D01*
X10156666Y50270095D01*
X11299523Y50308190D02*
X11223333Y50270095D01*
X11070952Y50270095D01*
X10994761Y50308190D01*
X10956666Y50346285D01*
X10918571Y50422476D01*
X10918571Y50651047D01*
X10956666Y50727238D01*
X10994761Y50765333D01*
X11070952Y50803428D01*
X11223333Y50803428D01*
X11299523Y50765333D01*
X11566190Y51070095D02*
X12061428Y51070095D01*
X11794761Y50765333D01*
X11909047Y50765333D01*
X11985238Y50727238D01*
X12023333Y50689142D01*
X12061428Y50612952D01*
X12061428Y50422476D01*
X12023333Y50346285D01*
X11985238Y50308190D01*
X11909047Y50270095D01*
X11680476Y50270095D01*
X11604285Y50308190D01*
X11566190Y50346285D01*
D12*
%TO.C,C2*%
X41352200Y-4576300D02*
X42610200Y-4576300D01*
X41352200Y-2736300D02*
X42610200Y-2736300D01*
%TO.C,Dc5*%
X60000Y-32690000D02*
X1010000Y-32150000D01*
X70000Y-32700000D02*
X980000Y-33230000D01*
X-1060000Y-33700000D02*
X1910000Y-33700000D01*
X-1330000Y-32690000D02*
X-50000Y-32690000D01*
X-1070000Y-33700000D02*
X-1070000Y-31700000D01*
X-40000Y-33230000D02*
X-40000Y-32150000D01*
X-1070000Y-31700000D02*
X1920000Y-31710000D01*
X1010000Y-33230000D02*
X1010000Y-32150000D01*
X2130000Y-32690000D02*
X1010000Y-32690000D01*
X1920000Y-33700000D02*
X1920000Y-31710000D01*
%TO.C,Y1*%
X44006200Y383700D02*
X44006200Y6783700D01*
X38956200Y383700D02*
X38956200Y6783700D01*
X44006200Y6783700D02*
G75*
G03*
X38956200Y6783700I-2525000J0D01*
G01*
X38956200Y383700D02*
G75*
G03*
X44006200Y383700I2525000J0D01*
G01*
D10*
%TO.C,SWa3*%
X12050000Y-9381300D02*
X12050000Y-8381300D01*
X25050000Y-9381300D02*
X26050000Y-9381300D01*
X12050000Y3618700D02*
X12050000Y4618700D01*
X26050000Y4618700D02*
X25050000Y4618700D01*
X13050000Y4618700D02*
X12050000Y4618700D01*
X26050000Y4618700D02*
X26050000Y3618700D01*
X12050000Y-9381300D02*
X13050000Y-9381300D01*
X26050000Y-8381300D02*
X26050000Y-9381300D01*
%TO.C,SWa5*%
X58087128Y-70538200D02*
X57343983Y-69869070D01*
X47013970Y-61913517D02*
X47683100Y-61170372D01*
X49388430Y-80199083D02*
X48719300Y-80942228D01*
X38315272Y-71574400D02*
X39058417Y-72243530D01*
X58087128Y-70538200D02*
X57417997Y-71281345D01*
X38315272Y-71574400D02*
X38984403Y-70831255D01*
X47976155Y-80273097D02*
X48719300Y-80942228D01*
X48426245Y-61839503D02*
X47683100Y-61170372D01*
D12*
%TO.C,Da1*%
X35130000Y27390000D02*
X33850000Y27390000D01*
X32790000Y27930000D02*
X32790000Y26850000D01*
X33840000Y27930000D02*
X33840000Y26850000D01*
X31880000Y28400000D02*
X31880000Y26410000D01*
X34860000Y28400000D02*
X31890000Y28400000D01*
X33740000Y27390000D02*
X32790000Y26850000D01*
X34870000Y28400000D02*
X34870000Y26400000D01*
X33730000Y27400000D02*
X32820000Y27930000D01*
X31670000Y27390000D02*
X32790000Y27390000D01*
X34870000Y26400000D02*
X31880000Y26410000D01*
D10*
%TO.C,SWf2*%
X-69200000Y5906300D02*
X-69200000Y4906300D01*
X-69200000Y18906300D02*
X-70200000Y18906300D01*
X-83200000Y17906300D02*
X-83200000Y18906300D01*
X-83200000Y4906300D02*
X-82200000Y4906300D01*
X-69200000Y18906300D02*
X-69200000Y17906300D01*
X-70200000Y4906300D02*
X-69200000Y4906300D01*
X-82200000Y18906300D02*
X-83200000Y18906300D01*
X-83200000Y4906300D02*
X-83200000Y5906300D01*
%TO.C,SWc2*%
X-12050000Y33193800D02*
X-13050000Y33193800D01*
X-26050000Y32193800D02*
X-26050000Y33193800D01*
X-25050000Y33193800D02*
X-26050000Y33193800D01*
X-26050000Y19193800D02*
X-25050000Y19193800D01*
X-12050000Y33193800D02*
X-12050000Y32193800D01*
X-26050000Y19193800D02*
X-26050000Y20193800D01*
X-13050000Y19193800D02*
X-12050000Y19193800D01*
X-12050000Y20193800D02*
X-12050000Y19193800D01*
%TO.C,SWd1*%
X-45100000Y31100000D02*
X-45100000Y32100000D01*
X-32100000Y31100000D02*
X-31100000Y31100000D01*
X-45100000Y44100000D02*
X-45100000Y45100000D01*
X-31100000Y45100000D02*
X-32100000Y45100000D01*
X-45100000Y31100000D02*
X-44100000Y31100000D01*
X-44100000Y45100000D02*
X-45100000Y45100000D01*
X-31100000Y32100000D02*
X-31100000Y31100000D01*
X-31100000Y45100000D02*
X-31100000Y44100000D01*
%TO.C,SWc3*%
X-12050000Y14143800D02*
X-12050000Y13143800D01*
X-26050000Y13143800D02*
X-26050000Y14143800D01*
X-12050000Y14143800D02*
X-13050000Y14143800D01*
X-26050000Y143800D02*
X-26050000Y1143800D01*
X-26050000Y143800D02*
X-25050000Y143800D01*
X-12050000Y1143800D02*
X-12050000Y143800D01*
X-25050000Y14143800D02*
X-26050000Y14143800D01*
X-13050000Y143800D02*
X-12050000Y143800D01*
D12*
%TO.C,DZ2*%
X39580000Y47030000D02*
X39580000Y50000000D01*
X39580000Y50010000D02*
X37590000Y50010000D01*
X37580000Y47020000D02*
X37590000Y50010000D01*
X39580000Y47020000D02*
X37580000Y47020000D01*
X38570000Y50220000D02*
X38570000Y49100000D01*
X38570000Y46760000D02*
X38570000Y48040000D01*
X38580000Y48160000D02*
X39110000Y49070000D01*
X39110000Y49100000D02*
X38030000Y49100000D01*
X38570000Y48150000D02*
X38030000Y49100000D01*
X39110000Y48050000D02*
X38030000Y48050000D01*
%TO.C,De2*%
X-64470000Y43950000D02*
X-64470000Y45950000D01*
X-63330000Y44950000D02*
X-62420000Y44420000D01*
X-62390000Y44420000D02*
X-62390000Y45500000D01*
X-64730000Y44960000D02*
X-63450000Y44960000D01*
X-61270000Y44960000D02*
X-62390000Y44960000D01*
X-64460000Y43950000D02*
X-61490000Y43950000D01*
X-63340000Y44960000D02*
X-62390000Y45500000D01*
X-61480000Y43950000D02*
X-61480000Y45940000D01*
X-63440000Y44420000D02*
X-63440000Y45500000D01*
X-64470000Y45950000D02*
X-61480000Y45940000D01*
D10*
%TO.C,SWe3*%
X-64150000Y-14143800D02*
X-63150000Y-14143800D01*
X-64150000Y-14143800D02*
X-64150000Y-13143800D01*
X-50150000Y-13143800D02*
X-50150000Y-14143800D01*
X-51150000Y-14143800D02*
X-50150000Y-14143800D01*
X-64150000Y-1143800D02*
X-64150000Y-143800D01*
X-50150000Y-143800D02*
X-51150000Y-143800D01*
X-50150000Y-143800D02*
X-50150000Y-1143800D01*
X-63150000Y-143800D02*
X-64150000Y-143800D01*
D12*
%TO.C,U1*%
X52391200Y27002500D02*
X50741200Y27002500D01*
X44601200Y-10007500D02*
X54881200Y-10007500D01*
X54881200Y27062500D02*
X44601200Y27062500D01*
X48741200Y27002500D02*
X47091200Y27002500D01*
X54881200Y-10007500D02*
X54881200Y27062500D01*
X44601200Y27062500D02*
X44601200Y-10007500D01*
X47091200Y27002500D02*
X47091200Y-9947500D01*
X52391200Y-9947500D02*
X52391200Y27002500D01*
X47091200Y-9947500D02*
X52391200Y-9947500D01*
X48741200Y27002500D02*
G75*
G03*
X50741200Y27002500I1000000J0D01*
G01*
X47834200Y26434500D02*
G75*
G03*
X47834200Y26434500I-125000J0D01*
G01*
X47909200Y26434500D02*
G75*
G03*
X47909200Y26434500I-200000J0D01*
G01*
X47759200Y26434500D02*
G75*
G03*
X47759200Y26434500I-50000J0D01*
G01*
%TO.C,Da4*%
X34477500Y-18970000D02*
X34477500Y-20050000D01*
X32517500Y-18500000D02*
X32517500Y-20490000D01*
X35497500Y-18500000D02*
X32527500Y-18500000D01*
X35507500Y-20500000D02*
X32517500Y-20490000D01*
X33427500Y-18970000D02*
X33427500Y-20050000D01*
X34377500Y-19510000D02*
X33427500Y-20050000D01*
X35507500Y-18500000D02*
X35507500Y-20500000D01*
X32307500Y-19510000D02*
X33427500Y-19510000D01*
X34367500Y-19500000D02*
X33457500Y-18970000D01*
X35767500Y-19510000D02*
X34487500Y-19510000D01*
%TO.C,De1*%
X-60057500Y52460000D02*
X-61177500Y52460000D01*
X-61177500Y51920000D02*
X-61177500Y53000000D01*
X-63517500Y52460000D02*
X-62237500Y52460000D01*
X-63257500Y51450000D02*
X-63257500Y53450000D01*
X-62227500Y51920000D02*
X-62227500Y53000000D01*
X-60267500Y51450000D02*
X-60267500Y53440000D01*
X-63247500Y51450000D02*
X-60277500Y51450000D01*
X-63257500Y53450000D02*
X-60267500Y53440000D01*
X-62127500Y52460000D02*
X-61177500Y53000000D01*
X-62117500Y52450000D02*
X-61207500Y51920000D01*
D10*
%TO.C,SWc4*%
X-25050000Y-4906300D02*
X-26050000Y-4906300D01*
X-26050000Y-18906300D02*
X-26050000Y-17906300D01*
X-26050000Y-5906300D02*
X-26050000Y-4906300D01*
X-12050000Y-4906300D02*
X-12050000Y-5906300D01*
X-26050000Y-18906300D02*
X-25050000Y-18906300D01*
X-12050000Y-4906300D02*
X-13050000Y-4906300D01*
X-13050000Y-18906300D02*
X-12050000Y-18906300D01*
X-12050000Y-17906300D02*
X-12050000Y-18906300D01*
%TO.C,SWe2*%
X-50150000Y18906300D02*
X-50150000Y17906300D01*
X-64150000Y4906300D02*
X-64150000Y5906300D01*
X-51150000Y4906300D02*
X-50150000Y4906300D01*
X-64150000Y4906300D02*
X-63150000Y4906300D01*
X-64150000Y17906300D02*
X-64150000Y18906300D01*
X-50150000Y18906300D02*
X-51150000Y18906300D01*
X-50150000Y5906300D02*
X-50150000Y4906300D01*
X-63150000Y18906300D02*
X-64150000Y18906300D01*
D12*
%TO.C,Da3*%
X35786300Y-4510000D02*
X34506300Y-4510000D01*
X34386300Y-4500000D02*
X33476300Y-3970000D01*
X34396300Y-4510000D02*
X33446300Y-5050000D01*
X32536300Y-3500000D02*
X32536300Y-5490000D01*
X33446300Y-3970000D02*
X33446300Y-5050000D01*
X35516300Y-3500000D02*
X32546300Y-3500000D01*
X34496300Y-3970000D02*
X34496300Y-5050000D01*
X35526300Y-5500000D02*
X32536300Y-5490000D01*
X35526300Y-3500000D02*
X35526300Y-5500000D01*
X32326300Y-4510000D02*
X33446300Y-4510000D01*
D10*
%TO.C,SWd5*%
X-2525000Y-51243800D02*
X-2525000Y-52243800D01*
X-16525000Y-52243800D02*
X-15525000Y-52243800D01*
X-2525000Y-38243800D02*
X-3525000Y-38243800D01*
X-2525000Y-38243800D02*
X-2525000Y-39243800D01*
X-16525000Y-39243800D02*
X-16525000Y-38243800D01*
X-16525000Y-52243800D02*
X-16525000Y-51243800D01*
X-15525000Y-38243800D02*
X-16525000Y-38243800D01*
X-3525000Y-52243800D02*
X-2525000Y-52243800D01*
D12*
%TO.C,De3*%
X-68530000Y39450000D02*
X-68530000Y41440000D01*
X-71520000Y39450000D02*
X-71520000Y41450000D01*
X-69440000Y39920000D02*
X-69440000Y41000000D01*
X-70490000Y39920000D02*
X-70490000Y41000000D01*
X-70390000Y40460000D02*
X-69440000Y41000000D01*
X-71520000Y41450000D02*
X-68530000Y41440000D01*
X-71780000Y40460000D02*
X-70500000Y40460000D01*
X-68320000Y40460000D02*
X-69440000Y40460000D01*
X-71510000Y39450000D02*
X-68540000Y39450000D01*
X-70380000Y40450000D02*
X-69470000Y39920000D01*
D10*
%TO.C,SWa4*%
X12050000Y-28431300D02*
X13050000Y-28431300D01*
X26050000Y-27431300D02*
X26050000Y-28431300D01*
X25050000Y-28431300D02*
X26050000Y-28431300D01*
X12050000Y-28431300D02*
X12050000Y-27431300D01*
X13050000Y-14431300D02*
X12050000Y-14431300D01*
X12050000Y-15431300D02*
X12050000Y-14431300D01*
X26050000Y-14431300D02*
X25050000Y-14431300D01*
X26050000Y-14431300D02*
X26050000Y-15431300D01*
%TO.C,SWb1*%
X-7000000Y31100000D02*
X-6000000Y31100000D01*
X-7000000Y44100000D02*
X-7000000Y45100000D01*
X7000000Y45100000D02*
X7000000Y44100000D01*
X7000000Y32100000D02*
X7000000Y31100000D01*
X6000000Y31100000D02*
X7000000Y31100000D01*
X7000000Y45100000D02*
X6000000Y45100000D01*
X-7000000Y31100000D02*
X-7000000Y32100000D01*
X-6000000Y45100000D02*
X-7000000Y45100000D01*
%TO.C,SWb2*%
X-7000000Y12050000D02*
X-6000000Y12050000D01*
X6000000Y12050000D02*
X7000000Y12050000D01*
X-7000000Y25050000D02*
X-7000000Y26050000D01*
X7000000Y26050000D02*
X7000000Y25050000D01*
X-7000000Y12050000D02*
X-7000000Y13050000D01*
X-6000000Y26050000D02*
X-7000000Y26050000D01*
X7000000Y26050000D02*
X6000000Y26050000D01*
X7000000Y13050000D02*
X7000000Y12050000D01*
D12*
%TO.C,De4*%
X-71690000Y31470000D02*
X-71690000Y32550000D01*
X-69520000Y32010000D02*
X-70640000Y32010000D01*
X-71590000Y32010000D02*
X-70640000Y32550000D01*
X-70640000Y31470000D02*
X-70640000Y32550000D01*
X-72720000Y33000000D02*
X-69730000Y32990000D01*
X-69730000Y31000000D02*
X-69730000Y32990000D01*
X-71580000Y32000000D02*
X-70670000Y31470000D01*
X-72980000Y32010000D02*
X-71700000Y32010000D01*
X-72710000Y31000000D02*
X-69740000Y31000000D01*
X-72720000Y31000000D02*
X-72720000Y33000000D01*
%TO.C,C4*%
X41911200Y13323700D02*
X41911200Y17863700D01*
X44036200Y13323700D02*
X44051200Y13323700D01*
X41911200Y13323700D02*
X41926200Y13323700D01*
X41911200Y17863700D02*
X41926200Y17863700D01*
X44051200Y13323700D02*
X44051200Y17863700D01*
X44036200Y17863700D02*
X44051200Y17863700D01*
D10*
%TO.C,SWa2*%
X12050000Y22668800D02*
X12050000Y23668800D01*
X12050000Y9668800D02*
X13050000Y9668800D01*
X26050000Y23668800D02*
X25050000Y23668800D01*
X26050000Y23668800D02*
X26050000Y22668800D01*
X26050000Y10668800D02*
X26050000Y9668800D01*
X13050000Y23668800D02*
X12050000Y23668800D01*
X25050000Y9668800D02*
X26050000Y9668800D01*
X12050000Y9668800D02*
X12050000Y10668800D01*
D12*
%TO.C,Db2*%
X33776300Y2500000D02*
X30786300Y2510000D01*
X32646300Y3490000D02*
X31696300Y2950000D01*
X33776300Y4500000D02*
X33776300Y2500000D01*
X33766300Y4500000D02*
X30796300Y4500000D01*
X31696300Y4030000D02*
X31696300Y2950000D01*
X32636300Y3500000D02*
X31726300Y4030000D01*
X34036300Y3490000D02*
X32756300Y3490000D01*
X30576300Y3490000D02*
X31696300Y3490000D01*
X30786300Y4500000D02*
X30786300Y2510000D01*
X32746300Y4030000D02*
X32746300Y2950000D01*
D10*
%TO.C,SWf3*%
X-83200000Y-1143800D02*
X-83200000Y-143800D01*
X-69200000Y-143800D02*
X-70200000Y-143800D01*
X-83200000Y-14143800D02*
X-82200000Y-14143800D01*
X-83200000Y-14143800D02*
X-83200000Y-13143800D01*
X-69200000Y-143800D02*
X-69200000Y-1143800D01*
X-70200000Y-14143800D02*
X-69200000Y-14143800D01*
X-69200000Y-13143800D02*
X-69200000Y-14143800D01*
X-82200000Y-143800D02*
X-83200000Y-143800D01*
%TO.C,SWd4*%
X-45100000Y-26050000D02*
X-44100000Y-26050000D01*
X-31100000Y-12050000D02*
X-31100000Y-13050000D01*
X-45100000Y-13050000D02*
X-45100000Y-12050000D01*
X-31100000Y-12050000D02*
X-32100000Y-12050000D01*
X-45100000Y-26050000D02*
X-45100000Y-25050000D01*
X-32100000Y-26050000D02*
X-31100000Y-26050000D01*
X-31100000Y-25050000D02*
X-31100000Y-26050000D01*
X-44100000Y-12050000D02*
X-45100000Y-12050000D01*
D12*
%TO.C,Db4*%
X32617500Y-26750000D02*
X31707500Y-26220000D01*
X32727500Y-26220000D02*
X32727500Y-27300000D01*
X33747500Y-25750000D02*
X30777500Y-25750000D01*
X30767500Y-25750000D02*
X30767500Y-27740000D01*
X33757500Y-27750000D02*
X30767500Y-27740000D01*
X33757500Y-25750000D02*
X33757500Y-27750000D01*
X30557500Y-26760000D02*
X31677500Y-26760000D01*
X32627500Y-26760000D02*
X31677500Y-27300000D01*
X34017500Y-26760000D02*
X32737500Y-26760000D01*
X31677500Y-26220000D02*
X31677500Y-27300000D01*
%TO.C,R1*%
X40720000Y50360000D02*
X40720000Y46520000D01*
X42560000Y50360000D02*
X42560000Y46520000D01*
%TO.C,DZ1*%
X25530000Y50872500D02*
X24450000Y50872500D01*
X24000000Y49842500D02*
X24010000Y52832500D01*
X26000000Y49852500D02*
X26000000Y52822500D01*
X25530000Y51922500D02*
X24450000Y51922500D01*
X26000000Y49842500D02*
X24000000Y49842500D01*
X24990000Y50972500D02*
X24450000Y51922500D01*
X24990000Y53042500D02*
X24990000Y51922500D01*
X24990000Y49582500D02*
X24990000Y50862500D01*
X26000000Y52832500D02*
X24010000Y52832500D01*
X25000000Y50982500D02*
X25530000Y51892500D01*
D10*
%TO.C,SWb4*%
X-6000000Y-12050000D02*
X-7000000Y-12050000D01*
X7000000Y-12050000D02*
X7000000Y-13050000D01*
X-7000000Y-13050000D02*
X-7000000Y-12050000D01*
X6000000Y-26050000D02*
X7000000Y-26050000D01*
X7000000Y-25050000D02*
X7000000Y-26050000D01*
X-7000000Y-26050000D02*
X-7000000Y-25050000D01*
X-7000000Y-26050000D02*
X-6000000Y-26050000D01*
X7000000Y-12050000D02*
X6000000Y-12050000D01*
%TO.C,G\u002A\u002A\u002A*%
G36*
X47834523Y-39385700D02*
G01*
X47857532Y-39286386D01*
X47919643Y-39037929D01*
X47981973Y-38841500D01*
X48047300Y-38690044D01*
X48118403Y-38576505D01*
X48152913Y-38536019D01*
X48253852Y-38458783D01*
X48354570Y-38436821D01*
X48452232Y-38466326D01*
X48544005Y-38543490D01*
X48627054Y-38664508D01*
X48698544Y-38825572D01*
X48755642Y-39022874D01*
X48795511Y-39252609D01*
X48810996Y-39419902D01*
X48829322Y-39712155D01*
X49319899Y-39695886D01*
X49507164Y-39687876D01*
X49695063Y-39676689D01*
X49866358Y-39663561D01*
X50003813Y-39649730D01*
X50051568Y-39643377D01*
X50170465Y-39624296D01*
X50243358Y-39607095D01*
X50282873Y-39585949D01*
X50301640Y-39555031D01*
X50309179Y-39524533D01*
X50353479Y-39446623D01*
X50453632Y-39367396D01*
X50606449Y-39288939D01*
X50759056Y-39230000D01*
X50868123Y-39197660D01*
X51022559Y-39159179D01*
X51209258Y-39117254D01*
X51415114Y-39074580D01*
X51627021Y-39033854D01*
X51831873Y-38997772D01*
X52016565Y-38969030D01*
X52050349Y-38964344D01*
X52165253Y-38946779D01*
X52253726Y-38929409D01*
X52302587Y-38915001D01*
X52308140Y-38910217D01*
X52291418Y-38874273D01*
X52263786Y-38833696D01*
X52223344Y-38741948D01*
X52237015Y-38655410D01*
X52295661Y-38591787D01*
X52391491Y-38558157D01*
X52536566Y-38550877D01*
X52731407Y-38570051D01*
X52976535Y-38615786D01*
X53272468Y-38688184D01*
X53619728Y-38787352D01*
X54018834Y-38913395D01*
X54216298Y-38979184D01*
X54557681Y-39096253D01*
X54866571Y-39205596D01*
X55139631Y-39305886D01*
X55373525Y-39395796D01*
X55564918Y-39473999D01*
X55710475Y-39539168D01*
X55806861Y-39589975D01*
X55850739Y-39625094D01*
X55852982Y-39630413D01*
X55856725Y-39650457D01*
X55854750Y-39663905D01*
X55840660Y-39668857D01*
X55808057Y-39663413D01*
X55750541Y-39645674D01*
X55661715Y-39613740D01*
X55535181Y-39565711D01*
X55364540Y-39499687D01*
X55208414Y-39439022D01*
X54774961Y-39274633D01*
X54364385Y-39126920D01*
X53980871Y-38997124D01*
X53628607Y-38886486D01*
X53311780Y-38796246D01*
X53034575Y-38727645D01*
X52801179Y-38681925D01*
X52615780Y-38660326D01*
X52576002Y-38658816D01*
X52435771Y-38660355D01*
X52350422Y-38673985D01*
X52316143Y-38704568D01*
X52329119Y-38756971D01*
X52385538Y-38836057D01*
X52412169Y-38867824D01*
X52465936Y-38937139D01*
X52494421Y-38987184D01*
X52494418Y-39003418D01*
X52455168Y-39012909D01*
X52374976Y-39024947D01*
X52279511Y-39036026D01*
X52027364Y-39066586D01*
X51762477Y-39107211D01*
X51496296Y-39155470D01*
X51240269Y-39208930D01*
X51005840Y-39265158D01*
X50804456Y-39321720D01*
X50647564Y-39376185D01*
X50615484Y-39389698D01*
X50492392Y-39451727D01*
X50422244Y-39507473D01*
X50400025Y-39562409D01*
X50413673Y-39609985D01*
X50425605Y-39643129D01*
X50410077Y-39665098D01*
X50356100Y-39683016D01*
X50275271Y-39699715D01*
X50022323Y-39739921D01*
X49718832Y-39773873D01*
X49373146Y-39800703D01*
X49212952Y-39809869D01*
X48822413Y-39829977D01*
X48804405Y-39966705D01*
X48777745Y-40113069D01*
X48734984Y-40286769D01*
X48682264Y-40467012D01*
X48625722Y-40633000D01*
X48571501Y-40763941D01*
X48565257Y-40776678D01*
X48462699Y-40957238D01*
X48340158Y-41136046D01*
X48211197Y-41294819D01*
X48095319Y-41410246D01*
X47961360Y-41524751D01*
X48167557Y-41513099D01*
X48415854Y-41517572D01*
X48663685Y-41555492D01*
X48887278Y-41622825D01*
X48935970Y-41643493D01*
X49026405Y-41688952D01*
X49066981Y-41722115D01*
X49064238Y-41748490D01*
X49062620Y-41750196D01*
X49022851Y-41766508D01*
X48956152Y-41751524D01*
X48916987Y-41735786D01*
X48747171Y-41674736D01*
X48569838Y-41638094D01*
X48364432Y-41622223D01*
X48267652Y-41620875D01*
X48066507Y-41624604D01*
X47908520Y-41637461D01*
X47778081Y-41661953D01*
X47659580Y-41700587D01*
X47592782Y-41729258D01*
X47524641Y-41756005D01*
X47410636Y-41795740D01*
X47261727Y-41845059D01*
X47088872Y-41900562D01*
X46903030Y-41958845D01*
X46715160Y-42016507D01*
X46536221Y-42070147D01*
X46377171Y-42116360D01*
X46248970Y-42151747D01*
X46166065Y-42172166D01*
X46099215Y-42180868D01*
X46072754Y-42164626D01*
X46069965Y-42144554D01*
X46094840Y-42101972D01*
X46155758Y-42061093D01*
X46166065Y-42056548D01*
X46268799Y-42016911D01*
X46414644Y-41964494D01*
X46590140Y-41903759D01*
X46781829Y-41839172D01*
X46976253Y-41775196D01*
X47159953Y-41716294D01*
X47319471Y-41666931D01*
X47441348Y-41631571D01*
X47470776Y-41623796D01*
X47672516Y-41559568D01*
X47845349Y-41472425D01*
X48006339Y-41351744D01*
X48172476Y-41186985D01*
X48335570Y-40974725D01*
X48478265Y-40722508D01*
X48592962Y-40448111D01*
X48672061Y-40169314D01*
X48705854Y-39939139D01*
X48715428Y-39807741D01*
X48464582Y-39789921D01*
X48319490Y-39778556D01*
X48170333Y-39765169D01*
X48047012Y-39752462D01*
X48036321Y-39751224D01*
X47858905Y-39730346D01*
X47785879Y-39976029D01*
X47679135Y-40273524D01*
X47541430Y-40560430D01*
X47380041Y-40824998D01*
X47202244Y-41055477D01*
X47015316Y-41240118D01*
X46990481Y-41260335D01*
X46810362Y-41384061D01*
X46601897Y-41496808D01*
X46389780Y-41586298D01*
X46247380Y-41629749D01*
X46141232Y-41647496D01*
X46000274Y-41660185D01*
X45841974Y-41667446D01*
X45683802Y-41668911D01*
X45543225Y-41664213D01*
X45437714Y-41652981D01*
X45412049Y-41647369D01*
X45353267Y-41619076D01*
X45330733Y-41585828D01*
X45346411Y-41567535D01*
X45398106Y-41553108D01*
X45492810Y-41541440D01*
X45637517Y-41531426D01*
X45692957Y-41528517D01*
X46039388Y-41495039D01*
X46335820Y-41431336D01*
X46583300Y-41337039D01*
X46782878Y-41211779D01*
X46894752Y-41105352D01*
X47001253Y-40957684D01*
X47071900Y-40793456D01*
X47107330Y-40606034D01*
X47108181Y-40388788D01*
X47075087Y-40135085D01*
X47014290Y-39860155D01*
X46933544Y-39542423D01*
X47027891Y-39542423D01*
X47029540Y-39548565D01*
X47057395Y-39635997D01*
X47091356Y-39764183D01*
X47127490Y-39915594D01*
X47161863Y-40072703D01*
X47190542Y-40217984D01*
X47209593Y-40333910D01*
X47213746Y-40369306D01*
X47212311Y-40577683D01*
X47174785Y-40790640D01*
X47114472Y-40960943D01*
X47099639Y-41003372D01*
X47112705Y-41004375D01*
X47147796Y-40971075D01*
X47199041Y-40910592D01*
X47260568Y-40830051D01*
X47326505Y-40736572D01*
X47390980Y-40637279D01*
X47417427Y-40593490D01*
X47500532Y-40436800D01*
X47583689Y-40253547D01*
X47658292Y-40064922D01*
X47715733Y-39892113D01*
X47739120Y-39801442D01*
X47747971Y-39735113D01*
X47727279Y-39703770D01*
X47676207Y-39688307D01*
X47612306Y-39672514D01*
X47508520Y-39644831D01*
X47381768Y-39609825D01*
X47302769Y-39587502D01*
X47169075Y-39550921D01*
X47083813Y-39531944D01*
X47039309Y-39529475D01*
X47027891Y-39542423D01*
X46933544Y-39542423D01*
X46914892Y-39469030D01*
X46672684Y-39352811D01*
X46280835Y-39135511D01*
X45933295Y-38880602D01*
X45629611Y-38587398D01*
X45369333Y-38255210D01*
X45152008Y-37883352D01*
X44977187Y-37471136D01*
X44844417Y-37017875D01*
X44753247Y-36522881D01*
X44738643Y-36407593D01*
X44721062Y-36269150D01*
X44701890Y-36169250D01*
X44673806Y-36087573D01*
X44629487Y-36003801D01*
X44561614Y-35897616D01*
X44546855Y-35875346D01*
X44438657Y-35694520D01*
X44354268Y-35517152D01*
X44297986Y-35354671D01*
X44274109Y-35218510D01*
X44276703Y-35156697D01*
X44282500Y-35112853D01*
X44278273Y-35079430D01*
X44256136Y-35052382D01*
X44208202Y-35027663D01*
X44126583Y-35001228D01*
X44003393Y-34969029D01*
X43830743Y-34927023D01*
X43827421Y-34926221D01*
X43682668Y-34891917D01*
X43580993Y-34870916D01*
X43508083Y-34862259D01*
X43449624Y-34864985D01*
X43391303Y-34878132D01*
X43341127Y-34893588D01*
X43254946Y-34918312D01*
X43194615Y-34930317D01*
X43177551Y-34929258D01*
X43193785Y-34907701D01*
X43251844Y-34862664D01*
X43342251Y-34800078D01*
X43413013Y-34753724D01*
X43593402Y-34753724D01*
X43625259Y-34765650D01*
X43701461Y-34788235D01*
X43808998Y-34817734D01*
X43883917Y-34837391D01*
X44020408Y-34873860D01*
X44149330Y-34910440D01*
X44250315Y-34941271D01*
X44281024Y-34951639D01*
X44399301Y-34993905D01*
X44390661Y-35183128D01*
X44390084Y-35298215D01*
X44404738Y-35391867D01*
X44440700Y-35491858D01*
X44474124Y-35564551D01*
X44542126Y-35692319D01*
X44623684Y-35825889D01*
X44684401Y-35913429D01*
X44740086Y-35990854D01*
X44776833Y-36057008D01*
X44800553Y-36129693D01*
X44817155Y-36226712D01*
X44831650Y-36356968D01*
X44906243Y-36854942D01*
X45025145Y-37313779D01*
X45188417Y-37733582D01*
X45396123Y-38114454D01*
X45648327Y-38456498D01*
X45945091Y-38759818D01*
X46286478Y-39024515D01*
X46572642Y-39198191D01*
X46704466Y-39267389D01*
X46792580Y-39306075D01*
X46843189Y-39315449D01*
X46862497Y-39296714D01*
X46857325Y-39253317D01*
X46814320Y-39080985D01*
X46765314Y-38863837D01*
X46712948Y-38615558D01*
X46659863Y-38349836D01*
X46608699Y-38080358D01*
X46562097Y-37820812D01*
X46522698Y-37584883D01*
X46493141Y-37386259D01*
X46485101Y-37323923D01*
X46468996Y-37194428D01*
X46453943Y-37078628D01*
X46442428Y-36995468D01*
X46439516Y-36976484D01*
X46437228Y-36917959D01*
X46449828Y-36895168D01*
X46481954Y-36912589D01*
X46547863Y-36959168D01*
X46635761Y-37026384D01*
X46678251Y-37060211D01*
X46961626Y-37274275D01*
X47273904Y-37485324D01*
X47599715Y-37684196D01*
X47923689Y-37861728D01*
X48230455Y-38008759D01*
X48361583Y-38063638D01*
X48599530Y-38149045D01*
X48870514Y-38231793D01*
X49148616Y-38304571D01*
X49407918Y-38360067D01*
X49420340Y-38362332D01*
X49636131Y-38390791D01*
X49890043Y-38407516D01*
X50162236Y-38412503D01*
X50432867Y-38405747D01*
X50682095Y-38387243D01*
X50860186Y-38362655D01*
X51029475Y-38327727D01*
X51198453Y-38284979D01*
X51357417Y-38237762D01*
X51496667Y-38189424D01*
X51606502Y-38143315D01*
X51677223Y-38102785D01*
X51699375Y-38072877D01*
X51677734Y-38012548D01*
X51623960Y-37919554D01*
X51545724Y-37804966D01*
X51450699Y-37679858D01*
X51346556Y-37555300D01*
X51320686Y-37526309D01*
X51089873Y-37297204D01*
X50805756Y-37059428D01*
X50473062Y-36815696D01*
X50096518Y-36568725D01*
X49680852Y-36321230D01*
X49230791Y-36075927D01*
X48751063Y-35835533D01*
X48246395Y-35602763D01*
X47721514Y-35380334D01*
X47294960Y-35213442D01*
X46914381Y-35069953D01*
X46669970Y-34531832D01*
X46573028Y-34313308D01*
X46497960Y-34127684D01*
X46442425Y-33962178D01*
X46404081Y-33804007D01*
X46380588Y-33640387D01*
X46369605Y-33458536D01*
X46368790Y-33245670D01*
X46375801Y-32989006D01*
X46377749Y-32936249D01*
X46397217Y-32422148D01*
X46295924Y-32438586D01*
X46113202Y-32492810D01*
X45908701Y-32598661D01*
X45685430Y-32754072D01*
X45446397Y-32956977D01*
X45223571Y-33175074D01*
X45106085Y-33303057D01*
X44971964Y-33459213D01*
X44830206Y-33632070D01*
X44689806Y-33810157D01*
X44559760Y-33982003D01*
X44449065Y-34136136D01*
X44366716Y-34261086D01*
X44350467Y-34288404D01*
X44296692Y-34360758D01*
X44221320Y-34416065D01*
X44111232Y-34466032D01*
X44014190Y-34507890D01*
X43905575Y-34560607D01*
X43797337Y-34617546D01*
X43701429Y-34672066D01*
X43629800Y-34717528D01*
X43594401Y-34747292D01*
X43593402Y-34753724D01*
X43413013Y-34753724D01*
X43455525Y-34725876D01*
X43582188Y-34645991D01*
X43712761Y-34566355D01*
X43837764Y-34492901D01*
X43947718Y-34431561D01*
X44033144Y-34388268D01*
X44061346Y-34376142D01*
X44172648Y-34325409D01*
X44244880Y-34269981D01*
X44294464Y-34200435D01*
X44357390Y-34100132D01*
X44450589Y-33966485D01*
X44565418Y-33810682D01*
X44693236Y-33643911D01*
X44825401Y-33477358D01*
X44953269Y-33322210D01*
X45068200Y-33189655D01*
X45113414Y-33140335D01*
X45397985Y-32860994D01*
X45673688Y-32638563D01*
X45939988Y-32473401D01*
X46196349Y-32365868D01*
X46312939Y-32335404D01*
X46405679Y-32318565D01*
X46472256Y-32311177D01*
X46494798Y-32313424D01*
X46497568Y-32345919D01*
X46497081Y-32427371D01*
X46493606Y-32547704D01*
X46487408Y-32696843D01*
X46481506Y-32814610D01*
X46472131Y-33063484D01*
X46470387Y-33303534D01*
X46476236Y-33515507D01*
X46483211Y-33619368D01*
X46493907Y-33732002D01*
X46506236Y-33825007D01*
X46523819Y-33910151D01*
X46550283Y-33999202D01*
X46589251Y-34103928D01*
X46644348Y-34236099D01*
X46719196Y-34407482D01*
X46741421Y-34457837D01*
X46838930Y-34673002D01*
X46917378Y-34833687D01*
X46977438Y-34941161D01*
X47019783Y-34996696D01*
X47030966Y-35004279D01*
X47075538Y-35022241D01*
X47165992Y-35058113D01*
X47293130Y-35108269D01*
X47447756Y-35169083D01*
X47620674Y-35236929D01*
X47666705Y-35254964D01*
X47929667Y-35362474D01*
X48221038Y-35489429D01*
X48530030Y-35630541D01*
X48845855Y-35780522D01*
X49157725Y-35934086D01*
X49454850Y-36085943D01*
X49726442Y-36230808D01*
X49961713Y-36363392D01*
X50106170Y-36450542D01*
X50520245Y-36725080D01*
X50882579Y-36996355D01*
X51191547Y-37262950D01*
X51445521Y-37523449D01*
X51642876Y-37776436D01*
X51662111Y-37805355D01*
X51750458Y-37941939D01*
X51805340Y-38038854D01*
X51824679Y-38106554D01*
X51806395Y-38155494D01*
X51748408Y-38196127D01*
X51648638Y-38238908D01*
X51569848Y-38269193D01*
X51164025Y-38395353D01*
X50729533Y-38475950D01*
X50275349Y-38511033D01*
X49810452Y-38500645D01*
X49343820Y-38444834D01*
X48884429Y-38343645D01*
X48595134Y-38253968D01*
X48237103Y-38112905D01*
X47860650Y-37934715D01*
X47483536Y-37729046D01*
X47123526Y-37505546D01*
X46816858Y-37288031D01*
X46714681Y-37211000D01*
X46630892Y-37149545D01*
X46575915Y-37111207D01*
X46559986Y-37102153D01*
X46555816Y-37129844D01*
X46562482Y-37207951D01*
X46578611Y-37329027D01*
X46602831Y-37485622D01*
X46633768Y-37670288D01*
X46670050Y-37875579D01*
X46710302Y-38094044D01*
X46753153Y-38318237D01*
X46797229Y-38540708D01*
X46841157Y-38754011D01*
X46883565Y-38950695D01*
X46923078Y-39123314D01*
X46958325Y-39264419D01*
X46959172Y-39267599D01*
X46993019Y-39347997D01*
X47038408Y-39403712D01*
X47046762Y-39409097D01*
X47096121Y-39428297D01*
X47183961Y-39456038D01*
X47297006Y-39488791D01*
X47421979Y-39523023D01*
X47545605Y-39555204D01*
X47654607Y-39581802D01*
X47735710Y-39599285D01*
X47775638Y-39604124D01*
X47777376Y-39603434D01*
X47787823Y-39572054D01*
X47788442Y-39569690D01*
X47903684Y-39569690D01*
X47906382Y-39622640D01*
X47914524Y-39632533D01*
X47973847Y-39645907D01*
X48075514Y-39660877D01*
X48202830Y-39675645D01*
X48339098Y-39688416D01*
X48467622Y-39697394D01*
X48546391Y-39700508D01*
X48731199Y-39704249D01*
X48730167Y-39549010D01*
X48717685Y-39349684D01*
X48685268Y-39150263D01*
X48636564Y-38961758D01*
X48575220Y-38795181D01*
X48504881Y-38661545D01*
X48429196Y-38571861D01*
X48399870Y-38551638D01*
X48345213Y-38526878D01*
X48303879Y-38532137D01*
X48252059Y-38573048D01*
X48232983Y-38591126D01*
X48158522Y-38687044D01*
X48089311Y-38828832D01*
X48023710Y-39020673D01*
X47960080Y-39266750D01*
X47949209Y-39314870D01*
X47917811Y-39468457D01*
X47903684Y-39569690D01*
X47788442Y-39569690D01*
X47807918Y-39495341D01*
X47834523Y-39385700D01*
G37*
%TO.C,SWe4*%
X-50150000Y-19193800D02*
X-50150000Y-20193800D01*
X-50150000Y-32193800D02*
X-50150000Y-33193800D01*
X-64150000Y-33193800D02*
X-63150000Y-33193800D01*
X-51150000Y-33193800D02*
X-50150000Y-33193800D01*
X-50150000Y-19193800D02*
X-51150000Y-19193800D01*
X-64150000Y-20193800D02*
X-64150000Y-19193800D01*
X-64150000Y-33193800D02*
X-64150000Y-32193800D01*
X-63150000Y-19193800D02*
X-64150000Y-19193800D01*
D12*
%TO.C,Dd2*%
X-49440000Y51970000D02*
X-49440000Y53050000D01*
X-50390000Y52510000D02*
X-49440000Y53050000D01*
X-50380000Y52500000D02*
X-49470000Y51970000D01*
X-50490000Y51970000D02*
X-50490000Y53050000D01*
X-48530000Y51500000D02*
X-48530000Y53490000D01*
X-51780000Y52510000D02*
X-50500000Y52510000D01*
X-48320000Y52510000D02*
X-49440000Y52510000D01*
X-51510000Y51500000D02*
X-48540000Y51500000D01*
X-51520000Y53500000D02*
X-48530000Y53490000D01*
X-51520000Y51500000D02*
X-51520000Y53500000D01*
D10*
%TO.C,SWa1*%
X25050000Y28718800D02*
X26050000Y28718800D01*
X12050000Y28718800D02*
X12050000Y29718800D01*
X13050000Y42718800D02*
X12050000Y42718800D01*
X26050000Y42718800D02*
X25050000Y42718800D01*
X12050000Y28718800D02*
X13050000Y28718800D01*
X26050000Y42718800D02*
X26050000Y41718800D01*
X26050000Y29718800D02*
X26050000Y28718800D01*
X12050000Y41718800D02*
X12050000Y42718800D01*
D12*
%TO.C,Dd1*%
X-39770000Y51500000D02*
X-39770000Y53500000D01*
X-36570000Y52510000D02*
X-37690000Y52510000D01*
X-39770000Y53500000D02*
X-36780000Y53490000D01*
X-37690000Y51970000D02*
X-37690000Y53050000D01*
X-40030000Y52510000D02*
X-38750000Y52510000D01*
X-38640000Y52510000D02*
X-37690000Y53050000D01*
X-36780000Y51500000D02*
X-36780000Y53490000D01*
X-38740000Y51970000D02*
X-38740000Y53050000D01*
X-38630000Y52500000D02*
X-37720000Y51970000D01*
X-39760000Y51500000D02*
X-36790000Y51500000D01*
%TO.C,Df2*%
X-79310000Y43950000D02*
X-76340000Y43950000D01*
X-78190000Y44960000D02*
X-77240000Y45500000D01*
X-76330000Y43950000D02*
X-76330000Y45940000D01*
X-78180000Y44950000D02*
X-77270000Y44420000D01*
X-79580000Y44960000D02*
X-78300000Y44960000D01*
X-76120000Y44960000D02*
X-77240000Y44960000D01*
X-79320000Y43950000D02*
X-79320000Y45950000D01*
X-77240000Y44420000D02*
X-77240000Y45500000D01*
X-79320000Y45950000D02*
X-76330000Y45940000D01*
X-78290000Y44420000D02*
X-78290000Y45500000D01*
%TO.C,Dd4*%
X-36320000Y-9490000D02*
X-37440000Y-9490000D01*
X-39520000Y-10500000D02*
X-39520000Y-8500000D01*
X-37440000Y-10030000D02*
X-37440000Y-8950000D01*
X-39780000Y-9490000D02*
X-38500000Y-9490000D01*
X-36530000Y-10500000D02*
X-36530000Y-8510000D01*
X-39510000Y-10500000D02*
X-36540000Y-10500000D01*
X-38490000Y-10030000D02*
X-38490000Y-8950000D01*
X-38380000Y-9500000D02*
X-37470000Y-10030000D01*
X-39520000Y-8500000D02*
X-36530000Y-8510000D01*
X-38390000Y-9490000D02*
X-37440000Y-8950000D01*
%TO.C,Db1*%
X34286300Y19990000D02*
X33006300Y19990000D01*
X32886300Y20000000D02*
X31976300Y20530000D01*
X31946300Y20530000D02*
X31946300Y19450000D01*
X34016300Y21000000D02*
X31046300Y21000000D01*
X34026300Y19000000D02*
X31036300Y19010000D01*
X34026300Y21000000D02*
X34026300Y19000000D01*
X32896300Y19990000D02*
X31946300Y19450000D01*
X31036300Y21000000D02*
X31036300Y19010000D01*
X30826300Y19990000D02*
X31946300Y19990000D01*
X32996300Y20530000D02*
X32996300Y19450000D01*
%TO.C,Da2*%
X35526300Y11500000D02*
X32536300Y11510000D01*
X33446300Y13030000D02*
X33446300Y11950000D01*
X32536300Y13500000D02*
X32536300Y11510000D01*
X32326300Y12490000D02*
X33446300Y12490000D01*
X35786300Y12490000D02*
X34506300Y12490000D01*
X34496300Y13030000D02*
X34496300Y11950000D01*
X34386300Y12500000D02*
X33476300Y13030000D01*
X34396300Y12490000D02*
X33446300Y11950000D01*
X35516300Y13500000D02*
X32546300Y13500000D01*
X35526300Y13500000D02*
X35526300Y11500000D01*
%TO.C,Dc4*%
X-9830000Y-1400000D02*
X-9830000Y-3400000D01*
X-12820000Y-1400000D02*
X-12820000Y-3390000D01*
X-9840000Y-1400000D02*
X-12810000Y-1400000D01*
X-11910000Y-1870000D02*
X-11910000Y-2950000D01*
X-10970000Y-2400000D02*
X-11880000Y-1870000D01*
X-13030000Y-2410000D02*
X-11910000Y-2410000D01*
X-10960000Y-2410000D02*
X-11910000Y-2950000D01*
X-9830000Y-3400000D02*
X-12820000Y-3390000D01*
X-10860000Y-1870000D02*
X-10860000Y-2950000D01*
X-9570000Y-2410000D02*
X-10850000Y-2410000D01*
%TO.C,Dc2*%
X-3660000Y48590000D02*
X-4610000Y48050000D01*
X-2270000Y48590000D02*
X-3550000Y48590000D01*
X-2530000Y47600000D02*
X-5520000Y47610000D01*
X-3560000Y49130000D02*
X-3560000Y48050000D01*
X-2540000Y49600000D02*
X-5510000Y49600000D01*
X-4610000Y49130000D02*
X-4610000Y48050000D01*
X-3670000Y48600000D02*
X-4580000Y49130000D01*
X-5730000Y48590000D02*
X-4610000Y48590000D01*
X-2530000Y49600000D02*
X-2530000Y47600000D01*
X-5520000Y49600000D02*
X-5520000Y47610000D01*
%TO.C,Df3*%
X-80830000Y36260000D02*
X-79550000Y36260000D01*
X-78490000Y35720000D02*
X-78490000Y36800000D01*
X-80570000Y35250000D02*
X-80570000Y37250000D01*
X-79430000Y36250000D02*
X-78520000Y35720000D01*
X-77580000Y35250000D02*
X-77580000Y37240000D01*
X-80560000Y35250000D02*
X-77590000Y35250000D01*
X-79540000Y35720000D02*
X-79540000Y36800000D01*
X-79440000Y36260000D02*
X-78490000Y36800000D01*
X-80570000Y37250000D02*
X-77580000Y37240000D01*
X-77370000Y36260000D02*
X-78490000Y36260000D01*
%TO.C,R3*%
X42370000Y39000000D02*
X38530000Y39000000D01*
X42370000Y37160000D02*
X38530000Y37160000D01*
%TO.C,Da5*%
X50560000Y-55730000D02*
X50560000Y-54650000D01*
X49530000Y-56200000D02*
X49530000Y-54200000D01*
X49530000Y-54200000D02*
X52520000Y-54210000D01*
X49540000Y-56200000D02*
X52510000Y-56200000D01*
X51610000Y-55730000D02*
X51610000Y-54650000D01*
X52730000Y-55190000D02*
X51610000Y-55190000D01*
X49270000Y-55190000D02*
X50550000Y-55190000D01*
X52520000Y-56200000D02*
X52520000Y-54210000D01*
X50670000Y-55200000D02*
X51580000Y-55730000D01*
X50660000Y-55190000D02*
X51610000Y-54650000D01*
D10*
%TO.C,SWb3*%
X-7000000Y-7000000D02*
X-6000000Y-7000000D01*
X-7000000Y-7000000D02*
X-7000000Y-6000000D01*
X6000000Y-7000000D02*
X7000000Y-7000000D01*
X-7000000Y6000000D02*
X-7000000Y7000000D01*
X7000000Y-6000000D02*
X7000000Y-7000000D01*
X7000000Y7000000D02*
X7000000Y6000000D01*
X7000000Y7000000D02*
X6000000Y7000000D01*
X-6000000Y7000000D02*
X-7000000Y7000000D01*
D12*
%TO.C,Db3*%
X32646300Y-11760000D02*
X31696300Y-12300000D01*
X33766300Y-10750000D02*
X30796300Y-10750000D01*
X32746300Y-11220000D02*
X32746300Y-12300000D01*
X33776300Y-12750000D02*
X30786300Y-12740000D01*
X32636300Y-11750000D02*
X31726300Y-11220000D01*
X31696300Y-11220000D02*
X31696300Y-12300000D01*
X30786300Y-10750000D02*
X30786300Y-12740000D01*
X33776300Y-10750000D02*
X33776300Y-12750000D01*
X34036300Y-11760000D02*
X32756300Y-11760000D01*
X30576300Y-11760000D02*
X31696300Y-11760000D01*
%TO.C,C5*%
X55411200Y9613700D02*
X55426200Y9613700D01*
X57536200Y5073700D02*
X57551200Y5073700D01*
X55411200Y5073700D02*
X55426200Y5073700D01*
X57551200Y5073700D02*
X57551200Y9613700D01*
X57536200Y9613700D02*
X57551200Y9613700D01*
X55411200Y5073700D02*
X55411200Y9613700D01*
D13*
%TO.C,USB1*%
X35706200Y56168700D02*
X35081200Y56168700D01*
X35706200Y55243700D02*
X35706200Y56168700D01*
X28406200Y46918700D02*
X27756200Y46918700D01*
X27756200Y47793700D02*
X27756200Y46943700D01*
X35706200Y46918700D02*
X35231200Y46918700D01*
X27756200Y55318700D02*
X27756200Y56168700D01*
X27756200Y46918700D02*
X27756200Y46943700D01*
X35706200Y47493700D02*
X35706200Y46918700D01*
X27756200Y56168700D02*
X28381200Y56168700D01*
D10*
%TO.C,SWb5*%
X40738134Y-54931968D02*
X39855186Y-54462496D01*
X33282585Y-66823763D02*
X34165532Y-67293234D01*
X21804266Y-60720632D02*
X22687214Y-61190104D01*
X40738134Y-54931968D02*
X40268663Y-55814915D01*
X27907396Y-49242314D02*
X28376868Y-48359366D01*
X34635004Y-66410286D02*
X34165532Y-67293234D01*
X21804266Y-60720632D02*
X22273737Y-59837685D01*
X29259815Y-48828837D02*
X28376868Y-48359366D01*
D12*
%TO.C,Dd5*%
X-21047500Y-29400000D02*
X-18077500Y-29400000D01*
X-18067500Y-29400000D02*
X-18067500Y-27410000D01*
X-19927500Y-28390000D02*
X-18977500Y-27850000D01*
X-21317500Y-28390000D02*
X-20037500Y-28390000D01*
X-21057500Y-29400000D02*
X-21057500Y-27400000D01*
X-20027500Y-28930000D02*
X-20027500Y-27850000D01*
X-17857500Y-28390000D02*
X-18977500Y-28390000D01*
X-21057500Y-27400000D02*
X-18067500Y-27410000D01*
X-19917500Y-28400000D02*
X-19007500Y-28930000D01*
X-18977500Y-28930000D02*
X-18977500Y-27850000D01*
%TO.C,C1*%
X41352200Y9923700D02*
X42610200Y9923700D01*
X41352200Y11763700D02*
X42610200Y11763700D01*
%TO.C,PB2*%
X57000000Y-23000000D02*
X55500000Y-23000000D01*
X55500000Y-30000000D02*
X57000000Y-30000000D01*
X59500000Y-28750000D02*
X59500000Y-24250000D01*
X53000000Y-24250000D02*
X53000000Y-28750000D01*
D10*
%TO.C,SWc1*%
X-25050000Y52243800D02*
X-26050000Y52243800D01*
X-26050000Y38243800D02*
X-25050000Y38243800D01*
X-12050000Y52243800D02*
X-12050000Y51243800D01*
X-13050000Y38243800D02*
X-12050000Y38243800D01*
X-12050000Y52243800D02*
X-13050000Y52243800D01*
X-26050000Y51243800D02*
X-26050000Y52243800D01*
X-12050000Y39243800D02*
X-12050000Y38243800D01*
X-26050000Y38243800D02*
X-26050000Y39243800D01*
D12*
%TO.C,Dd3*%
X-52710000Y43950000D02*
X-49740000Y43950000D01*
X-51690000Y44420000D02*
X-51690000Y45500000D01*
X-51590000Y44960000D02*
X-50640000Y45500000D01*
X-51580000Y44950000D02*
X-50670000Y44420000D01*
X-52980000Y44960000D02*
X-51700000Y44960000D01*
X-50640000Y44420000D02*
X-50640000Y45500000D01*
X-49730000Y43950000D02*
X-49730000Y45940000D01*
X-49520000Y44960000D02*
X-50640000Y44960000D01*
X-52720000Y43950000D02*
X-52720000Y45950000D01*
X-52720000Y45950000D02*
X-49730000Y45940000D01*
%TO.C,PB1*%
X57000000Y-12500000D02*
X55500000Y-12500000D01*
X59500000Y-18250000D02*
X59500000Y-13750000D01*
X53000000Y-13750000D02*
X53000000Y-18250000D01*
X55500000Y-19500000D02*
X57000000Y-19500000D01*
D10*
%TO.C,SWe1*%
X-64150000Y36956300D02*
X-64150000Y37956300D01*
X-64150000Y23956300D02*
X-64150000Y24956300D01*
X-50150000Y24956300D02*
X-50150000Y23956300D01*
X-51150000Y23956300D02*
X-50150000Y23956300D01*
X-50150000Y37956300D02*
X-51150000Y37956300D01*
X-63150000Y37956300D02*
X-64150000Y37956300D01*
X-64150000Y23956300D02*
X-63150000Y23956300D01*
X-50150000Y37956300D02*
X-50150000Y36956300D01*
D12*
%TO.C,Db5*%
X35030000Y-42650000D02*
X38020000Y-42660000D01*
X38020000Y-44650000D02*
X38020000Y-42660000D01*
X36060000Y-44180000D02*
X36060000Y-43100000D01*
X35030000Y-44650000D02*
X35030000Y-42650000D01*
X34770000Y-43640000D02*
X36050000Y-43640000D01*
X37110000Y-44180000D02*
X37110000Y-43100000D01*
X36170000Y-43650000D02*
X37080000Y-44180000D01*
X38230000Y-43640000D02*
X37110000Y-43640000D01*
X35040000Y-44650000D02*
X38010000Y-44650000D01*
X36160000Y-43640000D02*
X37110000Y-43100000D01*
%TO.C,Df4*%
X-81757500Y28750000D02*
X-78767500Y28740000D01*
X-78557500Y27760000D02*
X-79677500Y27760000D01*
X-79677500Y27220000D02*
X-79677500Y28300000D01*
X-78767500Y26750000D02*
X-78767500Y28740000D01*
X-80617500Y27750000D02*
X-79707500Y27220000D01*
X-80727500Y27220000D02*
X-80727500Y28300000D01*
X-82017500Y27760000D02*
X-80737500Y27760000D01*
X-81757500Y26750000D02*
X-81757500Y28750000D01*
X-80627500Y27760000D02*
X-79677500Y28300000D01*
X-81747500Y26750000D02*
X-78777500Y26750000D01*
%TO.C,Dc1*%
X3980000Y52450000D02*
X3070000Y52980000D01*
X5380000Y52440000D02*
X4100000Y52440000D01*
X2130000Y53450000D02*
X2130000Y51460000D01*
X5120000Y53450000D02*
X5120000Y51450000D01*
X3990000Y52440000D02*
X3040000Y51900000D01*
X3040000Y52980000D02*
X3040000Y51900000D01*
X4090000Y52980000D02*
X4090000Y51900000D01*
X1920000Y52440000D02*
X3040000Y52440000D01*
X5120000Y51450000D02*
X2130000Y51460000D01*
X5110000Y53450000D02*
X2140000Y53450000D01*
D10*
%TO.C,SWf4*%
X-82200000Y-19193800D02*
X-83200000Y-19193800D01*
X-69200000Y-32193800D02*
X-69200000Y-33193800D01*
X-69200000Y-19193800D02*
X-69200000Y-20193800D01*
X-69200000Y-19193800D02*
X-70200000Y-19193800D01*
X-83200000Y-33193800D02*
X-82200000Y-33193800D01*
X-83200000Y-20193800D02*
X-83200000Y-19193800D01*
X-83200000Y-33193800D02*
X-83200000Y-32193800D01*
X-70200000Y-33193800D02*
X-69200000Y-33193800D01*
%TO.C,SWd3*%
X-31100000Y-6000000D02*
X-31100000Y-7000000D01*
X-44100000Y7000000D02*
X-45100000Y7000000D01*
X-32100000Y-7000000D02*
X-31100000Y-7000000D01*
X-31100000Y7000000D02*
X-31100000Y6000000D01*
X-45100000Y-7000000D02*
X-44100000Y-7000000D01*
X-45100000Y6000000D02*
X-45100000Y7000000D01*
X-45100000Y-7000000D02*
X-45100000Y-6000000D01*
X-31100000Y7000000D02*
X-32100000Y7000000D01*
D14*
%TO.C,J1*%
X51700000Y56400000D02*
X50950000Y56400000D01*
X53400000Y56400000D02*
X51700000Y56400000D01*
X45700000Y56400000D02*
X44400000Y56400000D01*
X44400000Y56400000D02*
X44400000Y54650000D01*
X50950000Y56400000D02*
X50950000Y55100000D01*
X53400000Y54700000D02*
X53400000Y56400000D01*
X46450000Y55100000D02*
X46450000Y56400000D01*
X50950000Y55100000D02*
X46450000Y55100000D01*
X44400000Y49400000D02*
X44400000Y52450000D01*
X44400000Y45400000D02*
X44400000Y47500000D01*
X49050000Y45400000D02*
X44400000Y45400000D01*
X46450000Y56400000D02*
X45700000Y56400000D01*
X53400000Y52300000D02*
X53400000Y45400000D01*
X51700000Y59400000D02*
X51700000Y56400000D01*
X45700000Y56400000D02*
X45700000Y59400000D01*
X45700000Y59400000D02*
X51700000Y59400000D01*
X53400000Y45400000D02*
X51400000Y45400000D01*
D15*
X54400000Y54900000D02*
G75*
G03*
X54400000Y54900000I-200000J0D01*
G01*
D12*
%TO.C,C3*%
X57052200Y40503700D02*
X57052200Y39724700D01*
X57212200Y40503700D02*
X57212200Y39865700D01*
X56091200Y40503700D02*
X56091200Y39293700D01*
X56692200Y40503700D02*
X56692200Y39492700D01*
X55731200Y40503700D02*
X55731200Y39263700D01*
X56652200Y43213700D02*
X56652200Y42183700D01*
X56411200Y40503700D02*
X56411200Y39375700D01*
X56972200Y43023700D02*
X56972200Y42183700D01*
X56131200Y40503700D02*
X56131200Y39301700D01*
X55971200Y43410700D02*
X55971200Y42183700D01*
X56532200Y43267700D02*
X56532200Y42183700D01*
X57572200Y42356700D02*
X57572200Y40330700D01*
X57132200Y42895700D02*
X57132200Y42183700D01*
X56171200Y40503700D02*
X56171200Y39309700D01*
X56732200Y40503700D02*
X56732200Y39513700D01*
X57092200Y42930700D02*
X57092200Y42183700D01*
X56091200Y43393700D02*
X56091200Y42183700D01*
X56371200Y43325700D02*
X56371200Y42183700D01*
X56291200Y40503700D02*
X56291200Y39338700D01*
X56452200Y40503700D02*
X56452200Y39389700D01*
X57172200Y40503700D02*
X57172200Y39827700D01*
X56051200Y43399700D02*
X56051200Y42183700D01*
X56892200Y43078700D02*
X56892200Y42183700D01*
X56452200Y43297700D02*
X56452200Y42183700D01*
X56652200Y40503700D02*
X56652200Y39473700D01*
X56251200Y40503700D02*
X56251200Y39327700D01*
X57732200Y42007700D02*
X57732200Y40679700D01*
X55851200Y40503700D02*
X55851200Y39266700D01*
X56131200Y43385700D02*
X56131200Y42183700D01*
X56852200Y43103700D02*
X56852200Y42183700D01*
X56291200Y43348700D02*
X56291200Y42183700D01*
X56331200Y43337700D02*
X56331200Y42183700D01*
X56492200Y43283700D02*
X56492200Y42183700D01*
X56732200Y43173700D02*
X56732200Y42183700D01*
X57332200Y42694700D02*
X57332200Y39992700D01*
X57612200Y42283700D02*
X57612200Y40403700D01*
X56852200Y40503700D02*
X56852200Y39583700D01*
X56532200Y40503700D02*
X56532200Y39419700D01*
X56572200Y43250700D02*
X56572200Y42183700D01*
X56612200Y40503700D02*
X56612200Y39454700D01*
X57452200Y42543700D02*
X57452200Y40143700D01*
X56772200Y40503700D02*
X56772200Y39535700D01*
X57492200Y42485700D02*
X57492200Y40201700D01*
X57252200Y42781700D02*
X57252200Y42183700D01*
X57252200Y40503700D02*
X57252200Y39905700D01*
X56411200Y43311700D02*
X56411200Y42183700D01*
X56011200Y40503700D02*
X56011200Y39281700D01*
X56171200Y43377700D02*
X56171200Y42183700D01*
X57772200Y41880700D02*
X57772200Y40806700D01*
X57412200Y42597700D02*
X57412200Y40089700D01*
X56572200Y40503700D02*
X56572200Y39436700D01*
X56011200Y43405700D02*
X56011200Y42183700D01*
X56211200Y43368700D02*
X56211200Y42183700D01*
X57652200Y42202700D02*
X57652200Y40484700D01*
X56812200Y40503700D02*
X56812200Y39558700D01*
X57292200Y42739700D02*
X57292200Y42183700D01*
X57172200Y42859700D02*
X57172200Y42183700D01*
X57012200Y40503700D02*
X57012200Y39693700D01*
X57052200Y42962700D02*
X57052200Y42183700D01*
X57012200Y42993700D02*
X57012200Y42183700D01*
X56972200Y40503700D02*
X56972200Y39663700D01*
X56692200Y43194700D02*
X56692200Y42183700D01*
X56932200Y40503700D02*
X56932200Y39635700D01*
X56612200Y43232700D02*
X56612200Y42183700D01*
X56051200Y40503700D02*
X56051200Y39287700D01*
X56492200Y40503700D02*
X56492200Y39403700D01*
X57092200Y40503700D02*
X57092200Y39756700D01*
X55971200Y40503700D02*
X55971200Y39276700D01*
X57212200Y42821700D02*
X57212200Y42183700D01*
X53461399Y42538700D02*
X53861399Y42538700D01*
X56812200Y43128700D02*
X56812200Y42183700D01*
X55731200Y43423700D02*
X55731200Y42183700D01*
X53661399Y42738700D02*
X53661399Y42338700D01*
X55771200Y43423700D02*
X55771200Y42183700D01*
X55811200Y40503700D02*
X55811200Y39264700D01*
X57692200Y42111700D02*
X57692200Y40575700D01*
X55771200Y40503700D02*
X55771200Y39263700D01*
X55851200Y43420700D02*
X55851200Y42183700D01*
X55891200Y40503700D02*
X55891200Y39269700D01*
X56211200Y40503700D02*
X56211200Y39318700D01*
X56772200Y43151700D02*
X56772200Y42183700D01*
X56331200Y40503700D02*
X56331200Y39349700D01*
X55891200Y43417700D02*
X55891200Y42183700D01*
X57532200Y42423700D02*
X57532200Y40263700D01*
X57132200Y40503700D02*
X57132200Y39791700D01*
X57292200Y40503700D02*
X57292200Y39947700D01*
X56892200Y40503700D02*
X56892200Y39608700D01*
X55931200Y40503700D02*
X55931200Y39272700D01*
X56371200Y40503700D02*
X56371200Y39361700D01*
X55811200Y43422700D02*
X55811200Y42183700D01*
X56251200Y43359700D02*
X56251200Y42183700D01*
X55931200Y43414700D02*
X55931200Y42183700D01*
X57812200Y41713700D02*
X57812200Y40973700D01*
X56932200Y43051700D02*
X56932200Y42183700D01*
X57372200Y42647700D02*
X57372200Y40039700D01*
X57851200Y41343700D02*
G75*
G03*
X57851200Y41343700I-2120000J0D01*
G01*
%TO.C,F1*%
X48631200Y42943700D02*
X43309200Y42943700D01*
X46652200Y39743700D02*
X41331200Y39743700D01*
X48631200Y39743700D02*
X48631200Y39993700D01*
X41331200Y42693700D02*
X41331200Y42943700D01*
X48631200Y39743700D02*
X48410200Y39743700D01*
X46381200Y40943700D02*
X46231197Y40993702D01*
X43831200Y41793700D02*
X43681200Y41843700D01*
X41331200Y39743700D02*
X41331200Y41194700D01*
X41552200Y42943700D02*
X41331200Y42943700D01*
X48631200Y41493700D02*
X48631200Y42943700D01*
X45031198Y41393700D02*
G75*
G03*
X43831201Y41793698I-599998J200000D01*
G01*
X45031203Y41393699D02*
G75*
G03*
X46231197Y40993702I599997J-199999D01*
G01*
D10*
%TO.C,SWc5*%
X15759521Y-57259901D02*
X16729817Y-57501823D01*
X3145677Y-54114917D02*
X3387599Y-53144621D01*
X6290661Y-41501072D02*
X6532583Y-40530777D01*
X16971739Y-56531528D02*
X16729817Y-57501823D01*
X20116723Y-43917683D02*
X19146428Y-43675761D01*
X7502879Y-40772699D02*
X6532583Y-40530777D01*
X20116723Y-43917683D02*
X19874801Y-44887979D01*
X3145677Y-54114917D02*
X4115972Y-54356839D01*
%TO.C,SWd2*%
X-45100000Y12050000D02*
X-45100000Y13050000D01*
X-44100000Y26050000D02*
X-45100000Y26050000D01*
X-31100000Y26050000D02*
X-32100000Y26050000D01*
X-31100000Y13050000D02*
X-31100000Y12050000D01*
X-31100000Y26050000D02*
X-31100000Y25050000D01*
X-32100000Y12050000D02*
X-31100000Y12050000D01*
X-45100000Y12050000D02*
X-44100000Y12050000D01*
X-45100000Y25050000D02*
X-45100000Y26050000D01*
D12*
%TO.C,R2*%
X42370000Y35030000D02*
X38530000Y35030000D01*
X42370000Y36870000D02*
X38530000Y36870000D01*
%TO.C,R4*%
X45080000Y33280000D02*
X45080000Y29440000D01*
X46920000Y33280000D02*
X46920000Y29440000D01*
%TO.C,Dc3*%
X11440000Y48590000D02*
X10490000Y48050000D01*
X12570000Y47600000D02*
X9580000Y47610000D01*
X9580000Y49600000D02*
X9580000Y47610000D01*
X12560000Y49600000D02*
X9590000Y49600000D01*
X9370000Y48590000D02*
X10490000Y48590000D01*
X12830000Y48590000D02*
X11550000Y48590000D01*
X12570000Y49600000D02*
X12570000Y47600000D01*
X11430000Y48600000D02*
X10520000Y49130000D01*
X10490000Y49130000D02*
X10490000Y48050000D01*
X11540000Y49130000D02*
X11540000Y48050000D01*
%TD*%
M02*
