<?xml version="1.0" encoding="UTF-8" standalone="no"?>
<!-- Generated by SVGo -->

<svg
   width="11in"
   height="8.5in"
   viewBox="0 0 279.4 215.9"
   version="1.1"
   id="svg14"
   sodipodi:docname="plate edge as per swillkb.svg"
   inkscape:version="1.1.1 (3bf5ae0d25, 2021-09-20)"
   xmlns:inkscape="http://www.inkscape.org/namespaces/inkscape"
   xmlns:sodipodi="http://sodipodi.sourceforge.net/DTD/sodipodi-0.dtd"
   xmlns="http://www.w3.org/2000/svg"
   xmlns:svg="http://www.w3.org/2000/svg">
  <defs
     id="defs18" />
  <sodipodi:namedview
     id="namedview16"
     pagecolor="#ffffff"
     bordercolor="#666666"
     borderopacity="1.0"
     inkscape:pageshadow="2"
     inkscape:pageopacity="0.0"
     inkscape:pagecheckerboard="0"
     inkscape:document-units="mm"
     showgrid="false"
     units="in"
     inkscape:zoom="0.90109931"
     inkscape:cx="778.49355"
     inkscape:cy="324.60351"
     inkscape:window-width="1920"
     inkscape:window-height="1051"
     inkscape:window-x="-9"
     inkscape:window-y="-9"
     inkscape:window-maximized="1"
     inkscape:current-layer="svg14" />
  <polygon
     points="224.673,129.757 210.515,142.505 223.263,156.664 237.422,143.916 "
     style="fill:none;stroke:#000000;stroke-width:0.05mm"
     id="polygon4"
     transform="translate(-153.85837,30.830398)" />
  <polygon
     points="244.832,117.059 228.01,126.003 236.955,142.825 253.777,133.881 "
     style="fill:none;stroke:#000000;stroke-width:0.05mm"
     id="polygon6"
     transform="translate(-153.85837,30.830398)" />
  <polygon
     points="267.465,109.615 248.979,114.224 253.588,132.71 272.074,128.101 "
     style="fill:none;stroke:#000000;stroke-width:0.05mm"
     id="polygon8"
     transform="translate(-153.85837,30.830398)" />
  <polygon
     points="291.226,107.867 272.174,107.867 272.174,126.919 291.226,126.919 "
     style="fill:none;stroke:#000000;stroke-width:0.05mm"
     id="polygon10"
     transform="translate(-153.85837,30.830398)" />
  <polygon
     points="262.648,26.905 243.599,26.905 243.599,103.107 262.651,103.107 262.651,100.726 281.7,100.726 281.7,93.582 300.748,93.582 300.748,100.726 319.799,100.726 319.799,107.869 357.901,107.869 357.901,50.717 338.851,50.717 338.851,31.667 319.801,31.667 319.801,24.523 300.751,24.523 300.751,17.38 281.698,17.38 281.698,24.523 262.648,24.523 "
     style="fill:none;stroke:#000000;stroke-width:0.05mm"
     id="polygon12"
     transform="translate(-153.85837,30.830398)" />
</svg>
